<svg xmlns="http://www.w3.org/2000/svg" width="1000" height="1000" viewBox="0 0 1000 1000">
  <g id="e2fa13b7-2b08-4aff-8b2a-caace1f35bda" data-name="Auth 404 Page not found">
    <g id="b56c1909-4d32-4ea6-919a-a01c2b3d9f10" data-name="background">
      <path d="M838,494c29.73-39.32,4.23-133.88-18.08-177.84s-62.51-76.43-105.65-100.27a440.15,440.15,0,0,0-477.18,33.28c-33.2,24.93-63.26,55.15-82.33,92s-26.28,81-13.8,120.58,46.53,73.13,87.58,79.32c27.05,4.08,54.34-3.35,80.94-9.73s54.83-11.73,81-3.66,48.78,34,43.79,60.87c-4.81,26-31.07,41.17-53.76,54.73s-47,34.3-43.89,60.54c2.28,19.06,19.46,33.65,37.94,38.81s38.14,2.81,57.15.13c101.8-14.36,203.77-37.2,295.12-84.35,49.8-25.7,97.62-60.28,123.79-109.83S832.3,461,793,421" style="fill: #c4bbbb"/>
    </g>
    <path id="a9581ef6-8872-4042-96ec-5d3fa2d4db94" data-name="4" d="M200.4,550.63c4.35,18.43-30.13,24.52-44.33,15.33-5.07-3.16-1.68-24.82-2.11-32.43a175.72,175.72,0,0,0-8.28-39.76c-15.27,7.68-29.79,21.12-46.63,25.5-32.78,8.34-31.24-11.18-28.54-29.62.52-2.41,0-6.68.56-10.88C72.8,469,72.57,459,72.65,449c.35-19,1.35-39.74-5.8-57.66,8.8-6.23,23.62-14.6,34.09-6.52,6.77,5.42,4.09,20.53,5.46,28,3.88,21.08,10.12,53.27,1.09,73.91,8.61-.3,24.67-7.1,30.77-12.33,2.43-2.5,4.92-1.16,6.94-4.1,2.56-3.54-.65-14-1.16-18.5-1.69-17.9-3.12-37.9-8.84-55.05-3.1-8.15-12-12.92-1.39-19.75,7.74-5,28.37-4.45,33.27-.48,13.76,10.29,9.88,41.52,11.51,55.59,2.41,20.07,3.58,40.37,6,60.44a233.56,233.56,0,0,0,6.64,32.63C193.79,533.89,198.28,542.56,200.4,550.63Z"/>
    <path id="a398444c-03a2-495f-b400-1170a7586bf2" data-name="4" d="M537.29,487.32c-2.33,19.21-37.55,12.87-47.92-.95-3.74-4.83,7.16-24.4,9.43-31.85a179.8,179.8,0,0,0,6.11-41c-17.35,2-36,9.73-53.72,8-34.38-3.59-26-21.75-16.91-38.49,1.35-2.12,2.42-6.38,4.39-10.23,5.11-8.79,8.41-18.42,12-28,7.06-18.13,15.33-37.62,14.81-57.33,10.64-2.87,27.8-5.66,35,5.78,4.58,7.59-3.32,21.14-4.63,28.75-3.73,21.59-9.12,54.66-25.07,71.26,8.36,2.75,26.17,1.9,33.86-.95,3.21-1.54,5.12.62,8.1-1.48,3.71-2.5,4.32-13.64,5.43-18.15,4.7-17.76,10.39-37.44,11-55.91-.09-8.91-6.94-16.63,5.65-19.42,9.19-2.08,28.77,5.75,32.07,11.29,9.56,14.73-5.19,43.3-8.6,57.36-4.78,20.1-10.83,40-15.61,60.07a238.12,238.12,0,0,0-5.15,33.63C536.87,468.94,538.11,478.83,537.29,487.32Z"/>
    <g id="eb1a89bf-3e38-47a4-8d46-e5034f178806" data-name="astronaut">
      <g>
        <path d="M796.23,404.44c110.66,21.4,122,28.16,136.64,60.82s3.38,239.89,3.38,239.89l-53.41,31.09L769.13,444.54Z" style="fill: #fff"/>
        <path d="M796.23,404.44c110.66,21.4,122,28.16,136.64,60.82s3.38,239.89,3.38,239.89l-53.41,31.09L769.13,444.54l27.1-40.1m0-2a2,2,0,0,0-1.66.88l-27.1,40.1a2,2,0,0,0-.21,1.85L881,737a2,2,0,0,0,1.21,1.16,1.83,1.83,0,0,0,.66.11,2,2,0,0,0,1-.27l53.42-31.09a2,2,0,0,0,1-1.62c.46-8.48,11.15-208.09-3.56-240.82-7.82-17.4-14.8-27.17-33.32-35.63C882,420,849.6,412.73,796.61,402.48a1.69,1.69,0,0,0-.38,0Z"/>
      </g>
      <g>
        <path d="M787.84,437.43c93.84,22.08,99.36,25.39,111.5,89.42,14.4,75.93-16.56,209.75-16.56,209.75l-73,36-49-330.24Z"/>
        <path d="M787.84,437.43c93.84,22.08,99.36,25.39,111.5,89.42,14.4,75.93-16.56,209.75-16.56,209.75l-73,36-49-330.24,27.05-5m0-2-.36,0-27.05,5a2,2,0,0,0-1.62,2.26l49,330.25a2,2,0,0,0,1,1.47,1.91,1.91,0,0,0,.93.23,2,2,0,0,0,.88-.21l73-36a2,2,0,0,0,1.06-1.34c.08-.34,7.83-34,13.71-76.58,5.44-39.33,10.35-94.5,2.86-134-6.24-32.93-10.83-49.75-25.83-61.64-15.18-12-40.33-18.34-87.17-29.36a2.4,2.4,0,0,0-.46-.05Z"/>
      </g>
      <g>
        <path d="M479.46,714.19C502,660.27,574.54,520.1,613.75,518.13s143.12-40.19,177.43-38.23,97.05,35.29,102,72.54-27.45,158.81-87.24,182.33-216.15,30.88-216.15,30.88a769.39,769.39,0,0,1,4.41-83.81s-23.53,46.07-38.23,78.42Z" style="fill: #fff"/>
        <path d="M788.48,479.83c.94,0,1.84,0,2.7.07,34.31,2,97.05,35.29,102,72.54s-27.45,158.81-87.24,182.33-216.15,30.88-216.15,30.88a769.39,769.39,0,0,1,4.41-83.81s-23.53,46.07-38.23,78.42l-76.46-46.07C502,660.27,574.54,520.1,613.75,518.13c38.23-1.91,138-38.3,174.73-38.3m0-2v0c-19.4,0-56.08,10-91.54,19.65-32,8.73-65.17,17.75-83.29,18.66-17.87.89-43.1,27.64-75,79.49-25.29,41.11-49.37,89.87-61,117.79a2,2,0,0,0,.81,2.48L554.88,762a2,2,0,0,0,1,.29,2,2,0,0,0,.59-.09,2,2,0,0,0,1.23-1.08c10.49-23.08,25.63-53.46,33.32-68.72-3.69,39.31-3.33,72.94-3.32,73.31a2,2,0,0,0,.62,1.43,2,2,0,0,0,1.38.54h.09c.39,0,39.68-1.89,85.76-6.62,62-6.37,106.06-14.57,131-24.39,35.74-14.07,58.58-60.64,69-87.15,15.88-40.36,21.82-79.5,19.48-97.31-3.08-23.44-26.91-42-40.85-50.92-20.48-13.17-45.2-22.34-63-23.35-.89-.05-1.83-.08-2.82-.08Z"/>
      </g>
      <path d="M893.13,552.44c-4.9-37.25-67.64-70.58-102-72.54-27.92-1.59-101.95,23.44-149.68,33.86-3.61,4.18.19,0,.19,0-6.84,3.57-7.18,18-1,22.55,26.47,19.61,78,25.82,108,13.12,9.13-3.87,19.78-9.41,28.19-4.14,5.79,3.63,7.8,11.11,8.14,17.93.83,16.44-5.16,32.37-11,47.73q-5,13-10,26c-3.42,8.91-5.24,26-5.68,35.59-2.09,45.63-43,34.4-70.16,42.15A108.15,108.15,0,0,1,606.27,705a43.6,43.6,0,0,0,32.15,22c-11.16,14-34.87,11.1-48.54,21.52-.22,10.63-.14,17.1-.14,17.1S705,760.23,775.45,743.81c7.74-2.64,15.45-5.37,23.08-8.29,7.86-3,15.69-6.24,23.4-9.77C871.4,689.25,897.57,586.21,893.13,552.44Z" style="fill: #e21d67"/>
      <path d="M555.92,760.26c14.7-32.35,38.23-78.42,38.23-78.42-.83,7.48-1.51,14.84-2.06,21.9a453.62,453.62,0,0,0,17.15-94.45c.43-5.78,0-12.9-5.14-15.54-5.56-2.83-11.92,1.89-16,6.64A98.36,98.36,0,0,0,565.32,672c.95,10.78,3,23.55-5.06,30.76-5.57,5-15.25,6.39-17,13.65-.72,3,.34,6.22.27,9.35-.18,7.49-7,13.48-14.32,15.24a27.86,27.86,0,0,1-4.25.68Z" style="fill: #e21d67"/>
      <g>
        <rect x="591.65" y="580.22" width="29.5" height="21.24"/>
        <path d="M621.15,580.22v21.24h-29.5V580.22h29.5m0-2h-29.5a2,2,0,0,0-2,2v21.24a2,2,0,0,0,2,2h29.5a2,2,0,0,0,2-2V580.22a2,2,0,0,0-2-2Z"/>
      </g>
      <g>
        <ellipse cx="606.4" cy="580.22" rx="14.75" ry="5.9" style="fill: #fff"/>
        <path d="M606.4,574.32c8.15,0,14.75,2.64,14.75,5.9s-6.6,5.9-14.75,5.9-14.75-2.64-14.75-5.9,6.6-5.9,14.75-5.9m0-2c-8.32,0-16.75,2.71-16.75,7.9s8.43,7.9,16.75,7.9,16.75-2.72,16.75-7.9-8.43-7.9-16.75-7.9Z"/>
      </g>
      <g>
        <path d="M614.07,520.63c0-8.15-4.23-14.75-9.44-14.75s-9.44,6.6-9.44,14.75c0,7.52,3.61,13.71,8.26,14.62v45a3,3,0,0,0,5.9,0V533.39C612.17,530.84,614.07,526.09,614.07,520.63Z" style="fill: #fff"/>
        <path d="M604.63,505.88c5.21,0,9.44,6.6,9.44,14.75,0,5.46-1.9,10.21-4.72,12.76v46.83a3,3,0,0,1-5.9,0v-45c-4.65-.91-8.26-7.1-8.26-14.62,0-8.15,4.23-14.75,9.44-14.75m0-2c-6.41,0-11.44,7.36-11.44,16.75,0,7.67,3.39,14.1,8.26,16.1v43.49c0,2.4,2.22,4.36,4.95,4.36s5-2,5-4.36v-46c3-3.12,4.72-8.12,4.72-13.6,0-9.39-5-16.75-11.44-16.75Z"/>
      </g>
      <g>
        <ellipse cx="601.68" cy="520.43" rx="6.49" ry="12.59"/>
        <path d="M601.68,507.84c3.58,0,6.49,5.64,6.49,12.59S605.26,533,601.68,533s-6.49-5.64-6.49-12.59,2.91-12.59,6.49-12.59m0-2c-4.84,0-8.49,6.27-8.49,14.59S596.84,535,601.68,535s8.49-6.27,8.49-14.59-3.65-14.59-8.49-14.59Z"/>
      </g>
      <g>
        <path d="M636.3,607.34c25.49-5.88,89.2-2.94,99,4.9s12.74,61.76,6.86,72.54-111.75,4.9-111.75,4.9Z" style="fill: #fff"/>
        <path d="M674.7,604.23c26.2,0,54.36,3,60.61,8,9.8,7.84,12.74,61.76,6.86,72.54-2.81,5.16-28.5,6.5-54.53,6.5-28.41,0-57.22-1.6-57.22-1.6l5.88-82.34c9.24-2.13,23.51-3.11,38.4-3.11m0-2v0c-16.24,0-30,1.13-38.86,3.16a2,2,0,0,0-1.55,1.81l-5.88,82.34a2,2,0,0,0,1.89,2.14c.28,0,29.19,1.6,57.33,1.6,15,0,27.16-.44,36.16-1.32,15.67-1.54,19-4.13,20.12-6.22,3.43-6.29,3.83-23.86,2.69-38.49-.71-9.14-3.11-31-10.05-36.57s-36.36-8.45-61.85-8.45Z"/>
      </g>
      <g>
        <circle cx="707.86" cy="616.16" r="4.9" style="fill: #fff"/>
        <path d="M707.86,611.26a4.9,4.9,0,1,1-4.9,4.9,4.9,4.9,0,0,1,4.9-4.9m0-2a6.9,6.9,0,1,0,6.9,6.9,6.91,6.91,0,0,0-6.9-6.9Z"/>
      </g>
      <g>
        <circle cx="691.19" cy="616.16" r="4.9" style="fill: #fff"/>
        <path d="M691.19,611.26a4.9,4.9,0,1,1-4.9,4.9,4.9,4.9,0,0,1,4.9-4.9m0-2a6.9,6.9,0,1,0,6.91,6.9,6.91,6.91,0,0,0-6.91-6.9Z"/>
      </g>
      <g>
        <circle cx="722.56" cy="616.16" r="4.9" style="fill: #fff"/>
        <path d="M722.56,611.26a4.9,4.9,0,1,1-4.9,4.9,4.9,4.9,0,0,1,4.9-4.9m0-2a6.9,6.9,0,1,0,6.9,6.9,6.91,6.91,0,0,0-6.9-6.9Z"/>
      </g>
      <g>
        <path d="M662.24,641.65s34.84-3.92,58.36,0" style="fill: #fff"/>
        <path d="M720.6,642.65l-.16,0c-23.12-3.85-57.74,0-58.09,0a1,1,0,1,1-.22-2c.34,0,35.24-3.89,58.64,0a1,1,0,0,1-.17,2Z"/>
      </g>
      <g>
        <path d="M668.65,676.94c12.74-9.8,25.48-7.84,36.27,2a35.92,35.92,0,0,1,27.45,12.74s22.54-4.9,30.38,0c0,0,8.83-41.17,17.65-56.85s11.76-36.27,14.7-59.8,25.27-72.45,59.8-68.62c35.29,3.92,53.91,49,40.19,126.46S877.44,747.52,862.74,758.3s-85.28,44.11-143.12,39.21-110.77-21.56-102-65.68S668.65,676.94,668.65,676.94Z" style="fill: #fff"/>
        <path d="M851.08,506.16a35.48,35.48,0,0,1,3.82.21c35.29,3.92,53.91,49,40.19,126.46S877.44,747.52,862.74,758.3C849,768.35,786.76,798,731.53,798q-6,0-11.91-.49c-57.83-4.9-110.77-21.56-102-65.68s51-54.89,51-54.89c5.74-4.42,11.48-6.45,17-6.45,6.79,0,13.3,3,19.23,8.41,0,0,.24,0,.69,0a36.17,36.17,0,0,1,26.76,12.76,104.83,104.83,0,0,1,19-2.18c4.5,0,8.75.55,11.36,2.18,0,0,8.83-41.17,17.65-56.85s11.76-36.27,14.7-59.8c2.83-22.65,23.63-68.83,56-68.83m0-2c-18.87,0-32.56,14.58-40.72,26.81-10.69,16-16,33.59-17.24,43.77-3,24.3-6,44.08-14.46,59.07-7.73,13.72-15.26,45.78-17.32,55a30.72,30.72,0,0,0-10-1.32,104.1,104.1,0,0,0-18.29,2,37.93,37.93,0,0,0-27.44-12.57c-6.34-5.56-13-8.39-20-8.39-6.09,0-12.13,2.23-17.94,6.62a78.06,78.06,0,0,0-22.43,11.1,71.85,71.85,0,0,0-29.61,45.23c-2.54,12.72-.23,24,6.86,33.4,14.09,18.75,46.68,30.41,96.88,34.66,3.88.33,7.95.5,12.08.5,30.3,0,61.24-8.81,81.85-16.2,23.07-8.27,42.89-18.27,50.54-23.89,13-9.53,17.75-37.27,27.21-92.55,1.75-10.21,3.73-21.78,5.93-34.18,8.82-49.77,4.7-89.17-11.61-111-7.83-10.47-18-16.47-30.33-17.84a36.73,36.73,0,0,0-4-.22Z"/>
      </g>
      <path d="M854.9,506.37a34.19,34.19,0,0,0-14.47,1.51,75.18,75.18,0,0,1,41.63,35.59c3.87,7.38,5.94,17.7-.44,23.06-2.72,2.29-6.57,3.17-8.81,5.94-3,3.73-1.89,9.39.65,13.45s6.28,7.31,8.69,11.46c5.93,10.25,2.43,23.35-2.92,33.92S866.7,652,865.31,663.74c-1.68,14.15,5.36,28.12,4.5,42.34-.75,12.34-7.53,23.75-16.56,32.19S833,752.49,821.68,757.39a273.71,273.71,0,0,1-145.14,19.67c-14.93-2.07-31.4-6.57-39-19.6-4.17-7.19-4.87-15.83-7.52-23.71-1.73-5.11-4.88-10.26-9.14-13.31a73.31,73.31,0,0,0-3.25,11.39c-8.82,44.12,44.12,60.78,102,65.68S848,769.08,862.74,758.3s18.63-48,32.35-125.47S890.19,510.29,854.9,506.37Z" style="fill: #e21d67"/>
      <path d="M743.34,689.93A11.14,11.14,0,0,0,747,693c2.8,1.46,6,1.94,9.09,2.54,13.63,2.66,40.4,17.05,51.76,25,1.71,1.2,3.68,2.53,5.72,2.06,2.73-.62,3.75-4,3.69-6.8-.19-8.79-20.09-25.67-28.12-29.23s-17.33-3-25.36.36c-.67,2.92-1,4.67-1,4.67C758.58,689,750.23,689.2,743.34,689.93Z" style="fill: #e21d67"/>
      <g>
        <path d="M627.48,727.91c-1,17.65,22.54,29.41,34.31,26.47s31.36-19.61,28.42-50-41-18.37-41-18.37Z" style="fill: #fff"/>
        <path d="M665.16,683.67c10.81,0,23.41,3.75,25.05,20.72,2.94,30.38-16.66,47.05-28.42,50a16.73,16.73,0,0,1-4,.45c-12.38,0-31.21-11.09-30.33-26.92L649.17,686a59.56,59.56,0,0,1,16-2.35m0-2a61.14,61.14,0,0,0-16.59,2.44,2,2,0,0,0-1.17,1L625.7,727a2.08,2.08,0,0,0-.22.81c-.35,6.25,2.07,12.3,7,17.51,6.42,6.78,16.83,11.52,25.33,11.52a18.33,18.33,0,0,0,4.46-.51c5.73-1.43,14.22-6.25,20.87-15.48,5.07-7,10.76-19.11,9.06-36.65-1.4-14.52-11-22.52-27-22.52Z"/>
      </g>
      <g>
        <path d="M576.5,634.79c-8.82,2.94-10.78,28.42,4.9,52.93s49,59.8,64.7,56.86,36.27-31.37,33.33-45.1-2.94-32.34-11.76-47.05-11.77-32.35-22.55-46.07S634.34,576,627.48,575s-11.77,6.86-10.79,23.53c0,0-17.64-7.85-25.48-2.94s-2.94,11.76-2.94,11.76-7.85,2-4.91,13.72a9.53,9.53,0,0,0-5.88,5.88C575.52,631.85,576.5,634.79,576.5,634.79Z" style="fill: #fff"/>
        <path d="M626.35,574.91a8.71,8.71,0,0,1,1.13.08c6.86,1,6.86,17.65,17.64,31.37s13.72,31.37,22.55,46.07,8.82,33.33,11.76,47.05-17.64,42.16-33.33,45.1a11,11,0,0,1-1.94.17c-16.35,0-47.69-33.49-62.76-57-15.68-24.51-13.72-50-4.9-52.93,0,0-1-2.94,1-7.85a9.53,9.53,0,0,1,5.88-5.88c-2.94-11.76,4.91-13.72,4.91-13.72s-4.91-6.86,2.94-11.76A13,13,0,0,1,598.1,594c8.35,0,18.59,4.56,18.59,4.56-.92-15.74,3.4-23.61,9.66-23.61m0-2h0a9.07,9.07,0,0,0-6.72,3c-3.48,3.69-5.21,10.43-5,19.6-3.76-1.4-10.51-3.55-16.48-3.55a14.88,14.88,0,0,0-8,1.92c-2.93,1.83-4.69,4.14-5.23,6.86a10.16,10.16,0,0,0,.62,5.67,10,10,0,0,0-2.38,2.12c-1.6,2-3.17,5.48-2.1,11.35a12.17,12.17,0,0,0-5.43,6.32,16.62,16.62,0,0,0-1.34,7.42c-2.1,1.28-3.79,3.6-4.93,6.83-3.53,10-1.79,29.36,10.36,48.35,15.16,23.68,46.83,58,64.44,58a12.33,12.33,0,0,0,2.31-.21c10.25-1.92,20.86-13.08,26.83-22,6.5-9.78,9.45-19,8.09-25.42-.81-3.77-1.39-7.92-2-12.31-1.61-11.44-3.43-24.41-10-35.36-3.69-6.16-6.41-13-9-19.69-3.59-9.1-7.3-18.52-13.65-26.59-5-6.4-7.66-13.58-9.78-19.35-2.48-6.75-4.43-12.09-9.15-12.76a9.65,9.65,0,0,0-1.41-.1Z"/>
      </g>
      <g>
        <path d="M623.56,646.55c-6.87-10.78-4.91-27.45-35.29-39.21" style="fill: #fff"/>
        <path d="M623.56,647.55a1,1,0,0,1-.85-.46,50.34,50.34,0,0,1-4.14-9c-3.81-9.89-8.12-21.1-30.67-29.83a1,1,0,1,1,.73-1.86c23.37,9,28,21.2,31.8,31a48.29,48.29,0,0,0,4,8.63,1,1,0,0,1-.31,1.38A.94.94,0,0,1,623.56,647.55Z"/>
      </g>
      <g>
        <path d="M605.91,662.23c-5.88-12.74-4.9-14.7-13.72-25.48s-9.32-15.2-9.32-15.2" style="fill: #fff"/>
        <path d="M605.91,663.23a1,1,0,0,1-.91-.58c-1.69-3.66-2.79-6.37-3.76-8.77-2.34-5.75-3.62-8.91-9.83-16.5-8.9-10.89-9.51-15.52-9.53-15.72a1,1,0,0,1,2-.22s.68,4.4,9.09,14.67c6.4,7.83,7.72,11.09,10.13,17,1,2.38,2.06,5.08,3.73,8.7a1,1,0,0,1-.49,1.32A.91.91,0,0,1,605.91,663.23Z"/>
      </g>
      <g>
        <path d="M576,635.28c0,6.86,3.43,23,16.18,42.64" style="fill: #fff"/>
        <path d="M592.19,678.92a1,1,0,0,1-.84-.46C579.29,659.91,575,643.61,575,635.28a1,1,0,0,1,2,0c0,6.48,3.37,22.65,16,42.09a1,1,0,0,1-.3,1.39A1,1,0,0,1,592.19,678.92Z"/>
      </g>
      <g>
        <path d="M616.69,598.52c11.77,7.84,26.47,21.56,26.47,21.56" style="fill: #fff"/>
        <path d="M643.16,621.08a1,1,0,0,1-.68-.27c-.15-.13-14.78-13.76-26.34-21.46a1,1,0,0,1,1.11-1.67c11.69,7.8,26.45,21.53,26.59,21.67a1,1,0,0,1-.68,1.73Z"/>
      </g>
      <path d="M819.61,725a1,1,0,0,1-.71-.29c-26.88-26.88-56-32-56.31-32.07a1,1,0,0,1-.82-1.15,1,1,0,0,1,1.15-.82c.29.05,30,5.27,57.4,32.62a1,1,0,0,1,0,1.42A1,1,0,0,1,819.61,725Z"/>
      <g>
        <ellipse cx="706.63" cy="431.54" rx="119.35" ry="113.38" transform="translate(-57.61 112.96) rotate(-8.78)" style="fill: #e21d67"/>
        <path d="M708.62,318c57.41,0,107.35,39.6,116,95.32C834.14,475.2,789.09,533.53,724,543.59a127,127,0,0,1-19.31,1.49c-57.4,0-107.35-39.6-116-95.32-9.56-61.88,35.5-120.21,100.64-130.27a126.82,126.82,0,0,1,19.3-1.49m0-2a129.18,129.18,0,0,0-19.6,1.51C657,322.46,628.73,339,609.41,364s-27.41,55.62-22.7,86.1a112.07,112.07,0,0,0,40.39,69.8,123.1,123.1,0,0,0,77.54,27.21,129.31,129.31,0,0,0,19.61-1.51c32-5,60.29-21.45,79.61-46.46s27.41-55.62,22.7-86.1a112.09,112.09,0,0,0-40.4-69.8A123.14,123.14,0,0,0,708.62,316Z"/>
      </g>
      <path d="M813.8,416.26c-9.56-61.89-70.12-103.89-135.26-93.83-2.89.45-5.73,1-8.54,1.62-54.46,17.48-89.9,70.16-81.32,125.71,9.57,61.89,70.12,103.9,135.27,93.83,2.88-.45,5.73-1,8.53-1.62C787,524.49,822.38,471.81,813.8,416.26Z" style="fill: #fff"/>
      <path d="M728.48,335.44a1,1,0,0,1-.48-1.88,55.08,55.08,0,0,1,31.57-6.31,1,1,0,1,1-.2,2A53,53,0,0,0,729,335.32,1.07,1.07,0,0,1,728.48,335.44Z"/>
      <path d="M716.89,329.73a1,1,0,0,1-.8-.41,1,1,0,0,1,.21-1.4,39.82,39.82,0,0,1,23.91-7.61,1,1,0,0,1,1,1,1,1,0,0,1-1,1,37.52,37.52,0,0,0-22.71,7.23A1,1,0,0,1,716.89,329.73Z"/>
      <g>
        <path d="M588.68,449.76c8.73,56.46,55.54,97.25,111.83,87.49,73.52-12.74,101.34-62.62,92.62-119.07s-70.48-93.55-126.93-84.83S580,393.31,588.68,449.76Z"/>
        <path d="M682.89,332.08c51.35,0,102.37,35.17,110.24,86.1,8.72,56.45-19.1,106.33-92.62,119.07a96.52,96.52,0,0,1-16.57,1.45c-48.7,0-87.4-38.12-95.26-88.94C580,393.31,609.74,342.08,666.2,333.35a109.86,109.86,0,0,1,16.69-1.27m0-2a111.38,111.38,0,0,0-17,1.3A95.4,95.4,0,0,0,628,345.61a89.59,89.59,0,0,0-26.64,27c-13.8,21.57-19,49.09-14.6,77.49,3.9,25.28,15.59,48.24,32.91,64.66a93.22,93.22,0,0,0,64.32,26,99.27,99.27,0,0,0,16.91-1.48c18.06-3.13,34-8.61,47.37-16.28a96.83,96.83,0,0,0,31.07-27.67c14.93-20.95,20.4-47.72,15.81-77.4-3.79-24.56-17.85-47.09-39.58-63.43a121.62,121.62,0,0,0-72.63-24.36Z"/>
      </g>
      <path d="M726,441.18c0-42.22-37.3-76.46-83.32-76.46a88.9,88.9,0,0,0-39.92,9.34c-13.22,20.9-18.4,47.65-14.07,75.7,4.12,26.67,16.74,49.83,34.84,65.83a90.54,90.54,0,0,0,19.15,2C688.69,517.64,726,483.41,726,441.18Z" style="fill: #e21d67"/>
      <g>
        <path d="M799.93,423.47s-18.06-132.27-157.26-95c0,0-14.7,3.92-14.4,16.16C628.27,344.61,757.81,307.2,799.93,423.47Z" style="fill: #fff"/>
        <path d="M688.87,321.84c97.17,0,111.06,101.63,111.06,101.63-25.62-70.75-83.61-84.6-125.1-84.59a185.43,185.43,0,0,0-46.56,5.73c-.3-12.24,14.4-16.16,14.4-16.16,17.19-4.6,32.52-6.61,46.2-6.61m0-2h0c-14.43,0-30.14,2.25-46.71,6.68-5.61,1.5-16.15,7.21-15.88,18.14a2,2,0,0,0,.81,1.57,2,2,0,0,0,1.19.38,1.75,1.75,0,0,0,.55-.08,185.91,185.91,0,0,1,46-5.65c42.46,0,98.29,14.44,123.22,83.27a2,2,0,0,0,1.88,1.32,2,2,0,0,0,.48-.06,2,2,0,0,0,1.5-2.21,146.39,146.39,0,0,0-19.37-51.59c-9.22-15-20.75-27-34.25-35.57-16.87-10.75-36.87-16.2-59.42-16.2Z"/>
      </g>
      <g>
        <path d="M796,449.93s-19.79,110-159.9,74.17a11,11,0,0,0,4.19,12.29S772.52,584.39,796,449.93Z" style="fill: #fff"/>
        <path d="M796,449.93c-13.71,78.45-64.42,94.79-104.29,94.79a167.32,167.32,0,0,1-51.42-8.33,11,11,0,0,1-4.19-12.29c19.63,5,36.9,7.18,52.09,7.18,93.18,0,107.81-81.35,107.81-81.35m0-2a2,2,0,0,0-2,1.65,105.63,105.63,0,0,1-18.69,40c-19.92,26.37-49.24,39.74-87.15,39.74-15.77,0-33.13-2.4-51.6-7.12a2.05,2.05,0,0,0-.49-.06,2,2,0,0,0-1.88,1.32A13,13,0,0,0,639.13,538a2.19,2.19,0,0,0,.5.27,167.75,167.75,0,0,0,52.1,8.45c24.9,0,46.13-6.18,63.12-18.35,22.37-16,36.89-42.31,43.14-78.09a2,2,0,0,0-1.62-2.32,2.07,2.07,0,0,0-.35,0Zm0,4h0Z"/>
      </g>
      <g>
        <ellipse cx="798.04" cy="437.75" rx="19.61" ry="26.47"/>
        <path d="M798,411.29c10.83,0,19.61,11.85,19.61,26.46s-8.78,26.47-19.61,26.47-19.6-11.85-19.6-26.47,8.78-26.46,19.6-26.46m0-2c-11.91,0-21.6,12.77-21.6,28.46s9.69,28.47,21.6,28.47,21.61-12.77,21.61-28.47S810,409.29,798,409.29Z"/>
      </g>
      <circle cx="626.99" cy="406.87" r="15.68" style="fill: #eeede1"/>
      <circle cx="662.28" cy="422.56" r="6.86" style="fill: #eeede1"/>
      <path d="M795.38,590.66a1,1,0,0,1-.47-1.89c30.55-16,68.8-16.62,99.84-1.58a1,1,0,0,1,.46,1.34,1,1,0,0,1-1.33.46c-30.48-14.76-68-14.17-98,1.55A1,1,0,0,1,795.38,590.66Z"/>
      <path d="M880.91,662.84a1,1,0,0,1-.6-.2c-29.61-22-70.81-27.24-105-13.28a1,1,0,1,1-.75-1.85c34.79-14.22,76.76-8.91,106.91,13.53a1,1,0,0,1,.21,1.39A1,1,0,0,1,880.91,662.84Z"/>
      <path d="M802.27,599a1,1,0,0,1-.92-.6,1,1,0,0,1,.53-1.32,107.77,107.77,0,0,1,65.48-5.93,1,1,0,0,1-.45,2,105.67,105.67,0,0,0-64.24,5.82A1,1,0,0,1,802.27,599Z"/>
      <path d="M774.55,659.61a1,1,0,0,1-.42-1.91,70.13,70.13,0,0,1,25.53-6.41,1,1,0,0,1,1.06,1,1,1,0,0,1-1,1,68,68,0,0,0-24.8,6.23A1.06,1.06,0,0,1,774.55,659.61Z"/>
      <path d="M737.06,759.88a1,1,0,0,1-.56-.17,1,1,0,0,1-.27-1.39c12.76-18.86,10.94-48.08-4.15-66.53a1,1,0,1,1,1.55-1.27c15.88,19.42,17.71,49.05,4.25,68.92A1,1,0,0,1,737.06,759.88Z"/>
      <path d="M700.44,761.92a1,1,0,0,1-.47-.12,1,1,0,0,1-.41-1.35A127.77,127.77,0,0,0,714,711c.41-5.15.61-11.2-1.07-17-.19-.65-.38-1.32-.57-2-1.43-5.13-3.2-11.52-7.4-13.67a1,1,0,0,1-.43-1.35,1,1,0,0,1,1.34-.43c5,2.55,6.88,9.41,8.41,14.91.19.69.38,1.36.56,2,1.79,6.12,1.56,12.67,1.16,17.69a129.72,129.72,0,0,1-14.66,50.25A1,1,0,0,1,700.44,761.92Z"/>
      <path d="M751.26,760.34a.91.91,0,0,1-.39-.08,1,1,0,0,1-.52-1.31,60.57,60.57,0,0,0-1.24-50.32,1,1,0,1,1,1.79-.89,62.54,62.54,0,0,1,1.28,52A1,1,0,0,1,751.26,760.34Z"/>
      <path d="M667.62,751.58a1,1,0,0,1-.47-.12l-13.49-7.17a1,1,0,1,1,.93-1.77l13.5,7.18a1,1,0,0,1-.47,1.88Z"/>
      <path d="M680.12,742.43H680A31.31,31.31,0,0,1,663.57,735a1,1,0,0,1,1.33-1.49,29.39,29.39,0,0,0,15.36,6.9,1,1,0,0,1-.14,2Z"/>
      <path d="M687.21,731.85a.91.91,0,0,1-.35-.07l-15.16-5.72a1,1,0,1,1,.71-1.87l15.16,5.72a1,1,0,0,1-.36,1.94Z"/>
      <path d="M688.38,720A18.11,18.11,0,0,1,677,716a1,1,0,1,1,1.28-1.53,16.2,16.2,0,0,0,12.32,3.35,1,1,0,0,1,.28,2A16.86,16.86,0,0,1,688.38,720Z"/>
      <path d="M690.11,710.93a1,1,0,0,1-.45-.1l-9-4.5a1,1,0,1,1,.9-1.79l9,4.5a1,1,0,0,1,.44,1.34A1,1,0,0,1,690.11,710.93Z"/>
      <path d="M688.39,701a.94.94,0,0,1-.55-.17l-8.09-5.39a1,1,0,1,1,1.11-1.66l8.09,5.39a1,1,0,0,1-.56,1.83Z"/>
      <path d="M572.2,666.8a1,1,0,0,1-1-1,12.4,12.4,0,0,1,7.92-11.69,1,1,0,0,1,1.29.6,1,1,0,0,1-.6,1.28,10.35,10.35,0,0,0-6.61,9.75,1,1,0,0,1-1,1Z"/>
      <path d="M578.71,681.29a1,1,0,0,1-.54-.16,1,1,0,0,1-.31-1.38c3-4.68,6.72-7,11.83-7.24h0a1,1,0,0,1,1,1,1,1,0,0,1-1,1c-4.46.23-7.62,2.17-10.24,6.31A1,1,0,0,1,578.71,681.29Z"/>
      <path d="M583.55,662.18a1,1,0,0,1-.29,0,1,1,0,0,1-.67-1.24A18.65,18.65,0,0,1,598.25,648a1,1,0,0,1,.2,2,16.62,16.62,0,0,0-14,11.51A1,1,0,0,1,583.55,662.18Z"/>
      <path d="M577.57,641.58a.92.92,0,0,1-.46-.11,1,1,0,0,1-.43-1.35,14.52,14.52,0,0,1,11.69-7.65,1,1,0,0,1,.13,2,12.5,12.5,0,0,0-10,6.57A1,1,0,0,1,577.57,641.58Z"/>
      <path d="M594.47,639.65a1,1,0,0,1-.56-.17,1,1,0,0,1-.27-1.39A23.56,23.56,0,0,1,611.76,628a1,1,0,0,1,1,1,1,1,0,0,1-1,1,21.5,21.5,0,0,0-16.55,9.26A1,1,0,0,1,594.47,639.65Z"/>
      <path d="M600.05,613.68a1,1,0,0,1-1-.83A11.2,11.2,0,0,1,611,600.34a1,1,0,0,1-.25,2,9.21,9.21,0,0,0-9.7,10.18,1,1,0,0,1-.82,1.16Z"/>
      <path d="M619,638h-.11a1,1,0,0,1-.88-1.1,26.17,26.17,0,0,1,19.36-22.1,1,1,0,0,1,.47,1.95A24.13,24.13,0,0,0,620,637.15,1,1,0,0,1,619,638Z"/>
      <path d="M589.24,628.08a1,1,0,0,1-.53-.15,1,1,0,0,1-.32-1.38,20.3,20.3,0,0,1,18.08-9.29,1,1,0,0,1,.93,1.07,1,1,0,0,1-1.06.93,18.3,18.3,0,0,0-16.25,8.35A1,1,0,0,1,589.24,628.08Z"/>
      <path d="M628,602.73a21,21,0,0,1-10.35-2.67,1,1,0,0,1-.38-1.36,1,1,0,0,1,1.37-.38A19.57,19.57,0,0,0,640,596.69a1,1,0,0,1,1.41.17,1,1,0,0,1-.17,1.4A21.4,21.4,0,0,1,628,602.73Z"/>
      <path d="M575.89,722.18h-.12a108.74,108.74,0,0,1-75.22-45.13,1,1,0,0,1,.25-1.39,1,1,0,0,1,1.39.25,106.76,106.76,0,0,0,72.92,44.17A.28.28,0,0,0,575,720a1,1,0,0,1-.87-1.11,1,1,0,0,1,1.12-.87,2.35,2.35,0,0,1,1.32,3.87A1,1,0,0,1,575.89,722.18Z"/>
      <path d="M547,684.16a1.12,1.12,0,0,1-.31,0,81.22,81.22,0,0,1-38.13-26.7,1,1,0,1,1,1.58-1.24,79,79,0,0,0,37.17,26,1,1,0,0,1,.64,1.26A1,1,0,0,1,547,684.16Z"/>
      <path d="M581,616h-.1a52.87,52.87,0,0,1-38.19-22.66,1,1,0,0,1,1.66-1.13A50.83,50.83,0,0,0,581.13,614a1,1,0,0,1-.1,2Z"/>
      <path d="M712.05,679.5a1,1,0,0,1-1-.78,58,58,0,0,1-.76-22.57H697.8l.55,15.91a1,1,0,0,1-1,1,1,1,0,0,1-1-1l-.59-17a1,1,0,0,1,.28-.73,1,1,0,0,1,.72-.3H711.5a1,1,0,0,1,.77.36,1,1,0,0,1,.21.82,56,56,0,0,0,.54,22.94,1,1,0,0,1-.74,1.2Z"/>
      <path d="M735.78,687.48a1,1,0,0,1-1-.93l-1.45-19.88a11.42,11.42,0,0,0-1-4.63c-1.56-2.86-5.34-3.85-11.54-3l.15,22.07a1,1,0,0,1-1,1h0a1,1,0,0,1-1-1l-.16-22.93a1,1,0,0,1,.85-1c7.64-1.18,12.36.1,14.46,3.92a13,13,0,0,1,1.22,5.45l1.45,19.87a1,1,0,0,1-.92,1.07Z"/>
      <path d="M780.84,632.63c-6.6,0-12.71-.07-18.61-.14s-12-.13-18.59-.13a1,1,0,0,1,0-2c6.6,0,12.7.07,18.61.13s12,.14,18.59.14a1,1,0,0,1,0,2Z"/>
      <path d="M760.57,641.93a70.85,70.85,0,0,1-15.18-1.75,1,1,0,1,1,.42-2,64.7,64.7,0,0,0,31.19-.41,1,1,0,0,1,.47,2A71.17,71.17,0,0,1,760.57,641.93Z"/>
      <g>
        <path d="M602.48,512.74c-34.31,2.94-38.23-54.89-100-44.11s-23.52,89.21,33.33,69.6,65.09-10,65.09-10C598.39,522.54,598.57,517.31,602.48,512.74Z" style="fill: #fff"/>
        <path d="M517.11,467.29c46.72,0,53.64,45.56,82.87,45.56.81,0,1.65,0,2.5-.11-3.91,4.57-4.09,9.8-1.57,15.52,0,0-2-2.37-11-2.37s-25.43,2.46-54.09,12.34a55.17,55.17,0,0,1-18,3.13c-46,0-70.25-63.14-15.31-72.73a85.11,85.11,0,0,1,14.62-1.34m85.37,45.45h0m-85.37-47.45h0a87.39,87.39,0,0,0-15,1.37c-11.71,2-20.58,6.52-26.35,13.29A29.33,29.33,0,0,0,469,502c.88,10.2,6.32,20.52,14.9,28.31a50.33,50.33,0,0,0,33.9,13.05,57.25,57.25,0,0,0,18.67-3.24c29.31-10.1,45.24-12.23,53.44-12.23,6.89,0,9.16,1.46,9.51,1.73a1.81,1.81,0,0,0,1.49.77,2.17,2.17,0,0,0,1-.27,2.09,2.09,0,0,0,.8-2.66c-2.36-5.37-2-9.62,1.22-13.37a2,2,0,0,0,.52-1.35,2,2,0,0,0-2-2h-.21c-.78.07-1.56.1-2.31.1-12.06,0-20.18-8.43-29.59-18.2-12.35-12.82-26.34-27.36-53.28-27.36Z"/>
      </g>
      <path d="M788.73,464.73a.94.94,0,0,1-.63-.23c-.46-.37-11.16-9.36-10.66-29.14.5-20,14.72-25.45,14.86-25.5a1,1,0,1,1,.7,1.87c-.56.21-13.1,5.15-13.56,23.69-.47,18.74,9.82,27.45,9.93,27.54a1,1,0,0,1-.64,1.77Z" style="fill: #fff"/>
      <path d="M786.77,451a1,1,0,0,1-.94-.67c-6-17,1.79-27,2.12-27.43a1,1,0,0,1,1.41-.15,1,1,0,0,1,.15,1.4h0c-.07.1-7.41,9.62-1.8,25.51a1,1,0,0,1-.61,1.28A1,1,0,0,1,786.77,451Z" style="fill: #fff"/>
      <path d="M766.19,392.19a1,1,0,0,1-.79-.38C735.67,354.41,699.83,352,699.47,352a1,1,0,0,1,.11-2c.37,0,37.07,2.43,67.39,40.57a1,1,0,0,1-.78,1.62Z" style="fill: #fff"/>
      <path d="M735.79,373.56a1.05,1.05,0,0,1-.62-.21c-14.25-11.4-24.85-12.52-24.95-12.53a1,1,0,1,1,.18-2c.45,0,11.25,1.14,26,12.95a1,1,0,0,1,.16,1.41A1,1,0,0,1,735.79,373.56Z" style="fill: #fff"/>
      <g>
        <line x1="887.2" y1="473.86" x2="915.9" y2="460.61" style="fill: #fff"/>
        <path d="M887.2,474.86a1,1,0,0,1-.42-1.91l28.7-13.25a1,1,0,1,1,.84,1.82l-28.7,13.25A1.06,1.06,0,0,1,887.2,474.86Z"/>
      </g>
      <path d="M922,588.8a1,1,0,0,1-.47-.12,1,1,0,0,1-.53-.82l-1-16.24a11.67,11.67,0,0,1,.21-3.83c1.14-4.07,5.66-5.68,9-6.54,3.06-.8,6.87-1.79,8.27-4.59a1,1,0,1,1,1.79.9c-1.81,3.61-6.11,4.73-9.56,5.62-4.49,1.17-6.89,2.81-7.54,5.15a9.81,9.81,0,0,0-.15,3.17l.86,14.61L938.35,577a1,1,0,1,1,1,1.72l-16.87,10A1,1,0,0,1,922,588.8Z"/>
      <path d="M904.48,724.8h0a1,1,0,0,1-1-1l2.83-66.08a1,1,0,1,1,2,.08l-2.83,66.08A1,1,0,0,1,904.48,724.8Z"/>
      <path d="M913.56,706.58h0a1,1,0,0,1-1-1.05l1.61-35.73a1,1,0,0,1,1-.95,1,1,0,0,1,1,1l-1.61,35.73A1,1,0,0,1,913.56,706.58Z"/>
      <path d="M920.42,523.23a13.82,13.82,0,0,1-2.64-.26,14.81,14.81,0,0,1-11.63-13.81c-.1-6,4.16-12,10.34-14.61,5.35-2.26,10.8-1.34,14.56,2.44a16,16,0,0,1,3,17.93A15.5,15.5,0,0,1,920.42,523.23Zm1.87-27.92a12.94,12.94,0,0,0-5,1.08c-5.45,2.3-9.2,7.54-9.12,12.74a12.76,12.76,0,0,0,10,11.88,13.34,13.34,0,0,0,14.05-7,13.93,13.93,0,0,0-2.59-15.63h0A10.16,10.16,0,0,0,922.29,495.31Z"/>
      <path d="M924.1,521.35a9.79,9.79,0,0,1-1.87-.18,10.5,10.5,0,0,1-8.24-9.79c-.07-4.24,2.93-8.49,7.29-10.33a9.12,9.12,0,0,1,10.35,1.75,11.31,11.31,0,0,1,2.09,12.67A11,11,0,0,1,924.1,521.35Zm1.28-19.17a8.5,8.5,0,0,0-3.32.72c-3.63,1.52-6.12,5-6.07,8.45a8.45,8.45,0,0,0,6.63,7.86,8.85,8.85,0,0,0,9.31-4.63,9.25,9.25,0,0,0-1.72-10.37h0A6.69,6.69,0,0,0,925.38,502.18Z"/>
      <path d="M486.37,509.26a7.44,7.44,0,0,1-6.76-4c-1.69-3.6-.54-8.15,2.78-11.07a8.56,8.56,0,0,1,10.55-1.05h0c3.27,2.09,3.56,6.82,1.95,10.19a10.23,10.23,0,0,1-7,5.81A7.73,7.73,0,0,1,486.37,509.26Zm2.09-15.5a7.36,7.36,0,0,0-4.75,1.91c-2.17,1.91-3.82,5.45-2.29,8.72a5.62,5.62,0,0,0,6.06,2.76,8.31,8.31,0,0,0,5.6-4.71c1.21-2.53,1.09-6.17-1.21-7.65A6.27,6.27,0,0,0,488.46,493.76Z"/>
      <path d="M500.22,487.63a4.79,4.79,0,0,1-1-.11c-4.66-1.06-4.63-3.72-4.4-4.82.63-3.05,4.9-6,7.89-5.42,1.08.21,3.5,1.21,2.65,6.08h0a5.35,5.35,0,0,1-5.14,4.27Zm1.69-8.42c-1.91,0-4.76,2.09-5.14,3.89-.23,1.15.74,2,2.89,2.46a3,3,0,0,0,2.32-.49,3.2,3.2,0,0,0,1.41-2.06h0c.28-1.57.32-3.5-1.06-3.77A2.77,2.77,0,0,0,501.91,479.21Zm2.47,4h0Z"/>
      <path d="M637.34,336.08a1,1,0,0,1-1-.69,1,1,0,0,1,.64-1.26,159.71,159.71,0,0,1,45.79-7.66h0a1,1,0,0,1,0,2A157.94,157.94,0,0,0,637.64,336,1,1,0,0,1,637.34,336.08Z"/>
      <path d="M516.63,654.27a1,1,0,0,1-.44-.1,1,1,0,0,1-.46-1.34l21.91-44.57a1,1,0,1,1,1.79.89l-21.9,44.56A1,1,0,0,1,516.63,654.27Z"/>
      <path d="M524.49,654.63a.75.75,0,0,1-.26,0,1,1,0,0,1-.71-1.22,70.11,70.11,0,0,1,6.53-15.91,1,1,0,1,1,1.75,1,67.84,67.84,0,0,0-6.35,15.45A1,1,0,0,1,524.49,654.63Z"/>
      <path d="M881.25,431.61a1.12,1.12,0,0,1-.35-.06,115.33,115.33,0,0,0-37.36-7.33,1,1,0,0,1-1-1,1,1,0,0,1,1-1,117.67,117.67,0,0,1,38,7.45,1,1,0,0,1,.58,1.29A1,1,0,0,1,881.25,431.61Z"/>
    </g>
    <g id="a3c49c7e-d503-44c4-9993-7bc0fcceb0d2" data-name="moon">
      <g>
        <path d="M342.88,355c-19.56-2.46-40.5-3.06-58.69,5-18.92,8.35-36.11,21.32-50.66,35.93-14.78,14.84-26,33.93-28.42,54.73-2.22,18.82,2.71,37.7,8.38,55.78,5.17,16.48,11.19,33.12,22,46.56,16.45,20.38,42.93,31.29,69.11,31.85s51.95-8.48,74.18-22.32c15-9.36,28.95-21.28,37.36-36.84,8.33-15.41,10.71-33.51,9.47-51s-5.93-34.51-11-51.27c-4.39-14.38-9.28-29-18.64-40.77C383.24,366.65,363.18,357.56,342.88,355Z" style="fill: #e21d67"/>
        <path d="M319.78,353.38a184.54,184.54,0,0,1,23.1,1.63c20.3,2.55,40.36,11.64,53.1,27.65,9.36,11.76,14.25,26.39,18.64,40.77,5.1,16.76,9.78,33.79,11,51.27s-1.14,35.57-9.47,51c-8.41,15.56-22.34,27.48-37.36,36.84-21.58,13.43-46.49,22.35-71.88,22.35-.76,0-1.53,0-2.29,0-26.19-.56-52.67-11.47-69.12-31.85-10.85-13.44-16.87-30.08-22-46.56-5.67-18.08-10.6-37-8.38-55.78,2.46-20.8,13.64-39.89,28.42-54.73,14.55-14.61,31.74-27.58,50.66-35.93,11.15-4.93,23.32-6.61,35.59-6.61m0-2c-14.17,0-26.07,2.22-36.4,6.78-17.84,7.88-35.09,20.11-51.26,36.35-16.38,16.44-26.68,36.3-29,55.91-2.35,19.88,3.13,39.64,8.45,56.61,4.83,15.41,10.95,33,22.4,47.22,16,19.81,42.39,32,70.62,32.59l2.34,0c23.92,0,49.15-7.84,72.94-22.66,18-11.21,30.46-23.51,38.06-37.58,7.75-14.34,11.11-32.35,9.7-52.07-1.3-18.35-6.42-36.31-11.11-51.71-4.57-15-9.47-29.47-19-41.44-12.11-15.22-31.94-25.56-54.41-28.39a188.2,188.2,0,0,0-23.35-1.64Z"/>
      </g>
      <path d="M414.62,423.43c-4.39-14.38-9.28-29-18.64-40.77-12.74-16-32.8-25.1-53.1-27.65-19.56-2.46-40.5-3.06-58.69,5-16.34,7.21-31.4,17.88-44.57,30.07-12.85,14.19-22.35,31.72-24.58,50.67s2.7,37.7,8.37,55.77c5.17,16.49,11.19,33.12,22.05,46.57,16.44,20.37,42.93,31.29,69.11,31.85s51.95-8.48,74.17-22.33a137.33,137.33,0,0,0,17.79-13,77.91,77.91,0,0,0,9.65-13.88c8.33-15.41,10.71-33.51,9.47-51S419.72,440.19,414.62,423.43Z" style="fill: #fff"/>
      <path d="M267,451c-7.1,0-13.56-2.78-17.28-7.68-4.71-6.2-4.49-14.47-3.47-20.32,2.72-15.64,15.22-33,31.43-34.95a16.33,16.33,0,0,1,13.09,3.83c7.84,6.74,11,21.16,11.36,32.41h0c.08,2.74.19,6.14-1.23,9-1.54,3.12-4.64,5.21-6.91,6.73-6.91,4.63-13.78,8.91-21.7,10.44A28.25,28.25,0,0,1,267,451Zm13-61.09a19,19,0,0,0-2.1.12c-15.29,1.86-27.11,18.39-29.7,33.31-.95,5.46-1.19,13.15,3.09,18.77s12.28,8,20.6,6.42c7.56-1.45,14.23-5.62,21-10.14,2.69-1.8,5-3.5,6.22-5.94s1.11-5.45,1-8.1h0c-.34-10.82-3.31-24.64-10.66-30.95A14.14,14.14,0,0,0,280.05,389.92Z"/>
      <path d="M236.42,493.4a8,8,0,0,1-6-2.22c-2-2-2.48-4.93-2.84-7.09-1.33-7.72,2.13-19.34,8.39-22.18,2.73-1.24,7.07-1.38,12.26,5,2.61,3.21,3.86,7.23,4.81,11.09a12.43,12.43,0,0,1,.36,6.35c-1.13,4.05-5.25,6-9.52,7.5A23.62,23.62,0,0,1,236.42,493.4ZM239,463.24a5.18,5.18,0,0,0-2.19.49c-5.34,2.42-8.45,13-7.25,20,.42,2.46.88,4.6,2.29,6,2.76,2.77,7.81,1.43,11.38.18,3.76-1.32,7.37-3,8.25-6.15a10.86,10.86,0,0,0-.37-5.33c-.9-3.64-2.06-7.4-4.42-10.31C244.77,465.77,242,463.24,239,463.24Z"/>
      <path d="M295.42,555.31a20.13,20.13,0,0,1-10.35-2.73A16.23,16.23,0,0,1,277,538.86c.09-6.84,5.53-13.42,12.93-15.66,8.15-2.47,18-.44,22.89,4.73,2.55,2.7,5,7.49,2.28,15h0c-2,5.61-7.47,10.1-14.17,11.71A23.2,23.2,0,0,1,295.42,555.31Zm1.85-31.18a23.42,23.42,0,0,0-6.76,1c-6.59,2-11.43,7.79-11.51,13.77a14.23,14.23,0,0,0,7.09,12,19.39,19.39,0,0,0,14.37,1.83c6.05-1.46,10.94-5.47,12.76-10.45,1.89-5.19,1.25-9.66-1.85-12.94S302.82,524.13,297.27,524.13Zm16.89,18.46h0Z"/>
      <path d="M325.58,494.21l-.59,0c-3.28-.29-6.74-3.2-8-6.77a6.82,6.82,0,0,1,1.37-7.44c1.78-1.79,4.75-2.46,7.93-1.79s6,2.64,6.92,5.09h0a7.83,7.83,0,0,1-1.29,7.55A8,8,0,0,1,325.58,494.21Zm-1.68-14.27a5.87,5.87,0,0,0-4.17,1.45,4.92,4.92,0,0,0-.9,5.34c1,2.84,3.82,5.24,6.33,5.46a6.41,6.41,0,0,0,6.15-8.19c-.7-1.79-2.84-3.31-5.47-3.86A9.33,9.33,0,0,0,323.9,479.94Z"/>
      <path d="M376.29,437.78a18.83,18.83,0,0,1-11.16-4c-5.15-4-8.33-10-11.14-15.25-2.33-4.38-5.23-9.83-4.71-15.61a10.89,10.89,0,0,1,6.94-9.68c7.36-3,19.06-.08,24.6,4.59h0c7,5.86,10.62,15.85,9.32,25.45-.74,5.53-3.06,9.9-6.54,12.29A12.7,12.7,0,0,1,376.29,437.78ZM363.2,394A16.45,16.45,0,0,0,357,395.1a8.89,8.89,0,0,0-5.7,8c-.47,5.19,2.27,10.35,4.48,14.49,2.71,5.1,5.78,10.87,10.59,14.61,4.35,3.38,11.28,5.05,16.12,1.72,4-2.79,5.31-8,5.69-10.91,1.2-8.94-2.18-18.22-8.63-23.65C375.91,396.32,369.16,394,363.2,394Z"/>
      <path d="M372.85,552.93a14.24,14.24,0,0,1-2.64-.24c-4.63-.89-9.33-5.11-8.88-10.38.43-5,5.12-8.28,9-10.1.73-.35,1.46-.68,2.2-1,3.18-1.41,6.47-2.88,8.49-5.52,1.79-2.33,2.41-5.26,3.08-8.37a46.93,46.93,0,0,1,1.14-4.57c1.88-5.87,7.4-10.44,14.75-12.23,7.79-1.88,15.79-.14,20.39,4.45h0a17.38,17.38,0,0,1,3.09,4.27,1,1,0,0,1,.07.73,77.13,77.13,0,0,1-6.45,16.2,78.08,78.08,0,0,1-8.08,12,1,1,0,0,1-.48.32c-1.29.4-2.61.77-3.92,1.14a59.82,59.82,0,0,0-9.27,3.14,59,59,0,0,0-6.8,4c-1.53,1-3.11,2-4.74,2.91A22.76,22.76,0,0,1,372.85,552.93Zm33.36-51.17a24.61,24.61,0,0,0-5.78.7c-6.67,1.61-11.65,5.69-13.32,10.89-.45,1.4-.77,2.92-1.09,4.38-.68,3.19-1.38,6.48-3.44,9.16-2.33,3.05-5.86,4.62-9.26,6.14-.73.32-1.45.65-2.16,1-3.38,1.61-7.49,4.38-7.84,8.47s3.48,7.52,7.26,8.24c3.53.68,7.64-.28,12.22-2.83,1.57-.87,3.13-1.87,4.63-2.84a60.86,60.86,0,0,1,7-4.09,63.58,63.58,0,0,1,9.58-3.25c1.2-.33,2.4-.67,3.58-1a73.07,73.07,0,0,0,13.86-26.87,15.13,15.13,0,0,0-2.54-3.43h0C415.94,503.39,411.28,501.76,406.21,501.76Z"/>
      <path d="M253.2,423.49l-.26,0a1,1,0,0,1-.71-1.22,38.12,38.12,0,0,1,26.49-26.59,1,1,0,1,1,.52,1.93,36,36,0,0,0-25.07,25.17A1,1,0,0,1,253.2,423.49Z"/>
      <path d="M382.06,422.43a1,1,0,0,1-.49-.13,1,1,0,0,1-.38-1.36,9.83,9.83,0,0,0-4.47-13.24,1,1,0,0,1,.79-1.84,11.84,11.84,0,0,1,5.42,16.07A1,1,0,0,1,382.06,422.43Z"/>
      <path d="M390.48,515.83a1,1,0,0,1-.8-1.59A18,18,0,0,1,417.63,513a1,1,0,0,1-1.5,1.33,16,16,0,0,0-24.84,1.1A1,1,0,0,1,390.48,515.83Z"/>
      <path d="M310.7,534.34a1,1,0,0,1-.84-.46,12.32,12.32,0,0,0-14.44-4.61,1,1,0,1,1-.74-1.86,14.37,14.37,0,0,1,16.85,5.38,1,1,0,0,1-.29,1.38A1,1,0,0,1,310.7,534.34Z"/>
      <path d="M396,445.13l-.28,0c-1.45-.17-2.44-1.55-2.95-4.1a4.24,4.24,0,0,1,2-4.75h0c2.49-1.4,4.31-1.59,5.41-.58,1.34,1.24.89,3.69,0,5.57S397.77,445.13,396,445.13Zm-.23-7.13a2.23,2.23,0,0,0-1,2.62c.38,1.91.95,2.47,1.22,2.51.51.05,1.61-.86,2.46-2.71.77-1.68.75-3,.44-3.27s-1.12-.25-3.08.85Z"/>
      <g>
        <path d="M402.87,259.68c4.38,14.1-3.77,30.9-17.55,36.19s-31.07-1.75-37.24-15.15C332,245.87,390.7,220.56,402.87,259.68Z" style="fill: #fff"/>
        <path d="M377.46,239.92c10.72,0,21.05,5.75,25.41,19.76s-3.77,30.9-17.55,36.19a27.14,27.14,0,0,1-9.75,1.77c-11.3,0-22.72-6.56-27.49-16.92-10.3-22.36,10.17-40.8,29.38-40.8m0-2h0c-11.64,0-23.57,6.43-29.7,16-5.34,8.33-5.87,18.14-1.5,27.63,5,10.82,16.76,18.09,29.31,18.09a29.11,29.11,0,0,0,10.47-1.9,32.49,32.49,0,0,0,18.74-38.65c-4.19-13.45-14.14-21.17-27.32-21.17Z"/>
      </g>
      <path d="M362.44,286.62a6.46,6.46,0,0,1-3.47-1.19,11.94,11.94,0,0,1-4.56-7.31,6,6,0,0,1,.92-4.76c1.95-2.57,4.1-2.31,5.21-1.93,3.66,1.27,6.54,7.06,6.48,10.16h0a5.06,5.06,0,0,1-3.64,4.93A4.83,4.83,0,0,1,362.44,286.62Zm-3.32-13.44a2.8,2.8,0,0,0-2.19,1.38,4.16,4.16,0,0,0-.55,3.21,10.05,10.05,0,0,0,3.67,6,4.08,4.08,0,0,0,2.9.81,3.1,3.1,0,0,0,2.07-3h0c.05-2.35-2.47-7.3-5.13-8.23A2.52,2.52,0,0,0,359.12,273.18Z"/>
      <path d="M393.71,272.62a3.76,3.76,0,0,1-3.34-1.95c-.35-.73-.87-2.63,1.91-4.66a2.91,2.91,0,0,1,2.94-.52c.68.3,1.52,1.09,1.71,3.09h0c.18,2-.66,3.46-2.26,3.91A3.52,3.52,0,0,1,393.71,272.62Zm.55-5.33a1.46,1.46,0,0,0-.8.33c-.52.38-1.69,1.36-1.29,2.17a1.82,1.82,0,0,0,2,.77q.94-.27.81-1.8c-.09-.93-.35-1.36-.54-1.45Z"/>
    </g>
    <g id="e0bbb165-1a2b-40ef-bf1d-5da1d5cf2626" data-name="pattern">
      <path d="M624.35,197a1,1,0,0,1-1-1l-.23-17.62L619,193.15a1,1,0,0,1-1.93-.54l6-21.51a1,1,0,0,1,2,.25l.31,24.64a1,1,0,0,1-1,1Z"/>
      <path d="M632.1,203.27a1,1,0,0,1-.33-1.94,64.06,64.06,0,0,1,9.17-2.51l-12-.72a1,1,0,0,1-.94-1,1,1,0,0,1,1.06-.94l25.35,1.5c1.89,0,3.78.14,5.66.34a1,1,0,0,1-.17,2l-5.57-.33a63.47,63.47,0,0,0-21.88,3.6A1,1,0,0,1,632.1,203.27Z"/>
      <path d="M618,249.49a1,1,0,0,1-1-.72,95.62,95.62,0,0,1-3.17-35.62,1,1,0,0,1,1.1-.9,1,1,0,0,1,.89,1.1,93.63,93.63,0,0,0,.15,19.94A54.62,54.62,0,0,1,620.2,216a1,1,0,0,1,1.84.79A52.76,52.76,0,0,0,619,248.29a1,1,0,0,1-.74,1.17Z"/>
      <path d="M605.57,204.57a1,1,0,0,1-.44-.1l-12.26-6.15a1,1,0,0,1,.45-1.89h0l16.82.14a1,1,0,0,1,1,1,1,1,0,0,1-1,1h0l-12.52-.11,8.4,4.22a1,1,0,0,1-.45,1.89Z"/>
      <path d="M359.77,679.22a1,1,0,0,1-1-1l-.31-24.65-5.8,20.9a1,1,0,0,1-1.93-.54l7.68-27.65a1,1,0,0,1,2,.25l.4,31.66a1,1,0,0,1-1,1Z"/>
      <path d="M369.74,687.29a1,1,0,0,1-.34-1.95,82.22,82.22,0,0,1,14.1-3.63l-17.82-1.06a1,1,0,0,1-.94-1.06,1,1,0,0,1,1.06-.94l32.59,1.94c2.43,0,4.85.18,7.25.43a1,1,0,0,1-.16,2l-7.16-.42a80.65,80.65,0,0,0-28.25,4.64A1,1,0,0,1,369.74,687.29Z"/>
      <path d="M351.59,746.7a1,1,0,0,1-1-.72,122.53,122.53,0,0,1-4.06-45.68,1,1,0,0,1,1.09-.9,1,1,0,0,1,.9,1.1,120.4,120.4,0,0,0,.58,28.82A69.78,69.78,0,0,1,354.71,704a1,1,0,0,1,1.31-.53,1,1,0,0,1,.53,1.32,68,68,0,0,0-4,40.66,1,1,0,0,1-.74,1.18A1,1,0,0,1,351.59,746.7Z"/>
      <path d="M335.64,689a1,1,0,0,1-.45-.1L319.44,681a1,1,0,0,1,.45-1.9h0l21.62.18a1,1,0,0,1,1,1,1,1,0,0,1-1,1h0l-17.33-.14,11.91,6a1,1,0,0,1-.45,1.89Z"/>
      <path d="M222.55,219.77a9,9,0,0,1-4.9-1.54,7.85,7.85,0,1,1,9,.31,1,1,0,0,1-.55.16.9.9,0,0,1-.42.37A7.25,7.25,0,0,1,222.55,219.77Zm0-14.55a7.09,7.09,0,0,0-3.44.93,6.27,6.27,0,0,0,5.71,11.12.94.94,0,0,1,.43-.1.89.89,0,0,1,.3-.31,6.81,6.81,0,0,0-.3-11A5.5,5.5,0,0,0,222.58,205.22Z"/>
      <path d="M245.61,654.88a5.56,5.56,0,0,1-3-.89,1,1,0,0,1-.3-1.38,1,1,0,0,1,1.38-.31c2,1.3,4.52.21,6-1.46s2.42-4.22,1-6.15-4.17-1.77-6.18-.74-3.74,3.11-3,5.44a1,1,0,1,1-1.91.58c-1-3.43,1.28-6.39,4-7.8s6.51-1.55,8.68,1.31,1,6.43-1.07,8.71A7.84,7.84,0,0,1,245.61,654.88Z"/>
      <path d="M866.65,316.22a10.78,10.78,0,0,1-6.14-1.87,1,1,0,0,1,1.14-1.64,8.81,8.81,0,0,0,13-10.95c-2.78-2.08-6.37-1.07-8.63.45s-4.64,4.59-3.62,8a1,1,0,1,1-1.91.57c-1.1-3.69.63-7.72,4.42-10.26s8.17-2.63,11.17-.21a1.09,1.09,0,0,1,.27.33,11.1,11.1,0,0,1-2.62,13A10.9,10.9,0,0,1,866.65,316.22Z"/>
    </g>
  </g>
</svg>
