<svg xmlns="http://www.w3.org/2000/svg" width="1000" height="1000" viewBox="0 0 1000 1000">
  <g id="f5de5975-4e6c-4064-83ff-eed9f2b5e9fd" data-name="Auth 500 System Error">
    <g id="ea8b3e42-1b15-4497-ab78-a86f2aebca91" data-name="background">
      <path d="M350.14,668.05c-62.52,1.19-123.94-38.12-149-95.38s-12.4-129.08,30.83-174.25c17.63-18.43,40-33,52.55-55.17,11.86-20.9,13.49-45.82,19-69.2,7.79-32.94,24.44-64.55,50.76-85.85s62.95-31,95.24-20.82c50.29,15.84,79.49,73.5,130.56,86.6,27,6.93,55.32,0,83-3.57s58.72-2.75,79.36,16C760.64,283,766,309.45,766.77,334.1c3.55,113.39-77.14,224.09-186.17,255.42-76.56,22-165.16,9.48-230.26,55.41" style="fill: #c4bbbb"/>
    </g>
    <g id="ad11d1a6-0ecc-4422-b244-93b223f3f0a6" data-name="moon">
      <g>
        <path d="M277,495.84c-19.51,40-19.09,128-8.26,171,0,0,14.73,58.19,54,90.15S377,790.88,382,812.51l54.56,19.33s-4.25-10.25,17.56-5.61,48.1-.85,60.31,1,29.67,5,45.51-2.93,17.07-13.2,31-8.94,52.64-38.11,78.84-59.06,32.44-77.12,49.12-82.45,13.53-103,13.53-103-1.2-67.34-26.39-103.8-59-57.57-79.25-72.4-22.71-25.64-63.68-35.77-79.91,4.25-116.92,3.5-71.56,12.22-96.95,38.72S302.67,443.11,277,495.84Z" style="fill: #fff"/>
        <path d="M531.3,355.3a131.83,131.83,0,0,1,31.82,3.62c41,10.13,43.46,20.95,63.68,35.77s54.05,35.95,79.25,72.4,26.39,103.8,26.39,103.8,3.15,97.68-13.53,103S696,735.4,669.79,756.35c-25,20-61.28,59.36-76.71,59.36a7.26,7.26,0,0,1-2.13-.3,28.91,28.91,0,0,0-8.38-1.52c-7.05,0-10.69,4.45-22.63,10.46-7.84,3.94-16.07,5.16-23.87,5.16-8,0-15.46-1.27-21.64-2.23a45.17,45.17,0,0,0-6.77-.42c-8.55,0-20.2,1.29-32.23,1.29a103.41,103.41,0,0,1-21.32-1.92,47.5,47.5,0,0,0-9.6-1.2c-10.77,0-7.95,6.81-7.95,6.81L382,812.51c-5-21.63-20.1-23.57-59.34-55.54s-54-90.15-54-90.15c-10.83-43-11.25-131,8.26-171,25.72-52.73,46.9-68.2,72.3-94.7,24.7-25.77,58.06-38.75,93.91-38.75,1,0,2,0,3,0s1.91,0,2.87,0c26.41,0,53.82-7.15,82.23-7.15m0-2c-14.59,0-29,1.87-42.87,3.69-13.64,1.78-26.52,3.46-39.36,3.46-.95,0-1.88,0-2.82,0s-2.06,0-3.09,0a137.11,137.11,0,0,0-51.89,9.86,125,125,0,0,0-43.47,29.51c-4.36,4.55-8.64,8.81-12.77,12.94C315.26,432.41,296.59,451,275.15,495c-9,18.5-14.6,48.75-15.7,85.19-1,32,1.83,65.43,7.31,87.16a213.35,213.35,0,0,0,12.39,33.44c7.92,17.11,21.68,41,42.24,57.78C334.23,769,344.46,776.21,352.67,782c16.62,11.74,24.2,17.1,27.38,30.94a2,2,0,0,0,1.29,1.44l54.55,19.33a1.92,1.92,0,0,0,.67.11,2,2,0,0,0,1.45-.62,2,2,0,0,0,.4-2.14h0a2.84,2.84,0,0,1,.17-2.34c.75-1.11,2.86-1.71,5.93-1.71a45.88,45.88,0,0,1,9.19,1.16,104.41,104.41,0,0,0,21.73,2c6.58,0,13.14-.39,18.93-.73,4.86-.29,9.45-.56,13.3-.56a43.67,43.67,0,0,1,6.47.39l1.35.22a132.47,132.47,0,0,0,20.59,2c9.47,0,17.57-1.76,24.77-5.37,4.21-2.12,7.45-4.08,10.06-5.65,4.75-2.87,7.62-4.6,11.67-4.6a27.31,27.31,0,0,1,7.79,1.43,9.17,9.17,0,0,0,2.72.39c11.45,0,31.46-18.25,52.65-37.58,9.08-8.28,17.66-16.1,25.31-22.22,14.19-11.34,22.48-32.16,29.79-50.54,6-15.08,11.68-29.33,18.69-31.57,4.61-1.47,8-8,10.5-19.84,1.84-8.86,3.15-20.79,3.91-35.46,1.29-24.88.52-49.43.51-49.67a305.56,305.56,0,0,0-3.77-38.49c-3.18-19.72-9.75-47.25-23-66.39-22-31.78-50.17-51.82-70.77-66.46-3.19-2.26-6.2-4.4-8.94-6.41-5-3.67-8.88-7.06-12.62-10.35-11.05-9.68-20.59-18-51.76-25.75a133.09,133.09,0,0,0-32.3-3.68Z"/>
      </g>
      <path d="M382,812.51l54.56,19.33s-4.25-10.25,17.56-5.61,48.1-.85,60.31,1,29.67,5,45.51-2.93,17.07-13.2,31-8.94c10.84,3.31,36.7-21.62,60-42.72C600,796,546.51,791.62,506,790c-37.9-1.51-71.5,7.78-98-9-30-19-71.59-39.71-95-63-29.76-29.61-43-65-51.3-105.49.95,20.8,3.4,40,7,54.31,0,0,14.73,58.19,54,90.15S377,790.88,382,812.51Z" style="fill: #e21d67"/>
      <g>
        <path d="M280.39,500.54s-4.53-11.13-9.47-35.67c0,0,10.87-29.6,42.37-55.14,0,0,11.58,6,37.36-4.2" style="fill: #fff"/>
        <path d="M280.39,501.54a1,1,0,0,1-.93-.62c0-.11-4.62-11.5-9.52-35.86a1,1,0,0,1,.05-.54c.1-.3,11.31-30.14,42.67-55.57a1,1,0,0,1,1.09-.11c.11.05,11.6,5.6,36.53-4.24a1,1,0,0,1,.74,1.86c-22.94,9.05-34.81,5.53-37.57,4.43C284.44,434.61,273.12,462,272,465c4.84,23.94,9.31,35.1,9.35,35.21a1,1,0,0,1-.55,1.3A1,1,0,0,1,280.39,501.54Z"/>
      </g>
      <g>
        <path d="M721.32,551.22s8,12.93,21.66,16.3c0,0,4.17,85.75-10.37,106.84,0,0-10.43-5.38-30.73,9.82" style="fill: #fff"/>
        <path d="M701.88,685.18a1,1,0,0,1-.8-.4,1,1,0,0,1,.2-1.4c17.58-13.16,28-11.23,30.94-10.25,13-20.58,10.14-96.52,9.79-104.83-13.45-3.68-21.21-16-21.54-16.55a1,1,0,1,1,1.7-1c.08.12,8,12.62,21.05,15.85a1,1,0,0,1,.75.92c.18,3.52,4,86.33-10.54,107.46a1,1,0,0,1-1.28.32c-.1,0-10.24-4.82-29.67,9.73A1,1,0,0,1,701.88,685.18Z"/>
      </g>
      <g>
        <path d="M642.31,413s29.14.36,37.57,2.51,25,32.66,27.75,41.44-.12,32.93.76,32.65" style="fill: #fff"/>
        <path d="M708.39,490.56a1.07,1.07,0,0,1-.65-.21c-.62-.48-.64-.9-.3-7.45.39-7.51,1-20.06-.76-25.69-3-9.49-19.55-38.86-27-40.77-8.21-2.1-37-2.48-37.33-2.48a1,1,0,0,1,0-2h0c1.2,0,29.36.39,37.8,2.54,9.39,2.39,25.93,34.17,28.46,42.11,1.91,6,1.28,18.26.86,26.39-.14,2.58-.27,5.23-.2,6a.94.94,0,0,1,.1.23,1,1,0,0,1-.65,1.26A1,1,0,0,1,708.39,490.56Z"/>
      </g>
      <path d="M403.24,629.15c-10.15,19.05-37.79,15-24.89,55.36s49.86-1.42,71.41,23.63,54.26-27,29.76-49.18S426.22,586,403.24,629.15Z" style="fill: #e21d67"/>
      <g>
        <path d="M403.91,622.17c-10.15,19-37.79,15-24.88,55.36s49.85-1.42,71.4,23.62,54.26-27,29.76-49.18S426.89,579,403.91,622.17Z" style="fill: #fff"/>
        <path d="M424.46,607.33c12,0,25.2,14.75,38,29,5.69,6.33,11.06,12.3,16.38,17.12,9.89,8.95,9.28,22.87,5.4,32.92-4.4,11.44-13.06,19.43-21,19.43-4.07,0-7.86-2-11.26-6-5.46-6.35-12.22-9.3-21.28-9.3a89.33,89.33,0,0,0-15.57,1.87,80.73,80.73,0,0,1-13.92,1.73c-7.29,0-15.4-2-20.25-17.23-8.25-25.82.5-32.17,10.64-39.52,5.2-3.77,10.57-7.67,14.1-14.29,5.66-10.62,11.8-15.78,18.79-15.78m0-2c-7.17,0-14.09,4.7-20.55,16.84-10.15,19-37.79,15-24.88,55.36,4.76,14.91,12.81,18.62,22.15,18.62s19.67-3.6,29.49-3.6c7.18,0,14,1.93,19.76,8.6,4,4.67,8.43,6.66,12.78,6.66,19,0,36.91-37.8,17-55.84-17.61-15.93-37.44-46.64-55.73-46.64Z"/>
      </g>
      <g>
        <path d="M459.94,464.57c-13.73,34.43,13.12,12.16,37.31,25.59s24.81-.17,15-12.5S472.72,432.48,459.94,464.57Z" style="fill: #fff"/>
        <path d="M475.64,452.9c13.33,0,30.2,19.91,35.05,26s6.22,11.31,5.19,13.45c-.16.33-.65,1.35-3.09,1.35-2.29,0-6.68-.92-14.57-5.3-8.26-4.59-16.67-5.2-23.81-5.2-1.43,0-2.78,0-4.1.05s-2.29,0-3.35,0c-4.09,0-7-.33-8.1-1.91-1.45-2.14-.47-7.55,2.93-16.08,3.33-8.35,7.86-12.41,13.85-12.41m0-2c-6.13,0-11.73,3.7-15.7,13.67-7.56,19-2.81,20.73,7,20.73,2.25,0,4.76-.09,7.45-.09,6.92,0,15,.6,22.84,5,7.1,3.94,12.17,5.55,15.54,5.55,8.12,0,6.39-9.34-.53-18-6.76-8.49-23-26.76-36.62-26.76Z"/>
      </g>
      <path d="M319.92,528.07c-24.65,14.64-33.73,44.64-17.39,56.83s39.55-9.73,45.33-22.23-1.65-24.62-5.79-32S319.92,528.07,319.92,528.07Z" style="fill: #e21d67"/>
      <g>
        <path d="M319.15,519.6c-24.65,14.65-33.73,44.64-17.39,56.84s39.55-9.74,45.33-22.23-1.65-24.63-5.78-32S319.15,519.6,319.15,519.6Z" style="fill: #fff"/>
        <path d="M330.64,520.08c3.28,0,7.49.53,8.92,3.1l.57,1c4.08,7.24,10.25,18.18,5.15,29.19-4.66,10-19.74,24.64-32.78,24.64a15.7,15.7,0,0,1-9.55-3.17c-6.61-4.94-7.67-12.2-7.39-17.42.69-13.18,10.47-27.59,24.36-35.95a49.9,49.9,0,0,1,10.72-1.39m0-2a51.48,51.48,0,0,0-11.49,1.52c-24.65,14.65-33.73,44.64-17.39,56.84A17.54,17.54,0,0,0,312.5,580c14.41,0,30-15.88,34.59-25.8,5.79-12.49-1.65-24.63-5.78-32-1.81-3.22-6.24-4.12-10.67-4.12Z"/>
      </g>
      <path d="M525.48,736.19c-14.64,5.65-31.36,13.89-8.23,28.75s30.48-13.61,56.08-9.21-1.64-32.37-23.3-24.48S525.48,736.19,525.48,736.19Z" style="fill: #e21d67"/>
      <g>
        <path d="M527,728.92c-14.64,5.65-31.36,13.89-8.23,28.75s30.48-13.61,56.08-9.21-1.64-32.37-23.31-24.48S527,728.92,527,728.92Z" style="fill: #fff"/>
        <path d="M558,724.87c13,0,25.23,13.2,25.23,19.2a2.14,2.14,0,0,1-.78,1.87,6.18,6.18,0,0,1-3.72.89,20.41,20.41,0,0,1-3.52-.34,33.62,33.62,0,0,0-5.68-.49c-9.35,0-16.31,4.22-22.45,8-5.13,3.11-10,6.06-15.47,6.06-3.69,0-7.53-1.32-11.74-4-7.22-4.64-10.85-8.92-10.5-12.39.58-5.69,11.92-10.31,17.58-12.51a9.49,9.49,0,0,0,2.9.37c4.66,0,12.19-1.88,22.4-5.6a16.71,16.71,0,0,1,5.75-1m0-2a18.73,18.73,0,0,0-6.44,1.11c-12.39,4.52-18.64,5.48-21.71,5.48-2.3,0-2.83-.54-2.83-.54-14.64,5.65-31.36,13.89-8.23,28.75,4.87,3.13,9,4.34,12.82,4.34,12.9,0,21.37-14,37.92-14a31.68,31.68,0,0,1,5.34.46,22.9,22.9,0,0,0,3.86.37c16.73,0-2-26-20.73-26Z"/>
      </g>
      <g>
        <path d="M685,544.94c-10.29,6.93,4.09,21.91,11.71,18.51s7.91-2.53,7.91-2.53S704.07,532.06,685,544.94Z" style="fill: #fff"/>
        <path d="M693.67,543.63c6.68,0,8.38,11,8.79,15.47a46.55,46.55,0,0,0-6.59,2.52,3.9,3.9,0,0,1-1.64.32c-4,0-9.17-4.34-10.52-8.76a5.39,5.39,0,0,1,2.37-6.58c2.92-2,5.48-3,7.59-3m0-2c-2.35,0-5.22,1-8.7,3.31-9.26,6.24,1.47,19,9.26,19a5.93,5.93,0,0,0,2.45-.49c5-2.25,6.86-2.63,7.53-2.63.34,0,.38.1.38.1s-.35-19.29-10.92-19.29Z"/>
      </g>
      <g>
        <path d="M736.53,570.07c-8.14-1.27-38.07,38.29-8.47,94.62" style="fill: #fff"/>
        <path d="M728.07,665.69a1,1,0,0,1-.89-.54c-20.11-38.26-13.4-71.21-1.54-87.79,4-5.55,8.21-8.72,11.05-8.28a1,1,0,1,1-.31,2c-1.7-.27-5.37,2.22-9.12,7.47-11.52,16.12-18,48.24,1.69,85.7a1,1,0,0,1-.88,1.47Z"/>
      </g>
      <path d="M483.78,817.49a3.94,3.94,0,0,1-2.73-1,1,1,0,0,1-.17-.21.89.89,0,0,1-.2-.19,4.17,4.17,0,0,1,6.28-5.5,4,4,0,0,1-1.9,6.76A4.76,4.76,0,0,1,483.78,817.49Zm-.5-2.06a2.62,2.62,0,0,0,1.24,0,2.18,2.18,0,1,0-2.55-2.73,2.6,2.6,0,0,0-.11,1.34l1.76-2.12a1,1,0,0,1,1.41-.12,1,1,0,0,1,.13,1.4Z"/>
      <path d="M494.45,688.56a1,1,0,0,1-.3,0,1,1,0,0,1-.66-1.25c4.5-14.61-1.2-31.73-13.56-40.71a1,1,0,0,1-.22-1.4,1,1,0,0,1,1.39-.22c13,9.47,19,27.52,14.3,42.92A1,1,0,0,1,494.45,688.56Z"/>
      <path d="M389.45,684.28a1,1,0,0,1-.79-.39,34.15,34.15,0,0,1-5.24-31.25,1,1,0,0,1,1.27-.62,1,1,0,0,1,.63,1.27,32.07,32.07,0,0,0,4.91,29.37,1,1,0,0,1-.78,1.62Z"/>
      <path d="M401.34,685.05a1.07,1.07,0,0,1-.52-.14,23.12,23.12,0,0,1-10.92-19.52,1,1,0,0,1,1-1h0a1,1,0,0,1,1,1,21.07,21.07,0,0,0,10,17.8,1,1,0,0,1,.33,1.37A1,1,0,0,1,401.34,685.05Z"/>
      <path d="M501.22,459.36a1,1,0,0,1-.91-.58,23,23,0,0,0-35-8.73,1,1,0,1,1-1.21-1.59,25,25,0,0,1,38,9.49,1,1,0,0,1-.5,1.32A1,1,0,0,1,501.22,459.36Z"/>
      <path d="M484.2,503a5.38,5.38,0,0,1-3.5-1.34,1,1,0,0,1-1.22-.46,5,5,0,0,1,.28-5,4.84,4.84,0,0,1,4.15-2.43,4.67,4.67,0,0,1,4,2.89,4.55,4.55,0,0,1-.41,4.8A4.23,4.23,0,0,1,484.2,503ZM481,498.33a1,1,0,0,1,.41.7,2.39,2.39,0,0,0,1.84,1.85,2.56,2.56,0,0,0,2.69-.61,2.63,2.63,0,0,0,.16-2.71,2.74,2.74,0,0,0-2.28-1.73h-.06a2.84,2.84,0,0,0-2.33,1.47A4,4,0,0,0,481,498.33Z"/>
      <path d="M273.68,468.66a1,1,0,0,1-.25-2c22.7-5.87,40.87-26.19,44.17-49.41a1,1,0,0,1,1.13-.85,1,1,0,0,1,.85,1.13c-3.41,24-22.18,45-45.65,51.07Z"/>
      <path d="M291.39,507.7a.91.91,0,0,1-.45-.11,1,1,0,0,1-.45-1.34A40.18,40.18,0,0,0,288.71,468a1,1,0,0,1-.81-.58l-.89-2a1,1,0,0,1,1.72-1,42.13,42.13,0,0,1,3.55,42.68A1,1,0,0,1,291.39,507.7Z"/>
      <path d="M306.51,481.67a1,1,0,0,1-.89-.54l-9.33-18.29a1,1,0,0,1,1.78-.91l9.33,18.29a1,1,0,0,1-.43,1.34A1,1,0,0,1,306.51,481.67Z"/>
      <path d="M327.58,431a20.49,20.49,0,0,1-9.6-2.41.83.83,0,0,1-.3-.14l-.43-.27c-.49-.29-1-.61-1.44-.94a1,1,0,0,1,1.13-1.65l1.37.89A18.32,18.32,0,0,0,330,428.84a1,1,0,0,1,.28,2A19.17,19.17,0,0,1,327.58,431Z"/>
      <path d="M316.08,438.68a1,1,0,0,1-.81-.41l-1.19-1.61a1,1,0,1,1,1.61-1.19l1.19,1.61a1,1,0,0,1-.21,1.4A1,1,0,0,1,316.08,438.68Z"/>
      <path d="M700.33,464.68c-7,0-13.2-4.79-18.45-9.61-4.11-3.77-8.34-7.9-11-13.15-2.95-5.93-3.1-12.33-.41-17.13,1.34-2.37,4-4.94,7.34-4.36a1,1,0,0,1,.81,1.16,1,1,0,0,1-1.16.81c-2.1-.37-4.15,1.43-5.24,3.37-2.34,4.16-2.17,10,.45,15.25,2.46,5,6.55,8.93,10.52,12.58,5.42,5,11.89,9.94,18.92,9a1,1,0,1,1,.28,2A15.06,15.06,0,0,1,700.33,464.68Z"/>
      <path d="M680.48,493.39h-.1a1,1,0,0,1-.9-1.1,80.67,80.67,0,0,1,9-29.47,1,1,0,0,1,1.76.94,78.73,78.73,0,0,0-8.82,28.74A1,1,0,0,1,680.48,493.39Z"/>
      <path d="M669.16,475.06a1,1,0,0,1-.8-1.61,63.88,63.88,0,0,1,16.06-14.92,1,1,0,1,1,1.09,1.67A61.9,61.9,0,0,0,670,474.66,1,1,0,0,1,669.16,475.06Z"/>
      <path d="M716.86,597.45h-.05a137.49,137.49,0,0,1-32.64-5.65,1,1,0,0,1,.57-1.92,135.15,135.15,0,0,0,32.17,5.57,1,1,0,0,1,1,1A1,1,0,0,1,716.86,597.45Z"/>
      <path d="M720.25,590.72l-.27,0-17.07-4.9a1,1,0,0,1-.69-1.24,1,1,0,0,1,1.24-.68l17.07,4.89a1,1,0,0,1,.68,1.24A1,1,0,0,1,720.25,590.72Z"/>
      <path d="M585.68,418.62a8.4,8.4,0,0,1-7.47-4.69,1,1,0,0,1,.48-1.33,1,1,0,0,1,1.2.27,7,7,0,0,1,3.44-8.23,6.8,6.8,0,0,1,5.58.09,7,7,0,0,1,3.93,4.26,7.67,7.67,0,0,1-5,9.3A7.52,7.52,0,0,1,585.68,418.62Zm-4.11-3.54a6.23,6.23,0,0,0,5.7,1.3,5.68,5.68,0,0,0,3.66-6.79,5.13,5.13,0,0,0-2.84-3,4.82,4.82,0,0,0-3.93-.09,4.62,4.62,0,0,0-2.45,3.22,4.37,4.37,0,0,0,.73,3.77,1,1,0,0,1-.87,1.63Z"/>
      <path d="M308.59,675.83a5.55,5.55,0,0,1-4-1.61,1,1,0,0,1,1.44-1.39,3.52,3.52,0,1,0-1-2,1,1,0,1,1-2,.35,5.84,5.84,0,1,1,6.48,4.54A7.42,7.42,0,0,1,308.59,675.83Z"/>
      <path d="M347.86,759.69a4.58,4.58,0,0,1-3.33-1.58,3.16,3.16,0,0,1-.44-3.84,1,1,0,0,1,1.69,1.08,1.2,1.2,0,0,0,.27,1.45,2.24,2.24,0,0,0,2.41.76c1.68-.76,2.18-3.16,1.69-5-.41-1.56-1.56-3.25-3.2-3.49a2.4,2.4,0,0,0-2.11.93,1.48,1.48,0,0,0-.32,1.44,1,1,0,0,1-1.87.72,3.41,3.41,0,0,1,.62-3.41,4.41,4.41,0,0,1,4-1.66c2.73.4,4.31,2.93,4.84,5,.7,2.66-.05,6.15-2.8,7.39A3.59,3.59,0,0,1,347.86,759.69Z"/>
      <path d="M463.45,699.16a7.77,7.77,0,0,1-6.34-2.89c-1.58-2.07-1.8-4.66-2-7.17s-.41-4.81-1.89-6.36a9.9,9.9,0,0,0-1.32-1.11,8.69,8.69,0,0,1-2.09-1.94c-1.38-2-1.32-4.76.17-7.92a23.7,23.7,0,0,1,10.93-11.09,1,1,0,0,1,.88,1.8,21.64,21.64,0,0,0-10,10.15c-.68,1.43-1.62,4.11-.35,5.91a7.51,7.51,0,0,0,1.65,1.49,12.11,12.11,0,0,1,1.58,1.33c2,2.06,2.21,4.86,2.44,7.57.2,2.32.38,4.52,1.61,6.13,2.06,2.69,6.39,2.56,9.21.89,3.18-1.89,5.28-5.31,7.14-8.33,2.69-4.36,5.42-9.4,3.81-14s-6.93-6.82-12.43-8.54a1,1,0,1,1,.6-1.91c6,1.88,11.81,4.37,13.72,9.79s-1.07,10.92-4,15.68c-2,3.22-4.22,6.86-7.82,9A11,11,0,0,1,463.45,699.16Z"/>
      <path d="M601.58,609.14a2.94,2.94,0,0,1-1-.19,2.78,2.78,0,0,1-1.71-2.71,2.22,2.22,0,0,1,1.51-2.17l.1,0a2.19,2.19,0,0,1,.78-1.57,2.6,2.6,0,0,1,3.21-.28c1.48,1.1,1.47,3.29.6,4.79A4.26,4.26,0,0,1,601.58,609.14Zm-.1-3.57a1,1,0,0,1-.53.4c-.11,0-.12.27-.12.32a.83.83,0,0,0,.4.78c.72.27,1.64-.36,2.07-1.1s.48-1.77-.06-2.17a.44.44,0,0,0-.39,0,.69.69,0,0,0-.41.31,1,1,0,0,1-.38,1.34A1,1,0,0,1,601.48,605.57Z"/>
    </g>
    <g id="aed54084-f057-4080-8de3-0c0c684103a0" data-name="flag">
      <g>
        <rect x="604.5" y="290" width="2" height="101"/>
        <g>
          <path d="M605.5,394c-2.49,0-4.5-1.34-4.5-3V290c0-1.66,2-3,4.5-3s4.5,1.34,4.5,3V391C610,392.66,608,394,605.5,394Z" style="fill: #fff"/>
          <path d="M605.5,289c1.67,0,2.5.81,2.5,1V391c0,.19-.83,1-2.5,1s-2.5-.81-2.5-1V290c0-.19.83-1,2.5-1m0-2c-2.49,0-4.5,1.34-4.5,3V391c0,1.66,2,3,4.5,3s4.5-1.34,4.5-3V290c0-1.66-2-3-4.5-3Z"/>
        </g>
      </g>
      <g>
        <rect x="605" y="295" width="77" height="44"/>
        <path d="M682,295v44H605V295h77m0-2H605a2,2,0,0,0-2,2v44a2,2,0,0,0,2,2h77a2,2,0,0,0,2-2V295a2,2,0,0,0-2-2Z"/>
      </g>
      <g>
        <path d="M629.36,305.67c-2.13-.39-4.25,0-4.54,2.16-.14,1.05-.9,6.63-.21,7.24.43.39,2.3.1,2.88.21a6.8,6.8,0,0,1,3,1.08c1.58,1.12,2.09,3.42,2,5.26-.25,5.83-5.58,7.41-10.41,8.56-1.29-.86-3.24-2.26-.9-3.2,1-.36,2.24,0,3.35-.61a6.34,6.34,0,0,0,1.91-1.62c.9-1.22,2.7-5.4,1-6.73-1.19-.9-3.85,1.19-5.36,1a2.88,2.88,0,0,1-2.16-1.22c-.9-1-.72-.65-.36-1.84.21-.68.93-1,1.19-1.91a25.78,25.78,0,0,0,.36-3.67,25.13,25.13,0,0,0,0-4.07c0-.54-.47-.72-.39-1.29.28-3.24,3.42-1.77,5.79-1.87,1.62-.11,6-.4,7.13,1.15C635.73,307.18,630.15,305.85,629.36,305.67Z" style="fill: #fff"/>
        <path d="M649.41,310.57c0,1.47-.07,2.91,0,4.39a12.16,12.16,0,0,1-.36,2.41c-.54,2.92-.36,6.16-1.33,9-1.15,3.24-4.07,5.43-7.67,4.75-3.85-.68-4.42-4.64-5-7.95,0-1.73-.44-3.46-.4-5.22,0-1.52.22-2.95.36-4.43.25-2.92.25-7.31,2.74-9.29,2.19-1.73,5.58-2.88,8.2-1.76C649.12,303.8,649.52,307.51,649.41,310.57Zm-4.21-2.05c-.33-1.66.14-3.1-1.91-3.1-2.34,0-2.7,2.59-3,4.39a48.06,48.06,0,0,0-.11,13.5c.11,1.15.14,5,1.8,4.93,1.33-.07,2.08-4.5,2.19-5.36C644.84,318.16,644.26,313.2,645.2,308.52Z" style="fill: #fff"/>
        <path d="M666.33,310.57c0,1.47-.07,2.91,0,4.39a12.16,12.16,0,0,1-.36,2.41c-.54,2.92-.36,6.16-1.33,9-1.15,3.24-4.07,5.43-7.67,4.75-3.85-.68-4.42-4.64-5-7.95,0-1.73-.44-3.46-.4-5.22,0-1.52.22-2.95.36-4.43.25-2.92.25-7.31,2.74-9.29,2.19-1.73,5.58-2.88,8.2-1.76C666,303.8,666.44,307.51,666.33,310.57Zm-4.21-2.05c-.33-1.66.14-3.1-1.91-3.1-2.34,0-2.7,2.59-3,4.39a48.06,48.06,0,0,0-.11,13.5c.11,1.15.14,5,1.8,4.93,1.33-.07,2.08-4.5,2.19-5.36C661.76,318.16,661.18,313.2,662.12,308.52Z" style="fill: #fff"/>
      </g>
    </g>
    <g id="b9cab685-d79f-437d-b9f9-09454c3df03e" data-name="pattern">
      <path d="M715,167.55a1,1,0,0,1-1-1l-.22-17.63-4.1,14.76a1,1,0,1,1-1.92-.53l6-21.52a1,1,0,0,1,2,.26l.31,24.63a1,1,0,0,1-1,1Z"/>
      <path d="M722.77,173.83a1,1,0,0,1-.34-2,64.78,64.78,0,0,1,9.17-2.51l-12-.71a1,1,0,0,1-.94-1.06,1,1,0,0,1,1.06-.94l25.34,1.51q2.84,0,5.66.34a1,1,0,0,1-.16,2l-5.58-.33a62.69,62.69,0,0,0-21.88,3.6A1,1,0,0,1,722.77,173.83Z"/>
      <path d="M708.64,220.05a1,1,0,0,1-1-.73,95.61,95.61,0,0,1-3.16-35.62,1,1,0,0,1,1.1-.89,1,1,0,0,1,.89,1.1,93,93,0,0,0,.14,19.94,54.31,54.31,0,0,1,4.22-17.3,1,1,0,0,1,1.31-.53,1,1,0,0,1,.53,1.32,52.74,52.74,0,0,0-3.09,31.5,1,1,0,0,1-.73,1.18A1.07,1.07,0,0,1,708.64,220.05Z"/>
      <path d="M696.24,175.13a1,1,0,0,1-.45-.11l-12.25-6.14A1,1,0,0,1,684,167h0l16.83.14a1,1,0,0,1,0,2h0l-12.52-.1,8.41,4.22a1,1,0,0,1-.45,1.89Z"/>
      <path d="M227.44,342.78a1,1,0,0,1-1-1l-.32-24.65-5.8,20.9a1,1,0,1,1-1.92-.54l7.67-27.65a1,1,0,0,1,2,.26l.41,31.66a1,1,0,0,1-1,1Z"/>
      <path d="M237.4,350.84a1,1,0,0,1-.33-1.94,82.14,82.14,0,0,1,14.09-3.64l-17.81-1.06a1,1,0,1,1,.11-2l32.6,1.93q3.63.06,7.25.43a1,1,0,0,1-.17,2l-7.16-.43a81.17,81.17,0,0,0-28.24,4.64A1,1,0,0,1,237.4,350.84Z"/>
      <path d="M219.25,410.26a1,1,0,0,1-1-.73,122.74,122.74,0,0,1-4.06-45.68,1,1,0,0,1,1.1-.89,1,1,0,0,1,.89,1.09,120,120,0,0,0,.59,28.83,69.82,69.82,0,0,1,5.56-25.29,1,1,0,0,1,1.84.79,68.07,68.07,0,0,0-4,40.67,1,1,0,0,1-.74,1.18Z"/>
      <path d="M203.3,352.52a1.06,1.06,0,0,1-.45-.11l-15.74-7.9a1,1,0,0,1,.44-1.89h0l21.63.17a1,1,0,0,1,0,2h0l-17.32-.14,11.9,6a1,1,0,0,1,.45,1.34A1,1,0,0,1,203.3,352.52Z"/>
      <g>
        <path d="M754.79,411.25c4.25-2.74,4.05-10.16-.35-12.66s-10.89,1.09-11.08,6.16,6,9.14,10.58,7" style="fill: #fff"/>
        <path d="M751.22,413.33a9,9,0,0,1-4.91-1.55,7.85,7.85,0,1,1,9,.31,1,1,0,0,1-.54.16,1,1,0,0,1-.42.38A7.62,7.62,0,0,1,751.22,413.33Zm0-14.56a7.06,7.06,0,0,0-3.44.93,6.27,6.27,0,0,0,5.7,11.12,1.08,1.08,0,0,1,.43-.1,1.1,1.1,0,0,1,.3-.31,6.8,6.8,0,0,0-.3-11A5.39,5.39,0,0,0,751.25,398.77Z"/>
      </g>
      <path d="M504.28,70.44a5.55,5.55,0,0,1-3-.9,1,1,0,1,1,1.07-1.68c2.05,1.3,4.52.2,6.05-1.47s2.42-4.21.95-6.15-4.16-1.76-6.18-.73-3.74,3.11-3,5.43a1,1,0,0,1-1.92.58c-1-3.43,1.28-6.39,4-7.79s6.51-1.55,8.68,1.3,1,6.44-1.07,8.72A7.87,7.87,0,0,1,504.28,70.44Z"/>
      <path d="M590.31,216.78a10.78,10.78,0,0,1-6.14-1.87,1,1,0,1,1,1.15-1.64,8.81,8.81,0,0,0,13-11c-2.78-2.08-6.37-1.08-8.63.44s-4.65,4.59-3.62,8a1,1,0,0,1-1.92.57c-1.1-3.69.64-7.72,4.42-10.27s8.17-2.62,11.17-.21a.89.89,0,0,1,.27.34,11.08,11.08,0,0,1-2.62,13A10.9,10.9,0,0,1,590.31,216.78Z"/>
    </g>
    <g id="bc7fee5c-bac1-40cf-b63e-789f23aaa348" data-name="astronaut">
      <g>
        <path d="M366.62,232.57c.91-12.2,2.23-25.38,10.49-34.4,5.8-6.35,14.35-9.65,22.89-10.73s17.18-.15,25.74.78l55.31,6c13.44,1.46,27.48,3.14,38.69,10.69s18.38,23,12.2,35" style="fill: #fff"/>
        <path d="M531.94,241a1,1,0,0,1-.45-.11,1,1,0,0,1-.44-1.35c6.07-11.8-1.43-26.69-11.87-33.72-11.26-7.59-25.59-9.15-38.24-10.53l-55.31-6c-8.38-.91-17-1.85-25.51-.78-9.3,1.18-17.21,4.88-22.28,10.42-7.74,8.46-9.25,20.81-10.22,33.79a1,1,0,1,1-2-.15c1-13.34,2.56-26.06,10.74-35,5.38-5.89,13.73-9.82,23.5-11.05,8.7-1.11,17.48-.15,26,.78l55.32,6c12.87,1.41,27.47,3,39.14,10.86,11.14,7.51,19.1,23.52,12.53,36.29A1,1,0,0,1,531.94,241Z"/>
      </g>
      <g>
        <path d="M358.52,272.35c4-11.13,4.23-23.18,6.14-34.84s6-23.8,15.45-30.94c10.21-7.74,24.15-7.84,36.93-6.88,34.53,2.6,68.42,10.47,102.15,18.32,4.87,1.14,10.14,2.52,13.21,6.47s3.09,9.69,2.88,14.84l-1.9,46c-.19,4.64-.39,9.37-2,13.75s-4.78,8.41-9.2,9.83c-2.87.91-6,.66-9,.4l-125-10.79c-7.86-.67-16.08-1.48-22.67-5.82s-10.73-13.47-6.92-20.37"/>
        <path d="M517.45,310.5c-1.48,0-2.92-.12-4.29-.24l-125-10.79c-7.58-.66-16.18-1.4-23.13-6-6.64-4.38-11.28-13.66-7.48-21.23a.69.69,0,0,1,.05-.24c2.71-7.59,3.69-15.82,4.63-23.77.43-3.58.87-7.28,1.46-10.89,2.47-15,7.65-25.37,15.84-31.57,10.48-7.95,24.89-8,37.6-7.09,34.69,2.61,69.06,10.61,102.3,18.35,5.45,1.27,10.61,2.75,13.78,6.83s3.32,9.73,3.09,15.49l-1.9,46c-.19,4.67-.39,9.49-2,14.05-1.87,5.16-5.54,9.07-9.84,10.44A16.57,16.57,0,0,1,517.45,310.5ZM359.64,272.19a1,1,0,0,1-.12.57c-3.56,6.44.53,15.05,6.59,19.05,6.53,4.31,14.86,5,22.21,5.67l125,10.79c2.74.23,5.84.5,8.56-.37,3.71-1.18,6.91-4.62,8.57-9.21,1.54-4.27,1.73-8.94,1.92-13.45l1.89-46c.22-5.38.18-10.51-2.67-14.19s-7.56-4.92-12.65-6.1c-33.17-7.72-67.47-15.71-102-18.3-12.34-.93-26.3-.86-36.25,6.68-7.76,5.88-12.69,15.8-15.06,30.3-.59,3.57-1,7.25-1.45,10.81C363.26,256.37,362.29,264.52,359.64,272.19Z"/>
      </g>
      <g>
        <path d="M492.22,491.13c-2.68,8.82-2.82,27.08.34,31.29s30,32.4,41.13,32.43,32.08-8.65,34.14-12.24.14-18.26-6.86-25.48S536,488.43,536,488.43Z"/>
        <path d="M536,488.43S554,509.91,561,517.13s8.93,21.89,6.86,25.48-22.92,12.24-34.08,12.24h-.06c-11.14,0-38-28.22-41.13-32.43s-3-22.47-.34-31.29l43.81-2.7m0-2h-.13l-43.8,2.7a2,2,0,0,0-1.79,1.41c-2.62,8.62-3.28,27.83.65,33.07,3,4,30.38,33.19,42.72,33.23h.07c11.34,0,33.19-8.68,35.82-13.24,2.72-4.73.2-20.28-7.17-27.87-6.87-7.08-24.66-28.37-24.84-28.59a2,2,0,0,0-1.53-.72Z"/>
      </g>
      <path d="M534.52,546.82c-11.33,0-38.61-28.7-41.82-33-1.34-1.78-2.09-6-2.32-11.05-.54,8.17.12,16.88,2.18,19.63,3.16,4.21,30,32.4,41.13,32.43s32.08-8.65,34.14-12.24c.75-1.3,1-4,.63-7.34C564,539.3,545,546.85,534.52,546.82Z" style="fill: #e21d67"/>
      <path d="M536.93,534.14l-1.16-1.62a46.14,46.14,0,0,1,21.44-8.34l.24,2A44.24,44.24,0,0,0,536.93,534.14Z" style="fill: #fff"/>
      <g>
        <path d="M399.83,485c4.87,7.83,9.7,25.43,7.73,30.31s-20.64,39-31.4,41.93-33.22-.1-36.14-3-4.84-17.61.08-26.39,16.71-34.15,16.71-34.15Z"/>
        <path d="M399.83,485c4.87,7.83,9.7,25.43,7.73,30.31s-20.64,39-31.4,41.93a46.41,46.41,0,0,1-11.44,1.18c-10.62,0-22.62-2.13-24.7-4.22-2.93-2.94-4.84-17.61.07-26.39s16.72-34.15,16.72-34.15l43-8.66m0-2a1.72,1.72,0,0,0-.39,0l-43,8.66a2,2,0,0,0-1.42,1.12c-.12.25-11.83,25.4-16.65,34-5.17,9.23-3.59,24.9.25,28.77,3.08,3.09,17.4,4.81,26.12,4.81a47.26,47.26,0,0,0,12-1.25c11.92-3.21,30.86-38.47,32.73-43.11,2.45-6.07-3.13-24.47-7.88-32.12a2,2,0,0,0-1.7-.94Z"/>
      </g>
      <path d="M373.29,549.72c10.94-3,29.92-37.68,31.93-42.64.83-2.06.46-6.38-.61-11.28,2.63,7.77,4.23,16.35,2.95,19.53-2,4.88-20.64,39-31.4,41.93s-33.22-.1-36.14-3c-1.06-1.06-2-3.65-2.5-6.93C342.85,550,363.16,552.44,373.29,549.72Z" style="fill: #e21d67"/>
      <path d="M367.7,538.08a44.22,44.22,0,0,0-21.88-2.43l-.29-2a46.33,46.33,0,0,1,22.88,2.54Z" style="fill: #fff"/>
      <g>
        <path d="M414.78,208.07c-16.24,0-35.57-2.32-47.95,19.34s-24,79.66-26.3,91.26,0,18.57,5.42,24.75,18.56,16.25,18.56,16.25-20.88,0-24.75,24.75,3.09,69.61,3.87,82.75-1.55,29.4,8.51,32.49,37.12-3.87,48.72-7,1.55-32.49,1.55-48.73-4.64-38.67,7.73-48.73,13.15-16.24,29.39-13.92,21.66,0,21.66,0,10.83,13.92,24.75,20.11c0,0-5.41,11.6,0,19.34,0,0-5.41,17,0,27.07s-.77,34.8,3.09,44.86,13.93,8.51,32.49,10.05,25.52,4.64,29.39-15.47S553.23,413,554,394.47s-9.28-38.67-19.33-43.31-32.87-27.46-27.46-43.7,0-79.67-6.19-85.08S414.78,208.07,414.78,208.07Z" style="fill: #fff"/>
        <path d="M406,208c3,0,6,.07,8.83.07,0,0,80.06,8.9,86.24,14.31s11.6,68.84,6.19,85.08,17.4,39.06,27.46,43.7,20.11,24.75,19.33,43.31.78,72.7-3.09,92.81c-2.63,13.67-6.69,16.62-14.85,16.62-3.84,0-8.6-.65-14.54-1.15-18.56-1.54-28.62,0-32.49-10.05s2.32-34.81-3.09-44.86,0-27.07,0-27.07c-5.41-7.74,0-19.34,0-19.34-13.92-6.19-24.75-20.11-24.75-20.11s-2.41,1-8.82,1a90.58,90.58,0,0,1-12.84-1,42.74,42.74,0,0,0-6-.48c-10.64,0-12.72,5.78-23.34,14.4-12.37,10.06-7.73,32.49-7.73,48.73s10,45.63-1.55,48.73c-9.57,2.55-29.67,7.73-42.05,7.73a23.55,23.55,0,0,1-6.67-.77c-10.06-3.09-7.74-19.34-8.51-32.49s-7.74-58-3.87-82.75,24.75-24.75,24.75-24.75S351.36,349.61,346,343.42s-7.74-13.14-5.42-24.75,13.93-69.61,26.3-91.26C377,209.57,391.93,208,406,208m0-2c-14.12,0-30.09,1.58-40.86,20.42-10.9,19.08-21.29,65.75-26.52,91.86-2.25,11.27-.5,19.18,5.87,26.46,3.72,4.25,10.8,10.13,15.15,13.61a28.68,28.68,0,0,0-7,2.65c-5.6,3-12.72,9.51-14.85,23.11-3,19.06.3,49.12,2.46,69,.68,6.18,1.21,11.06,1.39,14.17.15,2.58.18,5.35.21,8,.13,11.48.27,23.35,9.71,26.25a25.07,25.07,0,0,0,7.26.86c13.3,0,35.33-5.87,42.57-7.8,9.7-2.59,7.31-18.07,5-33.05-1-6.23-2-12.68-2-17.61,0-3.44-.2-7.06-.41-10.9-.75-13.57-1.6-29,7.4-36.27,3-2.42,5.26-4.59,7.28-6.5,5.08-4.81,7.88-7.46,14.8-7.46a41.56,41.56,0,0,1,5.77.46,93.91,93.91,0,0,0,13.12,1.05,36.26,36.26,0,0,0,8.1-.74c2.74,3.28,11.62,13.23,22.91,18.83-1.32,3.67-3.58,12,.38,18.64-1.08,3.81-4.65,18.3.42,27.71,2.65,4.92,2.22,14.3,1.8,23.37-.39,8.34-.75,16.22,1.19,21.26,3.64,9.46,12.17,10,25.1,10.71,2.72.16,5.8.34,9.08.62,1.94.16,3.73.33,5.45.5,3.53.35,6.58.65,9.26.65,10,0,14.19-4.6,16.81-18.24,2.73-14.17,2.8-44.2,2.85-68.32,0-10.29,0-19.18.28-24.79.77-18.35-9-39.9-20.49-45.21-9-4.13-31.5-25.95-26.4-41.25,3-9.06,2.68-30.42,1.35-47.39-.64-8.24-3.13-35.46-8.12-39.82-1.18-1-4.32-3.78-46.48-9.66-20.58-2.88-40.65-5.11-40.86-5.14h-.22l-4.28,0c-1.5,0-3,0-4.55,0Z"/>
      </g>
      <path d="M402.41,444c0-16.18-4.6-38.5,7.6-48.61a47,47,0,0,0-5.41-14.1c-4.75-7.88-13.23-14.06-22.43-13.82l15.9-23.24c-9.69,2.53-20.11,5-29.51,1.57-11.19-4.11-18-16-19.7-27.77s-1.32-18.33,1.14-30c.72-3.41-1-10,1-15.46-5.3,20.22-9.24,39.89-10.49,46.13-2.32,11.61,0,18.57,5.42,24.75s18.56,16.25,18.56,16.25a25.5,25.5,0,0,0-19.58,10.92,13.7,13.7,0,0,0,7,7.24c3.89,1.89,8.29,2.35,12.59,2.74s8.69.77,12.64,2.52c7.67,3.41,12.37,11.57,13.85,19.83s.22,16.75-1,25.05-2.49,16.78-1,25,5.55,17.22,1.42,24.54c-4.75,8.44-16.92,8.58-24.61,14.46a10.2,10.2,0,0,0-4.09,5.79,5.93,5.93,0,0,0,0,2.55c12.44-.68,30.3-5.29,39.16-7.65C412.46,489.6,402.41,460.21,402.41,444Z" style="fill: #e21d67"/>
      <g>
        <path d="M550.91,487.28a135.75,135.75,0,0,0,1.73-15.55q-1.07,2-2.29,4c-5.93,9.23-15.72,16.52-26.67,17.13s-22.48-6.82-24.4-17.62c-1.22-6.93,1.39-14.14.07-21.06-1-5.29-4.23-10-5.28-15.24s1.49-12.13,6.87-12.53c1.63-.12,3.43.35,4.79-.55,2.11-1.41,1.16-5-1-6.34s-4.84-1.36-7.33-1.84-5.23-1.9-5.62-4.41c-.5-3.25,3.17-5.54,6.37-6.28s7-1.16,8.75-3.93c2.86-4.45-2.39-10-7.56-11.15s-10.94-.26-15.43-3.07c-6.91-4.32-6.82-14.58-12-20.89-5.6-6.85-15.68-7.4-24.53-7.39-9.66,0-21.45,1.33-25.3,10.19-1.85,4.25-1.11,8.9,1,13.1,3.84-2.65,8.1-3.7,16.42-2.51,16.25,2.32,21.66,0,21.66,0s10.83,13.92,24.75,20.11c0,0-5.41,11.6,0,19.34,0,0-5.41,17,0,27.07s-.77,34.8,3.09,44.86,13.93,8.51,32.49,10.05S547,507.39,550.91,487.28Z" style="fill: #e21d67"/>
        <path d="M462.69,265.28c7.33-.38,15.32-2,21.52,1.9,6.52,4.1,8.4,12.87,7.69,20.53-1.8,19.51-17.72,36.85-37,40.3-4.64.84-10.59,1.93-11.51,6.56-.95,4.79,5.05,8.29,9.9,7.72s9.17-3.43,14-4.22c15.93-2.61,28.13,17.33,44.26,16.89,6.69-.18,13.42-3.87,19.85-5.67a55.73,55.73,0,0,1-6-4.61c-1.12.06-2.24.11-3.36.13-10.95.16-23.84-4-26.79-14.57s5.62-20.45,11.58-29.69c.75-1.17,1.47-2.38,2.15-3.6,1.17-14.31,0-36.53-2.31-53.06A32.57,32.57,0,0,0,495,235.27c-7.31-3.15-15.6-3.44-22.93-6.54C463.52,225.1,457,218,449.54,212.37c-18.45-2.49-34.76-4.3-34.76-4.3-1.87,0-3.78,0-5.71,0a34.86,34.86,0,0,0-7.86,5.32l2,2.95C407.22,244.19,434.55,266.71,462.69,265.28Z" style="fill: #e21d67"/>
      </g>
      <path d="M380,369.51a9.27,9.27,0,0,1-3.36-.58c-7.77-3-9.6-4.56-12.37-7-1-.89-2.19-1.9-3.87-3.16a1,1,0,0,1,1.2-1.6c1.73,1.3,2.93,2.34,4,3.25,2.7,2.35,4.33,3.77,11.78,6.62,8.85,3.37,28.29-13.36,31.47-21.31,2.08-5.2-.33-7-3.66-9.52a28.13,28.13,0,0,1-3.08-2.55c-3.85-3.85-9.27-10-9.33-10.1a1,1,0,0,1-.2-1c0-.12,3.88-12.46,6.17-22.36s4.6-23,4.63-23.15a1,1,0,0,1,1.16-.81,1,1,0,0,1,.81,1.16c0,.13-2.35,13.29-4.65,23.25-2,8.8-5.28,19.47-6,22,1.28,1.45,5.64,6.36,8.86,9.59a27.28,27.28,0,0,0,2.87,2.36c3.26,2.46,7,5.24,4.32,11.86C407.83,353.65,391.08,369.51,380,369.51Z"/>
      <g>
        <path d="M454.62,321.38a73.85,73.85,0,0,1-25.53-3.87c-13.92-4.64-34.52,2-34.52,2" style="fill: #fff"/>
        <path d="M452.49,322.43a77,77,0,0,1-23.71-4c-13.46-4.48-33.71,1.9-33.91,2a1,1,0,1,1-.61-1.9c.85-.27,21.08-6.65,35.15-1.95a73.53,73.53,0,0,0,25.14,3.81,1,1,0,0,1,.13,2C454.57,322.39,453.79,322.43,452.49,322.43Z"/>
      </g>
      <g>
        <g>
          <ellipse cx="468.23" cy="191.37" rx="59.54" ry="55.98" transform="translate(173.26 602.28) rotate(-76.56)" style="fill: #fff"/>
          <path d="M469.74,132a52.7,52.7,0,0,1,12.33,1.46c30.07,7.18,48.25,38.94,40.6,70.92-6.59,27.6-30.27,46.35-56,46.35a53.13,53.13,0,0,1-12.32-1.45c-30.07-7.19-48.25-38.94-40.61-70.93,6.6-27.6,30.28-46.35,56-46.35m0-2v0h0a57.84,57.84,0,0,0-36.4,13.28,64.1,64.1,0,0,0-21.5,34.61c-7.89,33,11,65.9,42.08,73.33a55.27,55.27,0,0,0,12.79,1.51,57.83,57.83,0,0,0,36.41-13.28,64.08,64.08,0,0,0,21.5-34.61,63.12,63.12,0,0,0-6.37-46.21,56,56,0,0,0-35.72-27.12A55.19,55.19,0,0,0,469.75,130Z"/>
        </g>
        <g>
          <ellipse cx="409.79" cy="185.23" rx="16.37" ry="11.19" transform="translate(134.37 540.74) rotate(-76.56)"/>
          <path d="M411.77,169.1a8,8,0,0,1,1.82.21c6,1.44,9.18,9.73,7.08,18.52-1.89,7.91-7.4,13.53-12.87,13.53a8.07,8.07,0,0,1-1.82-.21c-6-1.44-9.18-9.73-7.07-18.52,1.89-7.91,7.4-13.53,12.86-13.53m0-2h0c-6.5,0-12.73,6.34-14.82,15.07-2.35,9.85,1.49,19.23,8.56,20.93a10.22,10.22,0,0,0,2.28.26c6.5,0,12.73-6.33,14.82-15.06,2.35-9.85-1.49-19.24-8.56-20.93a9.74,9.74,0,0,0-2.28-.27Z"/>
        </g>
        <path d="M488.82,135.55a36.89,36.89,0,0,1,5.39,9.24c3.28,8.33,2.94,18.29-2,25.72-1.53,2.28-3.54,4.56-3.43,7.3.13,3.54,3.7,5.93,5.05,9.21,1.28,3.12.43,6.73,1.24,10,1.22,5,5.95,8.25,10.43,10.78s9.07,4.84,13.77,6.93a63.86,63.86,0,0,0,3.43-10.36C529.73,174.87,514.79,145.55,488.82,135.55Z" style="fill: #e21d67"/>
        <g>
          <ellipse cx="521.48" cy="208.44" rx="16.03" ry="11.19" transform="translate(197.52 667.18) rotate(-76.56)"/>
          <path d="M523.35,192.64a8.27,8.27,0,0,1,1.85.21c6,1.44,9.22,9.58,7.16,18.19-1.85,7.73-7.31,13.21-12.75,13.21a7.88,7.88,0,0,1-1.86-.22c-6-1.44-9.21-9.58-7.15-18.19,1.84-7.73,7.3-13.2,12.75-13.2m0-2h0c-6.48,0-12.66,6.19-14.7,14.74a21.93,21.93,0,0,0,.64,13c1.6,4.06,4.44,6.76,8,7.61a9.56,9.56,0,0,0,2.32.28c6.47,0,12.66-6.2,14.7-14.74a21.92,21.92,0,0,0-.64-13c-1.6-4.07-4.44-6.77-8-7.62a10.07,10.07,0,0,0-2.32-.27Z"/>
        </g>
        <g>
          <ellipse cx="466.28" cy="199.53" rx="51.14" ry="55.98" transform="translate(163.82 606.65) rotate(-76.56)"/>
          <path d="M464,148.1a61.05,61.05,0,0,1,14.2,1.69c30.07,7.19,49.13,35.28,42.56,62.76C515.2,235.66,493.3,251,468.59,251a61.1,61.1,0,0,1-14.2-1.68c-30.07-7.19-49.13-35.29-42.56-62.76,5.52-23.11,27.42-38.42,52.13-38.42m0-2v0h0c-26.22,0-48.45,16.43-54.07,40-3.31,13.84-.53,28.24,7.83,40.57a60.36,60.36,0,0,0,36.2,24.59A63,63,0,0,0,468.59,253c26.22,0,48.45-16.43,54.08-40,3.3-13.84.52-28.25-7.83-40.57a60.36,60.36,0,0,0-36.21-24.59A62.93,62.93,0,0,0,464,146.1Z"/>
        </g>
        <path d="M424,164.46a47.48,47.48,0,0,0-12.16,22.06c-4.64,19.43,3.53,39.17,19.35,51.61,46.15,12.16,61.52-29.54,53.86-55.34C478.48,160.73,445.83,157,424,164.46Z" style="fill: #e21d67"/>
        <circle cx="441.42" cy="180.15" r="7.09" style="fill: #eeede1"/>
        <ellipse cx="422.23" cy="202.45" rx="2.5" ry="3.07" transform="translate(127.18 566.05) rotate(-76.56)" style="fill: #eeede1"/>
        <g>
          <path d="M479.52,144.1c-30.06-7.19-60,10.41-66.94,39.3-.25,1-.47,2.1-.65,3.14,8.24-27,37.12-43.12,66.1-36.2s47.47,34.34,42.59,62.18c.31-1,.6-2.05.85-3.1C528.37,180.53,509.59,151.29,479.52,144.1Z" style="fill: #fff"/>
          <path d="M466,142.49a58,58,0,0,1,13.55,1.61c30.07,7.19,48.85,36.43,42,65.32-.25,1.05-.54,2.08-.85,3.1C525.5,184.68,507,157.27,478,150.34a58.62,58.62,0,0,0-13.55-1.6c-24,0-45.6,15-52.55,37.8.18-1,.4-2.09.65-3.14,5.86-24.53,28.34-40.91,53.39-40.91m0-2c-26.61,0-49.37,17.45-55.34,42.44-.25,1-.47,2.12-.67,3.27a2,2,0,0,0,1.5,2.29,1.93,1.93,0,0,0,.47,0,2,2,0,0,0,1.91-1.41c6.64-21.77,27-36.39,50.64-36.39a56.43,56.43,0,0,1,13.09,1.55c27.75,6.63,45.8,32.94,41.08,59.89a2,2,0,0,0,1.51,2.29,2.4,2.4,0,0,0,.46.05,2,2,0,0,0,1.91-1.42c.34-1.09.63-2.18.88-3.21,7.15-29.92-12.33-60.31-43.42-67.74a60.51,60.51,0,0,0-14-1.66Z"/>
        </g>
        <g>
          <path d="M455.16,254.41c30.28,6.21,59.67-12.35,65.63-41.45.22-1.05.4-2.11.55-3.16-7.36,27.29-35.71,44.31-64.9,38.32s-48.55-32.78-44.58-60.76c-.28,1-.53,2.07-.74,3.13C405.15,219.58,424.87,248.21,455.16,254.41Z" style="fill: #fff"/>
          <path d="M411.86,187.36h0m0,0c-4,28,15.4,54.78,44.58,60.76a58.34,58.34,0,0,0,11.74,1.2c24.73,0,46.79-15.92,53.16-39.52-.15,1-.33,2.11-.55,3.16-5.19,25.32-28.09,42.65-53.9,42.65a58.24,58.24,0,0,1-11.73-1.2c-30.29-6.2-50-34.83-44-63.92.21-1.06.46-2.1.74-3.13m0-2a1.75,1.75,0,0,0-.4,0,2,2,0,0,0-.84.39,2.06,2.06,0,0,0-.52.61,2,2,0,0,0-.18.48c-.29,1.09-.55,2.17-.76,3.2C403,220.22,423.44,250,454.75,256.37a60.7,60.7,0,0,0,12.14,1.24,58.57,58.57,0,0,0,35.91-12.25,54.56,54.56,0,0,0,19.95-32c.22-1.05.41-2.16.57-3.29a2,2,0,0,0-1.58-2.24,1.87,1.87,0,0,0-.4,0,2,2,0,0,0-1.93,1.48c-6,22.4-27.11,38-51.23,38a56.29,56.29,0,0,1-11.33-1.16c-27.93-5.72-46.81-31.37-43-58.42a2.34,2.34,0,0,0,0-.38,2,2,0,0,0-1.91-2Zm0,4h0Z"/>
        </g>
        <path d="M400.47,186.56a1,1,0,0,1-1-.93,14.77,14.77,0,0,1,11.16-15,1,1,0,0,1,1.19.75,1,1,0,0,1-.76,1.2,12.71,12.71,0,0,0-9.59,12.93,1,1,0,0,1-.93,1.07Z" style="fill: #fff"/>
        <path d="M477.66,141.54a1,1,0,0,1-.35-.06,1,1,0,0,1-.59-1.29,7.37,7.37,0,0,0-1.52-7.45,1,1,0,0,1,1.44-1.38,9.31,9.31,0,0,1,2,9.54A1,1,0,0,1,477.66,141.54Z"/>
        <path d="M481.25,141.39l-.18,0a1,1,0,0,1-.81-1.16,10.22,10.22,0,0,0-.89-6.32,1,1,0,0,1,1.79-.89,12.18,12.18,0,0,1,1.07,7.56A1,1,0,0,1,481.25,141.39Z"/>
      </g>
      <path d="M446.11,337.85a1,1,0,0,1-.2-2c.16,0,15.42-3.13,24.44-8.39,9.56-5.57,21.94-1.8,22.46-1.64a1,1,0,0,1-.59,1.91c-.12,0-12.08-3.67-20.86,1.46-9.32,5.43-24.42,8.49-25.06,8.62Z"/>
      <g>
        <path d="M504.12,272.65c-3.64,2-3.87,10.83-6.19,21.66s-8.51,33.26-3.87,42.54,27.07,20.11,34.81,14.7,18.56-18.57,16.24-34.81,0-30.16,0-37.9-7.74-9.28-12.38-9.28S511.08,268.79,504.12,272.65Z" style="fill: #fff"/>
        <path d="M526.25,269.5c2.82,0,5.16.06,6.48.06,4.64,0,12.38,1.55,12.38,9.28s-2.32,21.66,0,37.9-8.51,29.39-16.24,34.81a9.79,9.79,0,0,1-5.62,1.45c-9.83,0-25.41-8.59-29.19-16.15-4.64-9.28,1.55-31.71,3.87-42.54s2.55-19.63,6.19-21.66c5-2.76,15.07-3.15,22.13-3.15m0-2c-11.42,0-19,1.11-23.1,3.41-3.48,1.92-4.38,7.25-5.63,14.63-.43,2.52-.91,5.39-1.55,8.35-.3,1.44-.69,3.11-1.09,4.89-2.77,12.06-6.95,30.28-2.61,39,4.11,8.23,20.33,17.26,31,17.26a11.52,11.52,0,0,0,6.76-1.82c7.54-5.27,19.62-18.94,17.08-36.72-1.64-11.44-.91-21.89-.38-29.52.21-3.14.4-5.84.4-8.1,0-8.32-7.43-11.28-14.38-11.28l-2.05,0c-1.23,0-2.75,0-4.43,0Z"/>
      </g>
      <path d="M545.11,316.74c-2.06-14.43-.46-27-.08-35.08-3.41-.35-6.6,3.39-7.76,6.94-2.61,8-1.17,16.65-.55,25s.08,17.61-5.5,23.91A20.39,20.39,0,0,1,514.85,344a25.87,25.87,0,0,1-16.19-7.49,29.8,29.8,0,0,1-6.28-9,21.77,21.77,0,0,0,1.68,9.37c4.64,9.28,27.07,20.11,34.81,14.7S547.43,333,545.11,316.74Z" style="fill: #e21d67"/>
      <g>
        <path d="M541.24,274.2c.78-7.73,3.87-26.3-2.32-34.8s-27.88-13.67-34.44-8a30,30,0,0,0-10.42,18.82c-.77,6.19,7.74,9.29,7.74,9.29s-3.1,16.24,2.32,16.24S541.24,274.2,541.24,274.2Z" style="fill: #fff"/>
        <path d="M513.3,229c9.06,0,21.24,4.35,25.62,10.38,6.19,8.5,3.1,27.07,2.32,34.8,0,0-31.71,1.55-37.12,1.55s-2.32-16.24-2.32-16.24-8.51-3.1-7.74-9.29a30,30,0,0,1,10.42-18.82c1.91-1.65,5.1-2.38,8.82-2.38m0-2c-4.45,0-7.95,1-10.13,2.87A32,32,0,0,0,492.08,250c-.74,5.87,4.7,9.35,7.48,10.72-.6,3.81-1.53,12.15,1.2,15.45a4.24,4.24,0,0,0,3.36,1.6c5.4,0,35.92-1.49,37.22-1.55l1.72-.09.17-1.71c.09-.89.21-1.92.34-3.06,1.09-9.34,2.9-25-3-33.12-5-6.92-18.06-11.2-27.24-11.2Z"/>
      </g>
      <path d="M501.8,259.51s-1.82,9.52-.23,14c-1.43-7.8-.68-17.7,3.43-24.49-3.82-2.41-5.44-5.35-5.26-9.86a12.54,12.54,0,0,1,.68-3.54,29.08,29.08,0,0,0-6.36,14.62C493.29,256.41,501.8,259.51,501.8,259.51Z" style="fill: #e21d67"/>
      <g>
        <line x1="505" y1="247" x2="501" y2="261" style="fill: #fff"/>
        <path d="M501,262a.84.84,0,0,1-.27,0,1,1,0,0,1-.69-1.23l4-14a1,1,0,0,1,1.92.54l-4,14A1,1,0,0,1,501,262Z"/>
      </g>
      <g>
        <path d="M411,342.05c8.51,5.42,31.71,38.68,23.21,45.64,0,0,.77,10.05-4.64,7.73,0,0,.77,7-3.1,7.74s-11.6-11.61-11.6-11.61,3.87,7.74-.77,9.29-8.51-5.42-13.15-12.38-13.66-18-17.53-19.57-7.56-12.51,4-21A31.16,31.16,0,0,1,411,342.05Z" style="fill: #fff"/>
        <path d="M406.36,343.65h0a24.28,24.28,0,0,1,3.89.29c6.78,4.68,23.14,27.29,23.8,38.38.11,1.85-.26,3.14-1.09,3.82a2,2,0,0,0-.73,1.7c.14,1.87-.1,4.93-.92,5.82-.11.11-.15.11-.24.11a2,2,0,0,1-.7-.19,2,2,0,0,0-.78-.16,2.06,2.06,0,0,0-1.19.39,2,2,0,0,0-.8,1.83c.19,1.79-.05,5.26-1.47,5.55-1.49,0-6-5.1-9.54-10.7a2,2,0,0,0-1.7-.94,2,2,0,0,0-1.79,2.9c.8,1.62,1.69,4.51,1.13,5.85a1.08,1.08,0,0,1-.75.64,2,2,0,0,1-.67.11c-2.51,0-5.65-4.79-8.68-9.43-.49-.75-1-1.51-1.5-2.27-4.1-6.15-13.72-18.42-18.45-20.31-.81-.33-2.1-2-2.44-4.64-.27-2.15-.15-7.73,6.92-12.92a29.78,29.78,0,0,1,17.7-5.83m0-2a31.85,31.85,0,0,0-18.88,6.22c-11.6,8.51-7.91,19.48-4,21S396.33,381.5,401,388.46c4.2,6.3,7.76,12.59,11.84,12.59a4.37,4.37,0,0,0,1.31-.21c4.64-1.55.77-9.29.77-9.29s7.27,11.64,11.24,11.64l.36,0c3.87-.78,3.1-7.74,3.1-7.74a3.79,3.79,0,0,0,1.48.35c3.78,0,3.16-8.08,3.16-8.08,8.5-7-14.7-40.22-23.21-45.64a23.53,23.53,0,0,0-4.66-.4Z"/>
      </g>
      <g>
        <path d="M425.48,371.32s3.24,3.23,8.09,15.36" style="fill: #fff"/>
        <path d="M433.57,387.68a1,1,0,0,1-.93-.63c-4.68-11.68-7.84-15-7.87-15a1,1,0,0,1,1.42-1.41c.14.14,3.43,3.52,8.31,15.7a1,1,0,0,1-.56,1.3A1,1,0,0,1,433.57,387.68Z"/>
      </g>
      <g>
        <path d="M418.21,374.55S425.48,381,428.72,394" style="fill: #fff"/>
        <path d="M428.71,395a1,1,0,0,1-1-.76c-3.13-12.49-10.14-18.84-10.21-18.9a1,1,0,1,1,1.33-1.49c.31.27,7.54,6.82,10.82,19.9a1,1,0,0,1-.73,1.22A1.07,1.07,0,0,1,428.71,395Z"/>
      </g>
      <g>
        <path d="M408.5,379.4s2.43,2.43,6.47,12.13" style="fill: #fff"/>
        <path d="M409.21,378.7a12.16,12.16,0,0,1,1.26,1.45c.37.47.73,1,1.06,1.45.67,1,1.31,2,1.91,3,1.21,2,2.3,4.09,3.36,6.18a2,2,0,0,1-3.55,1.79c0-.09-.08-.18-.11-.27-.72-2.15-1.49-4.28-2.36-6.36-.43-1-.89-2.06-1.39-3.06q-.36-.75-.78-1.47a13.4,13.4,0,0,0-.81-1.29l-.09-.11a1,1,0,0,1,.21-1.4A1,1,0,0,1,409.21,378.7Z"/>
      </g>
      <g>
        <path d="M391,210c9,20,18,53.83,12,79,0,0,16-24,3-79,0,0-3-7-11-4A7.29,7.29,0,0,0,391,210Z" style="fill: #fff"/>
        <path d="M398.78,205.25C404,205.25,406,210,406,210c13,55-3,79-3,79,6-25.17-3-59-12-79a7.29,7.29,0,0,1,4-4,10.75,10.75,0,0,1,3.78-.75m0-2a12.81,12.81,0,0,0-4.48.88,9.32,9.32,0,0,0-5.18,5.19,2,2,0,0,0,.06,1.5c9.88,22,17.38,54.51,11.87,77.72a2,2,0,0,0,1.15,2.29,1.89,1.89,0,0,0,.8.17,2,2,0,0,0,1.66-.89c.68-1,16.34-25.36,3.29-80.57,0-.11-.07-.22-.11-.33s-2.63-6-9.06-6Z"/>
      </g>
      <path d="M394,324a1,1,0,0,1-.6-.2c-15.41-11.56-33.91-5.9-34.1-5.85a1,1,0,1,1-.6-1.9c.8-.26,19.67-6,35.9,6.15a1,1,0,0,1,.2,1.4A1,1,0,0,1,394,324Z"/>
      <path d="M393.51,323.93a1,1,0,0,1-.95-.7c-3.3-10.48-18.75-16.23-18.9-16.29a1,1,0,0,1,.68-1.88c.68.25,16.54,6.16,20.13,17.57a1,1,0,0,1-.65,1.25A1.18,1.18,0,0,1,393.51,323.93Z"/>
      <path d="M400,296a1,1,0,0,1-.87-.51c-18.32-32.77-47.13-20.24-48.34-19.69A1,1,0,1,1,350,274c.32-.15,31.69-13.87,50.91,20.53a1,1,0,0,1-.38,1.36A1,1,0,0,1,400,296Z"/>
      <path d="M382,269a1,1,0,0,1-.49-.13c-15.3-8.6-28.16-2-28.29-1.91a1,1,0,0,1-.94-1.77c.56-.3,13.92-7.23,30.21,1.94a1,1,0,0,1,.38,1.36A1,1,0,0,1,382,269Z"/>
      <path d="M400,248a1,1,0,0,1-.63-.22c-20.21-16.37-37.75-8-37.92-7.88a1,1,0,0,1-1.34-.45,1,1,0,0,1,.44-1.34c.19-.1,18.83-9.09,40.08,8.11a1,1,0,0,1,.15,1.41A1,1,0,0,1,400,248Z"/>
      <path d="M355,354a1,1,0,0,1-1-.88c-.06-.45-1.27-11.24,6.95-18.84,7.72-7.14,20.93-8.88,39.24-5.18a1,1,0,0,1-.4,2c-17.63-3.57-30.24-2-37.47,4.66-7.46,6.89-6.35,17-6.34,17.15a1,1,0,0,1-.87,1.11Z"/>
      <path d="M523.26,296.93a48.79,48.79,0,0,1-24.87-7.1,1,1,0,0,1,1.13-1.66c.21.15,21.8,14.47,44.46,1a1,1,0,0,1,1,1.72A42,42,0,0,1,523.26,296.93Z"/>
      <path d="M522,332.44c-16.49,0-30-10.06-30.2-10.21a1,1,0,0,1,1.21-1.6c.28.21,28,20.86,51.76,1.59a1,1,0,0,1,1.26,1.56A37.22,37.22,0,0,1,522,332.44Z"/>
      <path d="M528.32,323.41a31.07,31.07,0,0,1-9.66-1.47,1,1,0,0,1,.67-1.88c.14.05,13.66,4.7,25.07-3.86a1,1,0,1,1,1.2,1.6A28.37,28.37,0,0,1,528.32,323.41Z"/>
      <path d="M519.74,426.94a117.44,117.44,0,0,1-33.06-5,1,1,0,1,1,.64-1.9c.39.13,39.34,12.89,65.89-3.29a1,1,0,0,1,1.37.34,1,1,0,0,1-.33,1.37C543.61,425,531.09,426.94,519.74,426.94Z"/>
      <path d="M484,403a1,1,0,0,1-.78-.38,1,1,0,0,1-.09-1.11c.21-.37,5.24-9.31,13.42-13.4a1,1,0,1,1,.9,1.78c-5.31,2.66-9.31,7.69-11.25,10.52A130.78,130.78,0,0,1,515,397a1,1,0,0,1,0,2,125.83,125.83,0,0,0-30.73,4A.84.84,0,0,1,484,403Z"/>
      <path d="M523.08,464.63a69.11,69.11,0,0,1-36.23-10.78,1,1,0,0,1,1.16-1.63c.32.22,31.91,22.07,65.2,1.8a1,1,0,0,1,1.37.33,1,1,0,0,1-.33,1.38A59.12,59.12,0,0,1,523.08,464.63Z"/>
      <path d="M519,473.27c-16.35,0-31.77-8-32.49-8.39a1,1,0,1,1,.94-1.76c.18.09,18.94,9.83,36.42,7.89a1,1,0,1,1,.22,2A45.69,45.69,0,0,1,519,473.27Z"/>
      <path d="M377.61,417.4c-25.53,0-39.44-10.95-39.62-11.09a1,1,0,1,1,1.26-1.56c.22.18,22.41,17.57,62.45,7.55a1,1,0,0,1,.48,1.94A101.28,101.28,0,0,1,377.61,417.4Z"/>
      <path d="M376,460.16a77.42,77.42,0,0,1-34.51-8.39,1,1,0,0,1-.37-1.36,1,1,0,0,1,1.36-.38c.3.17,30.12,16.73,60.16,2.11a1,1,0,1,1,.87,1.8A62.38,62.38,0,0,1,376,460.16Z"/>
      <path d="M377,452c-18.05,0-35.76-9.66-36.51-10.07a1,1,0,0,1-.39-1.36,1,1,0,0,1,1.36-.39c.18.1,18,9.82,35.54,9.82a1,1,0,0,1,0,2Z"/>
      <path d="M370,404h-.15c-20-3-31.91-10.83-32.4-11.16a1,1,0,0,1,1.1-1.66c.12.08,12.08,7.91,31.6,10.84a1,1,0,0,1-.15,2Z"/>
      <g>
        <path d="M444.39,268.32c10.24,0,20.45.67,30.28,3.4,2.12.59,4.44,1.47,5.34,3.48a7.87,7.87,0,0,1,.25,4.23q-1.75,14.28-3.52,28.55c-.27,2.22-.66,4.67-2.38,6.11a8.7,8.7,0,0,1-4.77,1.54,103.33,103.33,0,0,1-44.13-4.94,6.77,6.77,0,0,1-3.45-2.06c-.89-1.21-.88-2.84-.85-4.35l.48-19.3c.09-3.55-.09-7.22.93-10.66,1.27-4.33,2.91-5.56,7.3-5.7,4.83-.15,9.68-.3,14.52-.3m0-2c-5,0-10.09.16-14.58.3-5.27.17-7.66,2-9.16,7.13a33.46,33.46,0,0,0-1,9.27l0,1.92-.47,19.18v.11c0,1.5-.09,3.77,1.24,5.58a8.47,8.47,0,0,0,4.41,2.77,105,105,0,0,0,34,5.62,106.41,106.41,0,0,0,11-.58,10.54,10.54,0,0,0,5.85-2c2.23-1.87,2.74-4.68,3.08-7.4L480.49,294l1.76-14.27a9.79,9.79,0,0,0-.41-5.3c-1.25-2.78-4.2-3.91-6.64-4.59-8.65-2.4-18.15-3.47-30.81-3.47Z"/>
        <path d="M474.36,314.09c1.72-1.44,2.11-3.89,2.38-6.11q1.77-14.28,3.52-28.55a7.87,7.87,0,0,0-.25-4.23,4.67,4.67,0,0,0-1.62-1.9c-3.2,3-2.31,30.49-10.2,35.08-7.23,4.21-34.55-.89-47-5.64l0,1.54c0,1.51,0,3.14.85,4.35a6.77,6.77,0,0,0,3.45,2.06,103.58,103.58,0,0,0,44.13,4.94A8.7,8.7,0,0,0,474.36,314.09Z" style="fill: #e21d67"/>
        <path d="M434.94,313.62a1,1,0,0,1-1-.81,40.61,40.61,0,0,1-.42-12.35c0-.36.14-1.19-.11-1.41a2,2,0,0,0-.82-.2l-3.53-.37a41.23,41.23,0,0,0-.05,12.3,1,1,0,1,1-2,.28,43.48,43.48,0,0,1,.21-13.85,1,1,0,0,1,1.09-.82l4.47.48a3.26,3.26,0,0,1,1.92.67,3.45,3.45,0,0,1,.79,3.15,38.6,38.6,0,0,0,.39,11.75,1,1,0,0,1-.79,1.17Z"/>
        <path d="M451.21,316.28a1,1,0,0,1-1-.74,27,27,0,0,1-.52-11.87c.07-.38.23-1.26,0-1.49A2.24,2.24,0,0,0,449,302l-3.84-.84c-.83-.19-1-.05-1-.05a1.87,1.87,0,0,0,0,.63l.81,12.86a1,1,0,0,1-2,.12l-.81-12.85a2.82,2.82,0,0,1,.43-2c.88-1.18,2.51-.82,3-.7l3.84.84a3.33,3.33,0,0,1,1.58.69c1.09,1,.81,2.51.66,3.34a24.83,24.83,0,0,0,.48,11,1,1,0,0,1-.7,1.23A.84.84,0,0,1,451.21,316.28Z"/>
        <path d="M461.5,278.66a2.75,2.75,0,0,1-1.74-.59h0c-1.92-1.56-1.29-3.06-1.06-3.48a3.66,3.66,0,0,1,4.18-1.43,2.6,2.6,0,0,1,1.62,3.14,2.91,2.91,0,0,1-1.89,2.16A3.34,3.34,0,0,1,461.5,278.66Zm-.48-2.14a.94.94,0,0,0,.89.06.92.92,0,0,0,.62-.62c.13-.76-.17-.86-.32-.92a1.72,1.72,0,0,0-1.76.53c-.17.31.39.8.57.95Z"/>
        <path d="M468.14,280a2.63,2.63,0,0,1-1.34-.37,3.41,3.41,0,0,1-1.5-2.79,3.06,3.06,0,0,1,1.2-2.84,2.52,2.52,0,0,1,2.67.09,3.77,3.77,0,0,1,2,3.28,2.59,2.59,0,0,1-1.61,2.3h0A3.4,3.4,0,0,1,468.14,280Zm1-1.24h0Zm-1.46-3.1a.16.16,0,0,0-.11,0,1.25,1.25,0,0,0-.28,1,1.58,1.58,0,0,0,.54,1.2,1,1,0,0,0,.9-.07c.38-.18.44-.38.44-.56a1.86,1.86,0,0,0-.95-1.45A1.43,1.43,0,0,0,467.68,275.68Z"/>
        <path d="M474.21,280.2a3.17,3.17,0,0,1-3.11-3,2.92,2.92,0,0,1,1-2.23,2.32,2.32,0,0,1,.42-.3,1.09,1.09,0,0,1,.47-.4,3.16,3.16,0,0,1,4.13,2,3.09,3.09,0,0,1-.42,2.47,3,3,0,0,1-2.08,1.38A2,2,0,0,1,474.21,280.2Zm-.45-3.85a.57.57,0,0,0-.34.15.93.93,0,0,0-.32.66,1.08,1.08,0,0,0,.41.76,1.12,1.12,0,0,0,.82.27,1,1,0,0,0,.29-2l-.06,0a1,1,0,0,1-.75.17Z"/>
        <path d="M453,285.1l-.2,0a138.87,138.87,0,0,0-31.24-2.76,1,1,0,0,1-1-1,1,1,0,0,1,1-1,141.65,141.65,0,0,1,31.69,2.8,1,1,0,0,1-.2,2Z"/>
        <path d="M435.66,289.09a2.61,2.61,0,0,1-1.79-.74,2.52,2.52,0,0,1-.78-2.38v0l0-.05a2.63,2.63,0,0,1,4.25-1.14,2.63,2.63,0,0,1-1.09,4.27A2.15,2.15,0,0,1,435.66,289.09Zm-.62-2.67h0a.54.54,0,0,0,.21.47.43.43,0,0,0,.79-.23.43.43,0,0,0-.59-.58.61.61,0,0,0-.41.32Z"/>
        <path d="M441.51,289.81a2.47,2.47,0,0,1-1.23-.33,2.69,2.69,0,0,1-1.13-3.08,1,1,0,0,1,1.25-.65l.15-.11a2.13,2.13,0,0,1,2-.23,2.18,2.18,0,0,1,1.25,1.38,2.3,2.3,0,0,1-.22,1.92A2.43,2.43,0,0,1,441.51,289.81Zm0-2a.47.47,0,0,0,.4-.15.3.3,0,0,0,0-.25.23.23,0,0,0-.09-.14.22.22,0,0,0-.2.11A1,1,0,0,1,441.48,287.8Z"/>
        <path d="M497,293c-7.07,0-16.87-2.92-17.29-3a1,1,0,1,1,.58-1.92c.1,0,9.94,3,16.71,3a1,1,0,0,1,0,2Z"/>
        <path d="M491.66,304.16a27.47,27.47,0,0,1-12.16-3.29,1,1,0,0,1,1-1.74c.06,0,6.79,3.81,13.36,2.88a1,1,0,1,1,.28,2A17.33,17.33,0,0,1,491.66,304.16Z"/>
        <path d="M412.53,286.89a30.6,30.6,0,0,1-7.8-.93,1,1,0,0,1-.69-1.23,1,1,0,0,1,1.23-.69,31.28,31.28,0,0,0,14.49,0,1,1,0,1,1,.48,1.94A32,32,0,0,1,412.53,286.89Z"/>
        <path d="M410.87,297.79a22.16,22.16,0,0,1-9.32-1.9,1,1,0,0,1-.44-1.34,1,1,0,0,1,1.34-.45,22.58,22.58,0,0,0,17.18,0,1,1,0,0,1,.74,1.86A25.53,25.53,0,0,1,410.87,297.79Z"/>
      </g>
      <path d="M517.32,228.77q-.72,0-1.5-.06a1,1,0,1,1,.14-2c9,.65,12-5.4,12.14-5.66a1,1,0,0,1,1.33-.48,1,1,0,0,1,.48,1.33C529.77,222.2,526.62,228.77,517.32,228.77Z" style="fill: #fff"/>
    </g>
  </g>
</svg>
