<svg xmlns="http://www.w3.org/2000/svg" width="1000" height="1000" viewBox="0 0 1000 1000">
  <g id="ec0eb4ea-2ca5-4b41-b46e-9108a24f30c7" data-name="Account Deactivated">
    <g id="a77c6717-5859-494d-bf3f-d02cacfbccd8" data-name="background">
      <path d="M452.55,279.9c-100.47-30.88-212,1.32-291.5,84.14-37.43,39-68.82,91.29-75.53,151.64-6.5,58.51,10.6,116.7,28.06,171.59,11.53,36.27,23.52,72.79,41.82,104.4s43.76,58.31,74.08,67.57c37.25,11.37,76.38-4.69,110.6-26.32,78-49.28,144.61-128.63,228.9-157.5,85.59-29.31,181.1-3.17,262.07-48.59,70.22-39.38,118.83-136.34,110.52-232S864.48,215.23,787.52,214.33c-36.55-.43-72.51,15.95-109,12.82-32.42-2.79-62.54-20.69-93-35s-64-25.08-95.11-13.37c-46.78,17.61-74.13,91.09-54.78,147.19" style="fill: #c4bbbb"/>
    </g>
    <g id="a187da07-ff4f-41b5-8f92-a554ac13c895" data-name="helmet">
      <g>
        <path d="M341.33,673.78c-27.6,21.25-23.1,63.32,10.6,87.11s112.18,55.21,279.58,7.05,181.13-96.25,185.66-119.78-9.16-41-9.16-41Z" style="fill: #fff"/>
        <path d="M808,607.14s13.69,17.49,9.16,41-18.26,71.62-185.66,119.78c-64.11,18.45-115.17,25.22-155.68,25.22-65.25,0-103.1-17.59-123.9-32.27-33.7-23.79-38.2-65.86-10.6-87.11L808,607.14m0-2a1.42,1.42,0,0,0-.29,0L341.05,671.8a2.05,2.05,0,0,0-.94.39,47.29,47.29,0,0,0-18.8,39.34c.39,19.18,11.41,38.24,29.47,51,13,9.18,28.41,16.55,45.84,21.92,23.07,7.11,49.72,10.72,79.21,10.72,45.33,0,97.89-8.51,156.23-25.3,72.65-20.9,124.67-44.29,154.64-69.52,26.8-22.56,30.6-42.31,32.43-51.8,4.66-24.15-9-41.89-9.55-42.64a2,2,0,0,0-1.57-.76Z"/>
      </g>
      <path d="M338.72,749c1.35-19.89,17.15-24.48,23.85-23.8l9,.93s11.21,15.11,58.47,25.11,54.22,19.22,59.41,33.72a34.49,34.49,0,0,0,4,7.75q10.79-.5,22.49-1.62c-4.79-8.57-12.12-18.59-2-23.36,16-7.48,50.45-15.18,95.1-21.24s141.39-46.27,173.7-68.17c15.65-10.61,25.14-16.84,31.62-19.21a88.71,88.71,0,0,0,2.75-11c4.53-23.53-9.16-41-9.16-41L370.58,669.6l-31.33,5.89C317.9,693.86,318.26,725.64,338.72,749Z" style="fill: #e21d67"/>
      <g>
        <path d="M368.14,695.6s-22.9,24.86,5.92,78c0,0,14.61,25.5,45.52,14.45,0,0-29.55-40.1-5.06-68.83C414.52,719.27,386.88,676.73,368.14,695.6Z" style="fill: #fff"/>
        <path d="M379,690.77c17,0,35.51,28.5,35.51,28.5C390,748,419.58,788.1,419.58,788.1a44.27,44.27,0,0,1-15,2.78c-20.68,0-30.55-17.23-30.55-17.23-28.82-53.19-5.92-78-5.92-78A15,15,0,0,1,379,690.77m0-2a17,17,0,0,0-12.29,5.42l-.05.06c-.25.27-6.16,6.8-8.35,20.1-2,12-1.18,32.28,14,60.25.45.79,10.72,18.28,32.31,18.28A46.55,46.55,0,0,0,420.25,790a2,2,0,0,0,1.24-1.3,2,2,0,0,0-.3-1.77,89.22,89.22,0,0,1-11.45-23.17c-5.48-17.32-3.36-31.85,6.3-43.18a2,2,0,0,0,.15-2.39c-.78-1.2-19.3-29.41-37.18-29.41Z"/>
      </g>
      <g>
        <path d="M484.33,735.29s7.38,41.8,27.2,56.24c0,0,35.52,17.89,62.61-9.26,0,0-17.56,12.19-24.8-43.45S484.33,735.29,484.33,735.29Z" style="fill: #fff"/>
        <path d="M528,713.14c10.2,0,18.84,6.31,21.36,25.68,5,38.69,15.06,44.58,20.71,44.58a7.68,7.68,0,0,0,4.09-1.13,49.69,49.69,0,0,1-36.24,15.05,64.5,64.5,0,0,1-26.37-5.79c-19.82-14.44-27.2-56.24-27.2-56.24s24.55-22.15,43.65-22.15m0-2c-19.64,0-44,21.74-45,22.66a2,2,0,0,0-.63,1.83c.31,1.74,7.75,42.77,28,57.52a2.61,2.61,0,0,0,.28.17,66.14,66.14,0,0,0,27.27,6,51.49,51.49,0,0,0,37.66-15.63,2,2,0,0,0-1.42-3.42,2,2,0,0,0-1.13.36h0a6,6,0,0,1-3,.77c-4,0-13.7-4.17-18.73-42.84-3-22.67-14.32-27.42-23.34-27.42Z"/>
      </g>
      <g>
        <path d="M762.23,672.63s19.66,27.57-5.19,45.79c0,0,40.52-.3,41.31-31.8.86-34-6.46-34.85-6.46-34.85Z" style="fill: #fff"/>
        <path d="M791.89,651.77s7.32.87,6.46,34.85c-.79,31.5-41.31,31.8-41.31,31.8,24.85-18.22,5.19-45.79,5.19-45.79l29.66-20.86m0-2a2,2,0,0,0-1.15.36L761.08,671a2,2,0,0,0-.48,2.8A44.25,44.25,0,0,1,767,689.2c2.18,11.29-1.57,20.58-11.16,27.61a2,2,0,0,0,1.18,3.61h0a65.18,65.18,0,0,0,21.07-4.22c14.19-5.57,21.87-15.78,22.22-29.53.84-33.22-6.08-36.63-8.22-36.89Z"/>
      </g>
      <g>
        <path d="M243,496.47c3.43-81-.73-191.7,114.51-267.36s318.48-46.67,384.82,70.66c0,0,38.07,34.56,15,67.13S755.76,491.55,776,525.21s68.78,75.67,28.11,117.06-245,147.72-396,67.89S243,496.47,243,496.47Z" style="fill: #fff"/>
        <path d="M511.16,187.27c93.9,0,189.48,38.84,231.12,112.5,0,0,38.07,34.56,15,67.13S755.76,491.55,776,525.21s68.78,75.67,28.11,117.06C774,672.9,654.29,739.09,532.9,739.09c-42.65,0-85.51-8.17-124.76-28.93C257.18,630.33,243,496.47,243,496.47c3.43-81-.73-191.7,114.51-267.36,42.9-28.17,98-41.83,153.7-41.84m0-2v0c-58.43,0-113.4,15-154.8,42.16-48.17,31.62-79.9,71.94-97,123.25C244.56,394.93,243,440,241.57,479.77c-.2,5.76-.39,11.2-.62,16.61a1.51,1.51,0,0,0,0,.3c0,.34,3.85,34.34,26.2,77.61a305.74,305.74,0,0,0,50,70.18c25.11,26.45,55.39,49.15,90,67.46,36.59,19.35,78.88,29.16,125.69,29.16,67.52,0,130-20.17,170.61-37.08,50-20.86,87.27-45.33,102-60.34,15.08-15.34,19.66-32.14,14-51.37-4.86-16.52-16.28-32.1-27.33-47.17-5.39-7.36-10.49-14.31-14.49-21-10.33-17.19-20.52-48.88-25.34-78.86-5.75-35.76-3.43-63.2,6.54-77.27s10.34-30.51,1.3-47.85a87,87,0,0,0-16.34-21.69c-20-35.18-53.41-64.37-96.71-84.42-40.69-18.85-87.71-28.82-136-28.82Z"/>
      </g>
      <path d="M618.51,228.81l-.26.72a106.65,106.65,0,0,0-19.38-30.76c-81.27-21.93-175.66-12.83-241.41,30.34C242.22,304.77,246.38,415.43,243,496.47c0,0,5.36,50.32,44.29,107.65A61.38,61.38,0,0,0,310,570.48c6.22-24.48-1.52-50.7-14.49-72.37C285.74,481.86,273,467,267.81,448.77c-8.78-31.17.84-69.79,15.91-98.45,14.49-27.59,35.8-49.93,61.36-67.75,21.78-15.19,49-20.91,75.59-21s52.8,5.13,78.9,10.06c23.29,4.4,47.41,8.59,70.51,3.27S615.2,252.28,618.51,228.81Z" style="fill: #e21d67"/>
      <g>
        <path d="M274.09,548.24c-11-71-11.29-85.57,44.3-139.1s238.12-95.28,347.2-119.65,113.5,30.44,99.32,41.44c0,0-.36-41-121.15-12.09S358.8,406,326.42,458.24s12.32,173.45,44.36,198.6,151.16,71.95,270.7,37.42,177-88.48,157.9-112.61-48-52.89-51.7-82.42-31.6-97.68,5.23-124.27c0,0,15.52,150.34,36.32,169.5s48.68,39.81,25,84.51S673,739.7,532,739.08s-200.72-68-213.56-96.24S274.09,548.24,274.09,548.24Z"/>
        <path d="M714.53,283.31c61.14,0,62,38.59,50.38,47.62,0,0-.21-22.42-49.11-22.43-17.25,0-40.54,2.79-72,10.34C523,347.78,358.8,406,326.42,458.24s12.32,173.45,44.36,198.6c24,18.78,96.53,49.68,181.55,49.68a321.22,321.22,0,0,0,89.15-12.26c119.54-34.54,177-88.48,157.9-112.61s-48-52.89-51.7-82.42-31.6-97.68,5.23-124.27c0,0,15.52,150.34,36.32,169.5s48.68,39.81,25,84.51c-23.56,44.5-140.18,110.12-280.3,110.12h-2c-141-.61-200.72-68-213.56-96.24s-44.32-94.6-44.32-94.6c-11-71-11.29-85.57,44.3-139.1s238.12-95.28,347.2-119.65c19.49-4.35,35.64-6.18,48.94-6.18m0-2v0c-14.26,0-30.87,2.09-49.37,6.23C604.92,301,535.29,317,471.35,336.46c-36.14,11-66.89,22.11-91.41,33C351.34,382.15,330.17,395,317,407.7c-56.23,54.15-55.93,69.33-44.89,140.85l.05.29.12.26c.32.66,31.61,66.7,44.31,94.57,7.17,15.76,26.58,39.63,59.51,59.35a251.05,251.05,0,0,0,64.31,26.66c27.77,7.42,58.57,11.26,91.56,11.4h2a464.54,464.54,0,0,0,100-11,448.15,448.15,0,0,0,84.64-27.54c47.48-21,84.8-48.86,97.4-72.64,10.17-19.22,12-35.89,5.45-51-5.65-13.09-16.38-22.81-26.76-32.21-1.39-1.26-2.77-2.5-4.12-3.74-5.7-5.25-14.72-25.26-25.33-90.78-6.4-39.47-10.31-77.08-10.35-77.45l-.35-3.44-2.81,2C738.4,383,732,398.41,732.09,420.54c.1,18.58,4.9,39,8.76,55.35,2.18,9.28,4.07,17.3,4.85,23.59,3,24.59,23,48.44,40.64,69.48,4.07,4.86,7.92,9.45,11.47,13.94,3.36,4.24,4.05,9.55,2.05,15.78-8.11,25.34-61.31,65.45-158.94,93.65a318.78,318.78,0,0,1-88.59,12.19c-81.07,0-154.25-28.81-180.31-49.26-15.91-12.48-34.68-48.7-45.65-88.09-12.83-46-12.19-85.37,1.75-107.87,14.42-23.27,57.49-50.12,124.58-77.65,55.71-22.87,125.52-45,191.53-60.87C672.7,314,696.78,310.5,715.8,310.5c24.29,0,35.84,5.68,41.25,10.43,5.65,5,5.85,9.83,5.86,10l.11,3.94,3.11-2.4c5.29-4.1,8.74-13.79,5.12-24.38-1.81-5.28-6.19-12.8-16.73-18.57-10-5.47-23.46-8.25-40-8.25Z"/>
      </g>
      <g>
        <path d="M350.82,501.74c0-35.23,54.12-68.87,91.61-85.07s222.39-78.06,263.84-76.56,46.72-5.54,20.45,34.59,7.52,152,21.74,167.43,43,39.33,31,55.71-81,97.39-232.33,86.16S370.61,599.12,362.71,572.5,350.82,501.74,350.82,501.74Z"/>
        <path d="M704.71,340.09l1.56,0c41.45,1.51,46.72-5.54,20.45,34.59s7.52,152,21.74,167.43,43,39.33,31,55.71c-11.23,15.33-72.38,87.22-204.11,87.22-9.07,0-18.46-.34-28.22-1.06-151.29-11.23-176.56-84.88-184.46-111.5s-11.89-70.76-11.89-70.76c0-35.23,54.12-68.87,91.61-85.07,37-16,218-76.58,262.28-76.58m0-2h0c-26,0-95.39,20.29-134.47,32.38-56.45,17.47-110.71,36.63-128.6,44.36-42.84,18.52-92.86,52.39-92.82,86.91v.18c0,.44,4.09,44.64,12,71.15,5.24,17.65,14.42,40.7,39.06,62.45,32.45,28.65,82,45.63,147.18,50.47,9.56.71,19.1,1.07,28.36,1.07,30.53,0,59.61-3.88,86.44-11.55a258.1,258.1,0,0,0,61.83-26.59c34.6-20.76,52.72-43.44,57.45-49.9,5-6.87,4.27-15.29-2.34-25.75-5.4-8.56-13.84-17.12-21.29-24.67-2.74-2.79-5.33-5.42-7.55-7.83-6.75-7.31-18.63-38.59-25.56-73.48-4.87-24.45-10.81-68.85,4-91.49,14-21.39,18.31-28.38,15.76-33.13-2.22-4.14-8.73-4.18-21.69-4.27-4.66,0-10-.06-16.12-.28q-.78,0-1.62,0Z"/>
      </g>
      <g>
        <path d="M506.82,639.17c-.12-13.67,15.31-19.08,40.69-23.77s34.83,6.9,36.39,18.3-.19,16.68-16.13,24.16-44.95,15.73-48.85,1.52S506.82,639.17,506.82,639.17Z" style="fill: #fff"/>
        <path d="M558.28,614.33c17.38,0,24.3,9.76,25.62,19.37,1.57,11.4-.19,16.68-16.13,24.16-9.6,4.5-23.92,9.28-34.65,9.28-7.11,0-12.65-2.09-14.2-7.76-3.91-14.2-12.1-20.21-12.1-20.21-.12-13.67,15.31-19.08,40.69-23.77a59.79,59.79,0,0,1,10.77-1.07m0-2h0a61.86,61.86,0,0,0-11.13,1.1c-14.92,2.76-24,5.37-30.47,8.71-8,4.19-11.93,9.76-11.86,17.05a2,2,0,0,0,.81,1.6c.08.05,7.7,5.84,11.36,19.12,1.16,4.21,4.89,9.23,16.13,9.23s26.18-5.1,35.49-9.47c16.89-7.91,18.93-14.22,17.28-26.24-1.82-13.21-12.14-21.1-27.61-21.1Z"/>
      </g>
      <path d="M517.11,654.05a48.81,48.81,0,0,1,1.81,5.33c3.9,14.21,32.9,6,48.85-1.52s17.7-12.76,16.13-24.16q-.09-.65-.21-1.29C551.87,651.25,530.74,655.32,517.11,654.05Z" style="fill: #e21d67"/>
      <g>
        <path d="M367.63,586.84s39.34-4.65,70.13,14.9c29.36,18.63,43.09,39,84.67,31.83a29.2,29.2,0,0,1,17.47,2.18c6.9,3.26,12.4,9.12.47,18.64a22.41,22.41,0,0,1-12.47,4.86c-13,.9-43.07-.41-75.18-25.61-42.73-33.53-71.6-21.91-71.6-21.91A90.29,90.29,0,0,1,367.63,586.84Z" style="fill: #fff"/>
        <path d="M378.3,586.36c13.82,0,38.6,2.14,59.46,15.38,25.23,16,38.92,33.3,68.67,33.3a94.81,94.81,0,0,0,16-1.47,31.32,31.32,0,0,1,5.37-.46,28.17,28.17,0,0,1,12.1,2.64c6.9,3.26,12.4,9.12.47,18.64a22.41,22.41,0,0,1-12.47,4.86c-1.63.12-3.53.2-5.67.2-14.9,0-41.43-3.78-69.51-25.81-25.24-19.8-45.64-23.86-58.12-23.86-8.65,0-13.48,2-13.48,2a90.29,90.29,0,0,1-13.49-24.89,101.52,101.52,0,0,1,10.67-.48m0-2h0a101.2,101.2,0,0,0-10.9.5,2,2,0,0,0-1.66,2.63A91.42,91.42,0,0,0,379.57,613a2,2,0,0,0,1.55.74,2,2,0,0,0,.75-.15s4.65-1.8,12.73-1.8c12.33,0,32.21,4.07,56.89,23.43,29.09,22.83,56.81,26.24,70.74,26.24,2,0,3.94-.07,5.81-.2A24.47,24.47,0,0,0,541.62,656c5.65-4.52,8.17-8.68,7.69-12.74-.42-3.67-3.3-6.79-8.56-9.28a30,30,0,0,0-13-2.83,33.45,33.45,0,0,0-5.71.49A91.54,91.54,0,0,1,506.43,633c-21.64,0-34.27-9.24-50.26-20.93-5.39-3.94-11-8-17.33-12.06-21.51-13.65-47.16-15.69-60.54-15.69Z"/>
      </g>
      <path d="M547.16,645.76c-5,.89-19,3-43.86,4-32,1.28-70.81-41-94.55-46.42-17.86-4.12-24.4-9.66-24.25-16.83a116.22,116.22,0,0,0-16.87.34,90.29,90.29,0,0,0,13.49,24.89s28.87-11.62,71.6,21.91c31.42,24.65,60.92,26.45,74.32,25.67a24.27,24.27,0,0,0,14.3-5.71C544.83,650.63,546.6,648,547.16,645.76Z" style="fill: #e21d67"/>
      <path d="M706.27,340.11c-6.8-.24-17.46,1.21-30.7,3.9h0C594,380.86,573.18,489.27,613.38,586c22.48,54.08,44.69,75.48,59.91,83.85,65.3-22,98.26-61.16,106.21-72,12-16.38-16.83-40.29-31-55.71s-48-127.3-21.74-167.43S747.72,341.62,706.27,340.11Z" style="fill: #e21d67"/>
      <g>
        <path d="M275.68,485.24c-21.57-29.45-52.76-12.69-65.38,9.71s10.91,118.94,30.22,152.81,40.69,59.43,62.65,52.57,33.21-39.73,18-99S285.54,498.7,275.68,485.24Z" style="fill: #fff"/>
        <path d="M248.24,469.46c9.5,0,19.17,4.5,27.44,15.78,9.86,13.46,30.32,56.86,45.51,116.11s3.94,92.11-18,99a24.44,24.44,0,0,1-7.25,1.12c-19.41,0-38.22-23.57-55.4-53.69C221.21,613.89,197.69,517.35,210.3,495c7.79-13.82,22.64-25.49,37.94-25.49m0-2c-17.09,0-32.25,13.31-39.68,26.51-8.43,15-.76,56.39,2.92,73.5,7,32.62,17.75,64.52,27.3,81.28,9.7,17,18.58,29.6,27.16,38.53,10.45,10.88,20.26,16.17,30,16.17a26.38,26.38,0,0,0,7.84-1.21c12.2-3.82,20.6-14.64,24.3-31.32,4-17.82,2.25-42-4.93-70.07C307.55,540.08,286.74,497,277.29,484.06c-8-10.86-18-16.6-29.05-16.6Z"/>
      </g>
      <path d="M303.17,700.33c13.41-4.2,22.82-18.11,24.65-41.8-6.19.06-15-2.08-19.52,3.45-43,52.69-75.71-67.27-83.93-99.69-7.18-28.32-5.05-68.41,18.5-92.36-13.33,2.31-25.7,12.83-32.57,25-12.61,22.4,10.91,118.94,30.22,152.81S281.21,707.19,303.17,700.33Z" style="fill: #e21d67"/>
      <g>
        <ellipse cx="221" cy="562.55" rx="26.27" ry="51.11" transform="translate(-148.13 83.96) rotate(-16.19)" style="fill: #e21d67"/>
        <path d="M210.66,512.92c13.17,0,28.42,17.68,35.57,42.3,7.87,27.11,3,52.37-11,56.41a13.94,13.94,0,0,1-3.91.55c-13.18,0-28.42-17.68-35.57-42.3-7.87-27.11-3-52.37,11-56.41a14.06,14.06,0,0,1,3.92-.55m0-2h0a15.93,15.93,0,0,0-4.47.63c-7.5,2.17-12.85,9.67-15.07,21.09-2.14,11-1.17,24.39,2.73,37.79,7.36,25.35,23.13,43.75,37.49,43.75a15.93,15.93,0,0,0,4.47-.63c7.5-2.17,12.85-9.67,15.07-21.09,2.13-11,1.16-24.38-2.73-37.8-7.36-25.34-23.13-43.74-37.49-43.74Z"/>
      </g>
      <g>
        <path d="M226.9,611.54c12.89-4.41,17.35-28.25,9.93-53.83-7.3-25.12-23.38-42.69-36.51-40.3-8.82,9-11,30.07-4.55,52.47C202.13,591.78,214.89,608.18,226.9,611.54Z"/>
        <path d="M202.76,517.19c12.62,0,27.22,16.94,34.07,40.52,7.42,25.58,3,49.42-9.93,53.83-12-3.36-24.77-19.76-31.13-41.66-6.5-22.4-4.27-43.52,4.55-52.47a14.1,14.1,0,0,1,2.44-.22m0-2a16.2,16.2,0,0,0-2.8.25l-.62.12-.44.45c-9.64,9.77-11.67,31.64-5.05,54.42,6.41,22.09,19.48,39.39,32.51,43l.6.16.59-.2c14-4.81,19-29.53,11.2-56.27-7.07-24.32-22.2-42-36-42Z"/>
      </g>
      <g>
        <path d="M278.78,311.39s77.4-114.3,177-75.86,81.38,35.66,135.45,23.58,63.38-31.78,32-62.94S401.76,126.42,278.78,311.39Z" style="fill: #fff"/>
        <path d="M523.5,170c49,0,87.12,13.69,99.71,26.17,31.43,31.16,22.13,50.86-32,62.94-21,4.7-31.14,8-41.49,8-16.24,0-33.13-8.1-94-31.57a114.31,114.31,0,0,0-41.48-7.91c-78.82,0-135.55,83.77-135.55,83.77C352.47,200.56,450.21,170,523.5,170m0-2a275.83,275.83,0,0,0-123.11,29.35c-48,24.1-89.47,62.1-123.27,112.93a2,2,0,0,0,3.32,2.23A243.77,243.77,0,0,1,318.39,271c21.66-18.85,55.88-41.33,95.94-41.33a113,113,0,0,1,40.76,7.77c11.55,4.46,21.46,8.34,30.2,11.76,37.07,14.52,50.94,20,64.48,20,7.85,0,15.61-1.85,27.36-4.65,4.23-1,9-2.15,14.57-3.39,30.51-6.82,47.1-16.22,50.72-28.75,3-10.43-2.82-22.71-17.8-37.56C611.21,181.46,572.17,168,523.5,168Z"/>
      </g>
      <path d="M398.07,218.08c-4.71-3.94-4.18-11.29,5.46-20.06C360,219.4,316.27,255,278.78,311.39c0,0,77.4-114.3,177-75.86,38.61,14.89,59.51,23.6,73.79,28h0a678.47,678.47,0,0,0-75-33.57C410.71,213.3,410.1,228.11,398.07,218.08Z"/>
      <path d="M587,261.07a1,1,0,0,1-.72-.31C525,197,462.83,193.55,421.49,201.89c-44.83,9.05-75.52,33.46-75.83,33.71a1,1,0,0,1-1.25-1.56c.31-.25,31.38-25,76.68-34.11a162.63,162.63,0,0,1,78.07,2.88c31.44,9.1,61.24,28.13,88.58,56.57a1,1,0,0,1,0,1.41A1,1,0,0,1,587,261.07Z"/>
      <path d="M627.13,247.57a1,1,0,0,1-.83-.44C584,185,519.25,178.8,472.35,184.6c-51,6.3-92.48,27.64-92.89,27.86a1,1,0,1,1-.92-1.78c.41-.21,42.19-21.71,93.51-28.06,30.18-3.74,57.73-1.59,81.87,6.39,30.21,10,55.12,29.16,74,57a1,1,0,0,1-.27,1.39A1,1,0,0,1,627.13,247.57Z"/>
      <g>
        <path d="M371.36,710.37c-19.91,4.45-38.49,2.69-55.44-5.26-37.31-17.51-51.51-59.05-52.1-60.82a16.72,16.72,0,0,1,31.7-10.63c.12.34,10.53,30,34.78,41.26,13.21,6.14,28.88,5.75,46.57-1.14A16.72,16.72,0,0,1,389,704.94,122.05,122.05,0,0,1,371.36,710.37Z" style="fill: #fff"/>
        <path d="M279.67,622.29a16.73,16.73,0,0,1,15.85,11.37c.12.34,10.53,30,34.78,41.26a47.48,47.48,0,0,0,20.24,4.33c8.17,0,17-1.82,26.33-5.47A16.72,16.72,0,0,1,389,704.94a122.05,122.05,0,0,1-17.65,5.43,95.41,95.41,0,0,1-20.89,2.39,80.43,80.43,0,0,1-34.55-7.65c-37.31-17.51-51.51-59.05-52.1-60.82a16.72,16.72,0,0,1,15.85-22m0-2a18.73,18.73,0,0,0-17.75,24.64c.6,1.79,15.07,44.12,53.15,62a82.76,82.76,0,0,0,35.4,7.84,98.14,98.14,0,0,0,21.33-2.44,124.43,124.43,0,0,0,17.94-5.52,18.72,18.72,0,1,0-13.59-34.88c-9.09,3.54-17.71,5.33-25.61,5.33a45.73,45.73,0,0,1-19.4-4.14c-23.41-10.87-33.63-39.81-33.73-40.1a18.72,18.72,0,0,0-17.74-12.72Z"/>
      </g>
      <path d="M389,704.94a16.72,16.72,0,0,0,10-11.17A23.83,23.83,0,0,0,381.9,693c-25.77,8.53-48.16,7.92-66.57-1.82-33.79-17.86-46.46-61-46.6-61.47a22.79,22.79,0,0,0-.85-2.49,16.7,16.7,0,0,0-4.06,17.11c.59,1.77,14.79,43.31,52.1,60.82,16.95,7.95,35.53,9.71,55.44,5.26A122.05,122.05,0,0,0,389,704.94Z" style="fill: #e21d67"/>
      <path d="M281.88,678h0a1,1,0,0,1-1-1c.49-22.89,25.5-23.12,26.14-23.12h0a1,1,0,0,1,0,2H307c-1.56,0-23.64.38-24.08,21.16A1,1,0,0,1,281.88,678Z"/>
      <path d="M294.65,691.84a1,1,0,0,1-1-.76c-1.63-6.63-.86-12.38,2.28-17.11,5.94-8.94,18.17-11,18.69-11a1,1,0,0,1,.31,2c-.12,0-11.89,2-17.34,10.18-2.82,4.24-3.49,9.46-2,15.51a1,1,0,0,1-1,1.24Z"/>
      <path d="M347.77,713.72a1,1,0,0,1-.82-.43c-12.16-17.46-.16-33.93,0-34.09a1,1,0,1,1,1.6,1.19c-.46.63-11.25,15.5.08,31.76a1,1,0,0,1-.82,1.57Z"/>
      <path d="M336.51,712.59a1,1,0,0,1-.88-.53c-12.86-24,2.05-35,2.2-35.09A1,1,0,0,1,339,678.6h0c-.56.41-13.6,10.13-1.6,32.52a1,1,0,0,1-.88,1.47Z"/>
      <path d="M436.07,568.86a1,1,0,0,1-.74-.32L356,483.05a1,1,0,0,1,1.46-1.36l79.3,85.49a1,1,0,0,1-.73,1.68Z" style="fill: #fff"/>
      <path d="M367,467.77a1,1,0,0,1,0-2l111.15-4.24a1,1,0,0,1,1,1,1,1,0,0,1-1,1L367,467.77Z" style="fill: #fff"/>
      <path d="M354.72,530.07a1,1,0,0,1-.52-.15,1,1,0,0,1-.33-1.38c9.26-15.06,28.51-13.25,34.11-12.36-5.61-26.87,30.22-47.76,37.91-51.9a17.75,17.75,0,0,1-6.19-11.56c-1.83-14.61,11.81-31.61,12.39-32.33a1,1,0,0,1,1.41-.15,1,1,0,0,1,.14,1.41c-.13.17-13.68,17.07-11.95,30.83a16,16,0,0,0,6.61,11.17,1,1,0,0,1-.15,1.7c-.45.23-45.46,23.24-37.88,51.84a1,1,0,0,1-.25.95,1,1,0,0,1-.94.28c-.24,0-23.42-5.24-33.5,11.17A1,1,0,0,1,354.72,530.07Z" style="fill: #fff"/>
      <path d="M364.16,571.22a.73.73,0,0,1-.25,0,1,1,0,0,1-.72-1.22,37.38,37.38,0,0,1,16.51-21c9.52-5.58,21.55-6.66,35.76-3.22a68.27,68.27,0,0,1,1.09-27.65c3.62-15.19,14.09-37,43.38-55.27-2.37-5.75-15.14-40.31,11.32-58.23a1,1,0,1,1,1.12,1.65c-27.36,18.53-10.45,56.18-10.28,56.56a1,1,0,0,1-.38,1.27C432.5,482,422.1,503.49,418.52,518.41c-3.87,16.17-.81,28.28-.77,28.4a1,1,0,0,1-1.23,1.22c-17.69-4.64-31.71-2.29-41.66,7a36.18,36.18,0,0,0-9.73,15.46A1,1,0,0,1,364.16,571.22Z" style="fill: #fff"/>
      <path d="M561.28,511.52a1,1,0,0,1-1-.8l-25.52-127a1,1,0,0,1,2-.4l25.52,127a1,1,0,0,1-.78,1.18A.68.68,0,0,1,561.28,511.52Z" style="fill: #fff"/>
      <g>
        <ellipse cx="558.81" cy="525.76" rx="18.15" ry="14.33" transform="translate(23.78 1075.7) rotate(-89.04)" style="fill: #fff"/>
        <path d="M558.92,507.61h.2c7.91.13,14.19,8.36,14,18.39s-6.61,17.91-14.44,17.91h-.19c-7.91-.14-14.19-8.37-14-18.39s6.62-17.91,14.44-17.91m0-2h0c-8.88,0-16.25,8.91-16.44,19.87a22.78,22.78,0,0,0,4.4,14.15,14.88,14.88,0,0,0,11.6,6.28h.22c8.88,0,16.26-8.92,16.44-19.88a22.71,22.71,0,0,0-4.39-14.15,14.87,14.87,0,0,0-11.6-6.27Z"/>
      </g>
      <circle cx="552" cy="547.84" r="5.73" style="fill: #fff"/>
      <path d="M552,513.6a.92.92,0,0,1-.4-.08c-.38-.16-9.21-4.1-10.61-10.4-.6-2.73.26-5.44,2.57-8.06,8.6-9.75,11.3-11.43,11.42-11.5a1,1,0,0,1,1,1.71c-.1.06-2.69,1.74-11,11.11-1.86,2.12-2.57,4.24-2.11,6.3,1.17,5.31,9.37,9,9.45,9a1,1,0,0,1-.4,1.91Z" style="fill: #fff"/>
      <path d="M566.78,514.21a1,1,0,0,1-.81-.42,1,1,0,0,1,.22-1.39s5.22-3.84,5.73-9c.26-2.66-.78-5.28-3.1-7.77-8.69-9.37-11-11-11.12-11a1,1,0,0,1-.29-1.38,1,1,0,0,1,1.37-.3c.1.06,2.5,1.63,11.51,11.34,2.72,2.94,3.94,6.08,3.61,9.34-.6,6-6.3,10.22-6.54,10.39A1,1,0,0,1,566.78,514.21Z" style="fill: #fff"/>
      <path d="M542.26,526.92c-3.18,0-7.21-.62-10-3.25s-3.85-6.76-3-12.23a1,1,0,0,1,1.14-.84,1,1,0,0,1,.84,1.14c-.73,4.77.08,8.29,2.4,10.47,4.45,4.15,13.1,2.29,13.19,2.27a1,1,0,0,1,1.19.76,1,1,0,0,1-.75,1.19A24,24,0,0,1,542.26,526.92Z" style="fill: #fff"/>
      <path d="M571.94,528.08a21.92,21.92,0,0,1-4.33-.42,1,1,0,0,1,.44-2c.08,0,8,1.74,12.57-2.44,2.83-2.59,3.87-6.94,3.09-12.95a1,1,0,1,1,2-.25c.87,6.69-.39,11.63-3.73,14.68C579,527.46,575,528.08,571.94,528.08Z" style="fill: #fff"/>
      <path d="M573.45,552.35c-3.62,0-6.49-1-8.57-3-4.41-4.3-3.46-11.48-3.42-11.78a1,1,0,0,1,1.13-.85,1,1,0,0,1,.85,1.13c0,.06-.84,6.49,2.85,10.07,2.29,2.23,5.9,3,10.73,2.15a1,1,0,0,1,.32,2A24.77,24.77,0,0,1,573.45,552.35Z" style="fill: #fff"/>
      <path d="M534.47,542.46c-3.66,0-7.79-1.3-12.05-5a1,1,0,0,1,1.31-1.51c5.24,4.58,10.8,5.72,16.52,3.37a21.22,21.22,0,0,0,7.15-5,1,1,0,1,1,1.5,1.32C548.82,535.75,542.81,542.46,534.47,542.46Z" style="fill: #fff"/>
      <path d="M344.17,237.91,343,236.29c1.36-1,33.42-23.95,52.87-28.42l.44,1.95C377.25,214.2,344.5,237.67,344.17,237.91Z" style="fill: #fff"/>
      <path d="M392.21,756.57c-26.23,0-33.06-23-33.14-23.29a1,1,0,0,1,1.93-.54c.34,1.19,8.66,29,44.14,20.11a1,1,0,0,1,.48,1.95A55.63,55.63,0,0,1,392.21,756.57Z"/>
      <path d="M388.35,771.37a26.63,26.63,0,0,1-9.5-1.68,26.15,26.15,0,0,1-14.27-13.41,1,1,0,0,1,.54-1.3,1,1,0,0,1,1.31.54,24.53,24.53,0,0,0,13.15,12.31c7.77,2.92,17.2,1.67,28-3.71a1,1,0,1,1,.89,1.79C401.18,769.55,394.44,771.37,388.35,771.37Z"/>
      <path d="M518.12,766.91c-18.34,0-30.22-8.12-30.4-8.25a1,1,0,0,1,1.15-1.64c.27.19,27.44,18.69,63-1.64a1,1,0,0,1,1.37.38,1,1,0,0,1-.37,1.36C540,764.51,528.08,766.91,518.12,766.91Z"/>
      <path d="M523.2,787.32c-13.18,0-21.77-5.18-21.92-5.28a1,1,0,0,1-.32-1.37,1,1,0,0,1,1.38-.33c.25.16,25.22,15.15,55.32-7.65a1,1,0,1,1,1.21,1.59C545.5,784.41,533.06,787.32,523.2,787.32Z"/>
      <path d="M768.89,689.38a1,1,0,0,1-.06-2c.21,0,20.83-1.44,30-14.08a1,1,0,0,1,1.4-.22,1,1,0,0,1,.22,1.4c-9.73,13.41-30.62,14.84-31.5,14.89Z"/>
      <path d="M774.81,699.24a27.08,27.08,0,0,1-5.54-.5,1,1,0,0,1,.46-1.94c.17,0,17.08,3.74,27.82-10.77a1,1,0,1,1,1.61,1.19A29.48,29.48,0,0,1,774.81,699.24Z"/>
      <path d="M525.61,660.38h-.07a1,1,0,0,1,0-2h0c.37,0,8.7-.06,12.73-4.47a8.86,8.86,0,0,0,2.12-7.16c-1.17-11.92-19.43-13.63-19.61-13.64a1,1,0,0,1-.92-1.08,1,1,0,0,1,1.09-.91c.82.07,20.1,1.87,21.43,15.44a10.75,10.75,0,0,1-2.64,8.7C535.22,660.25,526.52,660.38,525.61,660.38Z"/>
      <g>
        <circle cx="279.24" cy="518.71" r="5.73" style="fill: #fff"/>
        <path d="M279.24,513a5.73,5.73,0,0,1,1.25,11.33,6,6,0,0,1-1.26.14A5.73,5.73,0,0,1,278,513.11a6,6,0,0,1,1.25-.14m0-2h0a8.11,8.11,0,0,0-1.69.19,7.73,7.73,0,0,0,1.68,15.28,7.36,7.36,0,0,0,1.69-.19,7.73,7.73,0,0,0,5.86-9.23,7.78,7.78,0,0,0-7.54-6Z"/>
      </g>
      <g>
        <circle cx="290.66" cy="543.56" r="6.69" style="fill: #fff"/>
        <path d="M290.67,536.87a6.72,6.72,0,1,1-1.47.17,6.84,6.84,0,0,1,1.47-.17m0-2h0a8.71,8.71,0,0,0-8.49,10.59,8.69,8.69,0,1,0,8.49-10.59Z"/>
      </g>
      <circle cx="687.64" cy="504.32" r="7.16" style="fill: #fff"/>
      <circle cx="513.83" cy="425.19" r="3.82" style="fill: #fff"/>
      <circle cx="488.11" cy="590.49" r="1.91" style="fill: #fff"/>
      <circle cx="613.26" cy="471.5" r="1.91" style="fill: #fff"/>
      <circle cx="644.08" cy="609.49" r="1.91" style="fill: #fff"/>
      <path d="M304.86,450.36a1.09,1.09,0,0,1-.39-.08,1,1,0,0,1-.53-1.31c.24-.58,6.21-14.45,25.11-32,17.38-16.1,49.45-38.37,103.53-53a1,1,0,0,1,1.23.7,1,1,0,0,1-.71,1.23c-53.69,14.51-85.47,36.58-102.69,52.53-18.58,17.23-24.57,31.14-24.63,31.27A1,1,0,0,1,304.86,450.36Z" style="fill: #fff"/>
      <path d="M562.35,238.1a1,1,0,0,1-.64-1.77c.91-.75,22.46-18.4,46-14.34a1,1,0,0,1,.82,1.15,1,1,0,0,1-1.16.82c-22.67-3.9-44.21,13.73-44.43,13.91A1,1,0,0,1,562.35,238.1Z"/>
      <path d="M548.61,228.4a1,1,0,0,1-.72-1.69c.17-.17,17-17.14,45.62-16.93a1,1,0,0,1,0,2H593c-27.42,0-43.46,16.16-43.62,16.32A1,1,0,0,1,548.61,228.4Z"/>
      <path d="M503.06,206.05a1,1,0,0,1-.43-.1,1,1,0,0,1-.47-1.33c.29-.6,7.42-14.93,36.14-19.78a1,1,0,0,1,1.15.82,1,1,0,0,1-.82,1.15C511,191.48,504,205.35,504,205.49A1,1,0,0,1,503.06,206.05Z"/>
      <path d="M490,201a1.12,1.12,0,0,1-.31-.05,1,1,0,0,1-.64-1.26c.19-.6,5-14.76,31.6-17.74a1,1,0,0,1,1.11.88,1,1,0,0,1-.88,1.11C495.69,186.76,491,200.17,491,200.31A1,1,0,0,1,490,201Z"/>
    </g>
    <g id="a2390975-0d54-4e52-9dbc-ac2af9e0b19c" data-name="pattern">
      <path d="M205.86,763.27a5.55,5.55,0,0,1-3-.9,1,1,0,0,1-.31-1.38,1,1,0,0,1,1.38-.31c2,1.31,4.52.21,6-1.46s2.42-4.21,1-6.15-4.16-1.76-6.18-.73-3.74,3.11-3,5.43a1,1,0,0,1-1.92.58c-1-3.43,1.28-6.39,4-7.79s6.51-1.56,8.68,1.3,1,6.44-1.07,8.72A7.88,7.88,0,0,1,205.86,763.27Z"/>
      <path d="M652.86,847.27a5.55,5.55,0,0,1-3-.9,1,1,0,0,1-.31-1.38,1,1,0,0,1,1.38-.31c2.05,1.31,4.52.21,6.05-1.46s2.42-4.21.95-6.15-4.16-1.76-6.18-.73-3.74,3.11-3,5.43a1,1,0,0,1-1.92.58c-1-3.43,1.28-6.39,4-7.79s6.51-1.56,8.68,1.3,1,6.44-1.07,8.72A7.88,7.88,0,0,1,652.86,847.27Z"/>
      <path d="M861.19,401.33a1,1,0,0,1-1-1l-.32-24.66-5.8,20.9a1,1,0,1,1-1.92-.53l7.67-27.66a1,1,0,0,1,1.09-.72,1,1,0,0,1,.87,1l.41,31.66a1,1,0,0,1-1,1Z"/>
      <path d="M871.15,409.4a1,1,0,0,1-.33-1.95,83.07,83.07,0,0,1,14.09-3.64l-17.82-1.05a1,1,0,0,1,.12-2l32.6,1.94c2.42,0,4.84.18,7.25.43a1,1,0,0,1-.17,2l-7.16-.42a80.71,80.71,0,0,0-28.24,4.64A1,1,0,0,1,871.15,409.4Z"/>
      <path d="M853,468.81a1,1,0,0,1-1-.72A122.75,122.75,0,0,1,848,422.41a1,1,0,1,1,2,.2,120.4,120.4,0,0,0,.58,28.82,70,70,0,0,1,5.57-25.28,1,1,0,0,1,1.84.78,68.08,68.08,0,0,0-4,40.67,1,1,0,0,1-.74,1.18A1,1,0,0,1,853,468.81Z"/>
      <path d="M837.05,411.07a1,1,0,0,1-.45-.1l-15.75-7.9a1,1,0,0,1,.45-1.9h0l21.63.18a1,1,0,0,1,0,2h0l-17.32-.14,11.9,6a1,1,0,0,1-.45,1.89Z"/>
      <path d="M209.38,197.22a1,1,0,0,1-1-1L208,162.7l-8,28.66a1,1,0,0,1-1.92-.54l9.82-35.41a1,1,0,0,1,2,.25l.51,40.55a1,1,0,0,1-1,1Z"/>
      <path d="M222.15,207.55a1,1,0,0,1-.94-.67,1,1,0,0,1,.6-1.27,105.69,105.69,0,0,1,20.61-5.05L217,199.05A1,1,0,0,1,216,198a1,1,0,0,1,1.06-.94l41.74,2.48c3.1.05,6.2.23,9.27.55a1,1,0,0,1,.9,1.08,1,1,0,0,1-1.06.91l-9.18-.54a104.09,104.09,0,0,0-36.28,6A1,1,0,0,1,222.15,207.55Z"/>
      <path d="M198.9,283.65a1,1,0,0,1-1-.73,156.86,156.86,0,0,1-5.19-58.4,1,1,0,0,1,1.1-.89,1,1,0,0,1,.89,1.1A154.45,154.45,0,0,0,196,265.11a89.38,89.38,0,0,1,7.14-35.72,1,1,0,0,1,1.32-.52,1,1,0,0,1,.52,1.31,87.51,87.51,0,0,0-5.11,52.26,1,1,0,0,1-.74,1.18Z"/>
      <path d="M178.47,209.7a1,1,0,0,1-.44-.11l-20.18-10.12a1,1,0,0,1-.52-1.13,1,1,0,0,1,1-.76h0l27.7.22a1,1,0,0,1,1,1,1,1,0,0,1-1,1h0l-23.39-.19,16.32,8.19a1,1,0,0,1,.45,1.34A1,1,0,0,1,178.47,209.7Z"/>
    </g>
  </g>
</svg>
