<svg xmlns="http://www.w3.org/2000/svg" width="1000" height="1000" viewBox="0 0 1000 1000">
  <g id="b97f6213-ecb3-400a-a444-3d155d45646a" data-name="Coming Soon">
    <g id="f9d3d23a-4514-4535-935c-531ad23a1d32" data-name="background">
      <path d="M850.72,605.43c28.79-34.16,20.88-110.5,10.17-150.53-6.84-25.61-21.62-50.22-44.77-63.11-15.46-8.61-33.34-11.41-50.47-15.79-53.64-13.73-77.91-71.94-107-114.49-25.47-37.18-61.18-69.44-104.82-80.72s-95.4,2.74-119.87,40.59c-37.17,57.48.1,137.49-25.76,200.87-11.19,27.41-33.38,49-57.84,65.71s-51.52,29.1-77.34,43.59c-26.1,14.64-52.94,34.06-60.24,63.08-9.85,39.17,20,77.07,51.77,102,44.68,35,98.48,59.54,155,64.6s115.68-10.44,159.08-47c29.5-24.87,52.48-59.38,88.36-73.54,29.86-11.79,63.23-7.25,95.31-6.49S830,630,850.72,605.43Z" style="fill: #c4bbbb"/>
    </g>
    <g id="fc072336-89c6-407f-8832-efbb0ce97b2c" data-name="moon">
      <g>
        <path d="M752.4,552.26c-9.46,4.23-16.26,11.11-24,17.64-7.6,6.39-16,12.36-22,20.2-8.21,10.78-13.42,23.54-17.45,36.47-4.88,15.64-8.17,32.53-3.74,48.3,2.75,9.76,8.28,18.47,13.75,27,5,7.78,10,15.65,16.84,21.87,6.56,6,14.52,10.22,22.52,14.07,20.87,10,44,18.11,66.83,14.54,16.66-2.59,31.82-11.19,45.31-21.31,17.49-13.12,33.32-29.8,40.1-50.59,3.67-11.25,4.54-23.24,4.3-35.08-.29-14.33-2.27-28.95-8.76-41.74-8.24-16.27-22.95-28.13-37.23-39.48-10.58-8.4-21.65-17-34.84-20-10.7-2.36-21.83-.71-32.67.94C771.48,546.66,761.49,548.2,752.4,552.26Z" style="fill: #fff"/>
        <path d="M793.76,754.24c-20.67,0-40.39-8-55.91-15.51-7.88-3.79-16.09-8.13-22.77-14.23-7-6.35-12.07-14.34-17-22.07-5.44-8.51-11.06-17.3-13.87-27.29-4.83-17.2-.54-35.15,3.74-48.86,4.93-15.79,10.53-27.48,17.62-36.79,4.72-6.2,11-11.26,17-16.16,1.72-1.39,3.44-2.78,5.12-4.2,1.5-1.26,3-2.54,4.43-3.8,6.2-5.41,12.07-10.52,19.83-14l.41.91-.41-.91c9.29-4.15,19.4-5.69,29.18-7.18,10.32-1.58,22-3.36,33-.93,13.68,3,25.13,12.12,35.24,20.15,13.6,10.8,29,23.05,37.5,39.81,5.69,11.22,8.51,24.62,8.87,42.17.29,14.19-1.09,25.44-4.35,35.41-5.94,18.22-19.55,35.4-40.45,51.08-16.27,12.21-31.24,19.24-45.76,21.5A74.61,74.61,0,0,1,793.76,754.24Zm-41-201.07c-7.49,3.35-13.25,8.36-19.34,13.66-1.47,1.28-2.94,2.56-4.45,3.84-1.69,1.41-3.42,2.81-5.15,4.21-6,4.83-12.13,9.82-16.71,15.83-6.95,9.12-12.45,20.61-17.3,36.16-4.2,13.45-8.41,31-3.72,47.72,2.72,9.71,8.26,18.38,13.62,26.76,4.87,7.62,9.9,15.5,16.67,21.67,6.49,5.92,14.55,10.18,22.29,13.9,18.11,8.72,42,18.24,66.24,14.47,14.18-2.21,28.85-9.12,44.86-21.13,20.56-15.43,33.94-32.28,39.75-50.1,3.18-9.75,4.53-20.79,4.25-34.75-.35-17.24-3.1-30.37-8.65-41.31-8.3-16.36-23.53-28.47-37-39.14-9.93-7.9-21.2-16.85-34.42-19.77-10.66-2.35-22.16-.6-32.31.95-9.65,1.47-19.62,3-28.66,7Z"/>
      </g>
      <g>
        <path d="M742.3,567a29.16,29.16,0,0,0,9.89-21.49c17.56-5.81,35.88-11.71,54.22-9.27a40.83,40.83,0,0,0,11,22.89" style="fill: #fff"/>
        <path d="M742.29,568a1,1,0,0,1-.65-1.76,28.12,28.12,0,0,0,9.55-20.73,1,1,0,0,1,.69-1c16.74-5.54,35.72-11.83,54.66-9.31a1,1,0,0,1,.86.86,39.69,39.69,0,0,0,10.75,22.32,1,1,0,1,1-1.44,1.39,41.76,41.76,0,0,1-11.19-22.68c-18-2.17-36.19,3.75-52.34,9.1A30.2,30.2,0,0,1,743,567.7,1,1,0,0,1,742.29,568Z"/>
      </g>
      <path d="M699.6,630.59a17.3,17.3,0,0,1,6.61,1.38A13.89,13.89,0,0,1,712.9,638,13.73,13.73,0,0,1,709.2,655c-2.35,1.77-5.47,3-6.51,5.72-.94,2.46.2,5.16.83,7.72s.41,5.9-2,7a3.47,3.47,0,0,1-1.45.31,5.1,5.1,0,0,1-3.15-1.22,13.16,13.16,0,0,1-2.9-4c-1.52-2.75-3.09-5.65-3-8.79,0-3.86,2.55-7.37,2.64-11.24.12-4.66-3.11-9.36-2.26-14.05.78-4.26,4.34-5.84,8.23-5.84m0-2c-5.53,0-9.34,2.8-10.19,7.48-.56,3.06.29,5.91,1.11,8.68a19.13,19.13,0,0,1,1.11,5.69,16.69,16.69,0,0,1-1.21,5,19.72,19.72,0,0,0-1.43,6.29c0,3.75,1.8,7.1,3.29,9.78a15,15,0,0,0,3.37,4.55,7.13,7.13,0,0,0,4.43,1.68,5.49,5.49,0,0,0,2.28-.49c3.36-1.53,4-5.77,3.1-9.29-.12-.5-.26-1-.4-1.5-.53-1.87-1-3.64-.5-5s2.07-2.36,3.7-3.4c.71-.45,1.45-.91,2.14-1.43a15.35,15.35,0,0,0-3.4-26.42,19.22,19.22,0,0,0-7.4-1.55Z"/>
      <path d="M730.9,587.65a4.43,4.43,0,0,1,4.4,2.54c.92,2-.14,4.49-1.86,5.9a16.44,16.44,0,0,1-6.06,2.61,13.61,13.61,0,0,0-5.94,2.83c-1,1-1.74,2.26-2.7,3.31a4.67,4.67,0,0,1-3.23,1.7,2.94,2.94,0,0,1-.51,0,3.6,3.6,0,0,1-2.67-3.22c-.64-6,11.47-15.62,18.57-15.62m0-2c-5.53,0-12.73,4.68-16.69,9.09-2,2.19-4.22,5.48-3.86,8.75a5.53,5.53,0,0,0,4.3,5,4.91,4.91,0,0,0,.86.08,6.55,6.55,0,0,0,4.71-2.35c.49-.54.9-1.1,1.3-1.63a13.69,13.69,0,0,1,1.3-1.59,12,12,0,0,1,5.1-2.35l.19,0a17.69,17.69,0,0,0,6.6-2.93c2.24-1.84,3.78-5.27,2.41-8.27a6.39,6.39,0,0,0-6.22-3.72Z"/>
      <path d="M776.71,610.22a4.2,4.2,0,0,1,2.86,1.18c2.11,1.88,1.46,5.27.64,8L777,629.83a9.67,9.67,0,0,1-2.23,4.42,4.55,4.55,0,0,1-3.2,1.34c-2.89,0-5.8-2.68-6.76-5.38-1.68-4.74,5.48-20,11.87-20m0-2c-3.69,0-6.8,3.32-8.77,6.11-3.47,4.92-6.37,12.65-5,16.55,1.17,3.3,4.72,6.71,8.64,6.71a6.54,6.54,0,0,0,4.58-1.89,11.39,11.39,0,0,0,2.76-5.29l1.59-5.23,1.59-5.22c.59-1.93,2.14-7.06-1.22-10.06a6.2,6.2,0,0,0-4.19-1.68Z"/>
      <g>
        <path d="M703.47,701.36c2.48,4.42,1.6,9.86,2.1,14.9,1.27,13,12.28,23.54,24.75,27.32s16.3-4,28.72-1.69" style="fill: #fff"/>
        <path d="M737,745.63a23.6,23.6,0,0,1-7-1.1c-13.77-4.17-24.24-15.75-25.46-28.17-.15-1.5-.18-3-.2-4.53-.07-3.63-.14-7.06-1.77-10a1,1,0,0,1,1.75-1c1.87,3.36,1.95,7.2,2,10.92,0,1.45,0,3,.19,4.37,1.14,11.64,11,22.52,24.05,26.46,6.31,1.91,10.3.75,14.52-.48,3.94-1.15,8-2.34,14.08-1.23a1,1,0,1,1-.35,2c-5.61-1-9.46.11-13.17,1.19A29.68,29.68,0,0,1,737,745.63Z"/>
      </g>
      <path d="M741.1,744.77a1,1,0,0,1-.83-.44,1,1,0,0,1,.26-1.39c1.71-1.16,1.71-4,.57-5.71-1.42-2.14-4.1-3.22-6-3.85-.6-.21-1.22-.39-1.83-.58a18.59,18.59,0,0,1-10.47-6.4c-.49-.51-1-1-1.49-1.5-2.34-2.27-4.37-3.37-6.4-3.48a4.86,4.86,0,0,0-3.53,1.34,3,3,0,0,0-1,2.25,1,1,0,1,1-2,.06,5,5,0,0,1,1.61-3.75,6.9,6.9,0,0,1,5-1.9c2.51.13,5,1.46,7.68,4,.52.51,1,1,1.53,1.55a16.83,16.83,0,0,0,9.62,5.88c.63.19,1.26.38,1.89.59,2.17.72,5.26,2,7,4.65s1.62,6.61-1.1,8.46A1,1,0,0,1,741.1,744.77Z"/>
      <g>
        <path d="M872.45,600.79c7.33,7.94,9.72,14.65,16.36,18.1,7,3.62,8.82,9.76,11.18,17.27,2.65,8.42,5.33,17.14,4.37,25.91-1,9-5.83,17.3-12,23.95s-13.71,11.89-21.17,17.08" style="fill: #fff"/>
        <path d="M871.17,704.1a1,1,0,0,1-.82-.42,1,1,0,0,1,.25-1.4c7.3-5.08,14.86-10.34,21-16.94,4.75-5.11,10.65-13.31,11.76-23.38,1-8.71-1.85-17.63-4.33-25.5l-.12-.38c-2.27-7.22-4.07-12.93-10.57-16.3-4.33-2.25-7-5.85-10-10a86.57,86.57,0,0,0-6.62-8.29,1,1,0,1,1,1.47-1.36,92.15,92.15,0,0,1,6.77,8.47c3,4.13,5.39,7.39,9.31,9.42,7.24,3.76,9.24,10.12,11.56,17.48l.12.38c2.53,8.06,5.41,17.19,4.4,26.32-1.16,10.61-7.32,19.19-12.28,24.52-6.29,6.76-13.94,12.08-21.33,17.23A1,1,0,0,1,871.17,704.1Z"/>
      </g>
      <path d="M897.32,677.91a14.27,14.27,0,0,1-11.18-6.2c-2.27-3.13-3.69-7.09-4.47-12.45a57.9,57.9,0,0,1,1.59-24,17.36,17.36,0,0,1,3.48-7.11,7.8,7.8,0,0,1,7.78-2.59,1,1,0,0,1-.57,1.92c-2.12-.62-4.41.56-5.73,2a15.63,15.63,0,0,0-3,6.3A56.14,56.14,0,0,0,883.64,659c.74,5,2,8.7,4.12,11.56,2.55,3.51,6.41,5.57,10,5.37a1,1,0,0,1,1.06.94,1,1,0,0,1-1,1.06Z"/>
      <path d="M829.87,647.9c16.26,0,33.75,25,25.26,39.15A17.08,17.08,0,0,1,840.54,695a16.38,16.38,0,0,1-6.86-1.47c-3.27-1.51-6.13-4-9.59-4.93a12.69,12.69,0,0,0-3.23-.39c-3.65,0-7.33,1.26-11,1.57q-.83.06-1.65.06a22.74,22.74,0,0,1-16.8-7.67c-2.93-3.33-4.82-8.51-2.33-12,2.1-3,6.24-3.36,9.81-4.09a31.67,31.67,0,0,0,15.63-8.31c3.53-3.44,6.54-7.91,11.3-9.25a14.87,14.87,0,0,1,4.08-.56m0-2a17.07,17.07,0,0,0-4.63.63c-4.15,1.17-7,4.25-9.74,7.23-.82.89-1.6,1.73-2.41,2.52a29.81,29.81,0,0,1-14.63,7.78l-1.46.28c-3.42.65-7.3,1.38-9.59,4.61-3.14,4.45-.93,10.64,2.46,14.5a24.75,24.75,0,0,0,18.31,8.35c.6,0,1.22,0,1.82-.07a44.73,44.73,0,0,0,5-.79,32,32,0,0,1,5.85-.77,11.11,11.11,0,0,1,2.73.32,20.82,20.82,0,0,1,5.36,2.64,36.42,36.42,0,0,0,3.89,2.17,18.28,18.28,0,0,0,7.7,1.66,18.94,18.94,0,0,0,16.3-8.88c3.88-6.46,3.18-15.62-1.85-24.52s-14.68-17.66-25.12-17.66Z"/>
      <path d="M823.11,726.94a3.63,3.63,0,0,1,1.17.19c2.67.93,3,4.73,1.76,7.25-2.89,5.83-7.63,5.81-13,6.12a70.67,70.67,0,0,1-7.88.91c-1.9,0-3.33-.36-3.13-1.53.15-.87,1-1.44,1.72-1.91l15-9.36a8.8,8.8,0,0,1,4.33-1.67m0-2h0a10.47,10.47,0,0,0-5.39,2l-15,9.36a5.05,5.05,0,0,0-2.63,3.26,3,3,0,0,0,.63,2.44c.84,1,2.22,1.43,4.47,1.43a45.53,45.53,0,0,0,6.63-.71c.56-.09,1.19-.19,1.36-.2l.75,0c5.23-.29,10.63-.59,13.91-7.19a8.68,8.68,0,0,0,.35-6.85,5.43,5.43,0,0,0-3.25-3.18,5.62,5.62,0,0,0-1.83-.3Z"/>
      <path d="M788.19,622.06a1,1,0,0,1-.48-.12,1,1,0,0,1-.4-1.36,11.9,11.9,0,0,0-8.16-17.3,1,1,0,0,1-.78-1.17,1,1,0,0,1,1.17-.79,13.9,13.9,0,0,1,9.53,20.21A1,1,0,0,1,788.19,622.06Z"/>
      <path d="M721.53,655.44a1,1,0,0,1-.53-.15,1,1,0,0,1-.32-1.37,16,16,0,0,0-7.08-23,1,1,0,1,1,.81-1.82,18,18,0,0,1,8,25.92A1,1,0,0,1,721.53,655.44Z"/>
      <path d="M803.51,558.61a1,1,0,0,1-.61-.21,23.56,23.56,0,0,1-9-21.08,1,1,0,0,1,1.11-.88,1,1,0,0,1,.88,1.11,21.5,21.5,0,0,0,8.19,19.26,1,1,0,0,1,.19,1.4A1,1,0,0,1,803.51,558.61Z"/>
      <path d="M791.08,556.29a1,1,0,0,1-.85-.48,28.68,28.68,0,0,1-4-17.69,1,1,0,0,1,1.1-.9,1,1,0,0,1,.89,1.09,26.69,26.69,0,0,0,3.75,16.46,1,1,0,0,1-.33,1.37A1,1,0,0,1,791.08,556.29Z"/>
      <path d="M886.55,630.06a.71.71,0,0,1-.2,0,26.94,26.94,0,0,1-17.78-12.9,1,1,0,1,1,1.73-1,25,25,0,0,0,16.45,11.93,1,1,0,0,1,.78,1.18A1,1,0,0,1,886.55,630.06Z"/>
      <path d="M716.63,722.45a1,1,0,0,1-.92-1.39,26,26,0,0,0-.18-20.15,1,1,0,0,1,1.83-.81,28,28,0,0,1,.19,21.73A1,1,0,0,1,716.63,722.45Z"/>
      <path d="M722.76,725.52a.62.62,0,0,1-.18,0,1,1,0,0,1-.8-1.16l1.55-8.54a1,1,0,0,1,2,.36l-1.55,8.54A1,1,0,0,1,722.76,725.52Z"/>
    </g>
    <g id="f6a22948-3132-403d-ba28-e9fdfb5279b7" data-name="Planet">
      <g>
        <circle cx="367.46" cy="676.44" r="202.56" style="fill: #fff"/>
        <path d="M367.46,473.88C479.33,473.88,570,564.57,570,676.44S479.33,879,367.46,879,164.9,788.31,164.9,676.44s90.69-202.56,202.56-202.56m0-2A203.87,203.87,0,1,0,447.08,488a203.41,203.41,0,0,0-79.62-16.07Z"/>
      </g>
      <g>
        <path d="M372.25,734.36c-8.8-10-6.17-25.62-.17-37.46s14.88-22.52,17.74-35.49-3.74-29.58-17-30.82c-12.21-1.16-21.14,10.62-28.63,20.33a170.18,170.18,0,0,1-34.65,33.68c-7.74,5.62-19.91,10-25.67,2.38-4.18-5.55-1.49-13.46-2.55-20.33-1.73-11.21-13.12-18.1-23.8-21.92s-22.57-6.59-29.91-15.24c-6.22-7.33-7.85-17.79-6-27.22s6.82-18,12.57-25.68a130.24,130.24,0,0,1,77.28-49.08l11.64,6.11c3.33-14.58-6.61-29.18-18.73-37.95A75.76,75.76,0,0,0,292,488.42,202.65,202.65,0,0,0,190,774.18,45.05,45.05,0,0,0,203,773c16.55-4,29.94-17.49,46.81-19.74,14.34-1.92,28.44,4.74,40.47,12.77s23.17,17.72,36.57,23.18c21.41,8.73,47.4,5,65.47-9.42,6.11-4.87,11.71-12,10.44-19.72C400.52,746.56,381.34,744.64,372.25,734.36Z" style="fill: #e21d67"/>
        <path d="M351.23,795a65.65,65.65,0,0,1-24.77-4.79c-9.73-4-18.39-10.22-26.76-16.26-3.25-2.34-6.61-4.77-10-7-15.05-10-28.07-14.17-39.78-12.61C241,755.46,232.88,760,225,764.36c-6.89,3.82-14,7.78-21.78,9.65a46.12,46.12,0,0,1-13.29,1.16l-.55,0-.27-.48A203.63,203.63,0,0,1,291.66,487.49l.4-.16.39.18A76.6,76.6,0,0,1,305,494.86c11.09,8,22.76,23,19.11,39l-.29,1.27-12.46-6.55A129.55,129.55,0,0,0,235,577.19c-6.88,9.2-10.81,17.23-12.39,25.27-1.95,10,.21,19.82,5.79,26.38,6,7,15.21,10.13,24.17,13.13,1.78.6,3.56,1.2,5.31,1.82,10.11,3.61,22.56,10.48,24.45,22.71a40.59,40.59,0,0,1,.19,7.72c-.16,4.55-.32,8.86,2.17,12.16,5,6.68,16.12,3.34,24.28-2.59a168.47,168.47,0,0,0,34.45-33.48l.26-.33c7.41-9.62,16.63-21.59,29.25-20.39A18.11,18.11,0,0,1,386,637.45c4.72,6.47,6.59,16,4.77,24.18-2,8.89-6.75,16.79-11.37,24.43-2.22,3.66-4.51,7.45-6.46,11.29-5.65,11.16-8.61,26.58,0,36.35,3.51,4,8.7,6.71,13.72,9.37,7.67,4,15.6,8.24,17,16.86,1.53,9.28-6.11,16.93-10.8,20.67A67.19,67.19,0,0,1,351.23,795Zm-96.4-43c10.84,0,22.67,4.37,36,13.27,3.4,2.27,6.77,4.71,10,7.06,8.28,6,16.83,12.14,26.35,16A65.34,65.34,0,0,0,391.69,779c4.35-3.47,11.44-10.52,10.07-18.78-1.26-7.64-8.41-11.42-16-15.43-5.17-2.74-10.53-5.57-14.28-9.81-9.3-10.52-6.26-26.82-.31-38.58,2-3.9,4.29-7.72,6.53-11.42,4.54-7.5,9.23-15.25,11.13-23.82,1.7-7.68,0-16.54-4.44-22.57a16.16,16.16,0,0,0-11.64-7c-11.54-1.09-20,9.91-27.49,19.62l-.26.33a170.87,170.87,0,0,1-34.85,33.88c-8.93,6.49-21.21,9.93-27.06,2.17-2.92-3.87-2.74-8.73-2.56-13.44a39.76,39.76,0,0,0-.18-7.34c-1.74-11.25-13.54-17.7-23.14-21.13-1.74-.62-3.5-1.21-5.28-1.8-9.21-3.09-18.74-6.28-25.06-13.73-6-7-8.29-17.52-6.22-28.06,1.63-8.35,5.69-16.63,12.75-26.09a131.57,131.57,0,0,1,77.88-49.46l.35-.07,10.77,5.66c2.53-14.51-8.3-28.19-18.59-35.64a74.9,74.9,0,0,0-11.83-7A201.66,201.66,0,0,0,190.59,773.2a43.67,43.67,0,0,0,12.16-1.14c7.5-1.8,14.51-5.69,21.28-9.45,8.05-4.46,16.36-9.08,25.64-10.32A40.16,40.16,0,0,1,254.83,752Z"/>
      </g>
      <g>
        <path d="M565.14,720.72a36.24,36.24,0,0,0-20.51-.13c-14.3,4.3-25.15,18.2-25.85,33.11-.26,5.47.7,11.13-1.12,16.3-2.9,8.26-11.72,12.53-19.4,16.73a140.54,140.54,0,0,0-34.49,26.5c-6.46,6.8-12.36,14.49-15,23.49-2.31,8-1.61,17.17,3,23.93A202.93,202.93,0,0,0,565.14,720.72Z" style="fill: #e21d67"/>
        <path d="M451.45,861.91l-.47-.7c-4.54-6.64-5.72-15.9-3.15-24.76,3-10.19,10.1-18.53,15.22-23.91a141.21,141.21,0,0,1,34.73-26.69l1.6-.87c7.26-3.93,14.76-8,17.34-15.31,1.2-3.43,1.13-7.07,1-10.93,0-1.66-.07-3.39,0-5.09.72-15.3,11.89-29.61,26.56-34a37,37,0,0,1,21.08.12l.9.26-.21.92A204.64,204.64,0,0,1,452.22,861.56ZM554.5,720.17a33.43,33.43,0,0,0-9.58,1.38c-13.89,4.17-24.46,17.71-25.14,32.2-.08,1.63,0,3.32,0,5,.08,3.87.16,7.87-1.17,11.63-2.83,8-11,12.49-18.26,16.41l-1.6.86a139.23,139.23,0,0,0-34.24,26.32c-5,5.23-11.91,13.31-14.74,23.08-2.32,8-1.41,16.28,2.41,22.38A202.68,202.68,0,0,0,564,721.43,36.71,36.71,0,0,0,554.5,720.17Z"/>
      </g>
      <g>
        <path d="M299.44,803.66c-9.38,14.39-58.63-3.87-50.67-16.47,2.89-4.55,9.73-4.19,14.67-2s9.64,5.59,15,5.49c5.56-.1,11-4,16.31-2.51C300.82,789.85,302.87,798.39,299.44,803.66Z" style="fill: #e21d67"/>
        <path d="M285.71,809.87c-10,0-22.43-3.93-30.37-9-7.41-4.75-10.11-9.92-7.41-14.18,3.19-5,10.48-4.79,15.91-2.43,1.35.59,2.68,1.27,4,1.93,3.5,1.79,6.81,3.48,10.43,3.48h.21a24.58,24.58,0,0,0,6.59-1.4c3.25-1,6.6-2,10-1.07a9.62,9.62,0,0,1,6.24,6.11,12.42,12.42,0,0,1-1,10.92C297.65,808.23,292.18,809.87,285.71,809.87Zm-29.27-25.25c-2.85,0-5.43.92-6.82,3.11-2.87,4.54,3.8,9.51,6.8,11.43,12.46,8,36.32,13,42.18,4h0a10.54,10.54,0,0,0,.82-9.13,7.54,7.54,0,0,0-4.92-4.89c-2.83-.81-5.76.1-8.86,1.06a26.11,26.11,0,0,1-7.15,1.49c-4.18.08-8-1.84-11.59-3.7-1.26-.65-2.57-1.31-3.86-1.88A17.06,17.06,0,0,0,256.44,784.62Z"/>
      </g>
      <g>
        <path d="M480.64,707.65c19.26-4,5.76,12.44,8.65,23.3,2,7.41,10.12,11.74,11,19.95.62,5.84-2.69,11.35-6.27,16-2.78,3.63-6,7.21-10.24,8.87s-9.85.75-12.26-3.14c-3.31-5.32.31-13.67-4.4-17.79-3.11-2.72-7.86-1.7-11.93-2.42-8-1.44-13.16-10.5-12-18.58s7.18-14.8,14.28-18.8S472.66,709.32,480.64,707.65Z" style="fill: #e21d67"/>
        <path d="M479.44,777.58a10,10,0,0,1-8.77-4.4c-1.65-2.65-1.73-5.84-1.8-8.93-.09-3.43-.17-6.67-2.41-8.64-1.86-1.62-4.5-1.73-7.3-1.84a30.29,30.29,0,0,1-4.14-.35c-8.11-1.44-14.12-10.65-12.86-19.7,1.06-7.61,6.58-14.92,14.78-19.54,7.3-4.11,15.54-5.84,23.5-7.51,5.28-1.11,8.57-.8,10.33,1,2.33,2.35,1.42,6.44.38,11.18-.86,3.89-1.84,8.3-.89,11.86.84,3.16,2.89,5.75,5.07,8.48,2.68,3.36,5.44,6.85,5.95,11.61.69,6.44-3.09,12.33-6.46,16.73-2.72,3.56-6.12,7.43-10.68,9.2A13.25,13.25,0,0,1,479.44,777.58ZM485.7,708a24.36,24.36,0,0,0-4.85.6h0C473,710.26,465,712,457.92,715.93c-7.66,4.31-12.81,11.07-13.78,18.07s3.38,16,11.23,17.45a28.59,28.59,0,0,0,3.87.32c3,.12,6.15.25,8.53,2.34,2.91,2.54,3,6.38,3.1,10.09.07,2.82.14,5.74,1.49,7.92,2.2,3.54,7.35,4.17,11.06,2.73,4.09-1.58,7.13-5,9.81-8.54,3.14-4.11,6.68-9.57,6.06-15.31-.44-4.18-2.91-7.29-5.53-10.58-2.2-2.77-4.48-5.64-5.43-9.21-1.08-4-.05-8.69.86-12.8s1.72-7.77.16-9.34A5.05,5.05,0,0,0,485.7,708Z"/>
      </g>
    </g>
    <g id="b5fcca5d-7b67-44c0-91d4-ae247edf9e83" data-name="astronaut">
      <g>
        <path d="M264.59,295.37c14.34-18.15,69.55-20.24,69.55-20.24l-14.58,93.76Z" style="fill: #fff"/>
        <path d="M334.14,275.13l-14.58,93.76-55-73.52c14.34-18.15,69.55-20.24,69.55-20.24m0-2h-.07c-2.3.08-56.31,2.33-71.05,21a2,2,0,0,0,0,2.43l55,73.52a2,2,0,0,0,2.08.75,2,2,0,0,0,1.49-1.64l14.59-93.75a2,2,0,0,0-2-2.31Zm0,4h0Z"/>
      </g>
      <g>
        <path d="M460.08,323.8c14.58,11.84,30.38,53.59,23.61,80.68S460,423.66,460,423.66l-20.31-97.05Z" style="fill: #fff"/>
        <path d="M460.08,323.8c14.58,11.84,30.38,53.59,23.61,80.68-4.28,17.1-12.6,20.25-18.16,20.25a14.35,14.35,0,0,1-5.54-1.07l-20.31-97.05,20.4-2.81m0-2-.28,0-20.39,2.81a2,2,0,0,0-1.37.83,2,2,0,0,0-.32,1.56L458,424.07a2,2,0,0,0,1.12,1.4,16.16,16.16,0,0,0,6.38,1.26c5.47,0,15.36-2.82,20.1-21.77,3.15-12.6,1.75-29.79-3.83-47.15-5.1-15.83-12.94-29.45-20.46-35.56a2,2,0,0,0-1.26-.45Z"/>
      </g>
      <path d="M483.69,404.48c.25-1,.46-2,.65-3.08-4.33-3.39-6.45-8.83-8.37-14-4.76-12.83-9.52-25.68-13.32-38.82a32.64,32.64,0,0,1-1.72-9.85c.08-3.34,1.26-6.8,3.83-8.94.19-.16.4-.31.61-.46a35.28,35.28,0,0,0-5.29-5.53l-20.4,2.81L460,423.66S476.92,431.56,483.69,404.48Z" style="fill: #e21d67"/>
      <g>
        <path d="M394.18,668.68c-3.68,12.07-3.87,37.06.46,42.82s41,44.34,56.29,44.39,43.91-11.84,46.74-16.76.19-25-9.4-34.86S454.13,665,454.13,665Z"/>
        <path d="M454.13,665s24.55,29.4,34.14,39.28,12.23,30,9.4,34.86S466.29,755.89,451,755.89h-.09c-15.25,0-52-38.63-56.29-44.39s-4.14-30.75-.46-42.82L454.13,665m0-2H454l-60,3.69a2,2,0,0,0-1.79,1.42c-3.81,12.52-4.05,38.16.78,44.6,4.08,5.44,41.24,45.14,57.88,45.19h.1c10.08,0,23.43-4.66,28.7-6.67,2.84-1.08,17.15-6.69,19.68-11.09,3.53-6.13,0-27.27-9.7-37.26-9.43-9.71-33.79-38.87-34-39.17a2,2,0,0,0-1.54-.71Z"/>
      </g>
      <path d="M452.07,744.9c-15.5,0-52.84-39.28-57.24-45.14-1.83-2.44-2.86-8.27-3.18-15.13-.73,11.19.17,23.11,3,26.87,4.32,5.76,41,44.34,56.29,44.39s43.91-11.84,46.74-16.76c1-1.77,1.32-5.51.85-10C492.44,734.6,466.43,744.94,452.07,744.9Z" style="fill: #e21d67"/>
      <g>
        <path d="M489.87,630c-3.37,11.07-3.55,34,.42,39.29S528,710,541.94,710s40.29-10.86,42.89-15.37.18-22.93-8.62-32-31.33-36-31.33-36Z"/>
        <path d="M544.88,626.62s22.53,27,31.33,36,11.22,27.48,8.62,32S556,710,542,710h-.08c-14,0-47.68-35.45-51.65-40.73s-3.79-28.22-.42-39.29l55-3.39m0-2h-.12l-55,3.39a2,2,0,0,0-1.79,1.41c-3.19,10.48-4,34.73.73,41.08,3.76,5,37.92,41.48,53.25,41.53H542c14.13,0,41.3-10.74,44.54-16.38s0-25.17-8.92-34.38c-8.64-8.91-31-35.66-31.22-35.93a2,2,0,0,0-1.54-.72Z"/>
      </g>
      <path d="M543,700c-14.23,0-48.49-36.05-52.52-41.42-1.68-2.24-2.63-7.59-2.92-13.89-.67,10.27.15,21.21,2.74,24.66,4,5.28,37.66,40.69,51.65,40.73s40.29-10.86,42.89-15.37c.94-1.63,1.22-5.07.79-9.21C580,690.5,556.16,700,543,700Z" style="fill: #e21d67"/>
      <g>
        <path d="M307.52,305.7c-24.85-17.87-43-18.14-49.77-.94s-60.91,158.69-42.48,187.4S285.81,527,285.81,527l48-204.54Z"/>
        <path d="M275.43,292.07c8.55,0,19.45,4.54,32.09,13.63l26.27,16.76L285.81,527s-52.1-6.12-70.54-34.84S251,322,257.75,304.76c3.34-8.45,9.41-12.69,17.68-12.69m0-2c-9.18,0-15.94,4.83-19.54,13.95-.71,1.8-17.54,44.56-30.76,89.56-15.73,53.56-19.61,87.09-11.54,99.66,7.9,12.31,22.45,22.07,43.23,29A160,160,0,0,0,285.58,529h.23a2,2,0,0,0,1.95-1.54l48-204.54a2,2,0,0,0-.88-2.14L308.64,304c-12.9-9.27-24.07-14-33.21-14Z"/>
      </g>
      <g>
        <path d="M335.3,311.38c-68.84,16.93-59.5,43.86-65.1,104s4.62,110.8,33.5,127.31c31.6,18,42.75,19.78,63.19,30.46,0,0,8.85,105.71,31.24,116.9s54.57,0,70-5.59-3.38-118-3.38-118,5.6-12.6,0-25.19l9.79,2.8s3.71,81.79,14.9,102.78c0,0,32.19,15.39,57.37,0s6.1-118.17,6.1-118.17,3.12-46.33-25.19-56C497.8,462.59,463.94,457,463.94,457s13.54-67.71-19.18-112.85C422.2,313,335.3,311.38,335.3,311.38Z" style="fill: #fff"/>
        <path d="M335.3,311.38S422.2,313,444.76,344.1C477.48,389.24,463.94,457,463.94,457s33.86,5.64,63.74,15.83c28.31,9.65,25.19,56,25.19,56s19.09,102.78-6.1,118.17a49.39,49.39,0,0,1-26.07,6.84,81,81,0,0,1-31.3-6.84c-11.19-21-14.9-102.78-14.9-102.78l-9.79-2.8c5.6,12.59,0,25.19,0,25.19s18.78,112.35,3.38,118c-10.62,3.86-29.23,10.38-47.1,10.38-8,0-15.92-1.31-22.86-4.79-22.39-11.19-31.24-116.9-31.24-116.9-20.44-10.68-31.59-12.41-63.19-30.46-28.88-16.51-39.1-67.14-33.5-127.31s-3.74-87.1,65.1-104m0-2a1.86,1.86,0,0,0-.48.06c-29.08,7.15-45.25,16.15-54.05,30.1-8.37,13.26-9.4,29.65-10.84,52.35-.46,7.34-.94,14.93-1.72,23.33-2.87,30.82-1.53,58.72,3.87,80.69,5.88,24,16.19,40.29,30.63,48.54A351,351,0,0,0,344.33,565c6.71,2.86,13.07,5.56,20.67,9.48.48,5.31,2.75,28.92,7.15,53.34,6.76,37.58,15.2,59.14,25.08,64.08,6.64,3.32,14.63,5,23.76,5,18.89,0,38.41-7.09,47.79-10.5,4.75-1.73,10.48-10.16,5.39-63.15-2.54-26.29-6.72-52.31-7.39-56.45,1-2.43,4.2-12,1.15-22.42l4.65,1.33c.56,11.39,4.47,82.34,15.06,102.19a2,2,0,0,0,.9.87,82.42,82.42,0,0,0,32.16,7c10.25,0,19.37-2.4,27.12-7.13,11.12-6.8,15.65-29.24,13.44-66.69a496.19,496.19,0,0,0-6.38-53.32,100.1,100.1,0,0,0-2-24.66c-3.77-17.46-12.25-28.9-24.52-33.08-25.57-8.72-54.34-14.17-62.06-15.56a201.18,201.18,0,0,0,2.35-37.94c-.65-20.87-5-50.73-22.24-74.46-9.67-13.34-31.36-23-64.47-28.82a343.06,343.06,0,0,0-46.58-4.73Z"/>
      </g>
      <path d="M430.85,354.24a38,38,0,0,0,11.91-12.61c-25.24-28.72-107.46-30.25-107.46-30.25-24.6,6.05-39.21,13.37-48.09,23a31.59,31.59,0,0,0,4.84,6.12c11.33,11.14,28.21,13.72,43.42,18.33,12.21,3.71,24.08,9.07,36.78,10.25,11.92,1.11,23.87-1.53,35.35-4.91C415.72,361.81,423.85,359,430.85,354.24Z" style="fill: #e21d67"/>
      <path d="M473.52,657.41c-4.3-.17-7.51,3.67-10.79,6.47-7.57,6.48-18,8.26-27.81,9.79-9.27,1.45-18.86,2.88-27.91.42s-17.44-9.93-17.87-19.29c-.32-7.14,4-13.84,9.68-18.19s12.53-6.78,19.27-9.14c-12.08,2.41-24.21-5.69-30.76-16.12s-8.89-22.86-11.89-34.81c-2.3-9.15-7.79-23.95-10.23-30.39a3.38,3.38,0,0,0-4.27-2c-5.16,1.81-15.33,4.67-18.37.44a64.36,64.36,0,0,1-4.11-6.48,11.71,11.71,0,0,0-14.2-5.25,18.92,18.92,0,0,1-14.56-.7c-8.38-4.22-13.31-13-17.74-21.24-4.13-7.7-8.35-15.67-9.18-24.37s2.6-18.43,10.38-22.41c7.63-3.89,18.64-2.22,21.67-12a15.39,15.39,0,0,0-.26-9.44q-6.7-20-13.42-39.95c-2.61-7.77-5.3-15.68-10.2-22.24-4.2-5.62-10.36-10.17-17.19-11.25-1.54,12.76-1.87,27.91-3.56,46.1-5.6,60.17,4.62,110.8,33.5,127.31,31.6,18,42.75,19.78,63.19,30.46,0,0,8.85,105.71,31.24,116.9s54.57,0,70-5.59c4.52-1.65,6.1-12.5,6.06-27C473.94,657.46,473.74,657.42,473.52,657.41Z" style="fill: #e21d67"/>
      <path d="M517.48,644.4c-7.2-1.45-14.5-4.28-19.18-9.94-5.52-6.68-6.4-15.93-7-24.56-.47-6.29-.06-14.17,5.7-16.76,4.44-2,11.42-.52,12.9-5.16.86-2.7-1.29-5.53-3.84-6.77s-5.46-1.43-8.15-2.31c-10.74-3.53-14.94-16.5-15.7-27.78S479,526.26,480,515c3-33.22,19.52-39.55,35.5-44.44.83-.26,1.7-.54,2.55-.87A487.76,487.76,0,0,0,463.94,457s.32-1.6.74-4.45A109.48,109.48,0,0,0,443.37,455a94.81,94.81,0,0,0-58,40.5l-8.19.2c13.18-.25,26.47-.49,39.42,1.95s25.72,7.77,34.91,17.22c7.29,7.49,11.75,16.81,14.68,26.86l8.35,2.39s3.71,81.79,14.9,102.78c0,0,32.19,15.39,57.37,0,3.56-2.17,6.23-6.08,8.19-11.19C545.71,644.91,530.57,647,517.48,644.4Z" style="fill: #e21d67"/>
      <g>
        <circle cx="395.31" cy="273.76" r="82.56" style="fill: #fff"/>
        <path d="M395.27,191.2l2.5,0a82.56,82.56,0,0,1-2.41,165.09c-.84,0-1.67,0-2.5,0a82.56,82.56,0,0,1,2.41-165.08m0-2v0h0a84.56,84.56,0,0,0-2.46,169.08c.85,0,1.71,0,2.56,0a84.56,84.56,0,0,0,2.46-169.09l-2.55,0Z"/>
      </g>
      <path d="M381.39,192.37a82.56,82.56,0,0,0-28.78,152C337.29,333.7,318.25,296.75,322,263,327,218,368.17,199.13,381.39,192.37Z" style="fill: #e21d67"/>
      <path d="M465.63,543.15a1,1,0,0,1-.95-.7c-3.72-12.08-11-27.93-24.58-34.82a43.33,43.33,0,0,0-40.33.81,1,1,0,0,1-1-1.75,45.42,45.42,0,0,1,42.22-.85c14.2,7.21,21.75,23.57,25.58,36a1,1,0,0,1-.66,1.25A1,1,0,0,1,465.63,543.15Z"/>
      <path d="M366.55,574.91a1,1,0,0,1-1-1A53.4,53.4,0,0,0,363.78,563c-1.18-5-2.29-9.73-1.37-14.87a1,1,0,0,1,1.16-.81,1,1,0,0,1,.81,1.16c-.85,4.74.22,9.27,1.35,14.06a55.6,55.6,0,0,1,1.82,11.35,1,1,0,0,1-1,1Z"/>
      <path d="M416,586.06c-2,0-4.09-.09-6.13-.29a1,1,0,0,1-.9-1.09,1,1,0,0,1,1.09-.9A66.93,66.93,0,0,0,460.5,567a1,1,0,1,1,1.34,1.48A69.08,69.08,0,0,1,416,586.06Z"/>
      <path d="M412.18,629.67a96,96,0,0,1-25.09-3.3,1,1,0,1,1,.52-1.93,96.68,96.68,0,0,0,79.94-14.11A1,1,0,0,1,468.7,612,98.66,98.66,0,0,1,412.18,629.67Z"/>
      <path d="M425.74,677.15a67.72,67.72,0,0,1-12.92-1.23,1,1,0,0,1-.79-1.18,1,1,0,0,1,1.17-.79,67.51,67.51,0,0,0,55.92-14.54,1,1,0,1,1,1.29,1.53A69.61,69.61,0,0,1,425.74,677.15Z"/>
      <path d="M425.79,638.55h-.34a1,1,0,1,1,0-2h.34a64.72,64.72,0,0,0,37.31-11.94,1,1,0,0,1,1.39.23,1,1,0,0,1-.23,1.4A66.8,66.8,0,0,1,425.79,638.55Z"/>
      <path d="M455.8,676.78a1,1,0,0,1-.41-1.91l8.55-3.85a1,1,0,0,1,.82,1.82l-8.55,3.85A1,1,0,0,1,455.8,676.78Z"/>
      <path d="M489.45,497.1a1,1,0,0,1-.91-1.4,37.43,37.43,0,0,1,42.36-21.21,1,1,0,0,1,.76,1.19,1,1,0,0,1-1.2.76,35.45,35.45,0,0,0-40.1,20.07A1,1,0,0,1,489.45,497.1Z"/>
      <path d="M474.1,549.56a1,1,0,0,1-1-1l-.22-20.69a1,1,0,0,1,1-1h0a1,1,0,0,1,1,1l.22,20.7a1,1,0,0,1-1,1Z"/>
      <path d="M505.29,548.41a1,1,0,0,1-.09-2c7.9-.75,16.06-1.53,23.77-3.8,8.51-2.51,15.45-6.67,20.08-12a1,1,0,1,1,1.51,1.31c-4.88,5.66-12.15,10-21,12.65-7.9,2.32-16.16,3.11-24.15,3.87Z"/>
      <path d="M520.92,554.14a1,1,0,0,1-.1-2A58.73,58.73,0,0,0,550,540.7a1,1,0,0,1,1.21,1.6A60.8,60.8,0,0,1,521,554.14Z"/>
      <path d="M512.85,590.92a85.07,85.07,0,0,1-12.77-.95,1,1,0,0,1-.84-1.14,1,1,0,0,1,1.14-.84,87.13,87.13,0,0,0,57.09-11.31,1,1,0,0,1,1,1.72A89.43,89.43,0,0,1,512.85,590.92Z"/>
      <path d="M514.72,629.9a1,1,0,0,1,0-2,61.31,61.31,0,0,0,42.21-18,1,1,0,0,1,1.42,1.41,63.31,63.31,0,0,1-43.6,18.58Z"/>
      <path d="M335,559.6a1,1,0,0,1-.9-.57,48.7,48.7,0,0,1,4.45-48.33,1,1,0,1,1,1.63,1.17,47.26,47.26,0,0,0-4.27,46.31,1,1,0,0,1-.48,1.33A1.07,1.07,0,0,1,335,559.6Z"/>
      <path d="M400.45,539.79a1,1,0,0,1-.53-.15,1,1,0,0,1-.32-1.38,41.94,41.94,0,0,1,38.14-19.16,1,1,0,0,1-.17,2,39.86,39.86,0,0,0-36.28,18.22A1,1,0,0,1,400.45,539.79Z"/>
      <path d="M504.47,491.29a1,1,0,0,1-.6-.21,1,1,0,0,1-.19-1.4A20.19,20.19,0,0,1,521.54,482a1,1,0,0,1-.22,2,18.18,18.18,0,0,0-16.05,6.86A1,1,0,0,1,504.47,491.29Z"/>
      <g>
        <g>
          <path d="M444.19,508.3S577,117,784.79,108.37c0,0-168.9-.49-288.79,319.63l-36.57,97.79C454.91,515.63,444.19,508.3,444.19,508.3Z" style="fill: #fff"/>
          <path d="M784.78,108.37h0l-3.37.17c2.12-.17,3.28-.17,3.36-.17m-3.36.17C757.07,110.5,605.93,134.47,496,428l-36.57,97.79c-4.52-10.16-15.24-17.49-15.24-17.49S575.57,121.24,781.42,108.54m3.37-2.17h0c-.13,0-1.34,0-3.5.18-47.42,2.93-94.78,25.92-140.75,68.34-36.65,33.82-72.53,80-106.64,137.27-58,97.4-91.26,194.52-91.59,195.49a2,2,0,0,0,.76,2.3c.11.07,10.32,7.15,14.54,16.65a2,2,0,0,0,1.83,1.19h.06a2,2,0,0,0,1.81-1.3l36.57-97.79C544.09,305.3,602.69,215.06,672,160.51c54-42.52,97.46-49,109.52-50,1.11-.07,2.19-.12,3.31-.17a2,2,0,0,0-.08-4Zm0,4Z"/>
        </g>
        <path d="M696.54,607.54a1,1,0,0,1-.48-.12,1,1,0,0,1-.4-1.36L784,444.85V109.58c-5.75-1.47-45.79-10.21-99.21,15.74C631.61,151.15,554,217.58,485.93,387.37a1,1,0,1,1-1.86-.74c30.16-75.26,64.72-136.74,102.73-182.75C617.25,167,650,140,684.07,123.44c58.17-28.2,100.79-15.71,101.21-15.58a1,1,0,0,1,.71,1V445.1a1,1,0,0,1-.12.48L697.42,607A1,1,0,0,1,696.54,607.54Z"/>
        <path d="M772.79,751.65a1,1,0,0,1-.8-.4c-14.74-19.79-23.27-48.24-25.34-84.58-1.65-29,.78-63,7.21-101.22a841.2,841.2,0,0,1,30.19-120.68,1,1,0,0,1,.82-.66,1,1,0,0,1,1,.45L884,598a1,1,0,1,1-1.68,1.07L785.27,447.4a846.19,846.19,0,0,0-29.44,118.41c-6.41,38-8.83,71.93-7.18,100.76,2.05,35.93,10.44,64,24.94,83.48a1,1,0,0,1-.2,1.4A1,1,0,0,1,772.79,751.65Z"/>
        <path d="M814.33,545.41a1,1,0,0,1-1-.72L784,445.39a1,1,0,0,1,.68-1.25,1,1,0,0,1,1.24.68l29.34,99.31a1,1,0,0,1-.68,1.24A.9.9,0,0,1,814.33,545.41Z"/>
        <path d="M568.32,222.79a7.9,7.9,0,1,1-7.89,7.9,7.9,7.9,0,0,1,7.89-7.9m0-2a9.9,9.9,0,1,0,9.9,9.9,9.91,9.91,0,0,0-9.9-9.9Z"/>
        <path d="M650.7,139.29a7.9,7.9,0,1,1-7.9,7.9,7.89,7.89,0,0,1,7.9-7.9m0-2a9.9,9.9,0,1,0,9.9,9.9,9.91,9.91,0,0,0-9.9-9.9Z"/>
        <path d="M580.08,241a1,1,0,0,1-.65-.23L574,236.16a1,1,0,0,1,1.29-1.53l5.42,4.59a1,1,0,0,1,.12,1.41A1,1,0,0,1,580.08,241Z"/>
        <path d="M658.6,159.06a1,1,0,0,1-.87-.51L655,153.62a1,1,0,1,1,1.75-1l2.72,4.92a1,1,0,0,1-.39,1.36A1.07,1.07,0,0,1,658.6,159.06Z"/>
        <path d="M517.11,372.55a1,1,0,0,1-1-.87,5.12,5.12,0,0,0-8.53-3.06,1,1,0,1,1-1.36-1.46,7.11,7.11,0,0,1,11.87,4.25,1,1,0,0,1-.86,1.13Z"/>
        <path d="M535.86,329.79a.9.9,0,0,1-.28,0,1,1,0,0,1-.68-1.24,3.07,3.07,0,0,0-5.53-2.53,1,1,0,0,1-1.38.31,1,1,0,0,1-.31-1.38,5.07,5.07,0,0,1,9.14,4.17A1,1,0,0,1,535.86,329.79Z"/>
        <path d="M565.52,282.25a1,1,0,0,1-.93-.63,4.92,4.92,0,0,0-5.64-2.81,1,1,0,1,1-.53-1.93,6.9,6.9,0,0,1,8,4,1,1,0,0,1-.56,1.3A1,1,0,0,1,565.52,282.25Z"/>
        <path d="M594,239.56h-.14a1,1,0,0,1-.85-1.12,3,3,0,0,0-4.85-2.81,1,1,0,0,1-1.41-.17A1,1,0,0,1,587,234,5,5,0,0,1,595,238.7,1,1,0,0,1,594,239.56Z"/>
        <path d="M621,207a.88.88,0,0,1-.39-.08,1,1,0,0,1-.53-1.31,2.87,2.87,0,0,0-2.58-3.7,1,1,0,0,1-1.05-1,1,1,0,0,1,1-1,4.84,4.84,0,0,1,4.52,6.47A1,1,0,0,1,621,207Z"/>
        <path d="M647.43,181.38a1,1,0,0,1-.3,0,1,1,0,0,1-.65-1.25A3.41,3.41,0,0,0,641.8,176a1,1,0,1,1-.83-1.83,5.42,5.42,0,0,1,7.42,6.55A1,1,0,0,1,647.43,181.38Z"/>
        <path d="M688.94,146.92l-.26,0a1,1,0,0,1-.7-1.23,2,2,0,0,0-2.37-2.14,1,1,0,0,1-1.29-.57,1,1,0,0,1,.58-1.29,3.93,3.93,0,0,1,5,4.53A1,1,0,0,1,688.94,146.92Z"/>
      </g>
      <g>
        <path d="M501.51,439.27c16.69,7.92,2.49,36.3-17.82,40.82-14.49,3.22-28.08,2.27-25.32-11.84S482.1,430.06,501.51,439.27Z"/>
        <path d="M492.52,437.23a20.85,20.85,0,0,1,9,2c16.69,7.92,2.49,36.3-17.82,40.82a57.75,57.75,0,0,1-12.13,1.53c-8.93,0-15.14-3.4-13.19-13.37,2.33-11.95,17.71-31,34.15-31m0-2v0h0c-17.26,0-33.55,19.49-36.12,32.63-.91,4.67-.24,8.41,2,11.11,2.54,3.08,7,4.65,13.17,4.65A58.84,58.84,0,0,0,484.12,482,35,35,0,0,0,502.2,471c4.77-5.34,7.88-11.73,8.53-17.55.82-7.24-2.23-13.05-8.36-16a22.77,22.77,0,0,0-9.85-2.24Z"/>
      </g>
      <path d="M441.17,387.35a9,9,0,0,1,2.66.37c9,2.72,6.52,18,7.73,25.51,1,6,1.13,12.67-2.36,17.67-2.41,3.45-6.22,5.62-10,7.48a128.49,128.49,0,0,1-46.37,12.82c-1.58.13-3.19.22-4.8.22A22.35,22.35,0,0,1,376.93,449c-7.55-4.27-10.06-13.82-11.34-22.4-1.95-13.2,0-29.27,15.66-32.68a42.83,42.83,0,0,1,9.15-.88c7.3,0,14.87,1.26,22.38,1.26a46.42,46.42,0,0,0,9.61-.9c5.37-1.12,12.72-6,18.78-6m0-2c-4,0-8.24,1.81-12.32,3.56a40.45,40.45,0,0,1-6.87,2.52,45.09,45.09,0,0,1-9.2.85c-3.7,0-7.5-.32-11.18-.63s-7.49-.63-11.2-.63a45,45,0,0,0-9.58.92c-13.78,3-20.05,15.73-17.2,34.93,1.27,8.58,3.82,19,12.33,23.85,3.25,1.84,7.09,2.7,12.09,2.7,1.47,0,3-.07,5-.23a131.24,131.24,0,0,0,47.1-13c4-2,8.1-4.34,10.74-8.12,4.21-6,3.55-13.81,2.7-19.14a54.28,54.28,0,0,1-.43-6.46c-.26-8.1-.58-18.18-8.7-20.64a10.94,10.94,0,0,0-3.24-.46Z"/>
      <path d="M415.77,535.42a1,1,0,0,1-.54-1.85,48.38,48.38,0,0,1,20.21-7.13,1,1,0,0,1,.23,2,46.41,46.41,0,0,0-19.37,6.83A1,1,0,0,1,415.77,535.42Z"/>
      <g>
        <g>
          <path d="M301.75,322.75c-21.39.83-43.12,28.41-33.05,67.87s55.87,99.91,87.82,107.12,117.1-22,123.78-58.11c0,0-25.16,1.8-27.85-30.3,0,0-36.44,1.82-73.36,22.05,0,0-.8-25.67-18.59-49.4C339.78,354.34,335.71,321.44,301.75,322.75Z" style="fill: #fff"/>
          <path d="M303.69,322.71c32.18,0,36.49,32.17,56.81,59.27,17.79,23.73,18.59,49.4,18.59,49.4,36.92-20.23,73.36-22.05,73.36-22.05,2.42,28.86,23,30.32,27.13,30.32.46,0,.72,0,.72,0-6,32.39-75.07,59.21-112.32,59.21a52.5,52.5,0,0,1-11.46-1.1c-31.95-7.21-77.76-67.66-87.82-107.12s11.66-67,33.05-67.87c.66,0,1.3,0,1.94,0m0-2c-.66,0-1.34,0-2,0-9.92.39-19.67,6.05-26.75,15.53-10.49,14.05-13.46,34-8.16,54.83,5,19.49,18.46,44.31,36.08,66.41,18.63,23.37,38,38.74,53.24,42.17a54.37,54.37,0,0,0,11.9,1.15c19.15,0,46.13-6.93,68.74-17.65,15.38-7.29,41.74-22.6,45.55-43.2a2,2,0,0,0-.48-1.69,2,2,0,0,0-1.49-.67h-.14a4.44,4.44,0,0,1-.58,0c-3.8,0-22.87-1.38-25.13-28.49a2,2,0,0,0-2-1.83h-.1c-.36,0-35.53,2-71.5,20.84a98.67,98.67,0,0,0-18.75-47.39c-5.85-7.81-10.33-16-14.66-23.89-10.62-19.41-19.79-36.18-43.75-36.18Z"/>
        </g>
        <path d="M480.3,439.63a26.09,26.09,0,0,1-18.16-6.9C459.05,435,475.87,443.65,473,446c-17.41,14.24-44.33,27-66,33-11.88,3.31-38.06,7.1-50,4-17.29-4.48-32.64-25.21-44-39-10.9-13.23-18.79-30.51-25.61-46.24s-9.55-33.81-4.28-50.12a49.05,49.05,0,0,1,18.32-24.86c-21.29,1.08-42.75,28.57-32.73,67.84,10.06,39.46,55.87,99.91,87.82,107.12S473.62,475.75,480.3,439.63Z" style="fill: #e21d67"/>
        <g>
          <path d="M496.2,381c-13.88,1.77-13.17,7.32-18.72,8s-26,6.72-27.09,31.25,22.57,32.81,34.53,27,28.08-12,31.19-20.91,1.36-11.46,1.68-20-5.32-16-5.32-16-4.52,12.42-11,18c-9.75,8.45-12.19-6.41-12.19-6.41Z"/>
          <path d="M496.2,381h0m0,0-6.87,21s1.48,9,6.74,9c1.49,0,3.29-.73,5.45-2.6,6.43-5.57,11-18,11-18s5.65,7.53,5.32,16,1.42,11.11-1.68,20-19.23,15.15-31.19,20.91a19.47,19.47,0,0,1-8.38,1.75c-12.12,0-27-9.22-26.15-28.8,1.07-24.53,21.54-30.54,27.09-31.25s4.84-6.26,18.72-8m0-2h-.06a.82.82,0,0,0-.22,0c-9.06,1.16-12.42,3.93-14.87,6-1.4,1.16-2.25,1.86-3.82,2.06A35.84,35.84,0,0,0,461,394.1c-7.78,6.1-12.15,15.11-12.62,26-.39,8.84,2.27,16.5,7.69,22.15A28.82,28.82,0,0,0,476.54,451a21.36,21.36,0,0,0,9.24-1.95c1.67-.8,3.38-1.6,5.2-2.45,11.28-5.24,24.07-11.18,27-19.6A31.07,31.07,0,0,0,519.88,413c-.09-1.82-.19-3.89-.09-6.47.35-9.11-5.48-17-5.73-17.31a2,2,0,0,0-1.59-.8l-.3,0a2,2,0,0,0-1.58,1.3c0,.12-4.42,12-10.38,17.16-1.59,1.38-3,2.11-4.14,2.11-2.68,0-4.22-4.68-4.68-6.87l6.68-20.43a1.87,1.87,0,0,0,.14-.71,2,2,0,0,0-2-2Zm0,4h0Z"/>
        </g>
        <path d="M288.27,431.87h0a1,1,0,0,1-1-1,55.77,55.77,0,0,1,63.37-54.38,1,1,0,0,1-.27,2,53.74,53.74,0,0,0-61.1,52.43A1,1,0,0,1,288.27,431.87Z"/>
        <path d="M319.93,472.82h0a1,1,0,0,1-1-1,57.37,57.37,0,0,1,51.47-55.46,1,1,0,1,1,.21,2,55.36,55.36,0,0,0-49.68,53.53A1,1,0,0,1,319.93,472.82Z"/>
        <path d="M364.05,459.36a1,1,0,0,1-1-1,32.86,32.86,0,0,1,14.64-27,1,1,0,1,1,1.09,1.67,30.86,30.86,0,0,0-13.73,25.3A1,1,0,0,1,364.05,459.36Z"/>
        <path d="M358.73,440.28a1,1,0,0,1-.8-.4,1,1,0,0,1,.2-1.4A38.17,38.17,0,0,1,378.06,431a1,1,0,1,1,.14,2,36.07,36.07,0,0,0-18.87,7.12A1,1,0,0,1,358.73,440.28Z"/>
        <path d="M409.27,480a1,1,0,0,1-.71-.29,56.56,56.56,0,0,1-16.28-41.87c.31-6.88,2.25-11.88,5.77-14.86a1,1,0,1,1,1.29,1.52c-3.07,2.61-4.78,7.13-5.06,13.43A54.51,54.51,0,0,0,410,478.33a1,1,0,0,1,0,1.41A1,1,0,0,1,409.27,480Z"/>
        <path d="M409.83,469.25a1,1,0,0,1-.63-.23,33.21,33.21,0,0,1-11.26-30.86,1,1,0,0,1,2,.36,31.14,31.14,0,0,0,10.56,29,1,1,0,0,1,.14,1.41A1,1,0,0,1,409.83,469.25Z"/>
        <path d="M448.76,465a1,1,0,0,1-.75-.33c-6.13-7-12.47-14.17-16.06-23-4-9.93-3.32-20.51,1.83-27.61a1,1,0,0,1,1.62,1.18c-5.68,7.82-4.55,18.39-1.6,25.68,3.46,8.55,9.69,15.62,15.71,22.45a1,1,0,0,1-.09,1.41A1,1,0,0,1,448.76,465Z"/>
        <path d="M278.55,399a1,1,0,0,1-.83-.45,37.8,37.8,0,0,1-6.23-24,1,1,0,1,1,2,.16,35.82,35.82,0,0,0,5.9,22.78,1,1,0,0,1-.28,1.39A1,1,0,0,1,278.55,399Z"/>
        <path d="M282.25,397.33a1,1,0,0,1-.72-.31,18.23,18.23,0,0,1-4.95-13.2,1,1,0,0,1,1.05-.95,1,1,0,0,1,.95,1,16.12,16.12,0,0,0,4.4,11.72,1,1,0,0,1,0,1.42A1.05,1.05,0,0,1,282.25,397.33Z"/>
      </g>
      <g>
        <path d="M477.84,276.21a82.24,82.24,0,0,0-12.37-46C388.15,217,349.6,286.33,349.6,286.33c7.14,35.77,19.81,57.26,34.91,69.28a82.59,82.59,0,0,0,93.33-79.4Z"/>
        <path d="M446.09,228.55a114.35,114.35,0,0,1,19.38,1.69,82.55,82.55,0,0,1-70.11,126.08c-.83,0-1.67,0-2.5,0a81.75,81.75,0,0,1-8.35-.67c-15.1-12-27.77-33.51-34.91-69.28,0,0,32.11-57.78,96.49-57.78m0-2c-33.89,0-58.8,16-73.72,29.4-16.14,14.5-24.18,28.8-24.52,29.41a2,2,0,0,0-.21,1.36c6.63,33.2,18.61,56.91,35.62,70.46a2,2,0,0,0,1,.42,84.65,84.65,0,0,0,8.55.68c.85,0,1.71,0,2.56,0a84.56,84.56,0,0,0,71.81-129.13,2,2,0,0,0-1.36-.92,116.9,116.9,0,0,0-19.72-1.72Z"/>
      </g>
      <path d="M387,303c0,20.15,17,37.61,41.8,46.24a82.6,82.6,0,0,0,46-97.72c-3.54-.33-7.15-.52-10.83-.52C421.47,251,387,274.28,387,303Z" style="fill: #e21d67"/>
      <circle cx="450.4" cy="275.27" r="9.03" style="fill: #eeede1"/>
      <circle cx="461.68" cy="296.71" r="5.64" style="fill: #eeede1"/>
      <g>
        <path d="M358.1,275.71S373.85,219.1,456.18,218c0,0,8.84,2.34,9.7,11.4C465.88,229.39,401.31,218.14,358.1,275.71Z" style="fill: #fff"/>
        <path d="M456.18,218s8.84,2.34,9.7,11.4a85.94,85.94,0,0,0-13.38-.89c-21.22,0-63.33,5.81-94.4,47.21,0,0,15.75-56.61,98.08-57.72m0-2h0c-19,.25-36.13,3.5-50.8,9.64a93.84,93.84,0,0,0-30.5,20.22c-14.43,14.5-18.51,28.72-18.67,29.32a2,2,0,0,0,1,2.33,2,2,0,0,0,.88.21,2,2,0,0,0,1.6-.8c30.31-40.38,71.15-46.41,92.8-46.41a85.12,85.12,0,0,1,13,.86,2,2,0,0,0,.34,0,2,2,0,0,0,2-2.19c-1-10.33-10.76-13-11.18-13.15a2.22,2.22,0,0,0-.51-.06Z"/>
      </g>
      <g>
        <path d="M354.36,297.19S358.71,336,387,355.9c0,0-7.21,5.39-12.18-2.15C374.8,353.75,351.19,327.58,354.36,297.19Z" style="fill: #fff"/>
        <path d="M354.36,297.19S358.71,336,387,355.9a10.42,10.42,0,0,1-5.56,1.86c-2.15,0-4.57-.91-6.62-4,0,0-23.61-26.17-20.44-56.56m0-2h0a2,2,0,0,0-2,1.79c-3.15,30.21,18.92,55.81,20.85,58,2.66,4,5.92,4.79,8.2,4.79a12.46,12.46,0,0,0,6.75-2.26,2,2,0,0,0,0-3.24C361,335.15,356.39,297.35,356.34,297a2,2,0,0,0-2-1.77Z"/>
      </g>
      <g>
        <ellipse cx="354.57" cy="296.82" rx="23.94" ry="18.42" transform="translate(47.34 642.4) rotate(-88.3)"/>
        <path d="M354.85,272.88h.43c10.17.31,18.09,11.27,17.7,24.48-.39,13-8.72,23.4-18.69,23.4h-.43c-10.17-.3-18.09-11.26-17.7-24.48.39-13,8.71-23.39,18.69-23.39m0-2h0c-11.18,0-20.27,11.13-20.69,25.33s8.38,26.2,19.64,26.54h.49c11.18,0,20.27-11.13,20.69-25.34a29.82,29.82,0,0,0-5.27-18.31c-3.71-5.14-8.82-8.06-14.37-8.23Z"/>
      </g>
      <path d="M292,451.09c-7.86,0-15.07-2.95-21.91-8.91a1,1,0,1,1,1.31-1.51c8,6.95,16.44,9.55,25.91,8a1,1,0,0,1,.33,2A34.31,34.31,0,0,1,292,451.09Z"/>
      <path d="M297.44,459a66.59,66.59,0,0,1-27.66-6,1,1,0,0,1-.49-1.32,1,1,0,0,1,1.33-.5,64.51,64.51,0,0,0,32.12,5.62,1,1,0,0,1,.16,2C301.08,458.9,299.26,459,297.44,459Z"/>
      <path d="M436.9,402.31a4,4,0,0,1-3-1.26,3.65,3.65,0,0,1-.75-3.27,3.27,3.27,0,0,1,1.22-1.92,1,1,0,0,1,.17-1.11,3.82,3.82,0,0,1,3.09-1.12,4.15,4.15,0,0,1,3.08,1.71,4.59,4.59,0,0,1-1.13,6.09A4.5,4.5,0,0,1,436.9,402.31Zm-.61-6.43a1.3,1.3,0,0,1,.08.17,1,1,0,0,1-.58,1.29,1.26,1.26,0,0,0-.7.91,1.66,1.66,0,0,0,.3,1.46,2.34,2.34,0,0,0,3,.12,2.61,2.61,0,0,0,.67-3.37,2.14,2.14,0,0,0-1.57-.84A2,2,0,0,0,436.29,395.88Z"/>
      <path d="M424.16,404.82a4.24,4.24,0,0,1-2.41-.8,4,4,0,0,1-1.78-3.33,1,1,0,0,1,.28-.66,1,1,0,0,1,0-.72,4,4,0,1,1,5.22,5.26A3.68,3.68,0,0,1,424.16,404.82Zm-2.25-4.44a.9.9,0,0,1,.06.37,2,2,0,1,0,3.48-1.37,2.2,2.2,0,0,0-3.33.67A.93.93,0,0,1,421.91,400.38Z"/>
      <path d="M381.73,420.91c-.89,0-1.78,0-2.69-.07a1,1,0,1,1,.1-2c6.8.33,13.19-.73,19.95-1.86,4.68-.77,9.52-1.58,14.83-2a1,1,0,0,1,.16,2c-5.23.4-10,1.2-14.66,2A107.34,107.34,0,0,1,381.73,420.91Z"/>
      <path d="M438,218.72a1,1,0,0,1-.82-.42c-21.92-30.69-73.36-19.7-73.88-19.59a1,1,0,0,1-.44-2c.54-.12,53.26-11.39,75.95,20.37a1,1,0,0,1-.23,1.4A1,1,0,0,1,438,218.72Z"/>
      <path d="M426,220.74a1,1,0,0,1-.72-.3c-31.24-32.33-72-17.25-72.38-17.1a1,1,0,1,1-.71-1.86c.42-.16,42.35-15.73,74.52,17.57a1,1,0,0,1,0,1.41A1,1,0,0,1,426,220.74Z"/>
      <path d="M359.41,323.86l-1-1.74a27.36,27.36,0,0,0-.49-47.87l1-1.76a29.37,29.37,0,0,1,.52,51.37Z" style="fill: #fff"/>
      <path d="M362.93,313.13l-1.72-1c3.46-5.83,4.68-12.42,3.36-18.09-1.47-6.32-6.3-11.47-12-12.8l.45-2c6.45,1.5,11.88,7.25,13.52,14.3C368,299.73,366.65,306.86,362.93,313.13Z" style="fill: #fff"/>
      <path d="M400,253.45l-1.4-1.43a66.42,66.42,0,0,1,33.59-17.56l.38,2A64.32,64.32,0,0,0,400,253.45Z" style="fill: #fff"/>
      <path d="M427.81,245.14,427,243.3A133.44,133.44,0,0,1,444,237.45l.53,1.93A132.63,132.63,0,0,0,427.81,245.14Z" style="fill: #fff"/>
      <path d="M478.87,451.28l-.25-2a46.9,46.9,0,0,0,26-12.35L506,438.4A48.86,48.86,0,0,1,478.87,451.28Z" style="fill: #fff"/>
      <path d="M455.16,727.25,454,725.62a62.9,62.9,0,0,1,29.18-11.35l.24,2A60.78,60.78,0,0,0,455.16,727.25Z" style="fill: #fff"/>
      <path d="M546.94,685.88l-1.12-1.66a72,72,0,0,1,32.3-11.86l.22,2A69.87,69.87,0,0,0,546.94,685.88Z" style="fill: #fff"/>
      <path d="M328.35,263.59a1,1,0,0,1-.33-.06,1,1,0,0,1-.62-1.27l6.13-17.9a1,1,0,1,1,1.89.64l-6.13,17.91A1,1,0,0,1,328.35,263.59Z"/>
      <path d="M329.16,277.39a.84.84,0,0,1-.27,0,1,1,0,0,1-.69-1.23l5.6-19.92a1,1,0,1,1,1.92.54l-5.6,19.92A1,1,0,0,1,329.16,277.39Z"/>
      <path d="M223.77,474.81h-.1a1,1,0,0,1-.9-1.09l2.83-28.88a1,1,0,1,1,2,.19l-2.83,28.89A1,1,0,0,1,223.77,474.81Z" style="fill: #fff"/>
      <path d="M228.64,481.7h0a1,1,0,0,1-1-1l.54-22.7a1,1,0,0,1,1-1,1,1,0,0,1,1,1l-.54,22.71A1,1,0,0,1,228.64,481.7Z" style="fill: #fff"/>
    </g>
    <g id="f9d3e8df-7e87-4035-a1ba-b7879b0060e9" data-name="pattern">
      <path d="M222.09,132.27a1,1,0,0,1-1-1l-.2-15.33-3.54,12.75a1,1,0,0,1-1.23.7,1,1,0,0,1-.69-1.23l5.41-19.51a1,1,0,0,1,2,.25l.28,22.34a1,1,0,0,1-1,1Z"/>
      <path d="M229.12,138a1,1,0,0,1-.94-.66,1,1,0,0,1,.61-1.28,58.69,58.69,0,0,1,7.63-2.14l-10.18-.6a1,1,0,0,1-.94-1.06,1,1,0,0,1,1.06-.94l23,1.37c1.72,0,3.43.13,5.14.3a1,1,0,0,1,.89,1.08,1,1,0,0,1-1.06.92l-5-.3a56.85,56.85,0,0,0-19.81,3.26A1.33,1.33,0,0,1,229.12,138Z"/>
      <path d="M715.57,243.69h-.29a1,1,0,0,1-.93-.7,9.83,9.83,0,0,1,.22-6.49,4.43,4.43,0,0,1,.53-4.19,5.1,5.1,0,0,1,5.29-2.41,5.56,5.56,0,0,1,3.7,3.17,6.9,6.9,0,0,1,0,5.89C722.49,242.25,718.71,243.69,715.57,243.69Zm.74-6.1a7.79,7.79,0,0,0-.24,4.09c2.4-.14,5.09-1.25,6.26-3.61a4.9,4.9,0,0,0,0-4.15,3.6,3.6,0,0,0-2.36-2.08,3.2,3.2,0,0,0-3.16,1.56,3.51,3.51,0,0,0-.48,1.21.93.93,0,0,1,.35.13,1,1,0,0,1,.34,1.37l-.18.32a1,1,0,0,1-.35,1.07Z"/>
      <path d="M216.31,179.89a1,1,0,0,1-1-.73,86.76,86.76,0,0,1-2.87-32.34,1,1,0,0,1,2,.2,83.73,83.73,0,0,0,0,17.12,49.24,49.24,0,0,1,3.75-14.77,1,1,0,0,1,1.83.79,47.75,47.75,0,0,0-2.79,28.52,1,1,0,0,1-.73,1.18A1.07,1.07,0,0,1,216.31,179.89Z"/>
      <path d="M205.06,139.15a1.06,1.06,0,0,1-.45-.11l-11.11-5.58a1,1,0,0,1-.52-1.12,1,1,0,0,1,1-.77h0l15.26.13a1,1,0,0,1,1,1,1,1,0,0,1-1,1h0l-11-.09,7.27,3.64a1,1,0,0,1-.45,1.9Z"/>
      <path d="M639.09,424.27a1,1,0,0,1-1-1l-.2-15.33-3.53,12.75a1,1,0,0,1-1.24.7,1,1,0,0,1-.69-1.23l5.41-19.51a1,1,0,0,1,1.09-.73,1,1,0,0,1,.87,1l.29,22.34a1,1,0,0,1-1,1Z"/>
      <path d="M646.12,430a1,1,0,0,1-.94-.66,1,1,0,0,1,.61-1.28,58.69,58.69,0,0,1,7.63-2.14l-10.18-.6a1,1,0,0,1,.12-2l23,1.37c1.72,0,3.43.13,5.14.3a1,1,0,0,1,.89,1.08,1,1,0,0,1-1.06.92l-5.05-.3a56.35,56.35,0,0,0-19.81,3.26A1.33,1.33,0,0,1,646.12,430Z"/>
      <path d="M633.31,471.89a1,1,0,0,1-1-.73,86.74,86.74,0,0,1-2.87-32.34,1,1,0,0,1,1.1-.89,1,1,0,0,1,.89,1.09,84.45,84.45,0,0,0,0,17.12,49.24,49.24,0,0,1,3.75-14.77,1,1,0,0,1,1.83.79,47.75,47.75,0,0,0-2.79,28.52,1,1,0,0,1-.73,1.18A1.07,1.07,0,0,1,633.31,471.89Z"/>
      <path d="M622.06,431.15a1.06,1.06,0,0,1-.45-.11l-11.11-5.58a1,1,0,0,1-.52-1.12,1,1,0,0,1,1-.77h0l15.25.13a1,1,0,0,1,1,1,1,1,0,0,1-1,1h0l-11-.09,7.27,3.64a1,1,0,0,1-.45,1.9Z"/>
      <path d="M142.07,459.16c-.39,0-.79,0-1.19,0a1,1,0,0,1-.94-1.06,1,1,0,0,1,1.07-.93c2,.13,4.71-.05,6.51-1.64a4.5,4.5,0,0,0,1.44-3.16,2.88,2.88,0,0,0-.82-2.16,2.36,2.36,0,0,0-2.68-.1,1.53,1.53,0,0,0-.92,1.56,1,1,0,1,1-2,.4,3.44,3.44,0,0,1,1.91-3.71,4.31,4.31,0,0,1,5,.39,4.86,4.86,0,0,1,1.45,3.66,6.53,6.53,0,0,1-2.12,4.62A10,10,0,0,1,142.07,459.16Z"/>
      <path d="M625.82,750.74a6.55,6.55,0,0,1-3.18-.86,6,6,0,0,1-3.22-5h0a5.94,5.94,0,1,1,9.16,5.12A5.45,5.45,0,0,1,625.82,750.74Zm-4.4-5.88a4.34,4.34,0,1,0,2.1-3.33A4,4,0,0,0,621.42,744.86Z"/>
    </g>
  </g>
</svg>
