<svg xmlns="http://www.w3.org/2000/svg" width="1000" height="1000" viewBox="0 0 1000 1000">
  <g id="f472c174-ebd4-433e-bcc3-d66e2d7cf428" data-name="Password is changed">
    <g id="b9c77ef3-aada-41b2-9bb4-de27dfca851a" data-name="background">
      <path d="M370.34,674.62c-32.51-2.74-62.73-17.73-90.36-35.06-38.85-24.37-75.66-55.51-94.08-97.5C165,494.47,171,437.59,195.31,391.68s65.49-81.43,111.49-105.6c34.08-17.91,71.49-30.37,101.65-54.31,24.8-19.69,43.58-46.32,69.22-64.92,35.37-25.64,80.72-33.66,124.41-33.8,32.56-.11,68.25,5.28,90,29.51C712.24,185,715.16,217.8,714.75,248s-2.88,61.73,9.56,89.22c12.85,28.39,39.71,47.87,67.35,62.24s57.35,25.08,83,42.84S922,487,923.32,518.14c1.12,26.05-12.11,50.64-28,71.32A267.22,267.22,0,0,1,581.5,673.75c-30.2-12.45-59-30.68-91.49-33.76-40.76-3.87-79.41,16.66-115.2,36.55" style="fill: #c4bbbb"/>
    </g>
    <g id="abbb5e9f-c98b-4d37-93a3-b6133769aca8" data-name="Planets">
      <g>
        <circle cx="207" cy="457" r="37" style="fill: #fff"/>
        <path d="M207,420a37,37,0,1,1-37,37,37,37,0,0,1,37-37m0-2a39,39,0,1,0,39,39,39.05,39.05,0,0,0-39-39Z"/>
      </g>
      <g>
        <circle cx="193" cy="438" r="6" style="fill: #fff"/>
        <path d="M193,432a6,6,0,1,1-6,6,6,6,0,0,1,6-6m0-2a8,8,0,1,0,8,8,8,8,0,0,0-8-8Z"/>
      </g>
      <g>
        <circle cx="207" cy="485" r="6" style="fill: #fff"/>
        <path d="M207,479a6,6,0,1,1-6,6,6,6,0,0,1,6-6m0-2a8,8,0,1,0,8,8,8,8,0,0,0-8-8Z"/>
      </g>
      <g>
        <circle cx="226" cy="456" r="3" style="fill: #fff"/>
        <path d="M226,453a3,3,0,1,1-3,3,3,3,0,0,1,3-3m0-2a5,5,0,1,0,5,5,5,5,0,0,0-5-5Z"/>
      </g>
      <g>
        <circle cx="855" cy="494" r="31" style="fill: #fff"/>
        <path d="M855,463a31,31,0,1,1-31,31,31,31,0,0,1,31-31m0-2a33,33,0,1,0,33,33,33,33,0,0,0-33-33Z"/>
      </g>
      <g>
        <path d="M840.62,487.33c3.49,0,5.74,3.89,9,5.21,1.23.5,2.7.68,3.54,1.7,1.38,1.68-.08,4.38-2.1,5.19a8.5,8.5,0,0,1-3.17.5c-1.1,0-2.21-.1-3.29-.11h-.06c-2.16,0-4.61.62-5.57,2.55-1.37,2.75,1.45,6,4.45,6.62a11.53,11.53,0,0,0,2.48.25c2.09,0,4.21-.4,6.32-.4h.38a3.49,3.49,0,0,1,2.54.84c1.19,1.29.14,3.45-1.3,4.44-3.81,2.64-10.07,1.75-12.23,5.85a4.94,4.94,0,0,0-.53,1.74A30.88,30.88,0,0,1,824.27,490a6.27,6.27,0,0,0,5.22,3.56,3.64,3.64,0,0,0,.57,0c4.09-.51,6.28-6,10.41-6.19h.15m0-2h-.22c-2.87.1-4.88,2-6.65,3.62-1.34,1.24-2.6,2.42-3.94,2.59l-.32,0a4.4,4.4,0,0,1-3.47-2.51,2,2,0,0,0-1.75-1.05,1.5,1.5,0,0,0-.37,0,2,2,0,0,0-1.62,1.71,32.93,32.93,0,0,0,17.92,33.74,1.9,1.9,0,0,0,.9.22,2,2,0,0,0,2-1.77,2.64,2.64,0,0,1,.31-1c.86-1.64,3-2.18,5.51-2.8a18.14,18.14,0,0,0,6.09-2.34,6.3,6.3,0,0,0,2.65-4.23,4,4,0,0,0-1-3.21,5.51,5.51,0,0,0-4-1.49h-.43a33.29,33.29,0,0,0-3.36.21c-1,.09-2,.19-3,.19a9.86,9.86,0,0,1-2.06-.2,4.69,4.69,0,0,1-3-2.3,1.54,1.54,0,0,1-.07-1.48c.52-1.06,2.3-1.44,3.78-1.44.53,0,1,0,1.55.05s1.19.06,1.8.06a10.68,10.68,0,0,0,3.9-.64,6.46,6.46,0,0,0,3.75-4.23,4.5,4.5,0,0,0-.83-4.08,6.74,6.74,0,0,0-3.45-2c-.32-.1-.63-.2-.89-.31a12.67,12.67,0,0,1-3.14-2.15c-1.8-1.5-3.85-3.2-6.63-3.2Z"/>
        <path d="M855,463a31,31,0,0,1,22.5,52.31,19.29,19.29,0,0,0-4.69-5.21c-2.06-1.6-4.48-3.21-5-5.76-.68-3.12,1.76-6,4.19-8.07s5.25-4.24,5.71-7.39a6.08,6.08,0,0,0-3.7-6.36,5.38,5.38,0,0,0-2-.38,6.11,6.11,0,0,0-5,2.56c-1,1.43-1.31,3.27-2.53,4.49a4.24,4.24,0,0,1-3,1.19,4.61,4.61,0,0,1-3-1.06,5.31,5.31,0,0,1-1.24-6.05c.77-1.71,2.32-2.91,3.62-4.26s2.45-3.15,2.08-5c-.49-2.36-3.17-3.52-5.54-3.89s-5-.41-6.85-1.94a5.43,5.43,0,0,1-1.82-4.55A31.56,31.56,0,0,1,855,463m0-2a33.33,33.33,0,0,0-6.75.69,2,2,0,0,0-1.59,1.87,7.35,7.35,0,0,0,2.55,6.18c1.95,1.62,4.38,1.93,6.52,2.2.43.05.87.11,1.29.18,1.63.25,3.62,1,3.89,2.31.17.83-.4,2-1.56,3.19-.29.31-.59.6-.89.89a12.91,12.91,0,0,0-3.11,3.94,7.29,7.29,0,0,0,1.75,8.39,6.63,6.63,0,0,0,4.29,1.54,6.24,6.24,0,0,0,4.45-1.77,10.06,10.06,0,0,0,1.95-3.19,11.89,11.89,0,0,1,.82-1.6,4.09,4.09,0,0,1,3.33-1.68,3.51,3.51,0,0,1,1.31.24,4.08,4.08,0,0,1,2.44,4.2c-.32,2.19-2.45,4-4.51,5.73l-.52.43c-3.93,3.35-5.57,6.72-4.84,10,.65,3,3,4.83,5.13,6.44l.63.48a17.21,17.21,0,0,1,4.2,4.65,2,2,0,0,0,1.49,1h.23a2,2,0,0,0,1.45-.62A33,33,0,0,0,855,461Z"/>
      </g>
      <g>
        <circle cx="838" cy="343" r="28" style="fill: #fff"/>
        <path d="M838,315a28,28,0,1,1-28,28,28,28,0,0,1,28-28m0-2a30,30,0,1,0,30,30,30,30,0,0,0-30-30Z"/>
      </g>
      <g>
        <circle cx="323.5" cy="260.5" r="46" style="fill: #fff"/>
        <path d="M323.5,214.5a46,46,0,1,1-46,46,46,46,0,0,1,46-46m0-2a48,48,0,1,0,48,48,48.05,48.05,0,0,0-48-48Z"/>
      </g>
      <g>
        <circle cx="479" cy="115" r="7" style="fill: #fff"/>
        <path d="M479,108a7,7,0,1,1-7,7,7,7,0,0,1,7-7m0-2a9,9,0,1,0,9,9,9,9,0,0,0-9-9Z"/>
      </g>
      <g>
        <circle cx="793.5" cy="596.5" r="14" style="fill: #fff"/>
        <path d="M793.5,582.5a14,14,0,1,1-14,14,14,14,0,0,1,14-14m0-2a16,16,0,1,0,16,16,16,16,0,0,0-16-16Z"/>
      </g>
      <path d="M542.32,95a16.27,16.27,0,0,1,16.25,16.25v20.5A16.27,16.27,0,0,1,542.32,148h-8.07A16.27,16.27,0,0,1,518,131.75v-20.5A16.27,16.27,0,0,1,534.25,95h8.07m0-9h-8.07A25.26,25.26,0,0,0,509,111.25v20.5A25.26,25.26,0,0,0,534.25,157h8.07a25.25,25.25,0,0,0,25.25-25.25v-20.5A25.25,25.25,0,0,0,542.32,86Z"/>
      <g>
        <rect x="491" y="127" width="95" height="80" rx="19.38" style="fill: #fff"/>
        <path d="M566.62,127A19.38,19.38,0,0,1,586,146.38v41.24A19.38,19.38,0,0,1,566.62,207H510.38A19.38,19.38,0,0,1,491,187.62V146.38A19.38,19.38,0,0,1,510.38,127h56.24m0-2H510.38A21.4,21.4,0,0,0,489,146.38v41.24A21.4,21.4,0,0,0,510.38,209h56.24A21.4,21.4,0,0,0,588,187.62V146.38A21.4,21.4,0,0,0,566.62,125Z"/>
      </g>
      <g>
        <path d="M543,170V156h-8V170a9,9,0,1,0,8,0Z"/>
        <path d="M543,156V170a9,9,0,1,1-8,0V156h8m0-2h-8a2,2,0,0,0-2,2v12.79a11,11,0,1,0,12,0V156a2,2,0,0,0-2-2Z"/>
      </g>
      <path d="M512,166H491a1,1,0,0,1,0-2h20V154l-20-.41a1,1,0,0,1-1-1,1,1,0,0,1,1-1l21,.43a1,1,0,0,1,1,1v12A1,1,0,0,1,512,166Z"/>
      <path d="M555,140a5,5,0,1,1,5-5A5,5,0,0,1,555,140Zm0-8a3,3,0,1,0,3,3A3,3,0,0,0,555,132Z"/>
      <path d="M570,140a5,5,0,1,1,5-5A5,5,0,0,1,570,140Zm0-8a3,3,0,1,0,3,3A3,3,0,0,0,570,132Z"/>
      <path d="M523,147H491a1,1,0,0,1,0-2h32a1,1,0,0,1,0,2Z"/>
      <g>
        <g>
          <path d="M355.41,279.81c-3.75,2-6.88,4.92-10.39,7.29-10,6.76-22.8,8.64-34.65,6.45-10.28-1.9-19.84-6.67-28.24-12.93A46,46,0,0,0,317.07,306c6.21-1.44,12.36-3.25,18.45-5.06L353,295.79a46.18,46.18,0,0,0,12.94-17.52C362.53,277.23,358.62,278.12,355.41,279.81Z" style="fill: #fff"/>
          <path d="M362.82,277.83a10.94,10.94,0,0,1,3.12.44A46.18,46.18,0,0,1,353,295.79L335.52,301c-6.09,1.81-12.24,3.62-18.45,5.06a46,46,0,0,1-34.94-25.42c8.4,6.26,18,11,28.24,12.93a52.6,52.6,0,0,0,9.46.87A44.84,44.84,0,0,0,345,287.1c3.51-2.37,6.64-5.32,10.39-7.29a16.28,16.28,0,0,1,7.41-2m0-2a18.27,18.27,0,0,0-8.34,2.21,47.91,47.91,0,0,0-6.87,4.67c-1.21.93-2.46,1.89-3.71,2.74a42.63,42.63,0,0,1-24.07,7,50.76,50.76,0,0,1-9.1-.84c-9.31-1.72-18.53-5.95-27.41-12.57a2,2,0,0,0-1.19-.39,2,2,0,0,0-1.8,2.87A47.88,47.88,0,0,0,316.79,308a1.37,1.37,0,0,0,.28,0,1.73,1.73,0,0,0,.45-.05c6.09-1.41,12-3.14,18.57-5.09l8.74-2.6,8.74-2.59a2,2,0,0,0,.71-.39,48.32,48.32,0,0,0,13.5-18.27,2,2,0,0,0-1.26-2.69,12.83,12.83,0,0,0-3.7-.53Z"/>
        </g>
        <g>
          <path d="M329.39,255.5c3.74-1.57,7.86-5.46,5.86-9-1.47-2.59-5.07-2.67-8-2.78a38.89,38.89,0,0,1-31.39-18.57c-.19-.32-.36-.65-.54-1a46.13,46.13,0,0,0-15.15,21,44.21,44.21,0,0,0,49.26,10.34Z" style="fill: #fff"/>
          <path d="M295.28,224.18c.18.32.35.65.54,1a38.89,38.89,0,0,0,31.39,18.57c3,.11,6.57.19,8,2.78,2,3.54-2.12,7.43-5.86,9a44.21,44.21,0,0,1-49.26-10.34,46.13,46.13,0,0,1,15.15-21m0-2a2,2,0,0,0-1.23.43,47.92,47.92,0,0,0-15.8,21.88,2,2,0,0,0,.44,2,46.53,46.53,0,0,0,51.47,10.8c2.65-1.11,6.14-3.56,7.26-6.84a5.94,5.94,0,0,0-.43-5c-2-3.52-6.37-3.68-9.56-3.79h-.15a37,37,0,0,1-29.75-17.6l-.3-.54-.2-.37a2,2,0,0,0-1.35-1,2.58,2.58,0,0,0-.4,0Z"/>
        </g>
      </g>
      <path d="M409.68,292.54a173.71,173.71,0,0,1-18-1.17c-18.46-2-42.64-6.25-68.06-12-38.6-8.76-95.3-25-93.29-33.86,1.35-6,27.63-3.18,49.43.18a1,1,0,0,1-.3,2c-33.72-5.2-46.69-3.88-47.18-1.72,0,.15-.55,3.83,25.42,13,17.44,6.16,41,12.72,66.36,18.47s49.44,10,67.84,12c27.37,2.94,28.5-.61,28.54-.76.55-2.44-12.58-10.06-51-21.08a1,1,0,1,1,.56-1.92c20.24,5.8,54,16.56,52.42,23.44C422.17,290.06,421.61,292.54,409.68,292.54Z"/>
    </g>
    <g id="f77ea57f-5167-4854-9693-1a953a359980" data-name="pattern">
      <path d="M734.23,214.33a1,1,0,0,1-1-1l-.31-24.65-5.8,20.9a1,1,0,1,1-1.93-.53l7.67-27.66a1,1,0,0,1,2,.26l.4,31.66a1,1,0,0,1-1,1Z"/>
      <path d="M744.2,222.39a1,1,0,0,1-.34-1.94,83.18,83.18,0,0,1,14.1-3.64l-17.82-1.06a1,1,0,1,1,.12-2l32.59,1.93c2.43,0,4.84.18,7.25.44a1,1,0,0,1-.16,2l-7.16-.43a81,81,0,0,0-28.25,4.65A1,1,0,0,1,744.2,222.39Z"/>
      <path d="M726,281.81a1,1,0,0,1-1-.73A122.47,122.47,0,0,1,721,235.41a1,1,0,0,1,1.09-.9,1,1,0,0,1,.9,1.1,120.41,120.41,0,0,0,.58,28.82,69.88,69.88,0,0,1,5.57-25.29,1,1,0,1,1,1.83.79,68.16,68.16,0,0,0-4,40.67,1,1,0,0,1-.73,1.18A1,1,0,0,1,726,281.81Z"/>
      <path d="M710.1,224.07a.91.91,0,0,1-.45-.11l-15.75-7.9a1,1,0,0,1-.52-1.12,1,1,0,0,1,1-.77h0l21.62.18a1,1,0,0,1,1,1,1,1,0,0,1-1,1h0l-17.33-.14,11.91,6a1,1,0,0,1-.45,1.89Z"/>
      <path d="M719.07,420a5.65,5.65,0,0,1-3-.89,1,1,0,0,1-.31-1.38,1,1,0,0,1,1.38-.31c2.06,1.3,4.52.2,6.06-1.46s2.42-4.22,1-6.15-4.17-1.77-6.19-.74-3.73,3.11-3,5.44a1,1,0,0,1-1.91.58c-1-3.43,1.28-6.39,4-7.8s6.52-1.55,8.69,1.31,1,6.43-1.07,8.71A7.85,7.85,0,0,1,719.07,420Z"/>
      <path d="M282.22,580a1,1,0,0,1-1-1L281,565l-3.22,11.61a1,1,0,1,1-1.92-.54L281,557.73a1,1,0,0,1,2,.26l.27,21a1,1,0,0,1-1,1Z"/>
      <path d="M288.84,585.37a1,1,0,0,1-.95-.67,1,1,0,0,1,.61-1.27,54.82,54.82,0,0,1,6.76-1.93l-9.14-.54a1,1,0,1,1,.12-2l21.63,1.29c1.62,0,3.23.12,4.84.29a1,1,0,0,1,.89,1.07,1,1,0,0,1-1.06.92l-4.75-.28a53.43,53.43,0,0,0-18.62,3.06A1,1,0,0,1,288.84,585.37Z"/>
      <path d="M276.79,624.81a1,1,0,0,1-1-.73,81.69,81.69,0,0,1-2.71-30.44,1,1,0,0,1,1.1-.9,1,1,0,0,1,.89,1.1,78.7,78.7,0,0,0,0,15.5A46.5,46.5,0,0,1,278.55,596a1,1,0,1,1,1.84.79,44.82,44.82,0,0,0-2.62,26.79,1,1,0,0,1-.74,1.18Z"/>
      <path d="M266.2,586.48a1,1,0,0,1-.45-.1l-10.45-5.25a1,1,0,0,1-.53-1.13,1,1,0,0,1,1-.76h0l14.36.11a1,1,0,0,1,0,2h0l-10-.08,6.61,3.32a1,1,0,0,1,.44,1.34A1,1,0,0,1,266.2,586.48Z"/>
      <path d="M321.07,374a5.65,5.65,0,0,1-3-.89,1,1,0,0,1-.31-1.38,1,1,0,0,1,1.38-.31c2.06,1.3,4.52.2,6.06-1.46s2.42-4.22.95-6.15-4.17-1.77-6.19-.74-3.73,3.11-3,5.44a1,1,0,0,1-1.91.58c-1-3.43,1.28-6.39,4-7.8s6.52-1.55,8.69,1.31,1,6.43-1.07,8.71A7.85,7.85,0,0,1,321.07,374Z"/>
      <path d="M297.07,138a5.65,5.65,0,0,1-3-.89,1,1,0,0,1-.31-1.38,1,1,0,0,1,1.38-.31c2.06,1.3,4.52.2,6.06-1.46s2.42-4.22.95-6.15-4.17-1.77-6.19-.74-3.73,3.11-3,5.44a1,1,0,0,1-1.91.58c-1-3.43,1.28-6.39,4-7.8s6.52-1.55,8.69,1.31,1,6.43-1.07,8.71A7.85,7.85,0,0,1,297.07,138Z"/>
    </g>
    <g id="a9c01e3b-f151-4370-b055-461dc0c9b322" data-name="astronaut">
      <g>
        <path d="M407.52,514c-1.29-19.56-2.15-40.8,8.94-57,7.8-11.38,20.64-18.54,34-22.17s27.26-4.09,41.06-4.52l89.19-2.82c21.68-.68,44.35-1.16,63.85,8.32s34.33,32.38,27.21,52.86" style="fill: #fff"/>
        <path d="M410.52,514c-1.37-20.92-2.59-45.27,13.46-61.32,16.86-16.87,42.26-18.52,64.71-19.25q40.44-1.33,80.89-2.56c12.26-.38,24.57-1,36.84-.47,11.56.52,23.37,2.2,34.05,6.87,17,7.44,31.88,24.91,29.88,44.17a32.65,32.65,0,0,1-1.52,6.47,3,3,0,1,0,5.78,1.59c7-20.39-5.93-41.87-22.77-52.93-10-6.59-22-9.69-33.82-11.2-12.23-1.56-24.6-1.24-36.89-.86l-83.33,2.63c-24.47.77-51.53.66-72,16.12a52.17,52.17,0,0,0-18.95,27.57c-3.22,11.21-3.33,23.11-2.8,34.67.13,2.84.31,5.67.5,8.5a3.06,3.06,0,0,0,3,3,3,3,0,0,0,3-3Z"/>
      </g>
      <g>
        <path d="M403.56,579c3.82-18.56,1.52-37.76,1.94-56.71s4.26-39.14,17.61-52.59c14.49-14.57,36.6-17.86,57.11-19.2,55.42-3.61,111,1.31,166.33,6.23,8,.71,16.67,1.71,22.43,7.3,5.93,5.76,7.08,14.71,7.9,22.93l7.28,73.41c.74,7.42,1.47,15-.06,22.28s-5.69,14.43-12.41,17.67c-4.35,2.1-9.31,2.39-14.13,2.65l-201,10.87c-12.63.68-25.87,1.25-37.3-4.18s-20.06-19-15.55-30.8"/>
        <path d="M406.45,579.82c5.18-25.56-1-51.83,4-77.37,2.06-10.52,6-21,13.26-29s17-12.79,27.3-15.6c10.87-3,22.14-3.91,33.35-4.55,14-.81,28-1.08,42-1,28.25.24,56.45,2.07,84.59,4.37q10.57.87,21.12,1.8c6.54.57,13.13,1,19.64,1.82,4.91.65,10.24,1.79,14.16,5,4.07,3.36,5.84,8.41,6.85,13.43,1.17,5.9,1.49,12,2.08,18l2.1,21.14,4.17,42c1.11,11.24,2.7,24.92-5.68,34-3.95,4.28-9.23,5.58-14.87,6-7,.51-13.95.77-20.92,1.15l-85.08,4.6-84.81,4.58c-6.7.37-13.39.81-20.09,1a85.4,85.4,0,0,1-18.43-.89c-5.54-1-11.09-2.85-15.59-6.34A27.26,27.26,0,0,1,407,592.83a17.87,17.87,0,0,1-.37-13.16,3,3,0,0,0-2.1-3.69,3.07,3.07,0,0,0-3.69,2.1c-3.89,10.54,1.36,22.15,9.42,29.17,9.71,8.45,23,10.16,35.41,10,6.82-.08,13.63-.57,20.44-.94l21.83-1.18,43.66-2.36,87.33-4.72L641,606.89c7.08-.39,14.22-.53,21.27-1.23,6.45-.63,12.5-2.51,17.08-7.3A30.78,30.78,0,0,0,687,583.47c1.45-6.91,1-14,.37-21-.69-7.2-1.42-14.4-2.14-21.59l-4.3-43.38c-.65-6.51-1-13.11-2.23-19.54-1-5.63-3-11.23-7-15.47S661.92,456,656.23,455c-6.38-1.19-12.94-1.5-19.4-2.07-29-2.56-58-5-87.05-6.05-14.46-.53-28.94-.72-43.41-.42-13.23.27-26.58.69-39.71,2.35-11.5,1.46-23,4-33.28,9.6a53.61,53.61,0,0,0-22.93,24.52c-11.05,23.69-7.05,50-7.71,75.23a116.82,116.82,0,0,1-2.07,20.1,3.07,3.07,0,0,0,2.09,3.69,3,3,0,0,0,3.69-2.09Z"/>
      </g>
      <g>
        <path d="M482,474c-35-3-76,8-92,52s-16,66-16,79-12,50-18,54-66,30-67,57,21.55,41.67,44,30c25-13,81-49,95-49s23-66,23-66,7,63-7,74-86,15-112,51,13,76,42,80,62,25,83,29,30,13,40,17,22-1,31,7,38-10,38-56c0,0,57,32,86,17s72-10,84-23,35.5-73.5-24.5-87.5-67-17-67-17-6-27-4-54,6-42,6-42,11,39,9,56,13,30,32,37,72,48,76,42,40-26,33-42-20-34-43-47-35-36-31-55,2-46-6-63,11-79-101-81S482,474,482,474Z" style="fill: #fff"/>
        <path d="M540.05,472.72c18.84,0,43.45.21,75.45.78,112,2,93,64,101,81s10,44,6,63,8,42,31,55,36,31,43,47-29,36-33,42a1.63,1.63,0,0,1-1.46.6c-9.57,0-56.83-36.07-74.54-42.6-19-7-34-20-32-37s-9-56-9-56-4,15-6,42,4,54,4,54,7,3,67,17S748,814,736,827s-55,8-84,23c-5.51,2.85-12,4-19,4-29.62,0-67-21-67-21,0,39-20.81,57.84-32.64,57.84A7.89,7.89,0,0,1,528,889c-9-8-21-3-31-7s-19-13-40-17-54-25-83-29-68-44-42-80,98-40,112-51,7-74,7-74-9,66-23,66-70,36-95,49a33.88,33.88,0,0,1-15.62,4c-16.17,0-29.14-13.43-28.38-34,1-27,61-53,67-57s18-41,18-54,0-35,16-79c14.4-39.59,49-52.46,81.32-52.46,3.6,0,7.17.16,10.68.46,0,0,11-1.28,58-1.28m0-2c-43.8,0-56.33,1.09-58.07,1.27-3.56-.3-7.15-.45-10.66-.45-18.12,0-34.84,4-48.35,11.64-16.3,9.18-28,23.36-34.85,42.14C372,569.65,372,591.78,372,605c0,13.64-12.28,49.11-17.11,52.34-.84.56-3.18,1.76-6.15,3.29C330.53,670,287.89,692,287,715.93c-.4,10.9,2.92,20.58,9.35,27.25a28.92,28.92,0,0,0,21,8.87,35.62,35.62,0,0,0,16.54-4.28c1.77-.92,3.7-1.95,5.75-3.08a61.39,61.39,0,0,0-9.29,10.14c-12.49,17.29-9.61,33.77-5,44.55,4.09,9.58,11.42,18.8,20.63,26,8.87,6.9,18.71,11.39,27.72,12.63,16.09,2.22,33.85,9.94,49.52,16.76,12.34,5.37,24,10.44,33.38,12.22,14,2.67,22.33,7.49,29.7,11.75a79.89,79.89,0,0,0,9.93,5.15c4.42,1.76,9.09,1.9,13.61,2,6.19.18,12,.35,16.8,4.59a9.85,9.85,0,0,0,6.69,2.35c7.3,0,15.88-5.81,22.4-15.16,5.3-7.62,11.57-20.86,12.19-41.36,9.47,5,39.75,19.68,65.08,19.68,7.78,0,14.47-1.42,19.89-4.22,14.06-7.28,31.72-9.78,47.3-12,16.48-2.33,30.71-4.35,37.25-11.43,8.44-9.15,20.06-36.78,13.16-59.27a41.18,41.18,0,0,0-7-13.52c9,5.46,15.15,8.53,18.44,8.53a3.49,3.49,0,0,0,3.12-1.49c.9-1.34,4.48-4.12,8.28-7.06,12.2-9.45,30.63-23.73,24.89-36.85-6.14-14-18.73-33.74-43.85-47.94-21.65-12.24-34-34-30-52.85,4.31-20.5,1.73-47.52-6.15-64.26-1.37-2.92-1.91-7.65-2.53-13.13-1.41-12.38-3.34-29.34-16.67-43.37-15.71-16.54-43.05-24.93-83.57-25.65-28.83-.51-54.23-.78-75.49-.78ZM646.23,721c-1.06-5.26-5.47-29-3.74-52.34a307.74,307.74,0,0,1,4.2-33.51c3.06,12.26,8.21,35.36,6.82,47.13-1.89,16.11,10.56,30.73,33.3,39.11,6.93,2.55,18.72,9.88,30.92,17.73q-2.78-.86-5.78-1.56c-48.83-11.39-62.4-15.46-65.72-16.56Zm-273.59,4.78C395.29,712.7,419.92,699,428,699c4.1,0,7.81-3.76,11.32-11.48,2.54-5.59,5-13.35,7.37-23,1.43-5.89,2.64-11.82,3.61-17,1.11,20.85.68,49.49-7.54,55.95-4.34,3.41-15.7,6.36-28.84,9.77-12.6,3.27-27.31,7.09-41.28,12.57Z"/>
      </g>
      <g>
        <path d="M647,750c9-4,31-16,69.28-9.23-1.53-.45-3.12-.88-4.78-1.27-60-14-67-17-67-17s-1.38-6.21-2.59-15.64c-19-1.26-37.69,7.65-55.32,15.67-19.22,8.73-41,16.74-60.94,9.75-19.11-6.71-32-25.9-51.32-31.91-8.55-2.65-17.48-2.45-26.36-.92a14.48,14.48,0,0,1-4,5.55c-10,7.85-49.5,12.14-80.77,27C384,725,397,729.74,416,739c14.29,7,27.14,30.94,43,32,8.51.57,16.14,10.58,26,15,7.51,3.37,17.25,1.44,24.12,1.69,16.25.61,38.93-11.57,54.88-14.69C612.73,763.46,621.27,761.44,647,750Z" style="fill: #e21d67"/>
        <path d="M357.76,731.82h.43l1.61-.93Z" style="fill: #e21d67"/>
      </g>
      <path d="M796.81,727.57a26.19,26.19,0,0,0,.58-4.28,10.69,10.69,0,0,0-.89-3.79,98.19,98.19,0,0,0-4.51-9c-5-4-12.64-4.78-19.26-3.85-11.18,1.56-18.49,7.64-26.73,15.35-4.88,4.57-9.58,11-17,11-3.54,0-9.91-4-10.69-7.42C716.69,718.34,720,718,723,709c1-3.2,8.34-10.41,5-10-6.61.82-19.19,10.52-21.93,15.78-12.37-6.58-25-13.37-34.31-23.87s-14.62-25.65-9.8-38.81c1.58-4.31,4.21-8.42,4.23-13s-4.44-9.55-8.65-7.74c-7.81-17.43-3.67-41.53,8.41-57.19a4.26,4.26,0,0,0-2.65-6.78l-.1,0c-.22-11-.38-22.28,2.68-32.89s9.89-20.69,20.06-25a25.19,25.19,0,0,1,19.86.35c-8.13-15.29-25.31-29.48-63.68-34.48.15,2.18.36,4.34.6,6.42a800.22,800.22,0,0,1,2.83,148.84c.58-2.71,1-4.12,1-4.12s11,39,9,56,13,30,32,37,72,48,76,42C766.85,756.48,792.6,741.65,796.81,727.57Z" style="fill: #e21d67"/>
      <path d="M448,575.24c7.93-6.81,8.47-18.62,9.33-29s4-22.57,13.81-26.24c7.32-2.75,15.34.47,22.79,2.83,29.88,9.46,62.37,5,92.75-2.68,7.4-1.88,15.08-4,22.56-2.41,9.78,2,17.47,10,21.7,19s5.55,19.12,6.82,29a153.41,153.41,0,0,0,7-63.78c-.72-6.91-2.09-14.19-6.71-19.38-5.65-6.35-15-8.14-23.45-7.1s-16.36,4.47-24.47,7a121.3,121.3,0,0,1-74.66-.87c-15.47-5.25-32.17-13.7-47.18-7.27-11.65,5-18.24,18.07-18.89,30.73s3.6,25,8.39,36.76" style="fill: #e21d67"/>
      <g>
        <path d="M556.24,837.65c-6,10.35-12.53,21.23-23.12,26.8s-26.38,3-30.71-8.17c-1.13-2.91-1.52-6.34-3.85-8.42-3.33-3-8.72-1.45-12.23,1.3s-6.21,6.57-10.18,8.61c-7.87,4-17.72-.58-23.48-7.28s-9-15.23-14.12-22.42S425,814.74,416.31,816.55c-3.74.78-7,2.94-10.39,4.71-19.08,10-44.21,6.89-60.3-7.43-14.9-13.27-21.12-35.34-15.83-54.51-21.41,35.1,16.1,72.8,44.21,76.68,29,4,62,25,83,29s30,13,40,17,22-1,31,7c7.5,6.66,28.85-4.73,35.78-35.29Z" style="fill: #e21d67"/>
        <path d="M736.31,751c6.11,17.1.72,37.33-11.65,50.74-12.84,13.91-32.08,20.88-51,21.26s-37.56-5.32-54.57-13.61c-12.52-6.1-25.05-13.81-39-13.89s-27.68,7.6-41.3,4.58c-6.58-1.46-12.35-5.31-18.53-8S501.9,783.74,496,787c8.83,10.61,26.3,21.32,38.61,27.56,11.21,5.68,22.7,11.61,31.35,20.62,0-.73,0-1.44,0-2.18,0,0,57,32,86,17s72-10,84-23C745.84,816.34,763.41,773.73,736.31,751Z" style="fill: #e21d67"/>
      </g>
      <g>
        <path d="M345.46,742.57a67.37,67.37,0,0,0,8.09-5.4A89.58,89.58,0,0,0,345.46,742.57Z" style="fill: #e21d67"/>
        <path d="M461.75,473.93c-20.35,1.66-40.74,8.9-55.66,25.09a27.55,27.55,0,0,1,16.29,9.15c5.91,6.8,8.58,16,8.82,25,.22,8.22-1.53,16.63-6,23.54-1.44,2.25-3.17,4.37-3.93,6.92-1.65,5.57,1.71,11.24,4.5,16.33a103.74,103.74,0,0,1,7.81,80.57,30.73,30.73,0,0,0-8.29,30.64c-15.33-3.32-30.18,6.71-42,17.07s-24.07,22.25-39.69,23.69A58.93,58.93,0,0,0,309,695.6a29,29,0,0,0-7.56-1.77c-6,5.89-10.51,12.17-11.95,18.55a46.09,46.09,0,0,0,5.55,8.48c5.38,6.68,10.86,13.46,17.84,18.45,5.76,4.13,12.77,6.94,19.78,6.86L333,746c25-13,81-49,95-49,9.66,0,18.42-36.52,22-56-1.29-53.47-12.79-103.8,7.5-153.06C459.32,483.54,461.31,478.6,461.75,473.93Z" style="fill: #e21d67"/>
      </g>
      <g>
        <path d="M449.37,474.62c-22,20.75-5.78,85.27-3.61,116.21,0,0,10.39-16.4,10.18-48.41S466.36,474,466.36,474,457.1,467.32,449.37,474.62Z" style="fill: #fff"/>
        <path d="M457.68,471.2a16.59,16.59,0,0,1,8.68,2.77s-10.64,36.43-10.42,68.45-10.18,48.41-10.18,48.41c-2.17-30.94-18.38-95.46,3.61-116.21a11.76,11.76,0,0,1,8.31-3.42m0-2a13.77,13.77,0,0,0-9.69,4c-17.76,16.77-11.92,58.89-7.23,92.73,1.29,9.34,2.52,18.16,3,25.08a2,2,0,0,0,1.51,1.8,1.66,1.66,0,0,0,.49.07,2,2,0,0,0,1.69-.94c.44-.69,10.7-17.27,10.49-49.5-.21-31.36,10.23-67.51,10.34-67.87a2,2,0,0,0-.76-2.18,18.54,18.54,0,0,0-9.84-3.15Z"/>
      </g>
      <path d="M445.29,573.1c-.31.89-.8,1.71-1.18,2.59.74,5.58,1.34,10.71,1.65,15.14,0,0,10.39-16.4,10.18-48.41S466.36,474,466.36,474s-9.26-6.65-17,.65a24.75,24.75,0,0,0-3.52,4.15,8.06,8.06,0,0,1,3.55.37c3.59,1.26,6.08,4.74,7,8.43a24.27,24.27,0,0,1-.49,11.29c-.89,3.69-2.16,7.3-2.86,11C450.21,525.1,455,545,445.29,573.1Z"/>
      <g>
        <path d="M645.5,472.5C662.61,487.9,655,547,647,601c0,0-6.5-12.5-7.5-45.5s-4.16-74.83-11.58-81.92C627.92,473.58,635.5,463.5,645.5,472.5Z" style="fill: #fff"/>
        <path d="M637.09,468.76c2.47,0,5.32,1,8.41,3.74C662.61,487.9,655,547,647,601c0,0-6.5-12.5-7.5-45.5s-4.16-74.83-11.58-81.92c0,0,3.62-4.82,9.17-4.82m0-2h0c-6.47,0-10.6,5.39-10.77,5.62a2,2,0,0,0,.22,2.65c5.41,5.17,9.61,36,11,80.53,1,33.08,7.45,45.84,7.73,46.36A2,2,0,0,0,647,603l.33,0a2,2,0,0,0,1.65-1.68c8.84-59.68,15.33-114.55-2.14-130.28-3.14-2.82-6.42-4.25-9.75-4.25Z"/>
      </g>
      <path d="M647,601c1.3-8.76,2.59-17.66,3.76-26.48a21.72,21.72,0,0,1-2.94-1.95c-5.72-4.69-6.47-13-6.77-20.41l-2.76-67.25c-.09-2.17-.14-4.49,1.05-6.3,1.78-2.68,5.73-3.12,8.68-1.85a10.39,10.39,0,0,1,1.4.74,20,20,0,0,0-3.92-5c-10-9-17.58,1.08-17.58,1.08,7.42,7.09,10.58,48.92,11.58,81.92S647,601,647,601Z"/>
      <path d="M289,712c2-9,14-12,28-1s24,35.39,9,39.2S289,712,289,712Z"/>
      <g>
        <path d="M479.06,479.22c-8-7.15-14.91-4.76-12.61,4.76s21.79,29.78,75.7,31,80.51-19,85-39.89c0,0,4.48-6.56-7-6.56S479.06,479.22,479.06,479.22Z" style="fill: #fff"/>
        <path d="M620.15,468.5c11.47,0,7,6.56,7,6.56-4.36,20.27-29.6,39.94-80.49,39.94-1.48,0-3,0-4.5,0-53.91-1.19-73.41-21.44-75.7-31-1.39-5.77.58-8.92,4.14-8.92,2.32,0,5.31,1.34,8.47,4.16,0,0,129.62-10.72,141.09-10.72m0-2c-11.07,0-128.3,9.66-140.41,10.66-3.17-2.65-6.4-4.1-9.15-4.1a6.22,6.22,0,0,0-5,2.31c-1.14,1.45-2.24,4.19-1.07,9.08,1.26,5.23,7,13.21,19.5,19.9,14.34,7.72,34.44,12.08,58.11,12.6,1.52,0,3,0,4.54,0,23.74,0,44-4.37,58.68-12.63,12.75-7.19,21.15-17.31,23.69-28.55.54-.94,1.67-3.39.42-5.76s-4.3-3.56-9.29-3.56Z"/>
      </g>
      <g>
        <path d="M242.19,755.38c-3.53-8.24-1.23-20.94,12.32-28.33s29.57-19.72,44.35-9.86,32,28.34,25.87,46.82S313.64,782.48,310,797.27s-11.09,37-20.95,32,3.7-20.94,3.7-20.94a16.81,16.81,0,0,1,0-8.63s-27.1,32-34.5,25.87,9.86-22.17,9.86-22.17-32,8.62-32-1.23,19.71-12.32,19.71-12.32-7.39-1.24-11.09-11.09-11.09-22.18,0-19.71,9.86,8.62,9.86,8.62,3.69-8.62,8.62-8.62l-1.23-12.32h-2.46S245.88,764,242.19,755.38Z" style="fill: #fff"/>
        <path d="M286.91,713.52a21.08,21.08,0,0,1,11.95,3.67c14.78,9.86,32,28.34,25.87,46.82S313.64,782.48,310,797.27C306.61,810.62,300.26,830,291.8,830a6.2,6.2,0,0,1-2.8-.7c-9.85-4.93,3.7-20.94,3.7-20.94a16.81,16.81,0,0,1,0-8.63s-22.56,26.66-32.13,26.66a3.59,3.59,0,0,1-2.37-.79c-7.39-6.16,9.86-22.17,9.86-22.17s-13,3.49-22.41,3.49c-5.39,0-9.62-1.14-9.62-4.72,0-9.86,19.71-12.32,19.71-12.32s-7.39-1.24-11.09-11.09c-3.37-9-9.81-20-2.51-20a11.47,11.47,0,0,1,2.51.32c11.09,2.46,9.86,8.62,9.86,8.62s3.69-8.62,8.62-8.62l-1.23-12.32h-2.46s-8.68,11-14,11a3.39,3.39,0,0,1-3.21-2.42c-3.53-8.24-1.23-20.94,12.32-28.33,9.95-5.43,21.24-13.53,32.4-13.53m0-2c-9.57,0-19.14,5.57-27.58,10.48-2,1.17-3.91,2.27-5.78,3.29-14.07,7.67-17.29,21.34-13.2,30.88.11.26.23.5.35.72a4.59,4.59,0,0,0-3.07,2c-2.14,3.23.23,8.83,3,15.32.75,1.78,1.53,3.61,2.17,5.33a20.85,20.85,0,0,0,6.83,9.59c-6.37,1.67-15.58,5.43-15.58,13.12,0,3.06,2,6.72,11.62,6.72a87,87,0,0,0,16.32-2c-3.55,4.12-7.74,10-7.6,14.9a7,7,0,0,0,2.55,5.34,5.56,5.56,0,0,0,3.65,1.25c7.94,0,22.47-14.87,29.64-22.79a17.59,17.59,0,0,0,.31,2.27c-2.17,2.73-8.24,11.12-6.92,17.56a8,8,0,0,0,4.51,5.66,8.27,8.27,0,0,0,3.69.91c7.65,0,14.41-11.52,20.09-34.25a48.08,48.08,0,0,1,6.35-14.88,83.27,83.27,0,0,0,8.39-18.23c2.94-8.84,1.11-18.66-5.31-28.38-6.68-10.11-16.24-17.33-21.35-20.73a23.18,23.18,0,0,0-13.06-4Zm-37.31,47c4.24-2.27,8.53-7,10.52-9.45l.84,8.37c-2.47.87-4.48,3.09-5.91,5.17a12.46,12.46,0,0,0-5.45-4.09Z"/>
      </g>
      <path d="M281,753.27c-4.35,0-9.25-1.9-14.64-5.68l-5.74,1.15a1,1,0,0,1-.39-2l6.16-1.24a1,1,0,0,1,.78.17c7.24,5.17,13.4,6.74,18.33,4.67,8.65-3.64,10.87-17.42,10.9-17.56a1,1,0,0,1,2,.31c-.09.61-2.41,15-12.09,19.09A13.45,13.45,0,0,1,281,753.27Z"/>
      <g>
        <path d="M277.92,766.47S266.59,790.18,253,790c0,0,11.36,2.51,6.44,15.36" style="fill: #fff"/>
        <path d="M259.44,806.36a.92.92,0,0,1-.36-.07,1,1,0,0,1-.58-1.29c1.49-3.88,1.56-7.11.22-9.61a9.79,9.79,0,0,0-5.94-4.41,1,1,0,0,1,.22-2h.16c12.73,0,23.74-22.73,23.85-23a1,1,0,0,1,1.81.86c-.43.9-9.83,20.29-22.12,23.62a10.51,10.51,0,0,1,3.78,3.92c1.63,3,1.6,6.83-.11,11.28A1,1,0,0,1,259.44,806.36Z"/>
      </g>
      <path d="M255.74,777.33a1,1,0,0,1-1-.94L254,765.07a1,1,0,1,1,2-.14l.74,11.33a1,1,0,0,1-.93,1.06Z"/>
      <g>
        <path d="M284.08,781.25A63.94,63.94,0,0,1,264,806" style="fill: #fff"/>
        <path d="M264,807a1,1,0,0,1-.58-1.81c13.59-9.71,19.67-24.17,19.73-24.32a1,1,0,0,1,1.31-.54,1,1,0,0,1,.54,1.3,64.21,64.21,0,0,1-20.42,25.18A1,1,0,0,1,264,807Z"/>
      </g>
      <g>
        <line x1="296" y1="787" x2="291.5" y2="802.5" style="fill: #fff"/>
        <path d="M291.5,803.5a.9.9,0,0,1-.28,0,1,1,0,0,1-.68-1.24l4.5-15.5a1,1,0,0,1,1.24-.68,1,1,0,0,1,.68,1.24l-4.5,15.5A1,1,0,0,1,291.5,803.5Z"/>
      </g>
      <path d="M309,802.27a1,1,0,0,1-.71-.29,10.8,10.8,0,0,0-14.11-1.48,1,1,0,0,1-1.17-1.62c.09-.06,8.79-6.22,16.69,1.68a1,1,0,0,1-.7,1.71Z"/>
      <path d="M312,792.88a1,1,0,0,1-.87-.51,7.39,7.39,0,0,0-5-4c-4.71-.92-10.05,3.29-10.1,3.33a1,1,0,0,1-1.41-.16,1,1,0,0,1,.16-1.4c.24-.2,6.09-4.83,11.73-3.73a9.26,9.26,0,0,1,6.37,5,1,1,0,0,1-.38,1.36A1,1,0,0,1,312,792.88Z"/>
      <path d="M275.14,818.78a1,1,0,0,1-1-1c-.1-3.77-1.14-6.29-3.09-7.52-3.4-2.12-8.58.19-8.64.21a1,1,0,1,1-.82-1.82c.25-.12,6.22-2.77,10.52-.08,2.56,1.6,3.91,4.68,4,9.15a1,1,0,0,1-1,1Z"/>
      <path d="M287.17,806.92h-.05a1,1,0,0,1-.95-1c.18-4.28-.76-7.23-2.81-8.77-3.05-2.3-7.73-.78-7.78-.77a1,1,0,0,1-1.27-.63,1,1,0,0,1,.63-1.26c.23-.08,5.71-1.88,9.62,1.06,2.6,2,3.82,5.48,3.61,10.46A1,1,0,0,1,287.17,806.92Z"/>
      <path d="M269.22,802h-.13a1,1,0,0,1-.87-1.12c.64-5.21-.06-9-2-10.94a5.26,5.26,0,0,0-4.08-1.5,1,1,0,0,1-1.12-.86,1,1,0,0,1,.85-1.12,7.31,7.31,0,0,1,5.73,2c2.46,2.43,3.34,6.68,2.62,12.63A1,1,0,0,1,269.22,802Z"/>
      <path d="M272,776.64a1,1,0,0,1-1-.81c-1.14-5.71-3.34-9.46-6.52-11.15a10,10,0,0,0-7.81-.34,1,1,0,0,1-.79-1.84,11.91,11.91,0,0,1,9.51.4c3.75,2,6.3,6.2,7.57,12.54a1,1,0,0,1-.78,1.18Z"/>
      <path d="M255.51,752.83a1,1,0,0,1-1-.9c-.65-6.62-2.47-10.92-5.27-12.45a5.9,5.9,0,0,0-5.18-.05,1,1,0,0,1-.92-1.77,8,8,0,0,1,7,.05c3.47,1.87,5.6,6.59,6.33,14a1,1,0,0,1-.9,1.1Z"/>
      <path d="M798.51,722.24c-2-9-14-12-28-1s-24,35.4-9,39.2S798.51,722.24,798.51,722.24Z"/>
      <g>
        <path d="M845.32,765.62c3.53-8.24,1.23-20.94-12.32-28.33s-29.57-19.71-44.35-9.86-32,28.34-25.87,46.82,11.08,18.48,14.78,33.26,11.09,37,20.94,32-3.69-20.94-3.69-20.94a16.81,16.81,0,0,0,0-8.63s27.1,32,34.49,25.88-9.85-22.18-9.85-22.18,32,8.62,32-1.23-19.71-12.32-19.71-12.32,7.39-1.23,11.08-11.09,11.09-22.17,0-19.71-9.85,8.62-9.85,8.62-3.7-8.62-8.63-8.62L825.61,757h2.46S841.62,774.25,845.32,765.62Z" style="fill: #fff"/>
        <path d="M800.6,723.76c11.15,0,22.44,8.1,32.4,13.53,13.55,7.39,15.85,20.09,12.32,28.33A3.39,3.39,0,0,1,842.1,768c-5.36,0-14-11-14-11h-2.46l-1.24,12.32c4.93,0,8.63,8.62,8.63,8.62s-1.23-6.16,9.85-8.62a11.61,11.61,0,0,1,2.51-.32c7.31,0,.86,11-2.51,20-3.69,9.86-11.08,11.09-11.08,11.09s19.71,2.46,19.71,12.32c0,3.58-4.24,4.72-9.63,4.72-9.43,0-22.4-3.49-22.4-3.49s17.24,16,9.85,22.18a3.58,3.58,0,0,1-2.37.78c-9.57,0-32.12-26.66-32.12-26.66a16.81,16.81,0,0,1,0,8.63s13.55,16,3.69,20.94a6.13,6.13,0,0,1-2.79.7c-8.46,0-14.81-19.38-18.15-32.73-3.7-14.78-8.62-14.78-14.78-33.26s11.08-37,25.87-46.82a21.05,21.05,0,0,1,12-3.67m0-2h0a23.15,23.15,0,0,0-13.06,4c-5.11,3.4-14.68,10.63-21.35,20.73-6.42,9.73-8.26,19.54-5.31,28.38a82.33,82.33,0,0,0,8.39,18.23A48,48,0,0,1,775.62,808c5.68,22.72,12.44,34.24,20.09,34.24a8.14,8.14,0,0,0,3.69-.91,8,8,0,0,0,4.51-5.66c1.32-6.44-4.76-14.83-6.92-17.56a17.59,17.59,0,0,0,.31-2.27c7.17,7.92,21.69,22.79,29.63,22.79a5.52,5.52,0,0,0,3.65-1.25,7,7,0,0,0,2.56-5.34c.13-4.88-4-10.78-7.61-14.9a86.41,86.41,0,0,0,16.32,2c9.61,0,11.63-3.65,11.63-6.72,0-7.69-9.22-11.44-15.58-13.12a20.93,20.93,0,0,0,6.83-9.59c.64-1.71,1.42-3.55,2.17-5.33,2.74-6.49,5.11-12.09,3-15.32a4.57,4.57,0,0,0-3.07-2,6,6,0,0,0,.36-.72c4.08-9.54.86-23.2-13.2-30.88-1.88-1-3.77-2.12-5.78-3.29-8.45-4.91-18-10.47-27.58-10.48Zm25.95,45.94.83-8.37c2,2.4,6.29,7.19,10.52,9.46a12.4,12.4,0,0,0-5.44,4.08c-1.43-2.08-3.44-4.3-5.91-5.17Z"/>
      </g>
      <path d="M806.5,763.51a13.46,13.46,0,0,1-5.29-1c-9.67-4.07-12-18.48-12.09-19.09a1,1,0,0,1,2-.31c0,.14,2.25,13.92,10.9,17.56,4.92,2.08,11.09.51,18.33-4.67a1,1,0,0,1,.78-.16l6.16,1.23a1,1,0,0,1-.4,2l-5.73-1.15C815.75,761.61,810.85,763.51,806.5,763.51Z"/>
      <g>
        <path d="M809.59,776.71s11.33,23.71,24.92,23.53c0,0-11.37,2.51-6.44,15.36" style="fill: #fff"/>
        <path d="M828.07,816.6a1,1,0,0,1-.93-.64c-1.71-4.45-1.75-8.24-.11-11.28a10.49,10.49,0,0,1,3.77-3.92c-12.29-3.33-21.68-22.71-22.11-23.62a1,1,0,1,1,1.8-.86c.11.23,11.13,23,23.86,23h.16a1,1,0,0,1,.21,2,9.85,9.85,0,0,0-5.94,4.43c-1.34,2.49-1.26,5.72.22,9.59a1,1,0,0,1-.57,1.3A1.13,1.13,0,0,1,828.07,816.6Z"/>
      </g>
      <path d="M831.77,787.57h-.07a1,1,0,0,1-.93-1.07l.74-11.32a1,1,0,1,1,2,.13l-.74,11.32A1,1,0,0,1,831.77,787.57Z"/>
      <g>
        <path d="M803.43,791.5a64,64,0,0,0,20.08,24.74" style="fill: #fff"/>
        <path d="M823.5,817.24a1,1,0,0,1-.58-.18,64.27,64.27,0,0,1-20.41-25.18,1,1,0,0,1,1.85-.77c.06.15,6.14,14.61,19.73,24.32a1,1,0,0,1-.59,1.81Z"/>
      </g>
      <g>
        <line x1="791.51" y1="797.24" x2="796.01" y2="812.74" style="fill: #fff"/>
        <path d="M796,813.74a1,1,0,0,1-1-.72l-4.5-15.5a1,1,0,0,1,1.92-.56l4.5,15.5a1,1,0,0,1-.68,1.24A1,1,0,0,1,796,813.74Z"/>
      </g>
      <path d="M778.56,812.51a1,1,0,0,1-.71-.29,1,1,0,0,1,0-1.42c7.9-7.9,16.61-1.74,16.7-1.68a1,1,0,1,1-1.18,1.62,10.79,10.79,0,0,0-14.1,1.48A1,1,0,0,1,778.56,812.51Z"/>
      <path d="M775.5,803.12A.94.94,0,0,1,775,803a1,1,0,0,1-.39-1.36,9.28,9.28,0,0,1,6.38-5c5.64-1.09,11.48,3.53,11.73,3.73a1,1,0,0,1-1.25,1.56c-.06,0-5.39-4.25-10.11-3.33a7.4,7.4,0,0,0-5,4A1,1,0,0,1,775.5,803.12Z"/>
      <path d="M812.36,829h0a1,1,0,0,1-1-1c.12-4.47,1.48-7.55,4-9.15,4.3-2.69,10.27,0,10.52.08a1,1,0,1,1-.83,1.82c-.05,0-5.25-2.32-8.64-.2-2,1.22-3,3.75-3.09,7.51A1,1,0,0,1,812.36,829Z"/>
      <path d="M800.34,817.17a1,1,0,0,1-1-1c-.21-5,1-8.5,3.61-10.46,3.91-2.93,9.38-1.14,9.61-1.06a1,1,0,1,1-.63,1.89s-4.73-1.53-7.79.78c-2,1.54-3,4.49-2.8,8.76a1,1,0,0,1-1,1Z"/>
      <path d="M818.29,812.21a1,1,0,0,1-1-.88c-.73-6,.15-10.2,2.62-12.63a7.29,7.29,0,0,1,5.72-2,1,1,0,0,1-.26,2,5.21,5.21,0,0,0-4.08,1.49c-2,2-2.65,5.74-2,10.94a1,1,0,0,1-.87,1.12Z"/>
      <path d="M815.51,786.88a.68.68,0,0,1-.2,0,1,1,0,0,1-.78-1.18c1.26-6.34,3.81-10.56,7.57-12.53a11.81,11.81,0,0,1,9.51-.4,1,1,0,1,1-.79,1.83,10,10,0,0,0-7.81.35c-3.19,1.68-5.38,5.44-6.52,11.15A1,1,0,0,1,815.51,786.88Z"/>
      <path d="M832,763.07h-.1A1,1,0,0,1,831,762c.73-7.44,2.86-12.15,6.33-14a8,8,0,0,1,7-.05,1,1,0,0,1-.93,1.77,5.89,5.89,0,0,0-5.17.05c-2.8,1.53-4.62,5.83-5.27,12.45A1,1,0,0,1,832,763.07Z"/>
      <g>
        <path d="M377.5,760.5s56-26,81,11c0,0,23-1,27,15,0,0,5-7,15,5S531,808,544,817" style="fill: #fff"/>
        <path d="M544,818a1,1,0,0,1-.57-.18c-5-3.47-11.08-6.23-17.5-9.14-9.82-4.46-20-9.07-26.2-16.54-4.68-5.62-8.07-6.72-10-6.67a4.5,4.5,0,0,0-3.39,1.62,1,1,0,0,1-1,.39,1,1,0,0,1-.78-.74c-3.75-15-25.77-14.25-26-14.24a1,1,0,0,1-.87-.44c-24.23-35.86-79.2-10.91-79.75-10.65a1,1,0,0,1-.84-1.82,113.68,113.68,0,0,1,31.44-8.46c22.57-2.47,40,4.22,50.5,19.36h.11c3.78,0,22.18.71,26.87,14.19a6.45,6.45,0,0,1,3.58-1.2h.27c3.49,0,7.33,2.49,11.42,7.39,5.93,7.12,15.87,11.64,25.49,16,6.21,2.82,12.64,5.74,17.81,9.32a1,1,0,0,1,.25,1.39A1,1,0,0,1,544,818Z"/>
      </g>
      <path d="M503,788.25c-4.33,0-7-.22-7.1-.23a1,1,0,1,1,.18-2c.28,0,28.48,2.32,51-8.43,11.09-5.31,19.93-6.9,31.14-8.92a255.4,255.4,0,0,0,48.94-13.12c30.41-11.31,39.18-8.25,50.27-4.36a75.64,75.64,0,0,0,17.2,4.31,1,1,0,1,1-.24,2,76.67,76.67,0,0,1-17.62-4.41c-10.71-3.74-19.18-6.7-48.91,4.36a257,257,0,0,1-49.29,13.21c-11,2-19.78,3.56-30.63,8.75C531.89,787.08,513,788.25,503,788.25Z"/>
      <g>
        <path d="M377.5,748.5a74.44,74.44,0,0,1,40.1,3.13" style="fill: #fff"/>
        <path d="M417.6,752.63a.84.84,0,0,1-.35-.07,74,74,0,0,0-39.51-3.09,1,1,0,1,1-.48-1.94A76.11,76.11,0,0,1,418,750.69a1,1,0,0,1-.35,1.94Z"/>
      </g>
      <path d="M485.5,867.5a1,1,0,0,1-.52-.15,1,1,0,0,1-.33-1.37c.1-.18,10.85-18,10.85-38.48S484.73,787.18,484.62,787a1,1,0,0,1,1.76-1c.11.2,11.12,20.47,11.12,41.48s-11,39.34-11.15,39.52A1,1,0,0,1,485.5,867.5Z"/>
      <path d="M419.25,851.82h-.06a1,1,0,0,1-.94-1.05c2-33.7,9.28-57.44,21.68-70.55,9.42-10,18.23-9.73,18.61-9.72a1,1,0,1,1-.08,2c-.15,0-8.45-.13-17.23,9.26-8.23,8.8-18.56,27.94-21,69.12A1,1,0,0,1,419.25,851.82Z"/>
      <path d="M452.18,765a1,1,0,0,1-.95-.67c-13.93-40.37-53.35-43.65-53.75-43.67a1,1,0,0,1-.93-1.07,1,1,0,0,1,1.07-.93c.41,0,41.13,3.37,55.5,45a1,1,0,0,1-.62,1.28A1.25,1.25,0,0,1,452.18,765Z"/>
      <path d="M656.17,849a1,1,0,0,1-.81-.4c-20-26.81-24.29-48.33-24.4-61.66-.13-14.55,4.48-22.63,4.68-23a1,1,0,0,1,1.72,1c-.18.32-17.83,32.14,19.61,82.42a1,1,0,0,1-.21,1.4A1,1,0,0,1,656.17,849Z"/>
      <path d="M697.37,839.18a1,1,0,0,1-.66-.25c-20-17.5-22.51-37.22-21.07-50.69a65.9,65.9,0,0,1,8-25.26,1,1,0,1,1,1.7,1,65.22,65.22,0,0,0-7.73,24.51c-2,18.87,4.87,35.32,20.4,48.89a1,1,0,0,1-.65,1.76Z"/>
      <path d="M658.82,750.36l-.2,0a1,1,0,0,1-.78-1.18c3.43-16.66,18.18-18.63,18.33-18.65a1,1,0,0,1,1.11.87,1,1,0,0,1-.86,1.11c-.55.07-13.49,1.85-16.62,17.07A1,1,0,0,1,658.82,750.36Z"/>
      <path d="M503.5,745.5a1,1,0,0,1-.89-.55c-17.55-35.1-58.79-39.41-59.2-39.45a1,1,0,0,1-.91-1.09,1,1,0,0,1,1.09-.91c.43,0,42.77,4.47,60.8,40.55a1,1,0,0,1-.44,1.34A.93.93,0,0,1,503.5,745.5Z"/>
      <path d="M580.5,752.5a1,1,0,0,1-.88-1.47c15.06-28.12,61.62-35.21,63.59-35.5a1,1,0,1,1,.29,2c-.47.07-47.53,7.23-62.12,34.46A1,1,0,0,1,580.5,752.5Z"/>
      <g>
        <ellipse cx="545.56" cy="395.09" rx="94.92" ry="99.09" style="fill: #fff"/>
        <path d="M545.56,296c52.42,0,94.92,44.36,94.92,99.09s-42.5,99.09-94.92,99.09-94.92-44.36-94.92-99.09S493.13,296,545.56,296m0-2c-53.44,0-96.92,45.35-96.92,101.09s43.48,101.09,96.92,101.09,96.92-45.35,96.92-101.09S599,294,545.56,294Z"/>
      </g>
      <ellipse cx="449.76" cy="408.77" rx="18.97" ry="32.23"/>
      <path d="M557.52,296.78a61.2,61.2,0,0,1,12.53,12.88c8.68,12.2,12.06,28.45,6.78,42.41-1.61,4.27-4,8.74-2.78,13.13,1.62,5.69,8.45,8.17,12,13,3.35,4.56,3.36,10.73,6,15.73,4,7.62,13.07,11,21.46,13.41s16.86,4.33,25.43,5.88a103.5,103.5,0,0,0,1.59-18.09C640.48,344.59,604.29,302.92,557.52,296.78Z" style="fill: #e21d67"/>
      <ellipse cx="640.11" cy="404.23" rx="31.77" ry="18.97" transform="translate(210.35 1027.48) rotate(-87.68)"/>
      <ellipse cx="545.56" cy="409.06" rx="94.92" ry="85.12"/>
      <path d="M462,368.65a77.88,77.88,0,0,0-11.36,40.41c0,33.25,21.26,62,52.26,76.05,80.89,1.83,89.8-71.6,67-110.4C550.4,341.54,495.08,348.18,462,368.65Z" style="fill: #e21d67"/>
      <ellipse cx="496.92" cy="387.31" rx="12.03" ry="11.81" style="fill: #eeede1"/>
      <ellipse cx="484.06" cy="406.82" rx="5.21" ry="4.16" style="fill: #eeede1"/>
      <g>
        <path d="M545.56,314.21c-52.43,0-94.92,40.07-94.92,89.51,0,1.79.06,3.58.17,5.34,2.93-46.94,44.23-84.16,94.75-84.16s91.81,37.22,94.74,84.16c.11-1.76.18-3.55.18-5.34C640.48,354.28,598,314.21,545.56,314.21Z" style="fill: #fff"/>
        <path d="M545.56,314.21c52.42,0,94.92,40.07,94.92,89.51,0,1.79-.07,3.58-.18,5.34-2.93-46.94-44.22-84.16-94.74-84.16s-91.82,37.22-94.75,84.16c-.11-1.76-.17-3.55-.17-5.34,0-49.44,42.49-89.51,94.92-89.51m0-2c-53.44,0-96.92,41.05-96.92,91.51,0,1.75.06,3.59.17,5.47a2,2,0,0,0,2,1.87h0a2,2,0,0,0,2-1.87c2.88-46.15,43.62-82.29,92.75-82.29s89.86,36.14,92.75,82.29a2,2,0,0,0,2,1.87h0a2,2,0,0,0,2-1.87c.12-1.91.18-3.7.18-5.47,0-50.46-43.48-91.51-96.92-91.51Z"/>
      </g>
      <g>
        <path d="M548.85,502.2c52.39-1.67,93.54-43.08,91.91-92.49-.06-1.79-.18-3.57-.35-5.33-1.38,47-41.42,85.53-91.91,87.14s-93-34.28-97.48-81.11c0,1.77-.06,3.55,0,5.35C452.66,465.17,496.46,503.87,548.85,502.2Z" style="fill: #fff"/>
        <path d="M640.41,404.38c.17,1.76.29,3.54.35,5.33,1.63,49.41-39.52,90.82-91.91,92.49-1.09,0-2.18.05-3.26.05-50.94,0-93-38.11-94.57-86.49-.06-1.8,0-3.58,0-5.35,4.38,45.82,45.16,81.16,94.21,81.16,1.09,0,2.18,0,3.27-.05,50.49-1.61,90.53-40.13,91.91-87.14m0-2h-.07a2,2,0,0,0-1.93,1.94c-1.35,46.21-40.88,83.63-90,85.2-1.06,0-2.14.05-3.2.05-48.24,0-87.89-34.11-92.22-79.35a2,2,0,0,0-2-1.81H451a2,2,0,0,0-1.93,1.94c-.06,1.88,0,3.73,0,5.47.79,23.91,11.25,46.21,29.44,62.8a99.17,99.17,0,0,0,67.13,25.63c1.1,0,2.22,0,3.32-.05a101.05,101.05,0,0,0,38.75-9,96.6,96.6,0,0,0,30.75-22,88.36,88.36,0,0,0,24.35-63.62c-.06-1.75-.18-3.59-.36-5.46a2,2,0,0,0-2-1.81Z"/>
      </g>
      <path d="M436.52,415.84a1,1,0,0,1-1-.74c-3.37-12.31,2-27,12.07-32.65a1,1,0,1,1,1,1.73c-9.29,5.28-14.28,18.91-11.13,30.4a1,1,0,0,1-.7,1.23Z" style="fill: #fff"/>
      <g>
        <path d="M534.86,296.1a13.77,13.77,0,0,1,6.22,13.08" style="fill: #fff"/>
        <path d="M541.08,310.18H541a1,1,0,0,1-.86-1.12,12.71,12.71,0,0,0-5.76-12.11,1,1,0,0,1-.31-1.38,1,1,0,0,1,1.38-.31,14.75,14.75,0,0,1,6.67,14.06A1,1,0,0,1,541.08,310.18Z"/>
      </g>
      <g>
        <path d="M635.5,840.5c-9-4-25-10-41-19s-15-12-33-8C550.16,816,547,817,545.42,817.3c5.93,3.37,14.81,13.33,10.58,41.7-1.28,8.57-2,17.19-4,22,3.67,2,6.82,3.36,11.5,9.5,16,21,28,40,68,25S644.5,844.5,635.5,840.5Z"/>
        <path d="M573.3,811.76c7.06,0,9.87,3.37,21.2,9.74,16,9,32,15,41,19s36,60-4,75c-10,3.75-18.25,5.38-25.25,5.38-21,0-30.75-14.63-42.75-30.38-4.68-6.14-7.83-7.51-11.5-9.5,2-4.81,2.72-13.43,4-22,4.23-28.37-4.65-38.33-10.58-41.7,1.55-.35,4.74-1.28,16.08-3.8a56.85,56.85,0,0,1,11.8-1.74m0-2a58.49,58.49,0,0,0-12.23,1.79c-8.31,1.84-12.27,2.84-14.4,3.38l-1.69.41a2,2,0,0,0-.55,3.7c5.34,3,13.68,12.22,9.59,39.67-.31,2.11-.59,4.23-.86,6.28-.8,6.09-1.56,11.85-3,15.23a2,2,0,0,0,.89,2.54l.85.46a25.72,25.72,0,0,1,10,8.49l2.1,2.77c11,14.6,21.48,28.4,42.24,28.4,7.59,0,16.08-1.8,26-5.51,14.29-5.36,22.09-16.46,22.56-32.11.61-20.73-11.83-43.65-18.45-46.59-2.16-1-4.66-2-7.56-3.22-8.94-3.76-21.18-8.89-33.27-15.69-3.06-1.72-5.45-3.2-7.56-4.5-5.75-3.55-8.92-5.5-14.62-5.5Z"/>
      </g>
      <g>
        <path d="M542.57,296.68a18.48,18.48,0,0,1,4.37,10.85" style="fill: #fff"/>
        <path d="M546.94,308.53a1,1,0,0,1-1-.94,17.47,17.47,0,0,0-4.13-10.27,1,1,0,0,1,1.53-1.29,19.42,19.42,0,0,1,4.59,11.45,1,1,0,0,1-.94,1Z"/>
      </g>
      <g>
        <path d="M494.41,332.28a52.81,52.81,0,0,1,28.28-11.68" style="fill: #fff"/>
        <path d="M494.41,333.28a1,1,0,0,1-.63-1.77,53.77,53.77,0,0,1,28.82-11.9,1,1,0,0,1,.19,2,51.84,51.84,0,0,0-27.74,11.45A1,1,0,0,1,494.41,333.28Z"/>
      </g>
      <path d="M635.5,840.5c-9-4-25-10-41-19-14.88-8.37-15.07-11.55-29.5-8.73V813c21,16,65,26,69,53,3.21,21.65,4.48,36.23,2.28,47.34C669.2,895.78,644.11,844.33,635.5,840.5Z" style="fill: #e21d67"/>
      <path d="M354,728a1,1,0,0,1-1-.79c-9.68-45.5-43.53-39.06-43.87-39a1,1,0,0,1-.41-2c.36-.07,36.15-6.89,46.24,40.53a1,1,0,0,1-.77,1.19Z"/>
      <path d="M352,693a1,1,0,0,1-.85-.47c-9.53-15.25-30-12.78-30.26-12.75a1,1,0,0,1-.26-2c.22,0,22-2.67,32.22,13.68a1,1,0,0,1-.32,1.38A1,1,0,0,1,352,693Z"/>
      <path d="M436.79,687.84a1,1,0,0,1-1-.72C430.75,670,421.72,657.8,409,651c-21-11.23-45.16-3.94-45.4-3.87a1,1,0,0,1-1.25-.66,1,1,0,0,1,.66-1.25c.25-.07,25.18-7.61,46.92,4,13.22,7.07,22.58,19.63,27.82,37.34a1,1,0,0,1-.68,1.24A.9.9,0,0,1,436.79,687.84Z"/>
      <path d="M451,649a1,1,0,0,1-1-1c-2.31-43.52-5-59.73-5-59.88a1,1,0,0,1,.82-1.16,1,1,0,0,1,1.16.82c0,.16,2.69,16.45,5,60.12a1,1,0,0,1-.95,1Z"/>
      <path d="M647,634a1,1,0,0,1-1-1V601a1,1,0,0,1,2,0v32A1,1,0,0,1,647,634Z"/>
      <path d="M561.7,562a174.65,174.65,0,0,1,25.22,1.73c4.42.65,9.33,1.83,11.66,5.64,1.51,2.49,1.57,5.56,1.58,8.47q.09,29.17.2,58.36c0,4.56-.15,9.58-3.24,12.92-2.34,2.53-5.87,3.52-9.23,4.31a210.09,210.09,0,0,1-90.1,1.32c-2.7-.56-5.56-1.26-7.46-3.26-2.1-2.22-2.52-5.51-2.83-8.55l-4-39c-.73-7.18-2-14.52-.85-21.72,1.45-9,4.45-11.92,13.26-13.32,21.76-3.46,43.81-6.93,65.75-6.93m0-2c-22.37,0-44.58,3.53-66.07,7-9.71,1.55-13.34,5.19-14.92,15-1,6.18-.28,12.37.41,18.36.15,1.3.3,2.59.43,3.88l3.77,37.08.19,1.89c.3,2.92.71,6.91,3.37,9.72,2.27,2.41,5.45,3.22,8.5,3.85a212.22,212.22,0,0,0,91-1.33c3.7-.87,7.53-2,10.24-4.9,3.51-3.79,3.78-9.13,3.77-14.28l0-4.2-.18-54.17c0-2.88,0-6.47-1.87-9.5-2.76-4.52-8.16-5.86-13.08-6.58A175.36,175.36,0,0,0,561.7,560Z"/>
      <path d="M597.12,649.12c3.09-3.34,3.25-8.36,3.24-12.92q-.11-29.18-.2-58.36c0-2.91-.07-6-1.58-8.47a9.47,9.47,0,0,0-3.76-3.4c-5.67,6.92,3.14,62-11.59,73.24-13.47,10.3-69.78,7-96,.62l.31,3.11c.31,3,.73,6.33,2.83,8.55,1.9,2,4.76,2.7,7.46,3.26a210.14,210.14,0,0,0,90.1-1.32C591.25,652.64,594.78,651.65,597.12,649.12Z" style="fill: #e21d67"/>
      <path d="M517.38,657.23a1,1,0,0,1-1-.7,81.23,81.23,0,0,1-3.95-24.45c0-1.45-.1-3-1-3.66a4.17,4.17,0,0,0-2.29-.35l-8.18.15a85,85,0,0,0,3,26.07,1,1,0,0,1-.69,1.23,1,1,0,0,1-1.24-.7A87,87,0,0,1,499,627.19a1,1,0,0,1,1-1l9.12-.17a5.79,5.79,0,0,1,3.43.69c1.91,1.26,1.93,3.89,1.94,5.3a79.58,79.58,0,0,0,3.85,23.86,1,1,0,0,1-.64,1.26A1.18,1.18,0,0,1,517.38,657.23Z"/>
      <path d="M536,658.93a1,1,0,0,1-1-.81l-4.9-25.68a4.83,4.83,0,0,1,.23-3.35c1.16-2,3.93-1.78,5-1.68l7.95.72a5.83,5.83,0,0,1,2.87.81c2,1.36,1.81,4,1.72,5.65A51.61,51.61,0,0,0,551.74,657a1,1,0,1,1-1.84.77,53.51,53.51,0,0,1-4-23.32c.08-1.53.09-3.23-.87-3.89a4.15,4.15,0,0,0-1.91-.47l-8-.72c-1.7-.15-2.7.07-3,.68a3.29,3.29,0,0,0,0,2L537,657.74a1,1,0,0,1-.8,1.17Z"/>
      <path d="M482.35,597.62a1,1,0,0,1-1-.85,1,1,0,0,1,.84-1.14,287,287,0,0,1,64.29-2.44,1,1,0,0,1-.15,2,284.13,284.13,0,0,0-63.84,2.42Z"/>
      <path d="M512.21,607.68a4.35,4.35,0,0,1-2.58-.88,4.11,4.11,0,0,1-1.75-3.66.17.17,0,0,1,0-.07.15.15,0,0,1,0-.07,4.08,4.08,0,1,1,5.74,4.39A3.69,3.69,0,0,1,512.21,607.68Zm-2.34-4.37v0a2.32,2.32,0,0,0,3,2.2,2.1,2.1,0,0,0,1.14-1.73,2.08,2.08,0,0,0-4.11-.54Z"/>
      <path d="M524.13,607.61a3.72,3.72,0,0,1-1.5-.3,4.38,4.38,0,0,1-2.46-4.77,1,1,0,0,1,1.16-.8.9.9,0,0,1,.48.23,3.7,3.7,0,0,1,.65-.73,3.34,3.34,0,0,1,3-.76,3.44,3.44,0,0,1,2.19,1.91,3.62,3.62,0,0,1,.06,3.05A4,4,0,0,1,524.13,607.61Zm-1.52-2.79a2.11,2.11,0,0,0,.81.65,2,2,0,0,0,2.48-.87,1.59,1.59,0,0,0,0-1.36,1.43,1.43,0,0,0-.9-.83,1.36,1.36,0,0,0-1.19.35,1.19,1.19,0,0,0-.47,1A1,1,0,0,1,522.61,604.82Z"/>
      <path d="M464.58,613.7a94.3,94.3,0,0,1-15.6-1.31,1,1,0,1,1,.34-2,91.26,91.26,0,0,0,33.8-.62,1,1,0,0,1,1.18.78,1,1,0,0,1-.78,1.18A93.17,93.17,0,0,1,464.58,613.7Z"/>
      <path d="M459.12,620.52c-2.87,0-5.74-.13-8.62-.41a1,1,0,0,1-.9-1.09,1,1,0,0,1,1.09-.9,88.41,88.41,0,0,0,32.76-3A1,1,0,1,1,484,617,90.22,90.22,0,0,1,459.12,620.52Z"/>
      <path d="M617.84,606.92a82.27,82.27,0,0,1-17.05-1.78,1,1,0,1,1,.42-1.95,82.1,82.1,0,0,0,44.54-3.14,1,1,0,1,1,.67,1.88A85,85,0,0,1,617.84,606.92Z"/>
      <path d="M617.63,613.08a70.11,70.11,0,0,1-16.38-1.94,1,1,0,0,1,.46-1.94,69.58,69.58,0,0,0,45.87-4.87,1,1,0,1,1,.84,1.82A73,73,0,0,1,617.63,613.08Z"/>
      <path d="M443,584a1,1,0,0,1-.75-.34c-22.29-25.2-64-10.38-64.41-10.23a1,1,0,1,1-.68-1.88c.43-.16,43.41-15.42,66.59,10.79a1,1,0,0,1-.09,1.41A1,1,0,0,1,443,584Z"/>
      <path d="M379.68,560.23a1,1,0,0,1-.48-1.88c.18-.1,19-10.36,40.23-.25a1,1,0,1,1-.86,1.8,44.62,44.62,0,0,0-38.4.2A1,1,0,0,1,379.68,560.23Z"/>
      <path d="M653,576a1,1,0,0,1-.88-.52,1,1,0,0,1,.4-1.36c1.64-.9,40.57-22.1,67.24-13.07a1,1,0,0,1-.64,1.9c-25.82-8.76-65.24,12.71-65.64,12.93A1,1,0,0,1,653,576Z"/>
      <path d="M674,553a1,1,0,0,1-1-.68,1,1,0,0,1,.63-1.27c21.08-7,42-.17,42.2-.11a1,1,0,0,1,.63,1.27,1,1,0,0,1-1.27.63c-.2-.07-20.5-6.7-40.92.11A1.25,1.25,0,0,1,674,553Z"/>
      <path d="M652.78,651a1,1,0,0,1-.58-.18,1,1,0,0,1-.23-1.4c.21-.3,22.31-30.4,70.85-17.38a1,1,0,0,1-.51,1.94c-47.16-12.66-68.51,16.31-68.72,16.6A1,1,0,0,1,652.78,651Z"/>
      <path d="M733,738l-.22,0a1,1,0,0,1-.76-1.2c10.07-44.31,48.58-43,49-43a1,1,0,1,1-.1,2,46.74,46.74,0,0,0-19.83,4.54c-13.91,6.57-23,19-27.09,36.87A1,1,0,0,1,733,738Z"/>
      <path d="M709.48,732.5a.85.85,0,0,1-.23,0,1,1,0,0,1-.75-1.2c.06-.24,5.88-24.06,28-37.13a1,1,0,0,1,1,1.72c-21.36,12.62-27,35.64-27.06,35.87A1,1,0,0,1,709.48,732.5Z"/>
      <path d="M413,837a1,1,0,0,1-1-1,86.51,86.51,0,0,1,9.13-38.49,1,1,0,0,1,1.74,1A84.44,84.44,0,0,0,414,836,1,1,0,0,1,413,837Z"/>
      <path d="M446,477.41a1,1,0,0,1-.71-1.71c.12-.11,11.54-11.28,21.77-1.05a1,1,0,0,1,0,1.42,1,1,0,0,1-1.41,0c-8.84-8.84-18.53.64-18.94,1.05A1,1,0,0,1,446,477.41Z" style="fill: #fff"/>
      <path d="M648.16,476.52a1,1,0,0,1-.78-.38c-3-3.76-6.26-5.84-9.79-6.19a13.29,13.29,0,0,0-9,2.83,1,1,0,0,1-1.41-.11,1,1,0,0,1,.11-1.4A15.14,15.14,0,0,1,637.76,468c4.1.39,7.86,2.73,11.19,6.94a1,1,0,0,1-.79,1.62Z" style="fill: #fff"/>
      <path d="M651,419a.89.89,0,0,1-.36-.07,1,1,0,0,1-.57-1.29c8.63-22.07-2.31-33.46-2.78-33.93a1,1,0,0,1,1.42-1.42c.51.51,12.35,12.73,3.22,36.07A1,1,0,0,1,651,419Z" style="fill: #fff"/>
      <path d="M611,918a1.06,1.06,0,0,1-.42-.09,1,1,0,0,1-.49-1.33c10.64-23.2-2.8-44.83-2.93-45a1,1,0,1,1,1.68-1.08c.15.23,14.17,22.74,3.07,47A1,1,0,0,1,611,918Z" style="fill: #fff"/>
      <path d="M300,717a1,1,0,0,1-.49-.13,1,1,0,0,1-.38-1.36l5-9a1,1,0,0,1,1.74,1l-5,9A1,1,0,0,1,300,717Z" style="fill: #fff"/>
      <path d="M310,725a1,1,0,0,1-.79-1.61l7-9a1,1,0,1,1,1.58,1.22l-7,9A1,1,0,0,1,310,725Z" style="fill: #fff"/>
      <path d="M321,738a1,1,0,0,1-.85-.47,1,1,0,0,1,.32-1.38l8-5a1,1,0,1,1,1.06,1.7l-8,5A1,1,0,0,1,321,738Z" style="fill: #fff"/>
      <path d="M475.65,497.44a1,1,0,0,1-1-.75c-3.55-13.35,6.92-16.62,7-16.65a1,1,0,0,1,.57,1.92c-.38.11-8.71,2.8-5.67,14.22a1,1,0,0,1-.71,1.22A.75.75,0,0,1,475.65,497.44Z"/>
      <path d="M486.35,504.33a1,1,0,0,1-1-.7c-3.83-12.27,3.75-17.27,4.07-17.47a1,1,0,0,1,1.08,1.68h0c-.27.18-6.6,4.44-3.24,15.19a1,1,0,0,1-.65,1.25A1,1,0,0,1,486.35,504.33Z"/>
      <path d="M519,514.06a1,1,0,0,1-.81-.42,11.89,11.89,0,0,1,0-14.27,1,1,0,0,1,1.4-.14,1,1,0,0,1,.15,1.4h0a9.74,9.74,0,0,0,0,11.84,1,1,0,0,1-.23,1.4A1,1,0,0,1,519,514.06Z"/>
      <path d="M526.73,515a1,1,0,0,1-.49-.13c-5.86-3.31-3.32-13.69-3.21-14.13a1,1,0,1,1,1.94.48c0,.1-2.29,9.35,2.25,11.91a1,1,0,0,1-.49,1.87Z"/>
      <path d="M571.44,514.23a.91.91,0,0,1-.45-.11,1,1,0,0,1-.44-1.34c3-5.92-1.94-9.82-2.16-10a1,1,0,0,1,1.21-1.59c.07.05,6.51,5.06,2.73,12.49A1,1,0,0,1,571.44,514.23Z"/>
      <path d="M579.8,512.67a1.12,1.12,0,0,1-.31,0,1,1,0,0,1-.63-1.27c1.74-5.18,1.14-7.72.34-8.93a3.16,3.16,0,0,0-2.26-1.42,1,1,0,0,1,.11-2,5.23,5.23,0,0,1,3.78,2.27c1.57,2.3,1.54,5.9-.08,10.72A1,1,0,0,1,579.8,512.67Z"/>
      <path d="M607.08,502a.92.92,0,0,1-.36-.07,1,1,0,0,1-.57-1.29c1.81-4.62,2.09-8.4.84-11.22a6.61,6.61,0,0,0-3.34-3.48,1,1,0,0,1,.69-1.88,8.6,8.6,0,0,1,4.45,4.5c1.51,3.33,1.24,7.64-.78,12.8A1,1,0,0,1,607.08,502Z"/>
      <path d="M617,496l-.24,0a1,1,0,0,1-.73-1.21c1-3.87.73-7-.69-9.34a8,8,0,0,0-4.56-3.44,1,1,0,0,1,.44-2,10,10,0,0,1,5.8,4.32c1.74,2.81,2.06,6.48,1,10.9A1,1,0,0,1,617,496Z"/>
    </g>
  </g>
</svg>
