<svg xmlns="http://www.w3.org/2000/svg" width="1000" height="1000" viewBox="0 0 1000 1000">
  <g id="b9a720e6-7e0b-47ff-9f9f-9ef36a8f6294" data-name="site in maintaince">
    <path id="a477c25a-b19d-40ff-8985-98df35985a05" data-name="background" d="M175.75,799.54c116,148.19,412.35,132.08,569.13,60.14s185.77-390.87,82.68-448.86S598.84,528.94,502.2,539.68s-306-9.67-289.94,203c0,0-110.6-66.58-74.09-219.06C138.17,523.57,54.07,644.06,175.75,799.54Z" style="fill: #c4bbbb"/>
    <g id="b9a76947-07a2-4975-acef-45db8fde5a70" data-name="Rocket">
      <g>
        <path d="M134,432.59c.45-12.83,7.18-26.54,17.48-38.09s24-21,38.58-27.8c6.81-3.19,14-5.88,21.07-6.79a47.44,47.44,0,0,1,22.35,2.7c17.9,6.53,29.59,21.54,30.65,39.37s-8.54,38.09-25.16,53.12c-8,7.21-17.83,13.39-28.24,15.73-4.12.93-8.38,1.24-11.9.15s-6.17-3.72-6.19-7.16c0-4.18,3.61-8.48,7.47-11.95s8.28-6.72,10.85-10.84,2.45-9.53-1.83-10.83c-2.56-.78-5.81.1-8.72,1.25a50.17,50.17,0,0,0-17.23,11.35c-4.67,4.76-8.41,10.57-14.57,13.66-6.85,3.43-14.86,2.12-19-2S144.71,444,146,437.75c1.22-5.88,6-12.39,6.68-17.89-6.44,1.4-14.07,9.86-18.9,13.86" style="fill: #e21d67"/>
        <path d="M203.86,472.67a18.19,18.19,0,0,1-5.36-.73c-4.17-1.28-6.87-4.47-6.9-8.11,0-3.81,2.52-8,7.8-12.71.86-.77,1.74-1.53,2.63-2.29,3-2.58,6.12-5.25,8-8.33,1.47-2.35,2-5.1,1.23-7a3.72,3.72,0,0,0-2.5-2.32c-1.89-.57-4.53-.17-8.07,1.23a49.45,49.45,0,0,0-16.87,11.12c-1.28,1.3-2.52,2.72-3.71,4.09-3.2,3.66-6.51,7.45-11.13,9.76-6.82,3.42-15.48,2.48-20.15-2.19-4-4-5.37-10.26-3.85-17.61a41.65,41.65,0,0,1,3.39-8.81,43.69,43.69,0,0,0,3-7.45c-4.28,1.61-9.09,6-13,9.67-1.43,1.31-2.78,2.55-4,3.53L133.14,433l.44-.37-.62,0c.45-12.66,6.74-26.41,17.73-38.72,9.85-11,23.3-20.73,38.91-28,8.29-3.88,15.08-6.06,21.36-6.87a48.25,48.25,0,0,1,22.82,2.75c18.23,6.65,30.22,22.07,31.3,40.25s-8.69,38.74-25.48,53.92c-6.39,5.77-16.56,13.23-28.69,16A32,32,0,0,1,203.86,472.67Zm3.1-43.76a8.43,8.43,0,0,1,2.42.33,5.65,5.65,0,0,1,3.79,3.53c1,2.52.41,5.89-1.4,8.79-2.09,3.34-5.32,6.11-8.44,8.79-.87.75-1.75,1.5-2.59,2.26-4.77,4.28-7.17,8.05-7.14,11.21,0,2.79,2.12,5.17,5.49,6.21,3,.92,6.81.86,11.38-.17,11.71-2.64,21.57-9.89,27.79-15.51,16.35-14.78,25.87-34.82,24.83-52.31s-12.52-32.12-30-38.49a46.28,46.28,0,0,0-21.89-2.65c-6.07.78-12.66,2.91-20.76,6.71-15.37,7.19-28.6,16.73-38.27,27.56-10.13,11.36-16.33,24.44-17.15,36.13l2-1.81c4.59-4.23,10.3-9.49,15.45-10.6l1.38-.3-.17,1.39c-.37,3.06-1.94,6.39-3.45,9.61A40.09,40.09,0,0,0,147,438c-.8,3.86-1.44,11.05,3.3,15.79,4.09,4.08,11.76,4.86,17.84,1.82,4.27-2.14,7.31-5.62,10.52-9.3,1.22-1.39,2.47-2.83,3.79-4.17A50.77,50.77,0,0,1,200,430.52,19.45,19.45,0,0,1,207,428.91Z"/>
      </g>
      <g>
        <path d="M143.12,479.41c3.14,6.62.27,14.56-3.87,20.61s-9.57,11.33-12.3,18.13c-2.45,6.1-2.52,13-5,19a25.81,25.81,0,0,1-24.33,15.47,19.09,19.09,0,0,1-11.26-4,12.85,12.85,0,0,1-4.87-10.61c.47-6.16,5.88-10.63,11-14.05s10.86-7.06,12.63-13c1.19-4,.35-8.35,1.72-12.25,2.94-8.38,9.35-7.81,16.32-8.22,7.69-.44,15.32-5.14,19.57-11.46" style="fill: #e21d67"/>
        <path d="M98.58,553.67l-1,0a20.17,20.17,0,0,1-11.85-4.19A13.88,13.88,0,0,1,80.45,538c.51-6.7,6.4-11.43,11.47-14.8l.48-.32c5-3.31,10.13-6.73,11.74-12.11a24.45,24.45,0,0,0,.74-5.64,23.77,23.77,0,0,1,1-6.65c2.88-8.23,8.9-8.5,15.27-8.79l1.93-.09a25.38,25.38,0,0,0,18.8-11l1.26.84L144,479c4,8.44-1.43,17.92-3.95,21.6-1.38,2-2.9,3.95-4.38,5.83-3,3.77-6,7.67-7.82,12.11a52.56,52.56,0,0,0-2.42,9.2,50.58,50.58,0,0,1-2.63,9.84A27,27,0,0,1,98.58,553.67Zm44.08-72.77a27.34,27.34,0,0,1-19.46,10.68l-2,.1c-6.17.28-11,.49-13.48,7.45a21.86,21.86,0,0,0-.88,6.09,26,26,0,0,1-.82,6.11c-1.82,6.08-7.53,9.87-12.56,13.21l-.48.32c-4.69,3.12-10.13,7.44-10.58,13.28A11.84,11.84,0,0,0,87,547.91a18.16,18.16,0,0,0,10.67,3.74A24.87,24.87,0,0,0,121,536.79a49.77,49.77,0,0,0,2.52-9.46,53.5,53.5,0,0,1,2.52-9.56c1.89-4.7,5-8.71,8.11-12.59,1.45-1.86,3-3.77,4.3-5.72C140.64,496.21,145.32,488.14,142.66,480.9Z"/>
      </g>
      <g>
        <path d="M170.41,483.64c-4.86-.21-9.08,1.28-10.95,6.26-2.07,5.52,1.35,11.64,6.68,13.79,3.86,1.56,8.44.41,11.73-2.15a10.6,10.6,0,0,0,4.32-7.11,9.37,9.37,0,0,0-3.5-7.85A13.84,13.84,0,0,0,170.41,483.64Z" style="fill: #e21d67"/>
        <path d="M169.88,505.39a11.21,11.21,0,0,1-4.12-.77c-6.06-2.45-9.38-9.35-7.24-15.07,1.82-4.85,5.84-7.19,11.93-6.91h0a15,15,0,0,1,8.88,3.17,10.38,10.38,0,0,1,3.86,8.71,11.62,11.62,0,0,1-4.71,7.81A14.15,14.15,0,0,1,169.88,505.39Zm-.35-20.77c-4.72,0-7.71,1.85-9.13,5.64-1.77,4.72,1,10.45,6.11,12.5,3.27,1.32,7.49.53,10.74-2a9.65,9.65,0,0,0,3.95-6.41,8.33,8.33,0,0,0-3.15-7,12.91,12.91,0,0,0-7.68-2.71h0Z"/>
      </g>
      <g>
        <path d="M157.49,589c7.55-14.32-19.39-9.61-11.28,2.3a5.77,5.77,0,0,0,6.16,2.06A8.44,8.44,0,0,0,157.49,589Z" style="fill: #e21d67"/>
        <path d="M150.8,594.61a6.52,6.52,0,0,1-5.41-2.7c-2.46-3.61-2.28-7.18.49-9.82,3.23-3.07,9.08-3.85,12-1.61,1.39,1.06,3.3,3.63.46,9h0a9.42,9.42,0,0,1-5.75,4.86A7.19,7.19,0,0,1,150.8,594.61Zm2.7-13.42a9.45,9.45,0,0,0-6.24,2.35c-1.42,1.36-2.62,3.72-.22,7.24a4.78,4.78,0,0,0,5.08,1.66,7.45,7.45,0,0,0,4.49-3.86h0c1.13-2.14,2.06-5,.1-6.49A5.32,5.32,0,0,0,153.5,581.19Z"/>
      </g>
      <g>
        <path d="M169.57,682.1c-1.46-10.85-1.8-22.8-12-29.25-4-2.52-9.37-3.33-13.42-.9-8.63,5.17,1.9,32.76,4.34,40.65a131.76,131.76,0,0,0,21.75,41.34c18,23.33,42.56,40.92,68.62,54.69,12.26,6.47,26.15,12.32,39.63,9.08S302.6,777.91,295,766.3c-5.61-8.6-17.46-10.12-27.72-9.85s-21.49,1.23-29.8-4.79c-12.85-9.31-12.66-31.07-26.75-38.34-8.91-4.6-20.47-1.44-29.1-6.54C173.49,702,170.82,691.51,169.57,682.1Z" style="fill: #e21d67"/>
        <path d="M270.54,799.63c-11.23,0-22.39-5-32.15-10.12-30.13-15.91-52.68-33.89-68.95-55a132,132,0,0,1-21.91-41.65c-.29-.92-.68-2.1-1.14-3.48-3.87-11.66-11.07-33.35-2.76-38.33,4.05-2.44,9.73-2.08,14.46.91,9.54,6,10.81,16.44,12,26.51.14,1.16.28,2.31.44,3.46h0c1.15,8.64,3.52,19.17,11.61,23.95,4.25,2.52,9.23,2.93,14.5,3.36,5,.41,10.06.83,14.55,3.15,7.74,4,11.35,12.2,14.84,20.13,3,6.91,6.18,14.05,12,18.29,7.32,5.3,17.08,5,26.53,4.69l2.66-.09c14.48-.36,23.82,3,28.58,10.3,3.14,4.81,3.54,10.77,1.15,16.79-3.09,7.77-10.44,14.26-18.29,16.14A34.54,34.54,0,0,1,270.54,799.63ZM149.73,651.48a9.92,9.92,0,0,0-5.08,1.32c-6.93,4.16.48,26.46,3.64,36,.46,1.39.86,2.59,1.15,3.51a130,130,0,0,0,21.58,41c16.09,20.85,38.43,38.65,68.3,54.43,11.81,6.23,25.67,12.18,38.93,9a25.54,25.54,0,0,0,16.9-14.94c2.15-5.4,1.81-10.71-1-15-4.36-6.68-13.14-9.78-26.86-9.39l-2.65.08c-9.78.32-19.89.64-27.76-5.06-6.29-4.56-9.54-12-12.69-19.1-3.5-8-6.81-15.49-13.93-19.16-4.13-2.13-9-2.54-13.79-2.93-5.26-.44-10.71-.89-15.36-3.64-8.93-5.28-11.45-17-12.58-25.41h0c-.15-1.15-.29-2.31-.43-3.48-1.17-9.61-2.38-19.54-11.12-25.06A13.75,13.75,0,0,0,149.73,651.48Z"/>
      </g>
      <g>
        <g>
          <g>
            <polygon points="271.4 399.03 220.68 353.23 235.22 332.33 290.71 382.43 271.4 399.03" style="fill: #fff"/>
            <path d="M235.22,332.33l55.49,50.1L271.4,399l-50.72-45.8,14.54-20.9m0-2-.23,0a2,2,0,0,0-1.41.84L219,352.09a2,2,0,0,0,.3,2.62l50.72,45.8a2,2,0,0,0,1.34.52,2,2,0,0,0,1.31-.49L292,384a2,2,0,0,0,.7-1.5,2,2,0,0,0-.66-1.51l-55.49-50.09a2,2,0,0,0-1.34-.52Z"/>
          </g>
          <polygon points="290.71 382.43 281.3 390.51 229.66 340.33 235.22 332.34 290.71 382.43" style="fill: #e21d67"/>
        </g>
        <g>
          <g>
            <path d="M307.67,201.65c-1.11-1-59.69-19.2-104.52,25.61-41.22,41.19-48.34,109.19-42,110,7.72.93,24-33.25,60.92-55.77,13.1-8,36.09-4.85,36.09-4.85Z" style="fill: #fff"/>
            <path d="M277,197.16c17.66,0,30.13,4,30.64,4.49l-49.54,74.94a86.5,86.5,0,0,0-10.58-.61c-7.76,0-18.18,1-25.51,5.46-36.46,22.22-52.76,55.79-60.61,55.79l-.31,0c-6.31-.76.81-68.76,42-109.95,24.38-24.37,52.83-30.1,73.88-30.1m0-2c-20.34,0-49.92,5.32-75.29,30.68-20.83,20.82-32,47-37.67,65.29-6.45,20.73-8.18,39.25-6.13,45.19.75,2.17,2,2.76,2.94,2.87a5.09,5.09,0,0,0,.55,0c4.07,0,8.44-5.23,15.7-13.88,9.68-11.56,24.31-29,46-42.21,7-4.26,17.17-5.16,24.47-5.16a83.44,83.44,0,0,1,10.31.6h.27a2,2,0,0,0,1.67-.89l49.54-74.95a2,2,0,0,0-.33-2.59c-1.1-1-14.05-5-32-5Z"/>
          </g>
          <path d="M258.14,276.59a87.87,87.87,0,0,0-20.52,0c6.23-19.28,17.87-55.26,25.43-78.56,24.74-3.09,44,3,44.61,3.62Z" style="fill: #e21d67"/>
        </g>
        <g>
          <g>
            <path d="M412.87,296.62c1.11,1,25.18,57.42-14.82,106.59-36.78,45.2-103.7,59.21-105.09,53-1.71-7.58,30.62-27.23,49.27-66.29,6.61-13.84,1.13-36.39,1.13-36.39Z" style="fill: #fff"/>
            <path d="M412.87,296.62c1.11,1,25.18,57.42-14.82,106.59-31.36,38.54-84.62,54.4-100.51,54.4-2.75,0-4.38-.47-4.58-1.39-1.71-7.58,30.62-27.23,49.27-66.29,6.61-13.84,1.13-36.39,1.13-36.39l69.51-56.92m0-2a2,2,0,0,0-1.27.45L342.1,352a2,2,0,0,0-.68,2c.05.22,5.22,22-1,35.06-10.92,22.87-26.79,39.21-37.3,50-8.41,8.66-13.05,13.43-12.11,17.57.66,2.95,4.93,2.95,6.53,2.95,8.18,0,25.84-4,45.29-12.93,16.28-7.44,39.36-20.81,56.77-42.21,21.17-26,24.34-53.91,23.28-72.73-1.15-20.23-7.34-35.41-8.67-36.6a2,2,0,0,0-1.34-.52Z"/>
          </g>
          <g>
            <path d="M421,341l-75.57,33.41a88.26,88.26,0,0,0-2.09-20.82l69.5-56.92C413.5,297.19,421.65,315.87,421,341Z"/>
            <path d="M412.87,296.62c.63.57,8.78,19.25,8.16,44.33l-75.57,33.41a88.26,88.26,0,0,0-2.09-20.82l69.5-56.92m0-2a2,2,0,0,0-1.26.45L342.1,352a2,2,0,0,0-.67,2,87.18,87.18,0,0,1,2,20.29,2,2,0,0,0,2,2.06,2.06,2.06,0,0,0,.81-.17c18.32-8.09,53-23.42,75.57-33.42A2,2,0,0,0,423,341a118,118,0,0,0-3.67-31.9c-1.68-6.47-4.08-13-5.15-13.95a2,2,0,0,0-1.34-.52Z"/>
          </g>
        </g>
        <g>
          <g>
            <path d="M234.08,328.64l62.45,56.22S373.34,358.79,426.36,293C452.81,260.11,473,221.23,486.7,186.3c18.91-48.21,25.19-88.84,17.93-95.38s-47,4-93,27.79c-33.28,17.26-69.83,41.45-99.75,71.19C252,249.53,234.08,328.64,234.08,328.64Z" style="fill: #fff"/>
            <path d="M496.78,89c3.73,0,6.42.63,7.85,1.92,7.26,6.54,1,47.17-17.93,95.38C473,221.23,452.81,260.11,426.36,293c-53,65.81-129.83,91.88-129.83,91.88l-62.45-56.22S252,249.53,311.87,189.9c29.92-29.74,66.47-53.93,99.75-71.19C448.59,99.56,481.49,89,496.78,89m0-2c-16.93,0-51.52,12-86.08,29.93-27,14-66.25,37.76-100.24,71.55-31.17,31-50.8,67.34-61.78,92.35-11.9,27.09-16.5,47.17-16.55,47.37a2,2,0,0,0,.61,1.93l62.45,56.22a2.06,2.06,0,0,0,2,.41c.19-.07,19.68-6.75,45.37-21.42,23.72-13.54,57.78-36.87,85.37-71.11,30.11-37.41,49.59-79,60.64-107.21,8.91-22.71,15.62-45.33,18.89-63.69,2.28-12.8,3.87-29.08-1.48-33.9-1.82-1.63-4.83-2.43-9.19-2.43Z"/>
          </g>
          <g>
            <path d="M339,199.69a48.46,48.46,0,1,0,68.43-3.59A48.45,48.45,0,0,0,339,199.69Z" style="fill: #e21d67"/>
            <g>
              <path d="M343.62,197.17a48.46,48.46,0,1,0,68.43-3.59A48.46,48.46,0,0,0,343.62,197.17Z" style="fill: #fff"/>
              <path d="M379.65,181.14a48.46,48.46,0,1,1-36,16,48.25,48.25,0,0,1,36-16m0-2a50.45,50.45,0,1,0,33.74,13,50.57,50.57,0,0,0-33.74-13Z"/>
            </g>
            <g>
              <path d="M354.67,207.09a33.61,33.61,0,1,0,47.47-2.46A33.61,33.61,0,0,0,354.67,207.09Z"/>
              <path d="M379.64,196a33.61,33.61,0,1,1-25,11.1,33.52,33.52,0,0,1,25-11.1m0-2a35.59,35.59,0,1,0,23.84,9.16A35.68,35.68,0,0,0,379.64,194Z"/>
            </g>
            <path d="M354.67,207.09a33.6,33.6,0,0,1,53.48,4.72,33.6,33.6,0,0,1-62.1,16.54A33.46,33.46,0,0,1,354.67,207.09Z" style="fill: #e21d67"/>
            <circle cx="388.34" cy="222.25" r="6.14" style="fill: #eeede1"/>
            <circle cx="378.01" cy="212" r="3.07" style="fill: #eeede1"/>
          </g>
          <path d="M506.44,94c-3.79,37.53-28.52,102-84.31,168.92-41.21,49.46-111.8,84.34-149.42,100.46l23.82,21.45S373.34,358.8,426.36,293c26.46-32.86,46.68-71.75,60.33-106.68C503.66,143.08,510.44,106,506.44,94Z" style="fill: #e21d67"/>
          <path d="M496.78,89c3.73,0,6.42.63,7.85,1.92,7.26,6.54,1,47.17-17.93,95.38l-75.08-67.59C448.59,99.56,481.49,89,496.78,89m0-2c-16.93,0-51.52,12-86.08,29.93a2,2,0,0,0-.42,3.26l75.08,67.59a2,2,0,0,0,1.34.52,1.88,1.88,0,0,0,.46-.06,2,2,0,0,0,1.4-1.21c8.91-22.72,15.62-45.34,18.89-63.7,2.28-12.8,3.87-29.08-1.48-33.9-1.82-1.63-4.83-2.43-9.19-2.43Z"/>
          <g>
            <g>
              <path d="M298.5,369.23a2.83,2.83,0,1,0,4-.2A2.83,2.83,0,0,0,298.5,369.23Z" style="fill: #fff"/>
              <path d="M300.6,368.3a2.79,2.79,0,0,1,1.89.73A2.83,2.83,0,0,1,300.6,374a2.79,2.79,0,0,1-1.89-.73,2.83,2.83,0,0,1,1.89-4.93m0-2a4.83,4.83,0,0,0-3.59,1.6A4.83,4.83,0,0,0,300.6,376a4.86,4.86,0,0,0,3.59-1.6,4.83,4.83,0,0,0-3.59-8.06Z"/>
            </g>
            <g>
              <path d="M285.14,357.21a2.83,2.83,0,1,0,4-.21A2.84,2.84,0,0,0,285.14,357.21Z" style="fill: #fff"/>
              <path d="M287.25,356.27a2.81,2.81,0,0,1,1.89.73,2.83,2.83,0,1,1-1.89-.73m0-2a4.85,4.85,0,0,0-3.59,1.6,4.82,4.82,0,0,0,.35,6.82,4.83,4.83,0,1,0,3.24-8.42Z"/>
            </g>
            <g>
              <path d="M271.79,345.19a2.83,2.83,0,1,0,4-.21A2.82,2.82,0,0,0,271.79,345.19Z" style="fill: #fff"/>
              <path d="M273.89,344.25a2.83,2.83,0,1,1-2.1.94,2.81,2.81,0,0,1,2.1-.94m0-2a4.83,4.83,0,1,0,3.23,1.24,4.81,4.81,0,0,0-3.23-1.24Z"/>
            </g>
            <g>
              <path d="M258.43,333.16a2.83,2.83,0,1,0,4-.21A2.84,2.84,0,0,0,258.43,333.16Z" style="fill: #fff"/>
              <path d="M260.53,332.23a2.83,2.83,0,1,1,0,5.66,2.81,2.81,0,0,1-1.89-.73,2.83,2.83,0,0,1,1.89-4.93m0-2a4.84,4.84,0,0,0-3.59,1.6,4.82,4.82,0,0,0,.36,6.81,4.83,4.83,0,1,0,3.23-8.41Z"/>
            </g>
            <g>
              <path d="M245.08,321.14a2.83,2.83,0,1,0,4-.21A2.82,2.82,0,0,0,245.08,321.14Z" style="fill: #fff"/>
              <path d="M247.18,320.2a2.83,2.83,0,1,1-2.1.94,2.81,2.81,0,0,1,2.1-.94m0-2a4.83,4.83,0,0,0-4.82,5.09,4.83,4.83,0,0,0,4.82,4.57,4.84,4.84,0,0,0,3.59-1.6,4.83,4.83,0,0,0-3.59-8.06Z"/>
            </g>
          </g>
          <g>
            <g>
              <path d="M480.75,166.91a2.83,2.83,0,1,0,4-.21A2.83,2.83,0,0,0,480.75,166.91Z" style="fill: #fff"/>
              <path d="M482.86,166a2.83,2.83,0,1,1-2.11.94,2.81,2.81,0,0,1,2.11-.94m0-2a4.83,4.83,0,1,0,3.23,1.24,4.81,4.81,0,0,0-3.23-1.24Z"/>
            </g>
            <g>
              <path d="M467.4,154.88a2.83,2.83,0,1,0,4-.21A2.83,2.83,0,0,0,467.4,154.88Z" style="fill: #fff"/>
              <path d="M469.5,154a2.83,2.83,0,1,1-2.1.93,2.83,2.83,0,0,1,2.1-.93m0-2a4.83,4.83,0,0,0-3.59,1.6,4.83,4.83,0,0,0,3.59,8,4.81,4.81,0,0,0,4.82-5.08,4.74,4.74,0,0,0-1.59-3.33A4.81,4.81,0,0,0,469.5,152Z"/>
            </g>
            <g>
              <path d="M454,142.86a2.83,2.83,0,1,0,4-.21A2.83,2.83,0,0,0,454,142.86Z" style="fill: #fff"/>
              <path d="M456.15,141.92a2.83,2.83,0,1,1-2.11.94,2.81,2.81,0,0,1,2.11-.94m0-2a4.82,4.82,0,1,0,3.23,1.24,4.85,4.85,0,0,0-3.23-1.24Z"/>
            </g>
            <g>
              <path d="M440.69,130.84a2.83,2.83,0,1,0,4-.21A2.82,2.82,0,0,0,440.69,130.84Z" style="fill: #fff"/>
              <path d="M442.79,129.9a2.83,2.83,0,1,1-2.1.94,2.81,2.81,0,0,1,2.1-.94m0-2a4.83,4.83,0,0,0,0,9.66,4.86,4.86,0,0,0,3.59-1.6,4.83,4.83,0,0,0-3.59-8.06Z"/>
            </g>
            <g>
              <path d="M427.33,118.81a2.83,2.83,0,1,0,4-.21A2.84,2.84,0,0,0,427.33,118.81Z" style="fill: #fff"/>
              <path d="M429.43,117.88a2.82,2.82,0,0,1,2.11,4.72,2.83,2.83,0,1,1-2.11-4.72m0-2a4.83,4.83,0,1,0,3.59,8.05,4.83,4.83,0,0,0-3.59-8.05Z"/>
            </g>
          </g>
        </g>
      </g>
    </g>
    <g id="e0c2187d-291f-4517-9d60-09b38ba202c0" data-name="astronaut">
      <g>
        <path d="M447.63,634.3c-24.7-17.18-9.66-119.19,3.22-139.6S673.13,460.34,700,476.45s46.17,303.89,47.25,326.44S721.46,862,711.79,869.47s-61.21,8.59-61.21,8.59Z"/>
        <path d="M635.47,469.43c31.29,0,56.34,2.12,64.51,7,26.84,16.11,46.17,303.89,47.25,326.44S721.46,862,711.79,869.47s-61.21,8.59-61.21,8.59l-203-243.76c-24.7-17.18-9.66-119.19,3.22-139.6,9-14.19,113.07-25.27,184.62-25.27m0-2v0a1002.88,1002.88,0,0,0-116,7.33c-19,2.4-34.69,5.11-46.51,8.07-13.54,3.38-21.31,6.92-23.77,10.81-6.85,10.84-13.73,41.76-16,71.92-1.63,21.57-2.08,59.28,13.11,70.22L649.05,879.34a2,2,0,0,0,1.53.72h0c5.35-.11,52.5-1.31,62.4-9s37.32-44.78,36.2-68.25c-.39-8.2-5.28-85.64-14-165.76-4.78-44.09-9.75-79.86-14.76-106.33-8.48-44.78-15.18-53.39-19.49-56-10.06-6-41.19-7.3-65.53-7.3Z"/>
      </g>
      <g>
        <path d="M747.23,802.89c-1.08-22.55-20.41-310.33-47.25-326.44-7.66-4.6-30.18-6.74-58.75-7q15.28,31.26,33.41,61l.64-3.6L723.55,856.5C734.77,841.78,748,818.85,747.23,802.89Z" style="fill: #fff"/>
        <path d="M723.55,857.5a1.07,1.07,0,0,1-.25,0,1,1,0,0,1-.74-.82L674.94,531.43l-.11,0a1,1,0,0,1-1-.47c-12-19.6-23.22-40.16-33.46-61.09a1,1,0,0,1,.91-1.44c21.93.19,50,1.58,59.25,7.13,28.55,17.13,47.59,324.18,47.74,327.25.75,15.92-11.84,38.47-23.89,54.27A1,1,0,0,1,723.55,857.5ZM675.28,525.87h0a1,1,0,0,1,1,.86L724.19,854c10.92-14.8,22.74-36.29,22-51-1.73-36.38-21.38-310.4-46.77-325.63-6.79-4.08-26.86-6.5-56.62-6.84,9.62,19.58,20.13,38.81,31.28,57.22l.18-1A1,1,0,0,1,675.28,525.87Z"/>
      </g>
      <g>
        <path d="M675.53,725.92C811.29,693.1,811.46,580.48,813.6,552.56s9.67-88-14-79.46-52.62-22.55-65.51-3.22-33.29,116-33.29,116-32.53,8.84-51.54,11.81C615,603,437.43,586.52,437.43,586.52c-33.29-6.45-53.69,20.4-68.73,38.65s-48.32,43-62.28,45.1-24.69,27.92-6.44,51.55,82.68,0,98.79,0a349,349,0,0,0,12.89,45.1c8.59,23.62,7.51,89.12,10.74,109.53.93,5.94-2.14,15.81-6.3,29.67,93.83,10.3,195-1.88,276.26-27.28-2.36-7.7-5.16-15.84-8.49-24.41,0,0-7.71-91.4-21.67-124.69,0,0,5.41-1.43,13.33-3.82Z" style="fill: #fff"/>
        <path d="M746.21,463.44c12.26,0,28.79,11.2,44.28,11.2a26.47,26.47,0,0,0,9.16-1.54,12.56,12.56,0,0,1,4.26-.83c18.39,0,11.7,54.21,9.69,80.29-2.14,27.92-2.31,140.54-138.07,173.36h0c-7.92,2.39-13.33,3.82-13.33,3.82,14,33.29,21.67,124.69,21.67,124.69,3.33,8.57,6.13,16.71,8.49,24.41-61.66,19.28-134.8,30.94-207.49,30.94a632.31,632.31,0,0,1-68.77-3.66c4.16-13.86,7.23-23.73,6.3-29.67-3.23-20.41-2.15-85.91-10.74-109.53a349,349,0,0,1-12.89-45.1c-10.74,0-42.95,10.5-68.64,10.5-12.85,0-24.07-2.63-30.15-10.5-18.25-23.63-7.52-49.4,6.44-51.55s47.25-26.84,62.28-45.1c13.48-16.36,31.27-39.63,58.8-39.63a51.92,51.92,0,0,1,9.93,1s131.36,12.22,190,12.22c9.52,0,17.13-.32,21.93-1.08,19-3,51.54-11.81,51.54-11.81s20.41-96.64,33.29-116a13.52,13.52,0,0,1,12.07-6.44m0-2v0a15.42,15.42,0,0,0-13.73,7.33c-12.32,18.48-30.83,103.77-33.33,115.47-6,1.6-33.49,8.85-50.15,11.45-4.46.7-11.73,1-21.62,1-57.16,0-185.45-11.82-189.67-12.21a54.3,54.3,0,0,0-10.21-1c-27.25,0-45.31,22-58.5,38.13l-1.84,2.23c-15.12,18.36-48.2,42.42-61,44.4-6.49,1-12.24,6.29-15.39,14.17-5.05,12.65-2.19,27.82,7.67,40.57,5.86,7.59,16.24,11.28,31.73,11.28,15.81,0,33.76-3.86,48.17-7,7.77-1.67,14.61-3.14,18.86-3.47a358,358,0,0,0,12.62,43.71c5.43,14.95,7,47.71,8.19,74,.69,14.9,1.29,27.77,2.45,35.12.83,5.27-1.94,14.48-5.77,27.22l-.46,1.56a2,2,0,0,0,1.69,2.57,636.8,636.8,0,0,0,69,3.67c70.19,0,144.09-11,208.09-31a2,2,0,0,0,1.32-2.5c-2.46-8-5.3-16.16-8.44-24.27-.56-6.52-7.82-88.86-21-122.9,2.3-.63,6.27-1.75,11.17-3.23,130.37-31.54,137-136,139.22-170.37.11-1.79.21-3.38.32-4.76.2-2.61.45-5.51.71-8.59,2.16-25.19,5.11-59.68-4.75-70.42a10.05,10.05,0,0,0-7.65-3.44,14.61,14.61,0,0,0-4.95,1,24.44,24.44,0,0,1-8.47,1.42c-7.84,0-16-3-24-6-7.28-2.69-14.16-5.23-20.29-5.23Z"/>
      </g>
      <path d="M813.3,557.12c-11.21-14.32-27.59-24.66-45.53-27.8-19.9-3.48-41,2-57.16,14-2.77,11.29,46.64,31.24,55.75,32.82,6.82,1.18,6.36,32.22,10.73,37.58,5.71,7-17.71,34.91-23.4,41.93-9.53,11.76-20,23.14-33,30.83s-29.13,11.34-43.57,6.8c-25.78-8.08-37.86-40.55-30.53-66.55,1.5-5.33,3.65-10.56,4-16.09.26-4.58-1.08-9.56-4.31-12.64-7.18.72-18.32.83-31.81.52a315.65,315.65,0,0,1-130.16-8c-27.33-2.23-46.83-4-46.83-4-1.13-.22-2.25-.4-3.35-.54a23.77,23.77,0,0,0,1.49,2.88c13,22.28,27.22,45.75,50.27,57.34,28.58,14.37,62.95,6.74,93.44-2.94,9.68-3.07,21.71-5.82,28.83,1.43,4.85,4.93,5.23,12.55,6,19.42A108.69,108.69,0,0,0,630.17,710c7,11.15,16.2,21.15,20.91,33.47,6,15.74,4.07,33.23,5.18,50.05a135.51,135.51,0,0,0,25,69.74,33.18,33.18,0,0,0,8.85,8.67c-1.86-5.61-3.94-11.42-6.28-17.46,0,0-7.71-91.4-21.67-124.69,0,0,5.41-1.43,13.33-3.82h0C804.81,694.67,811.13,591.05,813.3,557.12Z" style="fill: #e21d67"/>
      <path d="M679.58,527.92h-.15a1,1,0,0,1-.84-1.13c4.29-30,22.66-48.93,22.85-49.12a1,1,0,0,1,1.41,0,1,1,0,0,1,0,1.42c-.18.18-18.1,18.62-22.29,48A1,1,0,0,1,679.58,527.92Z"/>
      <g>
        <path d="M297.3,683.7c-17.19,0-35.44,5.37-32.22,14l3.22,8.59s-7.51,4.29,0,10.73c0,0,1.08,8.6,6.45,11.82s-1.08,10.74,10.73,9.66c0,0-6.44,7.52-2.14,8.59l4.29,1.08s5.37-5.37,12.89-5.37,20.4-6.45,20.4-12.89S297.3,683.7,297.3,683.7Z"/>
        <path d="M297.3,683.7s23.62,39.73,23.62,46.17-12.89,12.89-20.4,12.89-12.89,5.37-12.89,5.37l-4.29-1.08c-4.3-1.07,2.14-8.59,2.14-8.59-.77.07-1.47.11-2.1.11-8.91,0-3.62-6.76-8.63-9.77-5.37-3.22-6.45-11.82-6.45-11.82-7.51-6.44,0-10.73,0-10.73l-3.22-8.59c-3.22-8.59,15-14,32.22-14m0-2c-12.73,0-28.55,3.06-33.2,9.77a7.2,7.2,0,0,0-.89,6.89l2.69,7.17a8,8,0,0,0-2.91,5.19c-.24,2.49.92,4.94,3.45,7.28.42,2.36,2.1,9.41,7.28,12.51,1.22.74,1.44,1.78,1.72,3.55.37,2.34.92,5.76,6.11,6.4-1.17,1.93-2.09,4.21-1.5,6a3.7,3.7,0,0,0,2.8,2.48l4.3,1.08a2,2,0,0,0,.48.06,2,2,0,0,0,1.42-.59s4.91-4.78,11.47-4.78c8.44,0,22.4-7,22.4-14.89,0-6.65-19.91-40.48-23.91-47.2a2,2,0,0,0-1.71-1Z"/>
      </g>
      <path d="M387.13,662.74c-4.11-22.23-4.29-47.23,9.6-65.08-12.21,7.42-18.12,22-20.48,36.11s-2,28.61-5.51,42.45S358.56,703.85,344.9,708s-31.26-6.41-29.79-20.62c.68-6.61,5.09-12.76,4.18-19.34a11.13,11.13,0,0,0-.63-2.48c-4.79,2.53-9,4.22-12.24,4.71-14,2.15-24.69,27.92-6.44,51.55,17.74,22.95,79,1.3,97.3.06C397,702,390.78,682.43,387.13,662.74Z" style="fill: #e21d67"/>
      <g>
        <path d="M398.77,721.82c-8.59-37.59-31.14-113.68,10.2-132.55" style="fill: #fff"/>
        <path d="M398.77,722.82a1,1,0,0,1-1-.78c-.74-3.24-1.59-6.77-2.49-10.52C385.86,672,370,605.94,408.56,588.36a1,1,0,0,1,.83,1.82c-37,16.9-21.44,82-12.13,120.87.9,3.76,1.74,7.3,2.49,10.54a1,1,0,0,1-.76,1.2A.83.83,0,0,1,398.77,722.82Z"/>
      </g>
      <path d="M315.7,722.67a1,1,0,0,1-.66-.26,41.23,41.23,0,0,1-6.63-53.85,1,1,0,1,1,1.65,1.12,39.24,39.24,0,0,0,6.31,51.24,1,1,0,0,1,.08,1.41A1,1,0,0,1,315.7,722.67Z"/>
      <path d="M358.47,724.42c-3.52,0-7-2.63-9.42-7.23-.42-.76-.8-1.55-1.19-2.34-1.33-2.7-2.59-5.25-4.76-7s-4.56-2.2-7.25-2.86a31.66,31.66,0,0,1-5.39-1.67c-8.69-3.85-11.78-14.13-11-22.07.85-8.53,5.26-16.23,9.7-23.39a1,1,0,1,1,1.7,1.06c-4.32,6.95-8.6,14.43-9.41,22.53-.76,7.47,2.37,16.75,9.8,20a30.32,30.32,0,0,0,5.06,1.56c2.77.68,5.64,1.39,8,3.23,2.54,2,3.95,4.85,5.32,7.64.38.77.76,1.53,1.16,2.28,1,1.88,3.75,6.25,7.77,6.17h0a1,1,0,0,1,0,2Z"/>
      <path d="M376.5,707.62a1,1,0,0,1-.82-.42,88.19,88.19,0,0,1-11.58-77.69,1,1,0,0,1,1.9.63A86.15,86.15,0,0,0,377.31,706a1,1,0,0,1-.24,1.4A1,1,0,0,1,376.5,707.62Z"/>
      <rect x="284.76" y="735.83" width="13.88" height="2" transform="translate(-274.83 182.7) rotate(-24.04)" style="fill: #fff"/>
      <path d="M671.32,831a1,1,0,0,1-1-.79L664.83,804a1,1,0,0,1,.6-1.14,1,1,0,0,1,1.22.39l1.14,1.79a1,1,0,0,1-.31,1.38l-.09,0,4.91,23.41a1,1,0,0,1-.77,1.18Z"/>
      <path d="M664.35,829.62a1,1,0,0,1-1-.83l-2.23-12.55a1,1,0,0,1,2-.35l2.23,12.55a1,1,0,0,1-.81,1.16Z"/>
      <path d="M410.35,726.92a1,1,0,0,1-.92-.61,52,52,0,0,1-3.8-24.85,1,1,0,1,1,2,.18,49.94,49.94,0,0,0,3.65,23.89,1,1,0,0,1-.53,1.31A.91.91,0,0,1,410.35,726.92Z"/>
      <path d="M413.91,729.89a1,1,0,0,1-1-.94l-.75-11.81a1,1,0,0,1,.93-1.07,1,1,0,0,1,1.06.94l.76,11.82a1,1,0,0,1-.94,1.06Z"/>
      <g>
        <path d="M542.35,713.74a203.92,203.92,0,0,1,29.29,2c5.14.75,10.85,2.12,13.54,6.56,1.76,2.88,1.83,6.45,1.84,9.83q.12,33.9.23,67.8c0,5.29-.17,11.12-3.76,15-2.72,2.94-6.82,4.08-10.72,5a244,244,0,0,1-104.67,1.53c-3.13-.64-6.45-1.46-8.66-3.79-2.44-2.58-2.92-6.39-3.28-9.93q-2.3-22.63-4.6-45.26c-.85-8.34-2.35-16.87-1-25.23,1.7-10.49,5.18-13.85,15.41-15.48,25.28-4,50.89-8,76.38-8m0-2c-26,0-51.75,4.11-76.69,8.07-11.12,1.77-15.26,5.94-17.07,17.14-1.15,7.12-.32,14.3.48,21.23.17,1.51.34,3,.5,4.52l3,29.64L454.17,808c.34,3.34.81,7.92,3.82,11.11,2.58,2.72,6.21,3.65,9.71,4.37a246.1,246.1,0,0,0,105.53-1.54c4.24-1,8.64-2.26,11.73-5.6,4-4.31,4.31-10.45,4.29-16.37L589,732.14c0-3.31,0-7.43-2.13-10.88-3.13-5.13-9.32-6.66-15-7.49a204.45,204.45,0,0,0-29.58-2Z"/>
        <path d="M583.49,815c3.59-3.89,3.78-9.72,3.76-15q-.12-33.9-.23-67.8c0-3.38-.08-6.95-1.84-9.83a11,11,0,0,0-4.36-4c-6.58,8,3.64,72-13.46,85.08-15.65,12-81.07,8.15-111.57.72l.37,3.61c.36,3.54.84,7.35,3.28,9.93,2.21,2.33,5.53,3.14,8.66,3.79A244.07,244.07,0,0,0,572.77,820C576.67,819,580.77,817.89,583.49,815Z" style="fill: #e21d67"/>
        <path d="M490.86,824.2a1,1,0,0,1-.95-.7,94.82,94.82,0,0,1-4.58-28.36c0-1.71-.12-3.61-1.28-4.37a4.9,4.9,0,0,0-2.75-.45l-9.66.19A99,99,0,0,0,475.18,821a1,1,0,0,1-.7,1.23,1,1,0,0,1-1.23-.7,100.74,100.74,0,0,1-3.56-32,1,1,0,0,1,1-1l10.59-.21a6.64,6.64,0,0,1,3.9.78c2,1.31,2.16,3.8,2.17,6a92.83,92.83,0,0,0,4.48,27.76,1,1,0,0,1-.64,1.26A1.12,1.12,0,0,1,490.86,824.2Z"/>
        <path d="M512.53,826.17a1,1,0,0,1-1-.81l-5.69-29.83a5.47,5.47,0,0,1,.25-3.78c1.16-2,3.76-2,5.61-1.87l9.24.84a6.49,6.49,0,0,1,3.25.92c2.2,1.52,2,4.59,1.94,6.42a60.16,60.16,0,0,0,4.48,26.14,1,1,0,0,1-.54,1.3,1,1,0,0,1-1.31-.54,62.14,62.14,0,0,1-4.63-27c.1-1.91.11-3.85-1.08-4.67a5,5,0,0,0-2.29-.57l-9.24-.84c-2.07-.19-3.25.09-3.69.87a3.79,3.79,0,0,0,0,2.42l5.7,29.83a1,1,0,0,1-.8,1.17Z"/>
        <path d="M542,734.59a5,5,0,0,1-2.63-.72h0c-3.94-2.45-3.39-5.12-3-6.16,1.05-2.58,4.85-4.41,7.81-3.77,1.15.26,3.83,1.3,3.63,5.48a5.47,5.47,0,0,1-3.05,4.47A6,6,0,0,1,542,734.59Zm-1.57-2.42a3.47,3.47,0,0,0,3.43,0,3.52,3.52,0,0,0,2-2.8c.09-2-.61-3.1-2.07-3.42-2-.45-4.83.85-5.53,2.57-.63,1.55.84,2.87,2.18,3.7Z"/>
        <path d="M558,735.79a4.64,4.64,0,0,1-1.89-.4,6.72,6.72,0,0,1-3.56-5.09c-.45-2.37.12-4.55,1.49-5.69.86-.71,2.41-1.36,4.92-.38a7.61,7.61,0,0,1,4.8,5.94,4.75,4.75,0,0,1-2.46,4.58h0A6.32,6.32,0,0,1,558,735.79Zm-1.41-10a2,2,0,0,0-1.27.4c-.8.67-1.11,2.15-.81,3.79a4.85,4.85,0,0,0,2.41,3.63,3.5,3.5,0,0,0,3.33-.52h0a2.71,2.71,0,0,0,1.51-2.69,5.69,5.69,0,0,0-3.52-4.26A4.77,4.77,0,0,0,556.63,725.74Z"/>
        <path d="M572.24,734.41a6.14,6.14,0,0,1-3.26-1,5.8,5.8,0,0,1-2.69-4,5.48,5.48,0,0,1,1.36-4.4,4.64,4.64,0,0,1,1-.9,1,1,0,0,1,.49-.72,5.86,5.86,0,1,1,4.52,10.76A5.1,5.1,0,0,1,572.24,734.41ZM571,725.49a2.53,2.53,0,0,0-1.84.91,3.45,3.45,0,0,0-.88,2.76,3.9,3.9,0,1,0,5-4.18,4.45,4.45,0,0,0-1.22-.23,1,1,0,0,1-1,.74Z"/>
        <path d="M450.17,755a1,1,0,0,1-.14-2,332.28,332.28,0,0,1,74.64-2.83,1,1,0,1,1-.15,2,331.22,331.22,0,0,0-74.19,2.81Z"/>
        <path d="M484.85,766.64a5,5,0,0,1-2.89-1,4.61,4.61,0,0,1-2-4.11s0-.06,0-.09a.17.17,0,0,1,0-.07,4.58,4.58,0,1,1,6.45,4.93A4.17,4.17,0,0,1,484.85,766.64ZM482,761.72v0a2.32,2.32,0,1,0,0-.09Z"/>
        <path d="M498.71,766.57a4.28,4.28,0,0,1-1.68-.34,4.94,4.94,0,0,1-2.77-5.37,1,1,0,0,1,1.16-.8,1,1,0,0,1,.62.38,3.9,3.9,0,0,1,4.18-1.84,3.82,3.82,0,0,1,2.44,2.12,4.07,4.07,0,0,1,.07,3.41A4.44,4.44,0,0,1,498.71,766.57Zm-2-3.2a2.63,2.63,0,0,0,1.15,1,2.48,2.48,0,0,0,3.09-1.1,2.08,2.08,0,0,0-.06-1.72,1.87,1.87,0,0,0-1.14-1,1.76,1.76,0,0,0-1.54.43,1.56,1.56,0,0,0-.6,1.31,1,1,0,0,1-.89,1.1Z"/>
        <path d="M430.69,773.63a108.18,108.18,0,0,1-18.09-1.52,1,1,0,0,1-.82-1.15,1,1,0,0,1,1.16-.82,106.11,106.11,0,0,0,39.32-.72,1,1,0,0,1,.41,2A108.74,108.74,0,0,1,430.69,773.63Z"/>
        <path d="M424.35,781.56c-3.33,0-6.66-.15-10-.47a1,1,0,1,1,.19-2,103.08,103.08,0,0,0,38.12-3.51,1,1,0,0,1,1.24.69,1,1,0,0,1-.69,1.23A104.71,104.71,0,0,1,424.35,781.56Z"/>
        <path d="M615.21,765.76a190.82,190.82,0,0,1-28-2,1,1,0,0,1-.84-1.13,1,1,0,0,1,1.14-.85,192,192,0,0,0,74.19-3.67,1,1,0,1,1,.48,1.94A193.38,193.38,0,0,1,615.21,765.76Z"/>
        <path d="M614.87,772.92A162.6,162.6,0,0,1,588,770.69a1,1,0,0,1-.82-1.16,1,1,0,0,1,1.15-.82A161.47,161.47,0,0,0,664.79,763a1,1,0,0,1,1.26.64,1,1,0,0,1-.64,1.26A163.35,163.35,0,0,1,614.87,772.92Z"/>
      </g>
      <g>
        <circle cx="542.4" cy="496.02" r="137.8" style="fill: #fff"/>
        <path d="M542.4,358.22a137.81,137.81,0,1,1-97,40,137.41,137.41,0,0,1,97-40m0-2a139.79,139.79,0,1,0,99.25,41.34,138.9,138.9,0,0,0-99.25-41.34Z"/>
      </g>
      <path d="M657.5,420.23A137.8,137.8,0,0,1,504.93,628.62c30.51,6.47,97.27-12.43,134.15-55.47C688.25,515.76,664.33,444.05,657.5,420.23Z" style="fill: #e21d67"/>
      <g>
        <path d="M445.35,398.2a137.18,137.18,0,0,1,70.15-37.32C619.81,440,579.18,566.09,579.18,566.09c-51.76,32.06-92.4,41.1-124.28,36.4q-5.34-4.4-10.33-9.41A137.8,137.8,0,0,1,445.35,398.2Z"/>
        <path d="M515.5,360.88C619.81,440,579.18,566.09,579.18,566.09c-43.36,26.86-78.93,37.56-108.07,37.56a111.32,111.32,0,0,1-16.21-1.16q-5.34-4.4-10.33-9.41a137.8,137.8,0,0,1,70.93-232.2m0-2a1.72,1.72,0,0,0-.39,0,139.8,139.8,0,0,0-72,235.57A141.46,141.46,0,0,0,453.63,604a1.91,1.91,0,0,0,1,.44,112.93,112.93,0,0,0,16.5,1.18c31.85,0,68.56-12.74,109.12-37.86a2,2,0,0,0,.85-1.09c.1-.32,10.24-32.36,7.37-73.68a187.53,187.53,0,0,0-17.19-67.55c-12.15-25.67-30.5-47.94-54.55-66.18a2,2,0,0,0-1.21-.41Z"/>
      </g>
      <path d="M516.22,539.49c-24.57,23-65.22,22.16-104,1.74a137.92,137.92,0,0,1,66.69-167.51c4.44,3.93,8.79,8.13,13,12.61C540.33,438.18,551.23,506.75,516.22,539.49Z" style="fill: #e21d67"/>
      <circle cx="477.77" cy="430.57" r="15.07" style="fill: #eeede1"/>
      <circle cx="429.26" cy="471.06" r="9.42" style="fill: #eeede1"/>
      <g>
        <path d="M582.43,543.61S633.51,459.9,541,358.24c0,0-12.94-8.12-25,1.16C516.07,359.4,603.38,425.32,582.43,543.61Z" style="fill: #fff"/>
        <path d="M528.88,355A25.09,25.09,0,0,1,541,358.24c92.48,101.66,41.4,185.37,41.4,185.37,21-118.29-66.36-184.21-66.36-184.21A20.57,20.57,0,0,1,528.88,355m0-2a22.54,22.54,0,0,0-14,4.87,2,2,0,0,0,0,3.18c.22.16,21.84,16.7,40.63,47.33,17.3,28.21,35.67,74.52,25,134.94a2,2,0,0,0,3.68,1.39c.53-.88,13.06-21.77,14.27-55.54a155.23,155.23,0,0,0-10-59.73c-9.18-24.73-24.61-49.12-45.88-72.5a2.06,2.06,0,0,0-.42-.35A27.09,27.09,0,0,0,528.88,353Z"/>
      </g>
      <g>
        <path d="M560.5,572.67s-52.3,39-108.75,27.14c0,0,1.63,14.93,16.5,12.39C468.25,612.2,527.06,611.16,560.5,572.67Z" style="fill: #fff"/>
        <path d="M560.5,572.67h0m0,0c-33.44,38.49-92.25,39.53-92.25,39.53a19.3,19.3,0,0,1-3.26.29c-11.85,0-13.24-12.68-13.24-12.68a107.43,107.43,0,0,0,22,2.23c47.35,0,86.78-29.37,86.78-29.37m0-2h0a1.93,1.93,0,0,0-1.2.41c-.9.65-39.78,29-85.58,29a105.61,105.61,0,0,1-21.56-2.19,2,2,0,0,0-.41,0,2,2,0,0,0-2,2.22c.55,5,4.44,14.46,15.23,14.46a20.7,20.7,0,0,0,3.44-.3,155.64,155.64,0,0,0,33.92-5.39c17.48-4.69,42-14.54,59.62-34.77a2,2,0,0,0,.54-1.36,2,2,0,0,0-2-2Zm0,4h0Z"/>
      </g>
      <g>
        <ellipse cx="560.72" cy="571.98" rx="39.96" ry="30.74" transform="translate(-240.18 560.85) rotate(-44.77)"/>
        <path d="M569.9,536.36c7.38,0,14.2,2.44,19.19,7.48,12,12,8.95,34.42-6.72,50-9.12,9.05-20.53,13.79-30.83,13.79-7.38,0-14.2-2.44-19.19-7.47-12-12-9-34.43,6.72-50,9.13-9,20.53-13.8,30.83-13.8m0-2c-11.28,0-23,5.24-32.24,14.38-7.89,7.83-13,17.57-14.29,27.45-1.36,10.06,1.33,19.07,7.56,25.35,5.23,5.27,12.36,8.06,20.61,8.06,11.28,0,23-5.24,32.24-14.37,7.89-7.83,13-17.58,14.29-27.45,1.36-10.07-1.33-19.07-7.56-25.35-5.23-5.28-12.36-8.07-20.61-8.07Z"/>
      </g>
      <path d="M671.84,449.68a1,1,0,0,1-.86-.49,191.65,191.65,0,0,0-30.64-37.28C622.8,395.46,595,376.77,562.22,381.1a1,1,0,0,1-.26-2c33.57-4.44,61.92,14.61,79.78,31.36a193.83,193.83,0,0,1,31,37.69,1,1,0,0,1-.35,1.37A1,1,0,0,1,671.84,449.68Z"/>
      <path d="M678.18,467.9a1,1,0,0,1-.92-.63c-.07-.17-7.1-17.2-23.38-34.16-15-15.62-41.13-34.37-80.56-35a1,1,0,0,1-1-1,1,1,0,0,1,1-1h0c40.15.67,66.77,19.78,82,35.69a124.16,124.16,0,0,1,23.73,34.74,1,1,0,0,1-.93,1.38Z"/>
      <path d="M522.88,596.75a48.35,48.35,0,0,1,62.37-57.13l-.63,1.9a46.35,46.35,0,0,0-59.79,54.76Z" style="fill: #fff"/>
      <path d="M533.87,581.13l-1.92-.56c3.35-11.51,10.44-21.09,19.45-26.28,10.25-5.91,23.16-5.85,32.13.16l-1.12,1.66c-8.34-5.59-20.41-5.63-30-.09C543.83,561,537.08,570.11,533.87,581.13Z" style="fill: #fff"/>
      <path d="M564.55,467.29l-2-.05a108.14,108.14,0,0,0-16.47-59.49l1.69-1.07A110.15,110.15,0,0,1,564.55,467.29Z" style="fill: #fff"/>
      <path d="M540.88,423.55a220.89,220.89,0,0,0-12-27l1.77-.93a222.57,222.57,0,0,1,12.13,27.24Z" style="fill: #fff"/>
      <path d="M644.77,551.61a1.26,1.26,0,0,1-.27,0,1,1,0,0,1-.7-1.24l8.56-30.4a1,1,0,1,1,1.93.54l-8.56,30.41A1,1,0,0,1,644.77,551.61Z"/>
      <path d="M630.57,569.8a1,1,0,0,1-.33-.06,1,1,0,0,1-.62-1.27l11.19-32.67a1,1,0,1,1,1.9.64l-11.2,32.68A1,1,0,0,1,630.57,569.8Z"/>
      <g>
        <path d="M727.54,585.13c-11.23-2.39-18.63-13.91-20-25.31s2.08-22.75,5.46-33.72a79.73,79.73,0,0,1,.1-73.44c9.42-17.71,25.6-31.78,31.67-50.9,3.71-11.7,3.26-24.32,1.61-36.49-1.52-11.24-3.88-23.38,1.46-33.39,5.8-10.88,20-15.72,31.91-12.36s21,13.68,24.89,25.38,3.05,24.57-.23,36.46c-2.76,10-7.2,19.54-8.61,29.8s.93,21.93,9.25,28.1c9.31,6.92,22.43,4.71,33.46,8.32a32.3,32.3,0,0,1,15.18,50.83c-3.48,4.37-8.29,8.21-9.26,13.71-1.5,8.48,6.9,16,6.5,24.61-.41,8.92-9.57,14.38-15.21,21.31-3.82,4.7-6.13,10.42-8.66,15.92-9.09,19.83-23.44,39.36-44.51,45a47,47,0,0,1-36.16-5.15c-10.69-6.49-16.58-16.48-19.28-28.7Z" style="fill: #fff"/>
        <path d="M772.07,318.47a28.3,28.3,0,0,1,7.72,1c11.86,3.36,21,13.68,24.89,25.38s3.05,24.57-.23,36.46c-2.76,10-7.2,19.54-8.61,29.8s.93,21.93,9.25,28.1c9.31,6.92,22.43,4.71,33.46,8.32a32.3,32.3,0,0,1,15.18,50.83c-3.48,4.37-8.29,8.21-9.26,13.71-1.49,8.48,6.9,16,6.5,24.61-.41,8.92-9.57,14.38-15.21,21.31-3.82,4.7-6.13,10.42-8.66,15.92-9.09,19.83-23.44,39.36-44.51,45a45.92,45.92,0,0,1-11.89,1.55,47,47,0,0,1-24.27-6.7c-10.69-6.49-16.58-16.48-19.28-28.7h.39c-11.23-2.39-18.63-13.91-20-25.31s2.08-22.75,5.46-33.72a79.73,79.73,0,0,1,.1-73.44c9.42-17.71,25.6-31.78,31.67-50.9,3.71-11.7,3.26-24.32,1.61-36.49-1.52-11.24-3.88-23.38,1.46-33.39,4.58-8.58,14.41-13.41,24.19-13.41m0-2c-11.08,0-21.27,5.68-26,14.47-5.17,9.7-3.6,20.84-2.08,31.62.14,1,.28,2,.41,3,1.25,9.26,2.45,23-1.54,35.61-3.5,11.05-10.4,20.25-17.69,30-4.89,6.52-9.94,13.26-13.84,20.58a81.77,81.77,0,0,0-.48,74.58c-3.19,10.37-6.66,22-5.29,33.75,1.23,10.6,7.95,23.12,19.84,26.61,3.15,13.19,9.69,22.65,19.95,28.88a48.79,48.79,0,0,0,25.31,7,47.7,47.7,0,0,0,12.41-1.62c23.23-6.24,37.74-28.52,45.81-46.11.35-.75.69-1.51,1-2.27,2.08-4.6,4.23-9.37,7.37-13.23a70.16,70.16,0,0,1,5.35-5.62c4.9-4.79,10-9.74,10.3-16.86.21-4.56-1.7-8.67-3.55-12.65s-3.66-7.86-3-11.7c.62-3.55,3.22-6.43,6-9.48,1-1.07,2-2.18,2.89-3.33a34.3,34.3,0,0,0-16.13-54,69.68,69.68,0,0,0-13.83-2.53c-7.09-.81-13.79-1.58-19.06-5.5-8.08-6-9.67-17.48-8.46-26.22.88-6.39,3-12.7,5.12-18.8,1.19-3.49,2.43-7.11,3.43-10.74,3.78-13.66,3.85-26.67.2-37.62-4.36-13.1-14.41-23.32-26.24-26.67a30.22,30.22,0,0,0-8.26-1.13Z"/>
      </g>
      <path d="M835.76,558c5.64-6.93,14.8-12.39,15.21-21.31.4-8.6-8-16.13-6.5-24.61,1-5.5,5.78-9.34,9.26-13.71a32.3,32.3,0,0,0-15.18-50.83c-.5-.16-1-.29-1.5-.43a19,19,0,0,1-3.87,4.28c-4.62,3.76-10.62,5.44-16.55,6-11.41,1.07-22.8-1.67-34.21-2.69s-23.87,0-32.68,7.36-11.36,22.69-2.55,30c-11.59,10.42-13.2,30.11-3.46,42.28a28.11,28.11,0,0,0-8.39,31.39,48.27,48.27,0,0,0-7.94,20.37c2.8,11.74,8.64,21.35,19,27.66A47,47,0,0,0,782.59,619c21.07-5.66,35.42-25.19,44.51-45C829.63,568.46,831.94,562.74,835.76,558Z"/>
      <path d="M812.92,509.69a1,1,0,0,1-.38-.07c-8.38-3.49-17.81-3.83-26.94-4.16l-.51,0c-10.38-.38-19.65-1-28.05-4.94-8.2-3.84-16.33-12.36-16-22.73.25-8.62,6.53-17,16-21.31,8.28-3.78,17.4-4.31,26.79-4.56h0a1,1,0,0,1,0,2c-9.17.24-18.07.76-26,4.38-8.78,4-14.59,11.68-14.82,19.55-.27,9.46,7.27,17.29,14.87,20.85,8.07,3.78,17.13,4.39,27.28,4.76l.52,0c9.3.34,18.91.68,27.63,4.31a1,1,0,0,1-.39,1.92Z" style="fill: #fff"/>
      <path d="M799,554.47c-19.88,0-48-8.46-54-16.64a1,1,0,0,1,1.61-1.19c5.48,7.46,35.21,16.84,55.68,15.75a1,1,0,0,1,1,.94,1,1,0,0,1-.94,1C801.26,554.44,800.12,554.47,799,554.47Z" style="fill: #fff"/>
      <path d="M776,590.43a37.7,37.7,0,0,1-16.08-3.86c-8.49-4-15.49-10.4-22.25-16.54a1,1,0,0,1,1.34-1.48c6.66,6,13.55,12.3,21.76,16.21,9.06,4.32,18.45,4.85,25.77,1.46a1,1,0,0,1,.84,1.82A27.11,27.11,0,0,1,776,590.43Z" style="fill: #fff"/>
      <path d="M806.3,381.55a31.38,31.38,0,0,1-9.23,5.68A32.08,32.08,0,0,1,767.91,384a37,37,0,0,0,18.64,20.93,27,27,0,0,0,12,2.81C800.09,398.76,803.71,390.28,806.3,381.55Z"/>
      <path d="M660.81,731.14a1,1,0,0,1-.64-.24,99,99,0,0,1-20.39-127.36,1,1,0,0,1,1.71,1,97,97,0,0,0,20,124.8,1,1,0,0,1,.12,1.41A1,1,0,0,1,660.81,731.14Z"/>
      <path d="M702.55,684.36h-.07c-6.64-.44-12.5-5.88-16.94-15.71a112,112,0,0,1-5.62-75.39,1,1,0,1,1,1.92.55,110,110,0,0,0,5.52,74c2.87,6.36,7.85,14,15.25,14.54a1,1,0,0,1-.06,2Z"/>
      <path d="M737.34,625.34a1.06,1.06,0,0,1-.34-.06,59.7,59.7,0,0,1-36.12-38.44,1,1,0,1,1,1.92-.57,57.62,57.62,0,0,0,34.89,37.13,1,1,0,0,1-.35,1.94Z"/>
      <path d="M782.2,503.19a1,1,0,0,1-.76-.35,30.22,30.22,0,0,1,8.38-46,1,1,0,0,1,1,1.74,28.23,28.23,0,0,0-7.83,43,1,1,0,0,1-.76,1.64Z" style="fill: #fff"/>
      <path d="M768.27,547.41a1,1,0,0,1-.65-.24,30.38,30.38,0,0,1-3.4-42.95,1,1,0,0,1,1.52,1.3,28.38,28.38,0,0,0,3.17,40.13,1,1,0,0,1-.64,1.76Z" style="fill: #fff"/>
      <path d="M795.61,550.93a1,1,0,0,1-.8-.4,28.37,28.37,0,0,1,6.75-40.43,1,1,0,1,1,1.13,1.65,26.37,26.37,0,0,0-6.28,37.59,1,1,0,0,1-.2,1.4A1,1,0,0,1,795.61,550.93Z" style="fill: #fff"/>
      <path d="M765.88,583.79a1,1,0,0,1-.7-.29,21.37,21.37,0,0,1,3.59-33.3,1,1,0,0,1,1.38.31,1,1,0,0,1-.31,1.38,19.39,19.39,0,0,0-3.26,30.19,1,1,0,0,1,0,1.41A1,1,0,0,1,765.88,583.79Z" style="fill: #fff"/>
      <path d="M750,608.6a1,1,0,0,1-.64-.23,13.8,13.8,0,0,1,1.24-22.18,1,1,0,0,1,1.38.28,1,1,0,0,1-.28,1.39,11.8,11.8,0,0,0-1.06,19,1,1,0,0,1,.13,1.41A1,1,0,0,1,750,608.6Z" style="fill: #fff"/>
      <path d="M779.18,617a1,1,0,0,1-.7-.29c-7.05-7-7.56-19.36-1.11-26.94a1,1,0,0,1,1.52,1.3c-5.69,6.69-5.23,18,1,24.22a1,1,0,0,1-.71,1.71Z" style="fill: #fff"/>
    </g>
    <g id="b85999be-19a9-4523-ab78-c94c4eef5ee0" data-name="pattern">
      <path d="M836.36,241.79a1,1,0,0,1-1-1l-.22-17L831.21,238a1,1,0,0,1-1.24.69,1,1,0,0,1-.69-1.23l5.81-20.95a1,1,0,0,1,1.09-.72,1,1,0,0,1,.88,1l.3,24a1,1,0,0,1-1,1Z"/>
      <path d="M843.91,247.9a1,1,0,0,1-.33-2,62.64,62.64,0,0,1,8.73-2.4l-11.49-.69a1,1,0,0,1,.12-2l24.69,1.46c1.85,0,3.68.14,5.51.33a1,1,0,0,1-.16,2l-5.42-.33a61.38,61.38,0,0,0-21.31,3.51A1,1,0,0,1,843.91,247.9Z"/>
      <path d="M830.16,292.92a1,1,0,0,1-1-.73,93.26,93.26,0,0,1-3.09-34.7,1,1,0,0,1,1.1-.9,1,1,0,0,1,.89,1.1,90.73,90.73,0,0,0,.11,19.14,53.29,53.29,0,0,1,4.09-16.58,1,1,0,0,1,1.84.79,51.27,51.27,0,0,0-3,30.67,1,1,0,0,1-.74,1.18A1,1,0,0,1,830.16,292.92Z"/>
      <path d="M818.07,249.17a1,1,0,0,1-.44-.11l-11.94-6a1,1,0,0,1-.52-1.12,1,1,0,0,1,1-.77h0l16.39.13a1,1,0,0,1,0,2h0l-12.08-.1,8.08,4.06a1,1,0,0,1,.45,1.34A1,1,0,0,1,818.07,249.17Z"/>
      <path d="M659.32,333.15a1,1,0,0,1-1-1l-.08-6.87-1.49,5.37a1,1,0,0,1-1.23.69,1,1,0,0,1-.7-1.23L658.18,318a1,1,0,0,1,2,.26l.17,13.87a1,1,0,0,1-1,1Z"/>
      <path d="M663.69,336.68a1,1,0,0,1-.94-.67,1,1,0,0,1,.61-1.27c.76-.28,1.54-.52,2.33-.74l-3.81-.23a1,1,0,0,1-.94-1.06,1,1,0,0,1,1.06-.94l14.26.85c1.08,0,2.15.08,3.22.19a1,1,0,0,1,.89,1.08,1,1,0,0,1-1,.91l-3.13-.18a34.64,34.64,0,0,0-12.16,2A1,1,0,0,1,663.69,336.68Z"/>
      <path d="M655.74,362.71a1,1,0,0,1-1-.72A54.39,54.39,0,0,1,653,341.76a1,1,0,0,1,1.09-.89A1,1,0,0,1,655,342a50.07,50.07,0,0,0-.22,7.15,29.86,29.86,0,0,1,1.84-5.87,1,1,0,1,1,1.83.78,29.36,29.36,0,0,0-1.71,17.49,1,1,0,0,1-.73,1.17Z"/>
      <path d="M648.75,337.41a1,1,0,0,1-.45-.1l-6.9-3.47a1,1,0,0,1,.45-1.89h0l9.47.08a1,1,0,0,1,0,2l-5.17,0,3.06,1.53a1,1,0,0,1-.45,1.89Z"/>
    </g>
  </g>
</svg>
