<svg xmlns="http://www.w3.org/2000/svg" width="1000" height="1000" viewBox="0 0 1000 1000">
  <g id="a16ae4ae-8b57-41b0-9b03-45f8dce69e6f" data-name="Verify Email">
    <g id="bf43e6a5-5f5e-4a84-85f5-a65957d2efda" data-name="background">
      <path d="M252.86,700.42C205.78,676.8,172.55,630,159.29,579s-7.89-105.59,8.58-155.63c15.94-48.42,45-96,91.34-117.17,53.57-24.42,116.16-8.35,174.64-15.06,64.75-7.43,122.43-42.51,182.73-67.24s132.51-38.39,188.26-4.63c41.77,25.29,66,73.89,69.83,122.58s-10.6,97.33-32.26,141.1c-28,56.57-67.75,106.34-107.19,155.62C704.5,677,671.7,716.94,626,735.15c-68.27,27.23-144.28-1-216.67-13.72A506.19,506.19,0,0,0,245,719.65l.35-32.06" style="fill: #c4bbbb"/>
    </g>
    <g id="e8e05322-06ab-4334-89d4-9f68f13bce31" data-name="pattern">
      <path d="M777.62,247.72a1,1,0,0,1-1-1l-.32-24.65L770.5,243a1,1,0,1,1-1.92-.54l7.67-27.65a1,1,0,0,1,2,.25l.41,31.67a1,1,0,0,1-1,1Z"/>
      <path d="M787.58,255.78a1,1,0,0,1-.33-1.94,82.14,82.14,0,0,1,14.09-3.64l-17.81-1.06a1,1,0,0,1,.11-2l32.6,1.94q3.63.06,7.25.43a1,1,0,0,1-.17,2l-7.16-.42a80.75,80.75,0,0,0-28.24,4.64A1,1,0,0,1,787.58,255.78Z"/>
      <path d="M769.43,315.2a1,1,0,0,1-1-.73,122.74,122.74,0,0,1-4.06-45.68,1,1,0,0,1,2,.2,120,120,0,0,0,.59,28.83,69.82,69.82,0,0,1,5.56-25.29,1,1,0,0,1,1.84.79,68.07,68.07,0,0,0-4,40.67,1,1,0,0,1-.74,1.18Z"/>
      <path d="M753.48,257.46a1,1,0,0,1-.44-.11l-15.75-7.9a1,1,0,0,1,.44-1.89h0l21.63.17a1,1,0,0,1,0,2h0L742,249.59l11.9,6a1,1,0,0,1,.45,1.34A1,1,0,0,1,753.48,257.46Z"/>
      <path d="M580.45,835.38a5.55,5.55,0,0,1-3-.9,1,1,0,0,1-.31-1.38,1,1,0,0,1,1.38-.31c2,1.31,4.52.21,6-1.46s2.42-4.21,1-6.15-4.16-1.76-6.18-.73-3.74,3.11-3,5.43a1,1,0,1,1-1.92.58c-1-3.43,1.28-6.39,4-7.79s6.51-1.56,8.68,1.3,1,6.44-1.07,8.72A7.88,7.88,0,0,1,580.45,835.38Z"/>
      <path d="M140.62,516.72a1,1,0,0,1-1-1l-.32-24.65L133.5,512a1,1,0,0,1-1.92-.54l7.67-27.65a1,1,0,0,1,2,.25l.41,31.67a1,1,0,0,1-1,1Z"/>
      <path d="M150.58,524.78a1,1,0,0,1-.33-1.94,82.14,82.14,0,0,1,14.09-3.64l-17.81-1.06a1,1,0,0,1,.11-2l32.6,1.94q3.63.06,7.25.43a1,1,0,0,1-.17,2l-7.16-.42a80.79,80.79,0,0,0-28.24,4.64A1,1,0,0,1,150.58,524.78Z"/>
      <path d="M132.43,584.2a1,1,0,0,1-1-.73,122.74,122.74,0,0,1-4.06-45.68,1,1,0,0,1,1.1-.89,1,1,0,0,1,.89,1.09,120,120,0,0,0,.59,28.83,69.82,69.82,0,0,1,5.56-25.29,1,1,0,0,1,1.84.79,68.07,68.07,0,0,0-4,40.67,1,1,0,0,1-.74,1.18A1,1,0,0,1,132.43,584.2Z"/>
      <path d="M116.48,526.46a1,1,0,0,1-.44-.11l-15.75-7.9a1,1,0,0,1,.44-1.89h0l21.63.17a1,1,0,0,1,0,2h0L105,518.59l11.9,6a1,1,0,0,1,.45,1.34A1,1,0,0,1,116.48,526.46Z"/>
      <path d="M203.46,287.38a5.55,5.55,0,0,1-3-.9,1,1,0,0,1-.31-1.38,1,1,0,0,1,1.38-.31c2,1.31,4.52.21,6-1.46s2.42-4.21,1-6.15-4.16-1.76-6.18-.73-3.74,3.11-3,5.43a1,1,0,1,1-1.92.58c-1-3.43,1.28-6.39,4-7.79s6.51-1.55,8.68,1.3,1,6.44-1.07,8.72A7.87,7.87,0,0,1,203.46,287.38Z"/>
      <path d="M874.45,647.38a5.55,5.55,0,0,1-3-.9,1,1,0,0,1-.31-1.38,1,1,0,0,1,1.38-.31c2,1.31,4.52.21,6-1.46s2.42-4.21,1-6.15-4.16-1.76-6.18-.73-3.74,3.11-3,5.43a1,1,0,0,1-1.92.58c-1-3.43,1.28-6.39,4-7.79s6.51-1.56,8.68,1.3,1,6.44-1.07,8.72A7.88,7.88,0,0,1,874.45,647.38Z"/>
    </g>
    <g id="b1e13f0b-7a61-4c69-9286-e4ecdbe93787" data-name="astronaut">
      <g>
        <path d="M271.46,526.14c-2.2-33.49-3.67-69.83,15.31-97.5,13.35-19.48,35.31-31.74,58.1-37.95s46.65-7,70.26-7.74l152.65-4.81c37.1-1.17,75.89-2,109.27,14.24s58.76,55.4,46.57,90.46" style="fill: #fff"/>
        <path d="M271.46,527.14a1,1,0,0,1-1-.94c-2.39-36.33-3-71.17,15.48-98.13,12.16-17.73,33-31.35,58.67-38.34,23-6.28,47.15-7,70.49-7.78l152.65-4.81c35.33-1.11,75.37-2.38,109.74,14.34a95.41,95.41,0,0,1,40.8,38.58c9.81,17.67,12,36.53,6.27,53.11a1,1,0,0,1-1.27.61,1,1,0,0,1-.62-1.27c12.28-35.31-14.35-73.81-46.06-89.23-33.92-16.5-73.7-15.25-108.8-14.14L415.16,384c-23.22.74-47.23,1.49-70,7.71-25.22,6.87-45.65,20.2-57.54,37.54-18.12,26.43-17.5,60.91-15.13,96.87a1,1,0,0,1-.94,1.07Z"/>
      </g>
      <g>
        <path d="M264.69,637.38c6.54-31.77,2.6-64.63,3.33-97s7.28-67,30.14-90c24.78-24.95,62.63-30.57,97.72-32.85,94.85-6.19,190,2.23,284.66,10.65,13.69,1.21,28.53,2.94,38.39,12.5,10.15,9.85,12.12,25.17,13.51,39.24q6.24,62.8,12.47,125.63c1.26,12.7,2.51,25.64-.1,38.13s-9.75,24.7-21.25,30.24c-7.44,3.59-15.93,4.1-24.18,4.54L355.45,697c-21.62,1.17-44.29,2.14-63.84-7.14S257.27,657.36,265,637.13"/>
        <path d="M334.24,698.75c-14.59,0-29.53-1.57-43.06-8-19.16-9.1-34.88-31.85-27.45-53.08a1,1,0,0,1,0-.49c4.5-21.87,4-44.7,3.52-66.78-.21-9.87-.44-20.08-.21-30.1.92-41.34,10.88-71,30.43-90.68,25-25.2,63.77-30.9,98.37-33.15,95.14-6.2,191.56,2.36,284.81,10.65,15,1.33,29.23,3.31,39,12.78,10.08,9.78,12.29,24.43,13.82,39.86l12.47,125.63c1.25,12.63,2.55,25.69-.12,38.44-3,14.23-11.12,25.79-21.79,30.93-7.73,3.73-16.68,4.21-24.57,4.64L355.5,698C348.65,698.36,341.49,698.75,334.24,698.75Zm-68.38-62.12a1,1,0,0,1,.07.86c-7.55,19.77,7.4,42.57,26.11,51.45,19.8,9.41,42.94,8.16,63.35,7L699.33,677.4c7.7-.41,16.43-.89,23.8-4.44,10.11-4.87,17.85-15.91,20.7-29.54,2.61-12.45,1.33-25.35.09-37.83L731.45,480c-1.49-15-3.63-29.3-13.22-38.61-9.29-9-23.17-10.93-37.78-12.23-93.17-8.28-189.51-16.84-284.5-10.65-34.23,2.23-72.53,7.85-97.09,32.57-19.17,19.3-28.93,48.51-29.84,89.32-.23,10,0,20.15.21,30C269.71,592.23,270.2,614.83,265.86,636.63Z"/>
      </g>
      <g>
        <path d="M352.32,456.89c-106,28.54-99.78,84.34-124.72,134.23s-74.43,152.66-30.89,184.11c42.77,30.89,72.46,38,108.1,40.39s73.64,10.69,73.64-25,84.34-14.25,128.29-15.44,133-58.2,141.35-29.69,43.52,26.53,78.39,17.81c42.77-10.69,85.42-27.23,72.46-97.4-14.25-77.21-11.88-84.33-46.32-144.91s-57-77.21-106.91-77.21S414.09,440.27,352.32,456.89Z" style="fill: #fff"/>
        <path d="M572,443.51c31.9,0,58.74.32,73.7.32,49.89,0,72.46,16.63,106.91,77.21s32.07,67.7,46.32,144.91c13,70.17-29.69,86.71-72.46,97.4-13.43,3.36-26.91,5.72-38.89,5.72-19.11,0-34.39-6-39.5-23.53-1.66-5.7-6.54-8-13.63-8-28.45,0-92.55,36.72-127.72,37.67-1.22,0-2.46,0-3.74,0-23.59,0-56.86-5.34-83.07-5.34-23.59,0-41.48,4.33-41.48,20.73,0,22.54-15.2,27.5-35.39,27.5-11.73,0-25.15-1.68-38.25-2.55-35.64-2.38-65.33-9.5-108.1-40.39C153.17,743.78,202.65,641,227.6,591.12s18.72-105.69,124.72-134.23c43.24-11.64,145.26-13.38,219.69-13.38m0-2c-114.55,0-186.58,4.4-220.21,13.45C314,465.13,287,479.8,269.17,499.8c-16,17.91-23.25,38.33-30.3,58.07-3.82,10.7-7.77,21.77-13.06,32.35-15.11,30.23-31.83,65.66-41.26,99.33-12.27,43.8-8.57,73.17,11,87.3,42.72,30.86,72.37,38.31,109.13,40.76,4.39.3,8.87.68,13.21,1.06,8.9.77,17.31,1.5,25.18,1.5,17.41,0,37.39-3.36,37.39-29.5,0-6.84,3.49-11.64,10.67-14.67,6.47-2.73,15.89-4.06,28.81-4.06,13.36,0,28.67,1.41,43.48,2.77,14.41,1.32,28,2.57,39.59,2.57,1.31,0,2.58,0,3.79,0,18.55-.5,44.48-10.57,69.57-20.3,23-8.93,44.74-17.37,58.1-17.37,8.79,0,10.89,3.73,11.71,6.54,4.83,16.57,18.77,25,41.42,25,10.95,0,23.83-1.89,39.38-5.78,21.44-5.36,43.31-12.33,58-26.91,16.69-16.52,21.89-40.33,15.9-72.79-1.9-10.27-3.51-19.37-4.93-27.39-9.37-52.79-11.59-65.34-41.63-118.15-34.91-61.41-58.27-78.22-108.64-78.22-6.07,0-14.23-.05-23.66-.12-13.86-.09-31.1-.2-50-.2Z"/>
      </g>
      <path d="M645.92,543.63a180.49,180.49,0,0,0-3.48,62.67c.69,5.75,1.66,11.57.77,17.3s-4,11.47-9.36,13.75-12.7,1-16.56,5.49c-3,3.48-2.08,9.21,1.19,12.42s8.22,4.18,12.77,3.61,8.79-2.47,13-4.35c7.24-3.27,18-6.68,25.26-9.95-10.69-30.88-19-58.2-21.51-99.29" style="fill: #e21d67"/>
      <path d="M752.62,521c-34.45-60.58-57-77.21-106.91-77.21-38.09,0-153-2.08-232.78,4.34q-11.32,9.61-21.69,20.29l-4.12,1.13a155.65,155.65,0,0,0,194.2,38.86c16.95-9.09,32.07-21.24,48.7-30.91s35.63-17,54.75-14.81,37.87,15.89,40.73,34.91c-6.33-1.84-9.58,8.79-5.24,13.75s11.52,6,17.49,8.76c17.4,8.16,22.48,29.88,27.2,48.51,6.83,26.94,17.11,53.12,20.7,80.67s-.57,57.85-19.24,78.42-54.52,26.4-74.27,6.85c-8-8-15.86-20.32-26.85-17.7-8.32,2-11.89,11.59-14.12,19.84-.91,3.36-1.82,6.74-2.64,10.14,9,27.08,43.65,25,78,16.47,42.77-10.69,85.42-27.23,72.46-97.4C784.69,588.74,787.06,581.62,752.62,521Z" style="fill: #e21d67"/>
      <path d="M335.17,543.49a635,635,0,0,1-9.6,96.8c-1.46,8.25-3.5,17.18-10,22.43-14.43,11.63-39.81-2.5-53,10.53,20.38,4.54,42.78,11.54,63.62,12.89,18.35-43.08,21-96.07,10.4-141.7" style="fill: #e21d67"/>
      <path d="M377,706.64c-13.1,1.77-24,10.79-33.19,20.29-10.78,11.14-20.93,25.53-18.42,40.83,1.23,7.48,5.44,15,3.08,22.22S318,800.85,310.54,801.69a42.49,42.49,0,0,1-26-5.53c-4.59-2.7-8.93-6.37-14.22-7-8.17-.95-15.37,5.65-23.54,6.53-7.28.78-14.19-3-21.39-4.33a19.28,19.28,0,0,0-4.32-.26c30.58,17.65,55.27,22.6,83.74,24.5,35.63,2.37,73.64,10.69,73.64-25,0-8.52,4.84-13.78,12.78-16.87,4.48-15.77,8.37-32,17.07-45.63l-2.05-1.68C405.22,713.31,390,704.86,377,706.64Z" style="fill: #e21d67"/>
      <path d="M325.59,687.74a1.08,1.08,0,0,1-.38-.08,1,1,0,0,1-.54-1.3c29.23-71.32,10.84-141.2,10.65-141.9a1,1,0,0,1,1.93-.52c.19.7,18.75,71.24-10.73,143.18A1,1,0,0,1,325.59,687.74Z"/>
      <g>
        <path d="M386.54,437.72a25.23,25.23,0,0,0-1.83,3.47c-6.3,14.22-1.23,30.65,11.79,39.89,28.37,20.13,112,65,217.11-10.66,8.51-6.12,13.23-16.09,11.59-26.11-.79-4.78-2.92-9.4-7.6-12.36Z" style="fill: #fff"/>
        <path d="M495.12,513.73a167.05,167.05,0,0,1-18.95-1.07,175.63,175.63,0,0,1-80.25-30.77c-13.59-9.64-18.57-26.54-12.12-41.11a24.58,24.58,0,0,1,1.91-3.62,1,1,0,0,1,.8-.44L617.57,431a.86.86,0,0,1,.56.16c4.38,2.76,7.09,7.15,8,13,1.67,10.18-2.92,20.56-12,27.09C575,499.48,535,513.73,495.12,513.73Zm-108-75a27.48,27.48,0,0,0-1.47,2.89c-6.07,13.69-1.36,29.59,11.45,38.67,17.49,12.41,52,31.62,97.77,31.62,34,0,74.12-10.56,118.18-42.27,8.44-6.07,12.72-15.71,11.18-25.14-.85-5.18-3.17-9.05-6.9-11.51Z"/>
      </g>
      <path d="M372.21,803.61l-1.95-.48c.37-1.5.14-3.9-.13-6.69-.9-9.23-2.41-24.69,14.17-40.35,2.26-2.13,4.49-4.15,6.64-6.11,9.88-9,17.69-16.07,16.64-23.12-.91-6-8.22-12.06-23-19-39.81-18.73-114.22-31.86-115-32l.35-2c.75.13,75.43,13.3,115.47,32.15,15.46,7.27,23.13,13.8,24.14,20.53,1.22,8.11-6.94,15.52-17.27,24.9-2.14,1.95-4.36,4-6.61,6.09-15.86,15-14.47,29.25-13.55,38.7C372.42,799.34,372.65,801.78,372.21,803.61Z"/>
      <path d="M670.06,646.17a1,1,0,0,1-.92-.61C650,601.18,638,528.88,651.35,502.18a1,1,0,1,1,1.79.89c-12.9,25.81-.79,98.62,17.84,141.7a1,1,0,0,1-.52,1.31A.93.93,0,0,1,670.06,646.17Z"/>
      <g>
        <path d="M721.14,606c-36.82,9.5-36.82,35.63-66.52,45.13s-59.39,15.45-51.08,32.08,41.58,21.38,42.77,47.51,11.87,28.51,11.87,28.51" style="fill: #fff"/>
        <path d="M658.18,760.2a.76.76,0,0,1-.21,0c-.47-.1-11.45-2.85-12.66-29.44-.69-15.18-12.56-22.89-24-30.35-7.8-5.08-15.18-9.87-18.62-16.76-1.75-3.5-2-6.78-.71-9.76,3.84-8.91,20.68-14,40.18-19.94,4-1.21,8.1-2.46,12.2-3.77,13.51-4.32,20.71-12.1,28.34-20.34,8.94-9.65,18.19-19.64,38.23-24.81a1,1,0,0,1,1.22.72,1,1,0,0,1-.72,1.22c-19.48,5-28.52,14.79-37.26,24.23-7.82,8.44-15.19,16.4-29.2,20.89-4.11,1.31-8.24,2.56-12.23,3.77-18.23,5.54-35.45,10.76-38.92,18.82-1,2.44-.84,5.09.66,8.08,3.2,6.4,10.35,11,17.92,16,11.35,7.38,24.21,15.74,24.95,31.94,1.12,24.86,11,27.56,11.1,27.58a1,1,0,0,1-.23,2Z"/>
      </g>
      <g>
        <ellipse cx="499.02" cy="336.53" rx="140.59" ry="149.53" style="fill: #fff"/>
        <path d="M499,187C576.66,187,639.6,254,639.6,336.53S576.66,486.07,499,486.07,358.43,419.12,358.43,336.53,421.37,187,499,187m0-2c-38.11,0-73.93,15.78-100.87,44.43s-41.72,66.65-41.72,107.1S371.25,415,398.15,443.64,460.91,488.07,499,488.07,573,472.29,599.89,443.64,641.6,377,641.6,336.53,626.79,258,599.89,229.43,537.13,185,499,185Z"/>
      </g>
      <g>
        <ellipse cx="352.69" cy="355.67" rx="28.1" ry="41.1"/>
        <path d="M352.69,314.57c15.52,0,28.1,18.4,28.1,41.1s-12.58,41.1-28.1,41.1-28.1-18.4-28.1-41.1,12.58-41.1,28.1-41.1m0-2c-16.6,0-30.1,19.33-30.1,43.1s13.5,43.1,30.1,43.1,30.1-19.34,30.1-43.1-13.5-43.1-30.1-43.1Z"/>
      </g>
      <path d="M516.73,188.18a91.73,91.73,0,0,1,18.56,19.43c12.87,18.41,17.87,42.94,10.06,64-2.4,6.45-6,13.2-4.13,19.82C543.62,300,553.73,303.75,559,311c5,6.88,5,16.19,8.86,23.73,5.92,11.5,19.35,16.66,31.78,20.24s25,6.53,37.67,8.88a160.35,160.35,0,0,0,2.34-27.31C639.6,260.33,586,197.44,516.73,188.18Z" style="fill: #e21d67"/>
      <g>
        <ellipse cx="639.06" cy="347.15" rx="28.1" ry="40.25"/>
        <path d="M639.06,306.9c15.52,0,28.1,18,28.1,40.25s-12.58,40.25-28.1,40.25-28.1-18-28.1-40.25,12.58-40.25,28.1-40.25m0-2c-16.6,0-30.1,19-30.1,42.25s13.5,42.25,30.1,42.25,30.1-18.95,30.1-42.25-13.5-42.25-30.1-42.25Z"/>
      </g>
      <g>
        <ellipse cx="499.02" cy="357.62" rx="140.59" ry="128.44"/>
        <path d="M499,229.18c77.64,0,140.58,57.5,140.58,128.44S576.66,486.07,499,486.07,358.43,428.56,358.43,357.62,421.37,229.18,499,229.18m0-2c-38,0-73.84,13.54-100.76,38.14s-41.83,57.42-41.83,92.3,14.86,67.66,41.83,92.3S461,488.07,499,488.07s73.83-13.55,100.76-38.15,41.82-57.42,41.82-92.3-14.85-67.66-41.82-92.3S537.07,227.18,499,227.18Z"/>
      </g>
      <path d="M375.26,296.63a119.31,119.31,0,0,0-16.83,61c0,50.18,31.5,93.62,77.4,114.76,119.82,2.77,133-108,99.24-166.6C506.19,255.72,424.25,265.74,375.26,296.63Z" style="fill: #e21d67"/>
      <circle cx="426.98" cy="324.79" r="17.82" style="fill: #eeede1"/>
      <ellipse cx="395.13" cy="363.45" rx="7.72" ry="6.27" style="fill: #eeede1"/>
      <g>
        <path d="M499,214.48c-77.65,0-140.59,60.47-140.59,135.08,0,2.7.1,5.39.26,8.06,4.34-70.85,65.5-127,140.33-127s136,56.16,140.33,127c.16-2.67.25-5.36.25-8.06C639.6,275,576.66,214.48,499,214.48Z" style="fill: #fff"/>
        <path d="M499,214.48c77.64,0,140.58,60.47,140.58,135.08,0,2.7-.09,5.39-.25,8.06-4.34-70.85-65.51-127-140.33-127s-136,56.16-140.33,127c-.16-2.67-.26-5.36-.26-8.06,0-74.61,62.94-135.08,140.59-135.08m0-2c-38.07,0-73.87,14.25-100.8,40.12s-41.79,60.33-41.79,97c0,2.61.09,5.37.26,8.18a2,2,0,0,0,4,0C365,287.57,425.75,232.61,499,232.61s134,55,138.33,125.13a2,2,0,0,0,4,0c.18-2.81.26-5.57.26-8.18,0-36.63-14.84-71.07-41.79-97S537.09,212.48,499,212.48Z"/>
      </g>
      <g>
        <path d="M503.9,498.17c77.6-2.52,138.55-65,136.13-139.57-.09-2.7-.27-5.39-.52-8.05-2,70.95-61.35,129.07-136.14,131.5S365.64,430.32,359,359.65c-.08,2.68-.09,5.37,0,8.07C361.42,442.28,426.29,500.69,503.9,498.17Z" style="fill: #fff"/>
        <path d="M639.51,350.55c.25,2.66.43,5.35.52,8.05,2.42,74.56-58.53,137-136.13,139.57-1.62.05-3.23.08-4.84.08-75.44,0-137.69-57.52-140.06-130.53-.09-2.7-.08-5.39,0-8.07,6.49,69.14,66.89,122.48,139.54,122.48,1.61,0,3.22,0,4.83-.08,74.79-2.43,134.1-60.55,136.14-131.5m0-2h-.07a2,2,0,0,0-1.93,1.94c-2,70.28-61,127.18-134.2,129.56-1.58.05-3.19.08-4.77.08-72,0-131.09-51.88-137.55-120.66a2,2,0,0,0-2-1.82h-.07A2,2,0,0,0,357,359.6c-.08,2.82-.08,5.57,0,8.19,1.17,35.79,16.53,69.18,43.27,94a144.51,144.51,0,0,0,98.79,38.42c1.63,0,3.27,0,4.9-.08,38.05-1.24,73.37-16.64,99.44-43.37s39.81-61.65,38.63-98.26c-.09-2.65-.26-5.33-.53-8.18a2,2,0,0,0-2-1.81Z"/>
      </g>
      <path d="M330.12,362.9a1,1,0,0,1-.95-.69c-5-15.63,3-34.2,17.69-41.4a1,1,0,1,1,.88,1.79c-13.87,6.79-21.35,24.28-16.66,39a1,1,0,0,1-.65,1.26A1.1,1.1,0,0,1,330.12,362.9Z" style="fill: #fff"/>
      <path d="M492.39,207.89h-.13a1,1,0,0,1-.87-1.12A19.79,19.79,0,0,0,482.64,188a1,1,0,0,1,1.08-1.68,21.86,21.86,0,0,1,9.66,20.7A1,1,0,0,1,492.39,207.89Z"/>
      <path d="M501.06,205.4a1,1,0,0,1-1-.94,27.15,27.15,0,0,0-6.23-15.8,1,1,0,0,1,1.54-1.28,29.16,29.16,0,0,1,6.69,17,1,1,0,0,1-.94,1.05Z"/>
      <path d="M423.27,242.75a1,1,0,0,1-.77-.36,1,1,0,0,1,.13-1.41,78.54,78.54,0,0,1,42.42-17.85,1,1,0,1,1,.2,2,76.56,76.56,0,0,0-41.34,17.39A1,1,0,0,1,423.27,242.75Z"/>
      <g>
        <path d="M540.23,567.36a286.93,286.93,0,0,1,41.39,2.84c7.25,1.06,15.31,3,19.13,9.26,2.48,4.08,2.57,9.12,2.59,13.89l.33,95.77c0,7.47-.24,15.72-5.31,21.21-3.84,4.15-9.64,5.77-15.14,7.06a344.66,344.66,0,0,1-147.86,2.16c-4.44-.91-9.13-2.06-12.24-5.34-3.45-3.65-4.13-9-4.64-14q-3.24-32-6.5-63.95c-1.2-11.77-3.31-23.82-1.4-35.63,2.39-14.82,7.31-19.57,21.76-21.87,35.71-5.68,71.89-11.37,107.89-11.37m0-2c-36.6,0-73,5.79-108.2,11.4-15.44,2.45-20.91,8-23.43,23.52-1.6,10-.44,20,.68,29.77.24,2.1.49,4.27.71,6.38l4.68,46,1.82,18c.47,4.6,1.11,10.9,5.18,15.2,3.47,3.67,8.47,4.94,13.28,5.93a346.79,346.79,0,0,0,148.73-2.17c5.86-1.38,11.94-3.11,16.15-7.66,5.44-5.88,5.86-14.37,5.84-22.56l-.06-16-.27-79.81c0-4.57,0-10.26-2.89-14.93-4.24-7-12.76-9.06-20.54-10.2a287.59,287.59,0,0,0-41.68-2.86Z"/>
        <path d="M598.36,710.33c5.07-5.49,5.33-13.74,5.31-21.21l-.33-95.77c0-4.77-.11-9.81-2.59-13.89a15.51,15.51,0,0,0-6.17-5.58c-9.3,11.35,5.15,101.7-19,120.17-22.12,16.92-114.52,11.51-157.6,1l.51,5.11c.51,5,1.19,10.38,4.64,14,3.11,3.28,7.8,4.43,12.24,5.34a344.59,344.59,0,0,0,147.86-2.16C588.72,716.1,594.52,714.48,598.36,710.33Z" style="fill: #e21d67"/>
        <path d="M467.51,723a1,1,0,0,1-1-.69,133.2,133.2,0,0,1-6.44-39.95c0-2.53-.19-5.32-2-6.52a7.36,7.36,0,0,0-4.12-.69l-14,.27A140,140,0,0,0,445,719a1,1,0,1,1-1.93.53,142,142,0,0,1-5-45.13,1,1,0,0,1,1-1l15-.29c1.52,0,3.6-.07,5.26,1,2.62,1.73,2.86,5.12,2.89,8.17a131.11,131.11,0,0,0,6.35,39.34,1,1,0,0,1-.65,1.26A1,1,0,0,1,467.51,723Z"/>
        <path d="M498.12,725.77a1,1,0,0,1-1-.81l-8.05-42.13c-.26-1.35-.64-3.38.31-5.06,1.52-2.66,5-2.67,7.54-2.44L510,676.51a9,9,0,0,1,4.39,1.23c2.92,2,2.69,6.2,2.56,8.7a85.41,85.41,0,0,0,6.36,37.11,1,1,0,1,1-1.84.77,87.32,87.32,0,0,1-6.52-38c.15-2.81.15-5.67-1.7-7a7.23,7.23,0,0,0-3.44-.87l-13.05-1.19c-3.1-.28-4.89.17-5.61,1.44-.55,1-.35,2.29-.08,3.69l8,42.13a1,1,0,0,1-.79,1.17A.65.65,0,0,1,498.12,725.77Z"/>
        <path d="M539.77,596.41a6.54,6.54,0,0,1-3.49-1h0c-5.12-3.18-4.73-6.5-4-8.19,1.42-3.5,6.55-6,10.56-5.09,3.24.72,5,3.38,4.81,7.32a7.32,7.32,0,0,1-4.09,6A8,8,0,0,1,539.77,596.41Zm-2.44-2.66a5.79,5.79,0,0,0,8.29-4.36c.13-2.95-1-4.77-3.25-5.26-3-.67-7.22,1.29-8.27,3.88s1.2,4.48,3.23,5.74Z"/>
        <path d="M562.4,598.09a6.18,6.18,0,0,1-2.5-.52c-2.35-1-4.19-3.68-4.79-6.89s.15-6.14,2-7.65c1.12-.94,3.17-1.78,6.53-.47s6.21,4.73,6.51,8a6.26,6.26,0,0,1-3.27,6.08A8.38,8.38,0,0,1,562.4,598.09Zm-2-14.2a3.11,3.11,0,0,0-2,.67c-1.25,1-1.75,3.29-1.29,5.75s1.88,4.65,3.64,5.43c1.49.66,3.2.4,5.09-.76h0a4.28,4.28,0,0,0,2.33-4.2c-.23-2.55-2.48-5.28-5.24-6.35A7,7,0,0,0,560.4,583.89Z"/>
        <path d="M582.47,596.15a8.25,8.25,0,0,1-4.4-1.33,7.85,7.85,0,0,1-3.61-5.3,7.36,7.36,0,0,1,1.82-5.89,6.5,6.5,0,0,1,1.56-1.29,1,1,0,0,1,.5-.9,7.87,7.87,0,1,1,6.07,14.44A7,7,0,0,1,582.47,596.15Zm-1.78-12.61a3.93,3.93,0,0,0-2.92,1.43,5.34,5.34,0,0,0-1.34,4.24,5.77,5.77,0,0,0,11,1.57,5.8,5.8,0,0,0,.25-4.77,5.86,5.86,0,0,0-3.58-3.16,7,7,0,0,0-2.22-.35v.09a1,1,0,0,1-1,.95Z"/>
        <path d="M410,625.17a1,1,0,0,1-1-.85,1,1,0,0,1,.84-1.14,469.5,469.5,0,0,1,105.35-4,1,1,0,1,1-.15,2,467.29,467.29,0,0,0-104.9,4Z"/>
        <path d="M459,641.67a6.48,6.48,0,0,1-3.85-1.31,6.1,6.1,0,0,1-2.62-5.42s0-.07,0-.11,0-.07,0-.11a6.05,6.05,0,1,1,8.55,6.53A5.27,5.27,0,0,1,459,641.67Zm-4.47-6.59a.17.17,0,0,1,0,.07,4.1,4.1,0,0,0,1.82,3.6,3.73,3.73,0,0,0,6.23-2.68,4.06,4.06,0,0,0-8-1.07S454.55,635.05,454.55,635.08Z"/>
        <path d="M478.6,641.57a5.67,5.67,0,0,1-2.22-.44,6.58,6.58,0,0,1-3.67-7.13,1,1,0,1,1,2,.36,4.88,4.88,0,0,0-.07.76,5,5,0,0,1,6-4,5,5,0,0,1,3.18,2.77,5.34,5.34,0,0,1,.09,4.47A5.84,5.84,0,0,1,478.6,641.57Zm-3.69-4.76a4.32,4.32,0,0,0,2.26,2.48,3.92,3.92,0,0,0,4.91-1.76,3.35,3.35,0,0,0-.09-2.78,3,3,0,0,0-1.89-1.69,2.88,2.88,0,0,0-2.54.69,2.58,2.58,0,0,0-1,2.2,1,1,0,0,1-1.66.86Z"/>
        <path d="M334,665a1,1,0,0,1-.51-1.86c.73-.44,18.73-10.64,81-4.41a1,1,0,1,1-.2,2c-61.59-6.16-79.58,4-79.76,4.14A1,1,0,0,1,334,665Z"/>
        <path d="M337,653a1,1,0,0,1-.58-1.82c.71-.5,18-12.14,75.7-5.17a1,1,0,1,1-.24,2c-56.75-6.85-74.14,4.71-74.31,4.83A1,1,0,0,1,337,653Z"/>
        <path d="M605,625a1,1,0,0,1-.21-2c.32-.07,32.44-7,56.33-4a1,1,0,1,1-.24,2c-23.56-2.94-55.35,3.92-55.67,4Z"/>
        <path d="M605,639a1,1,0,0,1-.21-2c.32-.07,32.41-7,59.21-7a1,1,0,0,1,0,2c-26.58,0-58.47,6.91-58.79,7Z"/>
      </g>
      <path d="M341.11,625.22a1,1,0,0,1-.7-.28c-29.43-28.8-76.6-38-114.7-22.42a1,1,0,1,1-.76-1.85c38.82-15.89,86.88-6.5,116.86,22.84a1,1,0,0,1,0,1.41A1,1,0,0,1,341.11,625.22Z"/>
      <path d="M270.47,801.86a1,1,0,0,1-.87-.5,80.42,80.42,0,0,1,41.73-115.47,1,1,0,1,1,.7,1.87,78.44,78.44,0,0,0-40.7,112.61,1,1,0,0,1-.37,1.36A1,1,0,0,1,270.47,801.86Z"/>
      <path d="M328.19,814.49a1,1,0,0,1-.78-.38,76.39,76.39,0,0,1-13.21-67.9c7.11-24.2,23.06-41.64,44.92-49.13a1,1,0,1,1,.65,1.89c-21.23,7.27-36.73,24.25-43.65,47.8A74.35,74.35,0,0,0,329,812.87a1,1,0,0,1-.79,1.62Z"/>
      <path d="M648.09,560.05a1.07,1.07,0,0,1-.48-.12,1,1,0,0,1-.4-1.36c18.26-34,56-53.94,94-49.6a1,1,0,0,1-.22,2c-37.14-4.25-74.1,15.27-92,48.56A1,1,0,0,1,648.09,560.05Z"/>
      <path d="M660,616.73a1,1,0,0,1-.49-.13,1,1,0,0,1-.38-1.37,117.1,117.1,0,0,1,108.15-57.7,1,1,0,0,1,.92,1.07,1,1,0,0,1-1.07.92c-42.53-3.19-85.23,19.6-106.26,56.7A1,1,0,0,1,660,616.73Z"/>
      <path d="M760.84,728.8a1,1,0,0,1-1-.81c-8.27-41.64-46.47-75-88.85-77.57a1,1,0,0,1-.94-1.06,1,1,0,0,1,1.06-.93c43.26,2.63,82.25,36.67,90.69,79.18a1,1,0,0,1-.79,1.17Z"/>
      <path d="M717.2,735.3a1,1,0,0,1-1-.68c-12.43-37-49.75-64.4-88.76-65.2a1,1,0,1,1,0-2c39.81.82,77.92,28.81,90.6,66.56a1,1,0,0,1-.63,1.27A.84.84,0,0,1,717.2,735.3Z"/>
      <path d="M656.23,560a1,1,0,0,1-.52-.15,1,1,0,0,1-.33-1.37,49.47,49.47,0,0,1,26.38-20.83,1,1,0,1,1,.62,1.9,47.36,47.36,0,0,0-25.29,20A1,1,0,0,1,656.23,560Z"/>
      <g>
        <path d="M655.28,756.73c-16.08,3-40.23,6-53.23,11.38s-18.6-4-29.1-6.94S546,759.71,557.9,745.84s47.66-54,31.05-75.65-34.67-40.9-26.3-48.52,38.88,23.73,38.88,23.73,13.28-14.06,31.65,15.27c0,0-2.37-6.91,5.34-8.66s13-.29,34.73,32.91S675.36,753,655.28,756.73Z" style="fill: #fff"/>
        <path d="M594.54,770.74c-5,0-8.86-2.2-12.91-4.5a40.24,40.24,0,0,0-9-4.11,68.74,68.74,0,0,0-7-1.43c-5.82-1-11.31-1.93-12.61-5.51-.9-2.49.4-5.67,4.1-10l1.33-1.54c12.37-14.4,45.23-52.64,29.69-72.85-2.66-3.46-5.37-6.87-8-10.17C565.7,642.37,554.26,628,562,620.93c8.39-7.63,34.26,17.7,39.59,23.09a13.68,13.68,0,0,1,9.95-2.92c6.79.68,13.65,6,20.43,15.86a6.84,6.84,0,0,1,.76-2.21A8.06,8.06,0,0,1,638.3,651c8.61-1.95,14.26.51,35.79,33.34,10.51,16,12.59,34.52,5.69,50.73-5.16,12.1-14.47,20.77-24.32,22.61l-.18-1,.18,1c-3.92.74-8.29,1.47-12.91,2.24-14.24,2.38-30.39,5.08-40.12,9.08A20.55,20.55,0,0,1,594.54,770.74ZM566.18,621.43a4.09,4.09,0,0,0-2.85,1c-6.34,5.77,5.13,20.23,18.41,37,2.62,3.31,5.33,6.73,8,10.2,16.52,21.5-15.91,59.25-29.76,75.37l-1.33,1.55c-3.1,3.61-4.36,6.31-3.74,8,.9,2.49,6.07,3.37,11.06,4.21,2.44.42,5,.85,7.24,1.48a41.55,41.55,0,0,1,9.4,4.3c5.77,3.27,10.75,6.1,19,2.68,9.94-4.09,26.2-6.8,40.55-9.2,4.61-.77,9-1.5,12.87-2.23,9.06-1.7,18-10.11,22.85-21.43,6.63-15.59,4.62-33.39-5.52-48.85-21.85-33.32-26.8-34.05-33.68-32.49a6.19,6.19,0,0,0-4.27,2.73,6.38,6.38,0,0,0-.34,4.64l2.67,8-4.47-7.14c-7-11.18-14.26-17.44-21-18.11a11.6,11.6,0,0,0-9.08,3l-.71.75-.73-.74C593.49,638.57,574.79,621.43,566.18,621.43Z"/>
      </g>
      <g>
        <rect x="476.24" y="637.38" width="174.87" height="100.84" rx="8.01" transform="translate(370.58 -180.25) rotate(26.79)"/>
        <path d="M511.9,606.13a8,8,0,0,1,3.6.86L657.3,678.6a8,8,0,0,1,3.54,10.76L622.6,765.07a8,8,0,0,1-10.76,3.54L470.05,697a8,8,0,0,1-3.54-10.76l38.23-75.71a8,8,0,0,1,7.16-4.4m0-2h0a10,10,0,0,0-8.94,5.5l-38.24,75.71a10,10,0,0,0,4.42,13.45l141.8,71.61A10,10,0,0,0,624.38,766l38.24-75.71a10,10,0,0,0-4.42-13.45l-141.8-71.6a9.82,9.82,0,0,0-4.5-1.08Z"/>
      </g>
      <path d="M315.87,600.38a1,1,0,0,1-.62-.22,70.88,70.88,0,0,0-45.08-15.3,1,1,0,1,1,0-2,73.06,73.06,0,0,1,46.35,15.74,1,1,0,0,1,.17,1.4A1,1,0,0,1,315.87,600.38Z"/>
      <g>
        <path d="M359.45,744.35c20.06-20.07,55.07-26.7,76.58-23.89s32.4-7.73,35.63,3.37-6.81,17.24-22.85,18.18a40.82,40.82,0,0,0-26,11.93s2,8.4,22.12,14.16S493.68,783,500.8,789.49c10.45,9.59,9.36,21.88-18.13,13.89,0,0-.64,11.7-24.9,14.82,0,0-.78,6.84-12,7.64,0,0-1.31,5.39-17.42,3.9s-38.55-20.34-59.13-25.12S334.5,769.29,359.45,744.35Z" style="fill: #fff"/>
        <path d="M433.64,831c-1.58,0-3.36-.08-5.34-.27-8.52-.79-18.59-6.22-29.26-12-9.92-5.35-20.18-10.88-30-13.16-10.45-2.43-19.29-11.3-22.53-22.61-3.83-13.39.63-27.74,12.24-39.35h0c19.69-19.69,54.59-27.16,77.41-24.18,9,1.18,16,0,21.67-1,7.38-1.26,12.7-2.16,14.81,5.06,1.2,4.15.72,7.79-1.42,10.83-3.53,5-11.25,8-22.35,8.62-13.63.8-22.83,9.17-24.85,11.18.81,1.79,4.81,8.26,21.24,13,17.74,5.08,48.64,14.65,56.22,21.61,5.5,5,7.72,10.65,5.68,14.29-2.58,4.58-11,5.14-23.7,1.6-.85,3.19-5,11.72-24.86,14.46-.56,1.94-2.89,6.83-12.11,7.69C445.69,828.19,442.93,831,433.64,831ZM425.8,720.83c-21.61,0-49.12,7.7-65.65,24.23-11.08,11.08-15.35,24.71-11.73,37.38,3,10.62,11.31,18.95,21.06,21.21C379.57,806,390,811.59,400,817c10.48,5.65,20.38,11,28.49,11.74,14.74,1.37,16.35-3.12,16.37-3.17a1,1,0,0,1,.89-.73c10.13-.72,11-6.52,11-6.76a1,1,0,0,1,.86-.87c23-3,24-13.79,24-13.9a1,1,0,0,1,1.28-.89c12,3.47,20.37,3.34,22.45-.37,1.55-2.75-.57-7.51-5.28-11.83-7.28-6.68-37.85-16.12-55.43-21.15-20.45-5.86-22.73-14.54-22.81-14.9a1,1,0,0,1,.23-.9A41.4,41.4,0,0,1,448.75,741c10.31-.61,17.71-3.37,20.82-7.78,1.78-2.52,2.16-5.59,1.14-9.12-1.53-5.24-4.42-5-12.55-3.65-5.46.93-12.94,2.2-22.26,1A78.83,78.83,0,0,0,425.8,720.83Zm-66.35,23.52h0Z"/>
      </g>
      <g>
        <path d="M483,803.74c-20.19-7.13-45.73-11.28-58.8-17.22" style="fill: #fff"/>
        <path d="M483,804.74a1,1,0,0,1-.33-.06c-9.38-3.31-19.8-5.94-29.87-8.49-11.29-2.86-22-5.56-29-8.76a1,1,0,0,1-.5-1.33,1,1,0,0,1,1.33-.49c6.88,3.13,17.47,5.8,28.67,8.64,10.12,2.56,20.58,5.21,30,8.55a1,1,0,0,1-.33,1.94Z"/>
      </g>
      <g>
        <path d="M457.44,818.59s-36.82-8.32-47.51-14.26" style="fill: #fff"/>
        <path d="M457.44,819.59l-.22,0c-1.51-.34-37.08-8.41-47.78-14.35a1,1,0,0,1-.38-1.36,1,1,0,0,1,1.36-.39c10.44,5.8,46.88,14.07,47.24,14.15a1,1,0,0,1-.22,2Z"/>
      </g>
      <g>
        <path d="M446.75,825.71s-26.13-3.56-38-10.69" style="fill: #fff"/>
        <path d="M446.75,826.71h-.13c-1.08-.15-26.48-3.68-38.39-10.83a1,1,0,1,1,1-1.71c11.56,6.93,37.37,10.52,37.63,10.55a1,1,0,0,1-.14,2Z"/>
      </g>
      <g>
        <path d="M633.15,659.73c2.78,12.54,6.47,29.27,19.09,29.85s7.1-15.26,7.1-15.26" style="fill: #fff"/>
        <path d="M652.91,690.6l-.72,0c-13.38-.62-17.21-18-20-30.64a1,1,0,0,1,2-.43c2.66,12,6.31,28.53,18.15,29.07,2.77.14,4.76-.59,5.92-2.14,2.89-3.87.22-11.71.19-11.79a1,1,0,1,1,1.89-.65c.13.36,3.05,8.92-.48,13.64C658.33,689.6,656,690.6,652.91,690.6Z"/>
      </g>
      <g>
        <path d="M624.89,660.83s6.45,9,3.1,14.89c-8.94,15.77-39.19-19.9-25.84-30.44" style="fill: #fff"/>
        <path d="M621.63,680.68a9.89,9.89,0,0,1-1.2-.07c-8.09-1-18.92-12.29-21.88-22.83-1.62-5.77-.56-10.49,3-13.29a1,1,0,1,1,1.24,1.57c-3.68,2.9-3.28,7.68-2.3,11.18,2.73,9.71,12.92,20.5,20.2,21.38a6.1,6.1,0,0,0,6.45-3.39c3-5.3-3-13.74-3-13.82a1,1,0,1,1,1.63-1.17c.28.39,6.77,9.57,3.15,16A8,8,0,0,1,621.63,680.68Z"/>
      </g>
      <polygon points="548.43 703.53 507.84 607.16 509.69 606.38 549.69 701.39 659.93 689.96 660.13 691.95 548.43 703.53" style="fill: #fff"/>
      <rect x="475.42" y="665.19" width="57.51" height="2" transform="translate(-49.89 40.88) rotate(-4.42)" style="fill: #fff"/>
      <rect x="622.63" y="692.42" width="2" height="48.85" transform="translate(-283.46 434.05) rotate(-31.66)" style="fill: #fff"/>
      <path d="M438.25,791.6a1,1,0,0,1-1-.79,23.29,23.29,0,0,1,8.06-22.6,1,1,0,0,1,1.4.15,1,1,0,0,1-.15,1.41,21.27,21.27,0,0,0-7.36,20.62,1,1,0,0,1-.77,1.18Z"/>
      <path d="M462.66,797.12a1,1,0,0,1-.91-.59,17.9,17.9,0,0,1,5.58-20.94,1,1,0,0,1,1.39.22,1,1,0,0,1-.21,1.39,15.84,15.84,0,0,0-4.93,18.52,1,1,0,0,1-.51,1.32A1.19,1.19,0,0,1,462.66,797.12Z"/>
      <path d="M487.8,804.24a1,1,0,0,1-.95-.7,21,21,0,0,1,3.5-19.18,1,1,0,0,1,1.4-.16,1,1,0,0,1,.16,1.41,19,19,0,0,0-3.16,17.32,1,1,0,0,1-.64,1.26A1.12,1.12,0,0,1,487.8,804.24Z"/>
      <path d="M438.57,814.24a1,1,0,0,1-.95-.67,17,17,0,0,1,1.21-13.06,13.59,13.59,0,0,1,8-7,1,1,0,1,1,.55,1.92,11.63,11.63,0,0,0-6.76,6,14.93,14.93,0,0,0-1.09,11.48,1,1,0,0,1-.62,1.27A1.13,1.13,0,0,1,438.57,814.24Z"/>
      <path d="M462.24,815.76a1,1,0,0,1-1-.79,12.08,12.08,0,0,1,5.29-12.5,1,1,0,0,1,1.05,1.7,10,10,0,0,0-4.38,10.37,1,1,0,0,1-.77,1.19Z"/>
      <path d="M420.83,820.18a1,1,0,0,1-.8-.4,7.57,7.57,0,0,1-1.12-6.18,7.08,7.08,0,0,1,3.49-4.81,1,1,0,1,1,.92,1.77,5.16,5.16,0,0,0-2.47,3.49,5.59,5.59,0,0,0,.78,4.53,1,1,0,0,1-.2,1.4A1,1,0,0,1,420.83,820.18Z"/>
      <path d="M439.24,823.74a1,1,0,0,1-.84-.47,6.41,6.41,0,0,1-.43-5.58A5.77,5.77,0,0,1,441.5,814a1,1,0,0,1,.62,1.91,3.86,3.86,0,0,0-2.28,2.44,4.48,4.48,0,0,0,.25,3.83,1,1,0,0,1-.32,1.38A.91.91,0,0,1,439.24,823.74Z"/>
      <path d="M423.88,829.68a1,1,0,0,1-.8-.4,4.52,4.52,0,0,1-.8-3.69,5.32,5.32,0,0,1,2.64-3.51,1,1,0,0,1,1.36.38,1,1,0,0,1-.37,1.36,3.39,3.39,0,0,0-1.68,2.18,2.62,2.62,0,0,0,.45,2.09,1,1,0,0,1-.2,1.4A1,1,0,0,1,423.88,829.68Z"/>
      <path d="M442.59,744.16a1.09,1.09,0,0,1-.39-.08c-8.39-3.65-13.49-14.53-11.36-24.26a1,1,0,0,1,1.19-.77,1,1,0,0,1,.76,1.2c-1.9,8.69,2.77,18.76,10.2,22a1,1,0,0,1,.52,1.32A1,1,0,0,1,442.59,744.16Z"/>
      <path d="M461.68,740.48l-.21,0a15.09,15.09,0,0,1-10.55-19.17,1,1,0,1,1,1.88.69,13.12,13.12,0,0,0,9.09,16.53,1,1,0,0,1-.21,2Z"/>
      <path d="M657.39,681a1,1,0,0,1-.79-.39,13.57,13.57,0,0,0-17.41-3.11,1,1,0,1,1-1.07-1.69,15.64,15.64,0,0,1,20.07,3.58,1,1,0,0,1-.19,1.4A1,1,0,0,1,657.39,681Z"/>
      <path d="M607.37,668.36a1,1,0,0,1-.61-1.8,17.54,17.54,0,0,1,20.15-.4,1,1,0,1,1-1.15,1.64,15.46,15.46,0,0,0-17.79.36A1,1,0,0,1,607.37,668.36Z"/>
      <g>
        <path d="M583.54,633a1,1,0,0,0-.18-.17l.23.24Z" style="fill: #1f1f1f"/>
        <path d="M583.07,632.6a7.07,7.07,0,0,0,.51.54c-.22-.23-.12-.14-.38-.42,0,0,.09.07.17.16-.06-.07.06,0-.08-.11s-.21-.17-.07,0Z" style="fill: #1f1f1f"/>
        <path d="M582.12,632.8l0,0S582.13,632.81,582.12,632.8Z" style="fill: #1f1f1f"/>
        <path d="M581.63,633l0-.06Z" style="fill: #1f1f1f"/>
        <path d="M581.31,632.83h0S581.3,632.81,581.31,632.83Z" style="fill: #1f1f1f"/>
        <path d="M582.12,632.8l-.08-.06C582.11,632.82,582.1,632.79,582.12,632.8Z" style="fill: #1f1f1f"/>
        <path d="M583.55,633.25l-.06-.07,0,0Z" style="fill: #1f1f1f"/>
        <path d="M582.09,632.45h0l-.1-.1Z" style="fill: #1f1f1f"/>
        <path d="M582.18,632.3l.27.28-.13-.14Z" style="fill: #1f1f1f"/>
        <path d="M582.72,632.46l0,0Z" style="fill: #1f1f1f"/>
        <path d="M582,632.5l-.07-.07Z" style="fill: #1f1f1f"/>
        <path d="M580,637.37l0,0Z" style="fill: #1f1f1f"/>
        <path d="M578.89,636.51h0l-.11-.11Z" style="fill: #1f1f1f"/>
        <path d="M581,632.68h0S580.94,632.67,581,632.68Z" style="fill: #1f1f1f"/>
        <path d="M580.05,633.85c.19.17.21.25.42.43A5.51,5.51,0,0,0,580.05,633.85Z" style="fill: #1f1f1f"/>
        <path d="M583.52,633.22h0S583.52,633.23,583.52,633.22Z" style="fill: #1f1f1f"/>
        <path d="M580.47,634.28h0l0,0Z" style="fill: #1f1f1f"/>
        <path d="M580.81,633.06l.09.08Z" style="fill: #1f1f1f"/>
        <path d="M581.28,633.15l0,0Z" style="fill: #1f1f1f"/>
        <path d="M581,633.44s0,0,0,0l0,0S581,633.41,581,633.44Z" style="fill: #1f1f1f"/>
        <path d="M580.88,633.55l0,0h0Z" style="fill: #1f1f1f"/>
        <path d="M580.23,637l-.18-.18C580.19,636.92,580.23,637,580.23,637Z" style="fill: #1f1f1f"/>
        <path d="M583.44,633.14l.08.08h0Z" style="fill: #1f1f1f"/>
        <path d="M582.53,635h0S582.52,635,582.53,635Z" style="fill: #1f1f1f"/>
        <path d="M581,636.19l0,0S581,636.21,581,636.19Z" style="fill: #1f1f1f"/>
        <path d="M582.46,635.09l-.14-.13,0,.06Z" style="fill: #1f1f1f"/>
        <path d="M580.05,636.78Z" style="fill: #1f1f1f"/>
        <path d="M580.41,637.36s-.25-.26-.39-.42.2.19.33.32c-.05-.08-.28-.33-.26-.33l.11.11c-.19-.22,0,0-.22-.32l.07.06-.36-.36s-.15-.18,0,0l.11.13-.06-.09c.25.24.07.1.25.28-.06-.09-.25-.31-.17-.26.24.25.06.11.28.31l-.1-.07c.38.37,0,0,.37.38.09,0-.09-.15,0-.1l-.33-.34c-.2-.27.63.59.33.24-.15-.17-.45-.48-.27-.33l.26.28s-.37-.41-.17-.25.07.11.11.14c.23.2-.14-.16-.13-.18l.24.24c0-.06-.16-.26-.18-.33a2.39,2.39,0,0,0,.22.23c-.09-.16.1,0,.27.07l-.19-.22.13.13c.09.07-.13-.13-.2-.22a.92.92,0,0,1,.18.18c-.15-.2-.31-.45-.07-.24l.06.06c.1.07-.4-.45-.19-.27l0,0c.13.06,0-.18.32.11-.29-.31.17.1-.24-.33.23.19.3.27.46.38s-.24-.27-.27-.33l.21.22-.21-.24.27.25,0-.06a1.06,1.06,0,0,1-.17-.16c-.08-.11.19.12.3.23l-.15-.22a1.79,1.79,0,0,1,.16.19c-.2-.24.24.23,0,0l-.17-.17c.14.12.16.1.12,0l.15.16c.06,0,0-.13,0-.16a2.88,2.88,0,0,1-.35-.36l.23.23c-.13-.15-.09-.07-.25-.26a3.68,3.68,0,0,1,.33.34l-.06-.1.18.2c-.13-.15.26.21,0,0l.07.07s0-.12,0-.15c-.2-.21-.15-.17-.3-.34.08,0,.26.19.26.15a2.44,2.44,0,0,0-.27-.3c.18.18.18.14.3.28,0-.05,0-.06-.12-.25l-.17-.16s.09.06.18.15v0c-.23-.31.61.45.26,0l0,0-.16-.22s.12.14.24.25c-.26-.34.1,0-.07-.24.55.52,0-.11.4.21l-.13-.13c-.11-.13.08.07.12.09l-.19-.18c-.09-.21.31.06.49.12s-.63-.68-.31-.4l.22.24c-.23-.32.11-.08-.08-.36,0,.05.12.12.11.13.18.16,0,0-.09-.17,0,0,.12.13.2.19s-.19-.24,0-.07a.32.32,0,0,1,.06.07c-.07-.09.05,0-.15-.2.11.08,0-.12.08,0-.21-.22.13.08-.17-.23.31.32.28.23.15.07l.23.23s0-.09-.2-.25c.4.36-.26-.36.24.12a2.71,2.71,0,0,1-.26-.46c.31.32,0,.06.33.4-.1-.16-.35-.46-.25-.41a1.84,1.84,0,0,1,.19.2c-.1-.16.09,0-.06-.23l.08.09s.06,0-.08-.11l0,0c-.22-.21-.41-.47-.52-.58.4.43.13.08.63.62a1.75,1.75,0,0,0-.18-.2,1.25,1.25,0,0,1,.19.2c-.06-.1-.21-.25-.19-.27l.17.19c-.13-.15-.25-.29-.18-.25s.1.1.09.1-.32-.41-.16-.3c.3.32.11.09.37.36l-.06-.1-.13-.12s-.16-.22-.06-.14l.09.12,0-.08-.11-.08c-.13-.15-.34-.34-.25-.28a.78.78,0,0,1,.18.14h0c-.08-.09-.16-.19-.08-.13l.34.35c-.21-.23,0-.09-.25-.34l.22.23-.18-.19a1.23,1.23,0,0,1,.2.2c.06,0-.33-.34-.17-.21l.06.07c.1,0-.07-.16,0-.09.27.27,0,.09.28.31,0-.08-.26-.38-.17-.35l0,0c-.37-.39.2.16,0,0l.16.17c.08,0,0-.13-.14-.28l.1.1c.09.08.08,0,.13.06a1.9,1.9,0,0,0-.21-.23c.58.51-.22-.37.27.06,0,0,.07.09.07.09l-.06-.12-.23-.22c-.09-.1-.16-.18-.15-.19a2.36,2.36,0,0,0,.36.35l-.16-.16c.3.28-.32-.33-.11-.15l.09.08s-.14-.17-.11-.15c.19.19.08.1.23.25,0,0-.33-.38-.13-.2l.08.12c.23.22.18.16.22.18h0l.12.08-.07,0c-.47-.52-.06-.12-.36-.47.29.33.17.18.38.4l.2.18c-.16-.18.15.12-.09-.15a1.69,1.69,0,0,1,.19.18,1.37,1.37,0,0,0-.21-.21c-.21-.26.33.25,0-.11-.11-.15-.34-.39-.43-.53a2.9,2.9,0,0,1,.24.26c.11.09.1.06,0,0a1.13,1.13,0,0,0,.19.19s-.25-.26-.14-.17l.27.29c0-.07-.17-.21-.22-.29.12.12.17.19.25.28a1.7,1.7,0,0,0-.26-.34l-.08-.06a1.85,1.85,0,0,1,.2.2c.13.16-.08-.05-.15-.12l0-.05c-.41-.4,0,.09,0,.08l-.29-.3.23.26a2.44,2.44,0,0,1-.28-.29c-.16-.13.09.12-.08,0l0,0,.08.1c-.06-.06-.21-.21-.16-.17-.19-.15.19.25,0,0l0,0a6.61,6.61,0,0,0,.44.5l-.54-.52.21.22a.84.84,0,0,1-.11-.11,2.61,2.61,0,0,0,.22.24c-.2-.18.06.13-.28-.21.15.17.13.11.23.24-.37-.37,0,.08-.13-.08a2.12,2.12,0,0,0-.26-.26c.32.33-.09,0,0,0,.26.26.09.13.15.23a1.52,1.52,0,0,0-.28-.19l0,0c.25.26.19.23.23.3a3.86,3.86,0,0,1-.27-.3h0l.14.17-.19-.2s.19.26.05.15c.18.19.51.5.61.64l-.3-.31s.08.09,0,.05l-.15-.18c-.08-.06.13.15.11.14l-.22-.21s.07,0,0,0a1.07,1.07,0,0,1-.24-.19l.2.21s-.17-.16-.25-.23a1.23,1.23,0,0,0,.19.22s-.1-.09-.16-.15c.08.1,0,.07.22.28h0c.18.24-.17-.06-.1,0l-.07-.07c.06.1,0,.08.15.24a1,1,0,0,1-.22-.2c0,.06.12.14,0,0s-.11-.1-.08-.1-.19-.15,0,.06c-.17-.19-.23-.22-.18-.16l.13.12s0,0,0,0l-.23-.25c-.32-.25.42.55-.07.09.15.17.13.1.31.3,0,0-.39-.34-.4-.34s.32.37.21.29a4.86,4.86,0,0,1,.38.41,3.35,3.35,0,0,1-.43-.42l.06,0-.15-.16.08.09a.92.92,0,0,1-.24-.2.62.62,0,0,0,.19.18c-.14-.1,0,0-.14,0l.15.14c-.13-.07.14.18.16.23-.13-.12-.3-.31-.21-.18a2.5,2.5,0,0,1-.28-.3c.14.18-.14-.08-.18-.1l-.06-.07s0,0,0,.05l.17.16s0,0-.11-.09c.1.12.28.28.42.44-.09-.08.07.12-.16-.11.1.06-.22-.22-.24-.28s0,0,0,0a.17.17,0,0,1-.06-.06c-.22-.18.24.27.21.28s-.24-.23-.22-.2a1.47,1.47,0,0,1,.3.31c-.11-.09.06.09,0,.08l.05,0c.13.13.1.12.13.17-.1-.1-.06-.08-.1-.12.21.24-.25-.2-.12,0l-.3-.29c.15.18-.19-.15-.07,0a2.62,2.62,0,0,1,.28.3l-.09-.15.23.27s-.09-.13-.06-.1a2.61,2.61,0,0,0,.23.24c-.26-.24.13.17-.06,0l-.41-.42c-.21-.17.17.25,0,.17l.08.07c.16.17,0,0,.07.12l-.28-.28a1.87,1.87,0,0,0,.24.3l-.19-.18c-.1,0,.36.43.3.4s-.26-.25-.35-.37,0,0,.06.08c-.09-.08.16.21,0,.09,0,.06.2.21.18.2l-.07-.06c.07.06.08.1.24.25-.45-.42,0,.09-.42-.27,0,.07.06.13.05.15l-.05-.05c-.15-.12.39.41.22.29s-.11-.14-.2-.22c-.46-.46,0,.09-.24-.16l0,0c-.16-.14.15.21.1.19l-.07-.07a2.06,2.06,0,0,1,.32.44c-.18-.19-.09-.11-.27-.29,0,0,.29.3.32.36s-.2-.17-.39-.36v0c-.25-.25,0,0-.06,0l-.11-.11c0,.06.29.34.25.34l.08.09c.26.29-.16-.15,0,.07l-.28-.28c0,.08.23.31.27.37-.2-.21-.28-.34-.39-.47s0,.05.12.19c0,0-.09-.1,0-.06.2.23.3.35.27.36-.53-.55-.18-.09-.61-.5.17.23-.14,0-.15,0,.43.41,0,0,.44.46,0,0,0,0,0,0l-.29-.23c-.13-.13-.08-.11-.18-.21a2,2,0,0,1-.31-.28c.15.16.21.23.14.18l.21.19c.2.26-.38-.34-.18-.09l-.13-.14c.07.09,0,0,.28.41a1.71,1.71,0,0,1-.19-.21c-.09,0,.29.45,0,.26l-.1-.11s.19.21.07.11l-.11-.12s.17.21.1.15l-.11-.12c-.17-.11.24.33.29.43a2.89,2.89,0,0,0-.5-.43l0,0c-.08,0,.19.32.28.47-.36-.32-.21-.07-.43-.23a2.18,2.18,0,0,1,.26.29c-.07-.06.19.24-.09,0h0c-.28-.28-.23-.19-.25-.18l.37.38c-.57-.52.11.28-.39-.19.09.1.08.11.16.21l-.2-.2c-.07,0-.11,0-.09,0l-.13-.15s.55.6.55.63l-.3-.3s-.31-.21-.07.09a.75.75,0,0,1-.13-.15s-.25-.15.16.26c-.27-.27-.06,0,0,.13l-.19-.2a2.69,2.69,0,0,1,.36.42l-.11-.11c-.11-.09.18.2.06.11l-.12-.13s0,.06.18.22-.08,0-.26-.2c.11.11.24.26.19.22l-.13-.14c-.16-.11.19.27,0,.09l-.12-.12h.06c-.18-.18-.23-.2-.46-.46.12.15.39.47.29.39l-.06-.06,0,0s0,0,0,0-.06,0-.07,0c-.15-.15-.09-.07-.11-.07.2.2.16.18.33.34l0,0v0c.09.11.17.2.05.1l.31.33c-.28-.27-.45-.4-.62-.57a1.74,1.74,0,0,0,.37.52c0,.05-.11-.11-.17-.16l-.08-.1c.09.11,0,.08.26.34-.14-.1-.23-.25-.21-.18l-.08-.09c-.45-.38.59.75,0,.25l.1.09c-.29-.18.1.34-.32,0-.09-.06.07.11.19.25l-.22-.21.23.26c.15.2-.56-.49-.25-.12l.14.14s.06.12-.11,0c0,0,.15.16.07.09l-.11-.12.16.22c-.1-.06-.43-.45-.48-.44a4.3,4.3,0,0,0,.37.43,1.15,1.15,0,0,1,.19.17l0,.07c.33.33.65.68.91.89l-.19-.22.17.16v0c.16.14,0,0,0-.09l.18.17-.29-.34a3.47,3.47,0,0,0,.32.33c-.13-.15-.29-.28-.37-.39.15.14.27.27.15.13a1.21,1.21,0,0,1,.17.18c-.09-.11,0-.07-.18-.25.19.18,0-.07.28.24l-.23-.28c.36.39,0,0,.44.4-.32-.35-.1-.19-.27-.39,0,0,.08.08.06.07a1.19,1.19,0,0,1,.21.17c-.27-.28-.32-.36-.48-.54.28.25.31.33.57.59-.22-.23-.2-.25-.39-.43a2.59,2.59,0,0,1,.32.3c-.34-.36-.05-.07-.25-.3.18.16.33.33.24.21A2.86,2.86,0,0,1,580.41,637.36Zm-.22-1h0v0Zm0,0h0l-.13-.14ZM578.79,635l.05.05,0,0,0,0Z" style="fill: #1f1f1f"/>
        <path d="M579,635.31h0l0,0-.06-.07Z" style="fill: #1f1f1f"/>
        <path d="M582.16,632.83h0l0,0Z" style="fill: #1f1f1f"/>
        <polygon points="581.02 636.32 580.97 636.27 581.01 636.32 581.02 636.32" style="fill: #1f1f1f"/>
        <path d="M583,633.35l0,0Z" style="fill: #1f1f1f"/>
        <path d="M583.12,633.32l.08.07Z" style="fill: #1f1f1f"/>
        <path d="M583.28,633.37l-.09-.09h0Z" style="fill: #1f1f1f"/>
        <path d="M582.6,634.49v0S582.63,634.53,582.6,634.49Z" style="fill: #1f1f1f"/>
        <path d="M582.41,633.76l.09.1S582.52,633.87,582.41,633.76Z" style="fill: #1f1f1f"/>
        <polygon points="582.53 635.03 582.53 635.03 582.53 635.03 582.53 635.03" style="fill: #1f1f1f"/>
        <path d="M582.48,633.87s0,0,0,0S582.45,633.84,582.48,633.87Z" style="fill: #1f1f1f"/>
        <path d="M583.61,633.22h0l0,0Z" style="fill: #1f1f1f"/>
        <path d="M583.59,633.19l0,0Z" style="fill: #1f1f1f"/>
        <path d="M583.53,633.11l0,0S583.59,633.17,583.53,633.11Z" style="fill: #1f1f1f"/>
        <path d="M583.45,633.2l.07.07Z" style="fill: #1f1f1f"/>
        <path d="M583.45,633.24s.16.14.12.09l-.05-.06C583.62,633.38,583.33,633.11,583.45,633.24Z" style="fill: #1f1f1f"/>
        <path d="M582.47,632.44l.07,0a1.54,1.54,0,0,1-.19-.2C582.1,632.07,582.52,632.44,582.47,632.44Z" style="fill: #1f1f1f"/>
        <path d="M582.3,632.38l-.15-.16A.57.57,0,0,0,582.3,632.38Z" style="fill: #1f1f1f"/>
        <path d="M581.87,632.8l-.18-.18Z" style="fill: #1f1f1f"/>
        <polygon points="582.71 633.83 582.83 633.93 582.67 633.76 582.71 633.83" style="fill: #1f1f1f"/>
        <polygon points="581.38 632.58 581.36 632.54 581.41 632.62 581.38 632.58" style="fill: #1f1f1f"/>
        <path d="M580.72,633.35l.23.22S580.67,633.27,580.72,633.35Z" style="fill: #1f1f1f"/>
        <path d="M580.64,633.88c-.12-.1-.2-.17-.1,0S580.66,633.92,580.64,633.88Z" style="fill: #1f1f1f"/>
        <polygon points="579.34 634.44 579.27 634.36 579.32 634.43 579.34 634.44" style="fill: #1f1f1f"/>
      </g>
      <path d="M583.11,634.37a1,1,0,0,1-.71-.29l-.82-.82a1,1,0,0,1,0-1.41,1,1,0,0,1,1.42,0l.81.82a1,1,0,0,1,0,1.41A1,1,0,0,1,583.11,634.37Z"/>
      <path d="M569.16,761.78a1,1,0,0,1-.66-1.74,11.84,11.84,0,0,0,3.83-9.73,1,1,0,1,1,2-.18,13.84,13.84,0,0,1-4.49,11.4A1,1,0,0,1,569.16,761.78Z"/>
      <path d="M177.55,727.85l-.23,0a1,1,0,0,1-.74-1.2c4.17-17.62,18.81-33.52,39.17-42.53,18.29-8.1,38.35-10.3,57.75-12.44a1,1,0,0,1,.22,2c-19.25,2.12-39.15,4.3-57.16,12.27-19.79,8.77-34,24.15-38,41.17A1,1,0,0,1,177.55,727.85Z"/>
      <path d="M307.76,490.66a1,1,0,0,1-.78-.38,1,1,0,0,1,.16-1.41,117,117,0,0,1,60.77-24.37,1,1,0,1,1,.19,2,115,115,0,0,0-59.72,23.95A1,1,0,0,1,307.76,490.66Z"/>
      <path d="M346,482.19a1,1,0,0,1-.46-1.89,94.87,94.87,0,0,1,27.12-9,1,1,0,0,1,.34,2,92.53,92.53,0,0,0-26.55,8.83A.91.91,0,0,1,346,482.19Z"/>
      <g>
        <path d="M337.88,461.17s40.13,64,2.13,175.39c0,0,16.52-72.15-27.74-165.36C312.27,471.2,317.77,451.34,337.88,461.17Z" style="fill: #fff"/>
        <path d="M327.57,458.44a23.6,23.6,0,0,1,10.31,2.73s40.13,64,2.13,175.39c0,0,16.52-72.15-27.74-165.36,0,0,3.53-12.76,15.3-12.76m0-2h0c-10.51,0-15.87,9.31-17.23,14.23a2,2,0,0,0,.12,1.39c22.72,47.85,29,90,30.28,116.87,1.37,29.08-2.64,47-2.68,47.19a2,2,0,0,0,1.4,2.37,2.08,2.08,0,0,0,.55.07,2,2,0,0,0,1.89-1.35c8.72-25.58,14-50.79,15.8-74.92a225.54,225.54,0,0,0-2.53-55.56c-5.29-30-15.17-46-15.59-46.63a2,2,0,0,0-.82-.73,25.71,25.71,0,0,0-11.19-2.93Z"/>
      </g>
      <g>
        <path d="M666.39,445.24s-22,93.19-10.2,161c0,0-35.8-63.79-13.12-162.24C643.07,444,656,433.21,666.39,445.24Z" style="fill: #fff"/>
        <path d="M656.19,607.22a1,1,0,0,1-.87-.51c-.09-.16-9.1-16.4-15.17-44.48-5.6-25.87-9.81-67.44,2-118.48a.93.93,0,0,1,.33-.54c.14-.11,13.81-11.25,24.72,1.38a1,1,0,0,1,.22.88c-.22.93-21.84,93.77-10.19,160.58a1,1,0,0,1-.65,1.12A1,1,0,0,1,656.19,607.22ZM644,444.54c-11.57,50.48-7.42,91.58-1.89,117.18a197.5,197.5,0,0,0,12.08,38c-8.91-63.91,9.48-146.94,11.14-154.22C656.4,435.71,645.79,443.14,644,444.54Z"/>
      </g>
      <path d="M655.18,507.47c-2.09,6.11-6.43,13.59-12.73,12.13-3.82-.88-5.84-4.73-6.9-8.68.52,59.44,20.64,95.3,20.64,95.3-5.69-32.68-3.53-71.26.24-102.45C656,505,655.6,506.23,655.18,507.47Z"/>
      <g>
        <path d="M637.3,477.59S649,472,658,480" style="fill: #fff"/>
        <path d="M658,481a1,1,0,0,1-.66-.25c-8.39-7.46-19.49-2.31-19.61-2.26a1,1,0,1,1-.86-1.8c.12-.06,12.41-5.78,21.79,2.56a1,1,0,0,1,.09,1.41A1,1,0,0,1,658,481Z"/>
      </g>
      <g>
        <path d="M639.06,470.22S647,465,660,472" style="fill: #fff"/>
        <path d="M660,473a1,1,0,0,1-.47-.12c-12.34-6.64-19.85-1.87-19.92-1.82a1,1,0,0,1-1.38-.29,1,1,0,0,1,.28-1.38c.35-.23,8.59-5.47,22,1.73A1,1,0,0,1,660,473Z"/>
      </g>
      <path d="M355.58,525.53c-3.25,7.51-10.89,13.69-19,12.76l-.89-.14c13.43,58.63,4.33,98.41,4.33,98.41C355.42,591.38,358,554,355.58,525.53Z"/>
      <path d="M327.75,510.73a1.07,1.07,0,0,1-.49-.12,1,1,0,0,1-.39-1.36c.08-.14,7.71-13.53,25.88-7.26a1,1,0,1,1-.66,1.89c-16.59-5.73-23.4,6.21-23.47,6.34A1,1,0,0,1,327.75,510.73Z"/>
      <path d="M324.36,501a1,1,0,0,1-.51-.14,1,1,0,0,1-.35-1.37c.08-.14,8.47-14,26.93-7.62a1,1,0,1,1-.65,1.89c-16.87-5.84-24.25,6.23-24.56,6.75A1,1,0,0,1,324.36,501Z"/>
      <path d="M394.42,480.48a1,1,0,0,1-.91-.59c-6.84-15.07,2.79-22.61,2.89-22.69a1,1,0,0,1,1.21,1.59c-.36.28-8.43,6.72-2.28,20.28a1,1,0,0,1-.5,1.32A1,1,0,0,1,394.42,480.48Z"/>
      <path d="M402.85,486.36a1,1,0,0,1-.89-.54,19,19,0,0,1,2.32-21.51,1,1,0,0,1,1.45,1.38,16.68,16.68,0,0,0-2,19.2,1,1,0,0,1-.42,1.35A.93.93,0,0,1,402.85,486.36Z"/>
      <path d="M443.89,505.68a1,1,0,0,1-.87-.51c-4.37-7.79.94-15.43,1.16-15.75a1,1,0,0,1,1.64,1.16c-.05.07-4.8,6.94-1.06,13.61a1,1,0,0,1-.38,1.36A1.05,1.05,0,0,1,443.89,505.68Z"/>
      <path d="M451,507a1,1,0,0,1-.83-.45c-4.26-6.38-.26-15.57-.08-16a1,1,0,1,1,1.82.82c0,.08-3.72,8.57-.08,14a1,1,0,0,1-.28,1.38A.94.94,0,0,1,451,507Z"/>
      <path d="M509,513.13a.9.9,0,0,1-.28,0,1,1,0,0,1-.68-1.24,19.88,19.88,0,0,0,0-11.5,1,1,0,0,1,.59-1.28,1,1,0,0,1,1.28.57,21.47,21.47,0,0,1,0,12.77A1,1,0,0,1,509,513.13Z"/>
      <path d="M514,512.63a.75.75,0,0,1-.21,0,1,1,0,0,1-.77-1.19c1.81-8.47.22-10.77.2-10.79a1,1,0,0,1,.17-1.39,1,1,0,0,1,1.36.1c.39.44,2.23,3.12.23,12.5A1,1,0,0,1,514,512.63Z"/>
      <path d="M563,498a1.25,1.25,0,0,1-.32-.05,1,1,0,0,1-.63-1.27c2.72-8.15.25-11,.23-11a1,1,0,0,1,1.43-1.4c.14.14,3.4,3.55.24,13A1,1,0,0,1,563,498Z"/>
      <path d="M573.91,495.07a.92.92,0,0,1-.36-.07,1,1,0,0,1-.57-1.29c3.55-9-1.4-11.8-1.45-11.83a1,1,0,1,1,.94-1.76c.28.15,6.56,3.69,2.37,14.32A1,1,0,0,1,573.91,495.07Z"/>
      <path d="M603.2,478.58a1,1,0,0,1-.3-.05,1,1,0,0,1-.66-1.25c3.93-12.57-2.6-18.28-2.88-18.51a1,1,0,0,1,1.28-1.54c.32.27,7.86,6.74,3.51,20.64A1,1,0,0,1,603.2,478.58Z"/>
      <path d="M614,471a.83.83,0,0,1-.22,0,1,1,0,0,1-.75-1.2c2.78-12.06-5.18-16.71-5.52-16.9a1,1,0,0,1,1-1.74c.09.05,9.62,5.52,6.48,19.1A1,1,0,0,1,614,471Z"/>
    </g>
  </g>
</svg>
