<svg xmlns="http://www.w3.org/2000/svg" width="1000" height="1000" viewBox="0 0 1000 1000">
  <g id="f069e16c-5516-441d-a3dc-1390fb56f766" data-name="Welcome">
    <g id="ef43692b-fa5d-423a-aeff-316ebbaec200" data-name="background">
      <path d="M551.42,852.45c18-21.07,44.29-34.29,71.63-39s55.67-1.22,82.08,7.25c9.51,3,19.24,7,25.63,14.72s8.14,20,1.4,27.42c-5.87,6.43-16.15,7.36-21.84,14-4.92,5.69-5.07,13.93-7.42,21.07C697,915.76,677,925.83,658.16,926.05s-36.76-7.28-54.08-14.64c-14.32-6.09-28.92-12.36-40.54-22.72S543.63,863,545.75,847.54" style="fill: #c4bbbb"/>
      <path d="M503.23,329.78a517.17,517.17,0,0,0-280.41-3.28c-47.69,12.92-99.7,40-109,88.51-7,36.85,13.33,72.73,21.22,109.42,15.12,70.22-15.91,141.41-22.08,213-2.38,27.62-.39,57.43,16.09,79.72,23.42,31.67,69.63,38.24,107.57,27.65s70.36-34.66,104-55.24c55.25-33.85,118.23-59.61,183-56.45,45.25,2.21,88.51,18.34,130.86,34.41s85.48,32.44,130.7,35.17,93.71-10.29,123.33-44.56c33.67-38.94,36.2-96.33,25.72-146.73s-32-98.1-40.8-148.82c-10.7-61.74-2.07-125-2.19-187.64,0-29.88-2.54-61.16-18.35-86.51-27.42-43.94-86.82-56.71-138.18-50-84.49,11.1-162,66.05-200.42,142.1-5.44,10.75-10.34,22.18-19.11,30.44s-22.82,12.43-33,6" style="fill: #c4bbbb"/>
    </g>
    <g id="b943d182-db62-437d-b218-f5d3e4f05c16" data-name="Planets">
      <g>
        <path d="M799.85,713.82C852.29,696.75,843.5,615,788.1,610.11c-31.35-2.8-61.2,27.77-57.66,59S769.92,723.56,799.85,713.82Z" style="fill: #fff"/>
        <path d="M785.3,717.09a56.76,56.76,0,0,1-30.59-9.38c-14.34-9.23-23.54-23.24-25.27-38.45s4.13-30.91,16-43.1,27.47-18.41,42.72-17c29.14,2.6,44.71,26,47.2,48s-7.4,48.56-35.23,57.62h0A48.13,48.13,0,0,1,785.3,717.09ZM784,610.93c-13.35,0-26.69,5.93-37.14,16.63-11.48,11.76-17.12,26.88-15.47,41.48s10.53,28.09,24.36,37,29.77,11.38,43.75,6.83h0c26.75-8.7,36.29-34.14,33.87-55.49S816,613.6,788,611.1C786.69,611,785.37,610.93,784,610.93Zm15.81,102.89h0Z"/>
      </g>
      <path d="M792.12,636.09a18.54,18.54,0,0,1-7-1.13c-3.26-1.31-6.37-4.67-6-8.55a7.08,7.08,0,0,1,7-6.19,7,7,0,0,1,6.63,6.55,1,1,0,1,1-2,.08,5,5,0,0,0-4.69-4.63h-.11a5,5,0,0,0-4.81,4.37c-.27,2.91,2.19,5.48,4.77,6.52,2.74,1.1,5.91,1,8.78.91a7.23,7.23,0,0,0-1.44-7.52,1,1,0,0,1,1.43-1.4,9.16,9.16,0,0,1,1.56,10.35,1,1,0,0,1-.85.54C794.32,636,793.23,636.09,792.12,636.09Z"/>
      <path d="M821.17,671a6.07,6.07,0,0,1,0-12.13h0a6.46,6.46,0,0,1,5.36,9.27h0a6.09,6.09,0,0,1-5.35,2.86Zm0-10.13h0a4.07,4.07,0,1,0,0,8.13h0a4.13,4.13,0,0,0,3.63-1.86h0a4.48,4.48,0,0,0-3.63-6.27Z"/>
      <path d="M803.65,706.59a11.86,11.86,0,0,1-5.21-1.77,13.83,13.83,0,0,0-4-1.6,13.44,13.44,0,0,0-5.15.66c-2.81.71-5.71,1.45-8.13-.46a5.24,5.24,0,0,1-1.83-4.93,7.46,7.46,0,0,1,4.19-5.76c4-1.72,8.45-.07,11.48,1.62a1,1,0,1,1-1,1.74c-2.64-1.46-6.48-2.92-9.72-1.52a5.47,5.47,0,0,0-3,4.18,3.29,3.29,0,0,0,1.09,3.1c1.65,1.3,3.85.74,6.39.09a11.4,11.4,0,0,1,10.6,1.1c2.09,1.08,3.89,2,5.59,1.27a3,3,0,0,0,1.68-2.15,5.42,5.42,0,0,0-.94-4.45c-1.71-2.15-4.51-3.12-7.73-4.09a1,1,0,1,1,.58-1.91c2.89.86,6.48,1.94,8.71,4.76a7.39,7.39,0,0,1,1.32,6.17,5,5,0,0,1-2.82,3.51A5.18,5.18,0,0,1,803.65,706.59Z"/>
      <g>
        <g>
          <path d="M470.08,261.82c6.83,55.38-25.23,113.39-75.75,137.08S278.7,410.13,240.5,369.47,193.91,263.05,220.7,214.1,307.39,136.77,362.24,147s100.43,58.39,107.7,113.71" style="fill: #fff"/>
          <path d="M339.2,411.83a141.85,141.85,0,0,1-26.6-2.53c-28.34-5.43-54.21-19.33-72.83-39.15s-30.89-46.5-34.54-75.13,1.54-57.54,14.59-81.4,34.62-43.8,60.7-56.16,55.17-16.41,81.9-11.41,52.38,19.3,72.23,40.25,32.74,47.35,36.28,74.31a.89.89,0,0,1-.09.56.94.94,0,0,1,.23.53c3.33,27-2.53,55.77-16.49,81s-35.21,45.53-59.83,57.08A131.24,131.24,0,0,1,339.2,411.83Zm0-265.91c-47.57,0-94.63,26.6-117.65,68.66-26.71,48.81-18.45,113.66,19.64,154.2S343.53,421.61,393.9,398s82-80.84,75.19-136.06a.92.92,0,0,1,.09-.55,1.07,1.07,0,0,1-.23-.52c-7.26-55.16-52.21-102.62-106.9-112.85A123.58,123.58,0,0,0,339.23,145.92Z"/>
        </g>
        <g>
          <path d="M344.92,164.25c15-.21,22.92-21,37.87-22.28,6.08-.51,11.85,2.47,17.23,5.36l35.37,19c4.77,2.56,9.77,5.34,12.48,10,8,13.79-9,31.89-2.43,46.42" style="fill: #fff"/>
          <path d="M445.44,223.76a1,1,0,0,1-.91-.59c-3.35-7.41-.87-15.62,1.52-23.55,2.49-8.27,4.84-16.08,1-22.78-2.66-4.57-7.89-7.38-12.09-9.64l-35.37-19c-4.76-2.56-10.69-5.73-16.68-5.25-7,.58-12.31,5.61-18,10.94-5.86,5.53-11.93,11.24-20,11.35a1,1,0,0,1-1-1,1,1,0,0,1,1-1c7.25-.1,12.77-5.3,18.62-10.81,5.66-5.32,11.5-10.83,19.17-11.47,6.59-.55,12.8,2.8,17.8,5.48l35.36,19c4.43,2.38,9.94,5.34,12.88,10.4,4.32,7.45,1.73,16-.78,24.36-2.28,7.58-4.65,15.42-1.61,22.15a1,1,0,0,1-.5,1.32A1,1,0,0,1,445.44,223.76Z"/>
        </g>
        <g>
          <path d="M232.05,226c-9.92,8.39-28.47-.43-36.52,9.77-3.23,4.1-3.27,9.78-3.15,15l1.32,60.47c.07,3.27.18,6.69,1.81,9.53,6.26,10.89,27.32,3.72,32.82,15" style="fill: #fff"/>
          <path d="M228.33,336.78a1,1,0,0,1-.9-.56c-2.55-5.24-8.9-6.17-15.62-7.14s-13.83-2-17.17-7.81c-1.79-3.13-1.88-6.94-1.94-10l-1.32-60.47c-.13-5.84,0-11.43,3.37-15.65,4.52-5.73,12.07-5.85,19.36-6,6.32-.1,12.86-.2,17.3-4a1,1,0,1,1,1.29,1.53c-5,4.22-11.88,4.32-18.55,4.43-7.15.11-13.9.21-17.83,5.2-2.93,3.7-3.06,8.91-2.94,14.36l1.32,60.48c.06,3,.14,6.37,1.68,9,2.84,5,9.1,5.86,15.72,6.83,6.94,1,14.11,2,17.13,8.24a1,1,0,0,1-.46,1.34A1,1,0,0,1,228.33,336.78Z"/>
        </g>
        <path d="M252.28,203.83a1,1,0,0,1-.59-.2,1,1,0,0,1-.21-1.4,85.72,85.72,0,0,1,27.44-24,1,1,0,0,1,1,1.76,83.62,83.62,0,0,0-26.79,23.44A1,1,0,0,1,252.28,203.83Z"/>
        <path d="M200.86,321.49a1.1,1.1,0,0,1-.31,0,1,1,0,0,1-.65-1.26L206.63,299a144.73,144.73,0,0,0,4.05-14.51,72.27,72.27,0,0,0-3.91-41.57,11.48,11.48,0,0,0-2.44-4.08,3.74,3.74,0,0,0-3.73-1,1,1,0,1,1-.73-1.86,5.66,5.66,0,0,1,5.84,1.44,13.35,13.35,0,0,1,2.91,4.77,74.36,74.36,0,0,1,4,42.73,147.65,147.65,0,0,1-4.1,14.71l-6.73,21.25A1,1,0,0,1,200.86,321.49Z"/>
        <path d="M214,299.8a1,1,0,0,1-.46-.11,1,1,0,0,1-.43-1.35A61.49,61.49,0,0,0,217.79,254a1,1,0,1,1,1.93-.54,63.49,63.49,0,0,1-4.81,45.85A1,1,0,0,1,214,299.8Z"/>
        <path d="M420.15,188.76a1,1,0,0,1-.89-.54c-1.5-2.93-5.61-3.48-9.24-3.95l-.78-.11a43,43,0,0,1-33.41-25.77,14.54,14.54,0,0,1-1.37-6.49,6.76,6.76,0,0,1,3.79-5.83,1,1,0,0,1,.78,1.84,4.87,4.87,0,0,0-2.57,4.14,12.41,12.41,0,0,0,1.22,5.57,41,41,0,0,0,31.83,24.56l.77.1c3.91.52,8.78,1.16,10.76,5a1,1,0,0,1-.43,1.35A1.07,1.07,0,0,1,420.15,188.76Z"/>
        <path d="M395.29,176.69a1,1,0,0,1-1-.87l-2.37-18.93a1,1,0,0,1,2-.25l2.36,18.93a1,1,0,0,1-.87,1.11Z"/>
        <path d="M405,181a1,1,0,0,1-1-.93l-1.29-19.25a1,1,0,0,1,.93-1.07,1,1,0,0,1,1.06.93l1.29,19.26A1,1,0,0,1,405,181Z"/>
        <path d="M211.77,264.51l-.17,0L203,263a1,1,0,1,1,.35-2l8.56,1.52a1,1,0,0,1-.18,2Z"/>
        <path d="M211.48,274.22a.75.75,0,0,1-.26,0l-14.66-4a1,1,0,0,1,.52-1.93l14.67,4a1,1,0,0,1-.27,2Z"/>
        <path d="M209,284.06H209l-5.19-.29a1,1,0,1,1,.11-2l5.19.28a1,1,0,0,1-.05,2Z"/>
        <path d="M259.13,369.83a9.1,9.1,0,0,1-3.25-.68c-4.26-1.65-8.81-5.86-8.78-9.52,0-1.4.66-3.3,3.74-4.44a4.74,4.74,0,0,1,3.76-.09c1.65.79,2.29,2.68,2.9,4.5a8.28,8.28,0,0,0,1.72,3.41,5.8,5.8,0,0,0,1.07.69,8.26,8.26,0,0,1,1.35.89,3.4,3.4,0,0,1,1.19,2.28,2.21,2.21,0,0,1-.55,1.69h0A4,4,0,0,1,259.13,369.83Zm2.4-1.93h0ZM253,356.76a4.26,4.26,0,0,0-1.47.31c-2.42.9-2.43,2.16-2.43,2.57,0,2.43,3.62,6.15,7.5,7.64.92.36,3.18,1.07,4.18,0,0,0,.07-.07.06-.23a1.4,1.4,0,0,0-.5-.89,6.32,6.32,0,0,0-1-.67,7.5,7.5,0,0,1-1.4-.92,9.42,9.42,0,0,1-2.3-4.28c-.51-1.5-1-2.91-1.87-3.33A1.72,1.72,0,0,0,253,356.76Z"/>
        <path d="M297.76,374.63c-3.08,0-8.59-1.38-11.6-4.56a6.52,6.52,0,0,1-2-5.09,1.23,1.23,0,0,1,.57-.88c1.65-.92,14.42,4,14.56,4.12h0c2,1,3,2.44,2.66,3.91s-1.84,2.46-4,2.5ZM286.21,366a4.91,4.91,0,0,0,1.4,2.66c2.51,2.65,7.59,4,10.3,3.94.93,0,2-.3,2.1-.89s-.76-1.3-1.62-1.74A108.88,108.88,0,0,0,286.21,366Z"/>
        <path d="M277.46,250.09a7.84,7.84,0,0,1-3.53-.81,8.29,8.29,0,0,1-4.4-8.21c.35-2.81,2.08-5,3.75-7.22s3.2-4.16,3.34-6.54a13.65,13.65,0,0,0-.07-1.67,10.22,10.22,0,0,1,.05-2.81,7,7,0,0,1,5.18-5.15h0c4.28-1.19,16.32,1,21.11,5.42,2.3,2.1,2.49,4.18,2.24,5.56-.42,2.32-2.45,4.26-5.42,5.17a25.66,25.66,0,0,1-3.23.71,21.7,21.7,0,0,0-3.36.78,10.39,10.39,0,0,0-5.4,4.3,23.93,23.93,0,0,0-1.5,3.09,14.78,14.78,0,0,1-3.08,5.17A8.27,8.27,0,0,1,277.46,250.09Zm4.86-30.48a5.15,5.15,0,0,0-3.76,3.6,8.19,8.19,0,0,0,0,2.27,13.74,13.74,0,0,1,.06,1.94c-.16,3-2,5.37-3.75,7.66-1.57,2-3.06,4-3.34,6.24a6.07,6.07,0,0,0,10.23,5.12,13.28,13.28,0,0,0,2.63-4.51,24.29,24.29,0,0,1,1.65-3.36,12.38,12.38,0,0,1,6.43-5.14,24.64,24.64,0,0,1,3.67-.86,24.67,24.67,0,0,0,3-.65c1.73-.53,3.7-1.76,4-3.62.24-1.3-.29-2.52-1.61-3.72-4.48-4.09-15.93-5.88-19.23-5Z"/>
        <path d="M324.9,236.15a6.75,6.75,0,0,1-3.22-.78,5.63,5.63,0,0,1-3-5.39h0c.4-3.53,4.24-5.71,7.73-5.78,3.23-.06,5.55,1.67,6,4.52.49,3.21-2.06,6-4.71,6.93A8.29,8.29,0,0,1,324.9,236.15Zm-4.24-5.94a3.65,3.65,0,0,0,2,3.4,5.51,5.51,0,0,0,4.38.16c1.93-.7,3.73-2.67,3.41-4.75-.4-2.61-2.92-2.84-4-2.82-2.58.05-5.52,1.68-5.78,4Z"/>
        <path d="M239.91,203.6a1,1,0,0,1-.56-.17,1,1,0,0,1-.27-1.38,41.76,41.76,0,0,1,7.21-8.15,1,1,0,0,1,1.31,1.51,39.87,39.87,0,0,0-6.86,7.75A1,1,0,0,1,239.91,203.6Z"/>
      </g>
      <path d="M284.89,751.34a1,1,0,0,1-1-1L283.7,735l-3.54,12.76a1,1,0,0,1-1.23.7,1,1,0,0,1-.7-1.23l5.41-19.52a1,1,0,0,1,2,.26l.28,22.34a1,1,0,0,1-1,1Z"/>
      <path d="M291.93,757a1,1,0,0,1-.95-.67,1,1,0,0,1,.61-1.27,57.57,57.57,0,0,1,7.63-2.14L289,752.34a1,1,0,0,1,.12-2l23,1.36c1.72,0,3.44.13,5.14.31a1,1,0,0,1,.89,1.08,1,1,0,0,1-1.05.91l-5.05-.3A57.14,57.14,0,0,0,292.26,757,1,1,0,0,1,291.93,757Z"/>
      <path d="M279.12,799a1,1,0,0,1-1-.72,86.77,86.77,0,0,1-2.88-32.34,1,1,0,0,1,1.1-.9,1,1,0,0,1,.89,1.1,84.35,84.35,0,0,0,0,17.11,49.18,49.18,0,0,1,3.75-14.76,1,1,0,0,1,1.31-.53,1,1,0,0,1,.53,1.32,47.74,47.74,0,0,0-2.8,28.52,1,1,0,0,1-1,1.2Z"/>
      <path d="M267.86,758.21a1,1,0,0,1-.44-.1l-11.12-5.58a1,1,0,0,1,.45-1.89h0l15.26.12a1,1,0,0,1,0,2h0l-11-.09,7.27,3.65a1,1,0,0,1-.45,1.89Z"/>
      <path d="M799.72,119.52a.85.85,0,0,1-.23,0,1,1,0,0,1-.74-1.21l5.84-24.08a1,1,0,0,1,1-.76,1,1,0,0,1,.93.89l2.29,22.13a1,1,0,0,1-2,.21l-1.69-16.36-4.48,18.44A1,1,0,0,1,799.72,119.52Z"/>
      <path d="M781.19,140.94a95.1,95.1,0,0,1-34.09-6.31,1,1,0,0,1,.29-1.93l39-2.54a1,1,0,0,1,1.06.93,1,1,0,0,1-.93,1.06l-34.1,2.23A93.23,93.23,0,0,0,792,138.31a1,1,0,1,1,.23,2A92.82,92.82,0,0,1,781.19,140.94Z"/>
      <path d="M809,143.5a1,1,0,0,1-.29-2l26.46-7.77-24.12-1.41a1,1,0,0,1-.94-1.06,1,1,0,0,1,1.06-.94l29.87,1.75a1,1,0,0,1,.22,2l-32,9.39A1,1,0,0,1,809,143.5Z"/>
      <path d="M806,201a1,1,0,0,1-.87-.51,67.52,67.52,0,0,1-8-40.34,1,1,0,0,1,1.11-.87,1,1,0,0,1,.88,1.11,65.54,65.54,0,0,0,6,35.79l1.7-43.55a1,1,0,0,1,1-1,1,1,0,0,1,1,1L807,200a1,1,0,0,1-.77.93A.85.85,0,0,1,806,201Z"/>
      <path d="M837.58,333a7.13,7.13,0,0,1-5.55-2.92,7,7,0,0,1-1.24-6.63,1,1,0,0,1,.79-.65,1,1,0,0,1,.07-1A7,7,0,1,1,838.12,333,4.89,4.89,0,0,1,837.58,333Zm-5-9.65a1,1,0,0,1,0,.78,4.72,4.72,0,1,0,.62-1.2A1,1,0,0,1,832.62,323.33Z"/>
      <path d="M168.1,405.2l-.45,0a2.71,2.71,0,0,1-2.42-2.2,1,1,0,0,1,.85-1.13,1,1,0,0,1,1.13.85c0,.28.4.45.71.5s.7,0,.82-.29a1,1,0,0,1,.43-.48,3.46,3.46,0,0,0,1.65-2.9,3.45,3.45,0,0,0-6.82-.74,1,1,0,0,1-2-.32,5.43,5.43,0,0,1,10.8,1.17A5.49,5.49,0,0,1,170.4,404,2.68,2.68,0,0,1,168.1,405.2Z"/>
      <path d="M741.93,759.61a7.17,7.17,0,0,1-4.2-1.31,1,1,0,1,1,1.16-1.62,5.46,5.46,0,1,0-2.37-4.44,1,1,0,0,1-1,1,1,1,0,0,1-1-1,7.73,7.73,0,1,1,9.7,7A8.72,8.72,0,0,1,741.93,759.61Z"/>
      <path d="M135.48,597.88h-.59a1,1,0,1,1,.14-2c3.58.24,7-2.31,7.55-5.56a5.77,5.77,0,0,0-1.67-4.78,4.8,4.8,0,0,0-4-1.57,4.42,4.42,0,0,0-3.41,3.19,3.74,3.74,0,0,0,.73,4,1,1,0,0,1,0,1.42,1,1,0,0,1-1.41,0,5.68,5.68,0,0,1-1.25-6,6.43,6.43,0,0,1,5-4.55,6.78,6.78,0,0,1,5.74,2.16,7.67,7.67,0,0,1,2.22,6.48C143.91,594.67,139.83,597.88,135.48,597.88Z"/>
    </g>
    <g id="bfff9933-b2c5-44bc-8c6c-812fee889450" data-name="astronaut">
      <g>
        <path d="M547,804c13-1,26,1,29,12s2,35,5,57,1,44-28,49-35-7.59-28-38.3S547,804,547,804Z"/>
        <path d="M552.64,803.77c10.93,0,20.8,2.83,23.36,12.23,3,11,2,35,5,57s1,44-28,49a65.14,65.14,0,0,1-11,1.06c-19.46,0-23-13-17-39.36,7-30.7,22-79.7,22-79.7,1.89-.15,3.78-.23,5.64-.23m0-2v0h0c-1.83,0-3.78.08-5.79.24a2,2,0,0,0-1.76,1.4c-.15.5-15.1,49.43-22.05,79.85-4.07,17.85-3.59,28.69,1.57,35.16,3.57,4.47,9.26,6.64,17.41,6.64A67.26,67.26,0,0,0,553.34,924c13.84-2.39,23.09-8.88,27.5-19.32,3.35-7.92,4-18.07,2.14-31.92-1.39-10.24-1.92-21-2.39-30.56-.54-11.08-1-20.65-2.66-26.7-2.48-9.09-11-13.7-25.28-13.7Z"/>
      </g>
      <path d="M543,918.73a34.35,34.35,0,0,1-14.84-3.34,1,1,0,1,1,.86-1.8,32.27,32.27,0,0,0,45-20.22,1,1,0,0,1,1.93.55,34.66,34.66,0,0,1-18.9,21.83A34.25,34.25,0,0,1,543,918.73Z" style="fill: #fff"/>
      <g>
        <path d="M404.5,391.5c-23-16-9-111,3-130s232-29,257-14,43,283,44,304-24,55-33,62-57,8-57,8Z" style="fill: #fff"/>
        <g>
          <path d="M708.5,551.5c-.33-6.92-2.5-40.65-6.17-83.3L663.5,491.5c12,23,12,101,12,122C684.5,606.5,709.5,572.5,708.5,551.5Z" style="fill: #e21d67"/>
          <path d="M710.5,551.4c-.37-7.63-4.92-79.75-13-154.37-4.45-41-9.08-74.37-13.74-99-7.91-41.75-14.19-49.79-18.22-52.22-10.94-6.56-53-7.54-77-7.54v0c-37.43,0-80.51,2.21-115.24,5.91-40.67,4.34-63.36,9.81-67.44,16.28-6.39,10.11-12.81,38.94-14.93,67-1.52,20.14-1.93,55.35,12.3,65.54L617,622.86a2,2,0,0,0,1.46.64h0c5-.1,48.93-1.22,58.19-8.42S711.54,573.31,710.5,551.4Zm-34,59.92c-.09-63.43-4-103.59-11.69-119.44l36.66-22c3.64,42.59,5.72,75.15,6,81.67C708.42,571,686.2,602.25,676.5,611.32Zm-58,10.18-214-230c-23-16-9-111,3-130,8-12.61,107.59-21.26,181-21.26,37.17,0,67.61,2.22,76,7.26,16.69,10,30.26,132.83,37.74,219.59l-40.06,24,.43.83c7.89,15.12,11.89,56,11.89,121.54v.66C663.43,620.56,618.5,621.5,618.5,621.5Z"/>
        </g>
        <g>
          <path d="M664.5,247.5c-25-15-245-5-257,14-4.89,7.75-10.12,28.14-13,50.66L641.28,296.5l22.22,61,22.93-31.62C680.1,284.36,672.67,252.4,664.5,247.5Z" style="fill: #e21d67"/>
          <path d="M663.21,359.61,640.6,297.55,393.32,313.23l.16-1.2c2.93-22.72,8.23-43.24,13.17-51.06,6.72-10.64,71.23-17.54,124.43-20.22,55.15-2.78,120.59-2.11,133.93,5.89,7.67,4.6,15,30.47,22.41,79.09l.06.4ZM642,295.45l21.83,59.94,21.59-29.77c-9-58.61-16.58-74.37-21.39-77.26-11.13-6.68-65.75-9-132.82-5.61-68.35,3.44-117.71,11.19-122.82,19.28-4.72,7.47-9.8,27.08-12.73,49.05Z"/>
        </g>
        <path d="M645.5,295.5h-.14a1,1,0,0,1-.85-1.13,88.57,88.57,0,0,1,21.3-45.78,1,1,0,0,1,1.42,1.4,86.52,86.52,0,0,0-20.74,44.66A1,1,0,0,1,645.5,295.5Z"/>
      </g>
      <g>
        <g>
          <path d="M733.62,210.69a82.58,82.58,0,0,0-6.89-25l-1.42-3c-.5-1-1-1.94-1.58-2.91-1-2-2.27-3.77-3.46-5.62-.31-.48-.6-.88-.88-1.27l-.88-1.2-1.76-2.38c-1.18-1.58-2.31-3.18-3.66-4.69s-2.61-3.06-3.94-4.56-2.84-2.93-4.28-4.37l-2.18-2.16-2.35-2-2.36-2c-.8-.67-1.57-1.36-2.44-2l-5.12-3.74c-1.77-1.17-3.63-2.27-5.45-3.38l-1.38-.83-1.44-.75-2.91-1.46c-1-.47-1.92-1-2.93-1.4l-3-1.23a80.7,80.7,0,0,0-25.59-5.61,84.16,84.16,0,0,0-25.42,2.62c-16.21,4.2-30.19,12.42-41.85,22.43-2.92,2.52-5.69,5.17-8.34,7.91-1.29,1.4-2.62,2.76-3.84,4.23s-2.49,2.87-3.63,4.39l-1.74,2.25c-.56.76-1.11,1.54-1.66,2.31s-1.09,1.55-1.61,2.34L558,180c-1,1.59-1.95,3.27-2.88,4.92l-.8,1.43c-.36.65-.71,1.31-1,2-.66,1.33-1.24,2.67-1.74,4l5.74,261.83Q546,465.39,534.54,476.5q-14.87,14.28-30.13,28.06t-31.13,26.69a376.47,376.47,0,0,1-32.58,24,128.78,128.78,0,0,1-16.94,9.37c-1.4.58-2.81,1.19-4.18,1.63l-1,.36-1,.28-1,.29c-.34.09-.79.18-1.18.26-3.25.69-6.49,1.47-9.73,2.08A129.22,129.22,0,0,1,367,571.26a103.29,103.29,0,0,1-18.61-4c-3.05-.84-6.05-2.06-9.06-3.15-1.5-.59-3-1.27-4.47-1.89l-2.23-1c-.75-.33-1.48-.7-2.22-1.05l-4.43-2.12-4.41-2.29c-2.94-1.49-5.87-3.18-8.8-4.78s-5.86-3.36-8.8-5.07l-4.42-2.61L297.3,542l-2.67-1.45a76.2,76.2,0,0,0-11.37-4.93c-2-.58-4-1.28-6.16-1.69-1.06-.22-2.1-.47-3.17-.65l-3.24-.46a32.86,32.86,0,0,0-3.3-.26c-1.1-.06-2.2-.15-3.33-.1l-3.36.1-3.38.35A51.92,51.92,0,0,0,244,536.5a49.08,49.08,0,0,0-21.47,17.77,53.61,53.61,0,0,0-8.8,25.71,62.6,62.6,0,0,0,.33,13.08c.22,2.15.67,4.21,1.07,6.3.18,1,.51,2,.76,3.06s.52,2,.84,3a88.11,88.11,0,0,0,4.47,11.39l1.29,2.67c.46.88.94,1.75,1.42,2.62s.93,1.76,1.46,2.62l1.59,2.56c1,1.73,2.26,3.35,3.41,5s2.51,3.22,3.77,4.82,2.71,3.08,4.17,4.54,2.91,2.93,4.54,4.22a79.47,79.47,0,0,0,21,13A87.73,87.73,0,0,0,287,665a116.37,116.37,0,0,0,23,.53c1.88-.13,3.76-.25,5.61-.5s3.72-.41,5.56-.68c3.66-.59,7.32-1.15,10.9-2s7.12-1.67,10.66-2.54c1.76-.46,3.49-1,5.23-1.49s3.49-1,5.19-1.58a329.8,329.8,0,0,0,39.71-15.84c3.23-1.46,6.36-3.08,9.53-4.63s6.35-3.25,9.54-4.9l2.38-1.25c.81-.42,1.6-.84,2.32-1.3l2.21-1.37c.36-.23.74-.43,1.09-.7a2.6,2.6,0,0,0,.62-1.57,7.46,7.46,0,0,1,.45-1.91c.22-.49.66-.6,1-.83l2.26-1.26,4.53-2.53q36.15-20.28,72.56-40.13c24.29-13.21,48.67-26.28,73.32-38.91h0l5.49-3.21-.23-6.2-2.71-71.72q14.21-14,28.18-28.11,14.65-14.76,29.07-29.73l7.21-7.51,3.6-3.78c1.24-1.3,2.48-2.65,3.67-4,4.77-5.28,9.34-10.64,13.81-16.11,8.91-10.94,17.42-22.21,25.36-34a394.85,394.85,0,0,0,22-36.8c6.72-12.76,13-26.05,17.64-40.51a136.27,136.27,0,0,0,5.34-22.69A99.83,99.83,0,0,0,733.62,210.69ZM494,565.2q-35.34,21.57-71,42.56l-4.45,2.64-2.22,1.32c-.39.2-.7.52-1.22.46a6.71,6.71,0,0,1-1.8-.61,2.45,2.45,0,0,0-1.62-.29c-.4.17-.77.4-1.15.59l-2.28,1.23a24.78,24.78,0,0,1-2.27,1.1l-2.27,1c-3,1.34-6,2.72-9.15,4s-6.21,2.67-9.36,3.86a315.92,315.92,0,0,1-38,12.61c-1.59.45-3.2.78-4.8,1.16s-3.2.76-4.8,1.08c-3.21.6-6.41,1.3-9.61,1.72-1.59.22-3.19.55-4.78.7l-4.78.54c-3.16.22-6.34.52-9.46.52a101,101,0,0,1-18.3-1.18,66.71,66.71,0,0,1-16.59-5,53.43,53.43,0,0,1-13.86-9.09c-1.07-.88-2-1.93-3-2.89s-1.85-2.09-2.79-3.12-1.74-2.21-2.55-3.38-1.65-2.31-2.35-3.58l-1.12-1.86c-.37-.61-.68-1.28-1-1.92l-1-1.94-.93-2a64.29,64.29,0,0,1-3.07-7.88c-.21-.65-.34-1.31-.53-2s-.39-1.31-.48-2c-.23-1.31-.54-2.62-.64-3.91a35.17,35.17,0,0,1-.18-7.58c.75-9.85,6-17.88,14-21.68s19-3.22,29.32,1.64l2,.9,2.34,1.17,4.68,2.34q4.72,2.33,9.5,4.61c3.25,1.49,6.42,3,9.75,4.43l5,2.14,5.07,2c13.53,5.27,28.27,9.1,43.14,10.07a165.43,165.43,0,0,0,43.71-3.36c3.53-.72,7-1.6,10.5-2.39.45-.11.85-.19,1.33-.32l1.5-.43,1.49-.44,1.41-.49c1.92-.64,3.67-1.41,5.46-2.16a144.46,144.46,0,0,0,19.24-10.71,390.23,390.23,0,0,0,34-25.25c10.85-8.84,21.32-18,31.68-27.31s20.51-18.76,30.59-28.31c3.92-3.71,7.81-7.46,11.7-11.2l1,47.4C537.41,538.56,515.74,551.94,494,565.2Zm205.94-314A150.44,150.44,0,0,1,689,288.32a198.45,198.45,0,0,1-8.78,17.88q-4.8,8.78-10.13,17.33c-7.11,11.4-14.81,22.52-23,33.23-4.1,5.36-8.33,10.64-12.67,15.74-1.09,1.28-2.15,2.51-3.25,3.75l-3.42,3.82-6.93,7.63q-13.92,15.21-28.12,30.21-8.08,8.47-16.24,16.86l-9-238c.47-.12.86-.21,1.18-.31a3.36,3.36,0,0,0,.42-.16l.09-.05.21-.2.43-.41c1.16-1.1,2.25-2.23,3.46-3.27l1.75-1.6,1.82-1.53c.61-.51,1.19-1,1.81-1.54l1.86-1.47c2.48-2,5-3.82,7.62-5.55s5.23-3.4,7.9-4.93c10.69-6.12,22-10.4,32.9-11.82a57,57,0,0,1,15.77.07,51.29,51.29,0,0,1,14.41,4.39,61,61,0,0,1,13.11,8.47,16.07,16.07,0,0,1,1.53,1.35l1.52,1.39,1.54,1.38,1.45,1.54c.95,1,2,2,2.91,3.07s1.87,2.21,2.81,3.3,1.84,2.27,2.75,3.43L688,194l.69.87a9.13,9.13,0,0,1,.63.83c.69,1,1.48,2,2.1,3.1l1,1.59.92,1.63c.32.54.6,1.1.87,1.67l.86,1.68.75,1.75.39.87.33.9c.21.6.46,1.2.69,1.8l.6,1.86c.46,1.23.69,2.54,1.09,3.82a78.88,78.88,0,0,1,2.17,16.68A106.73,106.73,0,0,1,699.93,251.25Z" style="fill: #e21d67"/>
          <path d="M643.53,129c1.38,0,2.76,0,4.14.1a80.7,80.7,0,0,1,25.59,5.61l3,1.23c1,.4,2,.93,2.93,1.4l2.91,1.46,1.44.75,1.38.83c1.82,1.11,3.68,2.21,5.45,3.38l5.12,3.74c.87.61,1.64,1.3,2.44,2l2.36,2,2.35,2,2.18,2.16c1.44,1.44,2.93,2.87,4.28,4.37s2.64,3,3.94,4.56,2.48,3.11,3.66,4.69l1.76,2.38.88,1.2c.28.39.57.79.88,1.27,1.19,1.85,2.42,3.67,3.46,5.62.53,1,1.08,1.93,1.58,2.91l1.42,3a82.58,82.58,0,0,1,6.89,25,99.83,99.83,0,0,1-.49,24.61A136.27,136.27,0,0,1,727.79,258c-4.68,14.46-10.92,27.75-17.64,40.51a394.85,394.85,0,0,1-22,36.8c-7.94,11.76-16.45,23-25.36,34-4.47,5.47-9,10.83-13.81,16.11-1.19,1.31-2.43,2.66-3.67,4l-3.6,3.78-7.21,7.51q-14.41,15-29.07,29.73-14,14.16-28.18,28.11L580,530.19l.23,6.2-5.49,3.21h0c-24.65,12.63-49,25.7-73.32,38.91S453,605.12,428.86,618.64l-4.53,2.53-2.26,1.26c-.36.23-.8.34-1,.83a7.46,7.46,0,0,0-.45,1.91,2.6,2.6,0,0,1-.62,1.57c-.35.27-.73.47-1.09.7l-2.21,1.37c-.72.46-1.51.88-2.32,1.3L412,631.36c-3.19,1.65-6.4,3.39-9.54,4.9s-6.3,3.17-9.53,4.63a329.8,329.8,0,0,1-39.71,15.84c-1.7.59-3.46,1.06-5.19,1.58s-3.47,1-5.23,1.49c-3.54.87-7,1.84-10.66,2.54s-7.24,1.37-10.9,2c-1.84.27-3.71.46-5.56.68s-3.73.37-5.61.5c-3,.21-6,.33-9.06.33a112,112,0,0,1-14-.86,87.73,87.73,0,0,1-23.2-6.09,79.47,79.47,0,0,1-21-13c-1.63-1.29-3-2.8-4.54-4.22s-2.78-3-4.17-4.54-2.59-3.17-3.77-4.82-2.39-3.29-3.41-5l-1.59-2.56c-.53-.86-1-1.74-1.46-2.62s-1-1.74-1.42-2.62l-1.29-2.67a88.11,88.11,0,0,1-4.47-11.39c-.32-1-.56-2-.84-3s-.58-2-.76-3.06c-.4-2.09-.85-4.15-1.07-6.3a62.6,62.6,0,0,1-.33-13.08,53.61,53.61,0,0,1,8.8-25.71A49.08,49.08,0,0,1,244,536.5a51.92,51.92,0,0,1,13.34-3.58l3.38-.35,3.36-.1h.71c.88,0,1.75.06,2.62.11a32.86,32.86,0,0,1,3.3.26l3.24.46c1.07.18,2.11.43,3.17.65,2.13.41,4.12,1.11,6.16,1.69a76.2,76.2,0,0,1,11.37,4.93L297.3,542l2.21,1.3,4.42,2.61q4.41,2.57,8.8,5.07c2.93,1.6,5.86,3.29,8.8,4.78l4.41,2.29,4.43,2.12c.74.35,1.47.72,2.22,1.05l2.23,1c1.49.62,3,1.3,4.47,1.89,3,1.09,6,2.31,9.06,3.15a103.29,103.29,0,0,0,18.61,4A111.08,111.08,0,0,0,380,572a140.67,140.67,0,0,0,25.64-2.49c3.24-.61,6.48-1.39,9.73-2.08.39-.08.84-.17,1.18-.26l1-.29,1-.28,1-.36c1.37-.44,2.78-1,4.18-1.63a128.78,128.78,0,0,0,16.94-9.37,376.47,376.47,0,0,0,32.58-24q15.87-12.87,31.13-26.69t30.13-28.06q11.49-11.08,22.78-22.39l-5.74-261.83c.5-1.3,1.08-2.64,1.74-4,.33-.66.68-1.32,1-2l.8-1.43c.93-1.65,1.85-3.33,2.88-4.92l1.54-2.4c.52-.79,1.07-1.55,1.61-2.34s1.1-1.55,1.66-2.31l1.74-2.25c1.14-1.52,2.39-2.95,3.63-4.39s2.55-2.83,3.84-4.23c2.65-2.74,5.42-5.39,8.34-7.91,11.66-10,25.64-18.23,41.85-22.43A84.21,84.21,0,0,1,643.53,129M576.4,434.77q8.15-8.4,16.24-16.86,14.18-15,28.12-30.21l6.93-7.63,3.42-3.82c1.1-1.24,2.16-2.47,3.25-3.75,4.34-5.1,8.57-10.38,12.67-15.74,8.23-10.71,15.93-21.83,23-33.23q5.34-8.53,10.13-17.33A198.45,198.45,0,0,0,689,288.32a150.44,150.44,0,0,0,10.95-37.07,106.73,106.73,0,0,0,1.18-18.17,78.88,78.88,0,0,0-2.17-16.68c-.4-1.28-.63-2.59-1.09-3.82l-.6-1.86c-.23-.6-.48-1.2-.69-1.8l-.33-.9-.39-.87-.75-1.75-.86-1.68c-.27-.57-.55-1.13-.87-1.67l-.92-1.63-1-1.59c-.62-1.08-1.41-2.06-2.1-3.1a9.13,9.13,0,0,0-.63-.83L688,194l-1.35-1.76c-.91-1.16-1.77-2.38-2.75-3.43s-1.88-2.19-2.81-3.3-2-2-2.91-3.07l-1.45-1.54-1.54-1.38-1.52-1.39a16.07,16.07,0,0,0-1.53-1.35,61,61,0,0,0-13.11-8.47A51.29,51.29,0,0,0,644.64,164a49.78,49.78,0,0,0-7.77-.58,66.25,66.25,0,0,0-8,.51c-10.87,1.42-22.21,5.7-32.9,11.82-2.67,1.53-5.33,3.16-7.9,4.93s-5.14,3.6-7.62,5.55l-1.86,1.47c-.62.5-1.2,1-1.81,1.54L575,190.72l-1.75,1.6c-1.21,1-2.3,2.17-3.46,3.27l-.43.41-.21.2-.09.05a3.36,3.36,0,0,1-.42.16c-.32.1-.71.19-1.18.31l9,238.05M374.51,590.1c-3.08,0-6.18-.1-9.28-.3-14.87-1-29.61-4.8-43.14-10.07l-5.07-2-5-2.14c-3.33-1.4-6.5-2.94-9.75-4.43s-6.35-3.06-9.5-4.61l-4.68-2.34L285.79,563l-2-.9A41.26,41.26,0,0,0,266.43,558a27.9,27.9,0,0,0-11.91,2.48c-8.06,3.8-13.28,11.83-14,21.68a35.17,35.17,0,0,0,.18,7.58c.1,1.29.41,2.6.64,3.91.09.65.33,1.31.48,2s.32,1.32.53,2a64.29,64.29,0,0,0,3.07,7.88l.93,2,1,1.94c.35.64.66,1.31,1,1.92l1.12,1.86c.7,1.27,1.57,2.38,2.35,3.58s1.71,2.25,2.55,3.38,1.82,2.14,2.79,3.12,1.92,2,3,2.89A53.43,53.43,0,0,0,274,635.27a66.71,66.71,0,0,0,16.59,5,96.65,96.65,0,0,0,15.91,1.2l2.39,0h0c3.11,0,6.27-.3,9.42-.52l4.78-.54c1.59-.15,3.19-.48,4.78-.7,3.2-.42,6.4-1.12,9.61-1.72,1.6-.32,3.2-.72,4.8-1.08s3.21-.71,4.8-1.16a315.92,315.92,0,0,0,38-12.61c3.15-1.19,6.24-2.57,9.36-3.86s6.11-2.68,9.15-4l2.27-1a24.78,24.78,0,0,0,2.27-1.1l2.28-1.23c.38-.19.75-.42,1.15-.59a.93.93,0,0,1,.34-.06,3.53,3.53,0,0,1,1.28.35,6.71,6.71,0,0,0,1.8.61h.12a2.37,2.37,0,0,0,1.1-.47l2.22-1.32,4.45-2.64q35.64-21.07,71-42.56c21.75-13.26,43.42-26.64,64.88-40.37l-1-47.4c-3.89,3.74-7.78,7.49-11.7,11.2-10.08,9.55-20.23,19-30.59,28.31s-20.83,18.47-31.68,27.31a390.23,390.23,0,0,1-34,25.25,144.46,144.46,0,0,1-19.24,10.71c-1.79.75-3.54,1.52-5.46,2.16l-1.41.49-1.49.44-1.5.43c-.48.13-.88.21-1.33.32-3.5.79-7,1.67-10.5,2.38a172.2,172.2,0,0,1-34.43,3.67M643.53,127a85.42,85.42,0,0,0-21.78,2.79c-15.24,3.94-29.59,11.63-42.65,22.84-2.84,2.45-5.69,5.15-8.48,8l-1,1c-1,1.06-2,2.15-3,3.31l-.33.39c-1.13,1.3-2.29,2.65-3.36,4.09l-1.72,2.22c-.5.67-1,1.34-1.43,2l-.28.4c-.19.27-.37.52-.54.78-.37.53-.75,1.06-1.11,1.6l-1.55,2.43c-.91,1.41-1.74,2.88-2.55,4.32l-.39.7-.8,1.44c-.38.67-.75,1.36-1.09,2-.66,1.33-1.27,2.72-1.82,4.14l-.14.37v.4l5.72,261c-8,8-15.24,15.09-22.15,21.76-10.17,9.77-20.29,19.2-30.08,28-10.27,9.28-20.72,18.23-31.05,26.62a366.74,366.74,0,0,1-32.4,23.86A125,125,0,0,1,423,562.78l-.75.31c-1.14.47-2.22.92-3.25,1.26l-1,.35L417,565l-1,.3-.62.13-.46.11c-1.16.24-2.35.5-3.55.77-2,.44-4.07.9-6.1,1.28A138.68,138.68,0,0,1,380,570a111.41,111.41,0,0,1-12.81-.73A102.15,102.15,0,0,1,349,565.33l0,0h0c-2.17-.59-4.37-1.41-6.51-2.21l-2.39-.88c-.9-.36-1.84-.76-2.74-1.16l-1.66-.71-2.21-1c-.44-.19-.89-.41-1.35-.63l-.81-.39-4.39-2.1L322.45,554c-2-1-4.05-2.15-6-3.24l-2.74-1.52c-3-1.72-6.11-3.5-8.75-5l-4.41-2.6-2.22-1.3,0,0,0,0-2.67-1.45a77.62,77.62,0,0,0-11.67-5.06h-.06l-.05,0-1.65-.49a42.81,42.81,0,0,0-4.69-1.24l-.91-.2c-.74-.16-1.51-.33-2.3-.46l-3.27-.46a21.35,21.35,0,0,0-2.58-.24l-.88,0-.75,0c-.65,0-1.32-.07-2-.07-.27,0-.53,0-.8,0l-3.33.09h-.15l-3.38.35h-.06a53.51,53.51,0,0,0-13.84,3.72,51,51,0,0,0-22.37,18.5,55.36,55.36,0,0,0-9.12,26.66,64,64,0,0,0,.34,13.47,52.63,52.63,0,0,0,.89,5.41l.2,1c.13.75.33,1.47.52,2.17.09.33.18.65.26,1V603l.26.95c.18.71.37,1.43.6,2.15a89.63,89.63,0,0,0,4.58,11.65l1.29,2.67v0l1,1.85.44.81c.18.31.33.6.49.89.32.59.65,1.21,1,1.82l1.58,2.56c.73,1.25,1.6,2.47,2.43,3.64l1,1.46c.89,1.24,1.82,2.4,2.73,3.52l1.12,1.4,0,.06,0,.05,1.26,1.4c.95,1.07,1.93,2.17,3,3.22l1.26,1.23c1.07,1,2.17,2.13,3.4,3.11a81.19,81.19,0,0,0,21.5,13.27,89.41,89.41,0,0,0,23.72,6.22,112.06,112.06,0,0,0,14.22.88c3,0,6.09-.11,9.2-.34l.53,0c1.7-.12,3.47-.24,5.21-.47l1.82-.22c1.23-.14,2.5-.29,3.76-.47l1.29-.21c3.2-.51,6.51-1.05,9.73-1.77,2.74-.53,5.43-1.22,8-1.88l2.69-.68c1.21-.31,2.37-.66,3.5-1l1.8-.52,1.31-.38c1.3-.38,2.65-.77,4-1.22a331.57,331.57,0,0,0,39.91-15.93c2.28-1,4.55-2.16,6.75-3.25l2.8-1.39c2.39-1.15,4.85-2.45,7.23-3.69l2.36-1.24,2.39-1.25a26.74,26.74,0,0,0,2.46-1.39l2.19-1.34.37-.24c.26-.16.56-.33.87-.56l0,0,0,0a4.41,4.41,0,0,0,1.34-2.8l.05-.33c0-.26.1-.62.15-.84l.3-.17,2.23-1.25,4.52-2.53c29.24-16.39,51.62-28.76,72.54-40.12,19.94-10.83,46.28-25,73.28-38.88l0,0,0,0,5.51-3.23,1-.6,0-1.2-.24-6.2-2.67-70.84c9.27-9.1,18.54-18.35,27.58-27.51C617,421.58,626.79,411.57,636,402l7.21-7.51,3.61-3.78c1.08-1.13,2.22-2.36,3.7-4,4.56-5.05,9.1-10.34,13.88-16.18,9.59-11.77,17.92-22.93,25.47-34.13a391.73,391.73,0,0,0,22.06-37c8.19-15.54,13.67-28.14,17.79-40.83a139.5,139.5,0,0,0,5.41-23,102.1,102.1,0,0,0,.5-25.11,84,84,0,0,0-7.07-25.63l-1.42-3v0l0,0c-.37-.72-.76-1.43-1.14-2.11-.16-.28-.32-.56-.47-.84-.87-1.65-1.89-3.22-2.88-4.74l-.65-1c-.33-.52-.65-1-1-1.38l-.87-1.19-1.77-2.39-.61-.82c-1-1.32-2-2.69-3.15-4-1.4-1.65-2.69-3.14-4-4.57-1-1.17-2.16-2.27-3.24-3.34l-1.12-1.12-2.19-2.17-.05,0,0,0L701.65,150l-2.37-2-.35-.3c-.7-.59-1.42-1.21-2.25-1.79l-5.08-3.71,0,0,0,0c-1.33-.89-2.71-1.72-4-2.53l-1.47-.9-1.39-.83,0,0-.06,0-1.45-.75-2.91-1.47-1-.49c-.67-.33-1.36-.68-2.11-1l-3-1.23a83.53,83.53,0,0,0-26.23-5.75c-1.41-.07-2.84-.1-4.25-.1Zm-67.25,65.22,1.79-1.52.81-.68,1-.82,1.84-1.46c2.63-2.07,5.08-3.86,7.49-5.45s4.85-3.18,7.79-4.87c10.92-6.25,22-10.25,32.16-11.56a63.53,63.53,0,0,1,7.74-.5,48.36,48.36,0,0,1,7.46.56,49.24,49.24,0,0,1,13.86,4.22,58,58,0,0,1,12.67,8.19l.06,0,.07.05a10.34,10.34,0,0,1,1.06.92l.28.26,1.53,1.41,1.49,1.33,1.39,1.48c.41.45.85.9,1.29,1.35s1.07,1.09,1.56,1.65c.88,1.06,1.8,2.14,2.83,3.31l0,0v0c.63.68,1.22,1.46,1.85,2.29l.79,1,1.35,1.74.7.89c.16.19.4.49.51.66.29.45.58.85.87,1.26.44.61.85,1.19,1.19,1.77l0,0,0,0,1,1.54.89,1.59,0,0,0,0c.26.44.5.92.78,1.49l.85,1.67.72,1.68.37.83.3.84c.17.47.36,1,.55,1.42l.15.38.58,1.8v0l0,0a19.25,19.25,0,0,1,.58,2c.14.53.28,1.08.45,1.64a77.11,77.11,0,0,1,2.1,16.2A104.58,104.58,0,0,1,698,251a147.14,147.14,0,0,1-10.81,36.57,191.62,191.62,0,0,1-8.69,17.7c-3.2,5.87-6.59,11.67-10.08,17.25-7.09,11.36-14.8,22.48-22.92,33.06-4.28,5.58-8.52,10.85-12.61,15.67-.94,1.1-2.06,2.41-3.22,3.71l-3.42,3.82-6.92,7.62c-9.09,9.92-18.54,20.08-28.1,30.18-4,4.24-8.31,8.68-13,13.48l-8.74-231.8a3.46,3.46,0,0,0,.43-.19l.14-.06.23-.13.2-.19.21-.19.44-.42,1.08-1c.78-.76,1.51-1.48,2.3-2.16l0,0,0,0,1.72-1.57ZM374.51,592.1a175.14,175.14,0,0,0,34.83-3.71c2.35-.47,4.7-1,7-1.56l3.57-.83.46-.11,1-.23,1.52-.44,1.5-.44h.05l.05,0,1.41-.49c1.74-.59,3.36-1.27,4.93-1.94l.64-.26h.05A147.08,147.08,0,0,0,451,571.18a395.29,395.29,0,0,0,34.17-25.38c11.59-9.45,22.56-19.14,31.75-27.37,11.37-10.18,22.34-20.49,30.63-28.34,2.79-2.65,5.54-5.28,8.43-8.06l.92,41.72C538.36,535.57,518,548.21,493,563.49,472.66,575.87,450.77,589,422,606l-4.45,2.64-2.19,1.3-.27.16-.69-.29-.29-.13a5.48,5.48,0,0,0-2.06-.5,3.05,3.05,0,0,0-1.05.19h0l0,0a9.76,9.76,0,0,0-.92.47l-.35.18-2.31,1.24,0,0h0a20.71,20.71,0,0,1-2.08,1l-2.29,1-2.56,1.15c-2.11,1-4.29,1.93-6.53,2.84l-2.85,1.21c-2.12.9-4.31,1.82-6.46,2.64a317,317,0,0,1-37.82,12.54c-1.17.33-2.3.59-3.49.86l-1.27.29-1.73.4c-1,.23-2,.47-3,.67l-2.68.52c-2.23.43-4.55.88-6.79,1.18l-1.89.29c-1,.16-1.9.31-2.81.39l-4.78.54-1.82.14c-2.46.19-5,.38-7.42.38h-.07l-2.36,0A94.21,94.21,0,0,1,291,638.27a65.23,65.23,0,0,1-16.1-4.82,51.65,51.65,0,0,1-13.34-8.75l0,0,0,0a24,24,0,0,1-1.82-1.72c-.35-.36-.69-.72-1.05-1.06-.5-.51-1-1.1-1.55-1.72q-.54-.63-1.08-1.23l-1-1.29c-.52-.66-1-1.28-1.45-1.93-.29-.44-.58-.86-.88-1.29-.5-.73-1-1.42-1.38-2.15l0,0,0,0-1.11-1.86c-.21-.33-.4-.7-.6-1.09s-.26-.51-.4-.76l-1-1.86-.91-2a59.5,59.5,0,0,1-3-7.65c-.11-.34-.2-.7-.3-1.08s-.13-.52-.2-.77-.13-.52-.2-.78a8.49,8.49,0,0,1-.24-1v-.07l-.21-1.14a22,22,0,0,1-.41-2.57v-.13a33.17,33.17,0,0,1-.17-7.16c.7-9.05,5.52-16.53,12.9-20A25.71,25.71,0,0,1,266.43,560,39.3,39.3,0,0,1,283,564l1.93.89,2.31,1.16,4.69,2.34c3.54,1.74,6.51,3.19,9.53,4.63l2.94,1.36c2.23,1,4.53,2.12,6.9,3.11l4.94,2.12,0,0h0l5.08,2A147.78,147.78,0,0,0,365.1,591.8c3.08.2,6.25.3,9.41.3Z"/>
        </g>
        <path d="M679.19,346.3a394.85,394.85,0,0,0,22-36.8c6.72-12.76,13-26.05,17.64-40.51a136.27,136.27,0,0,0,5.34-22.69,99.83,99.83,0,0,0,.49-24.61,82.58,82.58,0,0,0-6.89-25l-1.42-3c-.5-1-1-1.94-1.58-2.91-1-2-2.27-3.77-3.46-5.62-.31-.48-.6-.88-.88-1.27l-.88-1.2-1.76-2.38c-1.18-1.58-2.31-3.18-3.66-4.69s-2.61-3.06-3.94-4.56-2.84-2.93-4.28-4.37l-2.18-2.16-2.35-2-2.36-2c-.8-.67-1.57-1.36-2.44-2l-5.12-3.74c-1.77-1.17-3.63-2.27-5.45-3.38l-1.38-.83-1.44-.75-2.91-1.46c-1-.47-1.92-1-2.93-1.4l-3-1.23a80.7,80.7,0,0,0-25.59-5.61,84.16,84.16,0,0,0-25.42,2.62c-16.21,4.2-30.19,12.42-41.85,22.43-2.92,2.52-5.69,5.17-8.34,7.91-.43.47-.87.94-1.31,1.4-.18.27-.37.52-.56.78-.54.79-1.09,1.55-1.61,2.34L558,180c-1,1.59-1.95,3.27-2.88,4.92l-.8,1.43c-.36.65-.71,1.31-1,2-.66,1.33-1.24,2.67-1.74,4l5.74,261.83q-4.5,4.5-9,9l0,2Q537,476.39,525.54,487.5q-14.86,14.28-30.13,28.06t-31.13,26.69a376.47,376.47,0,0,1-32.58,24,128.78,128.78,0,0,1-16.94,9.37c-1.4.58-2.81,1.19-4.18,1.63l-1,.36-1,.28-1,.29c-.34.09-.79.18-1.18.26-3.25.69-6.49,1.47-9.73,2.08A129.22,129.22,0,0,1,358,582.26a103.29,103.29,0,0,1-18.61-4c-3.05-.84-6.05-2.06-9.06-3.15-1.5-.59-3-1.27-4.47-1.89l-2.23-1c-.75-.33-1.48-.7-2.22-1.05l-4.43-2.12-4.41-2.29c-2.94-1.49-5.87-3.18-8.8-4.78s-5.86-3.36-8.8-5.07l-4.42-2.61L288.3,553l-2.67-1.45a76.2,76.2,0,0,0-11.37-4.93c-2-.58-4-1.28-6.16-1.69-1.06-.22-2.1-.47-3.17-.65l-3.24-.46a32.86,32.86,0,0,0-3.3-.26c-1.1-.06-2.2-.15-3.33-.1l-3.36.1-3.38.35A51.92,51.92,0,0,0,235,547.5a49.59,49.59,0,0,0-13.82,8.9A54.11,54.11,0,0,0,213.71,580a62.6,62.6,0,0,0,.33,13.08c.22,2.15.67,4.21,1.07,6.3.18,1,.51,2,.76,3.06s.52,2,.84,3a88.11,88.11,0,0,0,4.47,11.39l1.29,2.67c.46.88.94,1.75,1.42,2.62s.93,1.76,1.46,2.62l1.59,2.56c1,1.73,2.26,3.35,3.41,5s2.51,3.22,3.77,4.82,2.71,3.08,4.17,4.54,2.91,2.93,4.54,4.22a79.47,79.47,0,0,0,21,13A87.73,87.73,0,0,0,287,665a116.37,116.37,0,0,0,23,.53c1.88-.13,3.76-.25,5.61-.5s3.72-.41,5.56-.68c3.66-.59,7.32-1.15,10.9-2s7.12-1.67,10.66-2.54c1.76-.46,3.49-1,5.23-1.49s3.49-1,5.19-1.58a329.8,329.8,0,0,0,39.71-15.84c3.23-1.46,6.36-3.08,9.53-4.63s6.35-3.25,9.54-4.9l2.38-1.25c.81-.42,1.6-.84,2.32-1.3l2.21-1.37c.36-.23.74-.43,1.09-.7a2.6,2.6,0,0,0,.62-1.57,7.46,7.46,0,0,1,.45-1.91c.22-.49.66-.6,1-.83l2.26-1.26,4.53-2.53q36.15-20.28,72.56-40.13c23.06-12.54,46.21-25,69.59-37v-.34l-2.71-71.72q4.56-4.49,9.08-9l-.08-2q14.21-14,28.18-28.11,14.65-14.76,29.07-29.73l7.21-7.51,3.6-3.78c1.24-1.3,2.48-2.65,3.67-4q4.44-4.92,8.67-9.94C665.2,366,672.42,356.34,679.19,346.3ZM549.87,535.83c-21.46,13.73-43.13,27.11-64.88,40.37q-35.34,21.57-71,42.56l-4.45,2.64-2.22,1.32c-.39.2-.7.52-1.22.46a6.71,6.71,0,0,1-1.8-.61,2.45,2.45,0,0,0-1.62-.29c-.4.17-.77.4-1.15.59l-2.28,1.23a24.78,24.78,0,0,1-2.27,1.1l-2.27,1c-3,1.34-6,2.72-9.15,4s-6.21,2.67-9.36,3.86a315.92,315.92,0,0,1-38,12.61c-1.59.45-3.2.78-4.8,1.16s-3.2.76-4.8,1.08c-3.21.6-6.41,1.3-9.61,1.72-1.59.22-3.19.55-4.78.7l-4.78.54c-3.16.22-6.34.52-9.46.52a101,101,0,0,1-18.3-1.18,66.71,66.71,0,0,1-16.59-5,53.43,53.43,0,0,1-13.86-9.09c-1.07-.88-2-1.93-3-2.89s-1.85-2.09-2.79-3.12-1.74-2.21-2.55-3.38-1.65-2.31-2.35-3.58l-1.12-1.86c-.37-.61-.68-1.28-1-1.92l-1-1.94-.93-2a64.29,64.29,0,0,1-3.07-7.88c-.21-.65-.34-1.31-.53-2s-.39-1.31-.48-2c-.23-1.31-.54-2.62-.64-3.91a35.17,35.17,0,0,1-.18-7.58c.66-8.62,4.74-15.85,11.15-20.06a24,24,0,0,1,11.88-12.62c8.07-3.8,19-3.22,29.32,1.64l2,.9,2.34,1.17,4.68,2.34q4.72,2.33,9.5,4.61c3.25,1.49,6.42,3,9.75,4.43l5,2.14,5.07,2c13.53,5.27,28.27,9.1,43.14,10.07a165.43,165.43,0,0,0,43.71-3.36c3.53-.72,7-1.6,10.5-2.39.45-.11.85-.19,1.33-.32l1.5-.43,1.49-.44,1.41-.49c1.92-.64,3.67-1.41,5.46-2.16a144.46,144.46,0,0,0,19.24-10.71,390.23,390.23,0,0,0,34-25.25c10.85-8.84,21.32-18,31.68-27.31s20.51-18.76,30.59-28.31c3.92-3.71,7.81-7.46,11.7-11.2l1,47.4q-4.54,2.91-9.11,5.78ZM634.36,372.5l-.27.32q-4.29,5.43-8.73,10.68c-1.09,1.28-2.15,2.51-3.25,3.75l-3.42,3.82-6.93,7.63q-13.92,15.21-28.12,30.21-8.08,8.47-16.24,16.86l-9-238c.47-.12.86-.21,1.18-.31a3.36,3.36,0,0,0,.42-.16l.09-.05.21-.2.43-.41c1.16-1.1,2.25-2.23,3.46-3.27l1.75-1.6,1.6-1.35-.14-3.65c.47-.12.86-.21,1.18-.31a3.36,3.36,0,0,0,.42-.16l.09-.05.21-.2.43-.41c1.16-1.1,2.25-2.23,3.46-3.27l1.75-1.6,1.82-1.53c.61-.51,1.19-1,1.81-1.54l1.86-1.47c2.48-2,5-3.82,7.62-5.55s5.23-3.4,7.9-4.93c10.69-6.12,22-10.4,32.9-11.82a57,57,0,0,1,15.77.07,51.29,51.29,0,0,1,14.41,4.39,61,61,0,0,1,13.11,8.47,16.07,16.07,0,0,1,1.53,1.35l1.52,1.39,1.54,1.38,1.45,1.54c.95,1,2,2,2.91,3.07s1.87,2.21,2.81,3.3,1.84,2.27,2.75,3.43L688,194l.69.87a9.13,9.13,0,0,1,.63.83c.69,1,1.48,2,2.1,3.1l1,1.59.92,1.63c.32.54.6,1.1.87,1.67l.86,1.68.75,1.75.39.87.33.9c.21.6.46,1.2.69,1.8l.6,1.86c.46,1.23.69,2.54,1.09,3.82a78.88,78.88,0,0,1,2.17,16.68,106.73,106.73,0,0,1-1.18,18.17A150.44,150.44,0,0,1,689,288.32a198.45,198.45,0,0,1-8.78,17.88q-4.8,8.78-10.13,17.33c-7.11,11.4-14.81,22.52-23,33.23C642.93,362.12,638.7,367.4,634.36,372.5Z" style="fill: #fff"/>
        <path d="M235.85,584.49a19.85,19.85,0,0,1-19.94-19.33,1,1,0,0,1,2,0A17.85,17.85,0,0,0,238.4,582.3a1,1,0,1,1,.3,2A19.42,19.42,0,0,1,235.85,584.49Z"/>
        <path d="M239.44,631.4a24.68,24.68,0,0,1-15.5-5.29,1,1,0,1,1,1.25-1.55c8.15,6.55,21.23,6.33,29.15-.49a1,1,0,1,1,1.3,1.51A24.85,24.85,0,0,1,239.44,631.4Z"/>
        <path d="M224.19,588.82a1,1,0,0,1-1-.75,30.55,30.55,0,0,1,.67-17.08,1,1,0,0,1,1.89.64,28.58,28.58,0,0,0-.62,16,1,1,0,0,1-.72,1.21A1.07,1.07,0,0,1,224.19,588.82Z"/>
        <path d="M255.79,633.58a1.07,1.07,0,0,1-.48-.12,26.53,26.53,0,0,1-11.4-12.2,1,1,0,0,1,.49-1.33,1,1,0,0,1,1.32.5,24.51,24.51,0,0,0,10.55,11.27,1,1,0,0,1-.48,1.88Z"/>
        <path d="M317,578.51a1,1,0,0,1-.95-.69,15.47,15.47,0,0,1,10.35-19.09,1,1,0,0,1,1.22.71,1,1,0,0,1-.71,1.22,13.49,13.49,0,0,0-9,16.54,1,1,0,0,1-.63,1.26A1.19,1.19,0,0,1,317,578.51Z"/>
        <path d="M321.76,576.58a1,1,0,0,1-.53-.15L311,570.05a1,1,0,1,1,1.06-1.69l10.2,6.38a1,1,0,0,1-.53,1.84Z"/>
        <path d="M330.05,660.37a1,1,0,0,1-1-1,28.16,28.16,0,0,0-7.76-18.75,1,1,0,1,1,1.45-1.39,30.27,30.27,0,0,1,8.31,20.1,1,1,0,0,1-1,1Z"/>
        <path d="M317.28,659a1,1,0,0,1-.94-.67,1,1,0,0,1,.61-1.27l11.69-4.13a1,1,0,0,1,1.28.61,1,1,0,0,1-.61,1.27l-11.7,4.13A1,1,0,0,1,317.28,659Z"/>
        <path d="M327.35,648.67a1,1,0,0,1-.32-1.94l8.26-2.75a1,1,0,1,1,.63,1.89l-8.25,2.75A.93.93,0,0,1,327.35,648.67Z"/>
        <path d="M643.52,164.69a1,1,0,0,1-.57-1.82,21.86,21.86,0,0,0,4.49-32,1,1,0,1,1,1.53-1.28,23.83,23.83,0,0,1-4.89,34.91A1,1,0,0,1,643.52,164.69Z"/>
        <path d="M661.64,163.11a.84.84,0,0,1-.27,0l-22-6.15a1,1,0,0,1-.69-1.24,1,1,0,0,1,1.23-.69l22,6.16a1,1,0,0,1-.27,2Z"/>
        <path d="M690.14,197.85c-1,0-2,0-3.08-.15a1,1,0,0,1-.89-1.1,1,1,0,0,1,1.09-.89c14.13,1.45,28.66-8,33.09-21.47a1,1,0,0,1,1.26-.64,1,1,0,0,1,.64,1.27C717.86,188.24,704.14,197.85,690.14,197.85Z"/>
        <path d="M718.77,194a1,1,0,0,1-.78-.37,36.6,36.6,0,0,1-7.07-14.14,1,1,0,0,1,.72-1.21,1,1,0,0,1,1.22.72,34.53,34.53,0,0,0,6.68,13.37,1,1,0,0,1-.15,1.41A1,1,0,0,1,718.77,194Z"/>
        <path d="M713,263.37a20.49,20.49,0,0,1-14.32-5.59,1,1,0,0,1,0-1.41,1,1,0,0,1,1.42,0,18.89,18.89,0,0,0,23.5,1.74,1,1,0,0,1,1.4.22,1,1,0,0,1-.22,1.39A19.93,19.93,0,0,1,713,263.37Z"/>
        <path d="M708.48,259.34a1,1,0,0,1-.29,0,1,1,0,0,1-.66-1.25l2.72-9a1,1,0,0,1,1.92.59l-2.73,8.95A1,1,0,0,1,708.48,259.34Z"/>
      </g>
      <path d="M291.22,439.48a2,2,0,0,0-1.72-1c-11.89,0-26.67,2.87-31,9.16a6.83,6.83,0,0,0-.84,6.54l2.47,6.59a7.55,7.55,0,0,0-2.68,4.86c-.23,2.35.86,4.66,3.22,6.87.41,2.25,2,8.79,6.83,11.69,1.09.66,1.28,1.56,1.54,3.21.35,2.2.86,5.39,5.6,6.05-1.05,1.79-1.85,3.87-1.3,5.57a3.58,3.58,0,0,0,2.7,2.4l4,1a2.12,2.12,0,0,0,.49.06,2,2,0,0,0,1.41-.59s4.54-4.41,10.59-4.41c7.91,0,21-6.54,21-14C313.5,477.27,294.94,445.74,291.22,439.48ZM276.54,491.6l-.51,0,.56,0Zm.65,0h0Zm-7.77-8.36-.13-.13Zm-.5-.44.13.11Zm.69.63.12.14Zm.27.34.1.15Zm.23.35.09.16Zm.19.36.08.17Zm.16.38.06.16Zm.14.39s0,.1,0,.16S270.61,485.28,270.6,485.23Zm.11.4,0,.14Zm.09.41,0,.12Zm1.31,4.21a1.59,1.59,0,0,0,.13.13A1.59,1.59,0,0,1,272.11,490.25Zm-1.22-3.77v0Zm.34,1.92s0,0,0,.06S271.23,488.42,271.23,488.4Zm.07.29a.93.93,0,0,1,0,.13A.93.93,0,0,0,271.3,488.69Zm.11.33a.88.88,0,0,0,0,.15A.88.88,0,0,1,271.41,489Zm.13.33.06.15Zm.15.32.09.14Zm.2.3.1.14Zm2.62,1.46.45.07Zm-2.13-.92.16.13Zm.32.24.18.12Zm.36.22.22.1Zm.42.18.27.09Zm.49.16.32.07Zm1.85.27a6.83,6.83,0,0,1-.69-.06C275.35,491.55,275.57,491.57,275.82,491.58Z"/>
      <path d="M420,350c-31-6-50,19-64,36s-45,40-58,42-23,26-6,48,77,0,92,0a324.25,324.25,0,0,0,12,42c8,22,7,83,10,102s-38,81-13,189,46,107,77,102,50-32,60-27,33.5-7.5,31.5-38.5-9-41-9-41-3-8-43-10c0,0,28-70,24-111l11-2s18,47,44,60c0,0,20,29,30,29s44,5,49-20a112.89,112.89,0,0,0,0-45s8-39-18-106c0,0-10-67-23-98,0,0,40-16,61-7s56-87,26-125-58-43-90-38S420,350,420,350Z" style="fill: #fff"/>
      <g>
        <path d="M713.5,369.5c-21-26.63-41.07-37-62.19-39.17C645,329,626.38,330.71,616,333s-17.8,8.58-24,17.05c-6,8.15-5.56,19.49-2.3,29.05s16.93,17.78,13.29,27.2c-13,33.7-5.34,43.36,4,76.7,1.84,6.55-8.71,13.31-6.87,19.86,1.71,6.06,7.41,10,11.08,15.1,9.76,13.57.87,36-15.53,39.23a59.1,59.1,0,0,1,40.49,88.52c24.11,12.39,33.64,46.71,19.36,69.75s-49.25,29.8-71.07,13.73-25.77-51.47-8-72c4.11-4.74,9.49-11,6.08-16.32-4.51-7-14.82-.12-20.79,5.66-18.34,17.74-47.72,22.95-71,12.57-9.64-4.28-23.65-9.61-28.38-.17-3.68,7.33,4.1,15.66,12,17.74s16.65.95,24.14,4.31c9.26,4.17,14.5,14.51,15.43,24.62s-1.73,20.17-4.35,30q-11.62,43.49-23.26,87c-4.89,18.31-11.12,38.43-27.45,48-15.37,9.05-35.05,5.11-49.91-5.36,18.69,51.09,36.81,49.63,61,45.72,31-5,50-32,60-27s33.5-7.5,31.5-38.5-9-41-9-41-3-8-43-10c0,0,28-70,24-111l11-2s18,47,44,60c0,0,20,29,30,29s44,5,49-20a112.89,112.89,0,0,0,0-45s8-39-18-106c0,0-10-67-23-98,0,0,40-16,61-7S743.5,407.5,713.5,369.5Z" style="fill: #e21d67"/>
        <path d="M373.16,421c-3.83-20.7-4-44,8.93-60.6C370.73,367.29,365.22,380.89,363,394s-1.85,26.64-5.13,39.53-11.35,25.73-24.07,29.59-29.11-6-27.74-19.2c.64-6.16,4.74-11.88,3.89-18a10.86,10.86,0,0,0-.58-2.31C304.93,426,301,427.54,298,428c-13,2-23,26-6,48,16.52,21.37,73.62,1.22,90.61.05C382.36,457.54,376.56,439.32,373.16,421Z" style="fill: #e21d67"/>
        <path d="M623.84,415c4-5.92-1.65-14.41-8.59-16s-14,1.32-20.59,4.13C565,415.81,560.57,414.69,530,425c-27.7,9.34-96.81-7.38-116-40-10-17-17-39-7-45,8.18-4.91,29.43,18.66,37.74,23.36a193.67,193.67,0,0,0,127.56,22c10.17-1.77,20.62-4.38,30.68-2s19.44,11.72,17.53,21.87" style="fill: #e21d67"/>
      </g>
      <path d="M275.51,494a1,1,0,0,1-.68-1.74,20.72,20.72,0,0,1,7.82-4.29,60.92,60.92,0,0,1,8.49-1.81,1,1,0,0,1,.33,2,59.21,59.21,0,0,0-8.22,1.75,18.74,18.74,0,0,0-7.06,3.85A1,1,0,0,1,275.51,494Z" style="fill: #fff"/>
      <g>
        <path d="M619.19,772.27a207.15,207.15,0,0,0,16.56,23.06c2,2.37,4.12,4.8,7,5.82,4.53,1.59,9.44-.63,13.65-2.93q10.14-5.51,19.73-11.93c3.87-2.59,8-5.89,8.38-10.53.26-3.33-1.57-6.45-3.48-9.19A92.3,92.3,0,0,0,666.28,750"/>
        <path d="M646,802.69a10.69,10.69,0,0,1-3.59-.6c-3.11-1.09-5.39-3.63-7.46-6.13a208.21,208.21,0,0,1-16.64-23.17,1,1,0,0,1,1.7-1,207.77,207.77,0,0,0,16.48,23c2,2.38,4,4.59,6.58,5.52,4,1.42,8.57-.54,12.85-2.87,6.7-3.64,13.31-7.64,19.65-11.88,3.74-2.51,7.62-5.63,7.94-9.78.23-3-1.46-5.88-3.31-8.54a91.37,91.37,0,0,0-14.61-16.38,1,1,0,1,1,1.32-1.5A93.13,93.13,0,0,1,681.87,766c2.07,3,3.94,6.22,3.66,9.85-.39,5-4.68,8.5-8.82,11.28-6.39,4.28-13.05,8.31-19.81,12C653.38,801,649.68,802.69,646,802.69Z"/>
      </g>
      <g>
        <path d="M667.5,416.5c-7,17,10,41,14,59s9,38,44,41,76-27,75-60-21-66-21-66Z" style="fill: #fff"/>
        <path d="M779.5,390.5s20,33,21,66c1,31.47-36.28,60.21-70.09,60.21-1.64,0-3.29-.07-4.91-.21-35-3-40-23-44-41s-21-42-14-59l112-26m0-2a2.3,2.3,0,0,0-.45.05l-112,26a2,2,0,0,0-1.4,1.19c-5,12.11,1.14,26.83,7.06,41.06,2.85,6.85,5.55,13.32,6.84,19.13,1.85,8.34,4.16,18.72,10.77,26.95,7.32,9.11,18.77,14.22,35,15.61,1.66.15,3.37.22,5.08.22,19.61,0,40.89-9.38,55.53-24.46,11.07-11.42,16.95-24.84,16.56-37.81-1-33.15-20.46-65.61-21.29-67a2,2,0,0,0-1.71-1Z"/>
      </g>
      <path d="M767,483c-.57,11.33-16.22,26.66-33.5,33.63,33-1.68,67.92-29.62,67-60.13-1-33-21-66-21-66l-112,26c-3,7.33,12.56.61,15.5,9.5,5,9,28.19,40.13,69,29C774,449,768,463,767,483Z" style="fill: #e21d67"/>
      <path d="M384,476c-8-35-29-105.87,9.5-123.43" style="fill: #fff"/>
      <path d="M740.49,500.35c-1.62,0-3.23-.06-4.84-.18a70.51,70.51,0,0,1-50.4-27.37,1,1,0,0,1,1.6-1.21A67.55,67.55,0,0,0,788.07,479a1,1,0,0,1,1.4,1.42A70.6,70.6,0,0,1,740.49,500.35Z"/>
      <path d="M735.22,464.58c-1.64,0-3.27-.06-4.9-.19a66.93,66.93,0,0,1-49.08-27.83,1,1,0,1,1,1.63-1.16A64.3,64.3,0,0,0,781.63,443a1,1,0,1,1,1.43,1.39A67.07,67.07,0,0,1,735.22,464.58Z"/>
      <path d="M683,459.5a1,1,0,0,1-1-1v-8.94a1,1,0,1,1,2,0v8.94A1,1,0,0,1,683,459.5Z"/>
      <path d="M687,465h-.09a1,1,0,0,1-.91-1.09l.65-6.88a1,1,0,1,1,2,.19l-.65,6.88A1,1,0,0,1,687,465Z"/>
      <g>
        <path d="M556,562.73c3.35-3.62,3.52-9.05,3.5-14q-.1-31.56-.22-63.14c0-3.14-.07-6.47-1.7-9.16a10.21,10.21,0,0,0-4.07-3.67c-6.13,7.48,3.39,67-12.53,79.22-14.58,11.15-75.49,7.59-103.9.67l.34,3.37c.34,3.29.79,6.84,3.06,9.25,2.05,2.16,5.14,2.92,8.07,3.52A227.42,227.42,0,0,0,546,567.39C549.67,566.53,553.49,565.46,556,562.73Z" style="fill: #e21d67"/>
        <g>
          <path d="M467,799.32a1,1,0,0,0,.38-.08l11.69-4.82a1,1,0,0,0,.55-1.3,1,1,0,0,0-1.31-.54l-11.69,4.81a1,1,0,0,0,.38,1.93Z"/>
          <path d="M466.54,544.27c0-2.1-.19-4.43-2.05-5.67a6.36,6.36,0,0,0-3.67-.74l-9.87.2a1,1,0,0,0-1,1,94.07,94.07,0,0,0,3.32,29.86,1,1,0,0,0,1.24.7,1,1,0,0,0,.69-1.24A91.91,91.91,0,0,1,451.93,540l8.93-.18a4.57,4.57,0,0,1,2.52.41c1.05.69,1.15,2.43,1.16,4a88.28,88.28,0,0,0,4.27,26.44,1,1,0,0,0,.95.69,1.18,1.18,0,0,0,.31,0,1,1,0,0,0,.64-1.26A86.18,86.18,0,0,1,466.54,544.27Z"/>
          <path d="M502.69,547c.09-1.72.25-4.6-1.84-6a6.16,6.16,0,0,0-3.06-.86l-8.6-.78c-1.11-.1-4.07-.37-5.29,1.78a5.13,5.13,0,0,0-.24,3.56l5.3,27.78a1,1,0,0,0,1,.81.65.65,0,0,0,.19,0,1,1,0,0,0,.79-1.17l-5.3-27.77a3.57,3.57,0,0,1,0-2.21c.39-.69,1.5-.94,3.37-.77l8.6.78a4.56,4.56,0,0,1,2.1.52c1.08.74,1.08,2.52,1,4.28A58,58,0,0,0,505,572.08a1,1,0,1,0,1.85-.77A55.76,55.76,0,0,1,502.69,547Z"/>
          <path d="M519.47,477.91c-2.79-.61-6.36,1.12-7.35,3.56-.4,1-.92,3.51,2.8,5.82a4.72,4.72,0,0,0,2.48.68,5.62,5.62,0,0,0,2.63-.67,5.17,5.17,0,0,0,2.88-4.22C523.09,479.14,520.57,478.15,519.47,477.91Zm-.37,7.62a3.18,3.18,0,0,1-3.13.06c-1.22-.76-2.57-2-2-3.37.63-1.55,3.23-2.76,5.07-2.35,1.33.29,2,1.34,1.87,3.12A3.16,3.16,0,0,1,519.1,485.53Z"/>
          <path d="M533.24,478.18c-2.37-.92-3.84-.31-4.65.36a5.58,5.58,0,0,0-1.41,5.37,6.38,6.38,0,0,0,3.35,4.8,4.53,4.53,0,0,0,1.79.37,5.91,5.91,0,0,0,3.11-1,4.49,4.49,0,0,0,2.32-4.33A7.19,7.19,0,0,0,533.24,478.18Zm1.14,8.22a3.24,3.24,0,0,1-3,.48,4.46,4.46,0,0,1-2.2-3.34,3.78,3.78,0,0,1,.73-3.46,1.76,1.76,0,0,1,1.13-.36,4.26,4.26,0,0,1,1.52.33,5.23,5.23,0,0,1,3.24,3.9A2.52,2.52,0,0,1,534.38,486.4Z"/>
          <path d="M547.16,477.12a5.52,5.52,0,0,0-4.5.34,1,1,0,0,0-.49.69,5.29,5.29,0,0,0-1,.83,5.13,5.13,0,0,0-1.28,4.16,5.49,5.49,0,0,0,2.54,3.73,5.74,5.74,0,0,0,3.08.93,5.33,5.33,0,0,0,1.37-.19,5.47,5.47,0,0,0,.24-10.49Zm1.35,6.65a3.53,3.53,0,0,1-6.6-.94,3.13,3.13,0,0,1,.8-2.52,2.31,2.31,0,0,1,1.66-.83h.09a1,1,0,0,0,1-.69,4,4,0,0,1,1.06.21,3.28,3.28,0,0,1,2,4.76Z"/>
          <path d="M461.43,516.88a4.66,4.66,0,0,0,2.73.93,3.81,3.81,0,0,0,1.53-.31,4.33,4.33,0,1,0-3.36-8,4.4,4.4,0,0,0-2.75,3.32v.08s0,.05,0,.07A4.38,4.38,0,0,0,461.43,516.88Zm.13-3.72v0a2.39,2.39,0,0,1,1.53-1.75,2.34,2.34,0,1,1-.48,3.9,2.38,2.38,0,0,1-1.06-2.06Z"/>
          <path d="M478.49,510.19a3.7,3.7,0,0,0-3.92,1.66,1,1,0,0,0-1.72.5,4.68,4.68,0,0,0,2.63,5.07,3.92,3.92,0,0,0,1.58.32,4.2,4.2,0,0,0,3.81-2.31,3.88,3.88,0,0,0-.06-3.23A3.63,3.63,0,0,0,478.49,510.19Zm.57,4.41a2.26,2.26,0,0,1-2.79,1,2.39,2.39,0,0,1-1-.83,1,1,0,0,0,.79-1.09,1.37,1.37,0,0,1,.54-1.15,1.53,1.53,0,0,1,1.37-.39,1.65,1.65,0,0,1,1,.93A1.91,1.91,0,0,1,479.06,514.6Z"/>
          <path d="M442.53,904a22.7,22.7,0,0,1-13.25-11.15,1,1,0,0,0-1.78.92,24.73,24.73,0,0,0,14.43,12.14,1,1,0,0,0,.3,0,1,1,0,0,0,.3-2Z"/>
          <path d="M611.72,383.58l.26,0a1,1,0,0,0,1-.74,56.54,56.54,0,0,1,31.39-36.59,1,1,0,1,0-.8-1.83A58.58,58.58,0,0,0,611,382.35,1,1,0,0,0,611.72,383.58Z"/>
          <path d="M619.86,469.67a84.74,84.74,0,0,1-5.23-8.31,42.72,42.72,0,0,1,.4-39.55,1,1,0,0,0-1.75-1,44.81,44.81,0,0,0-.42,41.45,85.44,85.44,0,0,0,5.35,8.51c1.56,2.28,3.16,4.63,4.53,7,2.45,4.31,5,10.73,3.48,16.85a1,1,0,0,0,.73,1.22l.24,0a1,1,0,0,0,1-.76c1.36-5.35.09-11.69-3.68-18.33C623.07,474.37,621.44,472,619.86,469.67Z"/>
          <path d="M646.51,455.9c-1.46-4-3-8.06-3.33-12.29-.38-4.55.79-8.73,3.21-11.45a1,1,0,0,0-.08-1.42,1,1,0,0,0-1.41.09c-2.79,3.13-4.14,7.85-3.71,12.95.38,4.5,1.94,8.73,3.45,12.82L656,487.22a1,1,0,0,0,.94.65,1,1,0,0,0,.34-.06,1,1,0,0,0,.6-1.28Z"/>
          <path d="M472.68,421.86a94.49,94.49,0,0,1-66.09-52.22,1,1,0,0,0-1.82.84,96.5,96.5,0,0,0,67.52,53.34l.2,0a1,1,0,0,0,1-.81A1,1,0,0,0,472.68,421.86Z"/>
          <path d="M394.4,360.27a1,1,0,0,0-1.22-.71,1,1,0,0,0-.71,1.23A113.46,113.46,0,0,0,414,402.49a1,1,0,0,0,.77.36,1,1,0,0,0,.63-.22,1,1,0,0,0,.14-1.41A111.62,111.62,0,0,1,394.4,360.27Z"/>
          <path d="M604.83,426.22a1,1,0,0,0-1.35.43,44.6,44.6,0,0,0-3.43,30.75,1,1,0,0,0,1,.76l.25,0a1,1,0,0,0,.72-1.22,42.59,42.59,0,0,1,3.27-29.35A1,1,0,0,0,604.83,426.22Z"/>
          <path d="M636.84,577a1,1,0,0,0,1,.79.75.75,0,0,0,.21,0,1,1,0,0,0,.77-1.18l-4.56-21.75,0,0a1,1,0,0,0,.3-1.38l-1.06-1.67a1,1,0,0,0-1.22-.38,1,1,0,0,0-.6,1.13Z"/>
          <path d="M631.32,576.46a.55.55,0,0,0,.18,0,1,1,0,0,0,.81-1.15l-2.08-11.7a1,1,0,0,0-1.16-.81,1,1,0,0,0-.81,1.16l2.08,11.69A1,1,0,0,0,631.32,576.46Z"/>
          <path d="M392.31,457.22a1,1,0,0,0-.9-1.09,1,1,0,0,0-1.09.9,48.4,48.4,0,0,0,3.54,23.18,1,1,0,0,0,.92.61.91.91,0,0,0,.39-.08,1,1,0,0,0,.53-1.31A46.38,46.38,0,0,1,392.31,457.22Z"/>
          <path d="M397.33,470.58a1,1,0,0,0-.93,1.06l.7,11a1,1,0,0,0,1,.94h.06a1,1,0,0,0,.93-1.06l-.7-11A1,1,0,0,0,397.33,470.58Z"/>
          <path d="M447.36,900.56l-6.19-2.06a1,1,0,1,0-.63,1.89l6.19,2.07a1.12,1.12,0,0,0,.31,0,1,1,0,0,0,.32-2Z"/>
          <path d="M560.82,710.91a1,1,0,0,0,.42,1.35,70.22,70.22,0,0,0,32.55,8,69.33,69.33,0,0,0,20.1-3,70.25,70.25,0,0,0,41-33.38,1,1,0,0,0-1.76-1,67.73,67.73,0,0,1-91,27.56A1,1,0,0,0,560.82,710.91Z"/>
          <path d="M597.7,676.9a.92.92,0,0,0,.4-.08A101.35,101.35,0,0,0,653,618a1,1,0,0,0-1.89-.65A99.33,99.33,0,0,1,597.31,675a1,1,0,0,0-.52,1.32A1,1,0,0,0,597.7,676.9Z"/>
          <path d="M627.27,634.91a1,1,0,0,0,.61-.2,67.36,67.36,0,0,0,20.83-26.58,1,1,0,0,0-.52-1.32,1,1,0,0,0-1.31.52,65.3,65.3,0,0,1-20.22,25.79,1,1,0,0,0-.18,1.4A1,1,0,0,0,627.27,634.91Z"/>
          <path d="M715.07,368.26c-22.05-27.92-44.42-40.38-72.55-40.38a125.29,125.29,0,0,0-19.33,1.64c-31,4.84-195.37,17.86-203.08,18.47a50.17,50.17,0,0,0-9.36-.9h0c-25.43,0-42.28,20.55-54.59,35.56l-1.7,2.08C340.39,401.8,309.63,424.19,297.7,426c-6.09.94-11.49,5.91-14.44,13.29-4.73,11.82-2.05,26,7.16,37.91,5.49,7.11,15.19,10.56,29.65,10.56,14.75,0,31.47-3.6,44.9-6.49,7.16-1.54,13.46-2.89,17.42-3.22a336.29,336.29,0,0,0,11.73,40.61c5.06,13.9,6.48,44.4,7.62,68.91.64,13.88,1.2,25.87,2.28,32.72a10.29,10.29,0,0,1,.12,1.41,1,1,0,0,0-.08,1.29.86.86,0,0,0,.07.1c-.24,5.08-2.51,12.64-5.47,22.48-4.7,15.64-11.13,37-14.12,64.32-3.53,32.15-1.34,65.64,6.51,99.54,20.38,88,38.46,105.25,62.81,105.25A104.89,104.89,0,0,0,470.32,913c13.21-2.13,24.39-8.22,33.43-14.07a.82.82,0,0,0,.17-.11c2.65-1.71,5.12-3.41,7.39-5,6.58-4.53,12.26-8.43,16-8.43l.21,0a1,1,0,0,0,.64.24h.12l.3,0a3.73,3.73,0,0,1,.56.2,13,13,0,0,0,5.87,1.28c6.16,0,13-3.36,18.27-9,7.45-8,11.09-19.57,10.25-32.72-1.91-29.48-8.3-40.38-9.25-41.85-1-2-7-8.8-41.88-10.87,5-13,26-70.38,23.28-107.51l7.6-1.38c3.35,8.27,19.74,46.09,43.06,58.83a1,1,0,0,0,.48,1.08l1.26.67c4.79,6.71,20.84,28.16,30.45,28.16,1.15,0,2.67.07,4.43.15,2.45.12,5.51.26,8.78.26,9.34,0,16.71-1.2,22.53-3.67,8.38-3.55,13.5-9.72,15.22-18.35a114.76,114.76,0,0,0,.08-45.44c.38-2.15,1.83-11.72.71-28-1.15-16.64-5.35-43.76-18.81-78.51-.73-4.85-10-65.38-22.31-96.34,6.06-2.22,25.63-8.89,42.42-8.89,6.06,0,11.16.87,15.16,2.59a9.26,9.26,0,0,0,3.66.75c9.72,0,18.17-14.44,22.34-23,7.54-15.56,12.82-35.76,14.11-54C727.92,404.58,726.77,383.08,715.07,368.26Zm-395,117.52c-12,0-22.4-2.45-28.07-9.78-17-22-7-46,6-48,.27,0,.56-.11.85-.17A38.46,38.46,0,0,0,306,476.6a1,1,0,0,0,.66.26,1,1,0,0,0,.67-1.75,36.45,36.45,0,0,1-5.86-47.62,1.06,1.06,0,0,0,.15-.42c4.45-1.5,10.09-4.48,16.16-8.36-3.64,6-7,12.48-7.67,19.55-.75,7.41,2.15,17,10.26,20.62a29.9,29.9,0,0,0,5,1.56c2.5.62,4.85,1.2,6.72,2.66s3.18,3.94,4.42,6.44c.36.74.72,1.47,1.1,2.19,1.37,2.54,4.32,6.76,8.83,6.76h.15a1,1,0,0,0,0-2h-.12c-3.62,0-6.15-4-7.08-5.71-.37-.69-.72-1.4-1.07-2.12-1.28-2.6-2.6-5.29-5-7.14-2.2-1.72-4.88-2.38-7.47-3a29.08,29.08,0,0,1-4.71-1.44c-6.88-3.05-9.78-11.67-9.08-18.6.75-7.53,4.74-14.48,8.76-20.95a1,1,0,0,0,.07-.87,194.71,194.71,0,0,0,30.32-25.29,82.25,82.25,0,0,0,11.21,71.08,1,1,0,0,0,.82.42.93.93,0,0,0,.57-.19,1,1,0,0,0,.24-1.39,80.14,80.14,0,0,1-10.52-70.62,1,1,0,0,0-.54-1.21c1.06-1.17,2.07-2.32,3-3.44,7.49-9.09,16.4-20.46,27.81-28.17-23.77,22.24-11,75.47-3.1,108.6.82,3.42,1.59,6.64,2.27,9.6C372.09,476.62,343.24,485.78,320.07,485.78ZM397.51,523a100.48,100.48,0,0,0,34.53-.36l.38,3.82a96.07,96.07,0,0,1-33.56,2.83C398.45,527,398,524.93,397.51,523Zm161.9-7.94c0,1.75,0,3.5,0,5.25,0,0,0,.07,0,.11a.91.91,0,0,0,0,.47l.09,27.86c0,4.93-.15,10.36-3.5,14-2.53,2.73-6.35,3.8-10,4.66a227.33,227.33,0,0,1-97.47,1.42c-2.93-.6-6-1.36-8.07-3.52-2.27-2.41-2.72-6-3.06-9.25L434.59,528l.12,0a1,1,0,0,0-.32-1.94c-.13-1.24-.26-2.49-.38-3.73l.19,0a1,1,0,1,0-.4-2c-.21-2.12-.43-4.25-.64-6.38-.24-2.32-.53-4.67-.79-7a308.12,308.12,0,0,1,68.73-2.57,1,1,0,0,0,1.07-.92,1,1,0,0,0-.93-1.07,309.48,309.48,0,0,0-69.08,2.57,56.67,56.67,0,0,1,.07-14.49c1.58-9.77,4.82-12.9,14.35-14.42,23.54-3.74,47.39-7.49,71.12-7.49A189.05,189.05,0,0,1,545,470.35c4.78.7,10.09,2,12.61,6.1,1.63,2.69,1.69,6,1.7,9.16q.06,13.77.1,27.52a1,1,0,0,0,0,1.93ZM552.5,804.5s7,10,9,41c1.72,26.59-15.33,39.57-26.52,39.57a13,13,0,0,1-2.78-.3c8.47-2.82,14.25-11.13,16.4-19,2.65-9.66,1.31-20,.13-29.19a1,1,0,0,0-2,.26c1.16,9,2.48,19.13-.07,28.4-2.24,8.16-8.64,16.84-18,18.28a6.67,6.67,0,0,0-1.43-.15c-5.13,0-12.11,5.44-21.17,11.56a91.4,91.4,0,0,0,9.64-51.37c-.47-4.36-1.38-10-4.25-14.87s-7.38-8.11-12.15-8.79a100.92,100.92,0,0,0,12.16-25.17s0-.09,0-.14C549.58,796.78,552.5,804.5,552.5,804.5Zm97-205c26,67,18,106,18,106a112.89,112.89,0,0,1,0,45c-3.57,17.86-21.94,20.41-35.79,20.41-5.54,0-10.35-.41-13.21-.41-7.47,0-20.52-16.18-26.64-24.37a59.89,59.89,0,0,0,23.34,4.74,57,57,0,0,0,11.46-1.14A59.43,59.43,0,0,0,661,728.56a1,1,0,0,0-1.58-1.24,56.5,56.5,0,0,1-70,15.46c-.58-.81-.9-1.28-.9-1.28-24-12-41.22-53.06-43.69-59.22a110.37,110.37,0,0,0,42.28-23,1,1,0,0,0-1.32-1.5c-24.12,21.36-58.82,31.14-90.54,25.53a1,1,0,1,0-.35,2,104.8,104.8,0,0,0,18.31,1.58,112.31,112.31,0,0,0,20.43-1.89c3.06,39-21.28,102.31-23.89,109a.59.59,0,0,0-.12.22,99.24,99.24,0,0,1-27.61,43,1,1,0,0,0-.06,1.41,1,1,0,0,0,.74.33,1,1,0,0,0,.67-.26,101.49,101.49,0,0,0,14.81-16.88,1,1,0,0,0,.41.14c4.35.42,8.54,3.38,11.21,7.89s3.53,9.91,4,14.08a89.35,89.35,0,0,1-11.2,53.5c-8.94,5.78-19.72,11.63-32.56,13.7l-.94.15a23.66,23.66,0,0,0,7.55-7.8A60.09,60.09,0,0,0,486,876.53a1,1,0,0,0-2-.2,58.14,58.14,0,0,1-9.11,25.92c-3.41,5.22-6.92,8-10.73,8.52a1,1,0,0,0-.86,1.13.32.32,0,0,0,0,.09,75.25,75.25,0,0,1-9.52.71c-22.7,0-40.45-15.51-60.86-103.7A300.94,300.94,0,0,1,385,734.66,104.84,104.84,0,0,0,449,763.91c2.64.22,5.3.32,8,.32a105,105,0,0,0,61.23-19.84,1,1,0,1,0-1.18-1.61,101.34,101.34,0,0,1-131.77-10.61A1.25,1.25,0,0,0,385,732c1.61-54.5,18.77-89.78,20.92-106.65a96.44,96.44,0,0,0,63.68,34h.1a1,1,0,0,0,.09-2,94.31,94.31,0,0,1-63.65-35A14.4,14.4,0,0,0,406,620c-.54-3.39-.94-8.13-1.3-13.73a34.61,34.61,0,0,0,15.84,13.39.84.84,0,0,0,.38.08,1,1,0,0,0,.39-1.92,32.61,32.61,0,0,1-16.09-14.61,1,1,0,0,0-.73-.5c-1.17-20.79-1.88-51.14-5.27-71.39,2.87.25,5.74.39,8.6.39a97.81,97.81,0,0,0,24.81-3.22L434,541.63l1.48,14.61c.32,3.13.76,7.42,3.6,10.42,2.42,2.56,5.83,3.44,9.11,4.11a229.26,229.26,0,0,0,98.34-1.44c4-.93,8.09-2.11,11-5.24,3.76-4.06,4-9.81,4-15.35l-.09-27a151.86,151.86,0,0,0,70.34-5.39C642.11,550,649.5,599.5,649.5,599.5ZM630,510.93c.39,1.16.77,2.34,1.16,3.54a150.35,150.35,0,0,1-69.76,5.27v-4.39A178.24,178.24,0,0,0,585.56,517a180.56,180.56,0,0,0,43.76-5.36A1,1,0,0,0,630,510.93Zm60.35-15.84a7.2,7.2,0,0,1-2.87-.59c-4.61-2-10.13-2.75-16-2.75-20.68,0-45,9.75-45,9.75,1.07,2.56,2.12,5.37,3.15,8.36a1,1,0,0,0-.82-.17,178.68,178.68,0,0,1-67.43,3.63l-.1-27.71c0-3.1,0-6.95-2-10.2-2.95-4.83-8.75-6.27-14-7a190.3,190.3,0,0,0-27.58-1.89c-24.18,0-48.2,3.82-71.44,7.52-10.42,1.66-14.31,5.56-16,16.07-1.08,6.65-.31,13.34.44,19.81.16,1.41.32,2.81.47,4.2l.66,6.54a98.74,98.74,0,0,1-34.63.31,1,1,0,0,0-.25,0c-.3-1-.62-2-.95-2.94a330.36,330.36,0,0,1-11.8-41h0a1,1,0,0,0,.76-1.2c-.7-3-1.48-6.32-2.32-9.82-8.67-36.19-23.18-96.77,11.25-112.48a1,1,0,0,0,.51-1.27,44.41,44.41,0,0,1,16.33-3.12A48.68,48.68,0,0,1,420,350s171.5-13.5,203.5-18.5a123.77,123.77,0,0,1,19-1.62c24.41,0,47.06,9.32,71,39.62C742.17,405.81,711.48,495.09,690.37,495.09Z"/>
          <path d="M485.35,794.86a77.41,77.41,0,0,1-92.51-6.43,1,1,0,1,0-1.31,1.51A79.88,79.88,0,0,0,437.89,809c1.8.12,3.6.19,5.41.19a80,80,0,0,0,43.14-12.68,1,1,0,0,0,.3-1.38A1,1,0,0,0,485.35,794.86Z"/>
          <path d="M392.29,707.23a1,1,0,0,0-1.09.9L389,730.82a1,1,0,0,0,.89,1.09h.1a1,1,0,0,0,1-.91l2.19-22.69A1,1,0,0,0,392.29,707.23Z"/>
          <path d="M396.27,718.22a1,1,0,0,0-1.11.88l-1.38,11.69a1,1,0,0,0,.87,1.12h.12a1,1,0,0,0,1-.88l1.37-11.7A1,1,0,0,0,396.27,718.22Z"/>
          <path d="M637.43,691.07a37.39,37.39,0,0,1-15.94,12.32,1,1,0,0,0,.38,1.93,1,1,0,0,0,.37-.07,39.48,39.48,0,0,0,16.79-13,1,1,0,1,0-1.6-1.19Z"/>
        </g>
      </g>
      <path d="M676.62,770.52a1,1,0,0,1-.82-.43l-6.06-8.7a1,1,0,0,1,1.64-1.14l6.06,8.7a1,1,0,0,1-.25,1.39A1,1,0,0,1,676.62,770.52Z" style="fill: #fff"/>
      <path d="M673.88,772.64a1,1,0,0,1-.74-.32,39.09,39.09,0,0,1-5-6.72,1,1,0,0,1,1.73-1,36.85,36.85,0,0,0,4.74,6.37,1,1,0,0,1-.05,1.42A1.05,1.05,0,0,1,673.88,772.64Z" style="fill: #fff"/>
      <g>
        <ellipse cx="510.65" cy="282.89" rx="118.36" ry="125.89" style="fill: #fff"/>
        <path d="M391.06,262.57c-.71-.07-1.44-.1-2.15-.1h0c-6.49,0-12.77,2.9-17.69,8.16a34.13,34.13,0,0,0-8.71,19.91c-1.66,16.81,8.44,31.62,22.52,33,.72.07,1.44.11,2.15.11,6.49,0,12.77-2.9,17.69-8.17a34.06,34.06,0,0,0,8.71-19.91C415.24,278.77,405.14,264,391.06,262.57Zm-3.88,59.09h0Zm1.48-57.19h0Zm2.2.09h0c.46.05.91.11,1.36.18C391.77,264.67,391.32,264.61,390.86,264.56Zm20.73,30.83c0,.48-.11.95-.17,1.43.06-.48.12-.95.17-1.43s.09-1,.11-1.47C411.68,294.41,411.64,294.9,411.59,295.39Z"/>
        <path d="M525.56,158a77.51,77.51,0,0,1,15.63,16.36c10.82,15.5,15,36.15,8.46,53.88-2,5.43-5,11.11-3.47,16.69,2,7.23,10.53,10.37,14.92,16.46,4.18,5.8,4.19,13.63,7.46,20,5,9.68,16.3,14,26.76,17s21,5.5,31.71,7.47a134.63,134.63,0,0,0,2-23C629,218.73,583.89,165.79,525.56,158Z" style="fill: #e21d67"/>
        <path d="M632.07,256.12c-.71-.07-1.43-.11-2.14-.11h0c-6.49,0-12.78,2.9-17.7,8.16a34.11,34.11,0,0,0-8.7,19.91c-1.66,16.82,8.44,31.63,22.52,33,.71.07,1.43.1,2.15.1,6.49,0,12.77-2.9,17.69-8.16a34.13,34.13,0,0,0,8.71-19.91C656.26,272.32,646.15,257.51,632.07,256.12ZM628.2,315.2h0ZM629.68,258h0Z"/>
        <g>
          <ellipse cx="510.65" cy="300.64" rx="118.36" ry="108.13"/>
          <path d="M510.65,192.51C576,192.51,629,240.92,629,300.64S576,408.78,510.65,408.78,392.29,360.36,392.29,300.64s53-108.13,118.36-108.13m0-2c-32.12,0-62.32,11.43-85,32.19s-35.32,48.49-35.32,77.94,12.54,57.13,35.32,77.94,52.92,32.2,85,32.2,62.31-11.44,85-32.2S631,330.09,631,300.64s-12.54-57.13-35.31-77.94-52.93-32.19-85-32.19Z"/>
        </g>
        <path d="M406.46,249.3a100.33,100.33,0,0,0-14.17,51.34c0,42.24,26.51,78.82,65.16,96.62,100.87,2.32,112-91,83.55-140.26C516.69,214.85,447.71,223.29,406.46,249.3Z" style="fill: #e21d67"/>
        <circle cx="450" cy="273" r="15" style="fill: #eeede1"/>
        <ellipse cx="428.5" cy="304.28" rx="6.5" ry="5.28" style="fill: #eeede1"/>
        <path d="M510.65,180.13c-65.37,0-118.36,50.92-118.36,113.72,0,2.28.08,4.54.22,6.79,3.65-59.64,55.14-106.93,118.14-106.93S625.13,241,628.79,300.64q.21-3.37.21-6.79C629,231.05,576,180.13,510.65,180.13Z" style="fill: #fff"/>
        <path d="M514.75,419c65.34-2.12,116.65-54.73,114.61-117.5-.07-2.28-.23-4.54-.44-6.78-1.72,59.73-51.65,108.66-114.61,110.7s-115.95-43.54-121.54-103q-.11,3.38,0,6.8C394.81,371.92,449.42,421.09,514.75,419Z" style="fill: #fff"/>
        <g>
          <path d="M631.36,301.4c-.06-1.95-.2-4-.38-6.07,0-.49,0-1,0-1.48,0-1.74,0-3.48-.12-5.21.08-1.91.12-3.83.12-5.75,0-34.14-12.5-66.24-35.2-90.39s-53-37.5-85.15-37.5-62.41,13.32-85.15,37.5-35.21,56.25-35.21,90.39c0,1.92,0,3.84.13,5.75-.08,1.73-.13,3.47-.13,5.21,0,2.24.07,4.5.22,6.91a2,2,0,0,0,.35,1,1.84,1.84,0,0,0-.09.53c-.07,2.38-.07,4.7,0,6.91,1,30.22,14,58.41,36.53,79.39A122,122,0,0,0,510.69,421c1.37,0,2.76,0,4.13-.07a122,122,0,0,0,83.93-36.6C620.78,361.77,632.36,332.31,631.36,301.4ZM392.42,288.65c2.83-60.39,54.68-108.52,118.23-108.52s115.46,48.2,118.22,108.66c-.06,1.31-.13,2.63-.22,3.93a2.12,2.12,0,0,0-.62.18c-7.42-55.94-57.14-99.19-117.38-99.19-61.31,0-111.71,44.79-117.73,102.16C392.68,293.49,392.52,291.07,392.42,288.65Zm2,12.58a1.78,1.78,0,0,0,.09-.47c3.61-58.9,54.63-105,116.15-105,61,0,111.67,45.38,116,103.58-4.09,56.83-52.57,102.16-112.43,104.11-1.33,0-2.68.06-4,.06-60.42,0-110.07-43.55-115.49-101.29A1.92,1.92,0,0,0,394.41,301.23ZM496.68,157.88l.09.09a16.5,16.5,0,0,1,7.3,15.65,1,1,0,0,0,.87,1.12h.13a1,1,0,0,0,1-.87,18.62,18.62,0,0,0-6.5-16.32q3.35-.33,6.73-.46a1,1,0,0,0-.13,1.41,22.72,22.72,0,0,1,5.21,13.21,1,1,0,0,0,1,.94h0a1,1,0,0,0,1-1.05,24.73,24.73,0,0,0-5.67-14.38.72.72,0,0,0-.22-.17c1,0,2.11-.05,3.17-.05,61.1,0,111.38,49.25,117.68,112.46A113.61,113.61,0,0,0,595.72,212a123.78,123.78,0,0,0-170.15,0A113.68,113.68,0,0,0,393,269.44C398.79,211.13,442,164.71,496.68,157.88ZM514.75,419c-1.36,0-2.71.06-4.06.06-63.52,0-115.92-48.42-117.92-109.88v-.29a129.58,129.58,0,0,0,32.73,64.41c22.74,24.19,53,37.51,85.15,37.51s62.41-13.32,85.15-37.51a129.8,129.8,0,0,0,33.59-69.4C630.06,365.58,579.25,416.87,514.75,419Z"/>
          <path d="M482,187.26a66.24,66.24,0,0,0-35.81,15.07,1,1,0,0,0,1.29,1.53,64.2,64.2,0,0,1,34.71-14.61,1,1,0,0,0-.19-2Z"/>
        </g>
        <g>
          <path d="M603.2,269.22a1,1,0,0,0-1.38-.31,1,1,0,0,0-.32,1.38c13.32,21.28,11.67,51-3.94,70.67a1,1,0,0,0,.16,1.4,1,1,0,0,0,.62.22,1,1,0,0,0,.79-.38C615.24,321.89,617,291.2,603.2,269.22Z" style="fill: #fff"/>
          <path d="M597.8,319.13a1.14,1.14,0,0,0,.4.08,1,1,0,0,0,.92-.61,37.39,37.39,0,0,0-.58-30.48,1,1,0,1,0-1.81.86,35.37,35.37,0,0,1,.55,28.83A1,1,0,0,0,597.8,319.13Z" style="fill: #fff"/>
        </g>
        <path d="M374,302.65a1,1,0,0,1-.86-.49,22.74,22.74,0,0,1,10.62-32.59,1,1,0,0,1,1.31.53,1,1,0,0,1-.53,1.31,20.74,20.74,0,0,0-9.68,29.73,1,1,0,0,1-.34,1.37A1.07,1.07,0,0,1,374,302.65Z" style="fill: #fff"/>
      </g>
      <g id="abbf0c01-9921-4f5a-8a84-437c4cdeec8c" data-name="Hand">
        <path d="M642.5,363.5c-10,17.58-31,21-49,21s-23,18-16,27,27,10,46,3c0,0,21,16,42,16s23-11,28-7l5,4s26,14,57,3,38.65-57,39-67c.5-14.5-13-46-44-25,0,0,3-15-8-22s-18-7-26,0c0,0-11-33-21-33s-17,11-17,21c0,0-8-36-17-40s-31,23-22,49S646.5,356.5,642.5,363.5Z" style="fill: #fff"/>
        <path d="M796.47,361.42c0-.33,0-.66-.05-1s-.06-.53-.08-.8-.06-.57-.1-.86-.1-.69-.15-1-.06-.44-.1-.67c-.08-.45-.17-.9-.27-1.36,0-.11,0-.23-.07-.34a43.43,43.43,0,0,0-1.64-5.67.89.89,0,0,0-.08-.17,36.83,36.83,0,0,0-7.7-12.73,22.7,22.7,0,0,0-16.57-7.29c-5.24,0-10.86,1.73-16.78,5.16.13-5.38-1-14.55-9.31-19.84-6-3.79-10.79-5.56-15.19-5.56a18.12,18.12,0,0,0-10.93,3.92c-1.14-3.12-3.24-8.55-5.9-14-5.75-11.86-11-17.63-16-17.63-8,0-14.35,6.27-17.25,13.83-.81-3-1.82-6.44-3-9.95-4.39-13.36-8.63-20.78-13-22.71a6.91,6.91,0,0,0-2.78-.57c-4.6,0-10.24,4.08-15.1,10.9-6.85,9.62-12.24,25.49-6.82,41.15,8.57,24.77,7.06,41.53,3.15,48.36-7.68,13.45-23.14,20-47.26,20-8.69,0-15.63,4-19,11a2.14,2.14,0,0,0-.1.22l0,0-.15.34-.34.78-.14.39c-.1.28-.21.57-.3.86,0,.09-.06.19-.08.28-.11.33-.2.66-.28,1a.53.53,0,0,0,0,.12,18.39,18.39,0,0,0,2.19,14.27c.22.33.45.66.7,1a16.74,16.74,0,0,0,3.89,3.58c.38.26.78.51,1.19.75,4.52,2.63,10.74,4,18.16,4a71.78,71.78,0,0,0,21-3.34c1-.32,2-.65,3-1,.53.39,1.3.93,2.26,1.57l1.59,1c2,1.29,4.61,2.84,7.62,4.41.86.45,1.76.9,2.68,1.35,1.39.67,2.85,1.34,4.36,2s3.09,1.25,4.71,1.82l1.63.56c1.1.36,2.22.69,3.35,1,.57.16,1.14.3,1.71.44,1.73.42,3.48.78,5.25,1,.59.09,1.18.17,1.78.23,1.19.14,2.38.24,3.58.28.6,0,1.2,0,1.8,0,12.68,0,18.93-3.94,22.66-6.29a22.67,22.67,0,0,1,2.25-1.32,45.31,45.31,0,0,0,6.49,3.89l.35.28a2,2,0,0,0,.3.2c.57.31,14.07,7.46,33.38,7.46,1.08,0,2.16,0,3.24-.07a75,75,0,0,0,22-4.27A43.67,43.67,0,0,0,770.35,424a58.66,58.66,0,0,0,10-11.41,84.07,84.07,0,0,0,8-15.15c1.18-2.83,2.19-5.65,3.07-8.38.43-1.36.84-2.7,1.21-4,.22-.78.43-1.55.62-2.31.06-.2.11-.4.16-.59.4-1.58.76-3.1,1.07-4.55.17-.78.32-1.53.46-2.26q.12-.56.21-1.08c.13-.71.25-1.4.36-2.06s.21-1.29.3-1.9a65.49,65.49,0,0,0,.7-6.69v0c0-.49,0-1,0-1.5C796.5,361.83,796.48,361.62,796.47,361.42ZM576.16,394.56c-.23.49-.43,1-.62,1.49.19-.5.39-1,.62-1.49Zm22.23,22.72a1,1,0,0,1-.6.2,1,1,0,0,1-.8-.41,1,1,0,0,1,.21-1.4,15.08,15.08,0,0,0,6-10.86,1,1,0,1,1,2,.15A17.1,17.1,0,0,1,598.39,417.28Zm82,10.76q1-.37,1.83-.78Q681.35,427.67,680.37,428Zm8.82-5.54a1,1,0,0,1-.89.55,1.07,1.07,0,0,1-.46-.11,18.63,18.63,0,0,1-9.55-12.33,1,1,0,0,1,2-.44,16.61,16.61,0,0,0,8.51,11A1,1,0,0,1,689.19,422.5Zm11.42-20.85c.4,0,.8,0,1.19,0h.12C701.49,401.61,701.05,401.62,700.61,401.65Zm30.32,33.07c-.72,0-1.44,0-2.15,0,.72,0,1.45,0,2.18,0Zm27.89-48.13c-.71,1.77-1.38,3.64-2,5.44-3,8.4-6.14,17.09-13.86,19.3a15.54,15.54,0,0,1-4.26.59c-5.61,0-11.18-2.83-17.08-5.83-6.28-3.18-12.77-6.48-19.79-6.48-.43,0-.88,0-1.31,0-5.81.35-11,3-15.93,5.61-2.1,1.1-4.14,2.15-6.19,3a42.76,42.76,0,0,1-3.7-9.12,1,1,0,0,0-1.23-.69,1,1,0,0,0-.7,1.23,45.09,45.09,0,0,0,3.75,9.32,21.81,21.81,0,0,1-6.49,1.41h-.77c-6.71,0-12.81-3.76-19.27-7.75-5.41-3.33-11-6.76-17-7.85a23.72,23.72,0,0,0-3.5-13.89,1,1,0,1,0-1.68,1.08A21.58,21.58,0,0,1,631,394.35a1,1,0,0,1,2,.38,25,25,0,0,1-6.52,12.88,1,1,0,0,1-1.41,0,1,1,0,0,1,0-1.41,23,23,0,0,0,5.95-11.65c-.63-.06-1.26-.1-1.9-.1a22.37,22.37,0,0,0-2.59.16c-4.74.6-8.87,2.86-12.86,5a51.15,51.15,0,0,1-7.84,3.73l-.6.18a26.47,26.47,0,0,0-7.31-16.72,1,1,0,0,0-1.43,1.4,24.52,24.52,0,0,1,6.77,15.82,21.67,21.67,0,0,1-4.29.44,26.42,26.42,0,0,1-21.05-11.11,2.08,2.08,0,0,0-.68-.61c3-4.75,8.37-8.31,16.38-8.31,18,0,39-3.42,49-21,3-5.34,4.93-16.52,1.66-33.07a23.21,23.21,0,0,0,22.17-1.08,1,1,0,1,0-1.06-1.7,21.19,21.19,0,0,1-21,.61,1.05,1.05,0,0,0-.6-.1,130.56,130.56,0,0,0-4.18-14.66,39.06,39.06,0,0,1-2-15.29,1.4,1.4,0,0,0,.24.15,29.82,29.82,0,0,0,10.45,1.85A30.87,30.87,0,0,0,666.91,294a1,1,0,0,0-1.22-1.58,28.94,28.94,0,0,1-27.27,4.11,1,1,0,0,0-.81.05c1.78-17.75,14.41-32.44,21.92-32.44a4.75,4.75,0,0,1,2,.4c7,3.12,13.45,25.77,15.92,35.54v0a280.47,280.47,0,0,0,1.83,45.72,1,1,0,0,0,1,.88h.12a1,1,0,0,0,.87-1.11,279.35,279.35,0,0,1-2-32.73,19.79,19.79,0,0,0,13.42,5.07,19.1,19.1,0,0,0,11.63-3.76,1,1,0,0,0-1.22-1.59c-6.64,5.1-17.18,4.33-23-1.68a1,1,0,0,0-.81-.29c0-3.47.08-6.95.23-10.41a1,1,0,0,0-.32-.77c1.87-8.3,8.1-15.9,16.41-15.9,8.74,0,18.24,25.19,20.5,31.55a55.26,55.26,0,0,0-17.32,18.72c-3,5.35-3.54,10-1.54,13.32,2.61,4.37,10.28,8.44,15.68,8.44.26,0,.51,0,.76,0,13.26-1,29.15-11.66,33-16.88a1,1,0,1,0-1.61-1.19c-3.69,5-18.86,15.09-31.58,16.07-4.62.37-12.23-3.53-14.56-7.43-2-3.43-.28-8.05,1.56-11.32.7-1.24,1.47-2.44,2.26-3.62a1,1,0,0,0,.45-.05,11,11,0,0,1,13,16.32,1,1,0,0,0,.31,1.38.94.94,0,0,0,.53.16,1,1,0,0,0,.85-.47,13,13,0,0,0-13.41-19.79,53.29,53.29,0,0,1,13.19-12.31,1,1,0,0,0,.61.38,16.31,16.31,0,0,1,11.35,24.14,1,1,0,0,0,.37,1.36,1,1,0,0,0,.49.13,1,1,0,0,0,.87-.5,18.29,18.29,0,0,0-12.15-27,.94.94,0,0,0,0-.44,15.9,15.9,0,0,1,9.27-3.21c4.12,0,8.62,1.75,14.12,5.25,8.73,5.55,8.64,16.14,8.23,20.27-7.81,8.7-13,15.79-17.35,23.64a56.09,56.09,0,0,0-3.33,6.88,1,1,0,0,0-.43.75.92.92,0,0,0,0,.29,27.17,27.17,0,0,0-1.14,4.18c-.92,4.94-.11,9.56,2.26,13,2.76,4,7.89,6.46,13.28,6.46a18.36,18.36,0,0,0,2.56-.18,24.94,24.94,0,0,0,12.58-6.18C759.08,386,758.94,386.28,758.82,386.59ZM628.41,396.5l.59,0h-.59ZM788,365.21,763.75,383.5a1,1,0,0,1-.6.2,1,1,0,0,1-.6-1.8l24.29-18.28a1,1,0,0,1,1.4.19A1,1,0,0,1,788,365.21Zm2.89-16.44a60,60,0,0,0-6.52,6,44.62,44.62,0,0,1-7.5,6.57c-7.42,4.82-12.07,12-15.47,19.2-.42.49-.86,1-1.31,1.46-2.93,3.1-7.7,7-13.8,7.86-5.54.8-11.12-1.38-13.9-5.43a15.58,15.58,0,0,1-1.95-11.53,26.41,26.41,0,0,1,1-3.71,14.93,14.93,0,0,1,12.42,10.88,1,1,0,0,0,1,.76l.23,0a1,1,0,0,0,.74-1.21,17,17,0,0,0-13.63-12.32,59.51,59.51,0,0,1,2.91-5.88c4.3-7.8,9.5-14.85,17.37-23.57a1,1,0,0,0,.25-.74c6.41-3.93,12-5.57,16.91-5.57,10.91,0,18,8.19,21.75,17A2.23,2.23,0,0,0,790.93,348.77Z"/>
      </g>
    </g>
  </g>
</svg>
