<svg id="illustration" xmlns="http://www.w3.org/2000/svg" viewBox="0 0 862.23 849"><defs><style>.cls-1,.cls-5{fill:#d9cfff;}.cls-2{fill:#fff;}.cls-3{fill:#6c32ad;}.cls-4{fill:#1d1f1c;}.cls-5{stroke:#000;stroke-miterlimit:10;stroke-width:3px;}.cls-6{fill:#ffad00;}.cls-7{fill:#1d1e1b;}.cls-8{fill:#e89d00;}.cls-9{fill:#ffc140;}.cls-10{fill:#ffcdb2;}</style></defs><g id="temporarily_not_available" data-name="temporarily not available"><g id="text"><path d="M213.05,871.63a24.36,24.36,0,0,1,10.28-2.21q7.23,0,11.71,4.35a13.7,13.7,0,0,1,4.47,10.09,17.31,17.31,0,0,1-6.37,13.82q-6.36,5.42-17.21,5.41a20.93,20.93,0,0,1-12.45-3.62q-5.1-3.62-5.11-7.31a4.76,4.76,0,0,1,.88-2.81,2.58,2.58,0,0,1,2.14-1.23c1.73,0,2.76.46,3.09,1.37q3,7.49,12.88,7.49a15.72,15.72,0,0,0,11-3.92q4.28-3.93,4.28-8.53a8.63,8.63,0,0,0-2.58-6.52q-2.58-2.47-8.2-2.48a25.11,25.11,0,0,0-7.19,1.37,19.78,19.78,0,0,1-5.48,1.13,2.74,2.74,0,0,1-2-.88,3,3,0,0,1-.86-2.15,32.84,32.84,0,0,1,1.74-7.75,58.76,58.76,0,0,1,3.09-8.38,17.47,17.47,0,0,1,2.67-4.12,5.76,5.76,0,0,1,2.33-1.7q1-.3,10.34-.93t16.44-.63a3.11,3.11,0,0,1,1.9.47,2.37,2.37,0,0,1,.63,1.95,3.8,3.8,0,0,1-1.12,2.88,4.08,4.08,0,0,1-3,1.09q-13.35,0-23.66,1A72.09,72.09,0,0,0,213.05,871.63Z" transform="translate(-84.47 -88)"/><path d="M293.92,867.76A34.94,34.94,0,0,1,289.48,884a41.55,41.55,0,0,1-11.32,13.78q-6.87,5.33-13.44,5.32a14.2,14.2,0,0,1-11-4.55Q249.56,894,249.55,886q0-7.66,4.66-15.89A42.34,42.34,0,0,1,266,856.6q7.14-5.25,13.46-5.26,6.75,0,10.6,4.4T293.92,867.76ZM256.4,886.82a11.16,11.16,0,0,0,2.37,7.36,7.55,7.55,0,0,0,6.09,2.87q5,0,10.16-4.63a36.07,36.07,0,0,0,8.64-11.9,32.33,32.33,0,0,0,3.42-13.71q0-4.53-2-7a7,7,0,0,0-5.71-2.44q-5.13,0-10.55,4.45a34.55,34.55,0,0,0-8.93,11.49A30.29,30.29,0,0,0,256.4,886.82Z" transform="translate(-84.47 -88)"/><path d="M344.4,867.76A34.94,34.94,0,0,1,340,884a41.55,41.55,0,0,1-11.32,13.78q-6.88,5.33-13.44,5.32a14.19,14.19,0,0,1-11-4.55Q300,894,300,886q0-7.66,4.65-15.89a42.37,42.37,0,0,1,11.8-13.48q7.14-5.25,13.46-5.26,6.74,0,10.6,4.4T344.4,867.76Zm-37.52,19.06a11.16,11.16,0,0,0,2.37,7.36,7.55,7.55,0,0,0,6.09,2.87q4.95,0,10.16-4.63a36.21,36.21,0,0,0,8.64-11.9,32.33,32.33,0,0,0,3.42-13.71q0-4.53-2-7a6.93,6.93,0,0,0-5.7-2.44q-5.13,0-10.55,4.45a34.55,34.55,0,0,0-8.93,11.49A30.29,30.29,0,0,0,306.88,886.82Z" transform="translate(-84.47 -88)"/><path d="M386.56,894.69c.8.28,1.61.61,2.44,1s1.69.73,2.58,1.07a22.1,22.1,0,0,0,2.79.86,13.47,13.47,0,0,0,3.11.35,16.94,16.94,0,0,0,3.9-.46,18.29,18.29,0,0,0,3.84-1.35,21.58,21.58,0,0,0,3.6-2.18,19.21,19.21,0,0,0,3.16-3c1-1.19,1.93-2.28,2.63-3.25a28.81,28.81,0,0,0,1.7-2.6,12.32,12.32,0,0,0,.93-2,4.48,4.48,0,0,0,.28-1.43,2.2,2.2,0,0,0-.59-1.52,4.42,4.42,0,0,0-1.6-1.08,9.63,9.63,0,0,0-2.27-.61,17.21,17.21,0,0,0-2.63-.2q-.81,0-1.89.06l-2.22.1-2.17.09c-.7,0-1.31,0-1.83,0a11.32,11.32,0,0,1-2.4-.27,9.73,9.73,0,0,1-2.44-.86,8.49,8.49,0,0,1-2.21-1.62,8.3,8.3,0,0,1-1.69-2.53,7.52,7.52,0,0,1-.38-1.16,5.46,5.46,0,0,1-.18-1.44,10.29,10.29,0,0,1,.12-1.6c.09-.5.18-1,.3-1.46a13.75,13.75,0,0,1,1.63-3.57,24.91,24.91,0,0,1,2.74-3.53,44.31,44.31,0,0,1,3.48-3.34q1.88-1.62,3.86-3c1.32-1,2.62-1.8,3.9-2.57s2.46-1.41,3.56-1.95a20.49,20.49,0,0,1,4.72-1.63,22.87,22.87,0,0,1,4.76-.51,9.29,9.29,0,0,1,2.66.37A6.89,6.89,0,0,1,427,849a5.1,5.1,0,0,1,1.53,1.74,4.94,4.94,0,0,1,.56,2.37,4.36,4.36,0,0,1-.17,1.3,2.59,2.59,0,0,1-.46.86,1.58,1.58,0,0,1-.61.48,1.89,1.89,0,0,1-.69.14,6.8,6.8,0,0,1-1.74-.21c-.52-.14-1-.3-1.52-.48s-1-.34-1.48-.49a5.49,5.49,0,0,0-1.61-.23,14.67,14.67,0,0,0-5.29,1,30.19,30.19,0,0,0-5.23,2.64,37.9,37.9,0,0,0-4.81,3.57c-1.5,1.31-2.86,2.59-4,3.83a7.07,7.07,0,0,0-1.39,2,4.58,4.58,0,0,0-.44,1.86,2.31,2.31,0,0,0,1.13,2,4.9,4.9,0,0,0,2.74.74c.63,0,1.34,0,2.14,0L408,872l2.42-.1c.78,0,1.48,0,2.09,0a14.19,14.19,0,0,1,4.18.61,11,11,0,0,1,3.54,1.81,9,9,0,0,1,2.48,3,8.65,8.65,0,0,1,.93,4.06,9.81,9.81,0,0,1-.43,2.85,17,17,0,0,1-1.15,2.9A30.42,30.42,0,0,1,420.4,890c-.63.95-1.3,1.88-2,2.8a37.64,37.64,0,0,1-4.23,4.64,31.48,31.48,0,0,1-5,3.8,25.93,25.93,0,0,1-5.56,2.56,19.19,19.19,0,0,1-6,1,16.29,16.29,0,0,1-2.74-.24,19.11,19.11,0,0,1-2.77-.72,14.13,14.13,0,0,1-2.58-1.2,11.09,11.09,0,0,1-2.13-1.63,7.71,7.71,0,0,1-1.45-2,5.26,5.26,0,0,1-.55-2.4,3.81,3.81,0,0,1,.2-1.22A.89.89,0,0,1,386.56,894.69Z" transform="translate(-84.47 -88)"/><path d="M430,919.06a1.66,1.66,0,0,1-.95-.29,2.51,2.51,0,0,1-.72-.73,4.25,4.25,0,0,1-.47-1,3.54,3.54,0,0,1,0-2.23,3.47,3.47,0,0,1,.44-.86,2.22,2.22,0,0,1,.56-.58,3.28,3.28,0,0,1,.54-.32c.56-.14,1.22-.29,2-.45a22.1,22.1,0,0,0,2.44-.72,26.83,26.83,0,0,0,2.81-1.23,20.09,20.09,0,0,0,3.07-2c1.05-.82,2.16-1.78,3.31-2.87a27.87,27.87,0,0,0,3.36-3.83,34.49,34.49,0,0,0,3-5,32.26,32.26,0,0,0,2.31-6.48l-1.52,1.67c-.58.62-1.19,1.25-1.85,1.9s-1.33,1.26-2,1.86a26.48,26.48,0,0,1-2.11,1.62,11.81,11.81,0,0,1-2.05,1.14,4.91,4.91,0,0,1-1.88.42,7.21,7.21,0,0,1-4-1.07,10.1,10.1,0,0,1-3.06-3.53,6.45,6.45,0,0,1-.59-1.83,12.43,12.43,0,0,1-.21-2.29c0-1.26,0-2.49.17-3.69s.29-2.44.53-3.72.51-2.65.82-4.07l1.07-4.69c0-.44.06-.87.11-1.26a8.21,8.21,0,0,0,.09-.95,3.19,3.19,0,0,1,.05-.57,2.75,2.75,0,0,1,.4-1.12,4,4,0,0,1,.81-.92,4,4,0,0,1,1-.59,3,3,0,0,1,1.07-.21,9.11,9.11,0,0,1,1.47.12,2,2,0,0,1,1.16.54,4.07,4.07,0,0,1,.9,1.66,6.56,6.56,0,0,1,.3,1.82,5.31,5.31,0,0,1-.3,1.27,11.35,11.35,0,0,1-.86,2q-.84,3.17-1.37,5.36c-.35,1.47-.63,2.68-.83,3.66s-.34,1.74-.42,2.32a10.21,10.21,0,0,0-.12,1.32,6.19,6.19,0,0,0,.63,3,1.81,1.81,0,0,0,1.55,1.12,4.22,4.22,0,0,0,1.21-.21,6,6,0,0,0,1.45-.7,27.19,27.19,0,0,0,5.08-4,24.6,24.6,0,0,0,3.65-4.78,34.49,34.49,0,0,0,2.63-5.75,70.68,70.68,0,0,0,2-6.89,1.09,1.09,0,0,1,.33-.49,2.31,2.31,0,0,1,.63-.42,5,5,0,0,1,.79-.3,2.63,2.63,0,0,1,.81-.13,3.87,3.87,0,0,1,2.86,1,3.6,3.6,0,0,1,1,2.68,10.35,10.35,0,0,1-.31,2c-.21.94-.46,1.93-.74,3s-.57,2-.86,3-.52,1.65-.69,2.09l-1.68,4.89q-1.15,3.3-2.09,6.08c-.62,1.86-1.28,3.58-2,5.19a38.3,38.3,0,0,1-2.37,4.55,28.07,28.07,0,0,1-3.18,4.19,39.67,39.67,0,0,1-4.42,4.09,63.62,63.62,0,0,1-6.11,4.27,28.77,28.77,0,0,1-4.27,2.13A11.87,11.87,0,0,1,430,919.06Z" transform="translate(-84.47 -88)"/><path d="M469,896.59a1.61,1.61,0,0,1,.51.07l.51.16a5.74,5.74,0,0,0,.63.16,5.43,5.43,0,0,0,.91.07,22,22,0,0,0,3.67-.35,29.51,29.51,0,0,0,3.81-.92,15.85,15.85,0,0,0,3.07-1.28c.85-.48,1.34-1,1.46-1.5a3,3,0,0,0,.1-.73,1.59,1.59,0,0,0-.58-1.15,7.52,7.52,0,0,0-1.45-1,17.64,17.64,0,0,0-1.9-.92l-1.89-.77-1.2-.49a13.32,13.32,0,0,1-1.79-.86,10.58,10.58,0,0,1-1.63-1.18,7.52,7.52,0,0,1-1.33-1.57,6.54,6.54,0,0,1-.87-2,8.79,8.79,0,0,1-.22-1,5.87,5.87,0,0,1-.09-1,4.59,4.59,0,0,1,.61-2.09,11.4,11.4,0,0,1,1.65-2.34,20,20,0,0,1,2.35-2.22,14.54,14.54,0,0,1,2.76-1.75c.7-.5,1.38-.94,2-1.34a14.29,14.29,0,0,1,2-1,13.9,13.9,0,0,1,2-.67,9.67,9.67,0,0,1,2.19-.24c.7,0,1.46,0,2.28.1a8.62,8.62,0,0,1,2.25.49,4.31,4.31,0,0,1,1.7,1.15,2.86,2.86,0,0,1,.69,2,7.14,7.14,0,0,1-.46,2.28,4.34,4.34,0,0,1-.6,1.09,1,1,0,0,1-.84.46,2.54,2.54,0,0,1-1.33-.32,6.42,6.42,0,0,1-.95-.68,9.52,9.52,0,0,0-.88-.69,1.92,1.92,0,0,0-1.12-.31,7.44,7.44,0,0,0-1.88.29,14.63,14.63,0,0,0-2.19.81,19.43,19.43,0,0,0-2.2,1.18,19.18,19.18,0,0,0-1.93,1.37,9.1,9.1,0,0,0-1.39,1.39,2.12,2.12,0,0,0-.52,1.25,1.33,1.33,0,0,0,.38,1,3.51,3.51,0,0,0,1,.67c.51.28,1.1.56,1.77.85l2,.84,2,.84c.64.28,1.2.54,1.67.78.63.32,1.2.65,1.7,1a6.44,6.44,0,0,1,1.28,1,4,4,0,0,1,.81,1.27,4.35,4.35,0,0,1,.28,1.65,5.58,5.58,0,0,1-.07.91c-.05.31-.12.66-.21,1.06a7.73,7.73,0,0,1-.37,1.23c-.17.47-.36.93-.56,1.39a11.74,11.74,0,0,1-.62,1.23,3,3,0,0,1-.52.72,19.42,19.42,0,0,1-3.23,2.37,29.47,29.47,0,0,1-7.92,3.25,15.58,15.58,0,0,1-3.7.49,6.09,6.09,0,0,1-1.86-.33,8.31,8.31,0,0,1-1.88-.88,6.06,6.06,0,0,1-1.44-1.25,2.24,2.24,0,0,1-.58-1.4,1.83,1.83,0,0,1,.21-.79,3.43,3.43,0,0,1,.53-.81,4.07,4.07,0,0,1,.68-.64A1.27,1.27,0,0,1,469,896.59Z" transform="translate(-84.47 -88)"/><path d="M502.93,891.88a29.47,29.47,0,0,1,.67-6.13q.66-3.19,1.4-6.1a8.76,8.76,0,0,1-1.86-.29,7.32,7.32,0,0,1-1.72-.66,4,4,0,0,1-1.26-1,2.22,2.22,0,0,1-.5-1.42,3.12,3.12,0,0,1,.14-.81,4.78,4.78,0,0,1,.41-1,2.54,2.54,0,0,1,.68-.81,1.5,1.5,0,0,1,.95-.33h4.7a.93.93,0,0,0,.92-.58,7.73,7.73,0,0,0,.38-1.15c.31-1.35.59-2.53.86-3.53l.69-2.53c.18-.69.33-1.25.44-1.69a4.86,4.86,0,0,0,.15-1c0-.31,0-.6,0-.88s0-.67,0-1.16v-.35a5.86,5.86,0,0,1,.06-.74,6.27,6.27,0,0,1,.33-1.3,3.34,3.34,0,0,1,.77-1.27,2.17,2.17,0,0,1,1.65-.6,3.19,3.19,0,0,1,1.62.39,3.43,3.43,0,0,1,1.09,1,4.7,4.7,0,0,1,.63,1.44,6.67,6.67,0,0,1,0,3.2l-2.56,9.84c1.26-.21,2.39-.41,3.37-.59l3-.57c1.07-.21,2-.41,2.79-.59l2-.48,1.42-.32a5,5,0,0,1,1-.12,7.52,7.52,0,0,1,1.15.09,3.63,3.63,0,0,1,1,.3,1.76,1.76,0,0,1,.72.6,1.65,1.65,0,0,1,.28,1,3.24,3.24,0,0,1-.33,1.49,3.81,3.81,0,0,1-.86,1.12,4.54,4.54,0,0,1-1.19.78,7,7,0,0,1-1.34.44c-.37.07-.86.17-1.45.31l-2,.46-2.23.53-2.25.56c-1.07.28-2,.52-2.75.7s-1.41.33-2,.43l-1.32.21a7.52,7.52,0,0,1-.82.07c-.45,1.33-.83,2.65-1.16,3.93s-.6,2.49-.82,3.61-.39,2.11-.5,3a19.36,19.36,0,0,0-.15,2,9.51,9.51,0,0,0,.17,1.81,4.22,4.22,0,0,0,.6,1.5,3,3,0,0,0,1.14,1,3.89,3.89,0,0,0,1.81.37,7.28,7.28,0,0,0,3.65-1,17.65,17.65,0,0,0,3.42-2.58,32.88,32.88,0,0,0,3.09-3.43c1-1.24,1.87-2.43,2.69-3.55a1.25,1.25,0,0,1,1.08-.64,2.79,2.79,0,0,1,.51.07,2,2,0,0,1,.58.25,1.62,1.62,0,0,1,.48.46,1.2,1.2,0,0,1,.19.67,1.56,1.56,0,0,1,0,.42,19.56,19.56,0,0,1-1.73,4.37q-1.18,2.21-2.41,4.42a7.82,7.82,0,0,1-1.1,1.51,18.53,18.53,0,0,1-1.5,1.42c-.53.46-1.1.89-1.68,1.3s-1.14.78-1.65,1.11A8.58,8.58,0,0,1,515.5,902a15.76,15.76,0,0,1-3.06.32,9.48,9.48,0,0,1-4.05-.83,8.71,8.71,0,0,1-3-2.25,10,10,0,0,1-1.84-3.32A12.91,12.91,0,0,1,502.93,891.88Z" transform="translate(-84.47 -88)"/><path d="M535.36,889.24a4.08,4.08,0,0,1,.81-2.56,3.8,3.8,0,0,1,2.14-1.41c.26-.52.66-1.21,1.2-2.09a30,30,0,0,1,2-2.87,35.57,35.57,0,0,1,2.72-3.11,23.83,23.83,0,0,1,3.37-2.85,18.73,18.73,0,0,1,4-2.09,12.57,12.57,0,0,1,4.51-.81,11.43,11.43,0,0,1,3.55.5,6.63,6.63,0,0,1,2.49,1.37,5.51,5.51,0,0,1,1.48,2.09,7.06,7.06,0,0,1,.49,2.62,8.1,8.1,0,0,1-.32,2.28,7.93,7.93,0,0,1-1.82,3.45,14.47,14.47,0,0,1-3.14,2.58,20.07,20.07,0,0,1-3.94,1.85,42.31,42.31,0,0,1-4.24,1.23c-1.42.33-2.78.58-4.09.75s-2.45.32-3.41.41a7.26,7.26,0,0,0-.54,1.6,8.26,8.26,0,0,0-.23,1.88,3.64,3.64,0,0,0,1.61,3.16,7.72,7.72,0,0,0,4.46,1.13,13,13,0,0,0,3.16-.37,18.1,18.1,0,0,0,2.86-1,25.24,25.24,0,0,0,2.55-1.27c.79-.45,1.52-.9,2.17-1.35a23.81,23.81,0,0,1,2.41-1.42,4.51,4.51,0,0,1,2-.58c.58,0,1,.14,1.12.44a1.91,1.91,0,0,1,.25.93c0,.19,0,.37,0,.54a3.62,3.62,0,0,1-.05.44,6,6,0,0,1-.71,1.83,5.63,5.63,0,0,1-1.33,1.58,23.89,23.89,0,0,1-7.49,4.12,26.8,26.8,0,0,1-8.2,1.23c-.56,0-1.22,0-2-.11a15,15,0,0,1-2.37-.42,12.81,12.81,0,0,1-2.43-.91,7.49,7.49,0,0,1-3.63-4,9.25,9.25,0,0,1-.58-3.48,16.65,16.65,0,0,1,.46-3.69,1.56,1.56,0,0,1-.86-.48A1.6,1.6,0,0,1,535.36,889.24Zm22-9.74a.76.76,0,0,0,.07-.31v-.32a1.61,1.61,0,0,0-.7-1.42A2.92,2.92,0,0,0,555,877a6.26,6.26,0,0,0-3,.81,14,14,0,0,0-2.81,2,19.16,19.16,0,0,0-3.92,5.12,33.45,33.45,0,0,0,4.64-.69,18.08,18.08,0,0,0,3.66-1.19,9.35,9.35,0,0,0,2.53-1.62A4.14,4.14,0,0,0,557.34,879.5Z" transform="translate(-84.47 -88)"/><path d="M571.42,900.49q1.05-4.11,2-7.66c.66-2.37,1.29-4.64,1.91-6.8l1.81-6.31q.89-3.06,1.69-6.23a12.11,12.11,0,0,0,.37-2.37,12.73,12.73,0,0,1,.33-2.37,1.71,1.71,0,0,1,.51-.76,4.47,4.47,0,0,1,.82-.58,5.46,5.46,0,0,1,1-.39,3.78,3.78,0,0,1,1-.14,5.1,5.1,0,0,1,1.64.23,2.84,2.84,0,0,1,1,.62,2,2,0,0,1,.56.93,4.17,4.17,0,0,1,.16,1.21,7.84,7.84,0,0,1-.39,2.41c-.26.81-.57,1.69-1,2.65q1.65-1.29,3.39-2.46a29.66,29.66,0,0,1,3.58-2,22.94,22.94,0,0,1,3.78-1.4,15.14,15.14,0,0,1,4-.53,6.22,6.22,0,0,1,1.89.3,5,5,0,0,1,1.71.93,5.09,5.09,0,0,1,1.26,1.65,6.31,6.31,0,0,1,.58,2.5c1-.68,2-1.37,3.12-2.06a33.66,33.66,0,0,1,3.29-1.86,22.08,22.08,0,0,1,3.33-1.34,11,11,0,0,1,3.25-.51,10.51,10.51,0,0,1,3.88.62,6.26,6.26,0,0,1,2.42,1.65,6.06,6.06,0,0,1,1.26,2.41,11,11,0,0,1,.37,2.92,19.26,19.26,0,0,1-.32,3.48c-.21,1.19-.44,2.33-.7,3.41q-1,4.08-2.28,7.72c-.84,2.42-1.75,4.88-2.74,7.36-.23.59-.48,1.21-.73,1.86a11.31,11.31,0,0,1-.9,1.81,5.37,5.37,0,0,1-1.19,1.38,2.52,2.52,0,0,1-1.6.54,4.27,4.27,0,0,1-2.84-.7,2.57,2.57,0,0,1-.78-2c0-.23,0-.5,0-.81a3.62,3.62,0,0,1,.17-.87,9.27,9.27,0,0,1,.64-1.53c.32-.67.68-1.39,1.07-2.17l1.14-2.33a18,18,0,0,0,.84-2.06c.3-1,.66-2.17,1.07-3.5s.8-2.66,1.18-4,.68-2.62.93-3.83a15.8,15.8,0,0,0,.37-2.93,5.45,5.45,0,0,0-.11-1.06,2.39,2.39,0,0,0-.37-.91,1.85,1.85,0,0,0-.74-.63,2.5,2.5,0,0,0-1.21-.25,6.79,6.79,0,0,0-2.51.6,21.19,21.19,0,0,0-3,1.56,27.34,27.34,0,0,0-3,2.18,21.88,21.88,0,0,0-2.53,2.41,11.08,11.08,0,0,1-1.4,1.37,6,6,0,0,1-1.34.81c0,.09-.16.4-.35.93s-.41,1.16-.66,1.9-.53,1.53-.81,2.39-.55,1.65-.79,2.39l-.62,1.86a7.89,7.89,0,0,0-.24.83c-.17.66-.31,1.33-.42,2s-.23,1.35-.32,2-.18,1.3-.26,2a8,8,0,0,1-.49,2,3.61,3.61,0,0,1-1.13,1.53,3.32,3.32,0,0,1-2.12.6,2.44,2.44,0,0,1-1.28-.35,3.74,3.74,0,0,1-1-.9,4.3,4.3,0,0,1-.67-1.23,4.84,4.84,0,0,1-.28-1.39c.54-2.11,1.06-4,1.58-5.69s1-3.31,1.54-4.85,1-3.1,1.5-4.66,1-3.28,1.42-5.15c.11-.45.21-.89.28-1.32a7.33,7.33,0,0,0,.1-1.14,2.45,2.45,0,0,0-.35-1.39,1.33,1.33,0,0,0-1.23-.55,7.65,7.65,0,0,0-2.86.58,14.61,14.61,0,0,0-3.07,1.81,44.73,44.73,0,0,0-3.67,3.13q-2,1.9-4.65,4.54a13.3,13.3,0,0,0-.74,2c-.3,1-.61,2-.93,3s-.6,2.08-.86,3-.42,1.54-.49,1.85a23.2,23.2,0,0,0-.52,2.47c-.1.67-.18,1.28-.25,1.82q-.08.42-.21,1.38a8.78,8.78,0,0,1-.51,2,5.58,5.58,0,0,1-1,1.75,2.25,2.25,0,0,1-1.76.75,3.93,3.93,0,0,1-2.65-.88,2.77,2.77,0,0,1-1-2.21,3.15,3.15,0,0,1,0-.46A3.35,3.35,0,0,1,571.42,900.49Z" transform="translate(-84.47 -88)"/><path d="M668.86,900.21a10.65,10.65,0,0,1,.35-2.6q1.2-4.79,2.79-9.37t2.9-9.12c.86-3,1.58-5.57,2.16-7.65s1.08-3.85,1.52-5.34.86-2.77,1.23-3.85.79-2.15,1.23-3.2c.28-.63.59-1.29.93-2a14.78,14.78,0,0,1,1.11-1.88,7.61,7.61,0,0,1,1.24-1.41,2.12,2.12,0,0,1,1.36-.54,4.22,4.22,0,0,1,2.19.47,2.53,2.53,0,0,1,.93.86l.32,1.45a12.79,12.79,0,0,0,1.36-.2l1.71-.33,1.59-.35c.5-.12.87-.23,1.13-.32,1.54-.42,3-.78,4.28-1.09s2.56-.56,3.74-.76,2.31-.34,3.39-.43,2.16-.15,3.26-.15a15.59,15.59,0,0,1,2.63.18,6.48,6.48,0,0,1,1.62.47,1.83,1.83,0,0,1,.82.71,1.63,1.63,0,0,1,.23.86,2,2,0,0,1-.23.9,2.64,2.64,0,0,1-.75.89,5,5,0,0,1-1.37.74,7.93,7.93,0,0,1-2.11.42c-.21,0-.69.14-1.45.27l-2.48.42-2.53.44c-.79.14-1.34.24-1.65.31h0l-1,.27c-.53.15-1.17.33-1.91.52s-1.57.43-2.44.69l-2.6.76c-.86.24-1.65.48-2.37.7l-1.76.54a8.57,8.57,0,0,0-3.35,2.24,10.9,10.9,0,0,0-1.91,3.11c-.09.21-.24.57-.42,1.07s-.39,1.08-.62,1.72-.46,1.33-.72,2.06-.5,1.42-.73,2.07-.44,1.26-.62,1.8-.3.93-.37,1.19a5,5,0,0,0-.14.64,4.06,4.06,0,0,0,0,.42c0,.14,0,.21.1.21a10.43,10.43,0,0,0,2.2-.48c1.11-.31,2.41-.71,3.89-1.17l4.78-1.52q2.53-.81,4.88-1.51c1.55-.47,2.94-.86,4.16-1.18a12.23,12.23,0,0,1,2.63-.47,2.44,2.44,0,0,1,1.65.4,1.23,1.23,0,0,1,.42.9,3.18,3.18,0,0,1-.89,2.22,8.56,8.56,0,0,1-2.23,1.65c-.28.14-.81.34-1.57.61s-1.58.55-2.45.83l-2.51.81-1.72.56c-2.3.89-4.16,1.62-5.6,2.2l-3.49,1.4c-.89.37-1.58.64-2.06.83s-.92.35-1.33.47-.86.26-1.35.37l-2,.5a19,19,0,0,0-.74,2.23c-.28,1-.55,2-.8,3.09s-.48,2.06-.65,3a11.88,11.88,0,0,0-.27,1.9,1.86,1.86,0,0,0,.18.93,1,1,0,0,0,.42.41,1.23,1.23,0,0,0,.49.1h.39a20.25,20.25,0,0,0,4-.49,37.57,37.57,0,0,0,4.69-1.3,25.61,25.61,0,0,0,3.86-1.69c1.1-.61,2.13-1.18,3.11-1.7a24.83,24.83,0,0,1,2.84-1.34,8.75,8.75,0,0,1,3-.58,5.23,5.23,0,0,1,.82.07,3.75,3.75,0,0,1,.9.26,1.87,1.87,0,0,1,.68.51,1,1,0,0,1,.19.81,3.84,3.84,0,0,1-1,2,12.63,12.63,0,0,1-2.22,1.9,26.63,26.63,0,0,1-3,1.75c-1.1.57-2.22,1.1-3.37,1.6s-2.27,1-3.37,1.37l-3,1.08a39.48,39.48,0,0,1-6.28,1.65,32.74,32.74,0,0,1-5.48.53,7,7,0,0,1-4.09-1A3.76,3.76,0,0,1,668.86,900.21Z" transform="translate(-84.47 -88)"/><path d="M712.25,899.19q.45-2.46,1-5.41t1.23-6q.63-3,1.23-5.94c.4-1.94.74-3.73,1-5.34a4.91,4.91,0,0,1,0-.62v-.58a17.73,17.73,0,0,1,.14-2.18,15.42,15.42,0,0,1,.39-2,4.32,4.32,0,0,1,.86-1.81,2.06,2.06,0,0,1,1.53-.48,2.94,2.94,0,0,1,1.63.41,2.76,2.76,0,0,1,1,1.07,4.22,4.22,0,0,1,.46,1.53,14.53,14.53,0,0,1,.1,1.77c0,.33,0,.7,0,1.09s0,.72,0,.95c.66-.68,1.36-1.37,2.09-2.09a18.08,18.08,0,0,1,2.36-1.93,13.41,13.41,0,0,1,2.63-1.43,7.7,7.7,0,0,1,2.89-.56,6.64,6.64,0,0,1,1.18.11,10.59,10.59,0,0,1,1.18.28,12.15,12.15,0,0,1,1.45.47,6.29,6.29,0,0,1,1.46.83,7.68,7.68,0,0,1,1.95,2.2,5.2,5.2,0,0,1,.79,2.69,3.55,3.55,0,0,1-.21,1.14,4.41,4.41,0,0,1-.58,1.12,3.65,3.65,0,0,1-.86.85,1.92,1.92,0,0,1-1.09.33,4.61,4.61,0,0,1-1.46-.3,4.3,4.3,0,0,1-1.42-.79,3.29,3.29,0,0,1-.51-.6c-.17-.25-.34-.51-.49-.77l-.42-.72a2.58,2.58,0,0,0-.3-.44l-.39,0-.38,0a6.84,6.84,0,0,0-3.41.91,16.07,16.07,0,0,0-3,2.24A25.43,25.43,0,0,0,723.6,882c-.78,1-1.46,1.89-2.05,2.69q-.7,2.85-1.56,6.06t-1.7,6.73v.88c0,.71,0,1.42-.07,2.15a6,6,0,0,1-.43,1.93,3,3,0,0,1-1.1.9,3.7,3.7,0,0,1-1.67.37,2.62,2.62,0,0,1-2.21-1,3.64,3.64,0,0,1-.74-2.27A4.47,4.47,0,0,1,712.25,899.19Z" transform="translate(-84.47 -88)"/><path d="M742.86,899.19q.45-2.46,1-5.41t1.23-6q.63-3,1.23-5.94c.4-1.94.74-3.73,1-5.34a4.91,4.91,0,0,1,0-.62v-.58a17.73,17.73,0,0,1,.14-2.18,15.42,15.42,0,0,1,.39-2,4.32,4.32,0,0,1,.86-1.81,2.06,2.06,0,0,1,1.53-.48,2.94,2.94,0,0,1,1.63.41,2.76,2.76,0,0,1,1,1.07,4.22,4.22,0,0,1,.46,1.53,14.53,14.53,0,0,1,.1,1.77c0,.33,0,.7,0,1.09s0,.72,0,.95c.66-.68,1.36-1.37,2.09-2.09a18.68,18.68,0,0,1,2.35-1.93,13.78,13.78,0,0,1,2.64-1.43,7.7,7.7,0,0,1,2.89-.56,6.64,6.64,0,0,1,1.18.11,10.59,10.59,0,0,1,1.18.28,12.15,12.15,0,0,1,1.45.47,6.29,6.29,0,0,1,1.46.83,7.68,7.68,0,0,1,1.95,2.2,5.2,5.2,0,0,1,.79,2.69,3.55,3.55,0,0,1-.21,1.14,4.41,4.41,0,0,1-.58,1.12,3.85,3.85,0,0,1-.86.85,1.92,1.92,0,0,1-1.09.33,4.61,4.61,0,0,1-1.46-.3,4.2,4.2,0,0,1-1.42-.79,3.29,3.29,0,0,1-.51-.6c-.17-.25-.34-.51-.49-.77l-.42-.72a2.58,2.58,0,0,0-.3-.44l-.39,0-.38,0a6.84,6.84,0,0,0-3.41.91,16.07,16.07,0,0,0-3,2.24,25.43,25.43,0,0,0-2.58,2.81c-.78,1-1.46,1.89-2.05,2.69q-.7,2.85-1.56,6.06t-1.7,6.73v.88c0,.71,0,1.42-.07,2.15a6.22,6.22,0,0,1-.42,1.93,3.18,3.18,0,0,1-1.11.9,3.7,3.7,0,0,1-1.67.37,2.62,2.62,0,0,1-2.21-1,3.64,3.64,0,0,1-.74-2.27A4.47,4.47,0,0,1,742.86,899.19Z" transform="translate(-84.47 -88)"/><path d="M773.12,889.35a25.14,25.14,0,0,1,1.63-4.55,28.23,28.23,0,0,1,2.9-4.87,33.78,33.78,0,0,1,4.3-4.82,36.35,36.35,0,0,1,5.81-4.39,9.57,9.57,0,0,1,3.86-1.13,4.79,4.79,0,0,1,3.68-1.48,7.59,7.59,0,0,1,4.62,1.39,10.76,10.76,0,0,1,3.11,3.78l.72,1.51a12.65,12.65,0,0,1,.56,1.57,16.69,16.69,0,0,1,.37,1.77,15.42,15.42,0,0,1,.14,2.15,19.54,19.54,0,0,1-.88,5.66,26.36,26.36,0,0,1-2.49,5.62,32.52,32.52,0,0,1-9,9.78,15.16,15.16,0,0,1-4.19,2.12,16.23,16.23,0,0,1-5.14.76,13.72,13.72,0,0,1-4.69-.72,8.79,8.79,0,0,1-3.3-2.06,8.31,8.31,0,0,1-2-3.2,12.34,12.34,0,0,1-.65-4.15A19.71,19.71,0,0,1,773.12,889.35Zm5.82.46a10.1,10.1,0,0,0-.29,1.52,11.42,11.42,0,0,0-.09,1.39,7.54,7.54,0,0,0,.3,2.17,4.41,4.41,0,0,0,1,1.72,4.59,4.59,0,0,0,1.67,1.12,6.52,6.52,0,0,0,2.44.41,9.58,9.58,0,0,0,5-1.36,16.76,16.76,0,0,0,4.09-3.39,22.11,22.11,0,0,0,3-4.38,20.41,20.41,0,0,0,1.7-4.3c.21-.82.39-1.6.54-2.32a9.39,9.39,0,0,0,.23-2,4.37,4.37,0,0,0-.33-1.7c-.22-.53-.51-1.12-.86-1.78-.21-.4-.42-.81-.63-1.24s-.4-.87-.56-1.29a5.4,5.4,0,0,1-.6.86,2.79,2.79,0,0,1-1,.67,8.74,8.74,0,0,1-1.72.55,26.12,26.12,0,0,1-2.84.42,9.46,9.46,0,0,0-2.35,1.19,18.38,18.38,0,0,0-2.34,1.9,25.92,25.92,0,0,0-2.18,2.36,24.64,24.64,0,0,0-1.86,2.58,27.16,27.16,0,0,0-1.44,2.59A12,12,0,0,0,778.94,889.81Z" transform="translate(-84.47 -88)"/><path d="M811.49,899.19q.45-2.46,1-5.41t1.23-6q.63-3,1.23-5.94c.39-1.94.73-3.73,1-5.34,0-.24,0-.44,0-.62v-.58a17.73,17.73,0,0,1,.14-2.18,13.9,13.9,0,0,1,.39-2,4.2,4.2,0,0,1,.86-1.81,2.05,2.05,0,0,1,1.52-.48,2.91,2.91,0,0,1,1.63.41,2.78,2.78,0,0,1,1,1.07,4.43,4.43,0,0,1,.46,1.53,14.53,14.53,0,0,1,.1,1.77c0,.33,0,.7,0,1.09s0,.72,0,.95c.66-.68,1.35-1.37,2.09-2.09a18.68,18.68,0,0,1,2.35-1.93,13.7,13.7,0,0,1,2.63-1.43,7.75,7.75,0,0,1,2.9-.56,6.64,6.64,0,0,1,1.18.11,11,11,0,0,1,1.17.28,11.72,11.72,0,0,1,1.46.47,6.5,6.5,0,0,1,1.46.83,7.5,7.5,0,0,1,1.94,2.2,5.11,5.11,0,0,1,.79,2.69,3.55,3.55,0,0,1-.21,1.14,4.11,4.11,0,0,1-.58,1.12,3.47,3.47,0,0,1-.86.85,1.88,1.88,0,0,1-1.08.33,4.56,4.56,0,0,1-1.46-.3,4.2,4.2,0,0,1-1.42-.79,2.65,2.65,0,0,1-.51-.6,9.06,9.06,0,0,1-.49-.77q-.24-.39-.42-.72a2.58,2.58,0,0,0-.3-.44l-.39,0-.38,0a6.81,6.81,0,0,0-3.41.91,15.75,15.75,0,0,0-3,2.24,25.43,25.43,0,0,0-2.58,2.81c-.78,1-1.47,1.89-2.05,2.69q-.7,2.85-1.56,6.06t-1.71,6.73v.88c0,.71,0,1.42-.07,2.15a5.7,5.7,0,0,1-.42,1.93,3.14,3.14,0,0,1-1.1.9,3.7,3.7,0,0,1-1.67.37,2.62,2.62,0,0,1-2.21-1,3.64,3.64,0,0,1-.74-2.27A4.47,4.47,0,0,1,811.49,899.19Z" transform="translate(-84.47 -88)"/><path d="M496.4,808.5H116a1.5,1.5,0,0,1,0-3H496.4a1.5,1.5,0,1,1,0,3Z" transform="translate(-84.47 -88)"/><path d="M945.19,937H461.46a1.5,1.5,0,0,1,0-3H945.19a1.5,1.5,0,0,1,0,3Z" transform="translate(-84.47 -88)"/></g><g id="_503" data-name="503"><g id="_5" data-name="5"><path class="cls-1" d="M299.62,332.22h0c-21.76-36.06-70.7-51.31-111.06-45.45a421.37,421.37,0,0,1,21.77-53.37c33.33,5,71.56,13,113.68,23.77,18.11,4.8,31.54-8.18,32.42-26.58,1.11-14.93-4.24-22.92-17.66-26.6-19.29-6.79-131.95-26.7-138.89-25.21-30.37,8.67-40.54,48.11-53.86,82.72-10.47,35.21-25.4,63.76,6.62,78.5,14.83,4.66,50.48-4.32,65.19,1,32.44,7.83,46.56,30,44.71,61.2-7.73,77.64-117.13,61.24-129.07-7.21-.95-11.3-26.21-30-40.38-10.75-28.6,46.95,34.8,109,82.65,119.31C282.13,537.71,355.45,418.23,299.62,332.22Z" transform="translate(-84.47 -88)"/><path d="M212.59,511a122,122,0,0,1-37.24-6c-15.91-3.43-33.41-12.33-49.27-25.08-16.44-13.2-29.22-29.14-36-44.87-8-18.7-7.45-36.54,1.71-51.59l.08-.11c5.71-7.74,13.9-10.57,23.06-8,10,2.83,19.33,11.89,20,19.42,6.56,37.39,42.87,58.54,74.24,57.39,29.45-1.08,48.83-19.83,51.85-50.14,1.87-31.64-13.2-52.26-43.57-59.59l-.16-.05c-7.24-2.61-20.28-1.57-32.89-.57s-24.74,2-32.24-.39l-.18-.07c-28.92-13.31-21-37.95-11.76-66.49,1.44-4.46,2.93-9.08,4.33-13.79l0-.12c1.8-4.66,3.57-9.5,5.28-14.18,11.1-30.35,22.57-61.73,49.57-69.44,7.95-1.72,121.35,18.78,139.74,25.21,14.11,3.89,19.88,12.57,18.71,28.15-.49,10.26-4.8,19.12-11.82,24.26-6.22,4.55-14.2,5.85-22.47,3.66C282,248,244.22,240.05,211.19,235A419.91,419.91,0,0,0,190.75,285a129.35,129.35,0,0,1,60.85,7.41c21.82,8.28,38.86,21.78,49.29,39.06,27.55,42.45,25.54,97.79-5,137.7C275,496.49,245.31,511,212.59,511Zm-118.26-126c-8.6,14.17-9.12,31-1.48,48.78,13.16,30.6,50.49,61.21,83.2,68.22l.15,0c45.59,14.65,89.45,1.65,117.32-34.79,29.77-38.91,31.71-92.87,4.84-134.27l0,0c-22.1-36.62-71.84-50.23-109.57-44.74l-2.41.35.77-2.31A424.8,424.8,0,0,1,209,232.73l.49-1,1.08.16c33.39,5,71.68,13,113.83,23.81,7.5,2,14.39.88,19.95-3.18,6.29-4.61,10.15-12.63,10.6-22,1.07-14.31-3.73-21.57-16.56-25.09l-.1,0c-20-7-132-26.45-138.08-25.15-25.43,7.26-36.63,37.91-47.47,67.56-1.71,4.67-3.48,9.5-5.28,14.18-1.41,4.73-2.89,9.34-4.33,13.8-9.12,28.27-16.33,50.6,10.07,62.81,7,2.15,19.19,1.17,31,.23,12.89-1,26.21-2.08,34.07.71C250.18,347.27,266,369,264,402.27c-1.65,16.57-8.08,30.17-18.62,39.4-9.48,8.31-22,13-36.11,13.5-.84,0-1.69,0-2.54,0-32.05,0-68.14-21.94-74.78-60v-.13c-.47-5.59-8.38-14.17-17.86-16.86C108.57,376.67,100.62,376.58,94.33,385.06Z" transform="translate(-84.47 -88)"/><path class="cls-2" d="M292.82,456.82a3,3,0,0,1-2.57-4.54c16.14-26.87,17.39-50.42,15.6-65.44-2-16.32-7.8-26.43-7.86-26.53a3,3,0,0,1,5.17-3.05c.26.44,6.46,11.08,8.61,28.55,2,16,.72,41.1-16.37,69.56A3,3,0,0,1,292.82,456.82Z" transform="translate(-84.47 -88)"/><path d="M213.35,200a1.48,1.48,0,0,1-.7-.17,1.51,1.51,0,0,1-.63-2c.14-.26,13.91-26.27,41.48-52.63C279,120.81,321.75,91.13,381,88a1.5,1.5,0,0,1,.15,3c-58.29,3.07-100.43,32.29-125.51,56.26-27.24,26-40.84,51.68-41,51.94A1.5,1.5,0,0,1,213.35,200Z" transform="translate(-84.47 -88)"/><path d="M242.3,212a1.65,1.65,0,0,1-.57-.11,1.5,1.5,0,0,1-.81-2c.21-.52,21.91-51.88,75.07-58.92a1.5,1.5,0,0,1,.39,3c-51.41,6.8-72.48,56.58-72.69,57.08A1.5,1.5,0,0,1,242.3,212Z" transform="translate(-84.47 -88)"/><path class="cls-2" d="M174.91,290a3,3,0,0,1-2.78-4.13l26-64a3,3,0,0,1,5.56,2.26l-26,64A3,3,0,0,1,174.91,290Z" transform="translate(-84.47 -88)"/><path class="cls-2" d="M348.64,234a2.91,2.91,0,0,1-.87-.13,3,3,0,0,1-2-3.73c1-3.2.8-5.84-.5-8.08-2.25-3.89-8.06-7-17.28-9.14C311.26,209,269.62,201,269.2,201a3,3,0,0,1,1.12-5.9c.42.08,42.19,8.06,59,12,11,2.6,17.94,6.52,21.1,12,2.13,3.69,2.49,8,1.05,12.8A3,3,0,0,1,348.64,234Z" transform="translate(-84.47 -88)"/></g><g id="_3" data-name="3"><path class="cls-2" d="M884.15,391.43a3,3,0,0,1-2.7-1.69c-14.79-30.38-36.93-41.52-37.15-41.63a3,3,0,1,1,2.63-5.39c1,.47,24.16,12,39.92,44.39a3,3,0,0,1-1.39,4A2.93,2.93,0,0,1,884.15,391.43Z" transform="translate(-84.47 -88)"/><polygon points="770.48 255.08 712.93 117.31 654.18 251.47 651.43 250.27 712.99 109.69 773.25 253.92 770.48 255.08"/><ellipse class="cls-3" cx="711.46" cy="110" rx="14.48" ry="14.5"/><path class="cls-4" d="M795.93,214a16,16,0,1,1,16-16A16,16,0,0,1,795.93,214Zm0-29a13,13,0,1,0,13,13A13,13,0,0,0,795.93,185Z" transform="translate(-84.47 -88)"/><path class="cls-5" d="M898.71,408.37c-1.1-32.73-9.67-60.73-25.48-83.21-18.86-26.74-44.72-39.75-76.87-38.68-34.08,1.14-60.85,17.58-79.57,48.89-15.39,26-22.62,56.35-21.48,90.29,1.32,39.59,8.7,72.14,22,96.78,17.55,32.13,44.26,48.4,79.44,48.4,1.3,0,2.61,0,3.92-.07,34.56-1.15,60.42-16,76.88-44C893.3,499.83,900.44,460,898.71,408.37Zm-56.55,77.49c-8.4,24.55-22.51,36.82-43.11,37.5-17.21.58-30.06-6.82-39.28-22.63-10-17.06-15.61-43.77-16.8-79.37-.72-21.41,3.47-40.82,12.44-57.69,10.3-19.31,24.15-29,42.37-29.61l2.07,0c15.36,0,26.84,5.93,35,18.09,9.17,13.62,14.31,35.2,15.28,64.13C851.1,444.23,848.41,467.65,842.16,485.86Z" transform="translate(-84.47 -88)"/><path class="cls-2" d="M756.57,548.76a3,3,0,0,1,4.29-3.69c24.74,14.16,48.71,16.37,71.23,6.58a76.89,76.89,0,0,0,26.47-18.93,3,3,0,0,1,4.64,3.81,82,82,0,0,1-28.72,20.62c-16.74,7.28-43.62,12-76.6-6.87A3,3,0,0,1,756.57,548.76Z" transform="translate(-84.47 -88)"/></g><g id="Gear_wheel" data-name="Gear wheel"><path class="cls-1" d="M679.39,470.24a23,23,0,0,0-23-23H638.48a144.26,144.26,0,0,0-19.91-43.53l8.77-9.82a23.06,23.06,0,0,0-1.82-32.48l-25.16-22.52a22.94,22.94,0,0,0-32.43,1.82l-10.32,11.56a145.37,145.37,0,0,0-23.3-8.19V330.2a23,23,0,0,0-23-23H477.61a23,23,0,0,0-23,23V346a144.34,144.34,0,0,0-30.21,13.33l-11.71-10.48a23,23,0,0,0-32.43,1.82l-22.48,25.19a23,23,0,0,0,1.82,32.48l9.56,8.57a145.47,145.47,0,0,0-12,30.33H342.34a23,23,0,0,0-23,23V504a23,23,0,0,0,23,23h15.9a144.71,144.71,0,0,0,14.26,32.62l-10,11.21a23.54,23.54,0,0,0-6.12,15.5,23.12,23.12,0,0,0,7.67,17.29l25.15,22.51a22.94,22.94,0,0,0,32.43-1.82l8.69-9.73a144.22,144.22,0,0,0,29.87,11.67c-3.25,19.21,5.73,26.21,16.65,26.21h46.37c10.61,0,18.59-3,16.65-26.66v-.79a144.21,144.21,0,0,0,34.81-15.75l13.22,11.83a22.94,22.94,0,0,0,32.43-1.82l22.48-25.19A23.06,23.06,0,0,0,641,561.63L628.3,550.28A145.92,145.92,0,0,0,637.46,527h19a23,23,0,0,0,23-23ZM590.26,485a92.1,92.1,0,1,1-92.1-92.25A92.29,92.29,0,0,1,590.26,485Z" transform="translate(-84.47 -88)"/><path d="M523.21,654H476.84c-6.13,0-11.1-2-14.39-5.94-3.93-4.66-5.26-11.61-3.95-20.68a145.81,145.81,0,0,1-27.84-10.89l-7.91,8.86a24.43,24.43,0,0,1-34.55,1.94l-25.15-22.52a24.57,24.57,0,0,1-8.17-18.4,25,25,0,0,1,6.5-16.5l9.27-10.39a147,147,0,0,1-13.53-30.94H342.34A24.52,24.52,0,0,1,317.87,504V470.24a24.51,24.51,0,0,1,24.47-24.5h13.74a146.3,146.3,0,0,1,11.24-28.49l-8.69-7.79a24.56,24.56,0,0,1-1.94-34.6l22.48-25.19a24.46,24.46,0,0,1,34.55-1.94l10.9,9.75a146.8,146.8,0,0,1,28.52-12.58V330.2a24.52,24.52,0,0,1,24.47-24.51h33.73a24.52,24.52,0,0,1,24.47,24.51v12.72a146.2,146.2,0,0,1,21.41,7.54l9.59-10.75a24.44,24.44,0,0,1,34.55-1.94l25.16,22.52a24.58,24.58,0,0,1,1.94,34.6l-8,8.95a146,146,0,0,1,19.15,41.9h16.81a24.51,24.51,0,0,1,24.46,24.5V504a24.51,24.51,0,0,1-24.46,24.5H638.57a147.62,147.62,0,0,1-8.42,21.38L642,560.52a24.53,24.53,0,0,1,1.94,34.59l-22.48,25.2a24.45,24.45,0,0,1-34.56,1.94L574.5,611.17a146.53,146.53,0,0,1-33.11,15c.91,11.65-.5,19.07-4.42,23.33C533.31,653.46,528,654,523.21,654ZM430,612.75l1,.54a143.44,143.44,0,0,0,29.57,11.55l1.32.35-.23,1.35c-1.49,8.81-.46,15.4,3.07,19.58s8.46,4.88,12.1,4.88h46.37c5.89,0,9.23-1,11.56-3.55,3.31-3.59,4.49-10.62,3.6-21.48v-2l1.07-.32A143.7,143.7,0,0,0,573.88,608l1-.6L588.89,620a21.44,21.44,0,0,0,30.31-1.7l22.48-25.19a21.56,21.56,0,0,0-1.7-30.37l-13.53-12.11.51-1a144.79,144.79,0,0,0,9.06-23l.32-1.07h20.09A21.51,21.51,0,0,0,677.89,504v-33.8a21.51,21.51,0,0,0-21.46-21.5h-19.1l-.3-1.11a143,143,0,0,0-19.7-43.08l-.65-1,9.54-10.69a21.57,21.57,0,0,0-1.7-30.37L599.36,340a21.44,21.44,0,0,0-30.31,1.7l-11,12.38-1-.45a144.59,144.59,0,0,0-23-8.11l-1.13-.29v-15a21.51,21.51,0,0,0-21.47-21.51H477.61a21.51,21.51,0,0,0-21.47,21.51v16.9l-1.06.33a143.08,143.08,0,0,0-29.89,13.19l-.95.55L411.72,350a21.47,21.47,0,0,0-30.31,1.71l-22.48,25.19a21.56,21.56,0,0,0,1.7,30.37l10.44,9.34-.55,1a144.05,144.05,0,0,0-11.85,30l-.3,1.11h-16a21.51,21.51,0,0,0-21.47,21.5V504a21.51,21.51,0,0,0,21.47,21.51h17l.32,1.07a143.32,143.32,0,0,0,14.11,32.29l.56.94-10.74,12a22.07,22.07,0,0,0-5.73,14.51,21.6,21.6,0,0,0,7.17,16.16l25.15,22.52a21.45,21.45,0,0,0,30.31-1.71Zm68.18-34A93.75,93.75,0,1,1,591.76,485,93.78,93.78,0,0,1,498.16,578.78Zm0-184.5A90.75,90.75,0,1,0,588.76,485,90.78,90.78,0,0,0,498.16,394.28Z" transform="translate(-84.47 -88)"/><path d="M448.25,285.91a151.9,151.9,0,0,1,30-8.49A158.09,158.09,0,0,1,509,275.14a161.77,161.77,0,0,1,30.86,3.66,158.92,158.92,0,0,1,29.48,9.44,152.54,152.54,0,0,1,27.13,15.18c1,.74,2.09,1.49,3.12,2.26a1.51,1.51,0,0,0,2-.54,1.52,1.52,0,0,0-.54-2.05,151.39,151.39,0,0,0-27.06-16,162.1,162.1,0,0,0-29.74-10.33A165.68,165.68,0,0,0,513,272.28a162.33,162.33,0,0,0-31.46,1.6,153.13,153.13,0,0,0-30.46,7.75q-1.82.67-3.6,1.38a1.56,1.56,0,0,0-1.05,1.85,1.52,1.52,0,0,0,1.85,1.05Z" transform="translate(-84.47 -88)"/><path d="M365.76,654.76a154.8,154.8,0,0,0,22,14.88A161.76,161.76,0,0,0,463.52,690a154.24,154.24,0,0,0,26.38-1.83c1.08-.16,2.15-.34,3.23-.54a1.51,1.51,0,0,0,1.05-1.84,1.55,1.55,0,0,0-1.85-1A149.94,149.94,0,0,1,466.69,687,155.43,155.43,0,0,1,441,685a162,162,0,0,1-25.21-6.23,156,156,0,0,1-23.68-10.16,152,152,0,0,1-21.68-13.93c-.86-.67-1.72-1.35-2.57-2a1.55,1.55,0,0,0-2.12,0,1.51,1.51,0,0,0,0,2.12Z" transform="translate(-84.47 -88)"/><path d="M414.59,267a99.68,99.68,0,0,1,31-10.37c3-.48,6-.81,9-1a1.5,1.5,0,1,0,0-3,102.29,102.29,0,0,0-32.78,7.67c-3,1.25-5.88,2.61-8.72,4.12a1.5,1.5,0,1,0,1.52,2.59Z" transform="translate(-84.47 -88)"/><ellipse class="cls-3" cx="413.91" cy="396" rx="14.48" ry="14.5"/><path class="cls-4" d="M498.37,500a16,16,0,1,1,16-16A16,16,0,0,1,498.37,500Zm0-29a13,13,0,1,0,13,13A13,13,0,0,0,498.37,471Z" transform="translate(-84.47 -88)"/><path class="cls-2" d="M594.22,515a3.22,3.22,0,0,1-.81-.11,3,3,0,0,1-2.08-3.7c8-28.44,3.45-49.19-1.74-61.59-5.63-13.44-13.25-20.28-13.33-20.35a3,3,0,0,1,4-4.51c1.37,1.2,33.19,29.92,16.89,88.07A3,3,0,0,1,594.22,515Z" transform="translate(-84.47 -88)"/><path class="cls-2" d="M617.22,610.34a3,3,0,0,1-2.21-5c.13-.15,13.23-14.41,20.58-22.33a5.92,5.92,0,0,0,1.79-4.5c-.27-4.27-4.91-8.3-5-8.34a3,3,0,1,1,3.86-4.58c.68.57,6.66,5.8,7.07,12.55a11.89,11.89,0,0,1-3.37,8.95c-7.34,7.91-20.43,22.16-20.56,22.31A3,3,0,0,1,617.22,610.34Z" transform="translate(-84.47 -88)"/><path class="cls-2" d="M670.1,498a3,3,0,0,1-3-3V480.69a2.87,2.87,0,0,1,.18-1,92.16,92.16,0,0,0-.18-10.86c-.12-2.63-.87-4.46-2.29-5.59-2.58-2.05-6.69-1.34-6.73-1.33A3,3,0,0,1,657,456c.69-.13,6.86-1.18,11.53,2.5,2.84,2.24,4.39,5.61,4.6,10,.38,8,.32,11.17,0,12.67V495A3,3,0,0,1,670.1,498Zm-.16-20.3Zm0,0Zm.11,0h0Zm0,0Zm0,0h0Zm0,0Zm0,0h0Zm0,0Zm0,0Zm0,0Zm0,0Zm0,0Z" transform="translate(-84.47 -88)"/></g></g><g id="hand"><g id="hand-2" data-name="hand"><path class="cls-6" d="M142,805C109,763,107,657,155.86,642.89l-2.33-21.78,83.73-19.57L241.8,626s34.47,10.8,54.92,41c31.79,47,37.06,130.55,34.94,138Z" transform="translate(-84.47 -88)"/><path class="cls-7" d="M237.26,601.54,241.8,626s34.47,10.8,54.92,41c31.79,47,37.06,130.55,34.94,138H142C109,763,107,657,155.86,642.89l-2.33-21.78,83.73-19.57m0-3a2.63,2.63,0,0,0-.68.08l-83.74,19.57a3,3,0,0,0-2.3,3.24l2.08,19.35c-14.31,5.12-25.17,18.13-31.52,37.8-6.11,18.94-7.64,43.69-4.2,67.9,3.51,24.75,11.58,46.19,22.7,60.37A3,3,0,0,0,142,808h189.7a3,3,0,0,0,2.89-2.18c1.34-4.72.18-28.7-4.69-55.55-4.49-24.73-13.45-59.54-30.66-84.95-18.4-27.18-47.35-38.93-54.77-41.59L240.21,601a3,3,0,0,0-1.31-2,2.92,2.92,0,0,0-1.64-.49Z" transform="translate(-84.47 -88)"/><path class="cls-8" d="M153.91,622.53l83.35-21L241.8,626c-22,20-60.9,27-85.51,16.93Z" transform="translate(-84.47 -88)"/><path class="cls-9" d="M165.85,771.2a7.67,7.67,0,1,1-8.77-6.39A7.67,7.67,0,0,1,165.85,771.2Zm79.58-113.73a7.68,7.68,0,1,0,8.77,6.39A7.68,7.68,0,0,0,245.43,657.47ZM299.23,770a7.68,7.68,0,1,0,8.77,6.39A7.67,7.67,0,0,0,299.23,770Zm-74.89-51a7.68,7.68,0,1,0,8.78,6.39A7.68,7.68,0,0,0,224.34,719Zm-76-37.8a7.68,7.68,0,1,0,8.77,6.39A7.69,7.69,0,0,0,148.32,681.24Z" transform="translate(-84.47 -88)"/><path class="cls-10" d="M236.78,602.7s64.93-70.7,31-108.7c0,0-12,8-23.6,10.6L228.34,443s-20.18-7-31.71,15.77c0,0-19.86-6.72-33.45,22.8,0,0-26.46,9.88-31.78,57.12-4.47,39.77,22.69,82,22.69,82Z" transform="translate(-84.47 -88)"/><path class="cls-7" d="M153.15,622.88l-.75-1.16c-1.12-1.75-27.49-43.25-23-83.27,4.94-43.9,27.64-56.34,32.27-58.44,11.84-25,28.56-24.45,33.88-23.53C207.87,434.1,228.78,441,229,441.1l1,.35,15.6,60.73c10.51-2.87,20.93-9.77,21-9.84l1.45-1,1.16,1.3c14.48,16.22,13.62,40.72-2.49,70.87a225.17,225.17,0,0,1-28.51,40.51l-.43.47Zm38.36-162.82c-6.2,0-17.61,3-26.52,22.33l-.34.75-.77.29c-.25.09-25.39,10.19-30.49,55.47-3.93,35,17.41,72.44,21.66,79.48l80.68-17.5c5.39-6.06,60.13-69.32,31.64-104.26-3.63,2.25-13.22,7.8-22.77,9.94l-1.89.42-16-62.38c-4-1-19-3.25-28.28,15.06l-.78,1.55-1.64-.56A15.35,15.35,0,0,0,191.51,460.06Z" transform="translate(-84.47 -88)"/><line class="cls-6" x1="163.1" y1="436.27" x2="159.63" y2="415.56"/><path d="M246.22,524.83a1.43,1.43,0,0,0,1.58.88A1.46,1.46,0,0,0,249,524l-3.47-20.71a1.45,1.45,0,0,0-2.87.48l3.47,20.71A1.08,1.08,0,0,0,246.22,524.83Z" transform="translate(-84.47 -88)"/><path d="M195.45,520.76a82.32,82.32,0,0,0,2.44,8,1.56,1.56,0,0,0,2,1.12,1.8,1.8,0,0,0,.69-2.32c-.12-.32-11.89-32.49-3.29-67.71a2.15,2.15,0,0,0-1-2.38,1.28,1.28,0,0,0-1.84,1C188,484.66,192.31,508.73,195.45,520.76Z" transform="translate(-84.47 -88)"/><path d="M162.92,543.46a83.4,83.4,0,0,0,2.44,8,1.56,1.56,0,0,0,2,1.12,1.81,1.81,0,0,0,.69-2.32c-.12-.32-11.89-32.5-3.29-67.72a2.17,2.17,0,0,0-1-2.38,1.29,1.29,0,0,0-1.84,1C155.49,507.36,159.78,531.43,162.92,543.46Z" transform="translate(-84.47 -88)"/></g><path class="cls-2" d="M321.68,794a3,3,0,0,1-3-2.85c-3.9-80.08-35.94-119.85-36.26-120.24a3,3,0,1,1,4.63-3.82c1.37,1.67,33.63,41.71,37.63,123.76a3,3,0,0,1-2.86,3.15Z" transform="translate(-84.47 -88)"/><path d="M109.52,776a1.49,1.49,0,0,1-1.35-.83c-22-44-7.22-89.69-7.07-90.14A1.5,1.5,0,0,1,104,686c-.15.45-14.51,44.95,6.91,87.86a1.49,1.49,0,0,1-.68,2A1.43,1.43,0,0,1,109.52,776Z" transform="translate(-84.47 -88)"/><path class="cls-2" d="M208.86,527a3,3,0,0,1-2.72-1.73c-15.31-32.71-3.63-68.7-3.12-70.22a3,3,0,1,1,5.69,1.9c-.15.46-11.39,35.33,2.86,65.78a3,3,0,0,1-1.44,4A3,3,0,0,1,208.86,527Z" transform="translate(-84.47 -88)"/><path class="cls-2" d="M172.91,544a3,3,0,0,1-2.89-2.22c-13.22-48.89,1.88-68.81,2.53-69.64a3,3,0,0,1,4.73,3.7c-.2.27-13.78,18.86-1.47,64.38a3,3,0,0,1-2.11,3.68A3.11,3.11,0,0,1,172.91,544Z" transform="translate(-84.47 -88)"/></g><path d="M856.08,274.19a150.91,150.91,0,0,1,22.27,21.86,157.93,157.93,0,0,1,17.23,25.54,162.22,162.22,0,0,1,12.14,28.61,159,159,0,0,1,6.43,30.27,152.38,152.38,0,0,1,.28,31.09c-.12,1.28-.25,2.55-.41,3.83a1.5,1.5,0,0,0,3,0A152.35,152.35,0,0,0,917.5,384a163.65,163.65,0,0,0-5.79-31A167.12,167.12,0,0,0,900,323.61a161.88,161.88,0,0,0-17-26.51,151.64,151.64,0,0,0-21.85-22.6c-1-.83-2-1.64-3-2.44a1.55,1.55,0,0,0-2.12,0,1.5,1.5,0,0,0,0,2.12Z" transform="translate(-84.47 -88)"/></g></svg>