<svg id="illustration" xmlns="http://www.w3.org/2000/svg" viewBox="0 0 1000 1000"><defs><style>.cls-1{fill:#fff;}.cls-2{fill:#d9cfff;}.cls-3{fill:#ffad00;}.cls-4{fill:#e89d00;}.cls-5{fill:#6c32ad;}.cls-6{fill:#1d1f1c;}.cls-7{fill:#ffcdb2;}.cls-8{fill:#1d1e1b;}</style></defs><path class="cls-1" d="M664.94,805H282.13a52.06,52.06,0,0,1-52.06-52.13l.39-289.6a52,52,0,0,1,27-45.57L443.14,315.86a52.06,52.06,0,0,1,49-.56L688.92,417.43A52.06,52.06,0,0,1,717,463.63V752.94A52.06,52.06,0,0,1,664.94,805Z"/><path d="M468.18,309.45a51.94,51.94,0,0,1,24,5.85L688.92,417.43A52.06,52.06,0,0,1,717,463.63V752.94A52.06,52.06,0,0,1,664.94,805H282.13a52.06,52.06,0,0,1-52.06-52.13l.39-289.6a52,52,0,0,1,27-45.57L443.14,315.86a52.07,52.07,0,0,1,25-6.41m0-3v0h0a55.19,55.19,0,0,0-26.48,6.78L256,415.07a55.07,55.07,0,0,0-28.58,48.2l-.39,289.6A55.05,55.05,0,0,0,282.13,808H664.94A55.12,55.12,0,0,0,720,752.94V463.63a54.87,54.87,0,0,0-29.69-48.86L493.54,312.64a55.26,55.26,0,0,0-25.36-6.19Z"/><polygon class="cls-2" points="676 411 575.97 356 369.73 356 273 409.06 273 631 676 631 676 411"/><rect class="cls-1" x="294" y="230" width="365" height="468" rx="59.41"/><path d="M599.59,230A59.41,59.41,0,0,1,659,289.41V638.59A59.41,59.41,0,0,1,599.59,698H353.41A59.41,59.41,0,0,1,294,638.59V289.41A59.41,59.41,0,0,1,353.41,230H599.59m0-3H353.41A62.48,62.48,0,0,0,291,289.41V638.59A62.48,62.48,0,0,0,353.41,701H599.59A62.48,62.48,0,0,0,662,638.59V289.41A62.48,62.48,0,0,0,599.59,227Z"/><path class="cls-3" d="M473.5,629.5,230.88,456.77a51.92,51.92,0,0,0-.42,6.5l-.39,289.6A52.06,52.06,0,0,0,282.13,805H664.94A52.06,52.06,0,0,0,717,752.94V463.63a52.71,52.71,0,0,0-.49-7.13h0Z"/><path d="M716.51,456.5a52.71,52.71,0,0,1,.49,7.13V752.94A52.06,52.06,0,0,1,664.94,805H282.13a52.06,52.06,0,0,1-52.06-52.13l.39-289.6a51.92,51.92,0,0,1,.42-6.5L473.5,629.5l243-173m2.29-5.32-4,2.88L473.5,625.82,232.62,454.33l-4.08-2.91-.64,5a55.4,55.4,0,0,0-.44,6.88l-.39,289.6A55.05,55.05,0,0,0,282.13,808H664.94A55.12,55.12,0,0,0,720,752.94V463.63a54.38,54.38,0,0,0-.52-7.54l-.68-4.91Z"/><path class="cls-4" d="M664.94,805A52.06,52.06,0,0,0,717,752.94V581.65L652,591l-60,13s9,64,56,94c0,0-42.23,53-43,107Z"/><rect x="210.88" y="681.04" width="372.86" height="3" transform="translate(-322.51 357.62) rotate(-35.5)"/><rect x="603.8" y="560.4" width="3" height="322.22" transform="translate(-333.44 797.11) rotate(-54.61)"/><g id="e-mail"><path class="cls-2" d="M542.35,390.6a26.1,26.1,0,0,0-19.94-30.27c-6.69-1.52-13.47-2.7-18.47-2.7A85.59,85.59,0,0,0,441.48,384a88.1,88.1,0,0,0-24.27,60.36c0,31.95,21.37,48.67,42.47,48.67,18.59,0,33.63-7.29,45.68-22.19A30.21,30.21,0,0,0,512.58,484c5.55,5.83,13.45,9,22.25,9,33,0,66.49-29.92,66.49-87.09,0-61.59-43.29-104.6-105.27-104.6-37.4,0-71.21,14.62-95.2,41.17-22.87,25.29-35.46,59.39-35.46,96,0,32.93,11.24,61.32,32.51,82.11,20,19.58,47.34,30.37,76.89,30.37,25.16,0,44.78-4.42,63.6-14.34l4.21-2.22-9.36-25.15-5.52,3.09c-13,7.31-30.49,11.33-49.16,11.33-49.51,0-82.78-35.06-82.78-87.23,0-62.88,41-108.52,97.53-108.52,47.88,0,77.62,30.66,77.62,80,0,21.61-6.07,40-16.65,50.35-4.73,4.63-9.94,7.16-14.83,7-2.69-.08-3.85-1.11-4.55-2-1.95-2.44-4.61-9.58-.59-30ZM500,386.66a9.2,9.2,0,0,1,8.94,10.92l-4.44,23.87C501,441,484.28,463.67,467.91,463.67c-15,0-17.22-13-17.22-20.68,0-30.54,22.5-56.33,49.14-56.33Z"/><path d="M496.05,301.34c62,0,105.27,43,105.27,104.6,0,57.17-33.45,87.08-66.49,87.08-8.8,0-16.7-3.21-22.25-9a30.21,30.21,0,0,1-7.22-13.14C493.31,485.75,478.27,493,459.69,493c-21.11,0-42.48-16.71-42.48-48.66A88.1,88.1,0,0,1,441.48,384a85.59,85.59,0,0,1,62.46-26.37c5,0,11.78,1.18,18.47,2.7a26.1,26.1,0,0,1,19.94,30.27l-8,42.75c-4,20.44-1.36,27.58.59,30,.7.89,1.86,1.92,4.55,2h.33c4.8,0,9.88-2.52,14.5-7.05,10.58-10.39,16.65-28.74,16.65-50.35,0-49.36-29.74-80-77.62-80-56.51,0-97.53,45.64-97.53,108.52,0,52.17,33.27,87.23,82.78,87.23,18.67,0,36.13-4,49.16-11.33l5.52-3.09,9.36,25.15-4.21,2.22C519.57,546.58,500,551,474.79,551c-29.55,0-56.85-10.79-76.89-30.37-21.27-20.79-32.51-49.18-32.51-82.11,0-36.62,12.59-70.72,35.46-96,24-26.55,57.8-41.17,95.2-41.17M467.91,463.67c16.37,0,33.08-22.7,36.54-42.22l4.44-23.87A9.2,9.2,0,0,0,500,386.66h-.12c-26.64,0-49.14,25.79-49.14,56.33,0,7.72,2.23,20.68,17.22,20.68m28.14-165.33c-38.26,0-72.86,15-97.43,42.15-23.36,25.86-36.23,60.67-36.23,98,0,33.75,11.56,62.89,33.42,84.25,20.6,20.14,48.65,31.23,79,31.23,25.67,0,45.72-4.53,65-14.69l4.21-2.22,2.33-1.23-.92-2.47-9.36-25.14L534.83,505l-3.05,1.72-5.52,3.09c-12.6,7.05-29.54,10.94-47.7,10.94-47.72,0-79.78-33.85-79.78-84.23,0-61.15,39.76-105.52,94.53-105.52,46,0,74.62,29.51,74.62,77,0,20.81-5.74,38.38-15.75,48.2-4.07,4-8.47,6.2-12.4,6.2h-.26c-1.62,0-2-.54-2.28-.87-1-1.28-4-7,0-27.58l8-42.77a29,29,0,0,0-22.22-33.75c-8.09-1.83-14.52-2.77-19.14-2.77a88.55,88.55,0,0,0-64.62,27.3,91.09,91.09,0,0,0-25.11,62.43c0,33.92,22.87,51.66,45.48,51.66,17.88,0,32.51-6.32,44.56-19.31a31.67,31.67,0,0,0,6.16,9.34c6.12,6.43,14.79,10,24.42,10,34.53,0,69.49-30.94,69.49-90.08a117.44,117.44,0,0,0-7.94-43.43,98.61,98.61,0,0,0-56.64-56.28,119.39,119.39,0,0,0-43.69-7.89ZM467.91,460.67c-9.44,0-14.22-5.95-14.22-17.68,0-28.91,21.13-53.33,46.14-53.33H500a6,6,0,0,1,4.64,2.21,6.26,6.26,0,0,1,1.35,5.16L501.5,420.9c-3.2,18-18.89,39.77-33.59,39.77Z"/></g><circle class="cls-1" cx="614.09" cy="536.02" r="91.04"/><path d="M614.18,445a91.05,91.05,0,0,1,18.28,180.23A92,92,0,0,1,614,627.08,91.06,91.06,0,0,1,614.18,445m0-3h0a94.07,94.07,0,1,0,59,20.86,94.37,94.37,0,0,0-59-20.86Z"/><rect x="700.36" y="384.5" width="38.28" height="3" transform="translate(2 775.71) rotate(-56.72)"/><rect x="739.08" y="417" width="35.85" height="3" transform="translate(-103.33 328.95) rotate(-22.99)"/><path d="M858.45,911l-2.5-1.66c28.59-43.26,18.81-87.62,18.71-88.06l2.92-.68C877.68,821.06,887.77,866.62,858.45,911Z"/><path class="cls-1" d="M255.5,712a3.5,3.5,0,0,1-3.5-3.5v-151a3.5,3.5,0,0,1,7,0v151A3.5,3.5,0,0,1,255.5,712Z"/><path class="cls-5" d="M603.79,590.64h-.06a12.48,12.48,0,0,1-9.53-4.49l-37.29-44.64a12.5,12.5,0,1,1,19.18-16l27.8,33.27L652,502.39a12.5,12.5,0,1,1,19,16.22L613.3,586.25A12.49,12.49,0,0,1,603.79,590.64Z"/><path class="cls-6" d="M603.79,592.14h-.07a14,14,0,0,1-10.67-5l-37.29-44.64a14,14,0,0,1,21.48-18l26.66,31.92,47-55a14,14,0,1,1,21.3,18.18l-57.71,67.64A14,14,0,0,1,603.79,592.14ZM566.48,522.5a11,11,0,0,0-8.42,18l37.29,44.64a11,11,0,0,0,8.38,3.95l.06,1.5v-1.5a11,11,0,0,0,8.37-3.86l57.71-67.64a11,11,0,0,0-16.74-14.28l-49.25,57.73-28.94-34.64a10.93,10.93,0,0,0-7.46-3.91C567.15,522.51,566.81,522.5,566.48,522.5Z"/><g id="hand"><path class="cls-2" d="M844.07,875.49c23-30.25-2.5-175.61-73.14-167.83l-4.65-22-88.1,7.61L681,710.69s-28.31,2.58-38.7,38.64c-16.13,56-1.7,118,2.75,124.62Z"/><path d="M844.81,877l-200.6-1.55-.44-.65c-4.63-6.89-19.21-69.35-2.94-125.88,9.12-31.67,32.17-38.25,38.42-39.46l-2.8-17.57,91-7.87,4.64,22c22.69-1.91,42.78,11.42,58.19,38.62,25.31,44.65,29.88,112.07,15,131.73Zm-198.92-4.53L843.31,874c13.56-19.37,8.49-85.33-15.61-127.84-10.51-18.56-28.88-40-56.6-37l-1.35.15-4.66-22.07-85.17,7.36L682.71,712l-1.6.14c-1.12.11-27.44,3-37.39,37.56-8.57,29.78-8.16,60.11-6.3,80.3C639.42,851.8,643.7,868.13,645.89,872.46Z"/><path class="cls-5" d="M765,687l-86.82,6.23L683,712c19.79,12.29,61.83,11.64,87-3Z"/><ellipse class="cls-5" cx="809.8" cy="835.05" rx="7.9" ry="7.89" transform="translate(-36.78 1632.8) rotate(-89.18)"/><ellipse class="cls-5" cx="678.89" cy="753.06" rx="7.9" ry="7.89" transform="translate(-83.83 1421.08) rotate(-89.18)"/><ellipse class="cls-5" cx="714.74" cy="829.58" rx="7.9" ry="7.89" transform="translate(-125.01 1532.35) rotate(-89.18)"/><ellipse class="cls-5" cx="791.76" cy="750.55" rx="7.9" ry="7.89" transform="translate(29.93 1531.47) rotate(-89.18)"/><path class="cls-7" d="M679,694.22s-106.73-61-38.76-94.53l-3.83-64.32s28-23.8,47.51,24.83c0,0,23.74-3.27,39.4,12.39,0,0,17.8-10.28,38.33,25.37s3.92,87.38,3.92,87.38Z"/><path class="cls-8" d="M678.59,696.27,678,696c-2.59-1.48-63.38-36.58-62.4-69.18.34-11.25,7.93-20.76,22.55-28.28l-3.81-64,.76-.65c.43-.36,10.5-8.75,23.18-5.6,10.75,2.66,19.8,12.69,26.91,29.8,5.57-.44,24.61-.87,38.55,12.18a19.11,19.11,0,0,1,11.55-.26c9.84,2.65,19.29,11.73,28.09,27,20.73,36,4.77,86.83,4.08,89l-.4,1.24Zm-40.1-159.95,3.84,64.57-1.19.59c-14,6.9-21.21,15.45-21.51,25.41-.87,28.67,53.74,61.68,59.84,65.27l84.58-8.68c2.31-8,14-53.07-4.11-84.52-19.15-33.25-35-25-35.62-24.63l-1.31.74L721.92,574c-14.74-14.75-37.48-11.86-37.71-11.83l-1.55.21-.58-1.45c-6.68-16.68-15-26.37-24.69-28.8C648.52,529.92,640.87,534.62,638.49,536.32Z"/><line class="cls-3" x1="643.52" y1="620.98" x2="640.31" y2="599.63"/><path d="M645,621.1a1.5,1.5,0,0,1-3,.1l-3.21-21.35a1.5,1.5,0,1,1,3-.45L645,620.76A1.93,1.93,0,0,1,645,621.1Z"/><path d="M696.13,610.17a56.91,56.91,0,0,1-.89,6.77,1.5,1.5,0,0,1-2.93-.62c.06-.28,5.6-27.69-10-55a1.5,1.5,0,0,1,2.6-1.49A88.65,88.65,0,0,1,696.13,610.17Z"/><path d="M734.25,617.62c-.25,3.22-.58,5.28-.63,5.59a1.5,1.5,0,1,1-3-.49c.05-.31,4.94-31-9.53-50.19a1.5,1.5,0,1,1,2.39-1.8C735.08,586.08,735,607.55,734.25,617.62Z"/><path class="cls-1" d="M765.81,640.55c-1,12.79-5.57,20.43-5.77,20.75a1.5,1.5,0,1,1-2.56-1.55c.21-.35,18.25-31.37-12.59-72.23a1.5,1.5,0,1,1,2.39-1.81c16.75,22.2,19.36,41.51,18.6,53.8C765.86,639.86,765.83,640.21,765.81,640.55Z"/><path class="cls-1" d="M726.24,618.58c-.11,1.38-.2,2.26-.23,2.48a1.5,1.5,0,1,1-3-.33c.05-.41,4.36-40.46-11.62-49.41a1.5,1.5,0,0,1,1.47-2.62C728.29,577.34,727,609.29,726.24,618.58Z"/><path class="cls-1" d="M686.81,608.71a1.49,1.49,0,0,1-3-.05c0-.5-2.63-50.91-23.68-66.09a1.5,1.5,0,1,1,1.75-2.43c22.22,16,24.82,66.25,24.92,68.38A1.15,1.15,0,0,1,686.81,608.71Z"/></g><path d="M294.46,834.25c-34.41,0-60.09-9.3-76.48-27.74-27.52-30.94-18.54-77.34-18.45-77.81l2.94.6c-.09.45-8.76,45.43,17.76,75.24,18.43,20.71,49.26,29.44,91.65,26l.24,3Q302.94,834.26,294.46,834.25Z"/><rect x="239" y="334" width="68.01" height="3" transform="translate(-66.47 603.54) rotate(-89.16)"/><path class="cls-1" d="M372.5,452a3.5,3.5,0,0,1-3.5-3.39c-2-61.77,28.68-94.2,30-95.55a3.5,3.5,0,0,1,5,4.87h0c-.3.31-29.94,31.81-28,90.46a3.51,3.51,0,0,1-3.39,3.61Z"/><path class="cls-1" d="M434.5,475a3.46,3.46,0,0,1-2.63-1.2c-15.05-17.19-8.06-45-7.76-46.18a3.5,3.5,0,0,1,6.78,1.75h0c-.07.26-6.35,25.43,6.24,39.83a3.5,3.5,0,0,1-2.63,5.8Z"/><g id="stars"><path class="cls-3" d="M749.66,246.45l-.2,6.5a5.43,5.43,0,0,0,.93,3.2l3.63,5.39a5.42,5.42,0,0,1-3,8.23l-6.24,1.81a5.41,5.41,0,0,0-2.75,1.87l-4,5.12a5.41,5.41,0,0,1-8.74-.3l-3.66-5.37a5.46,5.46,0,0,0-2.62-2l-6.1-2.23a5.42,5.42,0,0,1-2.43-8.41l4-5.14a5.39,5.39,0,0,0,1.13-3.13l.23-6.49a5.4,5.4,0,0,1,7.23-4.91l6.12,2.21a5.46,5.46,0,0,0,3.32.11l6.24-1.79A5.42,5.42,0,0,1,749.66,246.45Z"/><path d="M725.24,240.22a5.4,5.4,0,0,1,1.84.32l6.12,2.21a5.39,5.39,0,0,0,3.32.11l6.24-1.79a5.6,5.6,0,0,1,1.5-.21,5.42,5.42,0,0,1,5.4,5.59l-.2,6.5a5.43,5.43,0,0,0,.93,3.2l3.63,5.39a5.42,5.42,0,0,1-3,8.23l-6.24,1.81a5.41,5.41,0,0,0-2.75,1.87l-4,5.12a5.4,5.4,0,0,1-8.74-.3l-3.66-5.37a5.46,5.46,0,0,0-2.62-2l-6.1-2.23a5.42,5.42,0,0,1-2.43-8.41l4-5.14a5.39,5.39,0,0,0,1.13-3.13l.23-6.49a5.4,5.4,0,0,1,5.39-5.23m0-3a8.37,8.37,0,0,0-8.39,8.12l-.23,6.5a2.39,2.39,0,0,1-.5,1.4l-4,5.13a8.43,8.43,0,0,0,3.78,13.07l6.1,2.23a2.39,2.39,0,0,1,1.17.91l3.66,5.38a8.4,8.4,0,0,0,13.58.45l4-5.12a2.41,2.41,0,0,1,1.22-.83l6.24-1.81a8.42,8.42,0,0,0,4.62-12.78l-3.63-5.4a2.42,2.42,0,0,1-.42-1.43l.2-6.5a8.31,8.31,0,0,0-2.37-6.11,8.37,8.37,0,0,0-8.36-2.24L735.69,240a2.11,2.11,0,0,1-.66.1,2.33,2.33,0,0,1-.82-.15l-6.11-2.2a8.48,8.48,0,0,0-2.86-.5Z"/><path class="cls-3" d="M185.57,372.51l-.19,6.5a5.34,5.34,0,0,0,.92,3.19l3.63,5.4a5.42,5.42,0,0,1-3,8.23l-6.23,1.81A5.48,5.48,0,0,0,178,399.5l-4,5.12a5.41,5.41,0,0,1-8.74-.29L161.58,399A5.41,5.41,0,0,0,159,396.9l-6.1-2.22a5.43,5.43,0,0,1-2.43-8.42l4-5.13a5.39,5.39,0,0,0,1.13-3.13l.23-6.5a5.4,5.4,0,0,1,7.24-4.9l6.11,2.2a5.31,5.31,0,0,0,3.32.11l6.24-1.78A5.41,5.41,0,0,1,185.57,372.51Z"/><path d="M161.16,366.27a5.51,5.51,0,0,1,1.84.33l6.11,2.2a5.39,5.39,0,0,0,3.32.11l6.24-1.78a5.29,5.29,0,0,1,1.5-.22,5.42,5.42,0,0,1,5.4,5.6l-.19,6.5a5.34,5.34,0,0,0,.92,3.19l3.63,5.4a5.42,5.42,0,0,1-3,8.23l-6.23,1.81A5.48,5.48,0,0,0,178,399.5l-4,5.12a5.41,5.41,0,0,1-8.74-.29L161.58,399A5.41,5.41,0,0,0,159,396.9l-6.1-2.22a5.43,5.43,0,0,1-2.43-8.42l4-5.13a5.39,5.39,0,0,0,1.13-3.13l.23-6.5a5.41,5.41,0,0,1,5.4-5.23m0-3a8.38,8.38,0,0,0-8.4,8.13l-.23,6.5a2.34,2.34,0,0,1-.5,1.39l-4,5.14a8.42,8.42,0,0,0,3.77,13.06l6.1,2.23a2.37,2.37,0,0,1,1.17.92l3.66,5.37a8.4,8.4,0,0,0,13.58.46l4-5.12a2.39,2.39,0,0,1,1.22-.83l6.24-1.81a8.43,8.43,0,0,0,4.62-12.79l-3.63-5.39a2.44,2.44,0,0,1-.42-1.43l.2-6.5a8.38,8.38,0,0,0-2.36-6.12,8.5,8.5,0,0,0-6-2.57,8.34,8.34,0,0,0-2.32.33L171.6,366a2.39,2.39,0,0,1-.66.09,2.46,2.46,0,0,1-.81-.14L164,363.77a8.43,8.43,0,0,0-2.85-.5Z"/><path class="cls-3" d="M355.72,112.45l7.5,8.33a9.32,9.32,0,0,0,5,2.88L379.12,126a9.36,9.36,0,0,1,6.12,13.8l-5.59,9.71a9.35,9.35,0,0,0-1.2,5.6l1.14,11.15a9.33,9.33,0,0,1-11.21,10.08L357.43,174a9.3,9.3,0,0,0-5.7.59l-10.24,4.51a9.33,9.33,0,0,1-13-7.57l-1.18-11.14a9.46,9.46,0,0,0-2.33-5.25l-7.47-8.35a9.35,9.35,0,0,1,3.15-14.76l10.22-4.56a9.21,9.21,0,0,0,4.26-3.83l5.63-9.68A9.32,9.32,0,0,1,355.72,112.45Z"/><path d="M348.8,109.36a9.28,9.28,0,0,1,6.92,3.09l7.5,8.33a9.32,9.32,0,0,0,5,2.88L379.12,126a9.36,9.36,0,0,1,6.12,13.8l-5.59,9.71a9.35,9.35,0,0,0-1.2,5.6l1.14,11.15a9.33,9.33,0,0,1-9.24,10.29,9.57,9.57,0,0,1-2-.21L357.43,174a9.08,9.08,0,0,0-1.94-.21,9.24,9.24,0,0,0-3.76.8l-10.24,4.51a9.17,9.17,0,0,1-3.75.8,9.35,9.35,0,0,1-9.29-8.37l-1.18-11.14a9.46,9.46,0,0,0-2.33-5.25l-7.47-8.35a9.35,9.35,0,0,1,3.15-14.76l10.22-4.56a9.21,9.21,0,0,0,4.26-3.83l5.63-9.68a9.29,9.29,0,0,1,8.07-4.64m0-3h0a12.22,12.22,0,0,0-10.67,6.14l-5.62,9.68a6.27,6.27,0,0,1-2.89,2.59l-10.22,4.56a12.34,12.34,0,0,0-4.16,19.5l7.46,8.35a6.32,6.32,0,0,1,1.58,3.57l1.19,11.14a12.31,12.31,0,0,0,12.27,11.05,12.17,12.17,0,0,0,5-1.05l10.24-4.52a6.41,6.41,0,0,1,2.55-.54,6.5,6.5,0,0,1,1.32.14l10.95,2.33a12.52,12.52,0,0,0,2.59.28,12.32,12.32,0,0,0,9.12-4.08,12.17,12.17,0,0,0,3.11-9.51l-1.14-11.15a6.27,6.27,0,0,1,.81-3.81l5.59-9.7a12.36,12.36,0,0,0-8.09-18.23l-10.94-2.37a6.31,6.31,0,0,1-3.36-2l-7.5-8.32a12.33,12.33,0,0,0-9.15-4.09Z"/></g><path d="M527.5,203A12.5,12.5,0,1,1,540,190.5,12.52,12.52,0,0,1,527.5,203Zm0-22a9.5,9.5,0,1,0,9.5,9.5A9.51,9.51,0,0,0,527.5,181Z"/><path d="M132.5,632A11.5,11.5,0,1,1,144,620.5,11.51,11.51,0,0,1,132.5,632Zm0-20a8.5,8.5,0,1,0,8.5,8.5A8.51,8.51,0,0,0,132.5,612Z"/><path d="M795.5,503a9.5,9.5,0,1,1,9.5-9.5A9.51,9.51,0,0,1,795.5,503Zm0-16a6.5,6.5,0,1,0,6.5,6.5A6.51,6.51,0,0,0,795.5,487Z"/></svg>