<svg xmlns="http://www.w3.org/2000/svg" width="1000" height="1000" viewBox="0 0 1000 1000">
  <g id="f4c85c4b-d7e3-422a-8fe3-dd988a313903" data-name="Auth 404 Page not found">
    <g id="b6a870aa-8bf1-4681-a9f8-7d317461e632" data-name="lamp">
      <g>
        <path d="M507,693.33s25.52,35.94,85.33,12.3,39.41-62,39.41-62Z" style="fill: #fff"/>
        <path d="M631.71,643.67s20.41,38.32-39.41,62c-14.8,5.85-27.5,8-38.24,8-32.64,0-47.09-20.35-47.09-20.35l124.74-49.66m0-7a6.88,6.88,0,0,0-2.58.5L504.38,686.83a7,7,0,0,0-3.12,10.55c.68,1,17,23.3,52.8,23.3,12.74,0,26.47-2.87,40.82-8.54,23.67-9.36,38.65-22.19,44.53-38.16a43.67,43.67,0,0,0-1.53-33.6,7,7,0,0,0-6.18-3.71Z" style="fill: #4c3133"/>
      </g>
      <g>
        <path d="M477.3,623.28c-10.41-35.54-25.36-42.23-52.62-59.31s-102-50.52-99.46-147.45,90.3-129.92,90.3-129.92,6.86,26.63,27.07,24.64c0,0-.79,30.21,27.14,22.12s46.7-3.82,66.58,6.77,29.44-18.13,49.55-16.34L606,325.57s49,51.66,27.23,115.34-36.38,91-12.31,134.46-131.33,60.82-131.33,60.82Z" style="fill: #f0f0f0"/>
        <path d="M411.55,296.05c3.64,8.08,11.15,19.85,24.58,22,.83,5.05,2.86,11.8,7.82,16.89a23.17,23.17,0,0,0,17,6.84,38.56,38.56,0,0,0,10.69-1.66,89.68,89.68,0,0,1,25.05-3.93c12.08,0,22.93,3,36.3,10.16A25.24,25.24,0,0,0,545,349.48c9.16,0,16.28-5.53,22.56-10.41,5.54-4.3,10.77-8.36,16.54-8.36a11.64,11.64,0,0,1,1.18.05l17.33,1.53a135,135,0,0,1,19,30.39c11.71,25.88,13.39,51.44,5,76-2.42,7.07-4.73,13.62-7,19.95-17.9,50.82-27.76,78.81-4.86,120.17,2,3.63,2.18,6.66.55,9.82C612.07,594.84,599,607.11,548,619c-24.12,5.59-47.27,8.79-55.78,9.87l-8.68-9.15c-10.33-33.91-25.71-43.42-48.81-57.71q-3-1.87-6.33-3.93c-2.69-1.68-5.83-3.53-9.16-5.48-16.07-9.42-38.08-22.33-56.24-43.65a126.32,126.32,0,0,1-22.5-38.24c-6-16.26-8.78-34.41-8.27-54a134,134,0,0,1,14.25-57.89,135.75,135.75,0,0,1,29.18-38.08,155.55,155.55,0,0,1,35.9-24.68m4-9.45s-87.78,33-90.3,129.92S397.41,546.88,424.68,564s42.21,23.77,52.62,59.31l12.26,12.91S645,618.82,620.89,575.37s-9.5-70.79,12.31-134.46S606,325.57,606,325.57l-20.11-1.78c-.61-.06-1.21-.08-1.8-.08-15.85,0-25.14,18.77-39.1,18.77a18.17,18.17,0,0,1-8.65-2.35c-12.75-6.79-25-11-39.59-11a96.62,96.62,0,0,0-27,4.21,31.44,31.44,0,0,1-8.75,1.38c-19,0-18.39-23.5-18.39-23.5-.73.07-1.44.11-2.14.11-18.55,0-24.93-24.75-24.93-24.75Zm27.07,24.64Z" style="fill: #4c3133"/>
      </g>
      <g>
        <path d="M415.52,286.6s-87.78,33-90.3,129.92S397.41,546.88,424.68,564s42.21,23.77,52.62,59.31l12.26,12.91s153.94-16.6,131.33-60.82c-16.08-31.43-9.5-70.79,12.31-134.46S606,325.57,606,325.57l-34.87,33.1-.49,18.88c-17.59-1.71-47.64-8.79-55.23-7.73s-13.3,27.37-13.3,27.37C487,395.53,476.1,378.87,459,357s-61.15-21.75-61.15-21.75c5.49-17.49-8.29-20.37-8.29-20.37C404.89,307.74,415.52,286.6,415.52,286.6Z" style="fill: #fff"/>
        <path d="M382.59,314.72a8.19,8.19,0,0,0,0,1,7,7,0,0,0,5.53,6,6.13,6.13,0,0,1,3.21,2.47c1.42,2.42.69,6.2-.17,8.95a7,7,0,0,0,6.69,9.1c.41,0,40.92.22,55.63,19.05,2.05,2.63,4,5.19,5.92,7.66,14.33,18.66,25.66,33.39,41.87,35.16a6.78,6.78,0,0,0,.77.05,7,7,0,0,0,6.83-5.51c2.06-9.4,5.83-19.44,8.18-22h.18c4.66,0,15.13,1.84,25.26,3.62,9.62,1.68,19.56,3.43,27.4,4.19.22,0,.45,0,.68,0a7,7,0,0,0,7-6.81l.42-16,27.36-26a137,137,0,0,1,16.21,26.9c11.71,25.88,13.39,51.44,5,76-21.21,61.91-30,104.66-11.93,139.92,1.94,3.78,2,7,.21,10.26-3.43,6.36-16.76,18.76-67.44,30.39-23.9,5.49-46.77,8.58-55.2,9.62l-8.69-9.16c-10.33-33.91-25.71-43.42-48.81-57.71q-3-1.87-6.33-3.93c-2.69-1.68-5.83-3.53-9.16-5.48-16.07-9.42-38.08-22.33-56.24-43.65a126.32,126.32,0,0,1-22.5-38.24c-6-16.26-8.78-34.41-8.27-54a134,134,0,0,1,14.25-57.89,135.75,135.75,0,0,1,29.18-38.08c2.32-2.14,4.65-4.14,6.94-6m134.88,61.64h0m-102-89.76Zm0,0s-87.78,33-90.3,129.92S397.41,546.88,424.68,564s42.21,23.77,52.62,59.31l12.26,12.91s153.94-16.6,131.33-60.82c-16.08-31.43-9.5-70.79,12.31-134.46S606,325.57,606,325.57l-34.87,33.1-.49,18.88c-16.38-1.59-43.54-7.84-53.34-7.84a14.59,14.59,0,0,0-1.89.11c-7.58,1.06-13.3,27.37-13.3,27.37C487,395.53,476.1,378.87,459,357c-16.89-21.64-60.25-21.75-61.14-21.75h0c5.49-17.49-8.29-20.37-8.29-20.37,15.3-7.16,25.93-28.3,25.93-28.3Z" style="fill: #4c3133"/>
      </g>
      <g>
        <path d="M477.3,623.28s-11.76,16.07,6.8,29.15c0,0-10.4,12.32,6.86,26.63,0,0-10.66,22.39,24.59,23.31s110.17-16.56,126.55-46.58c10.11-18.53-1.16-28.25-1.16-28.25s7-19.58-8.22-22.89c0,0,7.91-24.3-11.83-29.28,0,0-11.89,21.1-41.24,35.46S511,636.75,477.3,623.28Z" style="fill: #ffd900"/>
        <path d="M620.89,575.37c19.74,5,11.83,29.28,11.83,29.28,15.19,3.31,8.22,22.89,8.22,22.89s11.27,9.72,1.16,28.25c-16,29.27-87.59,46.62-123.83,46.62-.93,0-1.84,0-2.72,0C480.3,701.45,491,679.06,491,679.06c-17.26-14.31-6.86-26.63-6.86-26.63-18.56-13.08-6.8-29.15-6.8-29.15a87.46,87.46,0,0,0,32.72,6c24.54,0,49.46-8.56,69.63-18.42,29.35-14.36,41.24-35.46,41.24-35.46m0-7a7,7,0,0,0-6.08,3.54c-.18.31-11.48,19.55-38.22,32.63-16.52,8.08-41.48,17.71-66.56,17.71a80.72,80.72,0,0,1-30.12-5.47,7,7,0,0,0-8.25,2.37c-.67.91-6.45,9.19-4.7,19.89a26.94,26.94,0,0,0,8.34,15.19,22.74,22.74,0,0,0-1.21,9.56c.56,6.18,3.54,12,8.89,17.44a21.24,21.24,0,0,0,2.4,15.68c4.83,7.88,14.92,12.07,30,12.46.94,0,1.91,0,2.9,0,20,0,48.16-5,71.69-12.68,21-6.87,48.12-19,58.28-37.59,9-16.44,4.19-27.83.41-33.27,1-4.69,1.86-12.53-1.74-19a17.56,17.56,0,0,0-6.09-6.4c.82-5.49,1-13.54-2.84-20.5-3.14-5.68-8.46-9.61-15.38-11.36a7.23,7.23,0,0,0-1.72-.21Z" style="fill: #4c3133"/>
      </g>
      <path d="M536,701c-35.25-.92-25-19-25-19-17.26-14.31-7-26-7-26-10.09-7.11-7.11-21.68-6-27.49a82.82,82.82,0,0,1-20.66-5.23s-11.76,16.07,6.8,29.15c0,0-10.4,12.32,6.86,26.63,0,0-10.66,22.39,24.59,23.31,9.69.25,22.39-.89,36-3.3C547.23,699.36,539.63,701.09,536,701Z" style="fill: #fdc509"/>
      <path d="M505.52,659.55c-15.93,0-25.4-2.53-25.95-2.67a3.5,3.5,0,0,1,1.85-6.76c.22.06,17.84,4.7,45.32,1,25.39-3.46,64.67-15,107.54-50.28a3.5,3.5,0,0,1,4.44,5.4c-44.3,36.48-85.06,48.34-111.46,51.87A164.13,164.13,0,0,1,505.52,659.55Z" style="fill: #4c3133"/>
      <path d="M514.46,687.45c-16.6,0-27.14-2.4-27.75-2.54a3.5,3.5,0,1,1,1.58-6.82c.3.07,20.95,4.7,49.7.72,26.49-3.66,65.52-15.62,101-51.76a3.5,3.5,0,1,1,5,4.9C607,669.6,566.3,682,538.64,685.79A179.67,179.67,0,0,1,514.46,687.45Z" style="fill: #4c3133"/>
      <g>
        <path d="M457.36,533.31s10.55,33.26,30.8,45.49,34.34,41.32,34.34,41.32" style="fill: #fff"/>
        <path d="M522.5,623.62a3.5,3.5,0,0,1-3.15-2c-.14-.28-13.9-28.31-33-39.85-21.13-12.76-31.88-46-32.33-47.42a3.5,3.5,0,0,1,6.67-2.12c.1.32,10.42,32.16,29.28,43.55,20.89,12.62,35.09,41.57,35.68,42.79a3.51,3.51,0,0,1-1.62,4.68A3.63,3.63,0,0,1,522.5,623.62Z" style="fill: #4c3133"/>
      </g>
      <g>
        <path d="M508.6,539.79a44.94,44.94,0,0,1-10.07-8.26c-5.56-5.86-8.14,5.5-10.48,7.72s-11.33-3.72-13.7-.35-6,11.26-6,11.26" style="fill: #fff"/>
        <path d="M468.34,553.66a3.44,3.44,0,0,1-1.46-.32,3.49,3.49,0,0,1-1.72-4.64c.16-.33,3.8-8.23,6.33-11.82,2.71-3.85,7.72-2.43,11.38-1.4a29.72,29.72,0,0,0,3.08.75c.3-.52.71-1.31,1-1.9,1.66-3.26,3.74-7.33,7.69-7.9,1.56-.22,3.92.06,6.42,2.69a42.68,42.68,0,0,0,9.17,7.58,3.5,3.5,0,1,1-3.29,6.18,48.42,48.42,0,0,1-11-8.94,4.77,4.77,0,0,0-.41-.4,21.23,21.23,0,0,0-2.39,4,15.79,15.79,0,0,1-2.73,4.28c-2.52,2.39-6.22,1.34-9.49.42a21,21,0,0,0-4.05-.88,104.07,104.07,0,0,0-5.4,10.3A3.5,3.5,0,0,1,468.34,553.66Z" style="fill: #4c3133"/>
      </g>
      <g>
        <path d="M593.94,596.84s-6.74-4.74-7.28-27.6-1.28-38.88-2.91-64.06" style="fill: #fff"/>
        <path d="M591.92,599.7c-1.37-1-8.2-6.94-8.76-30.38-.55-22.75-1.28-38.87-2.9-63.91a3.5,3.5,0,1,1,7-.45c1.62,25.14,2.36,41.34,2.91,64.19.48,20.06,5.87,24.88,5.92,24.93L596,594Z" style="fill: #4c3133"/>
      </g>
      <g>
        <path d="M554.23,542.12s7.06-7.82,10.43-5.44,7.84,5.91,18.68-15.51" style="fill: #fff"/>
        <path d="M554.23,545.61a3.47,3.47,0,0,1-2.35-.9,3.51,3.51,0,0,1-.25-4.94c2.15-2.37,9.57-9.81,15-6l.14.1c1.27.9,1.74,1.16,2.26,1,.9-.22,4.39-2,11.14-15.35a3.5,3.5,0,1,1,6.25,3.16c-6,11.93-10.88,17.79-15.7,19-3.57.89-6.19-.83-7.81-2-1.23.27-4.07,2.45-6.12,4.7A3.46,3.46,0,0,1,554.23,545.61Z" style="fill: #4c3133"/>
      </g>
      <g>
        <polyline points="397.38 335.83 377.67 346.74 380.74 360.53 369.81 385.38" style="fill: #fff"/>
        <path d="M369.81,388.88a3.54,3.54,0,0,1-1.41-.3,3.49,3.49,0,0,1-1.79-4.61l10.46-23.8-2.82-12.67a3.5,3.5,0,0,1,1.73-3.82l19.7-10.91a3.5,3.5,0,1,1,3.39,6.12l-17.41,9.64,2.5,11.24a3.53,3.53,0,0,1-.22,2.17L373,386.79A3.49,3.49,0,0,1,369.81,388.88Z" style="fill: #4c3133"/>
      </g>
      <g>
        <polyline points="504.2 401.44 514.12 415.41 503.28 436.83 513.14 453.08" style="fill: #fff"/>
        <path d="M513.14,456.58a3.52,3.52,0,0,1-3-1.68l-9.85-16.25a3.49,3.49,0,0,1-.13-3.4L510,415.71l-8.7-12.25a3.5,3.5,0,0,1,5.71-4l9.92,14a3.5,3.5,0,0,1,.27,3.61l-10,19.69,8.85,14.58a3.51,3.51,0,0,1-1.18,4.81A3.43,3.43,0,0,1,513.14,456.58Z" style="fill: #4c3133"/>
      </g>
    </g>
    <g id="ee135a2c-872a-4815-8e2d-d7b6b80908ad" data-name="pattern">
      <g>
        <g>
          <line x1="351.28" y1="644.61" x2="367.32" y2="668.55" style="fill: #e2e2e0"/>
          <path d="M367.32,672.05a3.53,3.53,0,0,1-2.91-1.55l-16-23.94a3.5,3.5,0,1,1,5.81-3.9l16,23.94a3.5,3.5,0,0,1-2.91,5.45Z" style="fill: #4c3133"/>
        </g>
        <g>
          <line x1="370.29" y1="648.54" x2="347.81" y2="665.1" style="fill: #e2e2e0"/>
          <path d="M347.81,668.6a3.5,3.5,0,0,1-2.08-6.32l22.48-16.56a3.5,3.5,0,1,1,4.16,5.63l-22.48,16.57A3.52,3.52,0,0,1,347.81,668.6Z" style="fill: #4c3133"/>
        </g>
      </g>
      <g>
        <g>
          <line x1="705.38" y1="270.26" x2="723.46" y2="297.25" style="fill: #e2e2e0"/>
          <path d="M723.46,300.75a3.49,3.49,0,0,1-2.91-1.55l-18.08-27a3.5,3.5,0,0,1,5.82-3.9l18.08,27a3.5,3.5,0,0,1-2.91,5.45Z" style="fill: #4c3133"/>
        </g>
        <g>
          <line x1="726.81" y1="274.69" x2="701.46" y2="293.36" style="fill: #e2e2e0"/>
          <path d="M701.47,296.86a3.5,3.5,0,0,1-2.08-6.32l25.34-18.67a3.5,3.5,0,1,1,4.15,5.63l-25.34,18.68A3.47,3.47,0,0,1,701.47,296.86Z" style="fill: #4c3133"/>
        </g>
      </g>
    </g>
    <g id="b7a2a279-3abe-43cd-9bb3-f6d62a8ad789" data-name=" ghost">
      <g>
        <circle cx="561.28" cy="266.51" r="19.73" style="fill: #c5e6f1"/>
        <path d="M561.29,289.74h-.61a23.53,23.53,0,1,1,.61,0Zm0-39.45a15.75,15.75,0,1,0,.44,0Z" style="fill: #4c3133"/>
      </g>
      <g>
        <circle cx="491.67" cy="341.39" r="14.09" style="fill: #c5e6f1"/>
        <path d="M491.68,359h-.47a17.59,17.59,0,1,1,18.05-17.13h0A17.6,17.6,0,0,1,491.68,359Zm0-28.18a10.59,10.59,0,1,0,10.6,10.87h0A10.6,10.6,0,0,0,492,330.8Z" style="fill: #4c3133"/>
      </g>
      <g>
        <circle cx="464.34" cy="178.28" r="14.09" style="fill: #c5e6f1"/>
        <path d="M464.35,195.88h-.47a17.22,17.22,0,1,1,.47,0Zm0-28.19a10.59,10.59,0,0,0-.27,21.18,10.42,10.42,0,0,0,7.57-2.91,10.58,10.58,0,0,0-7-18.26Z" style="fill: #4c3133"/>
      </g>
    </g>
    <g id="f1691bf5-5769-43e1-ba86-b1dd51841715" data-name="background">
      <path d="M316.83,530.66c-9-5.94-21.85-10-39.28-12.27l23.54-186.83c2.76-21.84-10.73-36.26-37-39.57-21.83-2.75-41.09,4-57.26,19.94L57.68,466.74l-25,21.13-.24.21c-13,11.66-19.95,22.09-21.18,31.9-1.07,8.47,1.43,23.9,30.11,32,9.72,2.8,26.38,5.66,50.92,8.76L194.78,576l-5.25,43.4c-.15,1.16-.57,3.84-1.77,10-1.06,5.47-1.77,9.64-2.16,12.75-1.77,14-.1,25,5.11,33.57,4,6.6,12.26,14.91,28.67,17,22.31,2.82,37.19-7.9,39.81-28.67l9.69-76.92c18.71,2.53,26,2.37,29.93,1.93,19.08-1.94,30.73-12.14,32.82-28.72C333.12,548.5,327.87,538,316.83,530.66ZM216.55,402.94,203.3,508l-73.54-10.92C153,473,182,441.5,216.55,402.94Z" style="fill: #f0f0f0"/>
      <path d="M940.48,495.5c-9.84-4.23-23.12-5.91-40.58-5.11l-9.77-186.94C889,281.6,873.26,269.86,847,271.23c-21.84,1.14-39.51,11.09-52.51,29.57L675.7,478.46,655,503.51l-.19.25c-10.7,13.69-15.65,25.12-15.13,34.93.44,8.48,5.59,23.13,35.08,26,10,1,26.81.91,51.36-.37l102.94-3,2.47,43.38c.07,1.17.12,3.86,0,10.1-.07,5.54,0,9.75.13,12.85.74,14.06,4.3,24.51,10.89,32,5.1,5.76,14.62,12.43,31,11.58,22.32-1.17,35-14.27,33.91-35.05l-4-77c18.75-.8,25.86-2.24,29.62-3.35,18.32-5.25,27.94-17.28,27.07-33.87C959.56,510.09,952.57,500.7,940.48,495.5ZM819.94,388.14l5.49,105.15-73.87,2.23C770.06,467.87,793,431.93,819.94,388.14Z" style="fill: #f0f0f0"/>
      <path d="M72.08,430.08a3.5,3.5,0,0,1-2.47-6L160,334.42a3.5,3.5,0,1,1,4.93,5L74.55,429.07A3.54,3.54,0,0,1,72.08,430.08Z" style="fill: #f0f0f0"/>
      <path d="M173.78,327.69a3.49,3.49,0,0,1-2.7-5.73l11.36-13.71a3.5,3.5,0,1,1,5.39,4.47l-11.36,13.71A3.5,3.5,0,0,1,173.78,327.69Z" style="fill: #f0f0f0"/>
      <path d="M721.71,579.09a3.5,3.5,0,0,1-.11-7L810,569.32a3.5,3.5,0,1,1,.22,7l-88.44,2.77Z" style="fill: #f0f0f0"/>
      <path d="M688,580.14a3.5,3.5,0,0,1-.11-7l17.4-.54a3.5,3.5,0,1,1,.22,7l-17.4.54Z" style="fill: #f0f0f0"/>
      <ellipse cx="541.96" cy="803.46" rx="135.21" ry="24.04" style="fill: #f0f0f0"/>
    </g>
    <g id="ed89772d-df2d-4516-b574-999488b0160d" data-name="leaves">
      <g>
        <g>
          <path d="M623.4,787.78c4.76,9.65,19.44,10.09,28,3.56s12.46-17.32,15.94-27.49l5.14-15c-10,8.62-25.65,3.84-38.18,8a27.85,27.85,0,0,0-18.47,26.5" style="fill: #e2e2e0"/>
          <path d="M637.93,799.21a23.85,23.85,0,0,1-5.43-.61,17.71,17.71,0,0,1-12.24-9.27,3.5,3.5,0,0,1,6.27-3.1,10.9,10.9,0,0,0,7.56,5.56,18.87,18.87,0,0,0,15.17-3.23c8-6.11,11.74-17,14.75-25.84l2.25-6.59c-5,1.6-10.5,1.84-15.84,2.07s-10.48.46-15,2a24.38,24.38,0,0,0-16.09,23.08,3.5,3.5,0,1,1-7,.21,31.19,31.19,0,0,1,20.86-29.93c5.48-1.83,11.31-2.09,16.94-2.33,7.71-.34,15-.66,20.07-5a3.5,3.5,0,0,1,5.59,3.78l-5.14,15c-3.32,9.69-7.44,21.74-17.12,29.14A26.18,26.18,0,0,1,637.93,799.21Z" style="fill: #b9b9b9"/>
        </g>
        <path d="M610.2,788.19c-1,0-2,0-3.06-.08a3.5,3.5,0,0,1,.37-7,55.69,55.69,0,0,0,40.85-15.28,3.5,3.5,0,0,1,4.86,5A62.83,62.83,0,0,1,610.2,788.19Z" style="fill: #b9b9b9"/>
      </g>
      <g>
        <g>
          <path d="M493.49,820.65s-15.51,12.74-32.82.11-13.17-40.29-13.17-40.29,21.13-7,28,5.13c0,0-6.16,4.63-.92,9.42s7.52-4,7.52-4S499.52,797.94,493.49,820.65Z" style="fill: #e2e2e0"/>
          <path d="M476.87,829.81a30.52,30.52,0,0,1-18.26-6.22C439.8,809.86,443.86,781.17,444,780a3.5,3.5,0,0,1,2.37-2.81c1-.32,23.94-7.69,32.16,6.72a3.49,3.49,0,0,1-.94,4.53,4.37,4.37,0,0,0-1.63,2.45,2.48,2.48,0,0,0,1,1.59,4.25,4.25,0,0,0,.48.38,8.15,8.15,0,0,0,1.3-2.71,3.51,3.51,0,0,1,4.68-2.36c.2.08,20.2,8.38,13.45,33.8a3.46,3.46,0,0,1-1.17,1.8A30.9,30.9,0,0,1,476.87,829.81Zm-26.13-46.58c-.48,6.49-.68,25.45,12,34.7,12.84,9.37,24.43,2.86,27.67.65,3-13.07-2.81-19.74-6.64-22.58a8.16,8.16,0,0,1-4.43,3.69c-1.66.5-4.23.53-7.09-2.09a8.86,8.86,0,0,1-3.23-7.1,9.53,9.53,0,0,1,1.95-5.14C465.8,780.36,455.27,782.15,450.74,783.23Zm42.75,37.42h0Z" style="fill: #b9b9b9"/>
        </g>
        <path d="M517,832.16h-.28c-1.67-.14-41.1-3.66-59.44-34.37a3.5,3.5,0,1,1,6-3.58c16.46,27.56,53.62,30.94,54,31a3.5,3.5,0,0,1-.28,7Z" style="fill: #b9b9b9"/>
      </g>
      <path d="M677.5,782a3.5,3.5,0,0,1-3-5.39c24-37.46,16.57-89.07,16.49-89.59a3.5,3.5,0,0,1,6.92-1c.34,2.22,7.91,54.76-17.51,94.41A3.51,3.51,0,0,1,677.5,782Z" style="fill: #f0f0f0"/>
    </g>
  </g>
</svg>
