<svg id="Auth_505_DNS_Error" data-name="Auth 505 DNS Error" xmlns="http://www.w3.org/2000/svg" viewBox="0 0 1000 1000"><defs><style>.cls-1{fill:#f0f0f0;}.cls-2{fill:#c5e6f1;}.cls-3{fill:#4c3133;}.cls-4{fill:#81c4d4;}.cls-5{fill:#e2e2e0;}.cls-6{fill:#b9b9b9;}.cls-7{fill:#fff;}.cls-8{fill:#ffd900;}</style></defs><path class="cls-1" d="M882,335.58c-44.69-10.06-85.08,2.28-120.07,36.7-29.1,28.83-49,66.3-59.13,111.34-11.87,52.78-13.34,98.26-4.35,135.21,12.37,49.45,43.3,80.07,91.93,91,45.32,10.2,83.94-.27,114.78-31.11,30-30,53-80.1,68.52-149,9.77-43.41,8.11-83.09-4.95-118C953.25,370.71,924.06,345.06,882,335.58ZM803.25,652.49c-24.46-5.5-39.83-20.6-47-46.17-7.5-26.75-5.78-64.88,5.12-113.32,6.62-29.38,19.21-54.33,37.44-74.14,21.31-23.12,44.19-31.55,70-25.75,23.27,5.24,38.18,18,45.59,39.09,7.71,21.95,7.11,53.13-1.79,92.67-8.56,38-20.44,68.72-35.32,91.17C856.68,647.14,832.47,659.06,803.25,652.49Z"/><g id="_0" data-name="0"><path class="cls-1" d="M523.05,334.39c-50.58,0-91.1,23.08-120.45,68.63-24.35,38.12-36.7,83.29-36.7,134.27C365.9,597,375.34,646.36,394,684c25.31,50.26,66,75.75,121.1,75.75,51.28,0,90.34-20.64,116.09-61.33,25-39.57,37.71-99.14,37.71-177.06,0-49.12-11.42-91.47-33.93-125.87C608.35,354.94,570.7,334.39,523.05,334.39Zm-8,360.44c-27.68,0-47.89-12.54-61.81-38.34-14.56-27-21.95-68.48-21.95-123.31,0-33.25,7.52-63.17,22.36-88.93,17.34-30.08,39.95-44.7,69.11-44.7,26.34,0,45.5,10.16,58.59,31.06,13.62,21.78,20.53,55.51,20.53,100.26,0,43-5.36,79-15.94,106.76C571.33,676.12,548.14,694.83,515.08,694.83Z"/><path class="cls-1" d="M628,359.16a3.5,3.5,0,0,1-2.76-1.34C592,315.36,533.09,318.5,532.5,318.54a3.5,3.5,0,0,1-.44-7,135,135,0,0,1,35.84,3.71c26.41,6.2,48.15,19.42,62.88,38.25a3.49,3.49,0,0,1-2.75,5.65Z"/><path class="cls-1" d="M640.12,376.09a3.49,3.49,0,0,1-2.85-1.47l-4.84-6.77a3.5,3.5,0,0,1,5.7-4.07l4.83,6.77a3.49,3.49,0,0,1-.81,4.88A3.44,3.44,0,0,1,640.12,376.09Z"/><path class="cls-1" d="M508.58,779.32a3.5,3.5,0,0,1-.16-7,174.07,174.07,0,0,0,23.71-2.81,3.5,3.5,0,1,1,1.28,6.88,180.06,180.06,0,0,1-24.67,2.92Z"/><path class="cls-1" d="M482.14,778.21a2.59,2.59,0,0,1-.48,0c-42.11-5.75-69.47-29.69-85-48.75-16.79-20.59-23.58-39.61-23.86-40.41a3.5,3.5,0,0,1,6.6-2.32h0c.07.19,6.76,18.84,22.84,38.5,21.42,26.19,48.46,41.68,80.37,46a3.5,3.5,0,0,1-.47,7Z"/></g><g id="_5_-_5" data-name="5 - 5"><path class="cls-1" d="M176.64,457.42c-23.92,7.95-43.06,19.26-57.14,33.74-4.64-23.25-7.35-35.77-9-42.8l25.46-9.31,32.94-11.6c.8-.27,3.36-1,11-3.23,6.3-1.8,11.63-3.42,15.85-4.82,16.94-5.63,28.85-11.88,36.41-19.1,11.39-10.88,10.86-22,8.4-29.38a27.6,27.6,0,0,0-14.75-16.29,28.5,28.5,0,0,0-21.94-1.6,67.7,67.7,0,0,0-11.76,5.74,51.3,51.3,0,0,1-8.73,4.35c-3.48,1.16-8.86,2.8-16,4.88-7.51,2.2-12.93,3.85-16.58,5.07-7.72,2.56-18.94,6.58-34.28,12.27-14.87,5.52-26.22,9.59-33.73,12.08-2.41.8-6.25,1.83-11.43,3.07-5.78,1.39-10,2.52-12.86,3.48-25.11,8.34-24.66,22.25-22.15,29.79,1.27,3.82,4.19,8.25,9.17,13.93a33.12,33.12,0,0,1,6.76,11c4.19,12.62,11,40.5,20.17,82.92,6.46,28.87,8.06,34.91,8.73,36.94a28.65,28.65,0,0,0,36.17,18.28c8.29-2.75,15-9.2,19.81-19.16l13.73-30.69c4.24-8.61,9-15.31,14.2-19.89,6.75-6,16.7-11.16,29.57-15.44,14-4.66,25.6-2,36.46,8.18,9.2,8.83,16.85,22.3,22.75,40,7.11,21.4,6.65,41.29-1.42,60.8-8.28,20.06-22.22,33.1-42.63,39.89-13,4.31-24,5.25-32.74,2.78-2-.54-7-2.54-18.89-9.94-9-5.54-17.59-7-25.47-4.39A29.35,29.35,0,0,0,116,663.15a27.19,27.19,0,0,0-2.33,22.23,30.8,30.8,0,0,0,10,13.83c29.07,23.6,64.14,28.81,104.23,15.48,37.57-12.49,64-35.67,78.54-68.91,13.93-31.75,14.7-66.79,2.28-104.17-10.37-31.18-26-55.05-46.58-71C237,451.36,208.28,446.91,176.64,457.42Z"/></g><ellipse id="background" class="cls-1" cx="511.12" cy="878.96" rx="135.21" ry="24.04"/><g id="_ghost" data-name=" ghost"><path class="cls-2" d="M310.51,334.65c-22.58,48-7.88,193.59,113,298.43,94.65,82.1,173.31,35.17,224.07-12.55,48.29-45.39,112-169,71.47-199.92-51.17-39-145.35,87.4-193.64,70-42.67-15.36-52.16-133.28-95.62-172.88C376.66,269.34,326,301.81,310.51,334.65Z"/><path class="cls-3" d="M374.06,293.15c17.17,0,36.29,6.89,55.73,24.6,43.46,39.6,52.95,157.52,95.62,172.88a29.22,29.22,0,0,0,10,1.65c43.11,0,111.9-79.19,160.83-79.18a36.57,36.57,0,0,1,22.84,7.51c40.56,30.9-23.18,154.53-71.47,199.92-30.66,28.82-71.48,57.35-119.86,57.35-31.73,0-66.72-12.28-104.21-44.8-120.88-104.84-135.58-250.44-113-298.43,9.8-20.82,33.77-41.5,63.55-41.5m0-7a74.56,74.56,0,0,0-43.32,14.24,82.09,82.09,0,0,0-26.56,31.28c-13.53,28.76-12.63,80.89,2.31,132.81a353.39,353.39,0,0,0,39.24,88.17,373.44,373.44,0,0,0,73.2,85.72c35.57,30.86,72.18,46.51,108.79,46.51,41.47,0,82.24-19.38,124.65-59.25,19.85-18.65,41.89-49.54,59-82.63,11-21.31,29.18-61.84,27.52-93.94-.79-15.31-6-26.76-15.56-34a43.63,43.63,0,0,0-27.07-8.94c-27.44,0-58.89,21.71-89.31,42.71-26,17.93-52.84,36.47-71.53,36.47a21.92,21.92,0,0,1-7.6-1.24c-19.52-7-32.81-44-45.66-79.7-12.74-35.39-25.9-72-47.61-91.77-19.25-17.53-39.59-26.42-60.45-26.42Z"/><path class="cls-4" d="M647.58,582.53c-50.76,47.72-129.42,94.65-224.07,12.55-82.45-71.51-115.49-162-121-227.51-6.31,64.19,21,178.79,121,265.51,94.65,82.1,173.31,35.17,224.07-12.55,42.22-39.69,96.25-139.17,82.06-184.21C719.77,485.67,680.16,551.9,647.58,582.53Z"/><path class="cls-4" d="M317.13,368c-13.38,11.5-13.47,37.55-6.58,44s22.09-5.48,49.69,1.85,71.66,4.64,65.74-21.54-17.8-31.07-46.92-23.8S332.23,355,317.13,368Z"/><path class="cls-3" d="M313.32,357.35a5,5,0,0,1-.94-9.91l8.18-1.58a5,5,0,0,1,1.9,9.82l-8.19,1.58A5.17,5.17,0,0,1,313.32,357.35Z"/><path class="cls-3" d="M387.33,362.15a5.16,5.16,0,0,1-1.58-.25l-7.91-2.62a5,5,0,0,1,3.15-9.5l7.91,2.62a5,5,0,0,1-1.57,9.75Z"/><circle class="cls-3" cx="324.12" cy="390.72" r="7.98"/><circle class="cls-3" cx="383.11" cy="390.72" r="7.98"/><path class="cls-2" d="M343.5,265.5c20.94-13.09,51.34-16.26,75.38-10.62,10.52,2.46,20.82,6.77,31.62,6.56s22.64-6.88,23.86-17.61c.71-6.31-2.49-12.62-7.24-16.84s-10.85-6.6-17-8.16a79.4,79.4,0,0,0-46.9,2.62c-4,1.51-9.73,2.78-11.69-1.06-1.51-3,.91-6.49,3.68-8.33s6.15-3,8-5.79c2.4-3.51,1.37-8.58-1.52-11.7s-7.2-4.53-11.42-5c-17.05-1.94-33.36,10.26-40.86,25.69s-7.77,33.36-6.15,50.45Z"/><path class="cls-3" d="M343.28,269.2A3.5,3.5,0,0,1,339.8,266c-1.33-14-2.1-34.63,6.48-52.31,8.86-18.24,27.11-29.61,44.4-27.64,5.79.66,10.49,2.77,13.59,6.11,4.21,4.53,5,11.44,1.85,16.06-1.79,2.62-4.39,4.08-6.68,5.37-.82.46-1.6.89-2.3,1.36-1.83,1.22-2.86,3.09-2.49,3.82s3.12.95,7.34-.63a83.08,83.08,0,0,1,49-2.73c7.92,2,14,4.92,18.48,8.94,6.05,5.38,9.19,12.8,8.39,19.84-1.44,12.67-15,20.48-27.27,20.72-8.21.16-16-2.08-23.53-4.24-3-.85-6-1.72-9-2.42-24.44-5.72-53.52-1.7-72.47,10A3.5,3.5,0,0,1,343.28,269.2Zm43.29-76.35c-15.34,0-28.2,12-34,23.93-5.49,11.31-7.47,24.75-6.26,43.06,20.5-10.85,48.64-14.17,73.36-8.37,3.14.73,6.26,1.63,9.29,2.5,7.36,2.11,14.32,4.09,21.46,4,9.06-.17,19.46-5.77,20.45-14.51.54-4.71-1.8-10-6.08-13.82-3.66-3.25-8.74-5.67-15.54-7.38a76,76,0,0,0-44.81,2.49c-10.69,4-14.64,0-16-2.74-2.4-4.71.63-10,4.86-12.83.92-.61,1.85-1.13,2.74-1.64,1.86-1,3.46-1.94,4.33-3.21,1.32-1.92.78-5.22-1.2-7.34-2.46-2.66-6.39-3.6-9.25-3.93A31.2,31.2,0,0,0,386.57,192.85Z"/></g><g id="leaves"><path class="cls-5" d="M308.94,795.06s-15.52,12.74-32.82.11S263,754.88,263,754.88s21.13-7,28,5.13c0,0-6.16,4.63-.92,9.42s7.52-4,7.52-4S315,772.35,308.94,795.06Z"/><path class="cls-6" d="M292.32,804.22A30.55,30.55,0,0,1,274.05,798c-18.8-13.73-14.74-42.42-14.56-43.63a3.49,3.49,0,0,1,2.36-2.81c1-.32,23.95-7.69,32.17,6.72a3.5,3.5,0,0,1-.94,4.53,4.37,4.37,0,0,0-1.63,2.45c0,.56.51,1.17,1,1.59a3.33,3.33,0,0,0,.48.38,8.15,8.15,0,0,0,1.3-2.71,3.51,3.51,0,0,1,4.68-2.36c.2.08,20.19,8.38,13.44,33.8a3.45,3.45,0,0,1-1.16,1.81A31,31,0,0,1,292.32,804.22Zm-26.13-46.58c-.48,6.49-.68,25.45,12,34.7,12.84,9.37,24.43,2.86,27.67.65,3-13.07-2.81-19.74-6.64-22.58a8.14,8.14,0,0,1-4.44,3.69c-1.65.5-4.22.53-7.08-2.09a8.85,8.85,0,0,1-3.23-7.09,9.53,9.53,0,0,1,2-5.15C281.25,754.77,270.72,756.56,266.19,757.64Zm42.75,37.42h0Z"/><path class="cls-6" d="M332.41,806.57h-.28c-1.67-.14-41.11-3.66-59.44-34.37a3.5,3.5,0,0,1,6-3.58c16.46,27.57,53.62,30.94,54,31a3.5,3.5,0,0,1-.28,7Z"/><path class="cls-5" d="M718.92,306.53c8.81,6.18,21.9-.49,26.26-10.32s2.6-21.17.77-31.76l-2.7-15.65c-4.64,12.37-20.66,15.69-29.64,25.39a27.87,27.87,0,0,0-3.47,32.11"/><path class="cls-6" d="M726.67,312.42a16.8,16.8,0,0,1-9.76-3,3.5,3.5,0,0,1,4-5.73,10.88,10.88,0,0,0,9.3,1.24A18.85,18.85,0,0,0,742,294.79c4.07-9.2,2.1-20.59.52-29.75l-1.18-6.86c-3.65,3.82-8.33,6.66-12.91,9.43s-9,5.43-12.23,8.95a24.39,24.39,0,0,0-3,28,3.5,3.5,0,1,1-6,3.55,31.17,31.17,0,0,1,3.92-36.27c3.92-4.25,8.91-7.27,13.74-10.19,6.59-4,12.82-7.77,15.18-14.05a3.5,3.5,0,0,1,6.73.64l2.7,15.64c1.74,10.09,3.91,22.64-1,33.78a26.14,26.14,0,0,1-16.28,14A20.33,20.33,0,0,1,726.67,312.42Z"/><path class="cls-6" d="M703.3,315a3.5,3.5,0,0,1-1.52-6.65,55.63,55.63,0,0,0,28.5-33,3.5,3.5,0,0,1,6.68,2.08,62.75,62.75,0,0,1-32.14,37.25A3.58,3.58,0,0,1,703.3,315Z"/></g><path class="cls-1" d="M627.51,703.93q1.88-2.7,3.66-5.52c25-39.57,37.71-99.14,37.71-177.06,0-43-8.74-80.77-26-112.59l-54.51,35.45c9,21.3,13.54,50.35,13.54,86.66,0,43-5.36,79-15.94,106.76s-25.7,45.39-45.79,52.92Z"/><g id="pattern"><line class="cls-5" x1="660.42" y1="524.42" x2="676.86" y2="547.63"/><path class="cls-3" d="M676.87,551.13a3.5,3.5,0,0,1-2.86-1.48l-16.44-23.21a3.5,3.5,0,1,1,5.71-4.05l16.44,23.21a3.5,3.5,0,0,1-.83,4.88A3.47,3.47,0,0,1,676.87,551.13Z"/><line class="cls-5" x1="679.28" y1="527.8" x2="657.52" y2="544.73"/><path class="cls-3" d="M657.52,548.23a3.51,3.51,0,0,1-2.15-6.27L677.13,525a3.5,3.5,0,0,1,4.3,5.53l-21.76,16.92A3.48,3.48,0,0,1,657.52,548.23Z"/><line class="cls-5" x1="129.5" y1="396.76" x2="145.94" y2="419.97"/><path class="cls-3" d="M145.94,423.47a3.49,3.49,0,0,1-2.86-1.47l-16.44-23.21a3.5,3.5,0,1,1,5.71-4.05L148.79,418a3.49,3.49,0,0,1-2.85,5.52Z"/><line class="cls-5" x1="148.35" y1="400.15" x2="126.6" y2="417.07"/><path class="cls-3" d="M126.6,420.57a3.5,3.5,0,0,1-2.15-6.26l21.76-16.92a3.5,3.5,0,1,1,4.29,5.52l-21.76,16.92A3.43,3.43,0,0,1,126.6,420.57Z"/><line class="cls-5" x1="531.8" y1="227.53" x2="548.24" y2="250.74"/><path class="cls-3" d="M548.24,254.24a3.53,3.53,0,0,1-2.86-1.48l-16.44-23.21a3.5,3.5,0,0,1,5.72-4.05l16.44,23.21a3.51,3.51,0,0,1-.84,4.88A3.44,3.44,0,0,1,548.24,254.24Z"/><line class="cls-5" x1="550.66" y1="230.91" x2="528.9" y2="247.83"/><path class="cls-3" d="M528.9,251.33a3.5,3.5,0,0,1-2.15-6.26l21.76-16.92a3.5,3.5,0,0,1,4.3,5.52L531.05,250.6A3.53,3.53,0,0,1,528.9,251.33Z"/></g><g id="Wires"><circle class="cls-7" cx="193.24" cy="273.73" r="10.62"/><line class="cls-5" x1="189.18" y1="170.35" x2="191.2" y2="155"/><path class="cls-3" d="M189.18,173.85l-.46,0a3.5,3.5,0,0,1-3-3.93l2-15.35a3.5,3.5,0,0,1,6.94.92l-2,15.35A3.5,3.5,0,0,1,189.18,173.85Z"/><line class="cls-5" x1="202.53" y1="215.79" x2="203.25" y2="205.2"/><path class="cls-3" d="M202.53,219.29h-.24a3.49,3.49,0,0,1-3.25-3.73l.72-10.6a3.5,3.5,0,0,1,7,.47L206,216A3.5,3.5,0,0,1,202.53,219.29Z"/><path class="cls-2" d="M306.11,540.53c-12.71-1.66-28,.56-36.82,12s-6.64,26.66,7.78,42.87,38.72,11.9,51.61-1.26S306.11,540.53,306.11,540.53Z"/><path class="cls-3" d="M300.81,609.35h-.93a34.26,34.26,0,0,1-25.42-11.65c-15.17-17-18.06-34.3-7.93-47.34,11.78-15.18,31.92-14.35,40-13.29a3.55,3.55,0,0,1,2.18,1.16c3.84,4.39,37.17,43.29,22.44,58.33A43.19,43.19,0,0,1,300.81,609.35Zm-2.12-65.8c-8.17,0-19.5,1.91-26.63,11.09-8,10.27-5.27,23.91,7.63,38.4a27.5,27.5,0,0,0,20.35,9.3,36.52,36.52,0,0,0,26.14-10.68c7.16-7.32-8.2-32-21.83-47.81A53.3,53.3,0,0,0,298.69,543.55Z"/><path class="cls-5" d="M201.61,229.28c-2.58,37.69.61,79.81,11.21,130.9,12.56,60.56,35.09,113.13,67,156.27C315,564.14,362.5,599.71,413.44,616.6c35.75,11.84,74.64,15.25,112.25,18.54L536,636c42,3.75,86.26,8.88,126.1,26.38,45.75,20.1,78.46,54.48,89.75,94.32a9.18,9.18,0,0,1-6.33,11.33,9.16,9.16,0,0,1-11.33-6.33c-9.79-34.55-38.75-64.63-79.47-82.52-37.33-16.4-78.23-21.14-120.36-24.9l-10.22-.9C485.43,650,445.45,646.54,407.67,634,353.16,615.94,302.5,578.07,265,527.35,231.57,482.07,208,427.08,194.85,363.9,183.6,309.67,181.94,233.75,187,187.63"/><path class="cls-3" d="M743,771.92c-.29,0-.57,0-.86,0a12.71,12.71,0,0,1-11.33-9.19c-9.51-33.55-37.76-62.81-77.52-80.27-36.84-16.19-77.43-20.89-119.26-24.62-3.06-.28-6.13-.55-9.19-.81l-1-.09c-38.87-3.41-79-6.92-117.22-19.58C351.38,619,300.11,580.72,262.21,529.43c-33.76-45.69-57.58-101.14-70.79-164.82-11.63-56.09-12.74-133.25-7.87-177.36a3.5,3.5,0,1,1,7,.76c-4.81,43.59-3.72,119.8,7.76,175.18,13,62.68,36.41,117.21,69.57,162.08,37.05,50.14,87.1,87.58,140.93,105.42,37.39,12.39,77.16,15.88,115.62,19.24l1,.09,9.2.81c42.43,3.8,83.64,8.57,121.46,25.19,41.67,18.31,71.36,49.2,81.43,84.77a5.68,5.68,0,0,0,5.07,4.11,5.54,5.54,0,0,0,1.94-.2,5.68,5.68,0,0,0,3.91-7c-11-38.83-43-72.39-87.79-92.07-39.35-17.29-83.33-22.37-125-26.09l-9.31-.82-.93-.08c-37.81-3.31-76.91-6.74-113-18.71C360.72,602.8,312.64,566.8,277,518.53,244.79,475,222.05,422,209.39,360.89c-10.27-49.5-14-92.63-11.28-131.85a3.5,3.5,0,0,1,7,.48c-2.64,38.57,1,81.08,11.14,129.94C228.7,419.53,251,471.64,282.6,514.37c34.82,47.11,81.68,82.24,132,98.9,35.35,11.72,74,15.11,111.45,18.38l.93.08,9.33.83c42.25,3.77,86.88,8.94,127.2,26.66,46.71,20.52,80.13,55.72,91.71,96.56a12.69,12.69,0,0,1-8.74,15.65A12.41,12.41,0,0,1,743,771.92Z"/><rect class="cls-5" x="757.53" y="841.2" width="58.25" height="43.1" transform="translate(-270.55 367.3) rotate(-22.53)"/><path class="cls-3" d="M768,897.32a3.51,3.51,0,0,1-3.24-2.16l-16.52-39.82a3.5,3.5,0,0,1,1.9-4.57L804,828.45a3.5,3.5,0,0,1,4.57,1.89l16.52,39.82a3.5,3.5,0,0,1-1.89,4.57l-53.8,22.32A3.56,3.56,0,0,1,768,897.32Zm-11.95-41.43,13.84,33.35,47.33-19.64-13.83-33.34Z"/><path class="cls-1" d="M751.95,750.65H776a27.57,27.57,0,0,1,27.57,27.57v75.64a8.62,8.62,0,0,1-8.62,8.62H733a8.62,8.62,0,0,1-8.62-8.62V778.23a27.57,27.57,0,0,1,27.57-27.57Z" transform="translate(-250.76 354.32) rotate(-22.53)"/><path class="cls-3" d="M764.23,748.2a27.59,27.59,0,0,1,25.48,17l29,69.87A8.62,8.62,0,0,1,814,846.35L756.79,870.1a8.75,8.75,0,0,1-3.3.66,8.65,8.65,0,0,1-8-5.32l-29-69.87a27.58,27.58,0,0,1,14.91-36l22.23-9.22a27.56,27.56,0,0,1,10.56-2.11m0-7h0A34.45,34.45,0,0,0,751,743.84l-22.24,9.23a34.56,34.56,0,0,0-18.68,45.18l29,69.87a15.6,15.6,0,0,0,20.42,8.44l57.24-23.75a15.64,15.64,0,0,0,8.45-20.41l-29-69.87a34.48,34.48,0,0,0-31.94-21.33Z"/><path class="cls-5" d="M761.52,859.44l-29-69.87a27.58,27.58,0,0,1,14.91-36l11.7-4.85a26.93,26.93,0,0,0-5.47,1.63l-22.23,9.22a27.58,27.58,0,0,0-14.91,36l29,69.87a8.63,8.63,0,0,0,11.27,4.66l12.9-5.35A8.63,8.63,0,0,1,761.52,859.44Z"/><rect class="cls-5" x="752.14" y="794.01" width="26.91" height="32.62" transform="translate(-252.07 355.23) rotate(-22.53)"/><path class="cls-3" d="M759.42,834a3.51,3.51,0,0,1-3.23-2.16l-12.5-30.13a3.5,3.5,0,0,1,1.89-4.58l24.86-10.31a3.48,3.48,0,0,1,2.67,0,3.52,3.52,0,0,1,1.9,1.89l12.5,30.13a3.51,3.51,0,0,1-1.89,4.58l-24.86,10.31A3.45,3.45,0,0,1,759.42,834Zm-7.93-31.74L761.31,826l18.39-7.63-9.82-23.66Z"/><line class="cls-7" x1="776.5" y1="866.5" x2="783.26" y2="884.97"/><path class="cls-3" d="M783.26,888.47a3.5,3.5,0,0,1-3.28-2.3l-6.77-18.47a3.5,3.5,0,1,1,6.58-2.4l6.76,18.46a3.5,3.5,0,0,1-2.08,4.49A3.44,3.44,0,0,1,783.26,888.47Z"/><line class="cls-7" x1="794.5" y1="858.5" x2="803.01" y2="879.3"/><path class="cls-3" d="M803,882.8a3.5,3.5,0,0,1-3.24-2.17l-8.51-20.8a3.5,3.5,0,0,1,6.48-2.66l8.51,20.8a3.51,3.51,0,0,1-1.92,4.57A3.41,3.41,0,0,1,803,882.8Z"/><path class="cls-2" d="M235.78,446.57c-7.38-28.62,11.85-40.86,17.6-25.94s10,35.83,15.41,43.65c7,10.16-13.19,51.37-54.6,34s-30.64-68.72-7.31-80.76c0,0,10.27,37.4,22.17,33.37S235.78,446.57,235.78,446.57Z"/><path class="cls-3" d="M233.43,505.93a53.27,53.27,0,0,1-20.59-4.41c-18.34-7.68-29.3-23-30.06-42.17-.75-18.91,8.71-37.81,22.5-44.93a3.51,3.51,0,0,1,5,2.19c2.79,10.15,9.49,27.46,15.58,30.69a2.39,2.39,0,0,0,2.08.29c1.86-.62,3.19-1.13,4.13-1.51-4.44-19,2.06-32.07,10.64-34.83,5.85-1.87,11.33,1.31,14,8.12,2.31,6,4.36,12.87,6.35,19.52,2.8,9.4,5.7,19.11,8.67,23.39,4.27,6.16,1.38,18.68-6.58,28.51A39.77,39.77,0,0,1,233.43,505.93Zm-28.57-83c-9.36,7.18-15.65,21.82-15.08,36.11.38,9.57,4.23,27,25.76,36,25,10.47,39.17-2.59,44.11-8.69,6.65-8.21,8.15-17.39,6.27-20.11-3.61-5.19-6.53-15-9.63-25.38-1.94-6.51-4-13.25-6.17-19-.73-1.88-2.38-4.91-5.29-4-4.61,1.48-9.52,10.73-6.08,26.07a3.79,3.79,0,0,1,1.61,2.62c.5,3.72-3.52,5.36-10.19,7.62a9.49,9.49,0,0,1-7.62-.74C214.06,449,207.59,431.52,204.86,423Zm30.71,27.11h0Z"/><path class="cls-2" d="M277.55,562.65s21.75-20.78,37.58,2.57,11.47,34.78,0,37.81"/><path class="cls-3" d="M315.11,606.53a3.5,3.5,0,0,1-.89-6.89c3.68-1,6.06-2.84,7.09-5.57,2.1-5.61-1.12-15.16-9.08-26.89-3.88-5.72-8.42-8.91-13.5-9.46-9.66-1-18.67,7.38-18.76,7.47a3.5,3.5,0,0,1-4.83-5.07c.45-.44,11.4-10.74,24.3-9.36,7.23.77,13.49,5,18.59,12.49,9.53,14.06,12.84,25.25,9.83,33.27-1.84,4.91-5.94,8.33-11.85,9.89A3.48,3.48,0,0,1,315.11,606.53Z"/><path class="cls-2" d="M327,563.62c3.17,27.19-17.75,9.2-23-2.89s-2-19.56,10.36-19.81c6.21-.12,22.36,6.49,28.79,29.31s-15.26,26.36-15.26,26.36"/><path class="cls-3" d="M327.91,600.09a3.5,3.5,0,0,1-.56-7c.06,0,7.73-1.38,11.43-7.26,2.37-3.74,2.71-8.68,1-14.69-5.67-20.11-19.57-26.76-25.22-26.76h-.13c-3,.06-6.9.65-8.48,3.1s-1.05,6.53,1.25,11.81c3.5,8,12.58,15.72,15.31,15,.45-.12,2-2.23,1-10.29a3.5,3.5,0,1,1,7-.81c1.21,10.42-.86,16.43-6.15,17.86-8.85,2.37-20.2-11.27-23.54-19s-3.6-13.9-.73-18.39c2.6-4,7.39-6.18,14.23-6.32h.22c7.66,0,25.19,7.68,32,31.86,2.27,8,1.64,14.9-1.87,20.4C339.23,598.2,328.91,600,328.47,600A3.64,3.64,0,0,1,327.91,600.09Z"/><circle class="cls-8" cx="807.76" cy="547.64" r="25"/><path class="cls-3" d="M807.78,576.14a28.87,28.87,0,0,1-3.2-.18,28.48,28.48,0,1,1,3.2.18Zm-.06-50a21.5,21.5,0,1,0,21.4,23.9h0a21.51,21.51,0,0,0-19-23.77A22.29,22.29,0,0,0,807.72,526.14Z"/><path class="cls-5" d="M749.11,111.64C811.48,163.07,854.45,238.38,867,318.24S861.75,483,818.17,551a8.52,8.52,0,0,1-14.35-9.19c41.37-64.63,58.26-145.17,46.34-221s-52.7-147.27-111.9-196.09l-23.77-19.31"/><path class="cls-3" d="M811,558.47a12,12,0,0,1-1.46-.09A12,12,0,0,1,800.87,540c40.91-63.91,57.62-143.57,45.84-218.53S794.59,175.77,736,127.49L712.28,108.2a3.5,3.5,0,0,1,4.42-5.44l23.77,19.31c59.87,49.37,101.11,121.64,113.15,198.27s-5,158.06-46.85,223.4a5,5,0,0,0,3.6,7.69,5,5,0,0,0,4.85-2.28c43.13-67.38,60.74-151.34,48.32-230.37S808.6,165.24,746.88,114.34a3.5,3.5,0,0,1,4.45-5.4c63,52,106.44,128.06,119.13,208.75s-5.3,166.44-49.34,235.24A12.11,12.11,0,0,1,811,558.47Z"/><line class="cls-5" x1="738.9" y1="103.19" x2="733.38" y2="98.54"/><path class="cls-3" d="M738.9,106.69a3.52,3.52,0,0,1-2.26-.82l-5.51-4.65a3.5,3.5,0,1,1,4.51-5.35l5.51,4.64a3.5,3.5,0,0,1-2.25,6.18Z"/><line class="cls-5" x1="705.22" y1="98.4" x2="691.32" y2="87.78"/><path class="cls-3" d="M705.22,101.9a3.44,3.44,0,0,1-2.12-.72L689.2,90.57A3.5,3.5,0,0,1,693.44,85l13.91,10.62a3.5,3.5,0,0,1-2.13,6.28Z"/></g></svg>