<svg xmlns="http://www.w3.org/2000/svg" width="1000" height="1000" viewBox="0 0 1000 1000">
  <g id="b8aa7f4b-1f13-4041-868f-1e9c0d5dcf81" data-name="Account Deactivated">
    <g id="a67cd2f0-d840-4fa6-b340-76b852b9e4b1" data-name="Computer">
      <g>
        <rect x="226.36" y="457" width="532.11" height="329.19" rx="37.91" style="fill: #f0f0f0"/>
        <path d="M720.55,457a37.91,37.91,0,0,1,37.91,37.91V748.28a37.91,37.91,0,0,1-37.91,37.91H264.27a37.91,37.91,0,0,1-37.91-37.91V494.91A37.91,37.91,0,0,1,264.27,457H720.55m0-7H264.27a45,45,0,0,0-44.91,44.91V748.28a45,45,0,0,0,44.91,44.91H720.55a45,45,0,0,0,44.91-44.91V494.91A45,45,0,0,0,720.55,450Z" style="fill: #4c3133"/>
      </g>
      <g>
        <rect x="249.65" y="482.5" width="483.99" height="277.73" rx="33.21" style="fill: #fff"/>
        <path d="M700.43,763.73H282.86A36.75,36.75,0,0,1,246.15,727V515.71A36.75,36.75,0,0,1,282.86,479H700.43a36.75,36.75,0,0,1,36.71,36.71V727A36.75,36.75,0,0,1,700.43,763.73ZM282.86,486a29.75,29.75,0,0,0-29.71,29.71V727a29.75,29.75,0,0,0,29.71,29.71H700.43A29.75,29.75,0,0,0,730.14,727V515.71A29.75,29.75,0,0,0,700.43,486Z" style="fill: #4c3133"/>
      </g>
      <rect x="277.5" y="548.5" width="147" height="36" rx="18" style="fill: #f0f0f0"/>
      <rect x="278" y="611" width="147" height="36" rx="18" style="fill: #f0f0f0"/>
      <rect x="278" y="668" width="147" height="36" rx="18" style="fill: #f0f0f0"/>
      <rect x="581.23" y="630" width="118.55" height="29.03" rx="14.52" style="fill: #f0f0f0"/>
      <rect x="581.23" y="675.97" width="118.55" height="29.03" rx="14.52" style="fill: #f0f0f0"/>
      <circle cx="641" cy="565" r="50" style="fill: #f0f0f0"/>
      <rect x="462" y="584" width="130" height="42" rx="11.14" style="fill: #f0f0f0"/>
      <g>
        <path d="M174,781.5H807a0,0,0,0,1,0,0v.61A22.89,22.89,0,0,1,784.11,805H196.89A22.89,22.89,0,0,1,174,782.11v-.61A0,0,0,0,1,174,781.5Z" style="fill: #f0f0f0"/>
        <path d="M807,781.5v.61A22.89,22.89,0,0,1,784.11,805H196.89A22.89,22.89,0,0,1,174,782.11v-.61H807m0-7H174a7,7,0,0,0-7,7v.61A29.93,29.93,0,0,0,196.89,812H784.11A29.93,29.93,0,0,0,814,782.11v-.61a7,7,0,0,0-7-7Z" style="fill: #4c3133"/>
      </g>
      <path d="M202.89,796a22.9,22.9,0,0,1-21.3-14.5H174v.61A22.89,22.89,0,0,0,196.89,805H784.11a22.91,22.91,0,0,0,21.52-15.07A22.79,22.79,0,0,1,790.11,796Z" style="fill: #e2e2e0"/>
      <path d="M603.5,528h-18a3.5,3.5,0,0,1,0-7h18a3.5,3.5,0,0,1,0,7Z" style="fill: #4c3133"/>
    </g>
    <g id="e9482836-a687-4071-b032-4fae3b871241" data-name="leaves">
      <g>
        <g>
          <path d="M174.2,624.09s-19.55,4.58-29.5-14.39,6-42,6-42,22,3.08,22.89,17c0,0-7.57,1.43-5,8s8.53-.28,8.53-.28S189.64,606.37,174.2,624.09Z" style="fill: #e2e2e0"/>
          <path d="M169,628.13a30.26,30.26,0,0,1-27.44-16.81c-10.81-20.61,5.49-44.57,6.19-45.58a3.5,3.5,0,0,1,3.36-1.47c1,.14,24.88,3.67,25.9,20.22a3.51,3.51,0,0,1-2.84,3.66,4.34,4.34,0,0,0-2.55,1.48,2.48,2.48,0,0,0,.17,1.85,5.33,5.33,0,0,0,.26.56,8.14,8.14,0,0,0,2.37-1.86,3.49,3.49,0,0,1,2.61-1.2h0a3.51,3.51,0,0,1,2.61,1.15c.14.16,14.42,16.43-2.86,36.26A3.51,3.51,0,0,1,175,627.5,26.69,26.69,0,0,1,169,628.13Zm5.16-4h0Zm-21.84-52.45c-3.29,5.61-11.85,22.53-4.56,36.43,7.38,14.07,20.66,13.35,24.54,12.8,8.5-10.39,6.2-19,4-23.2a8.11,8.11,0,0,1-5.61,1.36c-1.7-.29-4-1.4-5.43-5a8.85,8.85,0,0,1,.23-7.8,9.57,9.57,0,0,1,4-3.76C167.14,575.71,156.9,572.67,152.36,571.64Zm19.9,20.64Z" style="fill: #b9b9b9"/>
        </g>
        <path d="M191.72,645.13a3.52,3.52,0,0,1-1.79-.49c-1.44-.86-35.27-21.42-38.16-57.07a3.5,3.5,0,1,1,7-.57c2.6,32,34.46,51.44,34.78,51.63a3.5,3.5,0,0,1-1.8,6.5Z" style="fill: #b9b9b9"/>
      </g>
      <g>
        <g>
          <path d="M817.64,414.22c8,7.24,21.79,2.28,27.35-6.92s5.27-20.66,4.8-31.41l-.7-15.86c-6.17,11.69-22.48,13-32.61,21.43A27.85,27.85,0,0,0,809,412.88" style="fill: #e2e2e0"/>
          <path d="M827,421.19a17.15,17.15,0,0,1-11.74-4.38,3.5,3.5,0,1,1,4.71-5.18,10.87,10.87,0,0,0,9.06,2.41A18.87,18.87,0,0,0,842,405.49c5.21-8.61,4.7-20.16,4.29-29.44l-.31-7c-4.1,3.33-9.1,5.55-14,7.72s-9.59,4.25-13.27,7.33a24.37,24.37,0,0,0-6.54,27.36,3.5,3.5,0,0,1-6.43,2.75,31.19,31.19,0,0,1,8.48-35.48c4.43-3.71,9.77-6.07,14.92-8.36,7.05-3.13,13.71-6.08,16.84-12a3.51,3.51,0,0,1,6.6,1.48l.7,15.86c.45,10.23,1,22.95-5.3,33.37A26.11,26.11,0,0,1,830.06,421,20.92,20.92,0,0,1,827,421.19Z" style="fill: #b9b9b9"/>
        </g>
        <path d="M801.52,420.64a3.51,3.51,0,0,1-1.11-6.83,55.6,55.6,0,0,0,32.46-29.14,3.5,3.5,0,0,1,6.36,2.92,62.75,62.75,0,0,1-36.6,32.87A3.58,3.58,0,0,1,801.52,420.64Z" style="fill: #b9b9b9"/>
      </g>
    </g>
    <g id="b907c98a-499c-456e-b8b6-3366c76e9d69" data-name="pattern">
      <g>
        <g>
          <line x1="826.05" y1="641.4" x2="830.56" y2="669.48" style="fill: #e2e2e0"/>
          <path d="M830.56,673a3.5,3.5,0,0,1-3.45-3L822.6,642a3.5,3.5,0,0,1,6.91-1.11L834,668.92a3.51,3.51,0,0,1-2.9,4A3.64,3.64,0,0,1,830.56,673Z" style="fill: #4c3133"/>
        </g>
        <g>
          <line x1="841.48" y1="652.76" x2="814.49" y2="658.34" style="fill: #e2e2e0"/>
          <path d="M814.48,661.84a3.5,3.5,0,0,1-.7-6.93l27-5.58a3.5,3.5,0,1,1,1.42,6.85l-27,5.59A4.39,4.39,0,0,1,814.48,661.84Z" style="fill: #4c3133"/>
        </g>
      </g>
      <g>
        <g>
          <line x1="238.01" y1="293.49" x2="242.51" y2="321.57" style="fill: #e2e2e0"/>
          <path d="M242.51,325.07a3.5,3.5,0,0,1-3.45-2.95L234.55,294a3.5,3.5,0,0,1,6.91-1.11L246,321a3.49,3.49,0,0,1-2.9,4A2.71,2.71,0,0,1,242.51,325.07Z" style="fill: #4c3133"/>
        </g>
        <g>
          <line x1="253.43" y1="304.85" x2="226.44" y2="310.43" style="fill: #e2e2e0"/>
          <path d="M226.44,313.93a3.5,3.5,0,0,1-.71-6.93l27-5.58a3.5,3.5,0,0,1,1.41,6.86l-27,5.58A3.49,3.49,0,0,1,226.44,313.93Z" style="fill: #4c3133"/>
        </g>
      </g>
      <g>
        <g>
          <line x1="708.7" y1="213.22" x2="713.21" y2="241.3" style="fill: #e2e2e0"/>
          <path d="M713.2,244.8a3.5,3.5,0,0,1-3.45-2.94l-4.51-28.09a3.5,3.5,0,0,1,6.92-1.11l4.5,28.09a3.47,3.47,0,0,1-3.46,4.05Z" style="fill: #4c3133"/>
        </g>
        <g>
          <line x1="724.13" y1="224.58" x2="697.13" y2="230.16" style="fill: #e2e2e0"/>
          <path d="M697.13,233.66a3.5,3.5,0,0,1-.71-6.93l27-5.58a3.5,3.5,0,0,1,1.42,6.86l-27,5.58A3.49,3.49,0,0,1,697.13,233.66Z" style="fill: #4c3133"/>
        </g>
      </g>
    </g>
    <g id="b11a137b-0b22-4c02-86cf-da2cc9c2ccf4" data-name=" ghost">
      <g>
        <path d="M457.65,715.71c-53.19,11-115.68-26-104.63-86.81,6.62-36.41,42.17-42.63,57.17-72.87,15.64-31.51,17.5-68.74,14.4-103.2-4.25-47.1-16.74-93.91-12.59-141s30.78-97,76.6-108.67c30.91-7.9,64.58,3.64,88.73,24.48s39.85,49.94,50.72,79.93c44.85,123.68,8.38,272.69-88.53,361.67C516.12,690.71,488.76,709.24,457.65,715.71Z" style="fill: #c5e6f1"/>
        <path d="M508.82,200.64c24.74,0,49.56,10.62,68.51,27,24.15,20.85,39.85,49.94,50.72,79.93,44.86,123.68,8.38,272.69-88.53,361.67-23.4,21.49-50.76,40-81.87,46.49a94.23,94.23,0,0,1-19.16,1.94c-47.81,0-95.21-35.12-85.47-88.75,6.62-36.41,42.17-42.63,57.17-72.87,15.64-31.51,17.5-68.74,14.4-103.2-4.25-47.1-16.74-93.91-12.59-141s30.78-97,76.6-108.67a81.5,81.5,0,0,1,20.22-2.5m0-7h0a88.82,88.82,0,0,0-21.95,2.71c-23.07,5.9-43.15,21.12-58.07,44-13.08,20.09-21.53,45.24-23.78,70.82-2.84,32.29,2,64.58,6.6,95.81,2.26,15.25,4.61,31,6,46.45,3.68,40.93-.8,73.47-13.7,99.46-5.81,11.71-15.18,19.52-25.1,27.79-14,11.66-28.47,23.72-32.68,46.93-4.3,23.65,1.28,45.55,16.13,63.34a91.93,91.93,0,0,0,34,24.92,106.81,106.81,0,0,0,42.25,8.75,101.12,101.12,0,0,0,20.58-2.09c28.45-5.91,56.32-21.67,85.19-48.18,99.06-91,136.22-242.79,90.38-369.22-13.26-36.55-30.51-63.65-52.73-82.84-21.12-18.23-47.76-28.68-73.09-28.68Z" style="fill: #4c3133"/>
      </g>
      <path d="M628.05,307.55c-10.87-30-26.57-59.08-50.72-79.93a116.18,116.18,0,0,0-18.75-13.18c21.2,20.39,35.41,47.35,45.47,75.11,44.85,123.68,8.38,272.69-88.53,361.67-23.4,21.49-50.76,40-81.87,46.49a98.56,98.56,0,0,1-63.75-8.65c20.73,22.64,55.9,33.26,87.75,26.65,31.11-6.47,58.47-25,81.87-46.49C636.43,580.24,672.9,431.23,628.05,307.55Z" style="fill: #81c4d4"/>
      <g>
        <rect x="351.5" y="293.5" width="347" height="244" rx="15.67" style="fill: #fff"/>
        <path d="M682.83,293.5a15.68,15.68,0,0,1,15.67,15.67V521.83a15.68,15.68,0,0,1-15.67,15.67H367.17a15.68,15.68,0,0,1-15.67-15.67V309.17a15.68,15.68,0,0,1,15.67-15.67H682.83m0-7H367.17a22.7,22.7,0,0,0-22.67,22.67V521.83a22.7,22.7,0,0,0,22.67,22.67H682.83a22.7,22.7,0,0,0,22.67-22.67V309.17a22.7,22.7,0,0,0-22.67-22.67Z" style="fill: #4c3133"/>
      </g>
      <path d="M412,311.81c-4.15,47.11,8.34,93.92,12.59,141,2.51,27.91,1.77,57.64-6.91,84.67H626c26.59-73.61,28.73-156.27,2-229.95q-2.56-7.08-5.51-14.05H414.73A154.44,154.44,0,0,0,412,311.81Z" style="fill: #f0f0f0"/>
      <path d="M482.28,334.12c-20.4-3.55-54.1,14.19-35.47,45.22s54.09.89,86.91,10.65,91.34-10.65,70-39.91-38.13-29.27-73.6-22.17S482.28,334.12,482.28,334.12Z" style="fill: #e2e2e0"/>
      <path d="M490.26,373.09a3.49,3.49,0,0,1-2.06-.67l-29.26-21.28a3.5,3.5,0,0,1,4.12-5.66l29.26,21.28a3.5,3.5,0,0,1-2.06,6.33Z" style="fill: #fff"/>
      <path d="M461,373.09a3.5,3.5,0,0,1-2.06-6.33l29.26-21.28a3.5,3.5,0,1,1,4.12,5.66l-29.26,21.28A3.54,3.54,0,0,1,461,373.09Z" style="fill: #fff"/>
      <path d="M579.83,370.43a3.49,3.49,0,0,1-2.06-.67l-29.26-21.28a3.5,3.5,0,1,1,4.11-5.67l29.27,21.29a3.5,3.5,0,0,1-2.06,6.33Z" style="fill: #fff"/>
      <path d="M550.57,370.43a3.5,3.5,0,0,1-2.06-6.33l29.26-21.29a3.5,3.5,0,0,1,4.12,5.67l-29.27,21.28A3.49,3.49,0,0,1,550.57,370.43Z" style="fill: #fff"/>
      <path d="M448.5,321a3.5,3.5,0,0,1-1.57-6.63l12-6a3.5,3.5,0,0,1,3.14,6.26l-12,6A3.54,3.54,0,0,1,448.5,321Z" style="fill: #fff"/>
      <path d="M579.5,311a3,3,0,0,1-.73-.08l-14-3a3.5,3.5,0,0,1,1.46-6.84l14,3a3.5,3.5,0,0,1-.73,6.92Z" style="fill: #fff"/>
      <g>
        <path d="M358.54,376.64c8.54-.66,18.91-7.31,11.77-17.07-2.57-3.52-6.91-5.41-11.23-6-9-1.16-20.37-.46-27.69,5.33-2.1,1.66-4.06,4-4,6.63.12,3.57,3.73,5.92,7,7.27A53.14,53.14,0,0,0,358.54,376.64Z" style="fill: #c5e6f1"/>
        <path d="M351.85,353.14a55.94,55.94,0,0,1,7.23.47c4.32.55,8.66,2.44,11.23,6,7.14,9.76-3.23,16.41-11.77,17.07-1.33.1-2.67.15-4,.15a53,53,0,0,1-20.08-4c-3.31-1.35-6.92-3.7-7-7.27-.09-2.67,1.87-5,4-6.63,5.46-4.31,13.17-5.8,20.46-5.8m0-7c-7.1,0-17.16,1.27-24.8,7.31-5.68,4.49-6.74,9.2-6.63,12.36.12,3.35,1.75,9.56,11.38,13.51a60.58,60.58,0,0,0,22.74,4.47c1.51,0,3-.06,4.54-.17,7.18-.55,15.93-4.37,19.27-11.65,1.4-3,2.95-9.23-2.39-16.54-3.5-4.77-9.17-7.89-16-8.77a63.59,63.59,0,0,0-8.12-.52Z" style="fill: #4c3133"/>
      </g>
      <g>
        <path d="M356.54,400.64c8.54-.66,18.91-7.31,11.77-17.07-2.57-3.52-6.91-5.41-11.23-6-9-1.16-20.37-.46-27.69,5.33-2.1,1.66-4.06,4-4,6.63.12,3.57,3.73,5.92,7,7.27A53.14,53.14,0,0,0,356.54,400.64Z" style="fill: #c5e6f1"/>
        <path d="M349.85,377.14a55.94,55.94,0,0,1,7.23.47c4.32.55,8.66,2.44,11.23,6,7.14,9.76-3.23,16.41-11.77,17.07-1.33.1-2.67.15-4,.15a53,53,0,0,1-20.08-4c-3.31-1.35-6.92-3.7-7-7.27-.09-2.67,1.87-5,4-6.63,5.46-4.31,13.17-5.8,20.46-5.8m0-7c-7.1,0-17.16,1.27-24.8,7.31-5.68,4.49-6.74,9.2-6.63,12.36.12,3.35,1.75,9.56,11.38,13.51a60.58,60.58,0,0,0,22.74,4.47c1.51,0,3-.06,4.54-.17,7.18-.55,15.93-4.37,19.27-11.65,1.4-3,2.95-9.23-2.39-16.54-3.5-4.77-9.17-7.89-16-8.77a63.59,63.59,0,0,0-8.12-.52Z" style="fill: #4c3133"/>
      </g>
      <g>
        <path d="M356.54,424.64c8.54-.66,18.91-7.31,11.77-17.07-2.57-3.52-6.91-5.41-11.23-6-9-1.16-20.37-.46-27.69,5.33-2.1,1.66-4.06,4-4,6.63.12,3.57,3.73,5.92,7,7.27A53.14,53.14,0,0,0,356.54,424.64Z" style="fill: #c5e6f1"/>
        <path d="M349.85,401.14a55.94,55.94,0,0,1,7.23.47c4.32.55,8.66,2.44,11.23,6,7.14,9.76-3.23,16.41-11.77,17.07-1.33.1-2.67.15-4,.15a53,53,0,0,1-20.08-4c-3.31-1.35-6.92-3.7-7-7.27-.09-2.67,1.87-5,4-6.63,5.46-4.31,13.17-5.8,20.46-5.8m0-7c-7.1,0-17.16,1.27-24.8,7.31-5.68,4.49-6.74,9.2-6.63,12.36.12,3.35,1.75,9.56,11.38,13.51a60.58,60.58,0,0,0,22.74,4.47c1.51,0,3-.06,4.54-.17,7.18-.55,15.93-4.37,19.27-11.65,1.4-3,2.95-9.23-2.39-16.54-3.5-4.77-9.17-7.89-16-8.77a63.59,63.59,0,0,0-8.12-.52Z" style="fill: #4c3133"/>
      </g>
      <g>
        <path d="M696.57,378.64c-8.54-.66-18.91-7.31-11.77-17.07,2.57-3.52,6.91-5.41,11.23-6,9-1.16,20.37-.46,27.69,5.33,2.1,1.66,4.06,4,4,6.63-.12,3.57-3.73,5.92-7,7.27A53.14,53.14,0,0,1,696.57,378.64Z" style="fill: #c5e6f1"/>
        <path d="M703.26,355.14c7.29,0,15,1.49,20.46,5.8,2.1,1.66,4.06,4,4,6.63-.12,3.57-3.73,5.92-7,7.27a53,53,0,0,1-20.08,4c-1.33,0-2.67-.05-4-.15-8.54-.66-18.91-7.31-11.77-17.07,2.57-3.52,6.91-5.41,11.23-6a55.94,55.94,0,0,1,7.23-.47m0-7a63.59,63.59,0,0,0-8.12.52c-6.81.88-12.49,4-16,8.77-5.34,7.31-3.79,13.5-2.39,16.55,3.35,7.27,12.09,11.09,19.27,11.64,1.5.11,3,.17,4.54.17a60.58,60.58,0,0,0,22.74-4.47c9.63-3.95,11.26-10.16,11.38-13.51.11-3.16-1-7.87-6.63-12.36-7.64-6-17.7-7.31-24.8-7.31Z" style="fill: #4c3133"/>
      </g>
      <g>
        <path d="M698.57,402.64c-8.54-.66-18.91-7.31-11.77-17.07,2.57-3.52,6.91-5.41,11.23-6,9-1.16,20.37-.46,27.69,5.33,2.1,1.66,4.06,4,4,6.63-.12,3.57-3.73,5.92-7,7.27A53.14,53.14,0,0,1,698.57,402.64Z" style="fill: #c5e6f1"/>
        <path d="M705.26,379.14c7.29,0,15,1.49,20.46,5.8,2.1,1.66,4.06,4,4,6.63-.12,3.57-3.73,5.92-7,7.27a53,53,0,0,1-20.08,4c-1.33,0-2.67-.05-4-.15-8.54-.66-18.91-7.31-11.77-17.07,2.57-3.52,6.91-5.41,11.23-6a55.94,55.94,0,0,1,7.23-.47m0-7a63.59,63.59,0,0,0-8.12.52c-6.81.88-12.49,4-16,8.77-5.34,7.31-3.79,13.5-2.39,16.55,3.35,7.27,12.09,11.09,19.27,11.64,1.5.11,3,.17,4.54.17a60.58,60.58,0,0,0,22.74-4.47c9.63-3.95,11.26-10.16,11.38-13.51.11-3.16-1-7.87-6.63-12.36-7.64-6-17.7-7.31-24.8-7.31Z" style="fill: #4c3133"/>
      </g>
      <g>
        <path d="M698.57,426.64c-8.54-.66-18.91-7.31-11.77-17.07,2.57-3.52,6.91-5.41,11.23-6,9-1.16,20.37-.46,27.69,5.33,2.1,1.66,4.06,4,4,6.63-.12,3.57-3.73,5.92-7,7.27A53.14,53.14,0,0,1,698.57,426.64Z" style="fill: #c5e6f1"/>
        <path d="M705.26,403.14c7.29,0,15,1.49,20.46,5.8,2.1,1.66,4.06,4,4,6.63-.12,3.57-3.73,5.92-7,7.27a53,53,0,0,1-20.08,4c-1.33,0-2.67-.05-4-.15-8.54-.66-18.91-7.31-11.77-17.07,2.57-3.52,6.91-5.41,11.23-6a55.94,55.94,0,0,1,7.23-.47m0-7a63.59,63.59,0,0,0-8.12.52c-6.81.88-12.49,4-16,8.77-5.34,7.31-3.79,13.5-2.39,16.55,3.35,7.27,12.09,11.09,19.27,11.64,1.5.11,3,.17,4.54.17a60.58,60.58,0,0,0,22.74-4.47c9.63-3.95,11.26-10.16,11.38-13.51.11-3.16-1-7.87-6.63-12.36-7.64-6-17.7-7.31-24.8-7.31Z" style="fill: #4c3133"/>
      </g>
      <g>
        <path d="M463.88,182.12c20.93-13.09,51.34-16.26,75.38-10.62,10.52,2.46,20.82,6.77,31.62,6.56s22.64-6.88,23.86-17.61c.71-6.31-2.49-12.62-7.24-16.84s-10.85-6.6-17-8.15a79.29,79.29,0,0,0-46.89,2.61c-4,1.51-9.73,2.78-11.69-1.06-1.51-3,.9-6.48,3.68-8.33s6.14-3,8-5.79c2.4-3.5,1.37-8.58-1.52-11.69s-7.2-4.54-11.43-5c-17-1.94-33.36,10.26-40.85,25.69s-7.77,33.37-6.15,50.45Z" style="fill: #c5e6f1"/>
        <path d="M463.66,185.82a3.5,3.5,0,0,1-3.48-3.17c-1.33-14-2.1-34.62,6.48-52.3,8.86-18.24,27.13-29.62,44.4-27.65,5.79.66,10.48,2.77,13.59,6.11,4.21,4.54,5,11.44,1.85,16.06-1.79,2.62-4.39,4.08-6.68,5.37-.82.46-1.6.9-2.3,1.36-1.84,1.22-2.86,3.09-2.49,3.82.45.88,3.12,1,7.34-.63a83.08,83.08,0,0,1,49-2.73c7.92,2,14,4.92,18.48,8.94,6,5.38,9.18,12.8,8.38,19.85-1.43,12.66-15,20.47-27.27,20.71-8.22.15-16-2.08-23.53-4.24-2.94-.85-6-1.72-8.95-2.41-24.44-5.73-53.52-1.7-72.47,10A3.52,3.52,0,0,1,463.66,185.82ZM507,109.47c-15.34,0-28.2,12-34,23.93-5.49,11.32-7.47,24.76-6.26,43.06,20.5-10.85,48.63-14.16,73.36-8.37,3.14.74,6.26,1.63,9.28,2.5,7.37,2.11,14.31,4.13,21.47,4,9.06-.17,19.46-5.77,20.45-14.5.53-4.72-1.8-10-6.08-13.83-3.66-3.25-8.74-5.66-15.54-7.38a76,76,0,0,0-44.81,2.49c-10.7,4-14.64,0-16-2.74-2.4-4.71.63-10,4.86-12.83.91-.61,1.84-1.13,2.74-1.63,1.86-1,3.46-2,4.33-3.22,1.31-1.92.78-5.22-1.2-7.34-2.46-2.65-6.39-3.6-9.25-3.92A28.8,28.8,0,0,0,507,109.47Z" style="fill: #4c3133"/>
      </g>
      <path d="M557,527.5H382a3.5,3.5,0,0,1,0-7H557a3.5,3.5,0,0,1,0,7Z" style="fill: #4c3133"/>
      <path d="M600.57,527H579.5a3.5,3.5,0,0,1,0-7h21.07a3.5,3.5,0,1,1,0,7Z" style="fill: #4c3133"/>
    </g>
  </g>
</svg>
