<svg xmlns="http://www.w3.org/2000/svg" width="1000" height="1000" viewBox="0 0 1000 1000">
  <g id="b3c6f29e-e761-4a1e-96cb-76f90c13b3d3" data-name="Coming Soon">
    <g id="ac2076b9-ad50-4e07-bd7b-d76775c56810" data-name="background">
      <g>
        <path d="M751.31,703.73A246.18,246.18,0,0,0,758.63,644c0-135.65-110-245.61-245.61-245.61s-245.6,110-245.6,245.61a246.18,246.18,0,0,0,7.32,59.69Z" style="fill: #f0f0f0"/>
        <g>
          <path d="M115.75,710a3.49,3.49,0,0,1-3.44-2.87,408.16,408.16,0,0,1,14.09-201,3.5,3.5,0,1,1,6.64,2.21,397.79,397.79,0,0,0-20.28,125.83,402.82,402.82,0,0,0,6.43,71.69,3.46,3.46,0,0,1-3.44,4.12Z" style="fill: #f0f0f0"/>
          <path d="M907.91,573.18a3.5,3.5,0,0,1-3.45-2.94c-1-6.15-2.14-12.35-3.42-18.44a3.5,3.5,0,0,1,6.85-1.44c1.3,6.2,2.47,12.51,3.48,18.76a3.49,3.49,0,0,1-2.9,4A3.43,3.43,0,0,1,907.91,573.18Z" style="fill: #f0f0f0"/>
          <path d="M898.8,531.16a3.51,3.51,0,0,1-3.38-2.58A399.23,399.23,0,0,0,800,359.73a3.5,3.5,0,1,1,5.07-4.82,406.11,406.11,0,0,1,97.14,171.82,3.49,3.49,0,0,1-2.45,4.3A3.3,3.3,0,0,1,898.8,531.16Z" style="fill: #f0f0f0"/>
          <path d="M532.79,236.2h-.12c-4.75-.16-9.58-.24-14.31-.23h0a3.5,3.5,0,0,1,0-7c4.84,0,9.74.07,14.57.23a3.5,3.5,0,0,1-.12,7Z" style="fill: #f0f0f0"/>
          <path d="M275.66,312a3.5,3.5,0,0,1-2.06-6.33,403.37,403.37,0,0,1,216.09-76.3,3.5,3.5,0,0,1,.37,7,396.35,396.35,0,0,0-212.35,75A3.48,3.48,0,0,1,275.66,312Z" style="fill: #f0f0f0"/>
          <path d="M782.32,547.76a3.51,3.51,0,0,1-3.29-2.31,282.72,282.72,0,0,0-47.29-82.9,3.5,3.5,0,0,1,5.41-4.44,289.92,289.92,0,0,1,48.46,84.95,3.5,3.5,0,0,1-2.09,4.48A3.39,3.39,0,0,1,782.32,547.76Z" style="fill: #f0f0f0"/>
          <path d="M683.24,415.06a3.54,3.54,0,0,1-2.09-.69A282,282,0,0,0,598.45,372a3.5,3.5,0,1,1,2.12-6.67,289.31,289.31,0,0,1,84.76,43.47,3.5,3.5,0,0,1-2.09,6.31Z" style="fill: #f0f0f0"/>
          <path d="M560.59,362.65a3,3,0,0,1-.59,0c-7.91-1.34-16-2.36-24-3a3.5,3.5,0,1,1,.58-7c8.22.69,16.51,1.74,24.61,3.11a3.5,3.5,0,0,1-.58,6.95Z" style="fill: #f0f0f0"/>
          <path d="M373.05,394.38a3.5,3.5,0,0,1-1.69-6.56,291.25,291.25,0,0,1,134.46-36.17h.07a3.5,3.5,0,0,1,.08,7,284.3,284.3,0,0,0-131.22,35.29A3.48,3.48,0,0,1,373.05,394.38Z" style="fill: #f0f0f0"/>
          <path d="M231.19,707.45a3.51,3.51,0,0,1-3.42-2.76,292.89,292.89,0,0,1,9-156.4,3.5,3.5,0,0,1,6.62,2.27,285.9,285.9,0,0,0-8.74,152.64,3.51,3.51,0,0,1-2.67,4.17A3.82,3.82,0,0,1,231.19,707.45Z" style="fill: #f0f0f0"/>
          <path d="M570.07,311.53a3.23,3.23,0,0,1-.61-.06,330.63,330.63,0,0,0-40.65-4.57,3.5,3.5,0,0,1,.35-7,339.17,339.17,0,0,1,41.52,4.67,3.5,3.5,0,0,1-.61,6.95Z" style="fill: #f0f0f0"/>
          <path d="M529,306.9h-.18c-5.53-.28-11.15-.42-16.72-.42a3.5,3.5,0,0,1,0-7c5.68,0,11.42.15,17.07.43a3.5,3.5,0,0,1-.17,7Z" style="fill: #f0f0f0"/>
          <path d="M197.32,532.38a3.64,3.64,0,0,1-1.12-.18,3.51,3.51,0,0,1-2.2-4.44c2.48-7.35,5.26-14.71,8.25-21.87a3.5,3.5,0,0,1,6.46,2.69c-2.93,7-5.65,14.22-8.08,21.42A3.49,3.49,0,0,1,197.32,532.38Z" style="fill: #f0f0f0"/>
        </g>
      </g>
      <path d="M954,710.24H57.16a3.5,3.5,0,1,1,0-7H954a3.5,3.5,0,0,1,0,7Z" style="fill: #f0f0f0"/>
    </g>
    <g id="a6d78d98-1c40-4d41-aa93-64ead86df4dc" data-name="clouds">
      <g>
        <path d="M822.83,430.58S828.64,405,847.22,405s22.07,20.9,22.07,20.9,20.9,1.17,20.9,12.78S876.25,448,876.25,448H807.73S795,435.22,822.83,430.58Z" style="fill: #fff"/>
        <path d="M847.22,405c18.58,0,22.07,20.9,22.07,20.9s20.9,1.17,20.9,12.78c0,8.29-7.11,9.48-11.17,9.48a18.62,18.62,0,0,1-2.77-.19H807.73s-12.77-12.78,15.1-17.42c0,0,5.81-25.55,24.39-25.55m0-7c-18.53,0-26.92,17.88-29.89,26.5-10.69,2.44-16.88,6.7-18.89,13-2.62,8.18,3.62,14.74,4.34,15.46a7,7,0,0,0,5,2.05h68a28.17,28.17,0,0,0,3.24.19c11,0,18.17-6.47,18.17-16.48,0-12.17-12.36-17.48-22.35-19.18-3.22-9.4-11.49-21.5-27.62-21.5Z" style="fill: #4c3133"/>
      </g>
      <g>
        <path d="M801.11,292.65c-1-12.89-21.81-15.86-28.74-9.91,0,0-5-43.62-40.64-49.56s-52.54,3-69.39,29.73c0,0-28.74-5.94-27.75,19.83,0,0-34.7,0-33.71,14.87s21.81,11.89,21.81,11.89l170.49-1S802.1,305.54,801.11,292.65Z" style="fill: #f0f0f0"/>
        <path d="M712.76,231.41a116.93,116.93,0,0,1,19,1.77c35.68,5.94,40.64,49.56,40.64,49.56,2.27-1.95,6-2.94,10.09-2.94,8.35,0,18,4.18,18.65,12.85,1,12.89-7.93,15.86-7.93,15.86l-170.49,1a32.83,32.83,0,0,1-4.15.24c-6.12,0-16.95-1.52-17.66-12.13-1-14.87,33.71-14.87,33.71-14.87-.68-17.64,12.56-20.42,21-20.42a37.15,37.15,0,0,1,6.76.59c13.55-21.51,27.09-31.5,50.42-31.5m0-7h0c-12.86,0-23.55,2.89-32.69,8.81-7.54,4.89-14.35,12-21.22,22.22-1-.07-2.09-.12-3.27-.12-9.09,0-16.5,2.7-21.41,7.81A23.42,23.42,0,0,0,628,276c-8.7.65-22.85,2.85-29.78,10.25a15.45,15.45,0,0,0-4.3,11.82c.78,11.69,10,18.67,24.64,18.67a43.09,43.09,0,0,0,4.6-.24l170.08-1a7.37,7.37,0,0,0,2.18-.36c5.23-1.75,13.8-8.56,12.69-23-1-12.68-13.63-19.31-25.63-19.31a29.47,29.47,0,0,0-4.87.39,85.93,85.93,0,0,0-5.87-16.08c-8.5-17.36-21.93-28-38.84-30.84a123.47,123.47,0,0,0-20.12-1.86Z" style="fill: #4c3133"/>
      </g>
      <path d="M614.79,298.83a40.24,40.24,0,0,1-13.85-.76c1.4,14.33,21.75,11.43,21.75,11.43l170.49-1s6.47-2.16,7.78-10.76Z" style="fill: #e2e2e0"/>
      <g>
        <path d="M421.51,438.21s73.62,0,71.51,31.55S446.75,495,446.75,495L85,492.9s-18.93-6.31-16.83-33.66,46.27-33.65,61-21c0,0,11.6-106,86.3-123.65,83.28-19.66,134.18,20.82,147.16,81.59C362.62,396.15,423.61,383.53,421.51,438.21Z" style="fill: #fff"/>
        <path d="M255.84,309.55c59.42,0,96,36.37,106.78,86.6A78.18,78.18,0,0,1,377,394.89c17.89,0,46,5.9,44.55,43.32,0,0,73.62,0,71.51,31.55-1.5,22.53-24.46,25.76-37.46,25.76a68.14,68.14,0,0,1-8.81-.52L85,492.9s-18.93-6.31-16.83-33.66C69.58,440.85,90,432,107.74,432c8.62,0,16.6,2.1,21.42,6.23,0,0,11.6-106,86.3-123.65a176,176,0,0,1,40.38-5m0-7a183.58,183.58,0,0,0-42,5.2c-18.41,4.34-34.74,14-48.52,28.79-10.81,11.59-20.06,26.3-27.48,43.72a229.12,229.12,0,0,0-14.1,47.16,49.86,49.86,0,0,0-16-2.44c-21.85,0-44.85,11.58-46.56,33.73-1.27,16.58,4.4,26.71,9.39,32.28a30.87,30.87,0,0,0,12.21,8.55,7.26,7.26,0,0,0,2.17.36L446.28,502a81,81,0,0,0,9.28.52c26.88,0,43.08-11.77,44.45-32.29a25.12,25.12,0,0,0-7-19.2c-7.93-8.48-22.53-14.38-43.41-17.54a211.42,211.42,0,0,0-21.11-2.07c-.71-12.16-4.63-22-11.7-29.37-11.26-11.71-27.85-14.16-39.79-14.16-3.41,0-6.49.2-9,.45-6.37-24.37-18.71-44.89-35.91-59.64-19.95-17.11-46.31-26.15-76.21-26.15Z" style="fill: #4c3133"/>
      </g>
      <path d="M465.75,483,104,480.9s-18.93-6.31-16.83-33.66a23.93,23.93,0,0,1,5-13c-12.41,3.69-23,11.95-24,25C66.06,486.59,85,492.9,85,492.9L446.75,495s31.44,4.49,42.53-13.05A72.21,72.21,0,0,1,465.75,483Z" style="fill: #f0f0f0"/>
    </g>
    <g id="a24538b3-55d0-493c-976c-cab6c96061bf" data-name=" ghost">
      <g>
        <path d="M440.19,753.23S457.78,708,448,659s65.93-67.3,91.57-24.47,29.3,113.79,29.3,113.79l-6.1,34.26Z" style="fill: #c5e6f1"/>
        <path d="M495.1,610.53c17.09,0,34.54,7.41,44.48,24,25.64,42.82,29.3,113.79,29.3,113.79l-6.1,34.26L440.19,753.23S457.78,708,448,659c-6-30,20.1-48.48,47.09-48.48m0-7v0c-18.22,0-35.13,7.36-45.23,19.67-8.5,10.36-11.52,23.22-8.73,37.18,9.23,46.25-7.31,89.88-7.48,90.32a7,7,0,0,0,4.89,9.33L561.14,789.4a7,7,0,0,0,8.53-5.58l6.1-34.26a7,7,0,0,0,.1-1.59c-.15-3-4-73.21-30.28-117-10.28-17.16-29.15-27.41-50.48-27.41Z" style="fill: #4c3133"/>
      </g>
      <path d="M568.88,748.33s-3.66-71-29.3-113.79c-13.66-22.82-41.53-28.27-63.11-21,17.6-.48,35.86,6.85,46.11,24,25.64,42.82,29.3,113.79,29.3,113.79L547,778.81l15.8,3.78Z" style="fill: #81c4d4"/>
      <g>
        <line x1="290.52" y1="599.05" x2="435.8" y2="752" style="fill: #c5e6f1"/>
        <path d="M435.81,755.5a3.47,3.47,0,0,1-2.54-1.09L288,601.46a3.5,3.5,0,0,1,5.08-4.82l145.28,153a3.49,3.49,0,0,1-2.53,5.91Z" style="fill: #4c3133"/>
      </g>
      <g>
        <ellipse cx="406.75" cy="720.55" rx="19.09" ry="23.22" transform="matrix(0.71, -0.7, 0.7, 0.71, -389.08, 494.08)" style="fill: #c5e6f1"/>
        <path d="M410.88,745.33a28.86,28.86,0,0,1-20.09-8.79c-10.4-10.43-11.71-26.09-2.91-34.9a20.56,20.56,0,0,1,14.75-5.87h0a28.86,28.86,0,0,1,20.09,8.79c10.4,10.43,11.71,26.09,2.91,34.9h0A20.56,20.56,0,0,1,410.88,745.33Zm-8.25-42.56a13.5,13.5,0,0,0-9.8,3.81c-6.07,6.09-4.77,17.31,2.92,25a21.84,21.84,0,0,0,15.13,6.74,13.5,13.5,0,0,0,9.8-3.81h0c6.07-6.09,4.77-17.31-2.92-25A21.84,21.84,0,0,0,402.63,702.77Z" style="fill: #4c3133"/>
      </g>
      <path d="M282,819.13a3.62,3.62,0,0,1-1.42-.3,3.5,3.5,0,0,1-1.77-4.62c.13-.31,13.43-31.62-3.77-80.63-12.26-34.93-8.24-70.08-2.7-93.43,6-25.22,14.74-42,15.11-42.73a3.5,3.5,0,0,1,6.2,3.26c-.35.66-34.41,66.77-12,130.59,18.2,51.81,4.17,84.42,3.56,85.78A3.49,3.49,0,0,1,282,819.13Z" style="fill: #4c3133"/>
      <path d="M502.27,682.35c.29-16.18-12.72-27.71-23.89-22.14s-29.46,3.85-29.46,3.85a141.39,141.39,0,0,1,2.09,29.8S502,698.53,502.27,682.35Z" style="fill: #81c4d4"/>
      <g>
        <path d="M472,593.41c15.34-5.2,35.22-2.88,49.69,4,6.33,3,12.24,7.16,19.16,8.56s15.49-1.09,17.9-7.6c1.42-3.84.33-8.22-2.05-11.52s-5.92-5.65-9.61-7.49a52.9,52.9,0,0,0-30.3-5c-2.8.37-6.63.36-7.29-2.31-.51-2.06,1.56-3.92,3.61-4.67s4.39-1,6-2.48c2.06-1.84,2.18-5.16.81-7.5a11.66,11.66,0,0,0-6.52-4.74c-10.58-3.62-22.84,1.68-30,10.24s-10,19.7-11.6,30.57Z" style="fill: #c5e6f1"/>
        <path d="M544.71,609.88a22.92,22.92,0,0,1-4.57-.45c-5.42-1.09-10.13-3.63-14.69-6.09-1.81-1-3.53-1.9-5.29-2.74-14.43-6.89-33.19-8.47-46.79-4a3.5,3.5,0,0,1-5-3.64c1.3-9.06,4-22.26,12.38-32.31,8.72-10.48,22.62-15.13,33.78-11.32,3.88,1.33,6.79,3.5,8.41,6.29,2.3,4,1.66,9.05-1.49,11.88a13.4,13.4,0,0,1-5.53,2.65c-.58.17-1.12.33-1.6.5a4.44,4.44,0,0,0-.69.34,12.81,12.81,0,0,0,2.7-.11,56.57,56.57,0,0,1,32.33,5.34c4.93,2.45,8.49,5.26,10.88,8.57,3.29,4.56,4.23,10.09,2.49,14.78C559.4,606.67,551.87,609.88,544.71,609.88Zm-54.05-22.82a76.87,76.87,0,0,1,32.52,7.22c1.91.92,3.78,1.93,5.59,2.9,4.3,2.31,8.35,4.5,12.75,5.39,5.34,1.08,12.18-.68,13.93-5.39.91-2.46.29-5.62-1.61-8.25-1.71-2.37-4.43-4.47-8.33-6.41a49.48,49.48,0,0,0-28.28-4.66c-8.35,1.11-10.57-2.62-11.15-4.94-1-4,2.17-7.45,5.8-8.79.71-.27,1.41-.47,2.08-.66a8.13,8.13,0,0,0,2.79-1.14,2.73,2.73,0,0,0,.13-3.14c-1-1.66-3.06-2.65-4.63-3.19-9.46-3.24-20.31,2.16-26.15,9.17-4.78,5.75-7.92,13.1-9.92,23.43A66.26,66.26,0,0,1,490.66,587.06Z" style="fill: #4c3133"/>
      </g>
      <path d="M481.65,652.72H471.58a3.5,3.5,0,1,1,0-7h10.07a3.5,3.5,0,0,1,0,7Z" style="fill: #4c3133"/>
      <ellipse cx="471.78" cy="674.67" rx="4.15" ry="4.04" transform="translate(-30.74 22.57) rotate(-2.65)" style="fill: #4c3133"/>
    </g>
    <g id="a900f565-f2e7-409d-823e-895bb092e433" data-name="boat">
      <g>
        <path d="M362.55,757.23c6.46,28.61,17.37,53.48,34.19,73.41H672.65c16.48-19.46,27.26-44.13,33-73.41Z" style="fill: #f0f0f0"/>
        <path d="M705.62,757.23h0m0,0c-5.71,29.28-16.49,53.95-33,73.41H396.74c-16.82-19.93-27.73-44.8-34.19-73.41H705.62m0-7H362.55a7,7,0,0,0-6.83,8.54c7.07,31.33,18.74,56.32,35.67,76.39a7,7,0,0,0,5.35,2.48H672.65a7,7,0,0,0,5.35-2.47c16.81-19.87,28.4-45.56,34.44-76.37a6.81,6.81,0,0,0,.18-1.57,7,7,0,0,0-7-7Zm0,14Z" style="fill: #4c3133"/>
      </g>
      <path d="M689.67,757.23a169.87,169.87,0,0,1-13.28,35.26,46.41,46.41,0,0,1-41.2,25.15H387.06a136.13,136.13,0,0,0,9.68,13H672.65c16.48-19.46,27.26-44.13,33-73.41Z" style="fill: #e2e2e0"/>
      <path d="M701.09,784.17H628.72a3.5,3.5,0,0,1,0-7h72.37a3.5,3.5,0,0,1,0,7Z" style="fill: #4c3133"/>
      <path d="M575.54,782.17H368.47a3.5,3.5,0,1,1,0-7H575.54a3.5,3.5,0,0,1,0,7Z" style="fill: #4c3133"/>
      <path d="M657.08,756.56a3.5,3.5,0,0,1-3.49-3.42l-3.32-142.8a3.5,3.5,0,0,1,7-.17L660.58,753a3.5,3.5,0,0,1-3.41,3.58Z" style="fill: #4c3133"/>
      <g>
        <polygon points="628.38 560.87 682.48 560.87 665.92 618.85 642.73 618.85 628.38 560.87" style="fill: #fff"/>
        <path d="M682.48,560.87l-16.56,58H642.73l-14.35-58h54.1m0-7h-54.1a7,7,0,0,0-6.8,8.68l14.36,58a7,7,0,0,0,6.79,5.32h23.19a7,7,0,0,0,6.73-5.08l16.56-58a7,7,0,0,0-6.73-8.92Zm0,14h0Z" style="fill: #4c3133"/>
      </g>
      <g>
        <polygon points="608.5 561.94 654.88 534.02 696.83 561.94 608.5 561.94" style="fill: #fff"/>
        <path d="M654.88,534l42,27.92H608.5L654.88,534m0-7a7,7,0,0,0-3.61,1l-46.38,27.91a7,7,0,0,0,3.61,13h88.33a7,7,0,0,0,3.88-12.83l-42-27.91a7,7,0,0,0-3.88-1.18Z" style="fill: #4c3133"/>
      </g>
      <circle cx="699.83" cy="613.62" r="4.22" style="fill: #4c3133"/>
      <circle cx="604.91" cy="595.69" r="4.22" style="fill: #4c3133"/>
      <circle cx="623.9" cy="654.75" r="4.22" style="fill: #4c3133"/>
      <g>
        <line x1="498.3" y1="852.5" x2="372.5" y2="852.5" style="fill: #fff"/>
        <path d="M498.3,856H372.5a3.5,3.5,0,0,1,0-7H498.3a3.5,3.5,0,0,1,0,7Z" style="fill: #4c3133"/>
      </g>
      <g>
        <line x1="603.3" y1="876.5" x2="477.5" y2="876.5" style="fill: #fff"/>
        <path d="M603.3,880H477.5a3.5,3.5,0,0,1,0-7H603.3a3.5,3.5,0,0,1,0,7Z" style="fill: #4c3133"/>
      </g>
      <g>
        <line x1="687.93" y1="852.5" x2="579.51" y2="852.5" style="fill: #fff"/>
        <path d="M687.93,856H579.51a3.5,3.5,0,0,1,0-7H687.93a3.5,3.5,0,0,1,0,7Z" style="fill: #4c3133"/>
      </g>
      <g>
        <line x1="345.42" y1="852.5" x2="322.71" y2="852.5" style="fill: #fff"/>
        <path d="M345.42,856H322.71a3.5,3.5,0,0,1,0-7h22.71a3.5,3.5,0,1,1,0,7Z" style="fill: #4c3133"/>
      </g>
      <g>
        <line x1="720.31" y1="852.5" x2="700.73" y2="852.5" style="fill: #fff"/>
        <path d="M720.31,856H700.73a3.5,3.5,0,0,1,0-7h19.58a3.5,3.5,0,0,1,0,7Z" style="fill: #4c3133"/>
      </g>
      <g>
        <line x1="695.62" y1="806.6" x2="766.71" y2="806.1" style="fill: #fff"/>
        <path d="M695.61,810.1a3.5,3.5,0,0,1,0-7l71.1-.5h0a3.5,3.5,0,0,1,0,7l-71.1.5Z" style="fill: #4c3133"/>
      </g>
      <path d="M811.13,809.6H793.36a3.5,3.5,0,0,1,0-7h17.77a3.5,3.5,0,0,1,0,7Z" style="fill: #4c3133"/>
    </g>
  </g>
</svg>
