<svg xmlns="http://www.w3.org/2000/svg" width="1000" height="1000" viewBox="0 0 1000 1000">
  <g id="f55fc490-993a-44ab-8d94-575b1c0f7fc0" data-name="Password is changed">
    <g id="b1ba333a-92f8-4bf6-a5e7-5bcc62805587" data-name="background">
      <ellipse cx="268.56" cy="675.98" rx="44.2" ry="208.83" transform="translate(-457.18 724.65) rotate(-72.17)" style="fill: #f0f0f0"/>
      <path d="M46.89,607.17a3.28,3.28,0,0,1-1.07-.17,3.49,3.49,0,0,1-2.26-4.4C48.63,586.81,71,578,108.2,577.16a3.5,3.5,0,0,1,.16,7c-33.47.76-54.12,8.08-58.14,20.58A3.49,3.49,0,0,1,46.89,607.17Z" style="fill: #f0f0f0"/>
      <path d="M116.31,684.19a3.5,3.5,0,0,1-2-.6l-12.93-8.8a3.5,3.5,0,0,1,3.94-5.78l12.93,8.79a3.5,3.5,0,0,1-2,6.39Z" style="fill: #f0f0f0"/>
      <path d="M87.07,664.41a3.49,3.49,0,0,1-2-.67c-32.43-23.51-46.77-44.66-41.46-61.14a3.5,3.5,0,1,1,6.66,2.14c-4.16,13,10,32.39,38.91,53.34a3.5,3.5,0,0,1-2.06,6.33Z" style="fill: #f0f0f0"/>
      <path d="M405.38,774.13h-.26c-44.52-3.26-99.28-14.79-154.19-32.45a3.5,3.5,0,0,1,2.14-6.67c54.4,17.5,108.58,28.92,152.56,32.14a3.5,3.5,0,0,1-.25,7Z" style="fill: #f0f0f0"/>
      <path d="M429.76,775.08l-3.93,0a3.5,3.5,0,0,1,.09-7c7.87.11,15.26-.11,22-.65a3.5,3.5,0,0,1,.57,7C442.66,774.84,436.39,775.08,429.76,775.08Z" style="fill: #f0f0f0"/>
      <ellipse cx="773.07" cy="712.65" rx="207.45" ry="43.91" transform="translate(-222.16 373.5) rotate(-23.85)" style="fill: #f0f0f0"/>
      <path d="M602.14,825.5H602c-22.76-1-36.83-7.25-41.82-18.54-8.06-18.22,10.26-45.93,51.58-78a3.5,3.5,0,0,1,4.3,5.53c-37.42,29.07-55.91,55.12-49.48,69.68,3.78,8.54,16.13,13.5,35.73,14.37a3.5,3.5,0,0,1-.15,7Z" style="fill: #f0f0f0"/>
      <path d="M634.62,720.08a3.5,3.5,0,0,1-2-6.38c9.93-6.82,20.7-13.7,32-20.45a3.5,3.5,0,0,1,3.58,6c-11.2,6.67-21.85,13.46-31.65,20.2A3.55,3.55,0,0,1,634.62,720.08Z" style="fill: #f0f0f0"/>
      <path d="M705.35,808.77a3.5,3.5,0,0,1-1-6.86,767.4,767.4,0,0,0,95.88-35.32,767.7,767.7,0,0,0,90.29-46.94,3.5,3.5,0,1,1,3.65,6A775.55,775.55,0,0,1,803.08,773a774.87,774.87,0,0,1-96.75,35.63A3.36,3.36,0,0,1,705.35,808.77Z" style="fill: #f0f0f0"/>
      <circle cx="871.5" cy="554.66" r="20.79" style="fill: #f0f0f0"/>
      <circle cx="196.15" cy="760.53" r="8.16" style="fill: #f0f0f0"/>
      <circle cx="931.36" cy="592.96" r="9.06" style="fill: #f0f0f0"/>
      <circle cx="95.91" cy="512.27" r="12.82" style="fill: #f0f0f0"/>
      <path d="M905.79,717.68a3.5,3.5,0,0,1-1.91-6.44c7.83-5.09,15.32-10.24,22.26-15.31a3.5,3.5,0,0,1,4.13,5.66c-7,5.14-14.64,10.36-22.58,15.52A3.51,3.51,0,0,1,905.79,717.68Z" style="fill: #f0f0f0"/>
    </g>
    <g id="a1807265-7c4a-4762-818b-df3fcbce7189" data-name="window">
      <g>
        <path d="M312.13,597.05a38.18,38.18,0,0,0,38.18,38.18H760a38.18,38.18,0,0,0,38.18-38.18V325.19h-486Z" style="fill: #fff"/>
        <g>
          <path d="M448.18,635.23H760a38.18,38.18,0,0,0,38.18-38.18V325.19h-486V597.05a38.18,38.18,0,0,0,38.18,38.18" style="fill: #fff"/>
          <path d="M760,638.74H448.18a3.5,3.5,0,0,1,0-7H760a34.72,34.72,0,0,0,34.68-34.69V328.69h-479V597.05a34.72,34.72,0,0,0,34.68,34.69,3.5,3.5,0,0,1,0,7,41.73,41.73,0,0,1-41.68-41.69V325.19a3.5,3.5,0,0,1,3.5-3.5h486a3.5,3.5,0,0,1,3.5,3.5V597.05A41.73,41.73,0,0,1,760,638.74Z" style="fill: #4c3133"/>
        </g>
        <g>
          <line x1="402.8" y1="634.98" x2="425.48" y2="635.23" style="fill: #fff"/>
          <path d="M425.48,638.74h0l-22.68-.26a3.5,3.5,0,0,1,0-7h0l22.68.26a3.5,3.5,0,0,1,0,7Z" style="fill: #4c3133"/>
        </g>
        <g>
          <path d="M760,275.07H350.31a38.18,38.18,0,0,0-38.18,38.18v11.94h486V313.25A38.18,38.18,0,0,0,760,275.07Z" style="fill: #fff"/>
          <path d="M798.17,328.69h-486a3.5,3.5,0,0,1-3.5-3.5V313.25a41.73,41.73,0,0,1,41.68-41.68H760a41.73,41.73,0,0,1,41.68,41.68v11.94A3.49,3.49,0,0,1,798.17,328.69Zm-482.54-7h479v-8.44A34.72,34.72,0,0,0,760,278.57H350.31a34.72,34.72,0,0,0-34.68,34.68Z" style="fill: #4c3133"/>
        </g>
        <path d="M700.26,313.54H681.62a3.5,3.5,0,0,1,0-7h18.64a3.5,3.5,0,0,1,0,7Z" style="fill: #4c3133"/>
        <g>
          <rect x="716.58" y="291.39" width="18.65" height="18.65" style="fill: #ffd900"/>
          <path d="M735.23,313.54H716.58a3.5,3.5,0,0,1-3.5-3.5V291.39a3.5,3.5,0,0,1,3.5-3.5h18.65a3.5,3.5,0,0,1,3.5,3.5V310A3.5,3.5,0,0,1,735.23,313.54Zm-15.15-7h11.65V294.89H720.08Z" style="fill: #4c3133"/>
        </g>
        <g>
          <line x1="752.72" y1="291.39" x2="771.36" y2="310.04" style="fill: #fff"/>
          <path d="M771.36,313.54a3.46,3.46,0,0,1-2.47-1l-18.65-18.64a3.5,3.5,0,1,1,5-4.95l18.65,18.64a3.51,3.51,0,0,1-2.48,6Z" style="fill: #4c3133"/>
        </g>
        <g>
          <line x1="771.36" y1="291.39" x2="752.72" y2="310.04" style="fill: #fff"/>
          <path d="M752.71,313.54a3.46,3.46,0,0,1-2.47-1,3.49,3.49,0,0,1,0-4.95l18.65-18.64a3.5,3.5,0,1,1,5,4.95l-18.65,18.64A3.47,3.47,0,0,1,752.71,313.54Z" style="fill: #4c3133"/>
        </g>
      </g>
      <rect x="345.93" y="369.48" width="99.07" height="99.07" rx="18.17" style="fill: #f0f0f0"/>
      <rect x="567.97" y="578.7" width="210.97" height="32.64" rx="15.22" style="fill: #f0f0f0"/>
      <rect x="567.97" y="521.59" width="210.97" height="32.64" rx="15.22" style="fill: #f0f0f0"/>
      <rect x="567.97" y="464.48" width="210.97" height="32.64" rx="15.22" style="fill: #f0f0f0"/>
    </g>
    <g id="b648340d-1dc3-4dd6-869a-727fde9ede56" data-name="leaves">
      <g>
        <g>
          <path d="M247.28,214.2S237,195.07,256,179.74s49.15-4.81,49.15-4.81,2.18,23.72-13.36,28.26c0,0-3.58-7.5-10.42-3.08s2.52,8.8,2.52,8.8S271.36,225.6,247.28,214.2Z" style="fill: #e2e2e0"/>
          <path d="M263.31,221.66a40.71,40.71,0,0,1-17.52-4.3,3.47,3.47,0,0,1-1.59-1.51c-.12-.22-11.37-21.88,9.62-38.83,20.25-16.37,51.2-5.85,52.51-5.4a3.53,3.53,0,0,1,2.33,3c.1,1.08,2.23,26.66-15.87,31.94a3.5,3.5,0,0,1-4.14-1.85,5.13,5.13,0,0,0-2.55-2.41,3.66,3.66,0,0,0-2.81.76,5,5,0,0,0-.77.6,9.77,9.77,0,0,0,2.87,2.09,3.51,3.51,0,0,1,1.32,5.27A30.77,30.77,0,0,1,263.31,221.66Zm-13.4-10.11c14.67,6.47,24.19,1.43,28.52-2.1a8.28,8.28,0,0,1-3-5.45c-.13-1.83.48-4.49,4.08-6.82a10.21,10.21,0,0,1,8.53-1.62,10.67,10.67,0,0,1,5.08,3.35c7.91-4.19,8.71-16.25,8.67-21.35-7.06-1.94-29.18-6.71-43.55,4.9S248.3,207.73,249.91,211.55Z" style="fill: #b9b9b9"/>
        </g>
        <path d="M231.89,240.53a3.58,3.58,0,0,1-1.16-.2,3.51,3.51,0,0,1-2.15-4.46c.6-1.71,15.16-42.11,54.55-54.38a3.5,3.5,0,0,1,2.08,6.68c-36,11.21-49.88,49.63-50,50A3.51,3.51,0,0,1,231.89,240.53Z" style="fill: #b9b9b9"/>
      </g>
      <g>
        <g>
          <path d="M655.83,154.65c-9.59,8.07-6,24.81,3.77,32.67s23.06,9.27,35.54,10.39l18.43,1.64c-12.54-8.94-11.47-28-19.71-41-7.19-11.36-22.18-17.14-35.14-13.53" style="fill: #e2e2e0"/>
          <path d="M713.58,202.85l-.32,0-18.43-1.64c-11.8-1.05-26.5-2.36-37.43-11.15A29.81,29.81,0,0,1,646.7,168c-.07-6.51,2.37-12.19,6.88-16a3.5,3.5,0,0,1,4.51,5.36,13.2,13.2,0,0,0-4.39,10.54,22.61,22.61,0,0,0,8.09,16.72c9.28,7.46,22.8,8.66,33.66,9.63l9.26.82c-3.58-5.4-5.47-11.87-7.32-18.2-1.7-5.81-3.45-11.81-6.49-16.61-6.35-10-19.78-15.22-31.24-12a3.5,3.5,0,1,1-1.87-6.74,35.75,35.75,0,0,1,39,15c3.56,5.63,5.46,12.11,7.29,18.38,2.55,8.73,5,17,11.49,21.63a3.5,3.5,0,0,1-2,6.35Z" style="fill: #b9b9b9"/>
        </g>
        <path d="M685.44,183.75a3.43,3.43,0,0,1-1.86-.54,72.47,72.47,0,0,1-32.06-47,3.5,3.5,0,1,1,6.87-1.31,65.4,65.4,0,0,0,28.91,42.37,3.5,3.5,0,0,1-1.86,6.46Z" style="fill: #b9b9b9"/>
      </g>
    </g>
    <g id="afba7702-4d7a-4155-8939-c347388a14f9" data-name="lock with key">
      <g>
        <path d="M595.69,441.84l-19.26,3.84A76.07,76.07,0,0,1,487.05,386l-12.82-64.31a76.07,76.07,0,0,1,59.66-89.38l19.25-3.84a76.07,76.07,0,0,1,89.38,59.66l12.83,64.31A76.07,76.07,0,0,1,595.69,441.84Zm-56.52-183a49,49,0,0,0-38.44,57.59l12.83,64.31a49,49,0,0,0,57.59,38.44l19.25-3.84a49,49,0,0,0,38.44-57.59L616,293.44A49,49,0,0,0,558.43,255Z" style="fill: #ffd900"/>
        <path d="M561.55,450.66a79.62,79.62,0,0,1-77.93-64L470.8,322.4a79.57,79.57,0,0,1,62.4-93.5l19.26-3.84A79.59,79.59,0,0,1,646,287.47l12.82,64.31a79.58,79.58,0,0,1-62.41,93.5h0l-19.25,3.83A79,79,0,0,1,561.55,450.66ZM568,230.52a72.5,72.5,0,0,0-14.2,1.41l-19.26,3.84A72.56,72.56,0,0,0,477.66,321l12.82,64.31a72.57,72.57,0,0,0,85.27,56.91L595,438.41l.69,3.43-.69-3.43a72.55,72.55,0,0,0,56.91-85.26l-12.82-64.31A72.62,72.62,0,0,0,568,230.52ZM561.5,423.64a52.58,52.58,0,0,1-51.38-42.22L497.3,317.11a52.52,52.52,0,0,1,41.19-61.71h0l19.25-3.84a52.53,52.53,0,0,1,61.71,41.19l12.83,64.31a52.52,52.52,0,0,1-41.19,61.71l-19.26,3.84A52.52,52.52,0,0,1,561.5,423.64ZM539.86,262.27a45.51,45.51,0,0,0-35.7,53.47L517,380.05a45.51,45.51,0,0,0,53.47,35.7l19.26-3.84a45.52,45.52,0,0,0,35.69-53.48l-12.82-64.31a45.51,45.51,0,0,0-53.48-35.69Z" style="fill: #4c3133"/>
      </g>
      <g>
        <g>
          <rect x="476.19" y="344.83" width="221.6" height="186.47" rx="32.49" transform="translate(-74.34 123.25) rotate(-11.28)" style="fill: #f0f0f0"/>
          <path d="M651.94,330.68a32.5,32.5,0,0,1,31.83,26.14L707.53,476A32.49,32.49,0,0,1,682,514.19L528.43,544.82a33.34,33.34,0,0,1-6.39.63,32.5,32.5,0,0,1-31.83-26.14L466.45,400.16A32.48,32.48,0,0,1,492,362l153.6-30.63a32.41,32.41,0,0,1,6.38-.64m0-7v0h0a39.63,39.63,0,0,0-7.75.77l-153.6,30.63a39.5,39.5,0,0,0-31,46.45l23.76,119.15a39.45,39.45,0,0,0,46.45,31l153.6-30.63a39.54,39.54,0,0,0,31-46.45L690.64,355.46A39.57,39.57,0,0,0,652,323.68Z" style="fill: #4c3133"/>
        </g>
        <path d="M538.37,523.82a32.49,32.49,0,0,1-38.22-25.51L476.39,379.17a32.72,32.72,0,0,1-.53-8.84,32.43,32.43,0,0,0-9.41,29.83l23.76,119.15a32.5,32.5,0,0,0,38.21,25.51L682,514.19a32.51,32.51,0,0,0,26-29.38A32.27,32.27,0,0,1,692,493.19Z" style="fill: #dedfdf"/>
      </g>
      <g>
        <path d="M598.44,424.32l-4.88-24.47-24.9,5,4.91,24.62a23,23,0,1,0,24.87-5.12Z" style="fill: #4c3133"/>
        <path d="M593.56,399.85l4.88,24.47a23,23,0,0,1-4.07,43.84,23.3,23.3,0,0,1-4.52.44,23,23,0,0,1-16.28-39.16l-4.91-24.62,24.9-5m0-7a7.26,7.26,0,0,0-1.38.14l-24.9,5a7,7,0,0,0-5.49,8.23L566,427.46a30,30,0,1,0,38.59-7.91l-4.2-21.06a7,7,0,0,0-6.86-5.64Z" style="fill: #4c3133"/>
      </g>
      <g>
        <g>
          <rect x="524.64" y="414.49" width="62.16" height="51.35" transform="translate(-75.35 117.18) rotate(-11.28)" style="fill: #fff"/>
          <path d="M530.26,474.92a3.5,3.5,0,0,1-3.43-2.81l-10-50.36a3.5,3.5,0,0,1,2.75-4.11l61-12.16a3.5,3.5,0,0,1,4.12,2.75l10,50.35a3.5,3.5,0,0,1-2.75,4.12L531,474.86A4.2,4.2,0,0,1,530.26,474.92Zm-5.92-51.1L533,467.31l54.09-10.79L578.43,413Z" style="fill: #4c3133"/>
        </g>
        <g>
          <ellipse cx="480.98" cy="459.21" rx="54.05" ry="56.75" transform="translate(-80.52 102.93) rotate(-11.28)" style="fill: #fff"/>
          <path d="M482,519.36c-27.12,0-51.69-20.1-57.43-48.9a61.34,61.34,0,0,1,8.15-45,55.93,55.93,0,0,1,36.51-25.33c31.11-6.21,61.72,15.25,68.22,47.83a61.33,61.33,0,0,1-8.16,45,55.89,55.89,0,0,1-36.5,25.33A54.37,54.37,0,0,1,482,519.36Zm-2-113.31a48.15,48.15,0,0,0-9.43.93,49,49,0,0,0-31.95,22.22,54.29,54.29,0,0,0-7.2,39.89c5.07,25.47,26.72,43.27,50.56,43.27a48.05,48.05,0,0,0,9.42-.93,49,49,0,0,0,32-22.21,54.38,54.38,0,0,0,7.2-39.9C525.47,423.85,503.83,406.05,480,406.05Z" style="fill: #4c3133"/>
        </g>
        <g>
          <circle cx="461.9" cy="463.7" r="13.51" style="fill: #fff"/>
          <path d="M461.86,480.72a17,17,0,1,1,16.72-20.35h0a17,17,0,0,1-13.36,20A16.66,16.66,0,0,1,461.86,480.72Zm.06-27a10.23,10.23,0,0,0-2,.2,10,10,0,1,0,10.28,15.38,9.9,9.9,0,0,0,1.49-7.52h0a10,10,0,0,0-9.79-8.06Z" style="fill: #4c3133"/>
        </g>
        <g>
          <line x1="533.19" y1="444.66" x2="586.2" y2="434.09" style="fill: #fff"/>
          <path d="M533.19,448.16a3.5,3.5,0,0,1-.68-6.93l53-10.57a3.5,3.5,0,1,1,1.37,6.86l-53,10.57A3.37,3.37,0,0,1,533.19,448.16Z" style="fill: #4c3133"/>
        </g>
      </g>
      <g>
        <g>
          <path d="M437.61,529.18c-8.87-14.88-8.91-25.79.51-31.46s24.23,15.55,24.23,15.55,15.21-3.25,23.74-26.43c0,0,17.77-17.2,20.79,12,0,0,16.41-5.56,12.58,15.36,0,0,16.37-3.23,11.33,20S476.19,593.93,437.61,529.18Z" style="fill: #c5e6f1"/>
          <path d="M488,569.14c-13.81,0-34.55-6.48-53.43-38.16h0c-13.43-22.56-4.69-32.4,1.72-36.26,10.15-6.11,22.78,8.48,27.33,14.41,4.05-1.75,13.2-7.32,19.16-23.5a3.42,3.42,0,0,1,.85-1.3c.88-.85,8.79-8.22,16.59-5.38,5,1.82,8.14,7,9.61,15.76a12.65,12.65,0,0,1,9.49,2.7c3.18,2.74,4.55,7.2,4.1,13.27a13,13,0,0,1,7.73,3.67c4.07,4.15,5.09,11.08,3,20.59-3,13.58-18.77,30.31-39.18,33.64A44,44,0,0,1,488,569.14Zm-47.41-41.75c19.29,32.37,39.62,36.51,53.28,34.28,17-2.77,31-16.82,33.47-28.21,1.48-6.83,1.07-11.87-1.16-14.17s-6.06-1.66-6.11-1.65a3.53,3.53,0,0,1-4.09-4.08c1-5.43.57-9.28-1.22-10.85-2.26-2-6.76-.57-6.8-.55a3.52,3.52,0,0,1-4.59-3c-.8-7.7-2.82-12.68-5.55-13.67s-7.05,1.88-8.78,3.34c-9.16,24-25.3,27.67-26,27.82a3.51,3.51,0,0,1-3.6-1.42c-5.23-7.47-15.06-17.26-19.55-14.56-7.43,4.48-7.19,13.46.69,26.68Z" style="fill: #4c3133"/>
        </g>
        <g>
          <path d="M506.88,498.84s.92,15.17-10.85,22" style="fill: #c5e6f1"/>
          <path d="M496,524.31a3.5,3.5,0,0,1-1.76-6.53c9.7-5.61,9.12-18.61,9.11-18.74a3.5,3.5,0,0,1,7-.41c0,.7.89,17.41-12.59,25.21A3.51,3.51,0,0,1,496,524.31Z" style="fill: #4c3133"/>
        </g>
        <g>
          <path d="M519.46,514.2s-.23,14-12,21.95" style="fill: #c5e6f1"/>
          <path d="M507.44,539.65a3.5,3.5,0,0,1-2-6.4c10.16-6.87,10.47-19,10.48-19.11a3.5,3.5,0,0,1,7,.11c0,.65-.41,15.91-13.56,24.8A3.45,3.45,0,0,1,507.44,539.65Z" style="fill: #4c3133"/>
        </g>
      </g>
      <g>
        <line x1="670.24" y1="369.63" x2="684.23" y2="444.22" style="fill: #fff"/>
        <path d="M684.22,447.72a3.49,3.49,0,0,1-3.43-2.85l-14-74.6a3.5,3.5,0,0,1,6.88-1.29l14,74.6a3.5,3.5,0,0,1-2.8,4.08A2.86,2.86,0,0,1,684.22,447.72Z" style="fill: #4c3133"/>
      </g>
      <g>
        <line x1="687.14" y1="458.79" x2="689.47" y2="472.78" style="fill: #fff"/>
        <path d="M689.47,476.28a3.5,3.5,0,0,1-3.45-2.92l-2.33-14a3.5,3.5,0,1,1,6.9-1.15l2.33,14a3.49,3.49,0,0,1-2.87,4A2.9,2.9,0,0,1,689.47,476.28Z" style="fill: #4c3133"/>
      </g>
    </g>
    <g id="b2f159ec-4c25-41e9-995a-9090f4039c2b" data-name=" ghost">
      <g>
        <path d="M367,434.28c-14.38-15.94-35.08-23.7-55.48-26a130.89,130.89,0,0,0-91.19,24.2c-30.58,22.18-51.75,57.44-62.41,95.54a262.28,262.28,0,0,0-9,56.28,351.7,351.7,0,0,0,1,49.85c31.17,19.78,81.18,42.1,139.25,60.78,24.22,7.79,47.67,14.25,69.45,19.28-12.51-25.31-11.5-56.13-5-84.2.61-2.59,1.25-5.16,1.94-7.69,8.65-31.79,23-61.6,29.53-94S388.68,458.33,367,434.28Z" style="fill: #c5e6f1"/>
        <path d="M297.12,407.42a125.6,125.6,0,0,1,14.37.82c20.4,2.34,41.1,10.1,55.48,26,21.71,24.05,24.65,61.58,18.14,94s-20.88,62.22-29.53,94c-.69,2.53-1.33,5.1-1.94,7.69-6.53,28.07-7.54,58.89,5,84.2-21.78-5-45.23-11.49-69.45-19.28-58.07-18.68-108.08-41-139.25-60.78a351.7,351.7,0,0,1-1-49.85,262.28,262.28,0,0,1,9-56.28c10.66-38.1,31.83-73.36,62.41-95.54a131.42,131.42,0,0,1,76.82-25m0-7a138.94,138.94,0,0,0-80.93,26.36c-30.13,21.85-53.23,57.12-65,99.32a269.29,269.29,0,0,0-9.22,57.78,360.75,360.75,0,0,0,1,50.84,7,7,0,0,0,3.23,5.3c32.94,20.91,84.29,43.34,140.86,61.54,23.86,7.67,47.42,14.21,70,19.44a7,7,0,0,0,7.85-9.93c-12.89-26.07-9.52-57.63-4.43-79.51.6-2.56,1.23-5.06,1.88-7.44,3.58-13.16,8.28-26.31,12.83-39,6.36-17.81,12.95-36.22,16.81-55.45,3.63-18.11,4.17-36.3,1.55-52.62-3.07-19.18-10.26-35.14-21.37-47.44-17.84-19.77-42.41-26.3-59.87-28.3a132.11,132.11,0,0,0-15.17-.87Z" style="fill: #4c3133"/>
      </g>
      <path d="M215.46,640.49a75.86,75.86,0,0,1-43.36-72.31l0-.49a260.94,260.94,0,0,1,9-56.28c9.4-33.6,27-65,52-87.13a132.38,132.38,0,0,0-12.75,8.16c-30.58,22.18-51.75,57.44-62.41,95.54a262.28,262.28,0,0,0-9,56.28,351.7,351.7,0,0,0,1,49.85c31.17,19.78,81.18,42.1,139.25,60.78,24.22,7.79,47.67,14.25,69.45,19.28a91.59,91.59,0,0,1-7.89-24.44c-12.47-3.41-25.29-7.21-38.35-11.41C276,666.63,242.85,653.51,215.46,640.49Z" style="fill: #81c4d4"/>
      <g>
        <path d="M863.1,627a118.79,118.79,0,0,0-3.57-12c-7.24-20.29-21.14-38.93-40.64-48.1s-44.77-7.21-60.28,7.75c-16.08,15.51-18.56,39.9-21.66,62-1.48,10.57-3.33,21.12-5.62,31.58-7.08,32.41-18.29,63.91-35.25,92.22,20.18-6.57,42-14.78,64.5-24.44,42.7-18.33,80-38.52,106.23-56.62l.63-.64C867.89,661.43,867.17,643.83,863.1,627Z" style="fill: #c5e6f1"/>
        <path d="M793.81,561.34a59.24,59.24,0,0,1,25.08,5.55c19.5,9.17,33.4,27.81,40.64,48.1a118.79,118.79,0,0,1,3.57,12c4.07,16.79,4.79,34.39,4.34,51.73l-.63.64c-26.25,18.1-63.53,38.29-106.23,56.62-22.49,9.66-44.32,17.87-64.5,24.44,17-28.31,28.17-59.81,35.25-92.22,2.29-10.46,4.14-21,5.62-31.58,3.1-22.13,5.58-46.52,21.66-62,9.33-9,22.19-13.3,35.2-13.3m0-7c-15.63,0-29.86,5.42-40.06,15.26-16.88,16.28-20.23,40.67-23.19,62.18L730,635.7c-1.49,10.62-3.35,21.07-5.53,31-7.45,34.13-19,64.45-34.42,90.12a7,7,0,0,0,6,10.6,6.74,6.74,0,0,0,2.16-.35c21-6.84,42.93-15.14,65.1-24.65,41.61-17.87,79.76-38.21,107.45-57.3a7,7,0,0,0,1.06-.9l.63-.65a7,7,0,0,0,1.95-4.67c.56-21.5-.88-38.51-4.52-53.56a128.53,128.53,0,0,0-3.79-12.75c-8.52-23.87-24.64-42.86-44.25-52.09a66.31,66.31,0,0,0-28.06-6.21Z" style="fill: #4c3133"/>
      </g>
      <path d="M863.1,627a118.79,118.79,0,0,0-3.57-12c-7.24-20.29-21.15-38.93-40.64-48.1a54.49,54.49,0,0,0-5.37-2.2c15.37,10,26.53,26.23,32.75,43.67a118.79,118.79,0,0,1,3.57,12l.12.5A65.7,65.7,0,0,1,818,693.17c-21.58,12.17-48.94,26.88-70.72,36.23-14.91,6.4-29.51,12.15-43.54,17.22q-3.64,7-7.7,13.85c20.18-6.57,42-14.78,64.5-24.44,42.7-18.33,80-38.52,106.23-56.62l.63-.64C867.89,661.43,867.17,643.83,863.1,627Z" style="fill: #81c4d4"/>
      <path d="M386.92,480.21c-44.08,5.47-89.94-14-119.08,0s-22.15,58.28,16.31,57.12c33.57-1,77.78.63,97,7.26,1.49-5.38,2.84-10.81,3.94-16.32A144.38,144.38,0,0,0,386.92,480.21Z" style="fill: #81c4d4"/>
      <g>
        <path d="M330.11,374.1c-32.85-2-82.67,12.45-107.61,26.33-11,6.12-29.48,17.53-41.5,21.28s-27.57.71-32.87-10.71c-3.11-6.71-1.88-14.87,1.81-21.28s9.58-11.3,15.82-15.28a92.65,92.65,0,0,1,52.82-14.36c5,.19,11.79-.49,12.54-5.46.58-3.83-3.38-6.84-7.12-7.86s-7.92-1.11-11-3.45c-3.94-3-4.67-9-2.61-13.5s6.23-7.82,10.78-9.75C279,295.56,330.11,374.1,330.11,374.1Z" style="fill: #c5e6f1"/>
        <path d="M170.93,426.7c-10.71,0-21.46-4.49-26-14.23-3.4-7.33-2.67-16.49,1.95-24.5,3.47-6,9-11.41,17-16.48a96.38,96.38,0,0,1,54.84-14.9c3.94.15,8.64-.42,8.95-2.5.24-1.53-2.23-3.31-4.58-3.95-1-.26-2-.46-3.08-.67-2.95-.57-6.29-1.22-9.13-3.38-5-3.79-6.56-11.41-3.68-17.74,2.25-4.93,6.73-9,12.61-11.52,24.91-10.55,52.48-4.21,79.74,18.37a183.88,183.88,0,0,1,33.5,37,3.5,3.5,0,0,1-3.15,5.4C298.47,375.68,249,389.7,224.2,403.48c-2.2,1.23-4.71,2.67-7.4,4.21C205.76,414,192,421.94,182,425.05A37.73,37.73,0,0,1,170.93,426.7Zm44.34-63.18a89.33,89.33,0,0,0-47.63,13.87c-7,4.45-11.77,9.06-14.67,14.07-3.43,6-4.07,12.88-1.66,18.07,4.5,9.71,18.1,12.12,28.65,8.83,9.23-2.87,22.61-10.56,33.36-16.73,2.72-1.57,5.25-3,7.47-4.26,24.34-13.54,69.54-26.8,102.39-27A180.49,180.49,0,0,0,295,340.49c-25.43-21-49.79-26.8-72.42-17.21-4.26,1.81-7.45,4.64-9,8-1.31,2.88-1.1,7.25,1.55,9.26,1.54,1.17,3.81,1.61,6.21,2.07,1.17.23,2.38.46,3.59.79,5.47,1.49,10.55,6,9.67,11.76-.5,3.36-3.26,8.93-16.13,8.44Q216.86,363.52,215.27,363.52Z" style="fill: #4c3133"/>
      </g>
      <g>
        <line x1="303.97" y1="463.9" x2="319.12" y2="460.4" style="fill: #fff"/>
        <path d="M304,467.4a3.5,3.5,0,0,1-.79-6.91l15.15-3.5a3.5,3.5,0,0,1,1.58,6.82l-15.15,3.5A3.61,3.61,0,0,1,304,467.4Z" style="fill: #4c3133"/>
      </g>
      <g>
        <line x1="376.23" y1="462.73" x2="394.88" y2="472.05" style="fill: #fff"/>
        <path d="M394.88,475.56a3.5,3.5,0,0,1-1.56-.37l-18.65-9.33a3.5,3.5,0,1,1,3.13-6.26l18.65,9.32a3.51,3.51,0,0,1-1.57,6.64Z" style="fill: #4c3133"/>
      </g>
      <circle cx="313.88" cy="504.11" r="6.99" style="fill: #4c3133"/>
      <circle cx="375.65" cy="505.27" r="6.99" style="fill: #4c3133"/>
    </g>
    <g id="e3a9dcf5-c7ab-4950-9b0f-76306756ca50" data-name="pattern">
      <g>
        <circle cx="806.15" cy="402.92" r="16.58" style="fill: #fff"/>
        <path d="M806.15,386.34a16.58,16.58,0,1,1-16.58,16.58,16.58,16.58,0,0,1,16.58-16.58m0-7a23.58,23.58,0,1,0,23.58,23.58,23.61,23.61,0,0,0-23.58-23.58Z" style="fill: #4c3133"/>
      </g>
      <g>
        <circle cx="383.46" cy="265.34" r="16.58" style="fill: #fff"/>
        <path d="M383.46,248.76a16.58,16.58,0,1,1-16.57,16.58,16.58,16.58,0,0,1,16.57-16.58m0-7A23.58,23.58,0,1,0,407,265.34a23.6,23.6,0,0,0-23.58-23.58Z" style="fill: #4c3133"/>
      </g>
      <path d="M442.58,720.26A13.45,13.45,0,1,1,456,706.81,13.46,13.46,0,0,1,442.58,720.26Zm0-19.89a6.45,6.45,0,1,0,6.45,6.44A6.45,6.45,0,0,0,442.58,700.37Z" style="fill: #4c3133"/>
    </g>
  </g>
</svg>
