<svg xmlns="http://www.w3.org/2000/svg" width="1000" height="1000" viewBox="0 0 1000 1000">
  <g id="e03f348d-433f-44ed-a157-fef2d5f0f387" data-name=" Site is under maintenance">
    <g id="fff8c171-7a75-4029-b9fe-8ab27956ab8a" data-name="background">
      <path d="M512.19,394.94l-41.12-58.33a22.15,22.15,0,0,0-31-5.23l-9,6.44a22.1,22.1,0,0,1-23.87,1.26q-5.28-3-10.85-5.72a173,173,0,0,0-46.92-14.9,22.08,22.08,0,0,1-17.95-17.34l-1.17-5.65a22.15,22.15,0,0,0-26.42-17.16L234,293.53a22.16,22.16,0,0,0-17,26.14l2.63,12.68a22.22,22.22,0,0,1-8,21.92q-3.34,2.66-6.59,5.48a22.31,22.31,0,0,1-24.37,3.41l-10.31-5a22.16,22.16,0,0,0-29.59,10.31l-31.46,65.12A22.16,22.16,0,0,0,119.6,463.2l11.74,5.68A22.2,22.2,0,0,1,144,489.37a176.68,176.68,0,0,0,3.69,41,22,22,0,0,1-8.8,22.35l-12.44,8.94a22.16,22.16,0,0,0-5.18,30.76l41.12,58.34a22.16,22.16,0,0,0,31,5.22l12.8-9.19a22,22,0,0,1,24-1.22q5.94,3.48,12.25,6.54a173.87,173.87,0,0,0,37,13,22.06,22.06,0,0,1,16.67,17.08l3.52,17A22.15,22.15,0,0,0,326,716.25L396,701a22.15,22.15,0,0,0,17-26.14L409.85,660a22.05,22.05,0,0,1,8.88-22.55,178.24,178.24,0,0,0,15.26-12,22,22,0,0,1,24.14-3.2l10.3,5A22.15,22.15,0,0,0,498,616.93l31.46-65.12a22.16,22.16,0,0,0-10.32-29.59l-11.86-5.73a22.29,22.29,0,0,1-12.5-20.71,177,177,0,0,0-4-42.18,22,22,0,0,1,8.76-22.52L507,425.7A22.16,22.16,0,0,0,512.19,394.94ZM354.53,601.14a113.11,113.11,0,1,1,72.78-142.45A113.1,113.1,0,0,1,354.53,601.14Z" style="fill: #f0f0f0"/>
      <path d="M650.5,610.8l8.29,26.7a11.07,11.07,0,0,0,14,7.26l4.17-1.33a11.06,11.06,0,0,1,11.55,3.08q1.71,1.88,3.57,3.65a74.84,74.84,0,0,0,12.86,9.89,11.09,11.09,0,0,1,5.15,10.68l-.55,5a11.08,11.08,0,0,0,9.92,12.23l27.9,2.76a11.07,11.07,0,0,0,12.1-9.82l.45-4.12a11,11,0,0,1,7.51-9.3q3.25-1,6.44-2.37a11,11,0,0,1,11.8,2.27l1.8,1.73a11.09,11.09,0,0,0,15.67-.35l19.6-20.5a11.08,11.08,0,0,0-.35-15.66L820,630.29a11,11,0,0,1-2.86-11.46,77.12,77.12,0,0,0,3.67-16.47,11,11,0,0,1,7.61-9.25l1.49-.48a11.08,11.08,0,0,0,7.21-13.83l-8.29-26.7a11.08,11.08,0,0,0-14-7.27l-2.21.71a11,11,0,0,1-11.42-2.91q-1.55-1.67-3.21-3.26a74.91,74.91,0,0,0-16.6-12,11,11,0,0,1-5.72-10.93h0a11.09,11.09,0,0,0-9.93-12.23l-27.89-2.76a11.07,11.07,0,0,0-12.1,9.82l-.36,3.21a11.16,11.16,0,0,1-7.17,9.19q-1,.39-2,.81a11,11,0,0,1-11.8-2.27l-1.81-1.73a11.08,11.08,0,0,0-15.66.35l-19.61,20.5a11.08,11.08,0,0,0,.35,15.66l2.37,2.27a11,11,0,0,1,2.86,11.48,76.76,76.76,0,0,0-3.59,15.79,11,11,0,0,1-7.61,9.17l-4,1.28A11.09,11.09,0,0,0,650.5,610.8Zm66-35.68c14-18.9,41.67-19.66,56.34-1.55a35.6,35.6,0,0,1,.74,43.29c-14.05,18.89-41.67,19.66-56.34,1.55A35.59,35.59,0,0,1,716.5,575.12Z" style="fill: #f0f0f0"/>
    </g>
    <g id="b658602f-ef0a-4bbb-b5a6-603a7a6af920" data-name="table">
      <g>
        <rect x="69" y="686" width="876" height="32" rx="16" style="fill: #f0f0f0"/>
        <path d="M929,686a16,16,0,0,1,0,32H85a16,16,0,0,1,0-32H929m0-7H85a23,23,0,0,0,0,46H929a23,23,0,0,0,0-46Z" style="fill: #4c3133"/>
      </g>
      <path d="M98.5,706.5a16,16,0,0,1-16-16h0a16.2,16.2,0,0,1,.62-4.38A16,16,0,0,0,69,702h0a16,16,0,0,0,16,16H929a16,16,0,0,0,15.38-11.62,16.64,16.64,0,0,1-1.88.12Z" style="fill: #e2e2e0"/>
      <g>
        <line x1="162.97" y1="723" x2="162.5" y2="789.5" style="fill: #e2e2e0"/>
        <path d="M162.5,793h0a3.5,3.5,0,0,1-3.48-3.52l.47-66.5a3.5,3.5,0,0,1,3.5-3.48h0a3.5,3.5,0,0,1,3.48,3.52l-.47,66.5A3.5,3.5,0,0,1,162.5,793Z" style="fill: #4c3133"/>
      </g>
      <path d="M162.5,818a3.5,3.5,0,0,1-3.5-3.5v-13a3.5,3.5,0,0,1,7,0v13A3.5,3.5,0,0,1,162.5,818Z" style="fill: #4c3133"/>
      <g>
        <line x1="198.28" y1="723" x2="198.5" y2="806.5" style="fill: #e2e2e0"/>
        <path d="M198.5,810a3.5,3.5,0,0,1-3.5-3.49l-.22-83.5a3.5,3.5,0,0,1,3.49-3.51h0a3.5,3.5,0,0,1,3.5,3.49l.22,83.5a3.5,3.5,0,0,1-3.49,3.51Z" style="fill: #4c3133"/>
      </g>
      <path d="M198.5,829a3.5,3.5,0,0,1-3.5-3.5v-7a3.5,3.5,0,0,1,7,0v7A3.5,3.5,0,0,1,198.5,829Z" style="fill: #4c3133"/>
      <path d="M823.5,794a3.5,3.5,0,0,1-3.5-3.5V723a3.5,3.5,0,0,1,7,0v67.5A3.5,3.5,0,0,1,823.5,794Z" style="fill: #4c3133"/>
      <path d="M823.5,817a3.5,3.5,0,0,1-3.5-3.5v-8a3.5,3.5,0,0,1,7,0v8A3.5,3.5,0,0,1,823.5,817Z" style="fill: #4c3133"/>
      <path d="M860.5,851a3.5,3.5,0,0,1-3.5-3.5v-8a3.5,3.5,0,0,1,7,0v8A3.5,3.5,0,0,1,860.5,851Z" style="fill: #4c3133"/>
      <g>
        <line x1="860.04" y1="725" x2="860.5" y2="824.5" style="fill: #e2e2e0"/>
        <path d="M860.5,828a3.5,3.5,0,0,1-3.5-3.48l-.46-99.5A3.5,3.5,0,0,1,860,721.5h0a3.51,3.51,0,0,1,3.5,3.48l.46,99.5a3.5,3.5,0,0,1-3.48,3.52Z" style="fill: #4c3133"/>
      </g>
    </g>
    <g id="b1814f8e-3327-4386-93af-1ba16bf2052b" data-name="Computer">
      <g>
        <rect x="333.5" y="441.5" width="348" height="237" rx="26.02" style="fill: #fff"/>
        <path d="M655.48,682h-296A29.55,29.55,0,0,1,330,652.48v-185A29.55,29.55,0,0,1,359.52,438h296A29.55,29.55,0,0,1,685,467.52v185A29.55,29.55,0,0,1,655.48,682Zm-296-237A22.54,22.54,0,0,0,337,467.52v185A22.54,22.54,0,0,0,359.52,675h296A22.54,22.54,0,0,0,678,652.48v-185A22.54,22.54,0,0,0,655.48,445Z" style="fill: #4c3133"/>
      </g>
      <g>
        <rect x="354.5" y="466.14" width="305" height="207.72" rx="22.8" style="fill: #fff"/>
        <path d="M636.7,677.36H377.3a26.33,26.33,0,0,1-26.3-26.3V488.94a26.33,26.33,0,0,1,26.3-26.3H636.7a26.33,26.33,0,0,1,26.3,26.3V651.06A26.33,26.33,0,0,1,636.7,677.36ZM377.3,469.64a19.32,19.32,0,0,0-19.3,19.3V651.06a19.32,19.32,0,0,0,19.3,19.3H636.7a19.32,19.32,0,0,0,19.3-19.3V488.94a19.32,19.32,0,0,0-19.3-19.3Z" style="fill: #4c3133"/>
      </g>
      <rect x="510" y="497" width="130" height="42" rx="11.14" style="fill: #f0f0f0"/>
      <rect x="517" y="560" width="130" height="80" rx="15.37" style="fill: #f0f0f0"/>
      <g>
        <path d="M318,658.5H692A13.51,13.51,0,0,1,705.5,672V682.5a0,0,0,0,1,0,0h-401a0,0,0,0,1,0,0V672A13.51,13.51,0,0,1,318,658.5Z" style="fill: #f0f0f0"/>
        <path d="M705.5,686h-401a3.5,3.5,0,0,1-3.5-3.5V672a17,17,0,0,1,17-17H692a17,17,0,0,1,17,17V682.5A3.5,3.5,0,0,1,705.5,686ZM308,679H702v-7a10,10,0,0,0-10-10H318a10,10,0,0,0-10,10Z" style="fill: #4c3133"/>
      </g>
      <path d="M240.08,741.92a29,29,0,0,1-13.93-3.59c-8.62-4.71-23.08-18.22-23.1-55.83a3.5,3.5,0,0,1,3.5-3.5h0a3.5,3.5,0,0,1,3.5,3.5c0,24.83,7.11,42.94,19.46,49.68a22.28,22.28,0,0,0,23-1c8.64-5.54,13.31-15.79,12.5-27.43-1-14,2.41-24.94,10.08-32.42,12.4-12.07,31.25-10.41,32-10.34a3.5,3.5,0,0,1-.66,7h0c-.16,0-16.49-1.39-26.52,8.42-6.11,6-8.79,15-8,26.89,1,14.22-4.88,26.86-15.7,33.8A30,30,0,0,1,240.08,741.92Z" style="fill: #4c3133"/>
      <g>
        <path d="M204.5,638.5h0a36,36,0,0,1,36,36v8a0,0,0,0,1,0,0h-72a0,0,0,0,1,0,0v-8A36,36,0,0,1,204.5,638.5Z" style="fill: #ffd900"/>
        <path d="M240.5,686h-72a3.5,3.5,0,0,1-3.5-3.5v-8a39.5,39.5,0,0,1,79,0v8A3.5,3.5,0,0,1,240.5,686ZM172,679h65v-4.5a32.5,32.5,0,0,0-65,0Z" style="fill: #4c3133"/>
      </g>
      <path d="M239.07,668H169.93a3.5,3.5,0,0,1,0-7h69.14a3.5,3.5,0,0,1,0,7Z" style="fill: #4c3133"/>
      <g>
        <line x1="204.5" y1="638.5" x2="204.5" y2="663.5" style="fill: #ffd900"/>
        <path d="M204.5,667a3.5,3.5,0,0,1-3.5-3.5v-25a3.5,3.5,0,0,1,7,0v25A3.5,3.5,0,0,1,204.5,667Z" style="fill: #4c3133"/>
      </g>
      <rect x="384.5" y="490.5" width="65" height="65" rx="9.8" style="fill: #f0f0f0"/>
    </g>
    <g id="ae8addf4-740c-49c5-b667-a8a0198322a7" data-name=" ghost">
      <g>
        <g>
          <path d="M700.16,238c-48.86-20.64-193.75-.13-293.68,124.85-78.24,97.86-28.2,174.57,21.51,223.39,47.29,46.43,173.36,105.18,202.62,63.41C667.52,597,537.46,507.91,552.9,459,566.54,415.71,684,401.52,721.82,356.51,768.06,301.48,733.58,252.13,700.16,238Z" style="fill: #c5e6f1"/>
          <path d="M656.68,231c18,0,33,2.54,43.48,7,33.42,14.13,67.9,63.48,21.66,118.51C684,401.52,566.54,415.71,552.9,459c-15.44,49,114.62,138,77.71,190.69-7,10-19.63,14.26-35.39,14.26-49.87,0-131.3-42.39-167.23-77.67-49.71-48.82-99.75-125.53-21.51-223.39C484.91,264.76,591,231,656.68,231m0-7C588.33,224,480.36,259.24,401,358.48c-36.29,45.4-49.27,91.18-38.57,136.08,7.78,32.61,27.62,64.24,60.65,96.67,18.35,18,48.35,38,80.24,53.38,35.13,17,67.76,26.3,91.89,26.3,19.27,0,33.11-5.8,41.12-17.24,10.61-15.15,10.55-33.75-.2-56.86-8.83-19-23.76-38.85-38.19-58.08-21.77-29-44.28-59-38.37-77.66,6.23-19.78,42.62-34.54,77.81-48.81,34.85-14.14,70.89-28.76,89.78-51.25,25.82-30.71,26.25-57.88,22.07-75.27-5.63-23.39-23.83-44.66-46.36-54.18-11.66-4.93-27.64-7.54-46.2-7.54Z" style="fill: #4c3133"/>
        </g>
        <path d="M455,572.24c-49.71-48.82-99.75-125.53-21.51-223.39a363.86,363.86,0,0,1,102.94-88.71c-44.56,20.69-90.71,53.65-129.94,102.71-78.24,97.86-28.2,174.57,21.51,223.39,47.29,46.43,173.36,105.18,202.62,63.41l.14-.21C582.18,655,493.06,609.62,455,572.24Z" style="fill: #81c4d4"/>
        <g>
          <path d="M703.1,267c15,9.24,19.21,35,13.43,42.43s-22.68-1.93-48.79,9.65-70,15.85-68.3-10.93,12.68-33.49,42.59-30.89S686.15,256.59,703.1,267Z" style="fill: #81c4d4"/>
          <path d="M704.41,256h-.17l-8.33-.27a5,5,0,0,1,.33-10l8.33.27a5,5,0,0,1-.16,10Z" style="fill: #4c3133"/>
          <path d="M632.08,272.39a5,5,0,0,1-2.3-9.44l7.4-3.83a5,5,0,1,1,4.6,8.88l-7.4,3.83A5,5,0,0,1,632.08,272.39Z" style="fill: #4c3133"/>
          <circle cx="699.78" cy="290.6" r="7.98" style="fill: #4c3133"/>
          <circle cx="641.52" cy="299.88" r="7.98" style="fill: #4c3133"/>
        </g>
      </g>
      <g>
        <path d="M611.18,214.91c-28.24-.13-70.21,14.65-90.91,27.74-9.13,5.77-24.4,16.44-34.52,20.23s-23.58,1.95-28.67-7.58c-3-5.61-2.33-12.65.53-18.32s7.65-10.14,12.81-13.85A79.44,79.44,0,0,1,515,208.28c4.31-.08,10.08-1,10.48-5.28.31-3.32-3.23-5.7-6.48-6.39s-6.84-.57-9.6-2.43c-3.52-2.38-4.43-7.48-2.89-11.44s5-7,8.77-8.87C563.57,150.1,611.18,214.91,611.18,214.91Z" style="fill: #c5e6f1"/>
        <path d="M475.55,268.19c-8.75,0-17.41-3.48-21.55-11.25-3.34-6.25-3.16-14.31.48-21.54,2.72-5.39,7.26-10.34,13.89-15.11a83.15,83.15,0,0,1,46.54-15.51c4.51-.08,7-1.13,7.06-2.11.07-.82-1.57-2.18-3.73-2.64-.82-.17-1.7-.29-2.63-.42-2.61-.35-5.56-.75-8.19-2.53-4.64-3.13-6.44-9.84-4.2-15.61a20.8,20.8,0,0,1,10.49-10.74c21-10.33,45.11-6.21,69.7,11.93A158.88,158.88,0,0,1,614,212.83a3.51,3.51,0,0,1-2.82,5.58h-.36c-26.94,0-68.27,14.29-88.68,27.2-1.82,1.15-3.9,2.51-6.13,4-9.17,6-20.59,13.43-29,16.59A33,33,0,0,1,475.55,268.19Zm61.8-96A46,46,0,0,0,516.8,177a14.12,14.12,0,0,0-7.06,7c-1.05,2.71-.34,6,1.59,7.27,1.28.86,3.1,1.11,5.21,1.4,1,.13,2.08.28,3.15.5,5,1.06,9.74,4.88,9.25,10.15-.29,3.06-2.48,8.23-13.9,8.45A76,76,0,0,0,472.46,226c-5.69,4.1-9.53,8.22-11.73,12.58-2.58,5.13-2.79,10.91-.56,15.1,4.14,7.75,15.87,9.13,24.36,6,7.71-2.89,18.77-10.1,27.66-15.89,2.26-1.48,4.36-2.85,6.21-4,20-12.65,57.52-26.06,85.63-28C593.85,199.78,567,172.19,537.35,172.19Z" style="fill: #4c3133"/>
      </g>
    </g>
    <g id="be738d2d-167d-408e-9b5a-55d01337df3b" data-name="clouds">
      <g>
        <path d="M333.5,648.5s17-64,85-53c0,0,15-64,89-62s78,73,78,73,63-2,67,52l-319-1Z" style="fill: #fff"/>
        <path d="M652.5,662h0l-319-1a3.5,3.5,0,0,1-3.49-3.5v-9a3.42,3.42,0,0,1,.12-.9,88.28,88.28,0,0,1,17.74-32C359.73,602,381.09,587,416,591.59a92.85,92.85,0,0,1,16.57-30.07c12.36-15,35.38-32.6,75-31.52,39.86,1.08,59.9,21.81,69.7,39a95.35,95.35,0,0,1,11.37,34,95.68,95.68,0,0,1,30.1,6c22.61,8.7,35.49,25.73,37.23,49.26A3.49,3.49,0,0,1,652.5,662ZM337,654l311.62,1c-2.54-18.85-13.35-32.09-32.19-39.4A88.68,88.68,0,0,0,585.61,610a3.51,3.51,0,0,1-3.6-3.3,88,88,0,0,0-10.93-34.44c-13-22.61-34.39-34.47-63.67-35.26s-52.75,8.88-69.27,28.75a83.91,83.91,0,0,0-16.23,30.55,3.52,3.52,0,0,1-4,2.66c-26.83-4.34-48.57,2.73-64.63,21A83.29,83.29,0,0,0,337,649Z" style="fill: #4c3133"/>
      </g>
      <g>
        <path d="M734.5,675.94s-12.85-48.36-64.24-40.05c0,0-11.33-48.37-67.26-46.86s-58.94,55.17-58.94,55.17-47.61-1.51-50.64,39.3l241.08-.76Z" style="fill: #fff"/>
        <path d="M493.42,687a3.51,3.51,0,0,1-2.56-1.11,3.55,3.55,0,0,1-.93-2.65c2.75-37.12,39.69-41.88,51-42.46a73.43,73.43,0,0,1,8.61-25.33c7.51-13.19,22.87-29.09,53.39-29.91,30.35-.81,47.94,12.67,57.39,24.13A71.26,71.26,0,0,1,672.76,632c26.32-3.25,42.5,8.14,51.53,18.5A67.59,67.59,0,0,1,737.88,675a3.48,3.48,0,0,1,.12.9v6.8a3.5,3.5,0,0,1-3.49,3.5L493.44,687Zm49.74-39.31c-5.91,0-40.9,1.32-45.81,32.3L731,679.25v-2.82c-1.42-4.84-14.52-44.48-60.18-37.09a3.49,3.49,0,0,1-4-2.65,62.92,62.92,0,0,0-12.14-22.79C642.41,599.13,625,592,603.1,592.53s-37.87,9.47-47.5,26.39a65.27,65.27,0,0,0-8.05,25.48,3.49,3.49,0,0,1-3.6,3.3Z" style="fill: #4c3133"/>
      </g>
      <g>
        <circle cx="389.5" cy="592.5" r="15" style="fill: #fff"/>
        <path d="M389.5,611A18.5,18.5,0,1,1,408,592.5,18.52,18.52,0,0,1,389.5,611Zm0-30A11.5,11.5,0,1,0,401,592.5,11.51,11.51,0,0,0,389.5,581Z" style="fill: #4c3133"/>
      </g>
      <g>
        <circle cx="319" cy="372" r="30.5" style="fill: #fff"/>
        <path d="M319,406a34,34,0,1,1,34-34A34,34,0,0,1,319,406Zm0-61a27,27,0,1,0,27,27A27,27,0,0,0,319,345Z" style="fill: #4c3133"/>
      </g>
      <g>
        <circle cx="790.5" cy="465" r="15.5" style="fill: #fff"/>
        <path d="M790.5,484a19,19,0,1,1,19-19A19,19,0,0,1,790.5,484Zm0-31a12,12,0,1,0,12,12A12,12,0,0,0,790.5,453Z" style="fill: #4c3133"/>
      </g>
      <g>
        <circle cx="709" cy="643" r="17.5" style="fill: #fff"/>
        <path d="M709,664a21,21,0,1,1,21-21A21,21,0,0,1,709,664Zm0-35a14,14,0,1,0,14,14A14,14,0,0,0,709,629Z" style="fill: #4c3133"/>
      </g>
    </g>
  </g>
</svg>
