<svg xmlns="http://www.w3.org/2000/svg" width="1000" height="1000" viewBox="0 0 1000 1000">
  <g id="a7442e8e-0462-412a-a595-f700a759fc80" data-name="Verify Email">
    <g id="fd1bf49f-db45-407e-88ea-52f40b751b1d" data-name=" ghost">
      <g>
        <path d="M447.88,461.39c-27.61,9.64-58.19-1.13-83.57-15.68s-49.06-33.18-77.23-41c-17.28-4.82-38-4.45-50.56,8.36-14.19,14.48-12.05,38-7,57.65,11.93,45.92,35.76,90,73.36,119S393,630.15,437,612.32s74.59-68,63.5-114.18c-3-12.29-8.93-24.34-19.09-31.87s-25-9.48-35.48-2.41Z" style="fill: #c5e6f1"/>
        <path d="M267.12,401.83a75.14,75.14,0,0,1,20,2.85c28.17,7.85,51.85,26.48,77.23,41,18.66,10.7,40.13,19.36,61.17,19.36a67.57,67.57,0,0,0,22.4-3.68l-1.95,2.47A26.74,26.74,0,0,1,461,459.47a34.81,34.81,0,0,1,20.39,6.8c10.16,7.53,16.13,19.58,19.09,31.87C511.59,544.28,481,594.49,437,612.32a118.75,118.75,0,0,1-44.74,8.48c-31.76,0-63.95-11.62-89.34-31.16-37.6-28.93-61.43-73-73.36-118.95-5.09-19.63-7.23-43.17,7-57.65,7.92-8.08,19.09-11.21,30.6-11.21m180.76,59.56h0M267.12,394.83h0c-14.76,0-27.06,4.6-35.6,13.31-13.34,13.61-16.28,35.24-8.73,64.31a259.44,259.44,0,0,0,27.81,67.67c13.22,22.18,29.39,40.71,48,55.07,26.93,20.73,61.05,32.61,93.61,32.61a125.33,125.33,0,0,0,47.37-9c23.11-9.37,42.94-26.95,55.84-49.49,13.33-23.27,17.53-49.13,11.83-72.81-2.64-11-8.55-26.1-21.72-35.87A41.57,41.57,0,0,0,461,452.47a35.53,35.53,0,0,0-11.95,2,5.41,5.41,0,0,0-.82-.09h-.37a5.79,5.79,0,0,0-.72,0,7.14,7.14,0,0,0-1.73.4,60.74,60.74,0,0,1-19.95,3.24c-16.94,0-36.35-6.21-57.69-18.43-6.85-3.93-13.74-8.27-20.41-12.46-18.19-11.44-37-23.28-58.42-29.25a82.77,82.77,0,0,0-21.84-3.1Z" style="fill: #4c3133"/>
      </g>
      <path d="M325.08,451.9l-14.41-38a135.78,135.78,0,0,0-23.59-9.22c-10.73-3-22.78-4-33.38-1.24l-8.52,3.23a34,34,0,0,0-8.66,6.37c-14.19,14.48-12.05,38-7,57.65,1.9,7.3,4.1,14.56,6.61,21.72l85.24-32.34A6.33,6.33,0,0,0,325.08,451.9Z" style="fill: #81c4d4"/>
      <g>
        <path d="M449.7,646.15C491,590.28,520.64,532.51,554.6,471.4c12.73-22.9,35-31.88,50.28-52.95,15.38-21.27,24.19-48.06,23.31-74.92-.76-23.3-11.94-57.8-.89-78,11.84-21.63,44.66-21.88,67.1-14.05,54.31,18.94,90.79,67.46,107.89,121.12s12.89,124-13,173.5S728.56,620.37,681.64,647.6c-35,20.32-78.18,24.73-118,27.66s-81-6.19-114.28-29.56Z" style="fill: #c5e6f1"/>
        <path d="M666.73,246.81a85.84,85.84,0,0,1,27.67,4.7c54.31,18.94,90.79,67.46,107.89,121.12s12.89,124-13,173.5S728.56,620.37,681.64,647.6c-35,20.32-78.18,24.73-118,27.66q-7.18.53-14.4.53c-35,0-70.25-9.43-99.43-29.78,41.25-55.83,70.86-113.55,104.79-174.61,12.73-22.9,35-31.88,50.28-52.95,15.38-21.27,24.19-48.06,23.31-74.92-.76-23.3-11.94-57.8-.89-78,7.45-13.6,23.19-18.75,39.43-18.75M449.36,645.7l.45.31-.11.14-.34-.45M666.73,239.81c-21.48,0-37.67,7.95-45.57,22.39-8.82,16.1-5.49,38.76-2.55,58.74,1.21,8.3,2.37,16.14,2.58,22.82a114.85,114.85,0,0,1-22,70.59c-6.37,8.81-14.08,15.34-22.24,22.26-10.26,8.7-20.87,17.7-28.48,31.39-5.57,10-11.08,20.06-16.42,29.77-27.17,49.5-52.87,96.3-86.31,141.92a7.35,7.35,0,0,0-1.4,1.11,7,7,0,0,0-.63,9.05l.34.46a6.92,6.92,0,0,0,3.06,2.35c28.87,19.72,64.14,30.13,102.11,30.13,4.94,0,10-.19,14.91-.55,41.58-3,85.17-7.77,121-28.58,21.2-12.31,43.49-26.07,62.82-43.19,19.77-17.5,34.86-36.92,47.5-61.09,26.19-50.1,31.61-122,13.48-178.87-19.7-61.82-60.62-107.61-112.25-125.61a93.49,93.49,0,0,0-30-5.09Z" style="fill: #4c3133"/>
      </g>
      <g>
        <g>
          <path d="M449.7,646.15l.11-.15-.45-.3Z" style="fill: #c5e6f1"/>
          <path d="M449.36,645.7l.45.3-.11.15-.34-.45m0-7a7,7,0,0,0-5.64,11.15l.33.46a7,7,0,0,0,5.63,2.84h0a7,7,0,0,0,5.63-2.83l.08-.12a7,7,0,0,0-1.6-9.94l-.29-.2-.13-.09a7,7,0,0,0-4-1.27Z" style="fill: #4c3133"/>
        </g>
        <path d="M802.29,372.63C790.4,335.32,769.13,300.5,739,276.38a221.13,221.13,0,0,1,28.27,58.25c17.1,53.67,12.89,124-13,173.5S693.56,582.37,646.64,609.6c-35,20.32-78.18,24.73-118,27.66a188.35,188.35,0,0,1-67.47-7.08q-5.54,7.94-11.36,15.82C483,669.15,524,678.17,563.64,675.26c39.82-2.93,83-7.34,118-27.66,46.92-27.23,81.74-51.92,107.64-101.47S819.39,426.3,802.29,372.63Z" style="fill: #81c4d4"/>
        <g>
          <path d="M414.7,608.15l.11-.15-.45-.3Z" style="fill: #c5e6f1"/>
          <path d="M414.36,607.7l.45.3-.11.15-.34-.45m0-7a7,7,0,0,0-5.64,11.15l.33.46a7,7,0,0,0,5.63,2.84h0a7,7,0,0,0,5.63-2.83l.08-.12a7,7,0,0,0-1.6-9.94l-.29-.2-.13-.09a7,7,0,0,0-4-1.27Z" style="fill: #4c3133"/>
        </g>
      </g>
      <path d="M740.42,306.18c-10.31-8.76-25.47-5.75-37.84-.82s-25.33,11.5-38.23,8.39c-6-1.44-11.44-4.9-17.51-5.86a22.69,22.69,0,0,0-20.27,7.49c-.22.25-.43.51-.64.78.75,9.14,2,18.39,2.26,27.37a118.12,118.12,0,0,1-4.65,36.53c33.3-8.4,71.88-.6,102.26-18.36,9.4-5.5,17.84-13.72,21.49-24.41S748.8,313.3,740.42,306.18Z" style="fill: #81c4d4"/>
      <g>
        <path d="M634,222.71c18.92-45.5,67.44-77,116.7-75.67,7.1.18,15.28,1.66,18.75,7.85,3.91,7-.55,15.85-6.54,21.13s-13.58,8.78-18.59,15a326.73,326.73,0,0,1,57.33.83c5.86.6,11.84,1.4,17.1,4.06s9.75,7.51,10.44,13.37-2.47,11.48-7,15.15-10.17,5.56-15.82,6.85a94,94,0,0,1-64-8.35c-13.38-7-25.34-17.42-40.06-20.82-11.59-2.67-23.85-.67-35,3.55s-21.26,10.58-31.33,16.89" style="fill: #c5e6f1"/>
        <path d="M786.06,237a97.81,97.81,0,0,1-45.25-11c-4.51-2.37-8.87-5.11-13.09-7.77-8.65-5.45-16.81-10.59-26.13-12.74-9.75-2.25-21.14-1.07-32.93,3.41-10.83,4.12-20.95,10.46-30.72,16.59a3.54,3.54,0,0,1-2.62.45,3.5,3.5,0,0,1-4.51-4.6c9.42-22.66,26.57-42.89,48.3-57s47.2-21.5,71.72-20.85c11,.29,18.28,3.53,21.72,9.64,4.92,8.76-.33,19.34-7.29,25.46a84.47,84.47,0,0,1-7.79,5.87c-1.18.82-2.34,1.63-3.46,2.44a330.48,330.48,0,0,1,48,1.42c6.09.62,12.51,1.48,18.33,4.41,7,3.51,11.57,9.52,12.34,16.09s-2.39,13.51-8.23,18.27c-5.46,4.45-12.1,6.37-17.27,7.55A94.89,94.89,0,0,1,786.06,237Zm-94.61-39.63a52.08,52.08,0,0,1,11.71,1.29c10.48,2.42,19.53,8.12,28.29,13.64,4.1,2.58,8.35,5.25,12.62,7.5a90.91,90.91,0,0,0,61.59,8c6.57-1.5,11-3.4,14.39-6.15,4-3.27,6.2-7.88,5.71-12-.59-5-4.8-8.77-8.55-10.66-4.75-2.4-10.45-3.14-15.88-3.7a324.52,324.52,0,0,0-56.71-.82,3.49,3.49,0,0,1-3-5.68c3.37-4.19,7.68-7.18,11.84-10.07a78.39,78.39,0,0,0,7.15-5.37c5.07-4.46,8.69-11.65,5.81-16.78-2.14-3.81-7.45-5.85-15.79-6.07-44.15-1.16-88.48,25.5-109.13,64.51a148.46,148.46,0,0,1,24.65-12.66A71.5,71.5,0,0,1,691.45,197.41Z" style="fill: #4c3133"/>
      </g>
      <circle cx="642.64" cy="335.59" r="6.91" style="fill: #4c3133"/>
      <circle cx="696.92" cy="328.68" r="6.91" style="fill: #4c3133"/>
      <path d="M614.22,303.84a5,5,0,0,1-1.76-9.68l7.42-2.79a5,5,0,1,1,3.52,9.36L616,303.52A4.93,4.93,0,0,1,614.22,303.84Z" style="fill: #4c3133"/>
      <path d="M684.33,296.51a4.74,4.74,0,0,1-.75-.06l-7.83-1.19a5,5,0,1,1,1.5-9.88l7.83,1.19a5,5,0,0,1-.75,9.94Z" style="fill: #4c3133"/>
    </g>
    <g id="b31cf5c7-4afa-4d4f-b8b1-56f9a6009bf6" data-name="leaves">
      <g>
        <g>
          <path d="M891.55,314.1s21.65-4.73,32.31,16.38-7.29,46.19-7.29,46.19-24.26-3.77-25-19.11c0,0,8.37-1.45,5.63-8.79s-9.41.17-9.41.17S874.23,333.39,891.55,314.1Z" style="fill: #e2e2e0"/>
          <path d="M916.57,380.17a3.08,3.08,0,0,1-.53,0c-1.11-.17-27.1-4.42-27.93-22.41a3.5,3.5,0,0,1,2.9-3.61c.74-.14,2.53-.77,3.09-1.77A2.85,2.85,0,0,0,894,350a3.47,3.47,0,0,0-.46-.92,8.23,8.23,0,0,0-3.06,2.2,3.61,3.61,0,0,1-2.63,1.16,3.5,3.5,0,0,1-2.61-1.19c-.16-.18-15.43-18.13,3.75-39.48a3.56,3.56,0,0,1,1.86-1.08c.24-.05,24.43-5,36.17,18.22,11.49,22.73-6.78,48.71-7.56,49.81A3.52,3.52,0,0,1,916.57,380.17Zm-21-20.26c2.44,8.13,14.42,11.7,19.4,12.86,3.65-5.94,13.8-24.9,5.81-40.72-8.1-16-23.19-15.26-27.37-14.7-10,11.81-7.22,21.69-4.78,26.38a8.87,8.87,0,0,1,6.3-1.57c1.78.34,4.2,1.54,5.63,5.38a9.41,9.41,0,0,1-.36,8.3A10.32,10.32,0,0,1,895.53,359.91Z" style="fill: #b9b9b9"/>
        </g>
        <path d="M911.84,358.53a3.5,3.5,0,0,1-3.49-3.27C906,319.71,871,297.65,870.68,297.43a3.5,3.5,0,0,1,3.67-6c1.57,1,38.4,24.13,41,63.32a3.5,3.5,0,0,1-3.26,3.73Z" style="fill: #b9b9b9"/>
      </g>
      <g>
        <g>
          <path d="M824.71,704.52c5.26,10.64,21.46,11.13,30.88,3.92s13.74-19.1,17.59-30.33l5.67-16.57c-11.05,9.51-28.31,4.23-42.13,8.86a30.73,30.73,0,0,0-20.38,29.24" style="fill: #e2e2e0"/>
          <path d="M840.75,716.77a25.81,25.81,0,0,1-5.91-.67,19.22,19.22,0,0,1-13.27-10,3.5,3.5,0,0,1,6.28-3.1,12.32,12.32,0,0,0,8.58,6.32,21.21,21.21,0,0,0,17-3.63c8.91-6.81,13.06-18.94,16.4-28.68l2.72-8c-5.7,2-12,2.24-18.08,2.5s-11.61.51-16.68,2.21a27.26,27.26,0,0,0-18,25.82,3.5,3.5,0,0,1-7,.21,34,34,0,0,1,22.77-32.67c6-2,12.4-2.29,18.6-2.56,8.56-.37,16.65-.72,22.36-5.64a3.5,3.5,0,0,1,5.59,3.79l-5.67,16.57c-3.64,10.64-8.18,23.88-18.77,32A28.52,28.52,0,0,1,840.75,716.77Z" style="fill: #b9b9b9"/>
        </g>
        <path d="M810.15,704.6q-1.68,0-3.36-.09a3.5,3.5,0,0,1,.37-7,61.7,61.7,0,0,0,45.35-16.95,3.5,3.5,0,1,1,4.86,5A69,69,0,0,1,810.15,704.6Z" style="fill: #b9b9b9"/>
      </g>
      <g>
        <g>
          <path d="M363.25,298.94c-12.7,1.28-23.08-12.2-22.45-24.08s8.56-22,16.2-31.26l11.27-13.74c-1.69,14.49,13.61,26.29,18,40.51,3.81,12.41-2,26.51-13.52,33.05" style="fill: #e2e2e0"/>
          <path d="M372.73,306.92a3.5,3.5,0,0,1-1.72-6.55c10.1-5.71,15.21-18.16,11.89-29-1.6-5.21-5-10.36-8.29-15.34-3.65-5.53-7.38-11.19-9.06-17.36l-5.85,7.13c-6.6,8.06-14.82,18.09-15.41,29.23-.29,5.49,2.34,11.71,6.68,15.86,3.52,3.35,7.75,5,11.93,4.55a3.5,3.5,0,0,1,.7,7c-6.23.63-12.43-1.66-17.46-6.45-5.85-5.58-9.24-13.74-8.84-21.29.71-13.43,9.74-24.45,17-33.3l11.27-13.74a3.5,3.5,0,0,1,6.18,2.62c-.86,7.43,3.79,14.47,8.72,21.94,3.56,5.39,7.24,11,9.13,17.14,4.27,13.88-2.24,29.84-15.14,37.12A3.44,3.44,0,0,1,372.73,306.92Z" style="fill: #b9b9b9"/>
        </g>
        <path d="M377.26,315.6a3.49,3.49,0,0,1-2.73-1.31c-12.16-15.09-17.48-35-14.21-53.16a3.5,3.5,0,0,1,6.89,1.24c-2.91,16.23,1.86,34,12.77,47.53a3.51,3.51,0,0,1-2.72,5.7Z" style="fill: #b9b9b9"/>
      </g>
    </g>
    <g id="a0430273-a6ea-463c-b933-fb21ee48fdc0" data-name="letters">
      <g>
        <g>
          <rect x="190.53" y="569.29" width="279.15" height="187.16" rx="15.41" transform="translate(153.64 -56.32) rotate(12.69)" style="fill: #f0f0f0"/>
          <path d="M434.11,785.31a18.69,18.69,0,0,1-4.19-.47L187.65,730.3a18.88,18.88,0,0,1-14.29-22.59l34.33-152.53a18.9,18.9,0,0,1,22.6-14.29l242.27,54.54a18.94,18.94,0,0,1,14.3,22.6L452.52,770.55a18.91,18.91,0,0,1-18.41,14.76Zm-208-237.89a11.92,11.92,0,0,0-11.6,9.3L180.19,709.24a11.9,11.9,0,0,0,9,14.23L431.46,778h0a11.92,11.92,0,0,0,14.23-9L480,616.49a11.92,11.92,0,0,0-9-14.23L228.75,547.72A11.79,11.79,0,0,0,226.12,547.42Z" style="fill: #4c3133"/>
        </g>
        <g>
          <polyline points="216.76 550.1 326.25 689.64 482.9 610.02" style="fill: #f0f0f0"/>
          <path d="M326.25,693.14a3.51,3.51,0,0,1-2.76-1.34L214,552.26a3.5,3.5,0,1,1,5.5-4.32L327.23,685.21,481.32,606.9a3.5,3.5,0,0,1,3.17,6.24L327.83,692.76A3.53,3.53,0,0,1,326.25,693.14Z" style="fill: #4c3133"/>
        </g>
        <g>
          <line x1="185.9" y1="677.55" x2="275.04" y2="628.25" style="fill: #f0f0f0"/>
          <path d="M185.9,681.05a3.5,3.5,0,0,1-1.69-6.56l89.13-49.3a3.5,3.5,0,1,1,3.39,6.12l-89.13,49.3A3.48,3.48,0,0,1,185.9,681.05Z" style="fill: #4c3133"/>
        </g>
        <g>
          <line x1="404.58" y1="649.83" x2="455.6" y2="736.1" style="fill: #f0f0f0"/>
          <path d="M455.61,739.6a3.49,3.49,0,0,1-3-1.72l-51-86.27a3.5,3.5,0,1,1,6-3.57l51,86.28a3.5,3.5,0,0,1-3,5.28Z" style="fill: #4c3133"/>
        </g>
      </g>
      <g>
        <g>
          <rect x="173.36" y="385.01" width="114.8" height="76.97" rx="6.34" transform="translate(-135.22 109.4) rotate(-20.78)" style="fill: #fff"/>
          <path d="M267.1,369a6.34,6.34,0,0,1,5.92,4.09l22.81,60.12a6.34,6.34,0,0,1-3.68,8.17l-95.48,36.23a6.35,6.35,0,0,1-8.18-3.68l-22.8-60.11a6.34,6.34,0,0,1,3.67-8.18l95.49-36.22a6.35,6.35,0,0,1,2.25-.42m0-7h0a13.21,13.21,0,0,0-4.73.87l-95.49,36.23a13.34,13.34,0,0,0-7.74,17.2L182,476.39A13.4,13.4,0,0,0,194.42,485a13.21,13.21,0,0,0,4.73-.87l95.49-36.23a13.35,13.35,0,0,0,7.73-17.2l-22.8-60.11A13.42,13.42,0,0,0,267.1,362Z" style="fill: #4c3133"/>
        </g>
        <g>
          <polyline points="166.3 410.51 235.5 433.55 271.19 370.71" style="fill: #f0f0f0"/>
          <path d="M235.5,437.05a3.52,3.52,0,0,1-1.1-.18l-69.21-23a3.5,3.5,0,1,1,2.22-6.64l66.47,22.13L268.15,369a3.5,3.5,0,0,1,6.09,3.46l-35.69,62.84A3.5,3.5,0,0,1,235.5,437.05Z" style="fill: #4c3133"/>
        </g>
        <g>
          <line x1="184.61" y1="461.23" x2="204.01" y2="424.1" style="fill: #f0f0f0"/>
          <path d="M184.61,464.73a3.5,3.5,0,0,1-3.1-5.12l19.4-37.13a3.5,3.5,0,0,1,6.21,3.24l-19.4,37.13A3.51,3.51,0,0,1,184.61,464.73Z" style="fill: #4c3133"/>
        </g>
        <g>
          <line x1="253.35" y1="402.13" x2="290.42" y2="420.16" style="fill: #f0f0f0"/>
          <path d="M290.42,423.66a3.47,3.47,0,0,1-1.53-.36l-37.07-18a3.5,3.5,0,1,1,3.06-6.3L292,417a3.5,3.5,0,0,1-1.53,6.65Z" style="fill: #4c3133"/>
        </g>
      </g>
      <g>
        <path d="M719.59,760.45,491.77,884a25.52,25.52,0,0,1-34.6-10.26l-86-158.49a25.53,25.53,0,0,1,.32-24.92l72.81-126.2A25.52,25.52,0,0,1,467,551.38l155.28,3.13a25.51,25.51,0,0,1,21.91,13.35l85.7,158A25.53,25.53,0,0,1,719.59,760.45Z" style="fill: #e2e2e0"/>
        <path d="M479.64,890.62a29.14,29.14,0,0,1-8.29-1.22,28.8,28.8,0,0,1-17.25-14l-86-158.49a29.24,29.24,0,0,1,.37-28.34l72.81-126.2A29,29,0,0,1,467,547.88L622.31,551a29.07,29.07,0,0,1,24.92,15.18l85.7,158a29.05,29.05,0,0,1-11.68,39.34h0L493.44,887.09A28.85,28.85,0,0,1,479.64,890.62Zm-13.2-335.75a22,22,0,0,0-19.07,11l-72.8,126.2a22.16,22.16,0,0,0-.29,21.5l86,158.49a22,22,0,0,0,29.85,8.86L717.92,757.37a22,22,0,0,0,8.85-29.85l-85.69-158A22.05,22.05,0,0,0,622.17,558l-155.28-3.13ZM719.59,760.45h0Z" style="fill: #1d1d1b"/>
      </g>
      <g>
        <rect x="378.21" y="492.82" width="257.03" height="293.96" rx="10.28" transform="translate(-243.74 319) rotate(-28.48)" style="fill: #f0f0f0"/>
        <path d="M545.47,453a10.28,10.28,0,0,1,9,5.39L684.87,698.68a10.29,10.29,0,0,1-4.14,13.94L472.88,825.36a10.28,10.28,0,0,1-13.95-4.13L328.59,580.91A10.28,10.28,0,0,1,332.72,567L540.58,454.23a10.14,10.14,0,0,1,4.89-1.25m0-7h0a17.3,17.3,0,0,0-8.23,2.1L329.38,560.82a17.29,17.29,0,0,0-6.95,23.43L452.78,824.56a17.28,17.28,0,0,0,23.43,7L684.07,718.78A17.32,17.32,0,0,0,691,695.34L560.67,455a17.27,17.27,0,0,0-15.2-9Z" style="fill: #4c3133"/>
      </g>
      <path d="M540.58,454.23,361.1,551.58l25.29,135.91,20.07,37a18.25,18.25,0,0,0,5.2-.2l213.56-39.75a18.11,18.11,0,0,0,14.49-21.11l-13.6-73.08-71.59-132A10.27,10.27,0,0,0,540.58,454.23Z" style="fill: #e2e2e0"/>
      <g>
        <path d="M394.54,378H616.06a18.11,18.11,0,0,1,18.11,18.11V665.89A18.11,18.11,0,0,1,616.06,684H398.83a18.11,18.11,0,0,1-18.11-18.11V391.83A13.82,13.82,0,0,1,394.54,378Z" transform="translate(-88.59 101.81) rotate(-10.54)" style="fill: #fff"/>
        <path d="M589.57,360.41a18.12,18.12,0,0,1,17.78,14.8l49.36,265.22a18.11,18.11,0,0,1-14.49,21.11L428.66,701.29a18.08,18.08,0,0,1-21.11-14.49L357.4,417.37a13.82,13.82,0,0,1,11.06-16.12l217.77-40.53a19,19,0,0,1,3.34-.31m0-7h0a25.71,25.71,0,0,0-4.62.43L367.17,394.37a20.84,20.84,0,0,0-16.65,24.28l50.14,269.43a25.11,25.11,0,0,0,24.66,20.52,25.62,25.62,0,0,0,4.62-.43L643.5,668.42a25.09,25.09,0,0,0,20.09-29.27L614.23,373.93a25.1,25.1,0,0,0-24.66-20.52Z" style="fill: #4c3133"/>
      </g>
      <g>
        <rect x="384" y="413.39" width="211.24" height="23.37" rx="10.61" transform="translate(-66.32 91.38) rotate(-9.99)" style="fill: #f0f0f0"/>
        <rect x="390.86" y="452.33" width="211.24" height="23.37" rx="10.61" transform="translate(-72.97 93.16) rotate(-9.99)" style="fill: #f0f0f0"/>
        <rect x="397.72" y="491.28" width="211.24" height="23.37" rx="10.61" transform="translate(-79.62 94.94) rotate(-9.99)" style="fill: #f0f0f0"/>
        <rect x="404.58" y="530.23" width="211.24" height="23.37" rx="10.61" transform="translate(-86.27 96.72) rotate(-9.99)" style="fill: #f0f0f0"/>
        <rect x="411.44" y="569.18" width="211.24" height="23.37" rx="10.61" transform="translate(-92.93 98.5) rotate(-9.99)" style="fill: #f0f0f0"/>
        <rect x="418.3" y="608.12" width="211.24" height="23.37" rx="10.61" transform="translate(-99.58 100.28) rotate(-9.99)" style="fill: #f0f0f0"/>
      </g>
      <g>
        <path d="M395,759.19l158.52-33.05L667.71,611.29l68.89,127A11.36,11.36,0,0,1,732,753.7L479.33,890.76a11.36,11.36,0,0,1-15.41-4.57Z" style="fill: #fff"/>
        <path d="M667.71,611.29l68.89,127A11.36,11.36,0,0,1,732,753.7L479.33,890.76a11.35,11.35,0,0,1-15.41-4.57L395,759.19l158.52-33.05L667.71,611.29m0-7a7,7,0,0,0-5,2.07L550.08,719.72,393.61,752.34a7,7,0,0,0-4.73,10.19l68.89,127a18.36,18.36,0,0,0,24.89,7.39L735.37,759.85A18.37,18.37,0,0,0,742.75,735L673.87,608a7,7,0,0,0-5.16-3.6,8.4,8.4,0,0,0-1-.07Z" style="fill: #4c3133"/>
      </g>
      <path d="M469.92,863.19,411.64,755.73,395,759.19l68.88,127a11.36,11.36,0,0,0,15.41,4.57L732,753.7a11.36,11.36,0,0,0,4.57-15.41L733.74,733,485.33,867.76A11.36,11.36,0,0,1,469.92,863.19Z" style="fill: #f0f0f0"/>
      <g>
        <path d="M467.52,818.18l57.88-118.3a22.17,22.17,0,0,1,24.15-12l116.39,22.69" style="fill: #fff"/>
        <path d="M467.52,821.69a3.54,3.54,0,0,1-1.54-.36,3.5,3.5,0,0,1-1.6-4.68l57.88-118.31a25.71,25.71,0,0,1,28-13.91l116.39,22.7a3.5,3.5,0,1,1-1.34,6.87L548.88,691.3a18.71,18.71,0,0,0-20.34,10.12l-57.87,118.3A3.52,3.52,0,0,1,467.52,821.69Z" style="fill: #4c3133"/>
      </g>
    </g>
    <g id="b895545a-b1f8-49d6-b9c4-6e2d586505aa" data-name="magnifier">
      <g>
        <circle cx="478.44" cy="447.61" r="87.21" style="fill: #f0f0f0"/>
        <path d="M478.51,538.33a90.74,90.74,0,1,1,28.08-4.49A90.88,90.88,0,0,1,478.51,538.33Zm0-174.47A83.88,83.88,0,1,0,516.34,373,83.85,83.85,0,0,0,478.53,363.86Z" style="fill: #4c3133"/>
      </g>
      <g>
        <circle cx="478.44" cy="447.61" r="63.95" style="fill: #f0f0f0"/>
        <path d="M478.37,515.1a67.56,67.56,0,1,1,21-3.37A67.14,67.14,0,0,1,478.37,515.1Zm.13-128a60.75,60.75,0,0,0-18.82,3,60.45,60.45,0,1,0,76.23,38.71h0a60.56,60.56,0,0,0-57.41-41.72Z" style="fill: #4c3133"/>
      </g>
      <g>
        <path d="M471.15,412.94c3.9,5.81,15.65,46,15.65,46S454,432.9,450.09,427.08a12.68,12.68,0,1,1,21.06-14.14Z" style="fill: #ffd900"/>
        <path d="M486.8,462.46a3.53,3.53,0,0,1-2.18-.76c-3.4-2.71-33.34-26.57-37.43-32.66A16.18,16.18,0,1,1,474.05,411h0c4.09,6.09,14.89,42.83,16.11,47a3.52,3.52,0,0,1-1.41,3.89A3.47,3.47,0,0,1,486.8,462.46Zm-26.19-51.63a9.07,9.07,0,0,0-5.11,1.56,9.18,9.18,0,0,0-2.5,12.74c2.07,3.09,15.49,14.48,27.21,24-4.42-14.46-9.9-31.19-12-34.27A9.17,9.17,0,0,0,460.61,410.83Z" style="fill: #4c3133"/>
      </g>
      <g>
        <circle cx="500.46" cy="478.35" r="8.42" style="fill: #ffd900"/>
        <path d="M500.44,490.27a11.92,11.92,0,1,1,11.77-13.89h0a11.93,11.93,0,0,1-9.78,13.73A12.23,12.23,0,0,1,500.44,490.27Zm0-16.83a4.43,4.43,0,0,0-.81.07,4.83,4.83,0,0,0-3.19,2,4.91,4.91,0,0,0,1.15,6.86,4.92,4.92,0,0,0,7.7-4.82h0A4.92,4.92,0,0,0,500.46,473.44Z" style="fill: #4c3133"/>
      </g>
      <g>
        <rect x="574.47" y="487.88" width="25.38" height="111.76" rx="8.53" transform="translate(-211.39 596.11) rotate(-46.55)" style="fill: #ffd900"/>
        <path d="M618.67,591.37a12,12,0,0,1-8.27-3.3L541.65,523a12,12,0,0,1-.46-17l5.72-6a12,12,0,0,1,17-.47l68.75,65.12a12.05,12.05,0,0,1,.46,17h0l-5.72,6a11.94,11.94,0,0,1-8.41,3.75Zm-63-88.22h-.14a5,5,0,0,0-3.52,1.57l-5.72,6a5,5,0,0,0,.19,7.11L615.21,583a5,5,0,0,0,7.12-.19l5.71-6a5,5,0,0,0-.19-7.11L559.1,504.53A5,5,0,0,0,555.65,503.15Zm74.94,76h0Z" style="fill: #4c3133"/>
      </g>
      <g>
        <path d="M601.86,505.61c-8.66-7.68-23.19-14.23-35-12.31-12,1.95-22.11,11-30.64,18.89-5.57,5.13-10.77,11.15-12.63,18.49s.54,16.2,7.18,19.84c4.86,2.66,11.15,2.25,15.47,5.7,3.44,2.76,4.77,7.29,6.63,11.28,2.77,5.93,7.51,11.41,13.87,12.91a20.15,20.15,0,0,0,11.52-1.07c9.13-3.37,16-10.94,22.4-18.25,5-5.63,10-11.45,12.49-18.54C617.63,529.64,612.08,514.67,601.86,505.61Z" style="fill: #c5e6f1"/>
        <path d="M571.2,493c10.86,0,23,5.89,30.66,12.65,10.22,9.06,15.77,24,11.3,36.94-2.45,7.09-7.53,12.91-12.49,18.54-6.44,7.31-13.27,14.88-22.4,18.25a22.52,22.52,0,0,1-7.76,1.5,16.37,16.37,0,0,1-3.76-.43c-6.36-1.5-11.1-7-13.87-12.91-1.86-4-3.19-8.52-6.63-11.28-4.32-3.45-10.61-3-15.47-5.7-6.64-3.64-9-12.5-7.18-19.84s7.06-13.36,12.63-18.49c8.53-7.86,18.65-16.94,30.64-18.89a26.83,26.83,0,0,1,4.33-.34m0-7a34.6,34.6,0,0,0-5.46.43c-14.37,2.33-25.86,12.92-34.25,20.65-5.11,4.7-12.19,12.09-14.68,21.92-2.42,9.56.45,22.14,10.61,27.7a33.77,33.77,0,0,0,8.69,3c2.35.56,4.57,1.08,5.76,2,1.35,1.08,2.37,3.47,3.45,6,.38.9.78,1.83,1.22,2.77,4.12,8.83,10.9,14.94,18.59,16.76a23.23,23.23,0,0,0,5.38.62,29.45,29.45,0,0,0,10.19-1.93c11-4.07,18.89-13,25.22-20.19,5.12-5.8,10.92-12.38,13.86-20.88a38,38,0,0,0-.11-24.36,46.46,46.46,0,0,0-13.16-20.11C599,493.72,585.27,486,571.2,486Z" style="fill: #4c3133"/>
      </g>
    </g>
  </g>
</svg>
