<svg xmlns="http://www.w3.org/2000/svg" width="1000" height="1000" viewBox="0 0 1000 1000">
  <g id="b30add75-392f-4ead-b31d-5def39f214cd" data-name="Welcome">
    <g id="e344c081-eab5-4fa4-87b4-3a40606033bf" data-name="Computer">
      <g>
        <path d="M644.61,784.82H262.9a35.14,35.14,0,0,1-33.54-24.66L152.1,512.55A19.69,19.69,0,0,1,170.9,487H551.68Z" style="fill: #f0f0f0"/>
        <path d="M551.68,487l92.93,297.82H262.9a35.14,35.14,0,0,1-33.54-24.66L152.1,512.55A19.69,19.69,0,0,1,170.9,487H551.68m0-7H170.9a26.7,26.7,0,0,0-25.48,34.64l77.26,247.6a41.94,41.94,0,0,0,40.22,29.58H644.61a7,7,0,0,0,6.68-9.08L558.36,484.91a7,7,0,0,0-6.68-4.91Z" style="fill: #4c3133"/>
      </g>
      <g>
        <path d="M649.49,784.82H277a25.3,25.3,0,0,1-24.16-17.76L169.11,498.88A9.16,9.16,0,0,1,177.85,487H557.78a20.63,20.63,0,0,1,19.69,14.49L661,769.18A12.05,12.05,0,0,1,649.49,784.82Z" style="fill: #fff"/>
        <path d="M557.78,487a20.63,20.63,0,0,1,19.69,14.49L661,769.18a12.05,12.05,0,0,1-11.51,15.64H277a25.3,25.3,0,0,1-24.16-17.76L169.11,498.88A9.16,9.16,0,0,1,177.85,487H557.78m0-7H177.85a16.16,16.16,0,0,0-15.42,21l83.68,268.17A32.15,32.15,0,0,0,277,791.82H649.49a19.05,19.05,0,0,0,18.19-24.73L584.15,499.4A27.51,27.51,0,0,0,557.78,480Z" style="fill: #4c3133"/>
      </g>
      <path d="M383.9,657.24h-125c-4.12,0-8.49-3.34-9.75-7.47l-6.46-21.14c-1.26-4.12,1.06-7.46,5.18-7.46h125c4.12,0,8.48,3.34,9.74,7.46l6.47,21.14C390.34,653.9,388,657.24,383.9,657.24Z" style="fill: #f0f0f0"/>
      <path d="M617.64,754.74H275c-9.59,0-19.38-7.46-22.29-17L188.36,527.19c-1.51-5-.86-9.85,1.8-13.44a13.81,13.81,0,0,1,11.48-5.38h343c9.47,0,19.14,7.37,22,16.78l64.37,210.56c1.54,5,.88,10-1.81,13.59A14,14,0,0,1,617.64,754.74Zm-416-239.37a7,7,0,0,0-5.86,2.54c-1.34,1.81-1.59,4.38-.72,7.24l64.37,210.56c2,6.52,9.14,12,15.6,12H617.64a7.16,7.16,0,0,0,6-2.61c1.37-1.85,1.63-4.47.74-7.38L560,527.19c-2-6.41-9-11.82-15.33-11.82Z" style="fill: #4c3133"/>
      <path d="M513.5,487H474.06a177.66,177.66,0,0,1-4.27,24.09c-10.52,40.94-40.25,75.49-76.42,98.3-35.68,22.49-69.28,32.49-110.92,39.08a99.18,99.18,0,0,0,14.35,33H513.5Z" style="fill: #e2e2e0"/>
      <path d="M568.32,546H196.7a3.5,3.5,0,0,1-3.35-2.47l-5.6-18.31a13.37,13.37,0,0,1,1.62-12,12.36,12.36,0,0,1,10.27-4.82h347c8.35,0,16.87,6.49,19.41,14.77l5.59,18.31a3.5,3.5,0,0,1-3.34,4.52Zm-369-7h364.3l-4.22-13.78c-1.63-5.33-7.45-9.82-12.71-9.82h-347a5.55,5.55,0,0,0-4.65,2c-1.05,1.43-1.25,3.48-.54,5.78Z" style="fill: #4c3133"/>
      <ellipse cx="239.72" cy="528.01" rx="3.97" ry="5.38" transform="translate(-317.03 365.88) rotate(-49.35)" style="fill: #4c3133"/>
      <ellipse cx="260.07" cy="528.01" rx="3.97" ry="5.38" transform="translate(-309.94 381.31) rotate(-49.35)" style="fill: #4c3133"/>
      <ellipse cx="373.15" cy="496.77" rx="3.97" ry="5.38" transform="translate(-246.83 456.22) rotate(-49.35)" style="fill: #4c3133"/>
      <ellipse cx="217.53" cy="528.01" rx="3.97" ry="5.38" transform="translate(-324.77 349.05) rotate(-49.35)" style="fill: #4c3133"/>
      <path d="M367.19,602.59h-125c-4.12,0-8.48-3.34-9.74-7.47L226,574c-1.26-4.12,1.06-7.46,5.18-7.46h125c4.12,0,8.49,3.34,9.75,7.46l6.46,21.14C373.63,599.25,371.31,602.59,367.19,602.59Z" style="fill: #f0f0f0"/>
      <path d="M400.61,711.89h-125c-4.12,0-8.49-3.34-9.75-7.47l-6.46-21.14c-1.26-4.12,1.06-7.46,5.18-7.46h125c4.12,0,8.48,3.34,9.74,7.46l6.47,21.14C407.05,708.55,404.73,711.89,400.61,711.89Z" style="fill: #f0f0f0"/>
      <ellipse cx="461.74" cy="694.4" rx="18.77" ry="25.46" transform="translate(-365.89 592.31) rotate(-49.35)" style="fill: #f0f0f0"/>
      <g>
        <path d="M262.81,784.82h684.1a0,0,0,0,1,0,0v0A17.91,17.91,0,0,1,929,802.74H280.73a17.91,17.91,0,0,1-17.91-17.91v0A0,0,0,0,1,262.81,784.82Z" style="fill: #f0f0f0"/>
        <path d="M946.91,784.82h0A17.91,17.91,0,0,1,929,802.74H280.73a17.92,17.92,0,0,1-17.92-17.92h684.1m0-7H262.81a7,7,0,0,0-7,7,25,25,0,0,0,24.92,24.92H929a25,25,0,0,0,24.91-24.92,7,7,0,0,0-7-7Z" style="fill: #4c3133"/>
      </g>
      <path d="M290.31,794.22a17.92,17.92,0,0,1-15.76-9.4H262.81a17.92,17.92,0,0,0,17.92,17.92H929a17.91,17.91,0,0,0,15.9-9.69,17.9,17.9,0,0,1-6.31,1.17Z" style="fill: #e2e2e0"/>
      <g>
        <path d="M584.72,784.82S586.2,797.3,570.34,807" style="fill: #fff"/>
        <path d="M570.34,810.5a3.5,3.5,0,0,1-1.83-6.49c13.57-8.29,12.77-18.38,12.73-18.81a3.5,3.5,0,0,1,7-.79c.07.6,1.55,14.83-16,25.58A3.56,3.56,0,0,1,570.34,810.5Z" style="fill: #4c3133"/>
      </g>
    </g>
    <g id="a1afe86b-4f93-4121-a35d-f69c8a59129a" data-name="flower">
      <g>
        <path d="M876.09,637.75c5.42-.2,10.6-2.14,15.67-4.06,5.57-2.11,11.14-4.23,16.54-6.76,4.62-2.17,17.73-9.86,19.22-12.07s1.66-5.53-.3-7.34c-3-2.78-8.41-.32-11.75-2.71-4.5-3.22-.31-9.09,3.43-10.73,5.57-2.45,12-1.08,17.55-3.61,4.09-1.88,7.18-7.16,4.7-10.91-1.95-2.94-6.25-3.45-8.43-6.22-3.36-4.28.55-10.78,5.49-13.07s10.71-2.31,15.57-4.75,8.34-9.34,4.57-13.25c-4.91-5.1-15,1.13-20.11-3.81-4-3.92-.86-10.7,2.79-15s8-9.74,5.64-14.84c-2.24-4.85-9.26-5.35-14-3s-8.3,6.7-12.76,9.64-11,4.17-14.79.4c-3.16-3.15-3-8.37-5.5-12.08-4.53-6.79-15.89-5-21,1.42s-5.55,15.2-5.6,23.36c0,5.47-1.9,12.92-7.36,12.54-3.8-.25-6-4.51-9.42-6.16-6.48-3.1-13.61,5-13,12.12s5.61,13,9.45,19.1c7.63,12.06,10,26.75,10,41.2C862.68,620.42,855.74,638.48,876.09,637.75Z" style="fill: #ffd900"/>
        <path d="M874.92,641.27c-5.83,0-10.06-1.49-12.92-4.54-5-5.29-4.16-13.49-3.37-21.42.28-2.86.55-5.57.55-8.06,0-16.42-3.11-29.29-9.47-39.34-.74-1.17-1.52-2.33-2.31-3.49-3.49-5.18-7.11-10.53-7.66-17.19a16.66,16.66,0,0,1,7-14.42,10.83,10.83,0,0,1,11.06-1.14,18.82,18.82,0,0,1,4.63,3.45c1.34,1.23,2.5,2.3,3.52,2.37a1.45,1.45,0,0,0,1.22-.44c1.39-1.29,2.38-4.84,2.4-8.63.05-8.52.59-18.22,6.36-25.51a19.38,19.38,0,0,1,15.58-7,13.47,13.47,0,0,1,11,5.85,23.31,23.31,0,0,1,2.69,6.38c.65,2.15,1.22,4,2.37,5.16,2.35,2.34,7.11,1.31,10.39-.85a48.82,48.82,0,0,0,4.94-3.91,40.06,40.06,0,0,1,8.18-5.93,16.57,16.57,0,0,1,12.45-1,10.62,10.62,0,0,1,6.34,5.59c3.41,7.39-2.81,14.66-6.16,18.57-3,3.47-5,8.21-3,10.18,1.37,1.35,4.26,1.11,7.31.87,4.12-.33,9.25-.74,12.87,3a9.43,9.43,0,0,1,2.42,8.33,15.25,15.25,0,0,1-7.93,10.47,37.57,37.57,0,0,1-8.86,2.8,34.25,34.25,0,0,0-6.82,2,8.73,8.73,0,0,0-4.6,5.3,2.61,2.61,0,0,0,.39,2.42,10,10,0,0,0,3,2,13.91,13.91,0,0,1,5.6,4.44,9.21,9.21,0,0,1,1.08,7.73,13.53,13.53,0,0,1-7.23,8.29c-3.34,1.53-6.73,1.85-10,2.15a24.78,24.78,0,0,0-7.59,1.48c-1.53.67-3.15,2.58-3.28,3.86,0,.24,0,.45.48.83.71.51,2.26.53,3.75.55,2.57,0,5.78.08,8.33,2.43,3.11,2.87,3.46,8,.83,11.87-2.35,3.49-17.75,11.92-20.64,13.27C904.09,632.77,898.2,635,893,637c-5,1.91-10.73,4.07-16.78,4.28ZM853.26,537.64a4.56,4.56,0,0,0-2.59.93,9.63,9.63,0,0,0-4,8.08c.41,4.84,3.36,9.22,6.49,13.85.83,1.22,1.65,2.44,2.43,3.67,7.09,11.2,10.54,25.29,10.55,43.07,0,2.84-.3,5.85-.59,8.76-.63,6.38-1.28,13,1.51,15.94,1.58,1.69,4.59,2.46,8.87,2.31h0c4.9-.18,9.81-2,14.55-3.83,5.08-1.92,10.84-4.1,16.29-6.66,4.82-2.27,16.2-9.12,17.85-10.93.63-1,.64-2.32.18-2.73s-2.15-.56-3.68-.58c-2.33,0-5.23-.08-7.72-1.86a7.68,7.68,0,0,1-3.38-7.25c.45-4.27,4.16-8.1,7.43-9.53a30.35,30.35,0,0,1,9.76-2,24,24,0,0,0,7.75-1.55,6.6,6.6,0,0,0,3.4-3.84,2.15,2.15,0,0,0-.17-1.94,8.62,8.62,0,0,0-3-2.12A15.41,15.41,0,0,1,930,575.5a9.67,9.67,0,0,1-1.7-8.38,15.62,15.62,0,0,1,8.47-10,39.3,39.3,0,0,1,8.23-2.49,31.65,31.65,0,0,0,7.24-2.22,8.27,8.27,0,0,0,4.18-5.4,2.44,2.44,0,0,0-.56-2.3c-1.23-1.27-3.57-1.19-7.27-.89-4.06.32-9.11.73-12.76-2.83-5.39-5.26-2.59-13.71,2.57-19.75,3.22-3.76,6.53-8,5.12-11.09a3.74,3.74,0,0,0-2.3-1.92,9.59,9.59,0,0,0-7,.62,34.08,34.08,0,0,0-6.74,5,54.48,54.48,0,0,1-5.67,4.47c-5.55,3.66-13.92,5.2-19.18,0-2.4-2.39-3.32-5.42-4.13-8.09a17.68,17.68,0,0,0-1.81-4.53,6.68,6.68,0,0,0-5.5-2.74,12.41,12.41,0,0,0-9.8,4.39c-4.39,5.55-4.8,13.52-4.85,21.21,0,2.22-.38,9.77-4.63,13.72a8.5,8.5,0,0,1-6.46,2.3c-3.49-.24-5.88-2.45-7.8-4.23a13.59,13.59,0,0,0-2.9-2.27A3.33,3.33,0,0,0,853.26,537.64Z" style="fill: #4c3133"/>
      </g>
      <g>
        <path d="M799.1,681l15.75,96.24H893l17.86-96.08c.76-4.1-1.92-8-5.51-8H804.64C801.1,673.15,798.44,676.9,799.1,681Z" style="fill: #fff"/>
        <path d="M905.36,673.15c3.6,0,6.27,3.86,5.51,8L893,777.19H814.85L799.1,681c-.66-4.05,2-7.8,5.54-7.8H905.36m0-7H804.64a12.26,12.26,0,0,0-9.34,4.41,14.21,14.21,0,0,0-3.11,11.52l15.75,96.24a7,7,0,0,0,6.91,5.87H893a7,7,0,0,0,6.89-5.73l17.85-96.08a14.17,14.17,0,0,0-3-11.71,12.25,12.25,0,0,0-9.43-4.52Z" style="fill: #4c3133"/>
      </g>
      <path d="M844.06,763.19a21.44,21.44,0,0,1-21.15-18l-11.79-72.07h-6.48c-3.54,0-6.2,3.75-5.54,7.8l15.75,96.24H893l3.06-16.43a21.44,21.44,0,0,1-9.87,2.43Z" style="fill: #f0f0f0"/>
      <path d="M866.07,670.54a4.11,4.11,0,0,1-.77-.08,3.5,3.5,0,0,1-2.64-4.19c4.66-20.68,9.48-42.07,17.41-62.28,9-22.88,20.94-41.24,35.57-54.58a3.5,3.5,0,1,1,4.72,5.18c-13.83,12.6-25.19,30.08-33.78,52-7.73,19.71-12.49,40.83-17.09,61.26A3.51,3.51,0,0,1,866.07,670.54Z" style="fill: #4c3133"/>
      <g>
        <path d="M867.63,606.29c-7.06,10.06-19.86,25.81-33.43,26.1-11.09.24-20.83-10-28.13-17.32a122.15,122.15,0,0,1-26.83-40c-.48-1.18-.94-2.59-.27-3.67,1.38-2.24,4.69-.27,7.25.33,4.1,1,8.12-2.78,9-6.9s-.38-8.37-1.66-12.39l-13.86-43.58c-1.25-4-2.52-8.18-1.38-12.16s5.75-7.24,9.46-5.38c4.64,2.32,5.68,10.93,10.81,10.11,4-.64,4.17-6.35,3.38-10.37a159.29,159.29,0,0,1,1.81-69.45c.78-3.09,2.23-6.7,5.37-7.2,3.92-.64,6.48,4.13,6.8,8.08s-.11,8.5,2.7,11.3c3.15,3.15,8.8,2,12-1.08s4.67-7.51,6.33-11.65a94.62,94.62,0,0,1,12.49-22.12c3.51-4.63,9.14-9.37,14.47-7.07,4.84,2.09,5.75,8.48,5.56,13.74-.46,12.89-3.32,25.55-6.16,38.13l19.78-16.32c2-1.65,4.34-3.4,6.9-3.05,4,.55,5.51,5.54,5.57,9.57A45.19,45.19,0,0,1,880,468.51c-3,2.57-6.46,4.81-8.63,8.14s-2.6,8.27.33,11l16-9.53c2.35-1.4,5.15-2.84,7.68-1.81s3.47,3.89,3.16,6.44-1.69,4.82-3,7L866.74,536a6.1,6.1,0,0,0-1.19,3c-.07,3.13,4.36,4.32,7.25,3.13s5.25-3.65,8.32-4.25c5.1-1,9.84,3.86,10.7,9s-1,10.26-2.89,15.11C883,577.32,877.07,592.84,867.63,606.29Z" style="fill: #ffd900"/>
        <path d="M833.82,635.89c-11.86,0-21.84-10-29.16-17.28l-1.06-1.06A126.3,126.3,0,0,1,776,576.38c-.46-1.12-1.69-4.1,0-6.83,2.51-4.08,7.18-2.49,9.43-1.73.59.2,1.15.39,1.6.49a2.81,2.81,0,0,0,2.19-.48,6.28,6.28,0,0,0,2.63-3.77c.74-3.31-.49-7.17-1.57-10.57l-13.86-43.58c-1.22-3.82-2.88-9.05-1.42-14.18a12.18,12.18,0,0,1,6.65-7.61,9,9,0,0,1,7.74.06c2.9,1.44,4.56,4.15,6,6.54.86,1.41,2,3.35,2.67,3.25.12,0,.14,0,.23-.15.57-.82.84-3.17.27-6.09a163.08,163.08,0,0,1,1.85-71c1.48-5.86,4.24-9.16,8.2-9.8a7.75,7.75,0,0,1,6.17,1.65c3.08,2.42,4.43,6.55,4.68,9.62.06.78.09,1.58.13,2.39.12,2.77.23,5.39,1.55,6.71,1.65,1.64,5.17.74,7.1-1.12,2.28-2.21,3.57-5.48,4.92-8.95l.59-1.49a98.22,98.22,0,0,1,13-22.93c5.8-7.66,12.78-10.71,18.65-8.17,3.72,1.61,8.07,5.88,7.67,17.08a168.08,168.08,0,0,1-4,28.83l12-9.85c1.86-1.53,5.34-4.39,9.6-3.81,5.11.69,8.48,5.79,8.59,13a48.51,48.51,0,0,1-16.89,37.29c-.76.64-1.53,1.26-2.3,1.88a25.21,25.21,0,0,0-5.66,5.51,7.33,7.33,0,0,0-1.18,4.12l12.78-7.62c2.09-1.24,6.42-3.82,10.79-2,3.67,1.5,5.86,5.65,5.32,10.1-.41,3.36-2.15,6.17-3.55,8.43l-28.73,46.3a10.18,10.18,0,0,0-.57,1,3.31,3.31,0,0,0,2.34,0,18,18,0,0,0,2.82-1.6,17.55,17.55,0,0,1,6.15-2.84,11.24,11.24,0,0,1,8.58,1.94,15.4,15.4,0,0,1,6.24,9.89c1,6.21-1.24,12.16-3.08,17-5.87,15.33-12,31.19-21.7,45.07h0c-12.68,18.06-24.86,27.34-36.22,27.59Zm-51.11-61.6a119.37,119.37,0,0,0,25.82,38.3l1.08,1.07c6.88,6.87,15.43,15.44,24.51,15.23,8.88-.19,19.47-8.7,30.64-24.61h0c9.25-13.17,15.17-28.62,20.9-43.56,1.61-4.2,3.43-9,2.7-13.28a8.38,8.38,0,0,0-3.32-5.29,4.33,4.33,0,0,0-3.25-.83,11.68,11.68,0,0,0-3.71,1.86,25.31,25.31,0,0,1-4,2.19,10,10,0,0,1-9.14-.86,6.51,6.51,0,0,1-2.94-5.58,9.32,9.32,0,0,1,1.71-4.77l28.73-46.3c1.14-1.85,2.33-3.75,2.55-5.59.14-1.17-.34-2.49-1-2.77-1.15-.46-3.63,1-4.57,1.58l-16,9.53a3.51,3.51,0,0,1-4.16-.43c-4.44-4.08-3.78-11-.89-15.43a30.84,30.84,0,0,1,7.16-7.17q1.08-.85,2.13-1.74A41.43,41.43,0,0,0,892.13,434c0-2.8-1-5.95-2.54-6.16-1.23-.16-3.16,1.43-4.2,2.28L865.6,446.43A3.5,3.5,0,0,1,860,443c2.77-12.24,5.63-24.89,6.08-37.49.1-2.63,0-8.93-3.45-10.39-3.2-1.39-7.55,2.34-10.29,6a91,91,0,0,0-12,21.31l-.57,1.43c-1.49,3.84-3.19,8.18-6.57,11.44-4.41,4.26-12.26,5.69-16.92,1-3.24-3.24-3.44-7.74-3.59-11.35,0-.73-.07-1.45-.12-2.15a7.25,7.25,0,0,0-2-4.66c-.39-.31-.59-.27-.73-.25-.69.11-1.72,1.38-2.53,4.6a156.2,156.2,0,0,0-1.78,67.93c.44,2.21,1.18,7.76-1.39,11.44a7.18,7.18,0,0,1-4.87,3.06c-5.24.84-7.94-3.58-9.74-6.5-1-1.67-2.08-3.39-3.19-3.94a2,2,0,0,0-1.79.09,5.15,5.15,0,0,0-2.73,3.12c-.82,2.87.12,6.29,1.35,10.14l13.86,43.58c1.28,4,2.88,9.06,1.73,14.21a13.21,13.21,0,0,1-5.74,8.18,9.88,9.88,0,0,1-7.51,1.37c-.78-.19-1.53-.44-2.25-.68Z" style="fill: #4c3133"/>
      </g>
      <path d="M841.44,669.66a3.5,3.5,0,0,1-3.32-2.42,283.56,283.56,0,0,1,1.34-178.38,3.5,3.5,0,1,1,6.62,2.26,276.57,276.57,0,0,0-1.31,174,3.52,3.52,0,0,1-3.33,4.59Z" style="fill: #4c3133"/>
      <path d="M858.5,696h-61a3.5,3.5,0,0,1,0-7h61a3.5,3.5,0,0,1,0,7Z" style="fill: #4c3133"/>
      <path d="M892.5,696h-12a3.5,3.5,0,0,1,0-7h12a3.5,3.5,0,0,1,0,7Z" style="fill: #4c3133"/>
    </g>
    <g id="abfd7bec-9c5f-4ea3-b526-b232ec615dd8" data-name="window 3">
      <g>
        <path d="M680.26,144H455.74A14.73,14.73,0,0,0,441,158.72v65.4a14.72,14.72,0,0,0,14.73,14.73h6.33a1.67,1.67,0,0,1,1.67,1.67v17.15a1.66,1.66,0,0,0,2.51,1.44l33.83-20a1.61,1.61,0,0,1,.85-.24H680.26A14.73,14.73,0,0,0,695,224.12v-65.4A14.74,14.74,0,0,0,680.26,144Z" style="fill: #fff"/>
        <path d="M680.26,144A14.74,14.74,0,0,1,695,158.72v65.4a14.73,14.73,0,0,1-14.74,14.73H500.93a1.61,1.61,0,0,0-.85.24l-33.83,20a1.64,1.64,0,0,1-.84.23,1.67,1.67,0,0,1-1.67-1.67V240.52a1.67,1.67,0,0,0-1.67-1.67h-6.33A14.72,14.72,0,0,1,441,224.12v-65.4A14.73,14.73,0,0,1,455.74,144H680.26m0-7H455.74A21.76,21.76,0,0,0,434,158.72v65.4a21.76,21.76,0,0,0,21.73,21.73h1v11.82a8.66,8.66,0,0,0,13.08,7.46l32.57-19.28H680.26A21.76,21.76,0,0,0,702,224.12v-65.4A21.76,21.76,0,0,0,680.26,137Z" style="fill: #4c3133"/>
      </g>
      <path d="M583.4,204.76H464.8a3.5,3.5,0,1,1,0-7H583.4a3.5,3.5,0,0,1,0,7Z" style="fill: #4c3133"/>
      <g>
        <line x1="464.8" y1="182.49" x2="529.04" y2="181.5" style="fill: #fff"/>
        <path d="M464.8,186a3.5,3.5,0,0,1-.05-7L529,178a3.5,3.5,0,1,1,.1,7l-64.24,1Z" style="fill: #4c3133"/>
      </g>
      <g>
        <path d="M633.13,195.69c-5.56-.21-21.62.62-25.39,16.93a2.15,2.15,0,0,1-4.14.23c-3.5-10.45-4.44-28.71,29.65-31.85a2.17,2.17,0,0,0,2-1.93L636.53,166a2.15,2.15,0,0,1,3.46-1.49l28.6,22.24a2.15,2.15,0,0,1,.11,3.31l-28.56,25.39a2.15,2.15,0,0,1-3.58-1.43l-1.37-16.35A2.16,2.16,0,0,0,633.13,195.69Z" style="fill: #c5e6f1"/>
        <path d="M638.71,219.5a5.67,5.67,0,0,1-5.64-5.19l-1.26-15.14c-6,0-17.75,1.65-20.66,14.24a5.65,5.65,0,0,1-10.87.55c-2.9-8.66-2.33-16.46,1.64-22.55,5-7.61,15-12.25,29.93-13.79l1.19-12a5.65,5.65,0,0,1,9.1-3.9L670.74,184a5.65,5.65,0,0,1,.28,8.69l-28.56,25.39A5.63,5.63,0,0,1,638.71,219.5Zm-5.44-27.3a5.65,5.65,0,0,1,5.41,5.18l1.14,13.67,25.35-22.53-25.4-19.75-1.07,10.64a5.67,5.67,0,0,1-5.13,5.07c-13.25,1.22-21.92,4.84-25.78,10.76-2.47,3.77-2.65,8.16-2,12,6.13-14.65,22.3-15.27,27.48-15.07Zm-.28,7h0Z" style="fill: #4c3133"/>
      </g>
      <g>
        <line x1="541.51" y1="181.5" x2="551.51" y2="181.5" style="fill: #fff"/>
        <path d="M551.51,185h-10a3.5,3.5,0,0,1,0-7h10a3.5,3.5,0,0,1,0,7Z" style="fill: #4c3133"/>
      </g>
    </g>
    <g id="ac845387-16a0-419c-9123-2bc43dfcf916" data-name=" ghost">
      <g>
        <g>
          <path d="M652.81,417.68c-23.83-29.07-71.28-44.93-103.94-26.34-23.52,13.39-36.18,40.11-42.87,66.33s-8.92,53.67-18.68,78.91c-15.51,40.08-49.3,71.38-88,90C361.1,645,326.5,651,284.35,652.61c4,40.91,33.91,76,70.88,95H571a149.05,149.05,0,0,0,28.34-14.95c30.64-20.88,51.14-53.87,65-88.27a335,335,0,0,0,24.17-122.92C688.74,483.94,676.64,446.74,652.81,417.68Z" style="fill: #c5e6f1"/>
          <path d="M580.88,383.34c26.75,0,55.18,13.91,71.93,34.34,23.83,29.06,35.93,66.26,35.72,103.84a335,335,0,0,1-24.17,122.92c-13.85,34.4-34.35,67.39-65,88.27A149.05,149.05,0,0,1,571,747.66H355.23c-37-19-66.9-54.14-70.88-95,42.15-1.6,76.75-7.61,114.94-26,38.73-18.65,72.52-50,88-90,9.76-25.24,12-52.69,18.68-78.91s19.35-52.94,42.87-66.33a64.23,64.23,0,0,1,32-8m0-7c-13.14,0-25.07,3-35.47,8.92-21.86,12.44-37.4,36.22-46.19,70.68-2.53,9.94-4.45,20.11-6.31,29.94-3.2,16.92-6.21,32.89-12.12,48.17-13.77,35.57-44.58,67-84.54,86.25-33.72,16.24-66.21,23.57-112.16,25.32a7,7,0,0,0-6.7,7.67c2,20.73,10.48,41.24,24.49,59.34A151,151,0,0,0,352,753.88a7,7,0,0,0,3.21.78H571a6.89,6.89,0,0,0,2.61-.51,156.22,156.22,0,0,0,29.67-15.66c28.1-19.14,50.82-49.9,67.55-91.43a344.45,344.45,0,0,0,24.67-125.5c.22-40.24-13-78.7-37.31-108.32-18.37-22.42-48.73-36.9-77.34-36.9Z" style="fill: #4c3133"/>
        </g>
        <path d="M592,725h-179c-43.46,0-83.26-25.57-100.16-65.61-1.17-2.76-2.2-5.58-3.13-8.42-8.22.78-16.66,1.31-25.43,1.64,4,40.91,33.91,76,70.88,95H571a142.66,142.66,0,0,0,62.73-48,135.87,135.87,0,0,1-13.39,10.42A149.05,149.05,0,0,1,592,725Z" style="fill: #81c4d4"/>
        <path d="M598.5,440.5c-55-5-55,47-36,67S618,508,649,511c16.91,1.64,38.88-8,37.44-17.16A162.37,162.37,0,0,0,666,436.58C644.18,435.45,639.42,444.22,598.5,440.5Z" style="fill: #81c4d4"/>
        <circle cx="662.34" cy="466.61" r="7.27" style="fill: #4c3133"/>
        <circle cx="600.27" cy="470.21" r="7.27" style="fill: #4c3133"/>
        <path d="M662.35,426.58l-.51,0-8.3-.84a5,5,0,0,1,1-10l8.29.84a5,5,0,0,1-.49,10Z" style="fill: #4c3133"/>
        <path d="M589.07,438a5,5,0,0,1-2-9.58l7.64-3.32a5,5,0,0,1,4,9.17l-7.65,3.32A5,5,0,0,1,589.07,438Z" style="fill: #4c3133"/>
        <g>
          <path d="M609.13,360.05c-23.68-7-53.82-1.88-75.47,10-9.47,5.2-18.23,12.11-28.69,14.81s-23.66-.55-27.71-10.56c-2.39-5.89-1-12.83,2.44-18.17s8.69-9.27,14.2-12.42a79.42,79.42,0,0,1,45.87-10.07c4.3.37,10.12.07,11-4.15.66-3.27-2.61-6-5.78-7s-6.74-1.28-9.28-3.42c-3.25-2.74-3.62-7.91-1.67-11.68s5.72-6.31,9.65-7.9c15.91-6.44,34.89.93,46.26,13.79s16.44,30.05,19.46,46.94Z" style="fill: #c5e6f1"/>
          <path d="M497.77,389.25c-9.91,0-20-4.39-23.76-13.64-2.66-6.57-1.63-14.56,2.75-21.37,3.27-5.08,8.31-9.52,15.41-13.57a83.18,83.18,0,0,1,47.91-10.52c4.49.39,7-.39,7.24-1.36.16-.81-1.33-2.33-3.43-3-.79-.26-1.66-.47-2.57-.7-2.56-.62-5.45-1.33-7.88-3.38-4.28-3.6-5.37-10.46-2.53-16,2.09-4.05,6.05-7.35,11.45-9.53,16.13-6.54,36.76-.48,50.19,14.71,13,14.73,17.81,34.81,20.28,48.64a3.49,3.49,0,0,1-5,3.76c-21.41-6.21-50.5-2.28-72.51,9.8-2.67,1.46-5.37,3.12-8,4.72-6.69,4.11-13.6,8.36-21.53,10.41A32.74,32.74,0,0,1,497.77,389.25Zm35.36-52.4a76.17,76.17,0,0,0-37.49,9.9c-6.1,3.48-10.35,7.17-13,11.28-3.11,4.82-3.93,10.55-2.15,15,3.3,8.15,14.81,10.75,23.59,8.49,6.92-1.79,13.08-5.58,19.61-9.59,2.68-1.65,5.45-3.35,8.28-4.9,22.26-12.22,50.25-16.58,72.92-11.63-2.59-12.44-7.31-28.16-17.6-39.8-9.4-10.64-26.65-19.2-42.31-12.86-2.67,1.08-6.2,3.05-7.86,6.26-1.33,2.58-1,5.9.81,7.4,1.18,1,3,1.43,5,1.93,1,.25,2,.5,3.08.84,4.83,1.57,9.17,5.88,8.12,11.06-.61,3-3.34,7.93-14.71,6.95C537.36,336.94,535.24,336.85,533.13,336.85Z" style="fill: #4c3133"/>
        </g>
      </g>
      <g>
        <g>
          <path d="M775.73,378.84c-31.66,9.65-58.67-19.94-64.71-47-1.12-5-2.23-10.29-.8-15.23s6.35-9.28,11.37-8.18,7.52,6.57,9.7,11.23,6,9.8,11.06,9.19c5.5-.65,7.76-7.28,8.82-12.72l6.53-33.58c.95-4.89,2.38-10.45,6.84-12.68,5-2.49,11.32.93,13.94,5.85s2.5,10.8,2.25,16.37-.56,11.4,1.76,16.48A90.88,90.88,0,0,1,795.14,278c2.54-3.9,6.75-8.07,11.12-6.49,3.9,1.41,4.91,6.38,5.06,10.52a101.51,101.51,0,0,1-4.74,34.52c2-5.45,4.17-11.12,8.51-15s11.57-5.13,15.83-1.19c5.44,5,2.72,14-.75,20.57a187.13,187.13,0,0,1-26.36,37.66C796,367.25,786.91,375.43,775.73,378.84Z" style="fill: #c5e6f1"/>
          <path d="M763.46,384.2a46.92,46.92,0,0,1-23.81-6.69c-15.38-9-28-26.6-32-44.95-1.09-4.92-2.46-11.05-.74-17,1.83-6.34,8.28-12.2,15.48-10.62,6.66,1.46,9.65,7.86,12,13l.07.16c.84,1.8,3.88,7.63,7.47,7.2,3.28-.39,5-5.61,5.8-9.91l6.53-33.59c.82-4.17,2.33-11.95,8.72-15.14,6.95-3.46,15.22,1,18.59,7.34,2.79,5.26,2.94,11,2.7,17a94.66,94.66,0,0,1,7.94-15c4.41-6.78,10.11-9.72,15.24-7.87,3.18,1.15,7,4.45,7.37,13.68a104.6,104.6,0,0,1-.63,15.94c5.46-3.86,13.77-4.95,19.1,0,5.59,5.17,5.58,14.2,0,24.78a190.29,190.29,0,0,1-26.86,38.36c-7.1,7.86-16.88,17.37-29.66,21.27h0A45.59,45.59,0,0,1,763.46,384.2Zm12.27-5.36h0ZM720,311.72c-2.77,0-5.58,2.86-6.44,5.82-1.22,4.2-.12,9.14.86,13.5,3.68,16.53,15,32.4,28.73,40.42,10.06,5.86,21,7.26,31.54,4h0c11.14-3.39,20-12.07,26.5-19.26a182.72,182.72,0,0,0,25.87-37c1.48-2.79,5.95-12.21,1.46-16.36-2.81-2.6-8.12-1.43-11.12,1.24-3.79,3.36-5.79,8.78-7.56,13.56a3.5,3.5,0,0,1-6.62-2.28,97.3,97.3,0,0,0,4.59-33.33c-.08-1.93-.48-6.53-2.76-7.35-2.06-.74-5,2-7,5.11a86.76,86.76,0,0,0-12.17,29.38,3.5,3.5,0,0,1-6.61.73c-2.64-5.79-2.34-12.24-2.08-17.92v-.17c.25-5.38.3-10.54-1.84-14.56-1.79-3.36-6.14-5.93-9.28-4.36-2.91,1.45-4.11,5.76-5,10.21l-6.53,33.58c-1.86,9.59-5.85,14.82-11.84,15.53-5.74.69-11-3.29-14.64-11.19l-.08-.16c-1.84-3.94-3.92-8.42-7.2-9.13A3.81,3.81,0,0,0,720,311.72Z" style="fill: #4c3133"/>
        </g>
        <g>
          <path d="M741.67,330.52a29.89,29.89,0,0,1,23.91,13.31" style="fill: #c5e6f1"/>
          <path d="M765.59,347.33a3.49,3.49,0,0,1-2.94-1.59A26.55,26.55,0,0,0,741.59,334a3.5,3.5,0,1,1,.16-7,33.26,33.26,0,0,1,26.76,14.88,3.5,3.5,0,0,1-1,4.85A3.54,3.54,0,0,1,765.59,347.33Z" style="fill: #4c3133"/>
        </g>
        <g>
          <path d="M685.5,285.5s-10,39,24,87" style="fill: #fff"/>
          <path d="M709.5,376a3.5,3.5,0,0,1-2.86-1.48c-34.54-48.76-25-88.23-24.53-89.89a3.5,3.5,0,0,1,6.78,1.73c-.12.5-9,38.23,23.47,84.12A3.5,3.5,0,0,1,709.5,376Z" style="fill: #4c3133"/>
        </g>
      </g>
    </g>
    <g id="b10ded3a-cd29-46fb-9e1c-3856e53ae506" data-name="window 2">
      <g>
        <g>
          <path d="M92.3,305.31H372.6a18.4,18.4,0,0,1,18.4,18.4v81.65a18.4,18.4,0,0,1-18.4,18.4h-7.9a2.09,2.09,0,0,0-2.08,2.09v21.41a2.08,2.08,0,0,1-3.14,1.79l-42.23-25a2.09,2.09,0,0,0-1.06-.29H92.3a18.4,18.4,0,0,1-18.4-18.4V323.71A18.4,18.4,0,0,1,92.3,305.31Z" style="fill: #fff"/>
          <path d="M372.6,305.31a18.4,18.4,0,0,1,18.4,18.4v81.65a18.4,18.4,0,0,1-18.4,18.4h-7.9a2.09,2.09,0,0,0-2.08,2.09v21.41a2.08,2.08,0,0,1-3.14,1.79l-42.23-25a2.09,2.09,0,0,0-1.06-.29H92.3a18.4,18.4,0,0,1-18.4-18.4V323.71a18.4,18.4,0,0,1,18.4-18.4H372.6m0-7H92.3a25.43,25.43,0,0,0-25.4,25.4v81.65a25.42,25.42,0,0,0,25.4,25.4H314.84l41.07,24.31a9.08,9.08,0,0,0,13.71-7.81v-16.5h3a25.42,25.42,0,0,0,25.4-25.4V323.71a25.43,25.43,0,0,0-25.4-25.4Z" style="fill: #4c3133"/>
        </g>
        <g>
          <circle cx="73.9" cy="306.55" r="29.61" style="fill: #fff"/>
          <path d="M73.9,276.94a29.61,29.61,0,1,1-29.61,29.61A29.61,29.61,0,0,1,73.9,276.94m0-7a36.61,36.61,0,1,0,36.61,36.61A36.65,36.65,0,0,0,73.9,269.94Z" style="fill: #4c3133"/>
        </g>
        <g>
          <rect x="288.59" y="343.56" width="65.39" height="45.65" rx="8.65" transform="translate(642.57 732.78) rotate(-180)" style="fill: #c5e6f1"/>
          <path d="M345.33,392.72H297.24a12.17,12.17,0,0,1-12.15-12.16V352.22a12.17,12.17,0,0,1,12.15-12.16h48.09a12.17,12.17,0,0,1,12.15,12.16v28.34A12.17,12.17,0,0,1,345.33,392.72Zm-48.09-45.66a5.16,5.16,0,0,0-5.15,5.16v28.34a5.16,5.16,0,0,0,5.15,5.16h48.09a5.16,5.16,0,0,0,5.15-5.16V352.22a5.16,5.16,0,0,0-5.15-5.16Z" style="fill: #4c3133"/>
        </g>
        <path d="M290.05,388.88a3.5,3.5,0,0,1-2.32-6.12l31.85-28.24a3.51,3.51,0,0,1,4.6,0l31.4,26.79a3.5,3.5,0,0,1-4.54,5.33L322,361.77,292.38,388A3.51,3.51,0,0,1,290.05,388.88Z" style="fill: #4c3133"/>
        <g>
          <polyline points="351.2 345.87 321.9 370.71 291.38 345.87" style="fill: #c5e6f1"/>
          <path d="M321.9,374.21a3.44,3.44,0,0,1-2.2-.79l-30.53-24.84a3.5,3.5,0,1,1,4.42-5.43l28.27,23,27.07-23a3.5,3.5,0,1,1,4.53,5.34l-29.29,24.84A3.51,3.51,0,0,1,321.9,374.21Z" style="fill: #4c3133"/>
        </g>
        <g>
          <line x1="263.91" y1="380.58" x2="115.85" y2="380.58" style="fill: #fff"/>
          <path d="M263.91,384.08H115.85a3.5,3.5,0,1,1,0-7H263.91a3.5,3.5,0,0,1,0,7Z" style="fill: #4c3133"/>
        </g>
        <g>
          <line x1="263.91" y1="357.14" x2="183.71" y2="355.9" style="fill: #fff"/>
          <path d="M263.91,360.64h-.05l-80.2-1.24a3.5,3.5,0,1,1,.11-7l80.2,1.24a3.5,3.5,0,0,1-.06,7Z" style="fill: #4c3133"/>
        </g>
      </g>
      <path d="M71.5,320h-.11a3.5,3.5,0,0,1-2.83-1.61l-9-14a3.5,3.5,0,1,1,5.88-3.78l6.26,9.73,14-18.92a3.5,3.5,0,1,1,5.62,4.16l-17,23A3.47,3.47,0,0,1,71.5,320Z" style="fill: #4c3133"/>
      <path d="M172.5,359h-14a3.5,3.5,0,0,1,0-7h14a3.5,3.5,0,0,1,0,7Z" style="fill: #4c3133"/>
    </g>
    <g id="efebac32-8aec-4a34-871b-c31a93895ae2" data-name="window 1">
      <g>
        <path d="M757.7,614.26H519a15.67,15.67,0,0,0-15.67,15.67v69.54A15.67,15.67,0,0,0,519,715.15h6.72a1.78,1.78,0,0,1,1.78,1.77v18.24a1.77,1.77,0,0,0,2.67,1.52l36-21.29a1.82,1.82,0,0,1,.91-.24H757.7a15.68,15.68,0,0,0,15.67-15.68V629.93A15.68,15.68,0,0,0,757.7,614.26Z" style="fill: #fff"/>
        <path d="M757.7,614.26a15.68,15.68,0,0,1,15.67,15.67v69.54a15.68,15.68,0,0,1-15.67,15.68H567a1.82,1.82,0,0,0-.91.24l-36,21.29a1.76,1.76,0,0,1-2.67-1.52V716.92a1.78,1.78,0,0,0-1.78-1.77H519a15.67,15.67,0,0,1-15.67-15.68V629.93A15.67,15.67,0,0,1,519,614.26H757.7m0-7H519a22.7,22.7,0,0,0-22.67,22.67v69.54A22.7,22.7,0,0,0,519,722.15h1.5v13a8.78,8.78,0,0,0,13.24,7.55l34.74-20.56H757.7a22.7,22.7,0,0,0,22.67-22.68V629.93a22.7,22.7,0,0,0-22.67-22.67Z" style="fill: #4c3133"/>
      </g>
      <g>
        <circle cx="673.53" cy="660.52" r="21.02" style="fill: #f0f0f0"/>
        <path d="M673.53,685a24.52,24.52,0,1,1,24.52-24.52A24.55,24.55,0,0,1,673.53,685Zm0-42a17.52,17.52,0,1,0,17.52,17.52A17.54,17.54,0,0,0,673.53,643Z" style="fill: #4c3133"/>
      </g>
      <g>
        <path d="M746.57,656.3H733.38c3.8-2.85,7.56-6,7-11.56-1-10.51-8.4-5.26-8.4,0,0,7.35-11.3,4.2-11.43,15.76v0a4.83,4.83,0,0,0-.13,1.15v12a5.38,5.38,0,0,0,4.66,5.33L741,681.11a9.65,9.65,0,0,0,10.93-9.57v-9.87A5.36,5.36,0,0,0,746.57,656.3Z" style="fill: #c5e6f1"/>
        <path d="M736.7,638.67c1.67,0,3.24,1.63,3.68,6.07.56,5.58-3.2,8.71-7,11.56h13.19a5.36,5.36,0,0,1,5.37,5.37v9.87A9.62,9.62,0,0,1,741,681.11L725.08,679a5.38,5.38,0,0,1-4.66-5.33v-12a4.83,4.83,0,0,1,.13-1.15v0c.13-11.56,11.43-8.41,11.43-15.76,0-3,2.45-6.07,4.72-6.07m0-7a11.24,11.24,0,0,0-8.71,4.56,13.89,13.89,0,0,0-3,7.55l-1.06.58c-3.27,1.75-10,5.35-10.39,15.44a12,12,0,0,0-.14,1.87v12a12.41,12.41,0,0,0,10.73,12.27l15.94,2.12a16.45,16.45,0,0,0,2.22.15,16.66,16.66,0,0,0,16.63-16.66v-9.87a12.38,12.38,0,0,0-11.85-12.36,17.06,17.06,0,0,0,.26-5.27c-1.18-11.77-9.08-12.37-10.65-12.37Z" style="fill: #4c3133"/>
      </g>
      <path d="M629.75,687.07H527.81a3.5,3.5,0,0,1,0-7H629.75a3.5,3.5,0,0,1,0,7Z" style="fill: #4c3133"/>
      <g>
        <line x1="573" y1="661.5" x2="629.75" y2="660.45" style="fill: #fff"/>
        <path d="M573,665a3.5,3.5,0,0,1-.06-7l56.75-1a3.5,3.5,0,0,1,.13,7l-56.75,1Z" style="fill: #4c3133"/>
      </g>
      <path d="M556.5,664h-9a3.5,3.5,0,0,1,0-7h9a3.5,3.5,0,0,1,0,7Z" style="fill: #4c3133"/>
    </g>
  </g>
</svg>
