<svg xmlns="http://www.w3.org/2000/svg" width="587.81" height="587.81" viewBox="0 0 587.81 587.81">
  <g id="b8cf2035-1f03-435e-97e9-a41d4030b459" data-name="error 404">
    <ellipse id="b14fc2fb-a1df-49bc-8f91-79bca267e735" data-name="color background" cx="208" cy="277.13" rx="137" ry="129" style="fill: #f4f6f9"/>
    <path id="a9b57399-8938-41e4-8c36-f2ca13bd8a99" data-name="white background" d="M449.15,275.66l-5.63-4.75h0l-6.58-5.56-28.28-23.89-2.89,3.42a5.06,5.06,0,0,0-2.24,3.13l-6.06,24.1a6.81,6.81,0,0,0,1.19,5.52l-7.56,8.94a16,16,0,0,0,.94-4.33c.15-2.22-.33-4.78-2.23-5.92-1.68-1-3.91-.52-5.56.53a49,49,0,0,0-4.47,3.82c-5.88,4.82-14.16,4.8-21.68,5.83-29.43,4-57.05,20.73-68.82,48.85l-.3.11a19.53,19.53,0,0,0-10.06,10.27l-.39-.39c-8.58-.79-16.23,5.13-22.3,11.23a144.46,144.46,0,0,0-35.9,60.73l.78-4.86C201.72,366.29,174,322.52,140.22,287l-.45,3.36c1.37-16.57,5.68-73.29,5.68-73.29,12-3,36.38-9.44,36.38-9.44-14.18-17.58-29.66-37.88-45.63-57.82-5.3-6.61-12.35-12.52-20.53-14.71l-26.17-.42L79,177.3c-6.38-3.07-14.73-1.91-19.78,3.13a17,17,0,0,0,11.85,29.09L71,210c-8.62,20.56-16.52,37.49-25.3,55.3,0,0-7.37,14-15.28,19.24-3.44,2.27-3.87,39.32-3.24,80.38-2,.46-3.92,1-5.84,1.58-2.85.9-6.15,2.59-6.27,5.58-.1,2.22,1.78,4.12,3.89,4.81a15.39,15.39,0,0,0,6.59.18l1.83-.21,0,1.53c-1.29.25-2.58.53-3.86.84-2.91.72-6.31,2.2-6.62,5.18-.23,2.2,1.52,4.22,3.58,5a15.44,15.44,0,0,0,6.57.6l.58,0c0,.17,0,.33,0,.49-.74.06-1.48.11-2.21.2-3,.34-6.54,1.37-7.23,4.28-.52,2.15,1,4.39,2.9,5.46a15.51,15.51,0,0,0,6.44,1.44l.39,0c0,1,0,2,.07,2.94-1.29.25-2.58.53-3.86.84-2.9.71-6.3,2.19-6.62,5.17-.24,2.2,1.52,4.22,3.57,5.05a15.62,15.62,0,0,0,6.57.61l.67,0c1,34,2.16,61.26,2.16,61.26s47.14-60.43,104-14c60,49,120-18,159,2s40.7,49.05,40.7,49.05a59,59,0,0,0,.36-45c-3.2-7.79-8.15-15.21-8.44-23.62-.26-7.76,3.51-15,5.64-22.46a54.79,54.79,0,0,0-10.15-48.88l.17-.53A38.46,38.46,0,0,0,328.83,352l1.53.43c4.17-.66,8.37-2.29,12.44-3.43.68-.19,1.27-.36,1.84-.47a6.32,6.32,0,0,0,.68.69l8.17,6.91a5.45,5.45,0,0,0,7.68-.65l4.42-5.23a43.2,43.2,0,0,0,8.25-1.86,18.4,18.4,0,0,0,2.94-1.22l1.24.52c3.9,1.62,6,.33,7.13-1.54l.19-.37c1.13-2.69.08-5.91-1.89-8.06a9.75,9.75,0,0,0-1-.94l.11-.35c2.85,1.21,5.67,2.42,9.05,3.82,3.89,1.63,6,.33,7.13-1.54l.19-.36c1.13-2.69.08-5.91-1.89-8.07s-4.7-3.42-7.41-4.5c-.62-.24-1.26-.46-1.89-.69l.21-.29c2.85.77,5.7,1.56,9.08,2.45,4.08,1.08,6-.48,6.86-2.49l.14-.39c.75-2.82-.72-5.87-3-7.73l-.34-.26c2.72.43,5.78,2.23,8.4,3.11q4.38,1.47,8.82,2.7a13.91,13.91,0,0,0,4.73.72,5,5,0,0,0,4-2.25,5,5,0,0,0-.55-5.19A12.39,12.39,0,0,0,421.9,312a69.29,69.29,0,0,0-18.39-6.69l11.94-14.13a6.52,6.52,0,0,0,4.26-.15L443,281.56a5.27,5.27,0,0,0,1.79-1.2l.2.18Z" style="fill: #fff"/>
    <path id="fd8669f8-66b8-4975-846d-383f6eea5504" data-name="tear" d="M114,200.78c0,3-2,5.35-4.5,5.35s-4.5-2.39-4.5-5.35,4.8-14.65,4.8-14.65S114,197.82,114,200.78Z" style="fill: #9ed5f0"/>
    <g id="be091608-13b0-402b-b2c6-fb6750a70374" data-name="light">
      <path id="b3c0da02-44be-46ed-be3e-c05f51b140d7" data-name="color" d="M540.61,128.68C509,102,468.12,98.5,449.23,120.86A38.46,38.46,0,0,0,443,131.09l-.54-.46-33,111,41,34,104-50-.25-.21a38.46,38.46,0,0,0,9.32-8C582.46,195.1,572.18,155.35,540.61,128.68Z" style="fill: #ffe945"/>
      <path id="aec9886b-96a1-4f97-9452-34485c2bd256" data-name="404" d="M497.8,153.67c-10,12.46-11.05,23-2.86,29.55a13.85,13.85,0,0,0,8.82,3.26,16.55,16.55,0,0,0,7.23-1.8c5.18-2.53,9.64-7.25,12.47-10.76,4.13-5.13,6.74-10,7.73-14.35,1.37-6-.35-11.13-5-14.86s-10-4.33-15.69-1.77C505.21,145.35,500.67,150.11,497.8,153.67Zm25.83,4.92a33.46,33.46,0,0,1-6.15,10.51c-3.43,4.26-6.6,7.21-9.42,8.77-3.35,1.85-6.08,1.76-8.6-.27s-3-4.65-1.9-8.34a33.75,33.75,0,0,1,6.23-10.68c3.53-4.38,6.61-7.24,9.41-8.74a8.84,8.84,0,0,1,4.13-1.18,6.89,6.89,0,0,1,4.41,1.71C523.25,151.58,525.09,153.76,523.63,158.59Zm2,74a1.5,1.5,0,0,1-1.49,1.4H524c-18.09-1.11-36.9-9.19-53-22.77-17.71-15-29.49-34.56-32.31-53.79a1.5,1.5,0,0,1,3-.44c2.73,18.51,14.13,37.44,31.29,51.94,15.57,13.16,33.76,21,51.21,22.07A1.5,1.5,0,0,1,525.59,232.62ZM471,162.92l5.78,4.65,7.71-9.58,4.06,3.27,5.35-5L489,152.37l17.87-22.18-2.44-2,1.08-1.29-1.79.72-1.9-1.54-35.9,9.3L462.23,140l16.51,13.3Zm8.17-23.55c4.92-1.3,9.93-2.62,13.84-3.72-1,1.28-2,2.47-2.67,3.27l-7.09,8.81-8.82-7.1Zm84,36.12-2.44-2,1.08-1.29L560,173l-1.9-1.53-35.9,9.29-3.72,4.63L535,198.64l-7.72,9.59,5.77,4.64,7.72-9.58,4.06,3.27,5.34-4.95-4.88-3.93Zm-32.46,10.44,4.73-1.25c4.75-1.26,9.85-2.61,13.85-3.73l-2.67,3.27L539.51,193Z" style="fill: #fff"/>
    </g>
    <path id="a44fcb70-6616-41f2-ab05-8f7fb38d4501" data-name="man" d="M73.5,394.19c.31,1.89-2.58,2.7-2.89.8-1.14-6.93.59-13.65,2.9-20.15C75.6,369,78.1,363.18,79.2,357c1.26-7.06-.32-14-1.45-21-1-5.92-1.49-11.9.12-17.76,1.38-5,4.31-9.68,9.06-12.1,1.71-.88,3.23,1.71,1.51,2.59-5.18,2.65-7.62,8.21-8.38,13.74-.85,6.15.53,12.28,1.53,18.33,1.09,6.51,1.55,12.88,0,19.36C79,371.33,71.56,382.34,73.5,394.19Zm-56.34-106q.82-39,1.66-78,.24-11,.47-22c0-1.94-3-1.93-3,0q-.82,39-1.66,78-.24,11-.47,22C14.12,290.11,17.12,290.11,17.16,288.17Zm69.93,94.72a6.45,6.45,0,0,1-2,6.08,5.08,5.08,0,0,1-3.39,1.25,5.7,5.7,0,0,1-3.52-1.48,5.83,5.83,0,0,1-2-4.93l-.11,0a1.51,1.51,0,0,1-.54-2,6.65,6.65,0,0,1,6.56-3.23A5.6,5.6,0,0,1,87.09,382.89Zm-7.75,2.47,0-.06Zm4.88-1.06a4,4,0,0,0,0-.49s0,0,0-.08v0s0-.08,0-.11v.05l0-.17c0-.17-.11-.34-.16-.51l0,0-.12-.23c0-.08-.11-.15-.16-.24a5.7,5.7,0,0,0-.43-.42l0,0-.23-.15-.32-.17-.56-.17a2.47,2.47,0,0,1-.29-.06h0a5.24,5.24,0,0,0-.56,0l-.37,0a2.85,2.85,0,0,1-.58.12l-.57.18,0,0-.25.13a.57.57,0,0,0-.13.08,1.62,1.62,0,0,1,0,1.54l-.07.13c0,.09-.09.27-.1.31l0,.09c0,.05,0,.25,0,.29s0,.21,0,.32v0l.19.66s0,.07,0,.1.11.2.17.3l.18.28h0l.06.07a6.26,6.26,0,0,0,.51.52l.06,0,.27.17.33.19h0l.58.16H82l.23,0,.34-.1c.16-.08.31-.17.46-.26l0,0,.18-.15c.12-.12.23-.25.34-.37l0-.06a2.26,2.26,0,0,0,.16-.26c.08-.14.15-.28.22-.42s0-.07,0-.11.05-.17.08-.25.09-.38.13-.57h0A3,3,0,0,0,84.22,384.3ZM55.35,399.48a2.26,2.26,0,0,1-.07.39,1.58,1.58,0,0,1-.06.42,6.12,6.12,0,0,1-3.71,4.25A8.91,8.91,0,0,1,55,410.92a1.51,1.51,0,0,1-.08.58,1.77,1.77,0,0,1,0,.23,6.1,6.1,0,0,1-4.3,5,17.44,17.44,0,0,1-4.89.54l-5.69.18c-2.71.08-5.43.18-8.14.29q.86,36.44,2.76,72.83c.1,1.94-2.9,1.93-3,0Q30.2,463,29.35,435.31q-.27-8.71-.46-17.41c-2.78.15-5.68.25-8.18-1.1s-4.16-4-3.58-6.76c.5-2.43,2.58-4,4.74-4.94a29.59,29.59,0,0,1,6.62-1.81c-2.58-.18-5.27-.45-7.45-1.85s-4-4.2-3.28-7a6.14,6.14,0,0,1,3.11-3.79,7.59,7.59,0,0,1-.77-.35c-2.41-1.29-4.16-4-3.59-6.75.5-2.43,2.58-4,4.73-4.94l.1,0a9.53,9.53,0,0,1-2.49-.65c-2.48-1.06-4.53-3.49-4.28-6.31.24-2.58,2.25-4.42,4.43-5.53a39.16,39.16,0,0,1,9.18-2.87q0-13.26.08-26.52.4-49.31,2.74-98.56c.09-1.93,3.09-1.93,3,0q-1.3,27.63-2,55.3-.76,30-.8,59.94a91,91,0,0,1,15.64,9.24,11.6,11.6,0,0,1,1.26.66,9,9,0,0,1,4.34,6.57.4.4,0,0,1,0,.11c0,.1,0,.2,0,.3a6.15,6.15,0,0,1-3.73,5.47,10.41,10.41,0,0,1-1.3.43,11,11,0,0,1,2.72,1.29,9.11,9.11,0,0,1,4.23,6.95,1.51,1.51,0,0,1-.08.58,1.77,1.77,0,0,1,0,.23,6.08,6.08,0,0,1-4.29,5,8.59,8.59,0,0,1-.84.21,11.83,11.83,0,0,1,2.75,1.67A9,9,0,0,1,55.35,399.48ZM31.18,362.61a64.09,64.09,0,0,1,7.66-1.05q.51,0,1-.06a92.57,92.57,0,0,0-8.67-4.79C31.19,358.67,31.18,360.64,31.18,362.61ZM23.87,375.7c2.71-.12,5.42-.57,8.12-.85,2.51-.26,5-.49,7.52-.73l4-.39a15.22,15.22,0,0,0,3.74-.61,3.13,3.13,0,0,0,2.2-2.84,1.2,1.2,0,0,1,0-.2c0-.07,0-.14,0-.21A5,5,0,0,0,48,367.05a2.1,2.1,0,0,1-.75-.37c-.59-.47-1.2-.93-1.81-1.38a6.62,6.62,0,0,0-.62-.24c-3-1-6.25-.56-9.3-.13a75.64,75.64,0,0,0-8.43,1.66,28.86,28.86,0,0,0-7,2.35c-1.52.85-3.14,2.35-2.27,4.24C18.83,375.46,21.68,375.8,23.87,375.7Zm1.74,12.81c2.71,0,5.43-.23,8.14-.33,2.52-.1,5-.18,7.56-.26l4.26-.14a12.26,12.26,0,0,0,3.62-.43,3.17,3.17,0,0,0,2.18-2.83s0-.06,0-.1c-.18-2.63-2.46-4.59-4.82-5.38-2.82-1-5.91-.74-8.83-.52a75.34,75.34,0,0,0-8.59,1.13,27.94,27.94,0,0,0-7,1.86c-1.55.74-3.32,2.12-2.6,4.06C20.46,388,23.36,388.5,25.61,388.51Zm21.56,17c-2.82-.95-5.91-.74-8.83-.53a75.32,75.32,0,0,0-8.59,1.12,28.43,28.43,0,0,0-7,1.85c-1.55.74-3.32,2.12-2.6,4.06.9,2.42,3.8,2.93,6,3,2.71,0,5.44-.22,8.15-.32,2.51-.1,5-.17,7.55-.25l4.26-.14a11.93,11.93,0,0,0,3.62-.42A3.18,3.18,0,0,0,52,411s0-.06,0-.1C51.8,408.29,49.53,406.33,47.17,405.53Zm5.18-6.09c.36-6.46-7.91-7.49-12.62-7.74a79.53,79.53,0,0,0-8.87,0,28.35,28.35,0,0,0-7.28,1c-1.69.56-3.48,1.86-2.83,3.89.77,2.39,3.49,3.18,5.72,3.47,5.12.68,10.35.91,15.5,1.41l4,.38a13.53,13.53,0,0,0,3.65.09,3.14,3.14,0,0,0,2.68-2.47Zm31.86-15.67a.17.17,0,0,0,0-.07v-.06c0,.14,0,.19,0,.17ZM320,360.38q1.82-2.76,3.64-5.52a1.52,1.52,0,0,0-.54-2.06,1.54,1.54,0,0,0-2.05.54q-1.83,2.76-3.64,5.52a1.51,1.51,0,0,0,.53,2.06A1.55,1.55,0,0,0,320,360.38Zm132.3-85-6.05,7.16-.41-.34a6.9,6.9,0,0,1-1.2.65l-23.33,9.5h0a7.5,7.5,0,0,1-2.86.55,9.57,9.57,0,0,1-1.4-.12l-9.29,11a68.76,68.76,0,0,1,13.38,5c3,1.56,6.57,3.54,7.43,7.15a5.84,5.84,0,0,1-4.9,7.2,13.82,13.82,0,0,1-6.08-.65c-2.11-.58-4.2-1.21-6.28-1.87a54.06,54.06,0,0,1-5.54-2.05l-.12-.05a8.76,8.76,0,0,1,.88,6.1,1.42,1.42,0,0,1-.19.45,1.82,1.82,0,0,1-.11.3,6.13,6.13,0,0,1-5.81,3.59,10.33,10.33,0,0,1-1.57-.17,11.79,11.79,0,0,1,1.25,1.48,9.09,9.09,0,0,1,1.33,8.33,2.25,2.25,0,0,1-.16.31,1.51,1.51,0,0,1-.19.41,6.26,6.26,0,0,1-6.77,2.86,25.62,25.62,0,0,1-5.09-1.9l-1.68-.71a8.61,8.61,0,0,1,.29,6.46,1.37,1.37,0,0,1-.16.32,1.6,1.6,0,0,1-.18.41,6.26,6.26,0,0,1-6.77,2.86,26.42,26.42,0,0,1-5.09-1.9l-3.7-1.57-8.58,10.15a6.84,6.84,0,0,1-4.72,2.44l-.59,0a6.91,6.91,0,0,1-4.48-1.64l-8.17-6.91a7.21,7.21,0,0,1-1.13-1.22c-.49.13-1,.29-1.46.43a117.07,117.07,0,0,1-11.45,3.19,40.14,40.14,0,0,1-7,21.83,56.63,56.63,0,0,1,11.8,37.77c-.38,6.62-2.18,12.75-4.36,19-2.27,6.48-4.15,12.95-2.42,19.82,1.65,6.54,5.3,12.35,7.8,18.58a60.14,60.14,0,0,1-6.38,56,61,61,0,0,1-27.54,21.78c-1.8.71-2.58-2.19-.8-2.89a56.77,56.77,0,0,0,35.24-61.66,66.48,66.48,0,0,0-6.1-18.4c-2.74-5.73-5.61-11.6-5.95-18.06-.36-6.77,2.31-13.15,4.45-19.42a55.35,55.35,0,0,0,3.15-17.92,53.26,53.26,0,0,0-11.7-33.36,1.54,1.54,0,0,1-.3-1.37,1.27,1.27,0,0,1,.24-1,37.24,37.24,0,0,0,6.79-20.09,102.65,102.65,0,0,1-37.51-16.61l-.09,0a19.27,19.27,0,0,0-3.07,1.72,12.82,12.82,0,0,0-1.25,1q-.66.56-1.26,1.17c-.42.43-.83.88-1.21,1.34-.21.26-.25.31-.39.5s-.33.47-.49.71c-.34.5-.65,1-.94,1.54-.13.25-.27.51-.39.76s-.14.29-.2.43-.19.43-.1.22a1.81,1.81,0,0,1-1,1,44.16,44.16,0,0,0,5,7.07l.17-.21,5.48-5.52a1.5,1.5,0,0,1,2.13,2.12l-5.49,5.52a1.43,1.43,0,0,1-.31.24,43.89,43.89,0,0,0,8.34,6.66l3.51-4.91a1.54,1.54,0,0,1,2.05-.54,1.51,1.51,0,0,1,.54,2.06l-3.48,4.88a42.6,42.6,0,0,0,7.18,3c1.84.57,1,3.47-.8,2.89a46.54,46.54,0,0,1-8.53-3.63,1.55,1.55,0,0,1-1-.17,1.39,1.39,0,0,1-.63-.77,46.82,46.82,0,0,1-16.85-17.43,1.4,1.4,0,0,1,.11-1.59c-6.18.16-11.66,3.7-16.2,7.73A119.31,119.31,0,0,0,243,375.73a1.52,1.52,0,0,1-.22.66q-2.18,3.5-4.21,7.07A203.57,203.57,0,0,0,224.37,414q6.65,16,12,32.51c1.76,5.47,3.63,11,4.89,16.59,1,4.62,1.58,10-1.06,14.25s-7.86,5.68-12.65,4.54a17.51,17.51,0,0,1-11.1-9c-2.54-4.68-3.39-10.08-3.55-15.34a92.18,92.18,0,0,1,1.21-16.5,139.87,139.87,0,0,1,5.8-23.31,1.39,1.39,0,0,1,0-.86c.34-1.12.7-2.23,1.06-3.34-1.58-3.79-3.2-7.56-4.9-11.31a434.85,434.85,0,0,0-33.38-60.5A392.81,392.81,0,0,0,143,291a1.91,1.91,0,0,1-.9.74A82.75,82.75,0,0,1,44.6,266.19a1.53,1.53,0,0,1,0-2.12,1.64,1.64,0,0,1,1.17-.43q2.65-5.38,5.26-10.81,10-20.79,19-42a18.78,18.78,0,0,1-12.48-7,19.16,19.16,0,0,1,1.68-24.46,18.94,18.94,0,0,1,14.7-5.2c-7.87-16.3-8.65-49.85,9.35-58.37,23.26-11,37.8,5.55,53.86-17.13,9.21,12.39,1.72,30.17-5.48,34.42a26.32,26.32,0,0,1-8.18,3.12,43.63,43.63,0,0,1,10.25,7.51c4.66,4.54,8.49,10,12.52,15.05q6.47,8.19,12.89,16.42c8.22,10.5,16.43,21,24.8,31.41a1.52,1.52,0,0,1-.66,2.51l-3.16.82c-10.73,2.81-21.46,5.63-32.22,8.36l-.45,6q-1.31,17.07-2.62,34.14-1.07,13.95-2.19,27.91c1.89,2,3.75,4,5.59,6a403.36,403.36,0,0,1,42.93,57,437.79,437.79,0,0,1,31.27,60c1.59-4.47,3.37-8.86,5.38-13.16a146.2,146.2,0,0,1,21-32.64A92.35,92.35,0,0,1,262.28,350c4.86-3.75,10.64-6.62,16.91-6.23a20.9,20.9,0,0,1,10-9.63c.55-1.29,1.12-2.57,1.75-3.82A78.3,78.3,0,0,1,316,301.42a95.48,95.48,0,0,1,35.54-15.21c3.28-.69,6.59-1.2,9.92-1.58a85.09,85.09,0,0,0,10.43-1.52,20.09,20.09,0,0,0,9.25-4.83c2.54-2.38,5.83-5.12,9.56-3.74,2.78,1,3.83,4,3.86,6.73l3.29-3.88a8,8,0,0,1-.82-5.72l6.05-24.1a7.64,7.64,0,0,1,.39-1.11l0,0,.1-.11a6.57,6.57,0,0,1,2.23-2.64l3.73-4.41,6.39,5.39h0l29.61,25h0ZM143.41,237.19q.76-10.08,1.54-20.17a1.55,1.55,0,0,1,1.1-1.45l9.35-2.39q12.42-3.21,24.83-6.47-6-7.46-11.89-15c-8.4-10.68-16.74-21.42-25.17-32.07-7.16-9-14.28-19.09-25.69-22.77-8.2.58-14.93.1-19.37,12.6-3,8.54-1.14,20-12.81,27.22l-3.21-.07a16.36,16.36,0,0,1,1.56,1.05,1.5,1.5,0,1,1-1.82,2.38c-5.89-4.5-15.29-3.89-20.53,1.34A15.63,15.63,0,0,0,80,206.08a1.5,1.5,0,0,1,1.48,2.61A18,18,0,0,1,73.14,211q-2.62,6.27-5.33,12.48C61.58,237.7,55,251.79,48.07,265.75a80.07,80.07,0,0,0,50.41,28.69,81,81,0,0,0,40.84-4.77c.41-5,.8-10,1.2-15Q142,255.92,143.41,237.19Zm79.48,181a130.6,130.6,0,0,0-6.64,29.58c-.87,9.35-1.26,21.67,6.57,28.43,3.23,2.78,8.58,4.29,12.44,1.93,4.18-2.57,4.2-8.17,3.45-12.45-.92-5.28-2.75-10.46-4.35-15.57q-2.56-8.13-5.45-16.16T222.89,418.17ZM379.33,299.3a20.66,20.66,0,0,0-5,1.05c-1.58.69-2.45,2.17-3.46,3.48a37.12,37.12,0,0,1-4,4c-2.84,2.76-5.41,5.68-8.59,8.08-5.93,4.46-14,7.1-21.18,4.26-1.78-.71-1-3.61.8-2.9a14.59,14.59,0,0,0,5,1.07c7.47.23,13.78-4.36,18.79-9.44,1.3-1.32,2.52-2.7,3.88-4a25.72,25.72,0,0,0,3.47-3.68,11.08,11.08,0,0,1,3.23-3.24,14,14,0,0,1,5.15-1.47,17.66,17.66,0,0,0,5.82-2l7.52-8.89c.77-2.29,1.54-5.93-.29-7.81-2.64-2.71-6.53,1.92-8.35,3.48-5.17,4.43-12,5.28-18.52,6a109.9,109.9,0,0,0-18.18,3.4,89.55,89.55,0,0,0-32,16.33,74.57,74.57,0,0,0-21,27.05,100.49,100.49,0,0,0,36.71,16.24,1.23,1.23,0,0,1,.87-.53,46.32,46.32,0,0,0,5.81-1.39c1.85-.55,3.68-1.16,5.53-1.71.57-.17,1.14-.35,1.72-.5a6.94,6.94,0,0,1,1.51-5.8Zm-12,22.89a6.48,6.48,0,0,1,4.25-2.33,7,7,0,0,1-1.69-4.76l-10.19,12.06c.29,0,.57,0,.85,0a33.23,33.23,0,0,1,6.28,1.11A6,6,0,0,1,367.34,322.19ZM369,345c-2.47-1-4.94-2.07-7.43-3.07-2.75-1.11-5.73-2.23-7.53-4.74a7.62,7.62,0,0,1-1-2.08l-6.19,7.33a3.94,3.94,0,0,0,.47,5.56l8.17,6.91a4,4,0,0,0,5.56-.47Zm12.32-8c-2.05-.86-4.09-1.71-6.15-2.54a33.86,33.86,0,0,1-4.22-1.9c-1.17-.36-2.35-.71-3.53-1a34.07,34.07,0,0,0-7.2-1.39c-1.68-.06-4,.19-4.51,2.13-.61,2.34,1.53,4.25,3.34,5.25a71.68,71.68,0,0,0,7.15,3c2.32,1,4.64,1.94,6.95,2.92a64,64,0,0,0,7.55,3.1c1.68.46,3.18.21,4.16-1.3a.7.7,0,0,1,.06-.09C386.25,341.61,384.16,338.94,381.32,337ZM389,326.63c-2.14-.8-4.32-1.49-6.52-2.1l-1.71-.45c-1.12-.28-2.28-.55-3.41-.88a20.92,20.92,0,0,0-3.49-.48c-1.68-.06-4,.19-4.52,2.14s1.14,3.86,2.8,4.92a71.61,71.61,0,0,1,7.25,2.69,22.4,22.4,0,0,1,3.81,2.09l3.59,1.51a64.86,64.86,0,0,0,7.54,3.09c1.68.47,3.19.21,4.16-1.3l.07-.08C400.74,331.75,393.38,328.3,389,326.63Zm11.37-9.53c-2.37-1.6-5.24-2.27-8-2.9a75,75,0,0,0-8.54-1.44,29.51,29.51,0,0,0-7.21-.29c-1.73.25-3.87,1.09-3.72,3.2.19,2.5,2.73,3.83,4.83,4.5l.51.15c1.67.36,3.33.81,4.95,1.27.31.08.62.18.92.27l1.36.34c2.43.64,4.86,1.31,7.3,2l3.86,1a15.52,15.52,0,0,0,3.79.8,3.22,3.22,0,0,0,3.2-2.07.15.15,0,0,0,0-.07C404.22,321.16,402.5,318.56,400.32,317.1Zm5.26-10.77-5.91,7,.93.45.6.06a21.66,21.66,0,0,1,4.86,1.67c1.75.76,3.49,1.45,5.32,2s3.85,1.21,5.8,1.77,4,1.34,6,.91a2.82,2.82,0,0,0,2.51-3.11,5.9,5.9,0,0,0-2.87-3.84,45.4,45.4,0,0,0-9.92-4.73C410.51,307.68,408.06,307,405.58,306.33Zm10.25-15.39-15.56-11.79-6.86,8.12a18.28,18.28,0,0,1-2.09,4,19.63,19.63,0,0,1-6.25,5.85L374.23,310a12.45,12.45,0,0,1,2.62-.54,40.84,40.84,0,0,1,9.23.6,70,70,0,0,1,10.46,2.14l.13,0L415,290.56A9.19,9.19,0,0,0,415.83,290.94Zm27.51-10.79-37.42-31.62-6,23.87a5,5,0,0,0,.37,3.21,1.15,1.15,0,0,1,.5.2l17,12.85a1.73,1.73,0,0,1,.74,1.26,4.51,4.51,0,0,0,1.64-.31h0Zm.22-8.17L414,247a6.33,6.33,0,0,0-4-1.55,4.79,4.79,0,0,0-1.46.23,4.28,4.28,0,0,0-.75.34l-.08.09,37.86,32a3.53,3.53,0,0,0,.24-.86A5.82,5.82,0,0,0,443.56,272ZM84.9,327l0,0,.06,0Zm3.45,3.33a.12.12,0,0,1,0-.08s0,.05,0,.09Zm23.84-99.15a21.22,21.22,0,0,0-20,6.74c-1.26,1.46.86,3.59,2.12,2.13a18.17,18.17,0,0,1,17.07-6C113.27,234.41,114.08,231.52,112.19,231.14ZM67.61,184.87c-1.92,0-1.93,3,0,3a18.7,18.7,0,0,1,14.64,6.93,1.51,1.51,0,0,0,2.12,0,1.54,1.54,0,0,0,0-2.12A21.52,21.52,0,0,0,67.61,184.87Zm33.77-25.48a1.53,1.53,0,0,0,2.05-.54,10.24,10.24,0,0,1,.95-1.41l.11-.15.3-.35c.19-.22.39-.44.6-.65a15.45,15.45,0,0,1,1.27-1.16l.13-.1h0l.34-.25c.25-.18.51-.34.77-.51a1.5,1.5,0,1,0-1.51-2.59,16.69,16.69,0,0,0-5.55,5.66A1.51,1.51,0,0,0,101.38,159.39Zm39.5,139.24c-6.81,3.47-13.77,6.87-21.26,8.61a36.1,36.1,0,0,1-11,.95,33.75,33.75,0,0,1-10.68-3,49.08,49.08,0,0,0-10.37-3.69c-3.74-.69-7.55-.67-11.32-1a30.42,30.42,0,0,1-16.71-7.05,31,31,0,0,1-10.36-16.72c-.43-1.88-3.32-1.09-2.89.79a34.34,34.34,0,0,0,25.43,25.3c3.84.85,7.78.85,11.67,1.18A36.55,36.55,0,0,1,95,307.19a45.32,45.32,0,0,0,10.79,3.65,35.81,35.81,0,0,0,11.55-.1c8.87-1.43,17.12-5.49,25.05-9.52C144.12,300.35,142.6,297.76,140.88,298.63ZM91,327A5.52,5.52,0,0,1,90,333.2a5.85,5.85,0,0,1-2.72,1.65,4.15,4.15,0,0,1-2,.12c-.68-.19-1.24-1-1.72-1.49a1.86,1.86,0,0,1-.21-.28,1.54,1.54,0,0,1-2-.57,5.79,5.79,0,0,1-.13-6.14,5.26,5.26,0,0,1,5-2.67A6,6,0,0,1,91,327Zm-4.7,5h0Zm2.25-3a.86.86,0,0,0,0-.13c0-.09,0-.19-.07-.29a1.34,1.34,0,0,1-.07-.18l.07.17s-.15-.3-.18-.35l-.13-.21-.08-.12.11.14c0-.09-.23-.27-.29-.33a2.46,2.46,0,0,0-.28-.28l-.07,0-.25-.17-.36-.19c-.06,0-.31-.08-.09-.05s-.06,0-.11,0a3.36,3.36,0,0,0-.48-.13l-.21,0h-.52s.06,0,0,0H85.4l-.46.12,0,0-.08,0h0c-.13,0-.08,0,0,0l-.07,0-.33.2c.06,0,.1-.1,0,0l0,0,0,0,0,0-.16.15-.24.26c0-.05,0-.07,0,0l0,.05,0,0-.12.19-.18.34h0l0,.06c0,.1,0,.1,0,.07l0,.05a4.91,4.91,0,0,0-.15.51l0,.15v0s0,.06,0,.09,0,.07,0,0c0,.13,0,.32,0,.38s0,.25,0,.38h0v0c0,.07,0,.15,0,.23s.08.24.12.37a1.09,1.09,0,0,0,.08.15,2.92,2.92,0,0,0,.24.37,1.52,1.52,0,0,1,1.74.28l.62.64.06,0,.21-.05.2-.07.14-.06.47-.28,0,0h0l.21-.18s.32-.33.38-.41l.06-.07.14-.23.16-.29h0v0c.05-.11,0-.12,0-.08,0-.14.13-.33.15-.4s0-.16,0-.24h0a4,4,0,0,0,0-.49Zm-3.11-2.21h0l.12,0Zm-1,.42h0l0,0Zm35.46-176.68-.21,0-.41-.05-.82-.08-.85-.06a1.58,1.58,0,0,1-.53.28,1.51,1.51,0,0,1-1.85-1.05,1.88,1.88,0,0,1,2-2.26,20.63,20.63,0,0,1,2.2.19,40.33,40.33,0,0,1,4.75.83,1.5,1.5,0,0,1-.8,2.89c-1.14-.27-2.3-.48-3.46-.66Zm-1.79-1.07s0,0,0,0v0ZM84,327.7v0h0a.22.22,0,0,0,.06-.07Zm-.57,1.39a.19.19,0,0,1,0,.08.19.19,0,0,0,0-.08Zm39.07-167.44a1.5,1.5,0,1,0-2.59,1.52,26.33,26.33,0,0,1,3.34,9.25,1.5,1.5,0,0,0,1.84,1,1.54,1.54,0,0,0,1-1.84A29,29,0,0,0,122.49,161.65Zm-8.36,2.23a1.51,1.51,0,0,0-2-.54,1.54,1.54,0,0,0-.54,2.06l3.51,7.81a1.51,1.51,0,0,0,2,.54,1.56,1.56,0,0,0,.54-2.06ZM83.64,328.31l0,.07,0-.12Z"/>
  </g>
</svg>
