<svg id="error_505" data-name="error 505" xmlns="http://www.w3.org/2000/svg" viewBox="0 0 587.81 587.81"><defs><style>.cls-1{fill:#f4f6f9;}.cls-2{fill:#fff;}.cls-3{fill:#9ed5f0;}</style></defs><g id="color_background" data-name="color background"><path class="cls-1" d="M280.75,396.48c-14.95-4.74-30.79-10.08-40.59-22.32-8.36-10.45-10.94-24.26-12.93-37.5q-1.84-12.2-3.34-24.45c-1.73-14.24-3.09-28.8-.13-42.84s10.89-27.68,23.64-34.26c14.62-7.53,33.19-4.87,47.09-13.63,17-10.69,20.34-33.36,28-51.87a99.84,99.84,0,0,1,63.29-56.67c37.22-10.84,80,2.58,105.46,31.78,8.05,9.22,14.65,20.3,15.74,32.48,3.07,34.26-36.37,59.47-38.61,93.78-1.5,23,14.26,44.4,13.25,67.42-.61,13.82-7.39,26.87-16.79,37s-21.29,17.67-33.57,24.05A252.44,252.44,0,0,1,309,427.71"/></g><g id="white_background" data-name="white background"><path class="cls-2" d="M507.69,338.07l-.91-.41c-.18-17.63,0-34.21,1-54l.1-.39a15.07,15.07,0,0,0,20.66-18.72A15.82,15.82,0,0,0,515,254.51l9.54-38.88-23.67-9c-7.38-1.4-15.3.62-22.07,3.87-20.45,9.8-40.64,20.1-58.75,28.7,0,0,17,14.49,25.48,21.55,0,0-14.06,26.61-21.58,40-25.74,9.46-49.41,24.1-70.52,41.62-11.5,9.54-22.6,20.44-28,34.37a44.25,44.25,0,0,0-2.92,16.77A86.49,86.49,0,0,0,312.31,389c-12.63-4.81-26.65-8.94-34.66-19.83-3.64-4.94-7.19-11.83-13.32-11.39-4.46.33-7.13,4.4-9.58,8.41a69.72,69.72,0,0,1-6.39-9.58c4.54.37,8.78-2.23,12.31-5.11,6-4.91,11.31-11.38,12.38-19.06s-3.38-16.47-11-18.09a4.88,4.88,0,0,0-2.4,0c-2.26.66-3,3.59-2.54,5.9s1.66,4.46,1.76,6.81c.23,5.33-5.69,9.33-11,8.9s-9.86-4-13.62-7.77c-4.5-4.55-8.6-10.24-8.44-16.63a6.38,6.38,0,0,1,1-3.61c4.2-5.81,15.75,4.69,19.83-1.2,1.71-2.47.22-5.9-1.72-8.2A24.63,24.63,0,0,0,229,290c-3.1-.35-6.6.06-8.66,2.39-1.59,1.79-2,4.33-2.15,6.72a53.8,53.8,0,0,0,1.6,17.14A139.07,139.07,0,0,0,204,283.63c-1.23-1.85-2.8-3.86-5-4-2.48-.17-4.53,2.24-4.87,4.7s.58,4.91,1.52,7.21A215.76,215.76,0,0,0,209.16,319l-12.54-20.64c-1.24-2-3-4.35-5.4-4-3.52.5-3.42,5.63-2.26,9q2.91,8.43,6.48,16.63l-6-13c-.68-1.49-1.64-3.17-3.27-3.35-2.13-.22-3.47,2.3-3.69,4.43-.57,5.59,2.15,10.94,4.82,15.88q16.06,29.81,33.47,58.87c-10.47,4.43-3.57,21.36,2.39,28.05,7.32,8.22,17.47,13.42,25.17,21.28,8.15,8.31,13.16,19.15,20.1,28.5,15.07,20.29,29.83,44.54,55.11,45,0,0,29-51,89-53s53-36,80-54,53.72-2.07,53.72-2.07A123,123,0,0,0,507.69,338.07Z"/></g><path id="_505" data-name="505" class="cls-3" d="M60,348.8l19.42-15.18.15.21q7.36,10.28,18,2.61c.56-.4,1.15-.88,1.8-1.44q11.88-9.93,9-21.56c-3-4.33-4.9-7.05-5.7-8.16a36.78,36.78,0,0,0-13.32-11.8q-8-4-13.32-.18l-1.25.89q-5.44,5.32-12,22.08l-19,4.18-38-59.4,50.43-43.53,15.4,18.63-36,27.36,17,31.15q9.54-18,17.53-23.72a9.76,9.76,0,0,1,3.56-1.61q11.75-5.74,21.67-1.09,11.68,5.13,21.57,18.92A113.54,113.54,0,0,1,123.86,298q17.76,26.52-7.61,51.14A56.83,56.83,0,0,1,110,354.4Q87.07,370.83,60,348.8ZM187.79,154.38a152.64,152.64,0,0,1,1.58,26.86,137.21,137.21,0,0,1-3.53,27.08q-5.91,25.86-18.57,34.4a45.78,45.78,0,0,1-26.69,8.36l-1.53-.05a65.44,65.44,0,0,1-23.59-4.83q-11.22-4.56-15.93-25.27a100.2,100.2,0,0,1-2.28-25.22,133.38,133.38,0,0,1,2.15-19.59q4.59-24.1,9.7-36.34t37.07-26.15A69.32,69.32,0,0,1,171,120.34Q183.82,126.3,187.79,154.38Zm-34-15q-28.31,6.9-31.38,23.53a122,122,0,0,0-1.83,17.68,130,130,0,0,0,.61,17.26q1.73,18.18,6,25.08,2.91,5,20.51,5.5a11.62,11.62,0,0,0,4.49-.88q8-2.56,13.72-22.17a89.07,89.07,0,0,0,3.9-22.47,60.85,60.85,0,0,0-.88-12.67Q166.21,154.46,153.79,139.4Z"/><g id="roller"><rect id="white_background-2" data-name="white background" class="cls-2" x="248.92" y="221.37" width="43" height="19.84" rx="6.05" transform="translate(47.21 -45.83) rotate(10.61)"/><path id="roller-2" data-name="roller" d="M288,221.44l-30.37-5.69a9.55,9.55,0,0,0-1.68-.16,9.05,9.05,0,0,0-8.89,7.39l-1.42,7.61a9,9,0,0,0,7.23,10.56l30.37,5.69a9.34,9.34,0,0,0,1.67.15,9,9,0,0,0,8.89-7.38l1.43-7.61A9.07,9.07,0,0,0,288,221.44Zm4.28,10-1.43,7.61A6,6,0,0,1,284.9,244a6.14,6.14,0,0,1-1.12-.1l-30.37-5.69a6,6,0,0,1-4.83-7.06l1.42-7.61a6,6,0,0,1,7.06-4.83l30.37,5.69A6,6,0,0,1,292.27,231.45Zm-30.79,57.11-6.11,32.59a4.92,4.92,0,0,1-5.74,3.93l-3.08-.57a4.93,4.93,0,0,1-3.93-5.75l6.1-32.59a4.93,4.93,0,0,1,5.75-3.93l.85.16q.54-6.64,1.6-13.25a1.73,1.73,0,0,0-.17-.21,1.59,1.59,0,0,1-.44-.18c-1-.49-1.92-1.21-2.85-1.8-1.76-1.12-3.51-2.25-5.25-3.41q-5.42-3.6-10.67-7.43a1.64,1.64,0,0,1-.68-1.55,93.83,93.83,0,0,1,2.93-28.12,1.5,1.5,0,0,1,2.9.79,91,91,0,0,0-2.85,26.84c3.13,2.26,6.28,4.47,9.49,6.61q2.59,1.74,5.24,3.43c1.47.93,3.56,1.8,4.66,3.15a2.9,2.9,0,0,1,.73,1.31,12.16,12.16,0,0,1-.42,3q-.5,3.21-.84,6.45c-.18,1.65-.32,3.31-.45,5A4.93,4.93,0,0,1,261.48,288.56Zm-14.06-61.85a1.5,1.5,0,0,1-.79,2.9l-4.94-1a1.5,1.5,0,0,1,.8-2.9l4.93,1Z"/><g id="color"><path class="cls-3" d="M261.88,219.6a11.64,11.64,0,0,0-.61,4.06c.05,2.52.59,5,.35,7.53-.25,2.73-1.39,5.5-1.95,8.18l7.52,1.41a16.61,16.61,0,0,1,6.8,18.36c-.44,1.58-1.05,3.45,0,4.69a2.66,2.66,0,0,0,3,.57,4.47,4.47,0,0,0,2.21-2.28c1.4-2.94.54-6.4-.22-9.56s-1.31-6.77.53-9.45l-.28-.07,2.59.48c.09-.31.18-.63.26-.94a119.14,119.14,0,0,0,3.24-18.16c0-.14,0-.28,0-.42Z"/></g></g><path id="man" d="M503.19,264.12a19.47,19.47,0,0,1,16.91.14c1.73.86.21,3.45-1.52,2.59a16.23,16.23,0,0,0-13.87-.14,1.54,1.54,0,0,1-2-.54A1.5,1.5,0,0,1,503.19,264.12Zm-12.72-34.4-5.82,4.9a1.51,1.51,0,0,0,0,2.12,1.54,1.54,0,0,0,2.12,0l5.82-4.9a1.51,1.51,0,0,0,0-2.12A1.54,1.54,0,0,0,490.47,229.72Zm-5.4-1.65.06,0,.16-.12.22-.16c.31-.23.62-.45.94-.66A1.54,1.54,0,0,0,487,225a1.51,1.51,0,0,0-2.05-.53,26.4,26.4,0,0,0-7,6.88,1.5,1.5,0,0,0,.53,2,1.54,1.54,0,0,0,2.06-.54c.2-.29.41-.6.64-.87l0-.06.14-.17.35-.42a21.93,21.93,0,0,1,1.54-1.65c.52-.51,1.07-1,1.63-1.47A1.84,1.84,0,0,0,485.07,228.07Zm-.38-16.8a1.51,1.51,0,0,0-1.5,1.5,1.54,1.54,0,0,0,1.5,1.5l.24,0h0l.49.09c.34.08.67.17,1,.28a3.12,3.12,0,0,1,.48.18h0l.25.12a8.13,8.13,0,0,1,.91.51,3.74,3.74,0,0,1,.42.27l.22.16h0a8.53,8.53,0,0,1,.77.7,4.15,4.15,0,0,1,.64.68.41.41,0,0,0,.06.1c.06.07.11.15.16.22s.21.31.3.47a1.5,1.5,0,1,0,2.59-1.52A11.27,11.27,0,0,0,484.69,211.27Zm14.64,16.47a10.85,10.85,0,0,1,.95,1.65l.09.25.15.45a8.65,8.65,0,0,1,.22,1,1.51,1.51,0,0,0,1.85,1.05,1.53,1.53,0,0,0,1-1.84,10.06,10.06,0,0,0-5.42-7.27,1.54,1.54,0,0,0-2,.54,1.52,1.52,0,0,0,.54,2.06,7.37,7.37,0,0,1,.87.48l.43.29h0l.13.11a7.72,7.72,0,0,1,.72.68c.11.12.22.23.32.35l.14.18Zm-44.26,52.43,0,0,0,0-.29.19c-.19.12-.4.24-.6.34l-.2.09-.21.08-.66.2c-.21.05-.42.09-.64.12l-.12,0-.35,0a7.62,7.62,0,0,1-1.35-.05h-.05l-.41-.08a5.76,5.76,0,0,1-.68-.19l-.26-.08-.23-.1-.49-.23c-.2-.11-.4-.23-.59-.36l-.21-.15-.14-.12c-.17-.15-.34-.31-.5-.48l-.23-.25,0-.05-.06-.09a1.55,1.55,0,0,0-2.05-.54,1.51,1.51,0,0,0-.54,2.05,9.23,9.23,0,0,0,13.11,1.73,1.5,1.5,0,0,0,0-2.12A1.52,1.52,0,0,0,455.07,280.17ZM543.78,396a117.88,117.88,0,0,0-5.39-14.46,122.43,122.43,0,0,0-25.94-37.16,147.69,147.69,0,0,0-12.09,16.48,152.17,152.17,0,0,0-23.18,72.27,2.18,2.18,0,0,1,.22.4,1.53,1.53,0,0,1-.34,1.41,1.55,1.55,0,0,1-2.81.67,13.5,13.5,0,0,1-7-1.62,1.32,1.32,0,0,1-.43-.38,1.31,1.31,0,0,1-1.3-1.44,158.6,158.6,0,0,1,2.93-22.87,156.23,156.23,0,0,1,33.18-69.21,64.25,64.25,0,0,1-21,3.53,63.34,63.34,0,0,1-38-12.55,65.23,65.23,0,0,1-21.05-27.18,1.63,1.63,0,0,1-1.57-1.36c-.9.35-1.8.7-2.7,1.07a1.27,1.27,0,0,1,0,1.49A175.39,175.39,0,0,0,405,326.93a179.31,179.31,0,0,0-13.72,42.32,177,177,0,0,0-2.84,44.37c.1,1.56-1.82,1.85-2.64.91L376.21,412c-.82.94-2.74.64-2.63-.91a243.09,243.09,0,0,1,2.94-24.36,239.24,239.24,0,0,1,27.73-77.43A247.9,247.9,0,0,0,361.4,336.1a183.12,183.12,0,0,0-21,18.39c-6.13,6.43-11.58,13.79-14.7,22.18a43,43,0,0,0-2.71,15c1.39.76,2.76,1.56,4.1,2.44,6.7,4.43,12.6,10.56,14.65,18.53.52,2,.86,4.37-.38,6.21a4.9,4.9,0,0,1-4.78,2c-4.12-.48-7.27-3.9-9.65-7A36.13,36.13,0,0,1,320,393.44a93.33,93.33,0,0,0-9.8-4.3c-7.74-2.92-15.71-5.52-22.87-9.75a41.17,41.17,0,0,1-9.59-7.58c-2.64-2.88-4.51-6.31-7-9.31-2.12-2.57-5-5.07-8.58-4-3.36,1-5.39,4.6-7.09,7.38a36.92,36.92,0,0,1-7.69,9.54c-3.46,2.89-7.67,5.39-12.16,6.15-4.69.8-9.66-.13-14.23,1.37a7.14,7.14,0,0,0-4.82,5c-1.47,5.31,1.06,11.5,3.63,16.06,3.81,6.77,10.23,11.46,16.35,16a120,120,0,0,1,10.7,8.65,66.39,66.39,0,0,1,8.81,10.48c2.65,3.79,5,7.75,7.52,11.65s5,7.42,7.63,11c4.71,6.44,9.31,13,14.42,19.1,4.83,5.79,10.16,11.36,16.49,15.52a39.19,39.19,0,0,0,20.77,6.71c1.93.05,1.93,3.05,0,3a40.25,40.25,0,0,1-11.37-1.85c-15.51-4.95-26.32-18.48-35.66-31.06-5.31-7.16-10.69-14.3-15.44-21.85-2.62-4.14-5.17-8.34-8-12.31a61.67,61.67,0,0,0-10-10.81c-7.08-6-15.49-10.74-21.43-18A34.26,34.26,0,0,1,213,393.35a14.44,14.44,0,0,1,1.09-8.31,10.39,10.39,0,0,1,6.65-5.15c-2.24-3.16-4.48-6.31-6.68-9.49q-8.32-11.94-16.41-24-4-6.06-8-12.15c-2.48-3.78-5.17-7.53-7.06-11.65-1.56-3.41-3-7.88-1.69-11.6a5.25,5.25,0,0,1,3.1-3.44,3.89,3.89,0,0,1,2.19,0,12.33,12.33,0,0,1-.54-2.09c-.54-3.35.38-7.82,4.62-7.83a5.43,5.43,0,0,1,3,1,49.69,49.69,0,0,1-2.16-4.55c-1.1-2.72-1.54-5.78,0-8.43a5.75,5.75,0,0,1,6.8-2.91c2.75.95,4.49,3.59,6.17,5.8a139.24,139.24,0,0,1,11.6,18.12c-.07-.72-.16-1.45-.21-2.18-.25-3.91-.42-8.7,2.77-11.56,2.86-2.56,7-2.89,10.67-2.47a26.34,26.34,0,0,1,11.61,4.22c3.14,2.1,6.61,5.13,7.28,9.05a5.84,5.84,0,0,1-4.15,6.77c-2.43.66-5.07.05-7.47-.44-2.16-.45-4.72-1.26-6.93-.68-3.41.88-2.28,5.69-1.42,8.09,1.35,3.77,4.12,6.92,7,9.6C240,331.8,249,338,255.7,332a7.12,7.12,0,0,0,2.46-4.23c.26-1.94-.68-3.78-1.41-5.51-1.3-3.06-2.08-7.4,1.1-9.66,2.87-2,7.42-.3,10,1.46a17.87,17.87,0,0,1,6.34,8c3.08,7.39.94,15.47-3.36,21.9a45.06,45.06,0,0,1-8.2,9.18,20.13,20.13,0,0,1-8.47,4.56c.48.67,1,1.3,1.49,2,2.28-2.76,5-4.74,9-4.39s6.66,3,8.9,5.92c2.57,3.29,4.64,6.9,7.64,9.84,6.25,6.11,14.6,9.52,22.66,12.55,5.45,2.05,10.95,4,16.17,6.55a49.68,49.68,0,0,1,7.45-23.9A90.69,90.69,0,0,1,344,346.75a1.63,1.63,0,0,1-1.9-1q-4.38-10.92-9-21.75-16.56-38.49-36.34-75.49c-.91-1.7,1.68-3.21,2.59-1.51q5.64,10.56,11,21.25Q329.28,305.88,345,345a1.33,1.33,0,0,1,.08.77l.94-.85a259.23,259.23,0,0,1,23.46-18.45,232.66,232.66,0,0,1,52.4-27.88q2-3.63,4-7.27,8.47-15.53,16.72-31.19l-5.79-4.87q-9.45-8-18.86-16a1.51,1.51,0,0,1,.31-2.36q8.65-4.11,17.26-8.36c10.88-5.34,21.72-10.75,32.61-16.05,5.15-2.51,10.28-5.31,15.76-7a37.36,37.36,0,0,1,9.92-1.73,23.19,23.19,0,0,1-5.14-5.5c-4.13-6.16-3.28-23.27,8.86-29.64,4.12,24.32,22.13,16.67,36.5,34.42,11.07,13.69-2.3,40.07-14.83,50.18a17,17,0,0,1,9.78,9.87,17.19,17.19,0,0,1-8.15,20.42,16,16,0,0,1-7.32,1.72,17.91,17.91,0,0,1-5.29-.81c-.83,17.1-1.1,34.2-1,51.32a1.47,1.47,0,0,1,.48.28c1.73,1.45,3.42,3,5.07,4.51a1.75,1.75,0,0,1,.93.87q2.81,2.69,5.43,5.55a125.17,125.17,0,0,1,27.49,48.22C547.23,397,544.33,397.8,543.78,396Zm-290-33.8c-1.25-1.58-2.46-3.19-3.58-4.86a1.51,1.51,0,0,1,1.29-2.26,11.49,11.49,0,0,0,5.47-1.56,32.66,32.66,0,0,0,8.66-7.62,30.78,30.78,0,0,0,5.93-10c2.15-6.38,1.08-13.71-4.13-18.33a11.09,11.09,0,0,0-4-2.31c-1.29-.42-3.4-1-4.36.28-2,2.81,1.29,6.91,1.86,9.68,1.44,7.11-5.83,12.65-12.42,12.25a21.28,21.28,0,0,1-10.88-4.26,43.94,43.94,0,0,1-8.47-7.7,21.77,21.77,0,0,1-5-9.92c-.55-3.09-.36-6.79,2.64-8.56,4.12-2.43,9.45.37,13.77.63,1.92.12,4.18-.35,4.26-2.73.12-3.65-4.19-6.75-6.94-8.4a22.93,22.93,0,0,0-11.07-3.3c-3.49-.11-7.27.85-8.22,4.65a20.59,20.59,0,0,0-.24,6.07,50.16,50.16,0,0,0,.75,6.36,53.62,53.62,0,0,0,2.24,8.26q1,2.32,1.9,4.69c.61,1.59-2,2.68-2.75,1.15s-1.42-3.31-2-5A138.59,138.59,0,0,0,202.22,291c-1.37-1.83-3-4.79-5.35-5.54s-3.82,1.9-3.83,3.87c0,3,1.86,5.82,3.18,8.35q2.16,4.13,4.49,8.15,4.66,8,10,15.67c1.11,1.59-1.48,3.05-2.6,1.51l-10.12-14c-1.42-2-2.8-4-4.27-5.88-.85-1.11-2.47-3.16-4.12-2.5-2.52,1-.73,5.88,0,7.51,2.47,5.59,5.19,11.06,8.1,16.44l5.37,9.47a1.5,1.5,0,0,1-2.59,1.52q-3-5-5.79-10.22L192.74,322l-3.81-6.72c-.61-1.07-1.18-2.17-1.84-3.21-.39-.63-1-1.54-1.74-1.68-1.3-.24-1.82,1.82-1.92,2.76a13.63,13.63,0,0,0,.77,5.48c1.25,3.93,3.65,7.41,5.88,10.85q7.28,11.18,14.75,22.24,9.39,13.9,19.12,27.59c4.09-.43,8.28.09,12.28-1a26.21,26.21,0,0,0,11.92-7.73C250.16,368.33,251.86,365.09,253.82,362.16Zm69.28,33a38.72,38.72,0,0,0,.69,4.55,32.21,32.21,0,0,0,4.28,10.6c1.85,2.89,4.6,6.48,8.06,7.42,5,1.34,2.39-5.79,1.37-8a28.15,28.15,0,0,0-6.65-8.88A45.52,45.52,0,0,0,323.1,395.15ZM413.71,305q-1.56.66-3.09,1.35c-.66.29-1.3.61-2,.91a1.33,1.33,0,0,1-.21.76,231.22,231.22,0,0,0-11.07,21.24,237.18,237.18,0,0,0-20.64,79.78l8.6,2.24a177.53,177.53,0,0,1,.37-23.18A183.24,183.24,0,0,1,394.9,344,180.33,180.33,0,0,1,413.71,305Zm89.63,31.19a1.31,1.31,0,0,1,.93,0c-.16-17.67.12-35.34,1-53a16.09,16.09,0,0,1-5.78-5,1.5,1.5,0,1,1,2.46-1.71,13.71,13.71,0,1,0,8.47-21.23,1.5,1.5,0,0,1-.61-2.94c.46-.1.91-.16,1.37-.22l-2.28-1c-6.57-10.24-.66-18.71.22-26.7,1.23-11.47-4.09-13.82-10.27-17.31-5.78-.9-11.69.29-17.09,2.38s-10.64,5-15.87,7.53-10.62,5.22-15.92,7.84c-9.39,4.64-18.79,9.28-28.24,13.8l.58.49q11.6,9.85,23.23,19.65a1.51,1.51,0,0,1,.24,1.81l-2.11,4c-6.23,11.74-12.44,23.53-19,35.12A1.54,1.54,0,0,1,424,301l-.21.37a60.22,60.22,0,0,0,9.5,16.58,60.84,60.84,0,0,0,29.87,20.17A61.93,61.93,0,0,0,503.34,336.22Zm7,6c-1.39-1.29-2.8-2.55-4.25-3.78a1.48,1.48,0,0,1-.34,1.37,146.1,146.1,0,0,0-13.13,17.48,155.35,155.35,0,0,0-24,74,1,1,0,0,1,.18.05c.3.17.61.31.92.46l.22.08.45.17a12,12,0,0,0,1.86.45l.12,0h.09l.55,0c.32,0,.64,0,1,0l.3,0a152.83,152.83,0,0,1,2.51-20.11A155,155,0,0,1,510.29,342.26Zm-72-8.39a6,6,0,0,0-4.8-.84,1.53,1.53,0,0,0-1.1,1.45l-.18,5.37a1.5,1.5,0,0,0,3,0c.05-1.33.09-2.66.13-4a6,6,0,0,1,.61.15c.14.05.3.14.07,0l.36.18a3.87,3.87,0,0,1,.34.21l.13.09a4.1,4.1,0,0,1,.53.49l.23.26c-.23-.27,0,0,.06.12l.18.29a1.09,1.09,0,0,0,.08.15v0c.07.23.14.45.2.68v0c0,.14,0,.27,0,.4a1.77,1.77,0,0,0,0,.23v0l-.05.16-.09.32-.05.12v0c-.11.2-.27.4-.36.61h0l0,0a3,3,0,0,1-.3.32l-.24.23-.06.05c-.22.13-.42.27-.64.39l-.15.08h0c-.12,0-.23.09-.35.12l-.43.11-.09,0c-.2,0-.65.11-.81,0,0,0,.31.08.13,0a2.14,2.14,0,0,0-.27-.06,3.38,3.38,0,0,1-.42-.13,1.5,1.5,0,0,0-1.84,1,1.53,1.53,0,0,0,1,1.84,6.31,6.31,0,0,0,7.3-2.93,5.48,5.48,0,0,0,.53-4.26A6.55,6.55,0,0,0,438.33,333.87Zm-8.56,40a5.63,5.63,0,0,1-1.15,6,4.16,4.16,0,0,1-3.17,1.17,5.26,5.26,0,0,1-3.11-1.44,5.19,5.19,0,0,1-1.56-2.74,3.74,3.74,0,0,1,0-.66,1.54,1.54,0,0,1-1.81,1,1.53,1.53,0,0,1-1.05-1.85,7.35,7.35,0,0,1,6.34-5.07,5.45,5.45,0,0,1,3.45.87A5.87,5.87,0,0,1,429.77,373.86Zm-5.6-.61h0C424.25,373.23,424.36,373.21,424.17,373.25Zm3,3.18a.5.5,0,0,1,0-.12.29.29,0,0,0,0,.09v0a4.87,4.87,0,0,0,0-.54c0-.08,0-.17,0-.25h0c0-.18-.08-.36-.13-.53l-.09-.28h0c-.08-.14-.14-.28-.23-.42l-.16-.24c-.12-.13-.23-.26-.36-.38h0l-.21-.14a2.39,2.39,0,0,0-.22-.12l0,0h0c-.23-.07-.44-.13-.67-.18h-.28a4.57,4.57,0,0,1-.65,0H424l-.26.06.07.06a1.52,1.52,0,0,1,0,2.12h0v0a1,1,0,0,0-.1.17s0,.05,0,.07,0,.05,0,.1,0,.1,0,.13,0,.11,0,.17,0,.05,0,.07.06.2.09.3h0a2,2,0,0,0,.13.25l.15.24,0,.06a5.4,5.4,0,0,0,.41.42l.08.07.17.12a3.47,3.47,0,0,0,.33.18l0,0,.1.05-.05,0,0,0,.23.06.11,0h.32l.26-.08.2-.11.08-.05a1.67,1.67,0,0,0,.13-.12c.06-.05.11-.12.17-.18l.11-.16.13-.25c0-.16.1-.31.14-.47l0-.16S427.14,376.51,427.15,376.43Zm-2,1.47,0,0,.05,0C425.06,377.85,425.05,377.86,425.11,377.9Zm2-1.43v-.07A.2.2,0,0,0,427.14,376.47ZM312.59,267.94l55.09-30,15.08-8.22q7.38,18.19,15.36,36.13-25.74,13.48-51.47,27l-14.84,7.77c-1.71.9-.19,3.49,1.52,2.59l52.47-27.5,13.54-7.1c.74,1.65,1.47,3.31,2.22,5q5.7,12.6,11.7,25.06c.84,1.74,3.43.22,2.59-1.51q-10.47-21.8-20.07-44t-18.29-44.85q-4.92-12.81-9.53-25.72c-.65-1.8-3.55-1-2.89.8q7.85,22,16.56,43.58l-54.81,29.85-15.74,8.58C309.38,266.27,310.9,268.86,312.59,267.94Z"/><g id="pattern"><path d="M155.42,419.58c0,.17.05-.21.06-.26s.09-.37.14-.55a3.86,3.86,0,0,1,.35-.84,5.68,5.68,0,0,1,1.11-1.53,7.69,7.69,0,0,1,3.33-2,6.47,6.47,0,0,1,3.87-.06,5.43,5.43,0,0,1,2.83,2.08,7.64,7.64,0,0,1,1.24,3.49,7.75,7.75,0,0,1-.55,3.69,5.5,5.5,0,0,1-2.54,2.79,6.54,6.54,0,0,1-1.75.57,8.47,8.47,0,0,1-1.91,0,1.68,1.68,0,0,1-.32-.05l-.64-.14a9.11,9.11,0,0,1-1.15-.38,2.94,2.94,0,0,0-.31-.15l-.5-.26c-.3-.18-.73-.46-.92-.61a6,6,0,0,1-2.28-3.56,1.5,1.5,0,1,0-2.89.8,9.86,9.86,0,0,0,7.49,7.11,9,9,0,0,0,9.78-3.66,10.62,10.62,0,0,0,.33-10.36,8.78,8.78,0,0,0-9.46-4.47,10,10,0,0,0-8.31,8.36c-.11.8.77,1.5,1.5,1.5a1.54,1.54,0,0,0,1.5-1.5Z"/><path d="M353.87,83.19l-4.12-8.25a1.5,1.5,0,0,0-2.05-.54,1.53,1.53,0,0,0-.54,2l4.12,8.26a1.5,1.5,0,0,0,2.59-1.52Z"/><path d="M53.41,174.83l-11-8.25a1.51,1.51,0,0,0-2.06.54,1.54,1.54,0,0,0,.54,2l11,8.25a1.5,1.5,0,0,0,2.05-.54,1.54,1.54,0,0,0-.54-2Z"/></g><path class="cls-3" d="M228.19,228.51q-5.9-14.3-4.95-27.44a57.65,57.65,0,0,1,2.06-11.92A85.05,85.05,0,0,1,234,169.24q9.77-16.85,17.73-17.4a11,11,0,0,1,4.36.21q16.17,4.51,17.73,9.75,2.37,7.35-.16,24.56a125,125,0,0,1-3.36,16.11,115.51,115.51,0,0,1-5.72,15.95,19.63,19.63,0,0,1-2.29,3.82l17.64,12.18c.91-1.59,1.81-3.25,2.69-5a131.5,131.5,0,0,0,9.52-24.22A146.15,146.15,0,0,0,296.88,180q2.82-26.88-7.68-35.35a66.19,66.19,0,0,0-21.38-11.93q-32.77,5.51-40.31,15.62T210.16,179.7a125.2,125.2,0,0,0-6.51,17.62,95.3,95.3,0,0,0-3.72,23.84q-.35,16.32,5.66,23.9C214.81,244,222.7,239.45,228.19,228.51Z"/></svg>