<svg xmlns="http://www.w3.org/2000/svg" width="587.81" height="587.81" viewBox="0 0 587.81 587.81">
  <g id="e6c1e88d-da8a-4080-abb0-5d999561db80" data-name="off">
    <g id="e8a4c3f0-882e-4038-89e3-4ec58fd07fca" data-name="grey background">
      <path d="M151.2,336.16c-13.53-18.67-27.18-37.56-36-58.85s-12.52-45.56-5.52-67.52c7.82-24.51,29.33-44.14,54.45-49.7C175.55,157.56,189,157,196,147.57c2.62-3.52,3.9-7.83,5.05-12.06,4.31-15.81,9.25-34.09,24.19-40.8,16.31-7.32,34.42,3.38,50.51,11.17a162.58,162.58,0,0,0,58.78,15.75c9.06.66,18.3.58,27,3.22s17,8.67,19.46,17.42c2.84,10.11-2.65,21.36.91,31.24,2.82,7.85,10.72,12.77,18.66,15.3s16.4,3.28,24.26,6.06c22.08,7.79,36.12,30.95,38.64,54.22s-4.68,46.57-14.31,67.9C444,328.47,438,339.7,430.07,349.49c-29.74,36.73-84.08,47.14-129.38,33.68-10.83-3.21-21.36-7.62-32.52-9.33-12.39-1.9-25-.41-37.57-.68a133.63,133.63,0,0,1-78.19-27.69" style="fill: #f4f6f9"/>
    </g>
    <path id="adfecbc3-bdfa-4802-9bdb-6bf282248d57" data-name="white background" d="M493,384a53.8,53.8,0,0,0-5.93-12.32c-2.64-4.13-5.68-8.22-6.93-13-1.37-5.25.22-10.52,1.51-15.61s2-10,1.19-15.2c-1.69-10.7-8.61-19.78-15.39-27.95a10.63,10.63,0,0,0,2.95-7c.16-3-.53-6-.39-9a1.45,1.45,0,0,0-.43-1.16q1.9-7.63,3.82-15.27c1.09-4.34,2.4-8.74,2.85-13.22a8.14,8.14,0,0,0,5,1.77c5.53,0,9.13-6.7,10.94-11.13A43.62,43.62,0,0,0,495,227.5c-.06-3.38-.37-6.74-.72-10.1-.28-2.59-.24-5.69-1.89-7.87a5.72,5.72,0,0,0-3.06-2.05,9.94,9.94,0,0,0-1.89-3.63c-2-2.38-5.72-3.71-8.49-1.88-1.14-3.39-3.22-6.33-7.11-6.66-4.24-.37-7.48,2.42-9.05,6-2.78-4.22-7.08-7.08-12.31-7-5.4.08-10.56,2.91-14.38,6.59-4.33,4.18-7.17,9.81-9.21,15.41a76.23,76.23,0,0,0-4.1,17.19c-1.24,10.69-.22,22.41-6,31.93-.64,1.05-1.3,2.08-2,3.13a25.91,25.91,0,0,0-6.86,16.9c-.07,3.21,1.41,6.95-1.2,9.48-2.12,2-4.93,3.17-6.85,5.47-4.68,5.62-4,13.21-3.88,20a30.38,30.38,0,0,1-1.64,11.23c-1.24,3.42-3,6.62-4.51,9.92a49.66,49.66,0,0,0-4.4,16,119.93,119.93,0,0,0-21.9-30.94A174,174,0,0,0,334,302.77c-4-2.65-8.13-5.37-12.36-7.75a1.51,1.51,0,0,0-.73-1.37q-2.2-12.15-4.47-24.29l-5.19-27.88c-.28-1.52-.57-3-.85-4.56,8.7-4.86,17.37-9.79,26-14.72a1.66,1.66,0,0,0,0-2.84c-8.71-6.38-17.33-12.9-25.95-19.4q-6.83-5.16-13.66-10.28c-4.39-3.28-8.7-6.87-13.45-9.6a36.71,36.71,0,0,0-9.82-4,21.65,21.65,0,0,0,5.3-3.95c4.85-4.92,7-20.71-2.95-28.64-8,21.52-23.12,11.4-39.35,25.14-12.42,10.52-4.95,36.69,4.65,48.22a16,16,0,0,0-10.67,7.43,16.25,16.25,0,0,0,4,20.41,15.59,15.59,0,0,0,9.25,3.17c-2.21,15.75-5.52,31.27-8.57,46.87-9.31,3.09-18.62,6.3-26.94,11.59a179.4,179.4,0,0,0-24,18.78c-3.5,3.18-6.91,6.44-10.3,9.73-1.65-8.13-6.35-15.74-13.84-19.41a1.68,1.68,0,0,0-.9-2.27,24,24,0,0,0-1.07-13.47c-1.93-4.95-5.09-9.25-7.91-13.72-6-9.43-5.1-21.17-6.5-31.84A76.22,76.22,0,0,0,139.34,237c-2.12-5.56-5-11.15-9.43-15.27-3.87-3.63-9.07-6.39-14.47-6.39-5.23,0-9.49,2.91-12.21,7.17-1.62-3.58-4.9-6.32-9.13-5.9-3.89.39-5.93,3.37-7,6.77-2.79-1.8-6.48-.41-8.46,2A9.84,9.84,0,0,0,76.78,229a5.79,5.79,0,0,0-3,2.1c-1.61,2.2-1.54,5.3-1.78,7.9-.3,3.36-.56,6.73-.57,10.1a43.58,43.58,0,0,0,3.08,17.39c1.87,4.39,5.57,11,11.1,11a8.15,8.15,0,0,0,5-1.83c.52,4.47,1.89,8.85,3,13.18q2,7.57,4,15.17c-3.13,3.53-3.42,8.94-2.57,13.42.52,2.79,1.5,5.57,1.51,8.43s-1.64,5.46-3.1,7.9c-3,5.07-4.86,10.76-3.38,16.7a15.59,15.59,0,0,0,1.58,3.88,10.18,10.18,0,0,1,.94,1.79c.29.86-.19,1-.84,1.37a16.38,16.38,0,0,0-5.64,5.4,17,17,0,0,0-2.54,7.23,20.37,20.37,0,0,0,1.1,8.22c.92,3,2.14,6,2.35,9.23a33.7,33.7,0,0,1-1.16,9.89c-1.34,5.7-2.63,11.26-2.61,17.15a55.36,55.36,0,0,0,2.33,15.55L89,430c.21.67.43,1.34.67,2,0,0,111.91,31.84,172.32,12.07s152.48-73.7,229.57-35.15C493.75,410,498.55,401.18,493,384Z" style="fill: #fff"/>
    <g id="e8f31c35-b88a-4cd1-8cda-228078a21cce" data-name="plug 1">
      <path d="M211.23,219.59l-13.29,13.53a25.51,25.51,0,0,1-36.09.3L152,223.78a25.53,25.53,0,0,1-.3-36.1L165,174.16" style="fill: #ffe945"/>
      <ellipse cx="188.13" cy="196.88" rx="9.34" ry="32.4" transform="translate(-84.16 193.01) rotate(-45.49)" style="fill: #fff"/>
      <path d="M72.3,241.18c1.94.79,1.09,4-.88,3.18a85.73,85.73,0,0,1-14.16-7.29,87.82,87.82,0,0,1-34.7-42.87c-.75-2,2.44-2.84,3.18-.87a80.32,80.32,0,0,0,6.58,13.55,84.09,84.09,0,0,0,40,34.3Zm84.58-12.64,2.44,2.25-2.44-2.25a58,58,0,0,1-7.76,5.33,26.83,26.83,0,0,1-10.3,3.17c-6.65.7-13.9.18-19.65,4.21-1.73,1.21-.08,4.07,1.66,2.85h0c5.83-4.09,13.45-3.06,20.15-4,7.1-1,12.83-5,18.34-9.27m53.09-10c2.34-2.38,1.69-7-1.88-13.33A88.13,88.13,0,0,0,195.83,189c-12.07-11.86-26.93-21.17-32-16s4.52,19.84,16.59,31.7c9.73,9.57,21.29,17.49,28,17.49A5.31,5.31,0,0,0,212.41,220.75Zm-18.89-29.36A85.23,85.23,0,0,1,207.66,209c2.93,5.2,3.32,8.47,2.4,9.4h0c-2.2,2.24-13.94-2.92-27.32-16.08s-18.74-24.81-16.55-27a2.22,2.22,0,0,1,1.62-.51C172,174.81,182.14,180.21,193.52,191.39Zm-14.43,3.55L191,206.59c1.51,1.49,3.84-.84,2.33-2.33l-11.86-11.65c-1.51-1.49-3.84.84-2.33,2.33Zm3.84-5.47,11.85,11.65c1.52,1.49,3.85-.84,2.33-2.33l-11.85-11.65c-1.51-1.49-3.85.84-2.33,2.33Zm-22.69.19c5.85,10,12.51,20.3,23,25.91,1.87,1,3.54-1.85,1.67-2.85-10-5.34-16.26-15.21-21.83-24.72a1.65,1.65,0,0,0-2.85,1.66Z"/>
    </g>
    <g id="a2f6cc31-feda-4d7a-8663-fdc5ce7d5ba6" data-name="plug 2">
      <path d="M396.4,157.15l17.21,8A25.52,25.52,0,0,1,426.07,199l-5.77,12.49a25.53,25.53,0,0,1-33.88,12.45l-17.21-8" style="fill: #9ed5f0"/>
      <path d="M396.4,157.15c-3.12-1.44-8.55,3.16-14,11.2l-13.14-6a3,3,0,0,0-4,1.5l-1.18,2.6a3,3,0,0,0,1.51,4L377.67,176c-1.15,2.1-2.27,4.31-3.34,6.63-.11.24-.22.49-.34.74l-13.47-6.12a3,3,0,0,0-4,1.5l-1.18,2.6a3,3,0,0,0,1.51,4l13.8,6.27c-4.43,12.43-5.22,22.56-1.42,24.32,4.68,2.16,14.56-9.25,22.07-25.5S401.08,159.32,396.4,157.15Z" style="fill: #fff"/>
      <path d="M397.09,155.66c-3-1.41-7.15.76-11.91,6.26-1.13,1.3-2.26,2.77-3.39,4.36l-11.9-5.4a4.69,4.69,0,0,0-6.2,2.32l-1.18,2.6a4.63,4.63,0,0,0-.12,3.58,4.69,4.69,0,0,0,2.44,2.62l10.57,4.8c-.76,1.44-1.49,2.9-2.21,4.41l-12-5.44a4.69,4.69,0,0,0-6.2,2.32l-1.18,2.6a4.68,4.68,0,0,0,2.33,6.2l12.45,5.66a71,71,0,0,0-3,11.79c-1.11,7.19-.09,11.73,2.94,13.13a4.6,4.6,0,0,0,1.93.42c6.56,0,15.89-12.79,22.33-26.72C399.88,175.82,403.64,158.68,397.09,155.66Zm-31.62,12.57a1.42,1.42,0,0,1,0-1.07l1.18-2.59a1.38,1.38,0,0,1,1.26-.82,1.33,1.33,0,0,1,.58.13l19.37,8.8-2.33,5.12L366.2,169A1.38,1.38,0,0,1,365.47,168.23Zm-8.68,14.89a1.42,1.42,0,0,1,0-1.07l1.18-2.59a1.4,1.4,0,0,1,.78-.73,1.37,1.37,0,0,1,.49-.09,1.28,1.28,0,0,1,.57.13l19.37,8.8-2.33,5.12-19.37-8.8A1.36,1.36,0,0,1,356.79,183.12Zm33,6.67c-7.88,17-17,26-19.88,24.69-1.19-.55-2-3.74-1.08-9.64a67.62,67.62,0,0,1,2.8-10.92l6.9,3.14,5.06-11.13-7.39-3.35c.72-1.52,1.46-3,2.22-4.41l8.8,4L392.26,171l-7.41-3.37c.94-1.3,1.88-2.51,2.82-3.59,3.39-3.92,6.06-5.54,7.48-5.54a1.36,1.36,0,0,1,.56.11C398.56,160,397.66,172.75,389.78,189.79Zm12.92-22.1a1.65,1.65,0,0,1,3.29,0,68.17,68.17,0,0,1-20,48.53,1.65,1.65,0,0,1-2.33-2.33,64.83,64.83,0,0,0,19.06-46.2Zm21,40.73a1.65,1.65,0,0,1,0-3.29c5.15,0,9.07,3.57,12.05,7.39s5.75,8.34,10.73,9.29c2.09.39,1.2,3.57-.87,3.18-4.87-.92-8.16-4.82-11-8.56-2.7-3.56-6-8-10.92-8Zm70.54,20.23c-2.12.13-2.11-3.16,0-3.3a72.28,72.28,0,0,0,17.59-3.42c20.91-6.72,37.95-21.21,54.19-35.45,1.59-1.39,3.93.93,2.33,2.33-4.86,4.26-9.73,8.5-14.76,12.56-17.13,13.81-36.85,25.84-59.35,27.28Z"/>
    </g>
    <path id="fc55700f-947a-4646-8108-63007457a62b" data-name="indicator" d="M256.49,508.31a14.83,14.83,0,1,1-14.83-14.83A14.83,14.83,0,0,1,256.49,508.31Zm24.42-14.83a14.83,14.83,0,1,0,14.83,14.83A14.83,14.83,0,0,0,280.91,493.48Zm0,0a14.83,14.83,0,1,0,14.83,14.83A14.83,14.83,0,0,0,280.91,493.48Zm41.87,0a14.83,14.83,0,1,0,14.83,14.83A14.83,14.83,0,0,0,322.78,493.48Z" style="fill: #f4f6f9"/>
    <path id="af6a2d8f-f166-43de-8ccb-df2302f1e7eb" data-name="man" d="M293.5,255.2a1.66,1.66,0,0,1,0,2.33,21.76,21.76,0,0,0-1.92,2l-.2.24-.05.07c-.14.18-.27.35-.39.53-.26.36-.51.73-.74,1.11a21.27,21.27,0,0,0-1.29,2.4l-.14.33,0,.06c-.09.22-.17.44-.25.66q-.23.61-.42,1.26a1.65,1.65,0,0,1-3.18-.88,22.94,22.94,0,0,1,6.28-10.15A1.68,1.68,0,0,1,293.5,255.2ZM89.66,432A51.11,51.11,0,0,0,107.6,456.2c1.71,1.23.06,4.09-1.66,2.85a55.63,55.63,0,0,1-22.67-44.43c0-5.89,1.27-11.45,2.61-17.15A33.7,33.7,0,0,0,87,387.58c-.21-3.18-1.43-6.21-2.35-9.23a20.37,20.37,0,0,1-1.1-8.22,17,17,0,0,1,2.54-7.23,16.38,16.38,0,0,1,5.64-5.4c.65-.37,1.13-.51.84-1.37a10.18,10.18,0,0,0-.94-1.79,15.59,15.59,0,0,1-1.58-3.88c-1.48-5.94.33-11.63,3.38-16.7,1.46-2.44,3.1-4.95,3.1-7.9s-1-5.64-1.51-8.43c-.85-4.48-.56-9.89,2.57-13.42q-2-7.59-4-15.17c-1.15-4.33-2.52-8.71-3-13.18a8.15,8.15,0,0,1-5,1.83c-5.53.05-9.23-6.57-11.1-11a43.58,43.58,0,0,1-3.08-17.39c0-3.37.27-6.74.57-10.1.24-2.6.17-5.7,1.78-7.9a5.79,5.79,0,0,1,3-2.1,9.84,9.84,0,0,1,1.84-3.65c2-2.41,5.67-3.8,8.46-2,1.09-3.4,3.13-6.38,7-6.77,4.23-.42,7.51,2.32,9.13,5.9,2.72-4.26,7-7.18,12.21-7.17,5.4,0,10.6,2.76,14.47,6.39,4.39,4.12,7.31,9.71,9.43,15.27a76.22,76.22,0,0,1,4.34,17.13c1.4,10.67.55,22.41,6.5,31.84,2.82,4.47,6,8.77,7.91,13.72a24,24,0,0,1,1.07,13.47,1.68,1.68,0,0,1,.9,2.27c7.49,3.67,12.19,11.28,13.84,19.41,3.39-3.29,6.8-6.55,10.3-9.73a179.4,179.4,0,0,1,24-18.78c8.32-5.29,17.63-8.5,26.94-11.59,3.05-15.6,6.36-31.12,8.57-46.87a15.59,15.59,0,0,1-9.25-3.17,16.25,16.25,0,0,1-4-20.41,16,16,0,0,1,10.67-7.43c-9.6-11.53-17.07-37.7-4.65-48.22,16.23-13.74,31.36-3.62,39.35-25.14,10,7.93,7.8,23.72,2.95,28.64a21.65,21.65,0,0,1-5.3,3.95,36.71,36.71,0,0,1,9.82,4c4.75,2.73,9.06,6.32,13.45,9.6q6.84,5.12,13.66,10.28c8.62,6.5,17.24,13,25.95,19.4a1.66,1.66,0,0,1,0,2.84c-8.66,4.93-17.33,9.86-26,14.72.28,1.52.57,3,.85,4.56l5.19,27.88q2.25,12.13,4.47,24.29a1.51,1.51,0,0,1,.73,1.37c4.23,2.38,8.32,5.1,12.36,7.75a174,174,0,0,1,29.58,23.92,119.93,119.93,0,0,1,21.9,30.94,49.66,49.66,0,0,1,4.4-16c1.52-3.3,3.27-6.5,4.51-9.92A30.38,30.38,0,0,0,396,320.47c-.13-6.82-.8-14.41,3.88-20,1.92-2.3,4.73-3.42,6.85-5.47,2.61-2.53,1.13-6.27,1.2-9.48a25.91,25.91,0,0,1,6.86-16.9c.66-1,1.32-2.08,2-3.13,5.82-9.52,4.8-21.24,6-31.93a76.23,76.23,0,0,1,4.1-17.19c2-5.6,4.88-11.23,9.21-15.41,3.82-3.68,9-6.51,14.38-6.59,5.23-.09,9.53,2.77,12.31,7,1.57-3.6,4.81-6.39,9.05-6,3.89.33,6,3.27,7.11,6.66,2.77-1.83,6.47-.5,8.49,1.88a9.94,9.94,0,0,1,1.89,3.63,5.72,5.72,0,0,1,3.06,2.05c1.65,2.18,1.61,5.28,1.89,7.87.35,3.36.66,6.72.72,10.1a43.62,43.62,0,0,1-2.83,17.42c-1.81,4.43-5.41,11.09-10.94,11.13a8.14,8.14,0,0,1-5-1.77c-.45,4.48-1.76,8.88-2.85,13.22q-1.9,7.63-3.82,15.27a1.45,1.45,0,0,1,.43,1.16c-.14,3,.55,6,.39,9a10.63,10.63,0,0,1-2.95,7c6.78,8.17,13.7,17.25,15.39,27.95.83,5.19.09,10.15-1.19,15.2s-2.88,10.36-1.51,15.61c1.25,4.82,4.29,8.91,6.93,13A53.8,53.8,0,0,1,493,384c5.56,17.2,1.84,37-9.92,50.8-1.38,1.62-3.7-.72-2.33-2.33a48.88,48.88,0,0,0,11.17-26.4,50,50,0,0,0-3.66-25.33c-3.72-8.52-11.38-15.58-11.93-25.28-.29-5.2,1.44-10.23,2.61-15.22a29.69,29.69,0,0,0,.1-14.54c-2.31-8.88-8.09-16.46-13.87-23.44a1.31,1.31,0,0,1-.27.12,47,47,0,0,1-15.22,2.17,115.34,115.34,0,0,1-15.32-1,45.2,45.2,0,0,1-23.08-10.05,8.93,8.93,0,0,1-3.31,4.75c-2.38,1.86-5,3.14-6.62,5.84-3.59,6.18-1.63,13.79-2.09,20.52-.5,7.31-4.26,13.4-7.12,20a43.65,43.65,0,0,0-3.47,20.2h0a1.44,1.44,0,0,1,.08.92c0,.52.07,1,.13,1.56.25,2.11-3.05,2.08-3.29,0-.08-.6-.13-1.19-.18-1.79-.68-1.7-1.41-3.37-2.19-5a117.56,117.56,0,0,0-24.75-34.19,177.67,177.67,0,0,0-27.59-21.57c-2.73-1.77-5.5-3.51-8.28-5.21a1.7,1.7,0,0,1-2.11.51,40,40,0,0,1-3.06,9.11,22.88,22.88,0,0,1-16,11.55,28.13,28.13,0,0,1-21.44-5.36,1.69,1.69,0,0,1-.69-1.59c-.52,0-1.05.06-1.57.07l-.09.13c-5.8,6.22-15.75,6.89-23.57,4.88-4.67-1.2-7.91-4.15-10.41-8.18a118.27,118.27,0,0,1-6.71-12.94c-5.32,1.76-10.66,3.5-15.82,5.69-9.2,3.92-17.41,9.69-25.13,16-7.52,6.13-14.55,12.82-21.49,19.58a38,38,0,0,1-.14,6.31,12.8,12.8,0,0,0,.1,4.82,6.8,6.8,0,0,0,2.15,3.06c2,1.8,4.26,3.3,6.32,5a74.64,74.64,0,0,1,5.82,5.43,49.59,49.59,0,0,1,6.91,9,60.65,60.65,0,0,1,6.56-5.61c1.71-1.26,3.35,1.6,1.66,2.85a54.87,54.87,0,0,0-6.62,5.76,26.45,26.45,0,0,1,2.55,16c-.8,4.72-3.75,9.46-8.86,10.08a7.54,7.54,0,0,1-6.28-1.95,7.76,7.76,0,0,1-1.86-6.8,23.1,23.1,0,0,1,3.1-7.66,57,57,0,0,1,4.48-6.73c.94-1.22,1.93-2.39,3-3.53-3.34-6-8.56-11.06-13.77-15.32-1.85-1.51-3.9-2.83-5.62-4.49a9.6,9.6,0,0,1-3-6.52c-.16-2.36.37-4.72.39-7.08,0-.9,0-1.8-.1-2.69a1.47,1.47,0,0,1-.09-.88c-.1-.87-.22-1.73-.4-2.58-1.53-7.38-6-14.53-13.08-17.46a80,80,0,0,1-7.95,6.28c-6.67,4.68-14.26,9-22.48,10a53.58,53.58,0,0,1-28-4.3,4.5,4.5,0,0,1-.16.48c-1.19,3-3.23,5.58-4.6,8.51a17.41,17.41,0,0,0-1.47,8.27,12.9,12.9,0,0,0,.91,4.11c.54,1.31,1.44,2.44,1.91,3.78a4,4,0,0,1-.37,3.79c-.73,1-1.93,1.44-2.92,2.11a13.11,13.11,0,0,0-4.57,5.68,12.9,12.9,0,0,0-.92,7.15c.49,3,1.68,5.78,2.48,8.67,1.74,6.34.5,12.38-1,18.62a55.06,55.06,0,0,0-1.76,16,52.66,52.66,0,0,0,3,14.94m-.52-199.11a35.94,35.94,0,0,0,1.41,8.62c.43-.16.85-.31,1.27-.44a26.93,26.93,0,0,1,8.35-1.08v0a60.33,60.33,0,0,1,.18-7.84,38.56,38.56,0,0,1,.78-5.1,2.17,2.17,0,0,1-.08-.3A8.65,8.65,0,0,0,98.13,221a5,5,0,0,0-5.73-.36c-1.6,1.19-2.17,3.58-2.61,5.41A26.77,26.77,0,0,0,89.14,232.87Zm1.5,35.28a8.3,8.3,0,0,1-.81-.49c-6.18-4.34-10.13-11.29-12-18.49a54.86,54.86,0,0,1-1.64-12.7c0-1,0-2,0-3-.69,1.29-.68,3.17-.8,4.47-.86,9.2-1.61,19.06,2.32,27.72a24.84,24.84,0,0,0,3.3,5.45c1.16,1.42,2.6,3.07,4.59,3.05C89,274.16,90.5,271.15,90.64,268.15Zm3-3.72a11.44,11.44,0,0,0-.08-3.87c-.14-1.19-.31-2.37-.48-3.56a12.39,12.39,0,0,1-6.55-4.33c-1.59-2.14-2.49-5.24-1-7.64a7.39,7.39,0,0,1,2-2A36.5,36.5,0,0,1,86,229c.09-.89.22-1.84.4-2.8a4.27,4.27,0,0,0-4.34.48c-2.74,2-2.63,6-2.6,9.08.08,6.61,1,13.38,4,19.34a28.44,28.44,0,0,0,4.93,7.06,17.71,17.71,0,0,0,3.45,3C92.89,265.7,93.37,265.61,93.65,264.43Zm7,38.1a1.83,1.83,0,0,1,1.12,1.14c1.79.54,4.19,0,5.94-.25,2-.29,4.06-.69,6-1.18a61.83,61.83,0,0,0,11.44-4,63,63,0,0,0,19.65-14.32,1.74,1.74,0,0,1,.3-.26,46,46,0,0,1-3.15-13.1c-.63-5.19-.86-10.42-1.5-15.61a74.92,74.92,0,0,0-3.77-15.55c-1.84-5.21-4.41-10.47-8.28-14.48-3.3-3.42-8-6.21-12.81-6.28-5.32-.08-8.82,3.6-11,8.11-.09.2-.17.41-.26.61a43,43,0,0,0-1,12.59c0,.05,0,.09,0,.14q1.44.09,2.88.21a52.47,52.47,0,0,1,11,2,24.86,24.86,0,0,0,1-12.43,1.69,1.69,0,0,1,1.15-2,1.67,1.67,0,0,1,2,1.16,29,29,0,0,1-1.11,14.4c.79.32,1.56.66,2.32,1,6,3,10.4,8.39,13.85,14,1.11,1.81-1.74,3.46-2.85,1.66-3.39-5.52-7.73-10.73-13.81-13.36a43.68,43.68,0,0,0-13.8-3.17c-4-.32-8-.68-12,.24-1.91.44-4.44,1.12-5.7,2.77s.57,4.27,1.88,5.4c2.27,1.94,5.4,2.41,8.27,2.63,3.42.25,6.85.36,10.27.54a1.66,1.66,0,0,1,.83,3.07c-3.24,2.17-4.62,6.19-4.65,9.95,0,4.92,2,9.62,3.88,14.07a1.64,1.64,0,0,1-1.15,2,1.69,1.69,0,0,1-2-1.15c-2.14-5.08-4.39-10.5-4-16.13.05-.57.12-1.15.21-1.71a6,6,0,0,1-5-2.15,9.62,9.62,0,0,1-.13,1.69,4.92,4.92,0,0,1-2.14,3.52,3.56,3.56,0,0,1-.73.31c0,.2-.09.39-.13.59a11,11,0,0,1-.17,1.15,23.12,23.12,0,0,0,.26,6.27c.78,4.62,2.19,9.15,3.39,13.67Zm-2.31-43.4c.85,1.57,2,3.38,4,2.82a3.39,3.39,0,0,0,.75-.32,14.4,14.4,0,0,1,1.86-3.26s0-.05,0-.08c-2.46-.09-4.92-.22-7.36-.48Zm55.86,39.79c-2.07-4.32-5.11-8.07-7.48-12.2a65.3,65.3,0,0,1-21.07,14.91,66.14,66.14,0,0,1-12.73,4.19c-2.15.46-4.33.81-6.52,1.06s-4.38.43-6.5-.42c-3.31,4.1-1.55,10.22-.57,15a20.58,20.58,0,0,1,.46,5.15,49.5,49.5,0,0,0,15.07,4.31,46,46,0,0,0,13.81-.23,38.39,38.39,0,0,0,10.5-3.94,76.09,76.09,0,0,0,16-11.07,2.21,2.21,0,0,1,.05-.25A22.09,22.09,0,0,0,154.19,298.92Zm40.66,79.17c-1,1.12-1.88,2.27-2.74,3.46a55.83,55.83,0,0,0-4.36,7.08c-1.08,2.09-2.38,4.83-1.63,7.24a3.91,3.91,0,0,0,4.49,2.47,6.37,6.37,0,0,0,4.6-3.49c2.17-3.88,2-9,.86-13.18A27.43,27.43,0,0,0,194.85,378.09ZM273,313.5a27.41,27.41,0,0,1-3.31-.6c-5.77-1.44-11.27-4.21-16.59-6.82q-5.79-2.85-11.39-6.08c1.3,2.64,2.66,5.25,4.13,7.79,2.07,3.58,4.53,6.5,8.65,7.67C260.27,317.11,267.75,317.05,273,313.5Zm43.85-12.27-.17.11c-1.32.84-2.68,1.6-4.07,2.31a76.5,76.5,0,0,1-8.61,3.63,167.18,167.18,0,0,1-16.54,5.1c-1.51.37-3,.68-4.56.91,6.7,4.4,15.37,6.08,22.83,2.52a19.24,19.24,0,0,0,8.41-7.51A27.69,27.69,0,0,0,316.8,301.23ZM318,296a4.83,4.83,0,0,1-.19-.79c-.15-.83-.31-1.67-.46-2.5-.38-2.1-.77-4.21-1.15-6.31q-2.94-15.93-5.91-31.85l-3.36-18a1.7,1.7,0,0,1,.75-1.86q12.46-6.94,24.86-14-6-4.4-11.94-8.87c-8.72-6.55-17.4-13.15-26.14-19.68-8.12-6.06-16.45-13.31-27.15-13.42h0c-6,2-10.89,3.5-11.73,13.83-.58,7.45,3.35,16.22-4.43,24.45l-1.83.44c.29.1.58.19.87.31a1.65,1.65,0,0,1-1.26,3.05,12.5,12.5,0,1,0,4,20.47,1.64,1.64,0,1,1,2.3,2.35,15.42,15.42,0,0,1-8.23,4.12,2.26,2.26,0,0,1,0,.45c-2.15,15.56-5.4,30.89-8.43,46.3l.16.07A201.51,201.51,0,0,0,258,304.81c5.65,2.65,11.58,5.48,17.92,5.7s12.59-1.75,18.63-3.62a103.89,103.89,0,0,0,16.35-6.09,74.7,74.7,0,0,0,7-4.39C318,296.27,318,296.13,318,296Zm158.81-49.71a7.18,7.18,0,0,1-.8.5c.18,3,1.72,6,5.15,6,2,0,3.4-1.67,4.54-3.11a25.12,25.12,0,0,0,3.23-5.5c3.8-8.71,2.91-18.56,1.92-27.75-.14-1.29-.16-3.17-.87-4.46.05,1,.05,2,0,3a54.44,54.44,0,0,1-1.46,12.72C486.82,234.84,483,241.85,476.85,246.28Zm1.93-24.68a7.29,7.29,0,0,1,2,2c1.56,2.38.71,5.49-.85,7.65a12.45,12.45,0,0,1-6.49,4.43c-.15,1.18-.31,2.37-.43,3.56a11.43,11.43,0,0,0,0,3.87c.3,1.18.78,1.26,1.79.62a18.4,18.4,0,0,0,3.41-3,28.33,28.33,0,0,0,4.82-7.13c2.91-6,3.78-12.79,3.76-19.39,0-3.06.05-7.06-2.72-9.05a4.26,4.26,0,0,0-4.35-.41c.2,1,.34,1.9.44,2.79M465,205.8a38.22,38.22,0,0,1,.86,5.08,58.6,58.6,0,0,1,.28,7.84v0a27.05,27.05,0,0,1,8.37,1c.41.12.84.26,1.27.42a35.6,35.6,0,0,0,1.28-8.64,26.28,26.28,0,0,0-.74-6.84c-.47-1.82-1.07-4.2-2.69-5.37a5,5,0,0,0-5.72.44,8.71,8.71,0,0,0-2.84,5.78A1.55,1.55,0,0,1,465,205.8Zm-45.92,62.38a63.59,63.59,0,0,0,9,7.65,68.75,68.75,0,0,0,20.67,9.88c5.34,1.5,13.12,2.54,17.07-2.36a1.47,1.47,0,0,1,.35-.32,2,2,0,0,1,0-.24q1.72-6.87,3.44-13.74c1.14-4.54,2.49-9.08,3.2-13.72a23.1,23.1,0,0,0,.17-6.27c-.08-.38-.14-.76-.19-1.14,0-.2-.09-.4-.13-.59a3.63,3.63,0,0,1-.74-.31,4.88,4.88,0,0,1-2.19-3.48,9.65,9.65,0,0,1-.15-1.69,6,6,0,0,1-5,2.22c.1.57.18,1.14.23,1.71.52,5.62-1.65,11.08-3.72,16.19a1.72,1.72,0,0,1-2,1.18,1.67,1.67,0,0,1-1.18-2c1.81-4.47,3.8-9.19,3.69-14.11-.09-3.77-1.53-7.76-4.8-9.89a1.66,1.66,0,0,1,.79-3.08c3.42-.22,6.84-.39,10.26-.69,2.87-.25,6-.77,8.23-2.74,1.3-1.15,3.16-3.71,1.8-5.43s-3.83-2.27-5.74-2.69c-3.94-.86-8-.45-12-.06a43.64,43.64,0,0,0-13.76,3.36c-6,2.71-10.3,8-13.61,13.56-1.09,1.81-4,.2-2.87-1.63,3.37-5.66,7.69-11.1,13.64-14.2q1.14-.59,2.31-1.08a28.77,28.77,0,0,1-1.31-14.38,1.66,1.66,0,0,1,2-1.18,1.69,1.69,0,0,1,1.18,2A24.82,24.82,0,0,0,449,221.31a52.87,52.87,0,0,1,11-2.15c1-.1,1.92-.18,2.88-.26,0,0,0-.09,0-.14a43.29,43.29,0,0,0-1.13-12.57l-.27-.6c-2.2-4.49-5.76-8.11-11.07-8-4.86.14-9.47,3-12.72,6.46-3.82,4.07-6.31,9.36-8.07,14.6a74.08,74.08,0,0,0-3.55,15.6c-.57,5.2-.73,10.43-1.29,15.63-.51,4.82-1.27,9.7-3.37,14.12A45.31,45.31,0,0,1,419.06,268.18Zm42.51-31.05s0,.05,0,.08a14.78,14.78,0,0,1,1.91,3.23,3.56,3.56,0,0,0,.75.3c2.08.54,3.17-1.29,4-2.87l.69-1.33C466.49,236.84,464,237,461.57,237.13Zm5.55,54.69c0-1.61-.21-3.21-.33-4.81a14.73,14.73,0,0,1-8.53,3.12c-7.68.56-15.52-2.54-22.29-5.83A69.52,69.52,0,0,1,417.26,271a60.84,60.84,0,0,0-4.31,7.41l-.39.09c-.07.19-.15.39-.22.59a25.72,25.72,0,0,0-.84,10.28,1.33,1.33,0,0,1,.35.25,41.68,41.68,0,0,0,23.45,10.72,117,117,0,0,0,14.37.85,44.53,44.53,0,0,0,13.91-1.91,1.22,1.22,0,0,1,.44-.77A7.86,7.86,0,0,0,467.12,291.82ZM270.49,360.33a4.42,4.42,0,0,0-4.06,3.1,1.69,1.69,0,0,0,1.15,2,2,2,0,0,0,.42,0,5.2,5.2,0,0,0,2.23,3.63,3.18,3.18,0,0,0,3.36.34,4,4,0,0,0,1.63-2.39,5.7,5.7,0,0,0-.63-4.68A4.56,4.56,0,0,0,270.49,360.33Zm1.49,6.05c-.06.14-.18.32,0,0Zm.08-.25-.06.21h0l0,0,0,0c.07,0,.06.05,0,0l0,0h0l-.06,0-.1-.07.07,0-.25-.25a.5.5,0,0,1,.05.07l-.05-.08,0,0c-.13-.16,0-.06,0,0l-.09-.11c-.07-.11-.12-.22-.18-.33a.88.88,0,0,0-.05-.15c0-.06,0-.13,0-.19a3.28,3.28,0,0,1,0-.7,1.45,1.45,0,0,0-.27-.89h0a.61.61,0,0,1,.13,0l-.06,0h0a.3.3,0,0,1,.14.05h0l.12,0h0l.06.06,0,0c.09.06.17.16.07.07l.17.16,0-.06.06.09v0h0c.1.18.12.2.1.15l.09.17a.44.44,0,0,1,.06.12v0a1.42,1.42,0,0,1,.07.22c0,.1,0,.2.06.3a5.61,5.61,0,0,1,0,.71C272.11,365.88,272.1,366,272.06,366.13Zm.24.39,0,0-.12-.06.15.08Zm.06,0Zm10.91,10a27.76,27.76,0,0,1-.2-8,22.31,22.31,0,0,0-.44-7.94,9.79,9.79,0,0,0-1.52-3.07c-.73-1-2.06-1.91-2.34-3.16a14.14,14.14,0,0,1,.15-4.1,32.21,32.21,0,0,1,.61-4.36c.63-2.9,2-5,3.63-7.42a7.63,7.63,0,0,0,.76-7.84c-1-2.09-3-4-2.94-6.48.07-2.12-3.22-2.12-3.29,0-.08,2.3,1.09,4.22,2.25,6.12,1.33,2.15,2.05,3.84.61,6.17s-3,4.34-3.8,7a37.31,37.31,0,0,0-1.24,8.41,9.49,9.49,0,0,0,.21,3.79,11.09,11.09,0,0,0,2.41,3.36c1.63,1.95,1.84,4.45,1.78,6.9-.07,2.6-.44,5.19-.32,7.8a26,26,0,0,0,2.06,8.55c2.42,6,6.54,12.61,4.35,19.32-.66,2,2.52,2.89,3.18.88,1.92-5.88-.3-11.82-2.68-17.2A46.75,46.75,0,0,1,283.27,376.58ZM254,229.48a18.16,18.16,0,0,0-15.36-2.7,1.64,1.64,0,0,0,.87,3.17,15,15,0,0,1,12.83,2.38,1.66,1.66,0,0,0,2.25-.59A1.69,1.69,0,0,0,254,229.48Zm17.68,107.65a4.91,4.91,0,0,0,2.46-2,6.38,6.38,0,0,0,.88-2.85,5.36,5.36,0,0,0-.5-2.82,3.41,3.41,0,0,0-2.83-1.84,3.88,3.88,0,0,0-3.13,1.3,5.23,5.23,0,0,0-1.11,2.14l-.18.16a3.66,3.66,0,0,0-.64,4A4,4,0,0,0,271.72,337.13Zm-2.05-3.4a1.46,1.46,0,0,0,.38-.27,1.75,1.75,0,0,0,.31-.49.91.91,0,0,0,.11-.16,1.66,1.66,0,0,0,.21-1,1.59,1.59,0,0,1,.07-.2,2.1,2.1,0,0,1,.13-.26l.08-.12.14-.14.15-.09.21-.06h.15v0a.08.08,0,0,1,0,0,4.27,4.27,0,0,1,.13.48,7.3,7.3,0,0,1,0,.81,6.15,6.15,0,0,1-.23.81,2.79,2.79,0,0,1-.18.34c-.05.09-.12.18-.18.27l.07-.11-.05.07-.2.18a2.2,2.2,0,0,1-.26.15,3.58,3.58,0,0,1-.35.09h-.33a1.8,1.8,0,0,1-.22-.06l-.08,0,0,0,0,0,0-.16Zm8.44-147.32a1.67,1.67,0,0,0,1.15-2,1.69,1.69,0,0,0-2-1.15q-.47.11-.93.18l-.51.08-.19,0q-.89.1-1.77.15a24.3,24.3,0,0,1-3.72-.09,1.64,1.64,0,0,0-1.65,1.64,1.68,1.68,0,0,0,1.65,1.65A26.23,26.23,0,0,0,278.11,186.41Zm-6,9.55a1.7,1.7,0,0,0-2.26-.59,1.67,1.67,0,0,0-.59,2.26l6.54,8.56a1.7,1.7,0,0,0,2.26.6,1.68,1.68,0,0,0,.59-2.26Zm13.36,2.67-6.68-7.45a1.66,1.66,0,0,0-2.33,0,1.69,1.69,0,0,0,0,2.33l6.68,7.45a1.66,1.66,0,0,0,2.33,0A1.69,1.69,0,0,0,285.46,198.63Zm-21.6-11.93a1.69,1.69,0,0,0-1.16,2,15.74,15.74,0,0,1,.18,6.3,4.93,4.93,0,0,1-2.67,3.5,1.66,1.66,0,0,0-.59,2.26,1.69,1.69,0,0,0,2.25.59,8.17,8.17,0,0,0,4.14-5.31c.75-2.7.3-5.51-.13-8.22A1.65,1.65,0,0,0,263.86,186.7Z"/>
    <path id="f1552a40-504d-48d0-b65c-321b300ba446" data-name="pattern" d="M230.72,108.55a1.65,1.65,0,0,1-.59,2.25,1.7,1.7,0,0,1-2.25-.59c-4.41-5.73-.48-14.47,4.22-18.77,2.42-2.21,5.83-4,9.17-2.87a11.44,11.44,0,0,1,3.88,2.81c1.37,1.28,2.62,1.6,4.29.62,2.63-1.55,4.52-4.12,7.14-5.75a22.18,22.18,0,0,1,8.88-3.13,18.52,18.52,0,0,1,16.26,5.72A17.66,17.66,0,0,1,286,104.52c-1.52,6.2-6.78,10.79-12.62,12.89A29.25,29.25,0,0,1,262.56,119c-1.77-.06-3.56-.46-5.34-.38s-2.7,1.21-3.52,2.63c-1.58,2.75-2.91,5.53-5,7.92a13.47,13.47,0,0,1-8,4.56,17.46,17.46,0,0,1-9.84-1.91,44.6,44.6,0,0,1-5.09-2.87,19.84,19.84,0,0,1-3.67-2.7c-2.53-2.54-2.3-5.63-.77-8.66a61.53,61.53,0,0,1,6.28-9.77,1.68,1.68,0,0,1,2.25-.59,1.64,1.64,0,0,1,.59,2.25A65,65,0,0,0,224.2,119c-.76,1.46-1.37,3-.23,4.47a13.88,13.88,0,0,0,3.58,2.73c3,1.89,6.31,3.84,9.9,4.27a9.83,9.83,0,0,0,8.45-3.22,27.55,27.55,0,0,0,4.36-6.61c1.32-2.51,3-4.86,6-5.27a23.29,23.29,0,0,1,4.86.22,35.1,35.1,0,0,0,4.81,0,22.43,22.43,0,0,0,8.84-2.35c4.68-2.46,8.44-7,8.4-12.52a15,15,0,0,0-6.93-12.25c-4.55-2.85-10.41-2.83-15.28-.79a22.27,22.27,0,0,0-6.55,4.53c-1.92,1.78-4.24,3.81-7,3.72a6.2,6.2,0,0,1-3.67-1.44,21.38,21.38,0,0,0-3-2.57c-2.33-1.24-5,.55-6.6,2.15-3.51,3.4-6.82,10-3.4,14.48Zm101.78,30c3.7-2.25,8.31.57,8.86,4.63a9,9,0,0,1-1.82,6.38c-1.2,1.77-1.18,3.85.62,5.18,1.42,1,3.7,1.13,4.39,3a5.72,5.72,0,0,1-1.11,5.32,8.92,8.92,0,0,1-10,2.8c-4.27-1.71-6.74-6.8-6.13-11.25.13-.94-.4-2.2-1.59-2.09a23.56,23.56,0,0,1-6.05-.11c-1.34-.21-4.12-.43-4.84-1.82-.63-1.21-.22-3.45,0-4.75a16.33,16.33,0,0,1,1.45-4.78,9.83,9.83,0,0,1,6.63-5.52,7.25,7.25,0,0,1,7.3,2.3c1.34,1.64,3.66-.7,2.33-2.33-2.44-3-6.47-3.9-10.15-3.22a13,13,0,0,0-9.13,7.48,20.65,20.65,0,0,0-1.76,6.26c-.24,2.05-.49,4.55.61,6.4s3.64,2.56,5.72,3a26.57,26.57,0,0,0,7.91.41l-1.59-2.09a14.55,14.55,0,0,0,5.74,13.9,12,12,0,0,0,14-.44c3.74-2.84,6.36-9.49,2-13.08a12.75,12.75,0,0,0-3-1.55c-.17-.08-.91-.45-.92-.48-.13-.44.91-1.47,1.12-1.83a11.59,11.59,0,0,0,1.46-7.89c-1.06-6.11-8.21-10-13.7-6.6-1.81,1.1-.15,4,1.66,2.84Zm-95-20.1h-.75a1.18,1.18,0,0,0-.64.14,1.21,1.21,0,0,0-.53.34,1.82,1.82,0,0,0-.48,1.16l.06.44a1.73,1.73,0,0,0,.42.73l.33.26a1.75,1.75,0,0,0,.84.22h.75a1.28,1.28,0,0,0,.64-.14,1.48,1.48,0,0,0,.87-.87,1.28,1.28,0,0,0,.14-.64l-.06-.44a1.69,1.69,0,0,0-.42-.72l-.34-.26a1.59,1.59,0,0,0-.83-.22Zm26.79-22.19-.75.76a1.11,1.11,0,0,0-.34.53,1.13,1.13,0,0,0-.14.63,1.18,1.18,0,0,0,.14.64,1.21,1.21,0,0,0,.34.53l.33.25a1.65,1.65,0,0,0,.83.23l.44-.06a1.73,1.73,0,0,0,.73-.42l.75-.76a1.21,1.21,0,0,0,.34-.53,1.19,1.19,0,0,0,.15-.64,1.17,1.17,0,0,0-.15-.63,1.21,1.21,0,0,0-.34-.53l-.33-.26a1.61,1.61,0,0,0-.83-.22l-.44.06a1.63,1.63,0,0,0-.73.42Zm-15,8.37.75-.75a1.21,1.21,0,0,0,.34-.53,1.28,1.28,0,0,0,.14-.64,1.26,1.26,0,0,0-.14-.63,1.16,1.16,0,0,0-.34-.53l-.33-.26a1.64,1.64,0,0,0-.83-.22l-.44.06a1.54,1.54,0,0,0-.73.42l-.75.75a1.23,1.23,0,0,0-.35.53,1.28,1.28,0,0,0-.14.64,1.22,1.22,0,0,0,.14.63,1.12,1.12,0,0,0,.35.53l.33.26a1.62,1.62,0,0,0,.83.23l.44-.06a1.65,1.65,0,0,0,.73-.43Zm89,79.09L339,183a1.11,1.11,0,0,0,.34-.53,1.4,1.4,0,0,0,0-1.26,1.19,1.19,0,0,0-.34-.54l-.33-.25a1.62,1.62,0,0,0-.83-.23l-.44.06a1.73,1.73,0,0,0-.73.42l-.75.76a1.21,1.21,0,0,0-.34.53,1.42,1.42,0,0,0,0,1.27,1.21,1.21,0,0,0,.34.53l.33.26a1.61,1.61,0,0,0,.83.22l.44-.06a1.63,1.63,0,0,0,.73-.42Zm-97.76-112,.75-.75a1.21,1.21,0,0,0,.34-.53,1.29,1.29,0,0,0,.15-.64,1.22,1.22,0,0,0-.15-.63,1.16,1.16,0,0,0-.34-.53l-.33-.26a1.62,1.62,0,0,0-.83-.23l-.44.06a1.65,1.65,0,0,0-.73.43l-.75.75a1.21,1.21,0,0,0-.34.53,1.18,1.18,0,0,0-.14.64,1.82,1.82,0,0,0,.48,1.16l.33.26a1.64,1.64,0,0,0,.83.22l.44-.05a1.65,1.65,0,0,0,.73-.43ZM329,142.34a1.6,1.6,0,0,1,0-.21l.06.44a1.31,1.31,0,0,1,0-.28l-.06.44a1.58,1.58,0,0,1,.09-.31l-.17.39a1.61,1.61,0,0,1,.17-.28l-.26.33a1.26,1.26,0,0,1,.2-.2l-.33.26a.72.72,0,0,1,.24-.14l-.39.16.1,0a1.29,1.29,0,0,0,.57-.29,1.33,1.33,0,0,0,.42-.46,1.26,1.26,0,0,0,.2-.62,1.44,1.44,0,0,0,0-.65l-.17-.4a1.75,1.75,0,0,0-.59-.59l-.4-.16a1.61,1.61,0,0,0-.87,0,2.9,2.9,0,0,0-.61.25l-.09.06c-.14.1-.29.21-.42.32a1.29,1.29,0,0,0-.16.17,3.39,3.39,0,0,0-.38.53c-.08.15-.14.32-.21.48s0,.08,0,.12a3.68,3.68,0,0,0-.11.65,1.92,1.92,0,0,0,0,.24,5,5,0,0,0,.08.54l0,.12a1.13,1.13,0,0,0,.3.56,1.19,1.19,0,0,0,.46.43,1.22,1.22,0,0,0,.61.19,1.24,1.24,0,0,0,.66,0l.39-.16a1.59,1.59,0,0,0,.59-.59l.17-.4a1.61,1.61,0,0,0,0-.87Zm22.58-10.76h.75a1.28,1.28,0,0,0,.64-.14,1.48,1.48,0,0,0,.87-.87,1.26,1.26,0,0,0,.14-.63l-.06-.44a1.73,1.73,0,0,0-.42-.73l-.34-.26a1.59,1.59,0,0,0-.83-.22h-.75a1.28,1.28,0,0,0-.64.14,1.48,1.48,0,0,0-.87.87,1.28,1.28,0,0,0-.14.64l.06.43a1.73,1.73,0,0,0,.42.73l.34.26a1.59,1.59,0,0,0,.83.22Z"/>
  </g>
</svg>
