<svg xmlns="http://www.w3.org/2000/svg" width="587.81" height="587.81" viewBox="0 0 587.81 587.81">
  <g id="bf437095-3ccc-4ee8-88de-e143ee1505c2" data-name="delivery">
    <g id="e830826a-4c5c-4b48-bcc0-71eb1d4ccfeb" data-name="color background">
      <path d="M176.85,261.36c-13.08-3.25-23.9-12.18-34.23-20.86L81.27,189A193,193,0,0,0,146,185.91c7.13-1.57,14.39-3.64,20.12-8.18,6.52-5.16,10.35-12.92,13.73-20.52,14.52-32.59,24.15-72.16,5.59-102.63a405.59,405.59,0,0,0,45.23,63.7A481.52,481.52,0,0,1,319.81,25.8a81.88,81.88,0,0,0,10.87,57.71c4.25,6.83,9.87,13.27,17.41,16.09,10.23,3.82,21.6.27,31.83-3.56A587.58,587.58,0,0,0,457,60.64c-22.69,18.71-47.11,40.55-49.88,69.82-.47,5,.1,10.85,4.15,13.87,3.27,2.44,7.74,2.22,11.81,1.9l96-7.58a358,358,0,0,0-45.18,37c-4.94,4.77-9.82,13-4.83,17.68,2.87,2.73,7.4,2.29,11.34,1.82a153.65,153.65,0,0,1,62.15,5.45c3.31,1,6.88,2.34,8.58,5.36,3.15,5.6-2.12,12.09-7,16.25a477.19,477.19,0,0,1-94,62.37c-21.59,10.89-44.24,20.29-63.22,35.28-10.7,8.45-20.74,18.92-34,22-16.52,3.81-33.27-5-46.82-15.16s-26.36-22.39-42.64-27.1c-13.43-3.89-28.2-2.29-41.13-7.61-19.79-8.14-33.1-31.46-54.49-32" style="fill: #f4f6f9"/>
    </g>
    <path id="fbb703be-8943-46a8-b2e3-4007bdfc8402" data-name="white background" d="M509.13,271.13c-2.06,11.55-7.23,22.28-12.62,32.69Q485,326.11,471.75,347.5c-3.92,6.33-8.08,12.76-14.1,17.15-8.94,6.53-20.57,7.57-31.74,6.2-7.23,8.38-14.54,16.8-23.25,23.63a31.28,31.28,0,0,1-9.16,5.38c-9.55,3.19-20.26-1.43-30.13-1.25A26.56,26.56,0,0,1,361,401.1a79.31,79.31,0,0,1-101.34,6.44,35.71,35.71,0,0,0-7.94,7.68c-7,9.35-2.23,18.79-1,32.54-.65.12-1.3.26-1.95.4a84.54,84.54,0,0,1,9.6,32.81,105,105,0,0,0-40,6.75l.34.81A98.09,98.09,0,0,1,208,466.2a12.84,12.84,0,0,1-.69-2.91c-2.77,1.5-5.5,3.07-8.16,4.73-17-13-32.94-28-43.09-46.8s-13.84-41.94-5.92-61.78c7.18-18,25.22-32,44.32-32.29a76.51,76.51,0,0,1-5.43-31c.84-21.7,11-42.25,25-58.88.83-1,1.67-2,2.53-2.93Q193.65,207,170.8,179.78A598.18,598.18,0,0,1,294.26,99.46c4.48-2.18,10-4.25,14.15-1.46a14.48,14.48,0,0,1,4,4.86l54.9,91.92c18.54,8.13,34.58,22.09,44.34,39.87A80.32,80.32,0,0,1,417,246.54c.68-.61,1.35-1.24,2-1.84,12-10.35,25.8-19.44,41.42-22.19s33.31,2.05,42.55,14.93C509.79,247,511.18,259.59,509.13,271.13ZM312.21,422.69c-11.06,0-20,27.3-20,61s9,61,20,61,20-27.29,20-61S323.28,422.69,312.21,422.69ZM202,475.19c-7.43,2-9.73,17.38-5.14,34.33s14.34,29.05,21.77,27,9.73-17.39,5.13-34.33S209.41,473.17,202,475.19Zm199.7-13.14c-7.65-.78-15.32,12.74-17.11,30.21s3,32.26,10.61,33,15.32-12.73,17.12-30.2S409.35,462.84,401.69,462.05Z" style="fill: #fff"/>
    <path id="a162d4aa-42c7-4795-a7fa-d2563bf1ffea" data-name="pattern" d="M474.89,409.24a1.5,1.5,0,0,1,1.51-2.59L510,426.88a1.5,1.5,0,0,1-1.51,2.59l-33.64-20.23Zm-16,16.76,19.18,19.17a1.5,1.5,0,0,0,2.12-2.12L461,423.88a1.5,1.5,0,0,0-2.12,2.12ZM120,430.67,85.16,446.11c-1.77.78-.24,3.36,1.51,2.59l34.81-15.44c1.76-.79.24-3.37-1.51-2.59Zm6.42-133a224.64,224.64,0,0,1-57.12,3.54c-1.93-.13-1.92,2.87,0,3a227.75,227.75,0,0,0,57.92-3.65c1.9-.36,1.09-3.26-.8-2.89ZM119.47,317l-25,5c-1.89.38-1.09,3.27.79,2.9l25-5c1.89-.38,1.09-3.27-.79-2.89ZM354,105.17l7.5-17.53a1.55,1.55,0,0,0-.54-2,1.51,1.51,0,0,0-2.05.54l-7.5,17.52a1.56,1.56,0,0,0,.54,2.06,1.51,1.51,0,0,0,2-.54ZM182.46,90,169.93,75a1.51,1.51,0,0,0-2.12,0,1.53,1.53,0,0,0,0,2.12l12.53,15a1.5,1.5,0,0,0,2.12,0,1.53,1.53,0,0,0,0-2.12Zm-30.87-7.62,22.06,17.82c1.49,1.21,3.63-.9,2.12-2.12L153.71,80.25c-1.49-1.2-3.62.9-2.12,2.12Z"/>
    <path id="fe5e2336-0618-461e-bdef-e52a2c740b54" data-name="man" d="M363.19,423.47q1.19,22.92.33,45.89a1.53,1.53,0,0,1-2.12,1.27l-.14,0-26.37,2.4c-1.92.17-1.9-2.83,0-3l25.68-2.33q.76-22.17-.38-44.35-6.24-.24-12.48-.78c-1.91-.17-1.92-3.17,0-3,4.64.41,9.29.67,13.94.83v-.65l0,.65A255,255,0,0,0,408,417.76c1.9-.28,2.7,2.61.8,2.89A259.32,259.32,0,0,1,363.19,423.47Zm-40.68,64.31c-.39,1.89,2.5,2.69,2.9.8a77.49,77.49,0,0,0-1.56-38.08c-.55-1.84-3.45-1.06-2.89.8A74.28,74.28,0,0,1,322.51,487.78Zm-15.72-52.66a49.07,49.07,0,0,0-7.51,28.3c.09,1.93,3.09,1.94,3,0a46.31,46.31,0,0,1,7.1-26.79C310.42,435,307.82,433.49,306.79,435.12Zm93.13,36.1c1.93-.84,2.85.83,3.34,2.44a32.76,32.76,0,0,1,1,14.92,1.55,1.55,0,0,0,1.05,1.85,1.51,1.51,0,0,0,1.84-1.05,36.08,36.08,0,0,0,.37-9.68c-.3-3-.76-6.32-2.2-9a5,5,0,0,0-6.77-2.16c-2.75,1.28-3.8,4.27-4.59,7-.55,1.85,2.35,2.65,2.89.8S398,472.07,399.92,471.22Zm-196.71,40a1.52,1.52,0,0,0-1.05,1.85,64.12,64.12,0,0,0,9.7,17.24,6.48,6.48,0,0,0,3.48,2.59,5.45,5.45,0,0,0,4.1-.78c2.71-1.73,3.41-4.87,3.83-7.85a1.55,1.55,0,0,0-1.05-1.84,1.52,1.52,0,0,0-1.85,1c-.3,2.15-.56,5-2.67,6.18s-3.75-1.45-4.88-3a61.58,61.58,0,0,1-7.77-14.39A1.54,1.54,0,0,0,203.21,511.24ZM506.93,284.66c-3.47,9.44-8.24,18.37-13,27.22q-7.44,14-15.56,27.55c-4.93,8.27-9.71,17.42-16.9,24-6.43,5.88-14.72,8.68-23.31,9.31a61,61,0,0,1-11.64-.34c-4.19,4.85-8.4,9.7-12.93,14.25a93.74,93.74,0,0,1-12,10.46c-.67-.75-1.38-1.47-2.12-2.16l.66-.47c8.92-6.52,16.29-15,23.49-23.34a138,138,0,0,0-34.37-12.24c-2.68-.57-5.77-1.38-8.43-.32a6.62,6.62,0,0,0-2.42,1.72,2.48,2.48,0,0,1,0,.27,8.07,8.07,0,0,1-4.6,7.32c-4.61,8.59-9.07,17.26-13.56,25.91a29.36,29.36,0,0,0-3.4,3.29l-.34.65-1.31,2c-.19.07-.39.12-.58.2-.29.41-.59.83-.86,1.26a1.75,1.75,0,0,1-.43-.83c-7.44,2.46-15.49,3-23.47,2.55-2.29-.13-4.57-.32-6.84-.54a11.91,11.91,0,0,1-2.81,9.81,11.14,11.14,0,0,1-6.79,3.61c.27,1.68.53,3.37.8,5.06a79.23,79.23,0,0,0,31.3-10.18c1.81-1,3.59-2.18,5.32-3.37a30.8,30.8,0,0,0-1.2,4.4c-2.1,1.3-4.24,2.52-6.41,3.62A82.12,82.12,0,0,1,318,423.42c9.16,7.19,15.72,31.08,15.72,60.24,0,.75,0,1.49,0,2.23a118.87,118.87,0,0,1,14.62.24A122.57,122.57,0,0,1,382.94,494c0-.62.08-1.25.15-1.88,1.91-18.57,10.15-32.42,18.75-31.54s13.87,16.13,12,34.7c-.89,8.65-3.21,16.65-6.55,22.53s-7.35,9.05-11.41,9.05c-.27,0-.53,0-.8,0-4.33-.45-7.93-4.46-10.12-11.31a54.92,54.92,0,0,1-2.16-18.38,119.86,119.86,0,0,0-49.09-8.22c-.89,32.49-10,57.24-21.46,57.24-11.3,0-20.31-24-21.42-55.84a191.94,191.94,0,0,0-25.68,3.53,1.83,1.83,0,0,1-.5.13c-.08,1.89-.16,3.79-.23,5.68s-3.08,1.93-3,0q.38-9.18.74-18.37a1.53,1.53,0,0,1,1.89-1.42,1.39,1.39,0,0,1,1-.91,98.5,98.5,0,0,1,25.9-3.79c1.09-24.19,6.77-43.6,14.52-50.86a78.06,78.06,0,0,1-9.41-.68,82.2,82.2,0,0,1-36.28-14.22,34.16,34.16,0,0,0-6.24,6c-3.45,4.33-4.31,9.29-3.8,14.68.17,1.82.43,3.63.72,5.44q.8,2.94,1.43,5.93a1.48,1.48,0,0,1-.25,1.21c.27,1.69.5,3.39.66,5.1a1.49,1.49,0,0,1-1.1,1.44l-.11,0A85.52,85.52,0,0,1,259.88,481a1.29,1.29,0,0,1-.27.85,22.78,22.78,0,0,0-2.95-3.09,83.35,83.35,0,0,0-8.74-28.86,153,153,0,0,0-39,14.29,30,30,0,0,0,1.61,4.64c.82,2.21,1.72,4.4,2.71,6.54.43.93.88,1.85,1.33,2.77-.28.29-.56.6-.83.91.47.52.94,1.06,1.41,1.64,3.92,4.86,7.26,11.66,9.54,19.28q17.88.42,35.75,1.27c1.92.09,1.93,3.09,0,3q-17.44-.82-34.9-1.25c4.47,17.55,1.7,32.83-6.48,35.05a7.67,7.67,0,0,1-2,.26c-8,0-17.09-11.77-21.59-28.36-4.88-18-2.16-33.91,6.19-36.17,2.69-.72,5.61,0,8.54,2.1a68.71,68.71,0,0,1-3.91-10.24c-2.14,1.19-4.25,2.42-6.34,3.72a1.46,1.46,0,0,1-1.51,0c-12-9.22-23.52-19.3-32.93-31.23C149,417.3,139,389.25,147.25,363c6.18-19.56,24.37-36,45.06-37.27a78.35,78.35,0,0,1-4.83-25.12c-.52-22.35,9.1-43.69,22.66-61q2.13-2.72,4.4-5.32-22.41-26.72-44.8-53.44a1.52,1.52,0,0,1,0-2.12q2.76-2.33,5.55-4.62,22.29-18.34,46.28-34.48T271,109.72q6.36-3.43,12.79-6.72c4.16-2.12,8.31-4.37,12.63-6.15,3.79-1.56,8.26-2.58,12.08-.55a12.37,12.37,0,0,1,4.33,4.44c1.37,2.13,2.61,4.34,3.91,6.51l32.8,54.92,18.78,31.45a98.15,98.15,0,0,1,26,16.87,90.07,90.07,0,0,1,23.34,33.36c11.62-10.14,24.87-19,40-22.32s32.88-.09,43.77,11.68C514.35,247.17,513.07,268,506.93,284.66ZM212.76,482.54c-3.16-3.93-6.41-6.07-9.13-6.07a4.71,4.71,0,0,0-1.25.17c-5.8,1.57-8.82,15-4.08,32.49s14.14,27.55,19.93,26,8.78-14.87,4.14-32.23q-6.75-.17-13.49-.25c-1.93,0-1.93-3,0-3q6.3.09,12.61.22A53.77,53.77,0,0,0,212.76,482.54Zm173.09,12.61a121.33,121.33,0,0,1,12.63,6.11,1.5,1.5,0,0,1-1.51,2.59,122.28,122.28,0,0,0-11.26-5.53,51.26,51.26,0,0,0,2.06,16.26c1.79,5.55,4.55,8.92,7.58,9.23s6.42-2.42,9.29-7.5c3.14-5.53,5.33-13.11,6.17-21.36,1.86-18-3.3-30.79-9.27-31.41l-.46,0c-5.9,0-13.2,11.32-15,28.89C386,493.33,385.91,494.24,385.85,495.15ZM348.78,190.38q-2.71,11.84-4.41,23.88a275.38,275.38,0,0,0,1.5,85.29,1.53,1.53,0,0,1-.16,1c2,.6,4,1.22,5.94,1.77-1.24-7.39-2.21-14.83-2.85-22.29a279.33,279.33,0,0,1,6.1-86.52c.44-1.88,3.33-1.08,2.9.8q-2.74,11.87-4.43,23.94a275.35,275.35,0,0,0,.92,81.77c1.66-1.61,3.33-3.21,4.91-4.9,2.05-2.19,4.23-4.62,5.07-7.57a7.88,7.88,0,0,0,.2-1,6.56,6.56,0,0,1-2.15,1.11,5.93,5.93,0,0,1-6.57-2c-1.5-2.26-.58-5.11,1.42-6.72a5.78,5.78,0,0,1,7.24-.1,8.16,8.16,0,0,1,.87.79,28.05,28.05,0,0,0,.8-5.34,32.82,32.82,0,0,0-4.63-19.12,1.5,1.5,0,0,1,2.59-1.51,35.2,35.2,0,0,1,3.83,8.89c1.67,6.06,2,13.26-.18,19.25-.15.39-.31.78-.49,1.17a9,9,0,0,1,.37,2.92c-.17,3.41-2,6.36-4.12,8.93a111.31,111.31,0,0,1-8.57,8.81,1.63,1.63,0,0,1-1.77,1.77c-.51.53-1,1.06-1.5,1.6-3.61,4-6.64,8.81-6.32,14.39S349.17,332,353.66,335a22.36,22.36,0,0,0,17.23,3c13.42-2.78,22.59-13.68,29.68-24.64,3.76-5.8,7.42-11.72,10.69-17.82A66.22,66.22,0,0,0,418.55,276c2.41-13.65-1.37-27.83-7.81-39.86a88.74,88.74,0,0,0-22.19-26.71A94.39,94.39,0,0,0,348.78,190.38Zm13.05,90.41c-1.73-.7-5,1.33-3.55,3.29s4.49.41,5.54-1.12c0-.06.06-.12.1-.17A4,4,0,0,0,361.83,280.79ZM216.54,232c11-12.19,24-22.49,37.4-32.05a12.31,12.31,0,0,1,6.72-16.9c-9.08-7.68-18.5-26.79-10.41-36.7,10.64-13,23.87-7.33,27-25.22,8.91,4.72,9.48,17.32,6.43,21.84a17.14,17.14,0,0,1-3.35,3.67,28.93,28.93,0,0,1,8.29,1.74,123.86,123.86,0,0,1,12,5.61q6.07,3,12.15,6c7.6,3.79,15.2,7.6,22.86,11.28a1.52,1.52,0,0,1,.3,2.36c-6,5.07-12.05,10.15-18.11,15.18l1.35,3.5c5.2,13.49,10.43,27,15.54,40.48a1.27,1.27,0,0,1-.9,1.74,34.22,34.22,0,0,1-7.28,14.24,35.61,35.61,0,0,1-28.84,12.62,37,37,0,0,1-28.09-15.12,1.38,1.38,0,0,1-.27-.82,1.59,1.59,0,0,1-.14-.68c.18-12.66,0-25.32-.52-38a13.49,13.49,0,0,1-3.46.47,11.83,11.83,0,0,1-9.67-4.78c-4.17,3-8.31,6-12.37,9.21a1.49,1.49,0,0,1,.63.41A168.27,168.27,0,0,1,259,231.76a170.21,170.21,0,0,1,19.38,39.32,167.77,167.77,0,0,1,8.5,41.52q5.06-1.92,10-4.08c8.89-3.88,17.89-8.07,27.54-9.65a42.79,42.79,0,0,1,13.83-.15,44.77,44.77,0,0,1,4.59,1q-2-11.79-3.08-23.71a279.11,279.11,0,0,1,6-86.25,87.74,87.74,0,0,0-22-1.19c-1.93.14-1.91-2.86,0-3,2.84-.21,5.68-.29,8.53-.22a93.44,93.44,0,0,1,31.34,6.32q-10-16.8-20.06-33.6-16-26.81-32-53.63c-1.1-1.82-2.15-3.93-4-5.18a7.65,7.65,0,0,0-5.59-1c-4.36.69-8.41,3.13-12.31,5.07q-12.62,6.32-24.94,13.2-24.63,13.78-47.88,29.86-22.78,15.74-44,33.56L186,195.55Zm57.65,84.87q4.95-1.47,9.8-3.22a162.11,162.11,0,0,0-3.39-23.62A167.27,167.27,0,0,0,266,249.54a164.62,164.62,0,0,0-24.39-35.25,1.44,1.44,0,0,1-.39-1q-1.86,1.49-3.69,3c4.62,6.38,9.24,12.76,13.61,19.33C266.93,259.36,279.92,287.71,274.19,316.89Zm-5-132.8a1.51,1.51,0,0,1-1.78,1.16,9.69,9.69,0,1,0,5.92,15,1.5,1.5,0,0,1,2.46,1.72,12.2,12.2,0,0,1-4.19,3.67c.59,13,.74,26.08.56,39.13h0a32.38,32.38,0,0,0,13.1,10.59,33.13,33.13,0,0,0,29.21-.66,32.5,32.5,0,0,0,16.75-22.57q-1.53-4.05-3.08-8.1-6.76-17.64-13.57-35.27a1.44,1.44,0,0,1,.38-1.46q8.63-7.15,17.17-14.39-5.19-2.51-10.35-5.06c-7.57-3.76-15.12-7.56-22.7-11.3-1.7-.84-3.42-1.74-5.18-2.6a7.83,7.83,0,0,1,.89.93,1.54,1.54,0,0,1,0,2.12,1.51,1.51,0,0,1-2.12,0,8.62,8.62,0,0,0-1-1l-.22-.19,0,0c-.2-.13-.39-.26-.6-.37l-.26-.13-.08,0a4.24,4.24,0,0,0-.61-.17l-.17,0h-.17c-.12,0-.23,0-.35,0h0a0,0,0,0,0,0,0h-.05c-.13,0-.1,0,0,0-.17,0-.53.11-.57.13h0l-.24.12c-.07.05-.17.1-.24.16l-.06.07-.15.15-.05.08-.13.23v0h0a2.63,2.63,0,0,0-.09.3c0,.06,0,.34,0,.1s0,.08,0,.27h0a.83.83,0,0,0,0,.15c0,.08.16.39,0,0a1.54,1.54,0,0,1-.54,2,1.5,1.5,0,0,1-2.05-.54,4.37,4.37,0,0,1,.1-3.92,4.64,4.64,0,0,1,3-2.28,5.73,5.73,0,0,1,1.74-.13c-4.45-1.87-9.08-3.11-14-2.27a1.56,1.56,0,0,1-.48,0c-4.21,2.33-7.64,4.32-6.82,12.27.63,5.89,4.95,12.14.08,19.66l-1,.46.44.07A1.5,1.5,0,0,1,269.16,184.09ZM200.63,336.58a73.46,73.46,0,0,0,9.16,12.6c3.46,3.82,7.5,7.59,12.62,8.94,5.65,1.49,11.55-.31,16.75-2.54,2.66-1.14,5.27-2.4,7.85-3.71a35,35,0,0,0,6.83-4.28c2.92-2.49,5.32-5.79,4.46-9.8-.71-3.31-2.59-6.25-3.79-9.4a15.76,15.76,0,0,1-.19-11.56c1-2.46,2.41-4.78,2.85-7.42a15.65,15.65,0,0,0-1.12-8c-1.92-5.17-5.31-9.63-7.14-14.85-1.63-4.67-2.09-10,.8-14.32,1.07-1.6,3.67-.1,2.59,1.51a10.56,10.56,0,0,0-1.67,7c.91,11,12.92,19.79,8.9,31.47-.86,2.5-2.33,4.78-3,7.36a10.67,10.67,0,0,0-.25,1.5Q262.2,320,268,318.6c1.19-.31,2.38-.62,3.56-1a1.48,1.48,0,0,1-.32-1.29,74.13,74.13,0,0,0,.71-23.64c-3.51-28.24-20.44-52.09-36.72-74.54-10,8.51-19.23,17.89-26.77,28.67-12.21,17.48-19.91,38.57-17.58,60.11A76.16,76.16,0,0,0,200.63,336.58Zm64.1,22.92c.16.26.09-.33-.2.09,0,0-.1.06-.1.07-.24.39,0,.91.27,1.33l9.31.3a1.69,1.69,0,0,1-.77-1.3,16.84,16.84,0,0,0-13.75-14.18c-3,4.48-7.94,7.19-12.68,9.5-5.3,2.59-10.78,5.27-16.68,6.09a21.71,21.71,0,0,1-5.69.05,56.32,56.32,0,0,0,12,10.46c2.18,1.39,4.6,3,7.16,3.61a3.21,3.21,0,0,0,3.14-.7,12.48,12.48,0,0,1,2.4-2.36c2.64-1.49,5,.46,7.25,1.78a8,8,0,0,0,6.8.79,5.82,5.82,0,0,0,3.84-4.78,5.32,5.32,0,0,0-.58-3.3,10,10,0,0,0-2.64-2.55c-1.83-1.51-3.52-4.41-1.72-6.61a3.21,3.21,0,0,1,5.22.19A1.5,1.5,0,0,1,264.73,359.5Zm18.81,37.89a94.78,94.78,0,0,1,17.66-.22,10.36,10.36,0,0,1,4-4.53c-1.87,0-1.83-2.89.06-3a20.34,20.34,0,0,1,4.61.26c-.13-2.63-.27-5.26-.4-7.89a13.93,13.93,0,0,1-9.44-2.23,14.81,14.81,0,0,1-6-14.84L268,364.1a5.16,5.16,0,0,1,.5.54,8.3,8.3,0,0,1,1.31,7c-1.15,4.92-6.09,7.42-10.86,6.7a11,11,0,0,1-3.61-1.21,29.53,29.53,0,0,0-3.32-2c-1.33-.49-1.92.42-2.71,1.34a6.09,6.09,0,0,1-2.86,2c-2.45.7-5-.29-7.19-1.4a55.16,55.16,0,0,1-7.09-4.41,59.52,59.52,0,0,1-12-11.56,1.49,1.49,0,0,1-.3-.64,22.21,22.21,0,0,1-5.6-3,55.61,55.61,0,0,1-11.21-11.66,77,77,0,0,1-8.29-13.88c-.48-1-.93-2.11-1.37-3.18a46,46,0,0,0-27.61,11.41,52.86,52.86,0,0,0-17.28,29.77c-2.57,12.6-1,25.79,3.18,37.86,8.4,24.33,27.51,43.07,47.47,58.45a155.1,155.1,0,0,1,49.88-19.64c-.41-3.51-1.1-7-1.66-10.49q-.41-1.45-.84-2.91l-14-32.38c-2.49-4.65-5.06-9.24-7.62-13.82a1.5,1.5,0,0,1,2.59-1.51c2.22,4,4.45,8,6.61,12a217.46,217.46,0,0,1,12.58,26.76,22.16,22.16,0,0,1,5.52-12C260.08,403.22,271.93,398.76,283.54,397.39Zm27.79,23.75c-.28-1.79-.56-3.57-.85-5.36a10.12,10.12,0,0,1-4.12-1.67,15,15,0,0,1-6-14,96.61,96.61,0,0,0-14,0c-8.33.66-16.91,2.94-24,7.45a79,79,0,0,0,39.24,13.59A76.14,76.14,0,0,0,311.33,421.14Zm-20.61,66.15c0-1.2,0-2.41,0-3.63,0-1.87,0-3.71.08-5.53a95.8,95.8,0,0,0-25,3.7,1.46,1.46,0,0,1-.68,0q-.18,4.49-.37,9A198,198,0,0,1,290.72,487.29ZM315,424.93l.63,4a1.52,1.52,0,0,1-1.05,1.84,1.51,1.51,0,0,1-1.84-1l-.87-5.51c-8.1.63-16.59,20.6-17.95,50.93a99.17,99.17,0,0,1,18.32,2c1.89.39,1.09,3.28-.8,2.9a94.3,94.3,0,0,0-17.63-1.93c-.05,1.81-.08,3.65-.08,5.53,0,1.16,0,2.31,0,3.44q5.42-.28,10.84-.29a1.5,1.5,0,0,1,0,3q-5.39,0-10.76.29c1.07,32,10,53,18.42,53,9,0,18.54-23.89,18.54-59.47C330.75,451.7,323,429.18,315,424.93Zm2.32-28.05a12.81,12.81,0,0,0-4.28-3,1.5,1.5,0,0,1-.19.38,1.21,1.21,0,0,1-1.27.53,1.68,1.68,0,0,1-.69-.18,5.73,5.73,0,0,0-5.57,1.64,8.43,8.43,0,0,0-2,6.72c.33,3.91,2.76,8.2,6.61,9.56a6.25,6.25,0,0,0,1.17.29,1.48,1.48,0,0,1,.31-.15,1.65,1.65,0,0,1,1.27.23,8.51,8.51,0,0,0,6.9-4.85C321.27,404.4,320,399.77,317.27,396.88Zm50.42-23.52a10,10,0,0,1-3.79.91c-3.6.12-6.88-1.79-9.39-4.28a8.43,8.43,0,0,1-8.25,4.19,8.12,8.12,0,0,1-5.47-3.52,7.87,7.87,0,0,1-6.17,2.95c-4.12-.08-7.4-3.32-8.86-7a13.53,13.53,0,0,1-.67-2.31c-2.24.31-4.48.65-6.71,1.06.06,2.17.13,4.35.2,6.52,0,1.22.07,2.43.11,3.64a3,3,0,0,1-.9,2.77,14.29,14.29,0,0,1-5.35,3.06l.48,9.3a15.44,15.44,0,0,1,8.45,6.74,12.62,12.62,0,0,1,.91,1.89c1.69.17,3.38.33,5.07.46,9.59.73,19.51.34,28.25-3.37l10.57-20.16Zm7.61-13.89a5.32,5.32,0,0,0-4.65-3.73c-1.15-.07-2.17-1.69-1.06-2.56,3.77-3,8-6.18,9.76-10.82a11.36,11.36,0,0,0,.77-4.4,38.1,38.1,0,0,1-4.91,2c-5.7,1.87-12.19,2.3-17.9.23a23.83,23.83,0,0,1-12.5-10.44,18.36,18.36,0,0,1-1.23-15.94,29.91,29.91,0,0,1,5.91-9h0c-5-1.44-9.91-3.29-15-3.62-9.73-.63-19.18,2.69-28,6.38s-17.75,7.81-27,10.8a175.67,175.67,0,0,1-23,5.66c.06.36.12.73.21,1.09.88,3.54,2.91,6.64,4.08,10.08a12.08,12.08,0,0,1,.15,7.76A19.92,19.92,0,0,1,276.24,360a1.41,1.41,0,0,1-.88,1.35L296,362a1.51,1.51,0,0,1,1.45,1.9,11.71,11.71,0,0,0,4.39,13.48,11.2,11.2,0,0,0,7.49,1.63h0c-.09-1.66,2.11-1.88,2.79-.7a11.43,11.43,0,0,0,3.6-2.17q-.19-6-.37-12a1.51,1.51,0,0,1,1.1-1.45c2.78-.53,5.57-1,8.37-1.34a32,32,0,0,1,1.8-9.54,74.41,74.41,0,0,1,14.05-25.43c1.25-1.48,3.36.66,2.12,2.13a70.9,70.9,0,0,0-12.6,22.05c-1.37,3.91-2.78,8.21-2.27,12.4.39,3.23,2.39,6.68,5.74,7.5,2.29.56,5.22-1,5.73-3.37a7.22,7.22,0,0,1-.05-1.86c.16-1.57,2.55-2.16,2.94-.4a6.29,6.29,0,0,1,.12,2,5.3,5.3,0,0,0,4.27,4.4,5.43,5.43,0,0,0,5.87-4.46,1.51,1.51,0,0,1,2.51-.66c2,2.52,4.8,5,8.18,5.16,2.83.17,5.78-1.51,6.37-4.39a1.54,1.54,0,0,1,1.44-1.1,4.18,4.18,0,0,0,.7-.16A40.78,40.78,0,0,1,375.3,359.47Zm132.8-91.54c1.09-8.89.09-18.33-4.26-26.27a34.43,34.43,0,0,0-17.74-15.22c-16.23-6.42-33.74-2.21-48.3,6.36a128.17,128.17,0,0,0-19.09,13.93,59.87,59.87,0,0,1,2.57,31,69.09,69.09,0,0,1-7.22,19c-3.25,6.11-6.92,12-10.66,17.85C398,323,391.54,331.18,383,336.37a14.72,14.72,0,0,1-1.3,8.1c-1.69,3.72-4.71,6.57-7.85,9.12a8.53,8.53,0,0,1,3.69,3.54,9.51,9.51,0,0,1,4.62-1.93c3-.38,6,.36,8.85,1a143.13,143.13,0,0,1,35.82,13.17,1.33,1.33,0,0,1,.19.14c7.49.89,15,.61,22.33-2.11,8.83-3.26,14.6-10.38,19.5-18.09,5.46-8.59,10.6-17.4,15.58-26.27s9.86-17.83,14.31-27C503.06,287.2,506.9,277.8,508.1,267.93Zm-248-76.78a1.5,1.5,0,0,0,1.51,2.59,11.52,11.52,0,0,1,9.82-.06,1.54,1.54,0,0,0,2.05-.54,1.51,1.51,0,0,0-.54-2A14.75,14.75,0,0,0,260.11,191.15Zm14.51-20.82q11.2-4.41,22.07-9.6c1.73-.83,3.25,1.76,1.51,2.59-1,.46-1.92.9-2.89,1.34a2,2,0,0,1,.37.34,3.06,3.06,0,0,1,.55.94,2.62,2.62,0,0,1,0,1.52,3,3,0,0,1-.78,1.33,3.06,3.06,0,0,1-1.35.8,2.83,2.83,0,0,1-1.63,0,2.59,2.59,0,0,1-1.47-1.17,2.39,2.39,0,0,1-.26-1.68q-4,1.78-8,3.48a5,5,0,0,1,.33.44,3.3,3.3,0,0,1,.31.69,2.88,2.88,0,0,1,.12.77,2.73,2.73,0,0,1-.35,1.48,2.18,2.18,0,0,1-.22.31,1.27,1.27,0,0,1-.24.28,2.49,2.49,0,0,1-.62.44,3.28,3.28,0,0,1-.52.2,3.83,3.83,0,0,1-.56.09,1.8,1.8,0,0,1-.4,0,2.77,2.77,0,0,1-.76-.15,2.68,2.68,0,0,1-.68-.33,4.82,4.82,0,0,1-.44-.35,3.57,3.57,0,0,1-.34-.43,2.44,2.44,0,0,1-.33-.69s0-.09,0-.13,0,0,0-.05a3.68,3.68,0,0,1-.06-.59c-.85.35-1.69.7-2.54,1C273.62,173.93,272.84,171,274.62,170.33Zm6.26,1.67a.93.93,0,0,0,.05.1l0-.07Zm-7.83-5.54,6.89-2.56a1.53,1.53,0,0,0,1.05-1.85,1.5,1.5,0,0,0-1.84-1l-6.9,2.56a1.53,1.53,0,0,0-1,1.85A1.51,1.51,0,0,0,273.05,166.46Zm16.07-11.38,0,0,.08,0Zm4.34,52.14c-.32,0-.63,0-.95,0l-.29,0-.32,0a11.77,11.77,0,0,1-1.74-.47,12.75,12.75,0,0,1-2.68-1.49A11.84,11.84,0,0,1,286.2,204c-.2-.21-.38-.43-.57-.65s0,0-.15-.2-.18-.25-.26-.38a8.58,8.58,0,0,1-1.36-3.08,1.5,1.5,0,0,0-2.89.8,13.1,13.1,0,0,0,12.49,9.75A1.5,1.5,0,0,0,293.46,207.22Z"/>
    <g id="a135a9b4-29fd-4ccb-be45-97f6e9d04fd4" data-name="boots">
      <path d="M349.35,420.73a30.15,30.15,0,1,1,60.09-2.6" style="fill: #9ed5f0"/>
      <path d="M208.44,502.46C205,493,209.57,481.38,217,475.94s16.88-5.76,25.49-3.83c6.46,1.45,13,4.28,17.37,10s5.88,15,2.07,21.29l-.55-.63a376.35,376.35,0,0,0-51.12-1.95" style="fill: #9ed5f0"/>
    </g>
  </g>
</svg>
