<svg xmlns="http://www.w3.org/2000/svg" width="587.81" height="587.81" viewBox="0 0 587.81 587.81">
  <g id="b6ff4041-3471-48c1-a6cb-a3df8c305067" data-name="search">
    <g id="efbac3a9-a127-411b-868c-de6521eae781" data-name="color background">
      <path d="M126.84,366.05l11.51-37.24c2.54-8.22,5.1-16.68,4.47-25.26-1.79-24.13-28-42.28-26.5-66.43,1-15.89,14.57-28.83,29.71-33.78s31.57-3.46,47.34-1.25,31.76,5.12,47.53,2.85a11.58,11.58,0,0,0,5.61-1.91c2.17-1.67,3-4.5,3.84-7.12a93.94,93.94,0,0,1,56.08-58.7c8.22-3,17-4.9,25.75-4.18,23.25,1.92,41.76,22.2,48.64,44.49,2.16,7,3.43,14.31,6.22,21.1,8,19.45,26.77,31.76,43.48,44.5a340.06,340.06,0,0,1,46.41,42.78c4.44,4.93,8.86,10.22,10.62,16.62,4,14.58-6.94,29-18.67,38.51-19.22,15.64-42.33,25.87-66,33.22A327.56,327.56,0,0,1,215.67,376c-7.46-2.17-15.13-4.63-22.84-3.7s-14.66,5.22-22.12,7.54-16.86,2-21.55-4.21" style="fill: #f4f6f9"/>
    </g>
    <g id="f2aa68dc-d8b0-4463-9009-5390432680c0" data-name="white background">
      <path d="M494.67,350.13H478.33a17.17,17.17,0,0,0-.79-5.58,7.41,7.41,0,0,0-4.76-4.89,6.47,6.47,0,0,0-6.4,2.32l0-.77-.52,1.41a5.88,5.88,0,0,0-.56,1,8.52,8.52,0,0,0-.7,2.86c-.14.54-.27,1.08-.38,1.62a14,14,0,0,0-.71-3.56,7.41,7.41,0,0,0-4.76-4.89,5.91,5.91,0,0,0-4.36.64,186.38,186.38,0,0,0-31.55-31.9l-.4,1.41c1.14-13.79,4.73-61,4.73-61,10-2.53,30.3-7.86,30.3-7.86-11.81-14.63-24.7-31.54-38-48.14-4.41-5.5-10.29-10.43-17.09-12.25L386,179.13l-14.85,36.19a14.22,14.22,0,0,0-17,21.66,14.65,14.65,0,0,0,11.14,5.5l-.08.36c-7.17,17.12-13.75,31.22-21.07,46l-1.29-.09a165,165,0,0,0-100.35,48.07,159.54,159.54,0,0,0-11.66,13.26H112.33A43.33,43.33,0,0,0,69,393.46v5.34a43.33,43.33,0,0,0,43.33,43.33h83.58c-.66,14.33,1.52,29.5,11.5,39.54,7.57,7.61,18.57,11,29.3,11.52s21.39-1.54,32-3.39a847.51,847.51,0,0,1,98.82-11.36c12.83-.72,25.83-1.17,38.11-4.94,11.69-3.59,22.84-10.65,28.77-21.26l.88.18c9.54,1.78,19.27,2.33,29,2.73a20.2,20.2,0,0,0,4-.19l32,4.11a11.33,11.33,0,0,0,5.28-.15c1.68-.59,3.12-2.27,2.81-4s-2.22-2.83-3.92-3.52a66.55,66.55,0,0,0-17.83-4.46c2.46-1.5,4.85-3.09,7.19-4.78h.9A43.33,43.33,0,0,0,538,398.8v-5.34A43.33,43.33,0,0,0,494.67,350.13Z" style="fill: #fff"/>
    </g>
    <path id="e8e60a2f-05d6-4fb0-b1d4-0d52c3f8c572" data-name="loupe" d="M499,365.13a16,16,0,0,0-9.33,29L474,418.37a2.5,2.5,0,0,0,4.21,2.71l15.9-24.7A16,16,0,1,0,499,365.13Zm0,27a10.7,10.7,0,0,1-3.36-.53,2.45,2.45,0,0,0-2.6-1.23,11,11,0,1,1,6,1.76Z" style="fill: #9ed5f0"/>
    <path id="f471b0f1-8fd8-45d4-8c86-7175188a4b80" data-name="man" d="M374.07,231a15.31,15.31,0,0,0-12-5.7,1.5,1.5,0,0,1,0-3,18.17,18.17,0,0,1,14.13,6.57,1.55,1.55,0,0,1,0,2.13A1.52,1.52,0,0,1,374.07,231Zm27.27-18a1.5,1.5,0,0,0,2.05.53,1.54,1.54,0,0,0,.54-2.05c-1-2.17-1.95-4.34-2.92-6.5a1.51,1.51,0,0,0-2.06-.54,1.54,1.54,0,0,0-.53,2Q399.88,209.68,401.34,212.93Zm4.58-10.42a1.52,1.52,0,0,0-.54,2.05c.36.62.7,1.25,1,1.89l.24.52s.07.16.09.22c.13.31.25.63.37.95a23.61,23.61,0,0,1,1.05,4.07,1.51,1.51,0,0,0,1.85,1,1.53,1.53,0,0,0,1-1.84,24.33,24.33,0,0,0-3-8.36A1.51,1.51,0,0,0,405.92,202.51Zm-15.88-1a1.54,1.54,0,0,0,2.06-.54,12,12,0,0,1,.75-1.11,12.39,12.39,0,0,1,2-2,10.17,10.17,0,0,1,.86-.6,1.5,1.5,0,0,0-1.51-2.59,14,14,0,0,0-4.71,4.8A1.52,1.52,0,0,0,390,201.51Zm11.43-8.32a1.82,1.82,0,0,1,1.9-2.2,14,14,0,0,1,1.83.15,33.77,33.77,0,0,1,4,.7,1.5,1.5,0,1,1-.79,2.89c-.95-.23-1.91-.4-2.88-.55h-.12l-.34,0-.69-.07-.66-.05a1.44,1.44,0,0,1-2.27-.82Zm2.88-.06v0a.25.25,0,0,1,0,.07Zm-6.18,77.32c1.93.06,1.93-2.94,0-3a14.85,14.85,0,0,1-12.54-7.89c-.9-1.71-3.49-.19-2.59,1.52A17.88,17.88,0,0,0,398.17,270.45ZM540,394v5.34a44.88,44.88,0,0,1-44.83,44.83h-.45c-1.13.81-2.28,1.6-3.44,2.36q2.91.48,5.78,1.21a66.36,66.36,0,0,1,8.25,2.72c2,.83,4.24,2,4.88,4.24a5.19,5.19,0,0,1-2.92,5.84c-2.64,1.34-5.7.68-8.5.32l-30.25-3.88a54.16,54.16,0,0,1-9.86-.07c-6.11-.32-12.21-.8-18.27-1.67-1.59-.23-3.16-.5-4.74-.8a39.37,39.37,0,0,1-4.75,6.37c-11.37,12.45-28.39,16.82-44.57,18.44-9.52,1-19.11,1.22-28.65,1.87q-14.76,1-29.46,2.52-29.34,3-58.4,8.1c-17.44,3.05-36.17,6.66-52.86-1.36a36.11,36.11,0,0,1-16.26-15.47c-3.59-6.68-5.18-14.24-5.71-21.75a87,87,0,0,1-.15-9h-82A44.88,44.88,0,0,1,68,399.3V394a44.89,44.89,0,0,1,44.83-44.83H230.64a161.32,161.32,0,0,1,23.78-24.25A167.67,167.67,0,0,1,296,299.83a165.42,165.42,0,0,1,47.3-12,1.64,1.64,0,0,1,.39,0c7-14.33,13.75-28.83,20-43.55a15.83,15.83,0,0,1-10.25-5.88,16.24,16.24,0,0,1,1.42-20.71,16,16,0,0,1,12.3-4.4c-6.44-13.67-7-41.3,7.91-48.35,19.37-9.17,31.48,4.62,44.85-14.27,7.67,10.32,1.43,25.13-4.56,28.66a21.62,21.62,0,0,1-6.42,2.52,36.75,36.75,0,0,1,8.34,6.18c3.91,3.81,7.13,8.36,10.5,12.64q5.42,6.84,10.79,13.73c6.79,8.69,13.58,17.39,20.5,26a1.52,1.52,0,0,1-.66,2.51q-14.64,3.84-29.29,7.6l-.36,4.78q-1.1,14.25-2.19,28.49c-.62,8.1-1.24,16.19-1.91,24.28a188.11,188.11,0,0,1,30.71,31l.47-.17a7.25,7.25,0,0,1,7,1.72,8.89,8.89,0,0,1,1.88,2.48c.09-.17.18-.34.28-.5.14-.4.29-.8.44-1.19a1.52,1.52,0,0,1,1.53-1,8.37,8.37,0,0,1,2.83-1.5,7.25,7.25,0,0,1,7,1.72,11.35,11.35,0,0,1,3.27,7.06c.06.51.1,1,.14,1.55h14.89A44.89,44.89,0,0,1,540,394Zm-72.3-50.09c-.37,1-.73,2.08-1,3.16a10.39,10.39,0,0,0,1,5.21,1.6,1.6,0,0,1-1.48,2.27,2.46,2.46,0,0,0,0,.26,8.92,8.92,0,0,0,.62,1.75,6.42,6.42,0,0,0,3.81,3.57,4.77,4.77,0,0,0,4.74-.77,7.37,7.37,0,0,0,1.87-4.84,31,31,0,0,0-.06-6.53c-.44-3.43-3-7.89-7.12-6.05A5.58,5.58,0,0,0,467.7,343.87Zm-11.64-2a5.58,5.58,0,0,0-2.36,2l-.25.72a15.43,15.43,0,0,1,.69,3,31.34,31.34,0,0,1-.05,8.21,14.33,14.33,0,0,1-.48,2.06,6,6,0,0,0,3,2.24,4.77,4.77,0,0,0,4.74-.77,6.86,6.86,0,0,0,1.82-4.41,16.74,16.74,0,0,1,.06-6.19c0-.26,0-.52-.07-.77C462.74,344.52,460.14,340.06,456.06,341.9Zm-29.92,11.6a9.42,9.42,0,0,0,.68,2,6.42,6.42,0,0,0,3.81,3.57,4.77,4.77,0,0,0,4.74-.77,6.44,6.44,0,0,0,1.75-3.86,17.05,17.05,0,0,1,.2-6.08c0-.48-.08-1-.14-1.43-.44-3.43-3-7.89-7.12-6.05a5.58,5.58,0,0,0-2.36,2c-.37,1-.73,2.08-1,3.16a10.39,10.39,0,0,0,1,5.21A1.6,1.6,0,0,1,426.14,353.5Zm14,1a9.42,9.42,0,0,0,.68,2,6.42,6.42,0,0,0,3.81,3.57,4.77,4.77,0,0,0,4.74-.77,4.71,4.71,0,0,0,.91-1.19l-.12-.23c-1.65-3.55-1.44-7.26-.54-10.88a9.83,9.83,0,0,1,.46-2.5c-1.2-2.24-3.27-3.86-6-2.62a5.58,5.58,0,0,0-2.36,2c-.37,1-.73,2.08-1,3.16a10.39,10.39,0,0,0,1,5.21A1.6,1.6,0,0,1,440.14,354.5Zm-95.71-63.64A67.08,67.08,0,0,0,358,301.46c19,11.21,43.35,13.5,63.77,4.86.24-3,.49-6,.72-9.06q1.23-15.61,2.41-31.25.65-8.36,1.28-16.73a1.53,1.53,0,0,1,1.1-1.44c9.38-2.38,18.74-4.83,28.1-7.29q-4.86-6-9.65-12.15c-7-8.85-13.87-17.75-20.86-26.58-6.09-7.7-12.12-16.3-22-19.22-6.52.42-11.87.39-15.45,10.45-2.5,7.11-.95,16.67-10.66,22.66l-2.19,0c.33.21.65.42,1,.66a1.5,1.5,0,0,1-1.82,2.38A12.76,12.76,0,1,0,372.28,240a1.5,1.5,0,0,1,1.48,2.61,15.14,15.14,0,0,1-6.93,1.91q-9.75,23.16-20.91,45.68A1.24,1.24,0,0,1,344.43,290.86ZM195,441.13c.22-3.86.65-7.72,1.17-11.55a162.32,162.32,0,0,1,5.18-24,167.81,167.81,0,0,1,20.48-44.27q3.09-4.69,6.49-9.18H112.83A41.88,41.88,0,0,0,71,394v5.34a41.88,41.88,0,0,0,41.83,41.83Zm238.52,11a23.57,23.57,0,0,1-6.39-3.4c-8.35-6.07-13.2-16.73-11.71-27a22.66,22.66,0,0,1-8,.83,40,40,0,0,1-13-3.14c-7.61-3.13-14.35-7.94-21.71-11.57a45.59,45.59,0,0,0-23.6-4.73c-16.72,1.16-32.12,9.9-46.28,18.17a1.52,1.52,0,0,1-2.2-1.69,11.31,11.31,0,0,0-2.27-9.38,49.12,49.12,0,0,1-20,4.19,1.52,1.52,0,0,1-1.45-1.9c2.46-6.66,10.15-10.87,17.07-8.8A13,13,0,0,1,299,406.6c1-.47,1.92-1,2.85-1.52a47.29,47.29,0,0,0,15.34-14.51c3.5-5.15,6.86-10.38,10.46-15.46a125.08,125.08,0,0,1,12.88-15.87c4.15-4.21,8.92-8.12,14.58-10.05l.11,0v0h.13a1.57,1.57,0,0,1,.53,0h67.19a23.91,23.91,0,0,1,.57-3.11,9.42,9.42,0,0,1,.51-2.66,8.88,8.88,0,0,1,.9-1.86c.14-.4.29-.8.44-1.19a1.52,1.52,0,0,1,1.53-1,8.37,8.37,0,0,1,2.83-1.5,7.25,7.25,0,0,1,7,1.72,9.11,9.11,0,0,1,2.14,3l0,0c.14-.4.29-.8.44-1.19a1.52,1.52,0,0,1,1.53-1,8.37,8.37,0,0,1,2.83-1.5,7.25,7.25,0,0,1,7,1.72,8.2,8.2,0,0,1,.65.67,1.5,1.5,0,0,1,1.1-.86,187.07,187.07,0,0,0-28.64-29c-.89.8-2.63.47-2.51-1,0-.22,0-.44,0-.66A71,71,0,0,1,405,313.93c-23.13,3.06-47.69-5-63.77-22.1a1.56,1.56,0,0,1-.39-.72c-3,.35-6,.76-9,1.29a164,164,0,0,0-84,42.31,161,161,0,0,0-29.18,37.56,165,165,0,0,0-17.12,44.41,154.82,154.82,0,0,0-3.5,23.56,77.07,77.07,0,0,0,1.29,22.12c1.59,7.09,4.69,13.88,9.93,19,5.57,5.48,13,8.56,20.61,10,8.78,1.63,17.85.89,26.62-.42,9.47-1.42,18.88-3.26,28.34-4.73q28.32-4.4,56.89-6.89,14.31-1.24,28.64-2c9.09-.5,18.23-.95,27.18-2.72C411.68,471.79,426.14,465,433.5,452.09ZM293.15,406.6a11.39,11.39,0,0,0-12.38,4.74A46.09,46.09,0,0,0,296,408,10.26,10.26,0,0,0,293.15,406.6Zm173.57,47.56c4.56-.21,7.89-2.61,11.21-5.53,6.42-5.63,13.89-11,17.48-19,2.14-4.81,2.4-10.19,2-15.37a72,72,0,0,0-1.3-8.64c-.19-.89-.74-6-2.42-5.27-.75.33-1.21,1.57-1.45,2.28-.42,1.26-.7,2.58-1,3.87-.69,2.8-1.33,5.62-1.89,8.44s-1.1,5.83-1.55,8.77a4.74,4.74,0,0,1-.63,2.32,13,13,0,0,1-1.17,1.29,38,38,0,0,1-2.79,2.74c-3.77,3.27-8.95,5.43-13.79,3.15a12.88,12.88,0,0,1-5.16-4.85,18.33,18.33,0,0,1-2.73-5.9,6.56,6.56,0,0,1,1.75-6.33c1.83-1.8,4.38-2.89,6.6-4.12q3.84-2.11,7.67-4.24c2.13-1.18,4.57-2.5,5.74-4.74.85-1.62,1-4-.66-5.21-1.95-1.34-5-.7-7.1-.14a52.07,52.07,0,0,0-7.89,3.14c-2.48,1.12-5,2.14-7.54,3.08-5.32,2-10.75,3.58-16.08,5.53a97.85,97.85,0,0,0-15.23,7.16c-3.39,2-6.86,4-10.43,5.76a25.07,25.07,0,0,0,3.33,15.9,26.33,26.33,0,0,0,6.23,7.27,18.79,18.79,0,0,0,8.28,4.13,1.47,1.47,0,0,1,1,2c4.09.72,8.22,1.24,12.33,1.6,3,.27,6,.46,9,.62C461.17,454,464,454.28,466.72,454.16Zm8.18.6.29,0-.18-.09A.39.39,0,0,0,474.9,454.76ZM487.38,449a113,113,0,0,1-10.91,5.83,2.07,2.07,0,0,1-.4.13l3.79.48,16.46,2.12c2.56.32,5.39,1.05,8,.77,1.83-.2,4.31-2,2.29-3.79-1.68-1.44-4.32-2.07-6.38-2.74a66.9,66.9,0,0,0-7.51-2C490.93,449.42,489.16,449.16,487.38,449Zm4.31-6.31a110.66,110.66,0,0,0,13.22-10.73q3.09-2.93,5.95-6.07a45.18,45.18,0,0,0,5.45-6.6c1.73-2.9-1.59-2.65-3.39-2a41.49,41.49,0,0,0-7.67,3.73A47.56,47.56,0,0,0,500,424.6c0,.2-.06.4-.1.6a29,29,0,0,1-5.79,12.2,61.22,61.22,0,0,1-8.33,8.4l.88.07C488.37,444.84,490.05,443.77,491.69,442.64ZM537,394a41.88,41.88,0,0,0-41.83-41.83h-14.8a31.34,31.34,0,0,1-.28,3.66,9,9,0,0,1-3.57,6.42c-3.92,2.63-9,.68-11.51-2.87a7.38,7.38,0,0,1-2.49,2.87c-3.39,2.28-7.64,1.12-10.36-1.54a7.09,7.09,0,0,1-1.64,1.54c-4.09,2.74-9.4.51-11.82-3.34a7.15,7.15,0,0,1-2.18,2.34c-4.42,3-10.29.12-12.36-4.31a13.24,13.24,0,0,1-1.19-4.77H355.76c-6.35,2.22-11.5,7.27-15.89,12.18a157.3,157.3,0,0,0-12.5,16.43c-3.47,5.1-6.65,10.48-10.49,15.32a48.43,48.43,0,0,1-15.83,12.85,14.79,14.79,0,0,1,2.73,8.32,185.6,185.6,0,0,1,22.79-11.5A72.6,72.6,0,0,1,350.33,400a48.31,48.31,0,0,1,23.44,5c7.41,3.59,14.14,8.53,21.8,11.62a37,37,0,0,0,11.83,2.87,23.27,23.27,0,0,0,6-.41,8.58,8.58,0,0,0,3.35-1.35,1.48,1.48,0,0,1,2.19,1c6.29-3.32,12.29-7.33,18.81-10.09,5.34-2.27,10.87-4,16.36-5.86,2.75-.93,5.5-1.89,8.2-3s5.25-2.34,7.9-3.45c4.19-1.77,10.95-4.15,14.84-.49,3.69,3.48,1.43,9.1-1.92,11.82a47.91,47.91,0,0,1-7.2,4.36c-2.69,1.49-5.39,2.95-8.07,4.46-2.12,1.2-4,2.59-3.39,5.28A16.42,16.42,0,0,0,467.6,428a7.78,7.78,0,0,0,6.44,3.2c2.79-.12,5.31-1.7,7.33-3.52,1-.92,2-1.92,2.91-2.93s.73-2.72.93-4c.49-3,1.06-6,1.69-9s1.34-5.94,2.13-8.88c.53-2,1.39-4.25,3.31-5.24a3.91,3.91,0,0,1,5.26,2c1.18,2.39,1.48,5.37,1.93,8a56.3,56.3,0,0,1,1,12.83,48.61,48.61,0,0,1,6.48-3.93c2.46-1.24,5.22-2.7,8-2.81s5.13,1.64,4.8,4.53a8.74,8.74,0,0,1-2.25,4.3c-.94,1.19-1.92,2.36-2.92,3.51q-3.12,3.6-6.55,6.93a113.9,113.9,0,0,1-9.09,7.91,41.87,41.87,0,0,0,38-41.64ZM359.34,320.75a27.14,27.14,0,0,0,28.77,1.12c.87,3.41,4.22,6,7.64,6.77,5.45,1.15,10.64-1.95,15.06-4.73,1.63-1,.12-3.63-1.52-2.59-3.53,2.22-7.72,5-12.12,4.53-3.29-.37-6.69-3-6.23-6.6a1.51,1.51,0,0,0-2.25-1.3,23.91,23.91,0,0,1-37.43-14.11c-.44-1.88-3.33-1.08-2.89.8A27.65,27.65,0,0,0,359.34,320.75ZM120.06,408.28a9.27,9.27,0,0,1-5.63,9.35,7.29,7.29,0,0,1-9.54-4.2,5.93,5.93,0,0,1,1-5.45c-.58-4,3.39-7.65,7.35-7.3S119.67,404.61,120.06,408.28Zm-3.19-.88c-.56-2.07-2.25-4-4.48-3.72a4.72,4.72,0,0,0-2.74,1.51,3.14,3.14,0,0,0-.43.62,5.69,5.69,0,0,1,2.22-.08,1.5,1.5,0,0,1,1,1.84,1.54,1.54,0,0,1-1.84,1.05,3,3,0,0,0-2.81,2,2.92,2.92,0,0,0,.63,3.15,4.52,4.52,0,0,0,6.25.32A6.38,6.38,0,0,0,116.87,407.4Zm22.91,3.72a8.21,8.21,0,0,1-1.29,7.83,6.94,6.94,0,0,1-7.65,2.08,7.76,7.76,0,0,1-5.42-6.4,1.41,1.41,0,0,1,1-1.41,1.49,1.49,0,0,1-.67-1.67,7.83,7.83,0,0,1,7.41-4.93A7,7,0,0,1,139.78,411.12ZM137.25,414c0-.25,0-.51,0-.76a.13.13,0,0,1,0,0,.2.2,0,0,0,0-.07,3.4,3.4,0,0,0-.07-.34c-.06-.27-.17-.52-.23-.78h0s0,0,0-.06-.11-.2-.16-.31l-.24-.39-.13-.18-.14-.15-.29-.29-.22-.19-.18-.11A6.12,6.12,0,0,0,135,410l-.22-.09-.39-.11-.34-.08-.14,0c-.24,0-.48,0-.73,0h-.35l-.22,0-.31.05-.35.08c-.25.06-.49.14-.73.22l-.11.05h0l-.36.19a6,6,0,0,0-.6.36l-.16.11h0l-.26.23a4.68,4.68,0,0,0-.43.46l-.16.2-.18.29c-.07.12-.12.25-.19.37h0a.64.64,0,0,0,0,.07,1.64,1.64,0,0,1-1,1,1.84,1.84,0,0,1,.71,1.28c0-.36,0,.11.05.2a4.12,4.12,0,0,0,.13.47l.06.18c.06.11.11.23.17.34s.16.28.25.41l.18.24.07.08.16.18.3.3c.1.1.22.18.32.28h0l0,0,.15.1a6.73,6.73,0,0,0,.73.44,3.29,3.29,0,0,1,.33.16l.27.1c.29.09.59.16.89.23l.11,0h0l.42,0c.24,0,.48,0,.72,0l.2,0,.35-.09.34-.11.12,0,0,0c.23-.13.45-.25.66-.39l.09-.06,0,0,.26-.23.28-.29c.06-.08.27-.39.08-.1.13-.2.27-.39.38-.59s.14-.27.21-.41,0,0,0,0v0c.08-.23.16-.44.22-.67a5.9,5.9,0,0,0,.15-.73s0-.09,0-.15S137.25,414.11,137.25,414Zm23.67-6.57a8.24,8.24,0,0,1,.6,8.44,6.17,6.17,0,0,1-3.59,3,7,7,0,0,1-5-.49,8.06,8.06,0,0,1-2.55-1.86,1.51,1.51,0,0,1-1.26-.73,6.65,6.65,0,0,1-.75-4.16,6.28,6.28,0,0,1,.22-1.59,1.39,1.39,0,0,1,.53-.79,8.58,8.58,0,0,1,3.14-3.51,6.67,6.67,0,0,1,5-.86A6.49,6.49,0,0,1,160.92,407.4Zm-4.37,8.65h0C156.71,416,156.66,416,156.55,416.05Zm.78-.21c-.14.05-.06,0,0,0Zm2.08-3.41a7.86,7.86,0,0,0,0-.84s0-.09,0-.14,0-.24-.07-.36a6.46,6.46,0,0,0-.24-.86L159,410c0-.07-.09-.18-.1-.22-.13-.24-.28-.47-.43-.71l0-.06,0,0-.26-.28c-.1-.11-.21-.2-.31-.3l-.07-.06h0a7.06,7.06,0,0,0-.65-.4l-.15-.06-.06,0-.38-.11-.32-.06-.31,0c-.16,0-.33,0-.5,0h-.16c-.29.08-.56.15-.84.25h0l0,0-.17.08c-.13.07-.26.14-.38.22l-.36.24-.17.13a7.28,7.28,0,0,0-.73.74l-.13.15h0c-.09.13-.18.25-.26.38a7.17,7.17,0,0,0-.47.86h0l-.06.17c-.05.14-.1.28-.14.42l-.09.41c0,.12,0,.24,0,.37,0-.32,0,.08.05.21a4.34,4.34,0,0,0,.14.48,1.6,1.6,0,0,0,.07.19v0a9.48,9.48,0,0,0,.55.93v0l.16.18c.11.13.23.26.35.38l.39.35.11.09.15.11a6.84,6.84,0,0,0,.9.53l.2.09h0l.49.17.55.13.12,0h.05c.29,0,.57,0,.87,0l.22,0,.43-.12.14-.05,0,0c.13-.07.27-.13.4-.21l.26-.18.19-.16.27-.27.12-.16c.14-.22.28-.43.4-.66a1.17,1.17,0,0,1,.05-.11,3.4,3.4,0,0,1,.12-.34c.08-.27.11-.55.19-.81h0s0-.07,0-.1Zm-4.07-4.77h0Z"/>
  </g>
</svg>
