<svg xmlns="http://www.w3.org/2000/svg" width="587.81" height="587.81" viewBox="0 0 587.81 587.81">
  <g id="b56ee8d2-dceb-47db-a70b-02346bb8862c" data-name="service">
    <g id="bf0fa823-d68e-4b89-af38-32e62d4f204e" data-name="color background">
      <path d="M243.63,459.82c-.8-19.43-22.81-30.74-42.14-32.88s-40.14.37-57.08-9.18c-15.23-8.6-24.06-25.41-28.71-42.27s-5.93-34.5-10.58-51.36c-7.1-25.74-22-49.85-22.18-76.55-.21-32.44,24.67-63.3,56.41-70,17.74-3.73,36.52-.62,54-5.43,38.23-10.54,57.91-54.45,93.88-71.14,23.13-10.73,50.12-8.8,75.07-3.54,11.75,2.48,23.54,5.72,33.82,11.94a65.57,65.57,0,0,1,30,43c7.8,40.21-22.74,77.64-27.93,118.27a98.12,98.12,0,0,0,10.31,57.46c7.38,14.1,18.11,26.21,25.66,40.22s11.63,31.4,4.7,45.72c-3.84,7.93-10.68,14.06-18.18,18.67-24.52,15.07-55.1,14.95-83.88,14.37" style="fill: #f4f6f9"/>
    </g>
    <g id="aff1290f-6733-489e-abb4-c68798eb0e4b" data-name="window 3">
      <path id="a64d3284-55a3-4499-8eb3-8fbbac5ad3e5" data-name="white background" d="M344.23,300.6c-.05,7.13.11,14.87,4.56,20.43,6.09,7.6,17.36,7.89,27.1,7.48,24.57-1,49.16-2.08,73.71-3.63,11.76-.74,14.89,6.44,21.26,15.91a183.27,183.27,0,0,1,16.55,30.44c2.09-25,9-51.64,7.64-76.67l-6.73-126.21c-.29-5.36-.71-11.1-4-15.33-5.37-6.86-15.6-6.76-24.28-6l-59,5c-14.56,1.23-36.33-.63-48.05,9.82-5.51,4.92-8.25,12.35-8.95,19.7-.86,9.19,1.15,18.32.86,27.49-.31,10.16-.14,20.36-.21,30.53Z" style="fill: #fff"/>
      <path id="b81754d7-4247-4ce6-8876-d43dbdf60b93" data-name="contour" d="M496.61,295.93c-.37-8.94-.94-17.88-1.42-26.81q-1.44-26.94-2.87-53.88l-1.44-26.93-.72-13.47c-.21-4.05-.28-8.15-.81-12.18a21.55,21.55,0,0,0-3.51-10.08,16.62,16.62,0,0,0-7.37-5.58c-6.11-2.44-13-2-19.45-1.41l-53.56,4.55c-6.53.55-13,.79-19.58,1.09a100.44,100.44,0,0,0-19.18,2.31c-5.93,1.46-11.81,4-16.09,8.47-5,5.2-7.39,12.29-8.09,19.33-.86,8.68.89,17.33.87,26,0,8.85-.21,17.71-.22,26.56,0,17.85-.23,35.7-.35,53.55l-.09,13.15c0,5.78,0,11.81,2.39,17.19a19.29,19.29,0,0,0,11.54,10.36c5,1.79,10.51,2.05,15.79,2,7-.11,13.92-.54,20.87-.84,14.62-.64,29.23-1.32,43.83-2.15l11-.66a22.32,22.32,0,0,1,7.73.46c4.05,1.17,6.82,4.36,9.15,7.7A209,209,0,0,1,486.11,372c.65,1.51,2.69.54,2.8-.76,1.43-16.86,4.8-33.48,6.63-50.29A165.94,165.94,0,0,0,496.61,295.93Zm-3.15,14c-.94,16.57-4.13,32.89-6.26,49.32-.26,2.06-.51,4.12-.73,6.18q-3.12-6.75-6.78-13.24c-3.12-5.53-6.63-10.79-10.1-16.1-2.36-3.61-4.8-7.36-8.37-9.9-4.23-3-9.15-3-14.11-2.69-14.44.89-28.88,1.62-43.33,2.27q-10.95.49-21.92.95c-5.87.25-11.81.7-17.67,0-5.6-.65-11.47-2.62-14.81-7.45-3.73-5.41-3.69-12.42-3.65-18.73l.36-52.35c.06-8.73.05-17.45.08-26.17q0-6.53.19-13.05a116.49,116.49,0,0,0-.55-12.53c-.63-7.88-1.13-15.91,1.58-23.48A24.26,24.26,0,0,1,360,159c5.5-2.64,11.73-3.67,17.75-4.25,6.22-.6,12.47-.67,18.71-1,7.9-.39,15.79-1.25,23.66-1.92l26-2.21,13.14-1.11a75.07,75.07,0,0,1,9.83-.36c6.16.29,12.56,2.16,15.48,8.09,1.58,3.21,1.92,6.92,2.15,10.43.27,4.28.46,8.57.69,12.85L488.83,206q1.4,26.31,2.8,52.62.71,13.1,1.4,26.19A226.8,226.8,0,0,1,493.46,310ZM463.12,244.7c-7.31-1.28-14.83-2.64-21.29-6.51-5.65-3.4-10.07-8.58-11.47-15.13-1.35-6.34-.25-12.82.07-19.21a50.9,50.9,0,0,0,0-5.24,9.26,9.26,0,0,0-.85-4c-1.29-2.38-4.46-2.54-6.72-1.63-4.82,1.93-6.94,7.67-7.12,12.48-.26,6.57,1.93,12.93,2.26,19.46.24,4.74-.31,10.53-4.21,13.8-4.43,3.74-10.47,2.69-15.76,2.09-6.21-.71-13.33-.58-18.18,3.94-3.57,3.33-4.81,9.15-1.43,12.9h0a16.36,16.36,0,0,0,13.2,2.34c1.87-.48,2.66,2.42.79,2.9a19.49,19.49,0,0,1-13.8-1.63c-2.93,3.19-2.32,8.6,2,10.41a1.94,1.94,0,0,1,.92.8,32.33,32.33,0,0,0,13.52,1.08,1.51,1.51,0,0,1,1.5,1.5,1.54,1.54,0,0,1-1.5,1.5,34.33,34.33,0,0,1-14.32-1.18,7.78,7.78,0,0,0,3.19,9.66,1.36,1.36,0,0,1,1,0,33,33,0,0,0,16.29,1c1.89-.37,2.69,2.52.8,2.89a36.29,36.29,0,0,1-15.25-.29c-1.62,1.78-.18,4.35,1.47,5.55,2.31,1.67,5.41,2.43,8.15,3,11.09,2.14,21.34-2.9,32-5.11a67.39,67.39,0,0,1,32.54,1.35c1.86.55,1.06,3.44-.79,2.9a64.39,64.39,0,0,0-20.28-2.61,71.3,71.3,0,0,0-17.33,2.94c-5.68,1.62-11.33,3.45-17.24,4a33.08,33.08,0,0,1-16.8-2.81,9.21,9.21,0,0,1-5-5.15,6.37,6.37,0,0,1,.12-4.39,10.88,10.88,0,0,1-5.56-14,1.43,1.43,0,0,1-.37-.89,9.19,9.19,0,0,1-3.73-5.8,9.58,9.58,0,0,1,2.2-7.93c-4-4.41-3.21-11.48.59-15.87,4.91-5.69,12.91-6.69,20-6,5,.46,12.42,2.53,16.12-2.19,3.14-4,2.47-10.31,1.76-15-1-6.7-2.95-13.67-.94-20.39,1.51-5.06,5.3-10,10.88-10.55a7.78,7.78,0,0,1,7.28,2.92c1.84,2.56,1.77,6.18,1.72,9.2-.11,6.61-1.6,13.4-.38,20,1.17,6.3,5.25,11.1,10.72,14.25,6.11,3.52,13.22,4.71,20.07,5.91C465.82,242.14,465,245,463.12,244.7ZM386.75,165c-1-1.64,1.56-3.14,2.59-1.51A68.57,68.57,0,0,0,402.86,179a1.52,1.52,0,0,1,0,2.13,1.55,1.55,0,0,1-2.12,0A71.38,71.38,0,0,1,386.75,165ZM443,184l12.4-16.5a1.53,1.53,0,0,1,2.05-.53A1.5,1.5,0,0,1,458,169l-12.4,16.5a1.54,1.54,0,0,1-2.05.53A1.51,1.51,0,0,1,443,184Zm-19.71-7.29V162a1.5,1.5,0,0,1,3,0v14.68A1.5,1.5,0,0,1,423.28,176.66Z"/>
    </g>
    <g id="b00b520a-95ff-4352-adbf-36087a318b8d" data-name="window 2">
      <path id="b7e6fca2-dce7-4b62-b136-47edf825ff67" data-name="white background" d="M241,314.74A944.8,944.8,0,0,1,369,308.28c5.89.1,12.28.44,16.81,4.21,6.43,5.35,6.39,15.06,5.81,23.4L381.73,477.7c-.38,5.46-.94,11.35-4.54,15.47-2.81,3.2-7,4.77-11.07,6.05-26.35,8.27-57.12,10.64-84.41,6-11.26-1.93-16.1-.42-24.92,7.6a108.83,108.83,0,0,0-22.66,29c-.87,1.61-2.8,3.5-4.16,2.26a3,3,0,0,1-.72-1.93c-4.26-34.57-8.23-67.91-7.92-102.67.32-36.43,5-72.65,9.61-108.73.48-3.73,1-7.61,3.1-10.74s4.64-5.13,9-5.13" style="fill: #fff"/>
      <path id="ea0ae4de-87bf-4e79-a5cc-8f9c238481a2" data-name="contour" d="M393.35,327.43c-.22-4.62-1.12-9.5-3.93-13.3-3.09-4.17-7.79-6.15-12.82-6.86-5.91-.82-12-.58-18-.62q-9.92-.06-19.82.08-39.39.57-78.63,4.42-9.62.94-19.21,2.09a1.5,1.5,0,0,0-.95.48,12.68,12.68,0,0,0-8.12,6.9,25.72,25.72,0,0,0-2.19,8c-.45,3.14-.82,6.28-1.22,9.42-1.66,13-3.29,26-4.68,39-2.78,26.09-4.55,52.32-3.84,78.57.7,25.83,3.51,51.52,6.63,77.15.39,3.22.74,6.45,1.19,9.66.34,2.44,2.28,4.32,4.78,3.05,2.29-1.16,3.3-3.89,4.52-6,1.43-2.48,3-4.9,4.6-7.25a107.22,107.22,0,0,1,10.91-13.32c3.55-3.68,7.34-7.47,11.71-10.17a19,19,0,0,1,10.87-2.82c5.36.18,10.69,1.49,16,2.08a183.18,183.18,0,0,0,35.74.32,188.22,188.22,0,0,0,34.78-6.25c5.08-1.43,10.62-2.82,14.79-6.22s5.68-8.65,6.31-13.83c.15-1.21.26-2.44.37-3.66a1.17,1.17,0,0,0,.1-.95c.4-4.71.6-9.45.93-14.16l1.39-19.9q1.38-19.65,2.75-39.31l2.79-39.8,1.4-19.91C393,338.74,393.62,333.06,393.35,327.43ZM380.11,479.27c-.4,5-1.18,10.44-5.1,14s-9.76,4.77-14.7,6.14c-1,.27-1.95.52-2.93.78a1.42,1.42,0,0,0-.41-.56c-5.7-4.82-6-13.91-2.84-20.24,3.27-6.59,10.92-10.91,18.22-8.56a13,13,0,0,1,7.87,7C380.18,478.26,380.15,478.76,380.11,479.27Zm.47-6.41A16.67,16.67,0,0,0,362.77,468c-8.68,2.88-13.85,11.61-13.6,20.56A18,18,0,0,0,354.08,501q-5,1.18-10,2.1c-.05,0-.08-.09-.14-.11-.4-.21-.79-.44-1.17-.68l-.51-.35-.12-.1a.7.7,0,0,1-.15-.12,14.13,14.13,0,0,1-1.87-1.84l-.19-.23,0,0c-.13-.18-.27-.36-.39-.54a12.48,12.48,0,0,1-.69-1.09c-.22-.37-.42-.75-.61-1.13-.09-.19-.18-.37-.26-.56,0,0-.09-.21-.1-.22l-.09-.21a1.74,1.74,0,0,0-1.11-1.07,1.58,1.58,0,0,0-1.67-.71l-6.53.92-1.55.22-.79.11a1.53,1.53,0,0,0-.33,0,1.38,1.38,0,0,1,0-.26,6.2,6.2,0,0,1,0-1.14c.21-3.72.44-7.45.66-11.17a21.84,21.84,0,0,0,9.05,1.13,1.47,1.47,0,0,0,1.3-2.21,32.52,32.52,0,0,1,6.4-14.08,1.54,1.54,0,0,0,0-2.12,1.63,1.63,0,0,0-1.26-.43l-6.34-4,13.06-9.53a14.14,14.14,0,0,0,2.77,7.23.25.25,0,0,1,0,.08,1.51,1.51,0,0,0,1.85,1.05,24.53,24.53,0,0,1,10.92-1.67,1.52,1.52,0,0,0,1.5-1.5,1.42,1.42,0,0,0-.51-1.1,47.59,47.59,0,0,1,3.47-8.84,6.71,6.71,0,0,0,2.17,1.18,19.82,19.82,0,0,0,2.66.51,4.13,4.13,0,0,1,2.32.89c1.24,1.34-.28,3.68-1,4.91-1.12,2-2.19,4.37-1.28,6.65a1.57,1.57,0,0,0,1.75,1.07,2.61,2.61,0,0,0,.24.22l.61.45a20.25,20.25,0,0,1,3.4,3.4l.24.32a1.62,1.62,0,0,0,.89.69,1.86,1.86,0,0,0,.33,0C380.86,469,380.71,470.94,380.58,472.86ZM325.82,495.5a.39.39,0,0,1,0-.09C325.91,495.46,325.79,495.47,325.82,495.5ZM389.5,345.35q-1.35,19.15-2.69,38.31l-5.4,77.12-.18,2.65A22.23,22.23,0,0,0,377,459.6a1.32,1.32,0,0,0-.79-.2c-.23-1.71,1.06-3.34,1.81-4.81,1-1.92,1.66-4.23.64-6.28-.95-1.88-3-2.53-4.92-2.83-1-.15-3.65-.35-3.71-1.74a1.52,1.52,0,0,0-2.8-.76,50.2,50.2,0,0,0-5.06,12.07s0,.06,0,.09a26.51,26.51,0,0,0-8.69,1.46,11,11,0,0,1-1.9-7.65c.15-1.11-1-2.56-2.21-1.69l-17.23,12.57a1.52,1.52,0,0,0,0,2.59l7.58,4.83A35.59,35.59,0,0,0,333.84,481a19.27,19.27,0,0,1-8.06-1.62,1.52,1.52,0,0,0-2.26,1.29l-.45,7.75-.24,4a16,16,0,0,0,0,3.32,3.11,3.11,0,0,0,1.54,2.32c1.12.6,2.48.2,3.66,0l7.05-1a17.92,17.92,0,0,0,4.77,6.73A189.48,189.48,0,0,1,309,506.05c-5.64-.05-11.27-.35-16.88-.94-5.31-.56-10.58-1.78-15.91-2.12a22.31,22.31,0,0,0-11.25,2c-4.19,2-7.75,5.3-11.09,8.47a110.54,110.54,0,0,0-20.29,26.2,8.6,8.6,0,0,1-2,2.91c-.24.18-.42.34-.63.24s-.34-2-.37-2.21l-1.14-9.31c-.76-6.32-1.51-12.64-2.21-19-1.37-12.39-2.55-24.81-3.34-37.25-.54-8.36-.82-16.71-.93-25.06,10.79-1,20.38,4.49,29.11,10.48q-8.56,11.31-17.83,22.06a1.55,1.55,0,0,0-1.1,2.67,1.59,1.59,0,0,0,1.37,1l15,10.14c1.3.87,2.52-.65,2.11-1.84L269.36,472c1.56.85,3.16,1.65,4.81,2.35,5.56,2.37,12.48,4.38,18.23,1.44a9.88,9.88,0,0,0,5.14-10.28A11.84,11.84,0,0,0,308,462.06a12,12,0,0,0,2-12.85c4.12-1.13,8.54-2.8,10.65-6.68a9.12,9.12,0,0,0,.14-8.77,9.63,9.63,0,0,0,5.09-4.73,12.27,12.27,0,0,0,.29-10.15,18.78,18.78,0,0,0-1.5-3.05,12.11,12.11,0,0,0,.76-14.79l2.49-3.65,14.44-.29a1.49,1.49,0,0,0,2-.12l11.53-14a1.56,1.56,0,0,0,.07-2q.85-7.56,1.72-15.13a1.51,1.51,0,0,0,.07-.38l.06-.74s0-.07,0-.1c1-1.31-.95-3.16-2.3-1.92-2.61,2.38-5.18,4.82-7.72,7.28a60.09,60.09,0,0,0,.29-14.12,1.54,1.54,0,0,0-1.5-1.5,1.56,1.56,0,0,0-.82.26,105.61,105.61,0,0,0-14.12,0l4.54-6.76a1.35,1.35,0,0,0,.23-.55,1.51,1.51,0,0,0-1.27-2.67,160.19,160.19,0,0,1-19.64,3.92,1.57,1.57,0,0,0-1.49,1.35l-8.64,15.83a1.44,1.44,0,0,0-.13,1.13,1.88,1.88,0,0,0,0,.71,55.49,55.49,0,0,0,6.11,16.68c-1.26,1.89-2.51,3.78-3.77,5.66a1.61,1.61,0,0,0-.38-.08,126.15,126.15,0,0,0-52.06,5.48c-1.83.6-1,3.49.8,2.9A124,124,0,0,1,305,392.6a15.7,15.7,0,0,1-3.84,5.16,58.77,58.77,0,0,0-12.79-1.86c-1.93-.06-1.92,2.94,0,3a56,56,0,0,1,12.22,1.84l.07.05c5.07,3.18,10.46,5.9,15.13,9.67,4.14,3.34,9.29,8.79,8.27,14.65-.49,2.78-2.39,5.59-5.23,6.07a38.56,38.56,0,0,0-16.67-9.11c-1.87-.48-2.67,2.41-.8,2.89a35.71,35.71,0,0,1,14.94,8A1.41,1.41,0,0,0,317,434c2.64,1.6,2.21,5.55.6,7.74-2.31,3.13-6.69,4.12-10.24,5h0A71.17,71.17,0,0,0,291.74,437a1.54,1.54,0,0,0-2.05.54,1.51,1.51,0,0,0,.54,2.05,69.23,69.23,0,0,1,16.57,10.68,1.47,1.47,0,0,0,.49.29,8.85,8.85,0,0,1-1.41,9.4,9,9,0,0,1-8.74,2.45.41.41,0,0,0-.07-.11A36.45,36.45,0,0,0,281,451.81c-1.84-.59-2.63,2.31-.8,2.9a33.22,33.22,0,0,1,13,7.85,1.42,1.42,0,0,0,.35,1.49,5.1,5.1,0,0,1,.68,5.57,7.32,7.32,0,0,1-5.21,4.26c-5.57,1.43-11.88-1.23-16.75-3.73-10.78-5.53-19.61-14.2-30.64-19.29-5.86-2.71-12.23-4.42-18.7-3.84-.1-16,.55-32.06,1.84-48.08,1-12.64,2.38-25.26,3.88-37.86q1.14-9.57,2.37-19.13.58-4.67,1.19-9.31a49.29,49.29,0,0,1,1.48-8.36c1.36-4.39,4.52-7.9,9.32-8a1.38,1.38,0,0,0,1-.41q36.64-4.23,73.52-5.62,19.07-.7,38.14-.64c6,0,12.14-.13,18.16.33,4.85.37,9.93,1.63,13,5.69,2.77,3.64,3.44,8.44,3.55,12.88C390.53,334.14,389.89,339.77,389.5,345.35Zm-135,116.87,3.28,2.32c2.92,2.07,5.88,4.11,8.95,6q-8.73,11-17.44,22.1l-12.5-8.45Q246,473.47,254.52,462.22Zm59.38-79.48a53,53,0,0,1-5.79-15.86l8.47-15.53q7.85-1.1,15.55-2.93l-13.45,20A1.45,1.45,0,0,0,318,370a1.52,1.52,0,0,0,1.16,1.26,97.63,97.63,0,0,0,18.16,11.93,3.22,3.22,0,0,0,2.34-.82q7.2-7.5,14.8-14.59-.78,6.83-1.55,13.65a1.12,1.12,0,0,0,.05.45q-5,6.12-10.09,12.25l-15.12.29a1.56,1.56,0,0,0-.44.07,1.48,1.48,0,0,0-1.43.66l-8.62,12.66c-1.73-1.35-3.54-2.59-5.35-3.74-2.39-1.51-4.84-2.92-7.27-4.37l1.08-1.62,8.83-13.28A1.34,1.34,0,0,0,313.9,382.74Zm14.37-10.39q.12-5.93.22-11.85a1.37,1.37,0,0,0-.27-.89l1.39-2.07a1.19,1.19,0,0,0,.62.12,106.57,106.57,0,0,1,14.95-.08,56.81,56.81,0,0,1-.89,15,.49.49,0,0,0,0,.12h0A102.63,102.63,0,0,1,328.27,372.35Zm13.56,3.45q-2.07,2.08-4.11,4.2-4-2.07-7.74-4.5A101.88,101.88,0,0,0,341.83,375.8Zm-16.4-12-.15,8.49c-1.24-.91-2.46-1.86-3.65-2.83C322.9,367.53,324.16,365.64,325.43,363.76Zm-5.85,45.89,4-5.93a9.12,9.12,0,0,1-.71,9.52,31.16,31.16,0,0,0-3.37-3.53Zm-51-47.74a1.5,1.5,0,0,1-.53,2,1.54,1.54,0,0,1-2.06-.54q-4.53-6.59-9.07-13.18l-11.79,7.63,6.17,12.33a2.13,2.13,0,0,1,.08.27l12.28-7.34a1.5,1.5,0,0,1,1.51,2.6l-13,7.74a1.47,1.47,0,0,1-2.19-1,1.42,1.42,0,0,1-1.31-.73l-6.21-12.41a1.55,1.55,0,0,1-.73-2.83l.1-.06a1.43,1.43,0,0,1,.5-.51,1.37,1.37,0,0,1,.56-.18l12.62-8.16a1.28,1.28,0,0,1,1.47,0,1.55,1.55,0,0,1,2.05.54Zm70.53,1.42a2.47,2.47,0,0,1-1.66,3.68,1.57,1.57,0,0,1-.29.08,2.55,2.55,0,0,1-1.1,0,2.08,2.08,0,0,1-.65-.27,2.6,2.6,0,0,1-1.16-2.83,2.55,2.55,0,0,1,.73-1.22,3.09,3.09,0,0,1,.63-.44,2.68,2.68,0,0,1,.67-.24,2.82,2.82,0,0,1,1.12,0,2.76,2.76,0,0,1,.66.24A2.7,2.7,0,0,1,339.1,363.33Zm-86.89-3.25a1,1,0,0,1,0-.35,1.54,1.54,0,0,1-.08-.19,2.38,2.38,0,0,1,.54-2.37,2.47,2.47,0,0,1,1-.63l.24-.07a4.22,4.22,0,0,1,.61-.07,4.52,4.52,0,0,1,.63.08.9.9,0,0,1,.22.06,2.8,2.8,0,0,1,1,.61,2.38,2.38,0,0,1,.63,1,1.51,1.51,0,0,1,0,.79,1.39,1.39,0,0,1-.39.66l-.26.21a1.41,1.41,0,0,1,0,.28,1.22,1.22,0,0,1-.17.55,1.55,1.55,0,0,1-.9.69,2.37,2.37,0,0,1-1,.07.93.93,0,0,1-.2.08l-.39.06a1.54,1.54,0,0,1-1.06-.44,1.11,1.11,0,0,1-.31-.49A1,1,0,0,1,252.21,360.08Z"/>
    </g>
    <g id="f6c72b47-2468-4838-a858-b43c64bdea5e" data-name="window 1">
      <path id="b1a2ac73-21be-449e-b5ca-9a5c54da77c7" data-name="white background" d="M303.31,97.28c-1.41-21.12-27.25-17.74-43-18.88a575.75,575.75,0,0,0-69.88-.81c-27.24,1.35-68.63-.41-90.71,18.21-10.45,8.8-15,23-15.43,36.68s2.55,27.15,4.68,40.65a313.38,313.38,0,0,1-.15,98.29c-1.71,10.6-3.63,22.61,2.93,31.1,4,5.11,10.25,7.79,16.41,9.71,26.32,8.21,54.57,6.38,82.07,4.48,16.71-1.16,34.22-4,50.91-3.81,13.65.17,25.62,10.67,34.17,21s14.84,22.33,21,34.24c-2.87-5.5,3.43-25.82,4.27-32.3q2.2-17.16,4.33-34.33c2.6-21.05,4.72-40.84,3.87-61.76C306.88,192.22,306.47,144.82,303.31,97.28Z" style="fill: #fff"/>
      <path id="a397da76-fed9-47ef-878b-136a0b6e9c39" data-name="contour" d="M199.21,258.49c-.82-1.74,1.77-3.26,2.59-1.51,3.64,7.73,12.73,10.49,20.63,8.54,9-2.23,15.72-9.18,20.84-16.58,1.09-1.58,3.69-.08,2.59,1.51a58,58,0,0,1-8.74,10.27c-5.8,5.2-13.44,8.95-21.39,8.4-6.84-.48-13.54-4.3-16.52-10.63ZM94,204l25.39,5.55c1.88.41,2.69-2.48.8-2.89l-25.4-5.55c-1.88-.41-2.68,2.48-.79,2.89Zm129.37-48.85a1.54,1.54,0,0,1,.44,1.07,1.63,1.63,0,0,1-.44,1.06l-4,4.89a1.52,1.52,0,0,1-2.12,0,1.54,1.54,0,0,1-.44-1.07,1.63,1.63,0,0,1,.44-1.06l4-4.89A1.52,1.52,0,0,1,223.36,155.13Zm-11.62,5.37a1.51,1.51,0,0,0,2-.53,21.11,21.11,0,0,1,1.82-3.25l.53-.72.13-.17.27-.33c.41-.48.85-.95,1.3-1.4a1.51,1.51,0,0,0,0-2.12,1.53,1.53,0,0,0-2.12,0,21.45,21.45,0,0,0-4.52,6.47,1.61,1.61,0,0,0-.15,1.16A1.53,1.53,0,0,0,211.74,160.5Zm16.3-9.8a9.9,9.9,0,0,1,1.65,3.26,1.5,1.5,0,1,0,2.89-.8,12.72,12.72,0,0,0-3-5.24,1.52,1.52,0,0,0-2.12,0,1.54,1.54,0,0,0,0,2.12C227.67,150.25,227.85,150.47,228,150.7Zm-10.72-5.62a26.36,26.36,0,0,1,2.81.21l.85.13.39.08a1.74,1.74,0,0,0,.34.28,1.52,1.52,0,0,0,2.06-.54,1.69,1.69,0,0,0,0-1.71,2,2,0,0,0-1.23-.86c-.54-.12-1.08-.2-1.62-.28a30.34,30.34,0,0,0-3.57-.31,1.5,1.5,0,0,0,0,3ZM194.46,193.3a3.66,3.66,0,0,0,.21.55,2.79,2.79,0,0,0,.45.63,2.62,2.62,0,0,0,.6.5,2.7,2.7,0,0,0,.71.33,2.67,2.67,0,0,0,.79.13h.2a3.94,3.94,0,0,0,.6-.09,2.58,2.58,0,0,0,.7-.31,3,3,0,0,0,.8-.79,2.92,2.92,0,0,0,.33-.69,3.2,3.2,0,0,0,.15-.76,3.5,3.5,0,0,0-.16-1.17,3,3,0,0,0-.23-.52,4.83,4.83,0,0,0-.34-.45,2.12,2.12,0,0,0-.6-.47,3.32,3.32,0,0,0-.51-.23l-.2-.06a3.25,3.25,0,0,0-.77-.08,3,3,0,0,0-1.57.51,3.74,3.74,0,0,0-.45.36,4.14,4.14,0,0,0-.37.46l-.12.2a3.83,3.83,0,0,0-.22.56,2.09,2.09,0,0,0,0,.43,1.23,1.23,0,0,0,0,.38A2.89,2.89,0,0,0,194.46,193.3Zm116,59.17c-.12,9.49-.77,19-1.7,28.41-.95,9.67-2.16,19.3-3.37,28.93q-.9,7.29-1.84,14.59c-.54,4.26-.95,8.57-1.67,12.81-.9,5.34-2.39,10.59-3.44,15.9a70.86,70.86,0,0,0-1.28,8.57c-.13,1.78-.32,4.13.46,5.7.85,1.72-1.7,3.23-2.59,1.51-2.71-5.18-5.42-10.37-8.33-15.44-5.71-10-12.31-19.53-20.82-27.32A50.11,50.11,0,0,0,252.48,317a31.6,31.6,0,0,0-7.45-2.26,47.33,47.33,0,0,0-8.83-.32c-12.64.26-25.19,1.93-37.76,3.11s-25.13,2-37.7,2.23a195.11,195.11,0,0,1-36.94-2.27A117.34,117.34,0,0,1,106,313.11c-4.87-1.65-9.75-3.84-13.48-7.48-7.84-7.65-7.39-19.12-6-29.14.83-6,1.87-11.92,2.58-17.92q1.14-9.66,1.68-19.38a314.8,314.8,0,0,0-.23-38.61c-.88-12.92-2.79-25.66-5-38.43-3.61-21.36-6.22-46.56,9.55-64,6-6.63,14.27-10.94,22.6-13.86a126.55,126.55,0,0,1,27.71-5.82c9.56-1.07,19.18-1.47,28.79-1.78,10.21-.32,20.41-.85,30.61-1.1q19.93-.48,39.87.42c5.85.27,11.68.74,17.53,1,3.55.17,7.1.2,10.65.32C280,77.59,287.43,78,294,81c6.68,3,10.31,9,10.85,16.26l.48,7.54c1.19,19.67,1.95,39.37,2.58,59.07s1.14,39.57,1.82,59.35C310,233,310.6,242.72,310.48,252.47Zm-3-6.19c-.12-9.9-.69-19.81-1-29.71-.65-19.87-1.15-39.75-1.82-59.63s-1.53-39.79-2.84-59.66a16.35,16.35,0,0,0-3.3-9.2c-4.13-5-11.21-6.54-17.37-7.2-6.93-.75-13.91-.5-20.85-1-13-.9-26-1.44-39-1.5-12-.05-23.94.47-35.92.91-18.34.67-36.91.64-54.94,4.53-8.65,1.87-17.24,4.65-24.76,9.42a40.93,40.93,0,0,0-17.06,22.4c-3.47,10.68-3.37,22-2,33,1.48,12.49,4.17,24.79,5.61,37.29a313.3,313.3,0,0,1-.53,76c-.73,5.7-1.8,11.35-2.49,17.05-.61,5-1,10.28.28,15.24a19.59,19.59,0,0,0,8.81,12.13c4.55,2.86,9.82,4.42,15,5.79a137.86,137.86,0,0,0,23.11,3.95,2.28,2.28,0,0,1,0-.27c0-8.79-.11-17.58-.28-26.37-.62-30.77-2.15-61.52-3.41-92.28l-37.85-5.11a1.5,1.5,0,0,1-1-1.84,1.55,1.55,0,0,1,1.84-1.05l38.89,5.25a1.53,1.53,0,0,1,1.11,1.45q.53,13.19,1.11,26.38.77,17.91,1.44,35.83l.09-.08a183.49,183.49,0,0,1,39.54-21.71l.25-.07,1.41-7.76q3.7-20.29,7.48-40.59-11.62-6.47-23.17-13a1.52,1.52,0,0,1,0-2.59q6.48-4.76,12.88-9.6c8-6,15.9-12,23.88-18,3.88-2.9,7.68-6.05,12-8.27a31.36,31.36,0,0,1,7.1-2.66,19.14,19.14,0,0,1-4.69-3.49c-4.32-4.37-6.29-18.41,2.58-25.48,4.62,12.37,11.87,13,20.32,15.14a67,67,0,0,1,7.31-2.61c6.21-1.77,13.1-1.43,17.49,3.88,3.82,4.63,4.58,10.59,3.63,16.35-1.06,6.39-4.07,12.41-7.57,17.8-1.5,2.3-3.12,4.52-4.83,6.68a8.09,8.09,0,0,1,6.36,3.86,12.82,12.82,0,0,1,1.62,8.32,31,31,0,0,1-2.3,9.13c-2.15,4.92-6.63,8.87-12.1,8.62a1.5,1.5,0,0,1-.94.77c-.73.91-1.51,1.79-2.3,2.65a2.13,2.13,0,0,1,.08.32c2,14.49,4.53,28.89,7.41,43.22a1.57,1.57,0,0,1,.84.35,329,329,0,0,1,31.32,28.39c1.34,1.39-.78,3.51-2.12,2.12a330.82,330.82,0,0,0-29.62-27c-2.73,4.43-7.53,7-12.35,8.7a138.49,138.49,0,0,1-17.56,4.67c-6.42,1.34-13.06,2.16-19.6,1.35-.54-.06-1.08-.15-1.63-.24a1.38,1.38,0,0,1-.44,1.11,16.23,16.23,0,0,1-26.94-16.48,1.5,1.5,0,0,1,.48-.72,181.11,181.11,0,0,0-34.3,19.52,1.19,1.19,0,0,1-1.52,0q.6,17.26.91,34.54a13.55,13.55,0,0,1,16.7-2.83,1.5,1.5,0,0,1-1.51,2.59,10.49,10.49,0,0,0-13.51,2.91,1.56,1.56,0,0,1-1.63.69q.09,6.69.12,13.38a14.33,14.33,0,0,1,14.39-3.05,1.5,1.5,0,1,1-.8,2.89,11.4,11.4,0,0,0-12.54,3.39,1.29,1.29,0,0,1-1,.44v.27a1.54,1.54,0,0,1-.09.5c15.67,1.14,31.55.21,47.16-.85,12.39-.84,24.7-2.4,37.08-3.37a149.42,149.42,0,0,1,18.56-.67,34,34,0,0,1,14.24,4.09c9.43,5,17.06,13.09,23.38,21.52a180.87,180.87,0,0,1,14.51,23.74,85.65,85.65,0,0,1,1.95-11.15c1.15-5.35,2.59-10.74,3.28-16.08,2.51-19.47,5.26-38.95,6.92-58.52C307.13,265.47,307.6,255.88,307.48,246.28Zm-130.11-6.46,0-.15-2.63,1.1a1.44,1.44,0,0,1,1.69,1.82A13.21,13.21,0,0,0,198,256.53c-8.38-2.09-16.26-7.09-19.9-15.13A1.53,1.53,0,0,1,177.37,239.82ZM190,187.48l-1,5.19c-2.89,15.62-5.81,31.23-8.6,46.87l.12.2a23.6,23.6,0,0,0,10.64,11.07c10.14,5.45,21.95,4.27,32.75,1.77a122.08,122.08,0,0,0,16-4.47c3.72-1.42,7.28-3.49,9.47-6.83a1.3,1.3,0,0,1-.48-.82c-2.85-14.11-5.34-28.3-7.36-42.56A50.79,50.79,0,0,1,218,210.37a5.53,5.53,0,0,1-2.87,2,15.53,15.53,0,0,1-4.68.8,5.9,5.9,0,0,1-4.17-1.52,4.14,4.14,0,0,1-1.17-2,1.45,1.45,0,0,1-1.44,0,1.51,1.51,0,0,1-.54-2.05,9.7,9.7,0,0,1,7-4.24,9.18,9.18,0,0,1,6.85,1.8,4.48,4.48,0,0,1,1.5,2,48.1,48.1,0,0,0,24.4-14.85,9.82,9.82,0,0,1-4.58-3.26,11.68,11.68,0,0,1-2-9.12,20.86,20.86,0,0,1,4.75-9.65l-1.42-.34c-6.94-7.31-3.45-15.11-4-21.75-.76-9.13-5.11-10.5-10.38-12.25h-.09a27.13,27.13,0,0,0-13.94,4.57c-4.09,2.57-7.88,5.69-11.75,8.59l-11.66,8.81c-6.83,5.17-13.66,10.34-20.56,15.43q11,6.24,22.1,12.43A1.55,1.55,0,0,1,190,187.48ZM257,152.39c5.12-8.29,10.82-21.62,2.85-29.92-4.45-4.64-11-3.43-16.44-1.52l-.87.31a31.84,31.84,0,0,1,10,5.75C259,132.49,259.43,142.76,257,152.39Zm-17.86,29c-.27,3.83,2,8,5.91,8.31l.27-.34a1.58,1.58,0,0,1,2-.47c5.38.66,9-4.67,10.37-9.17,1.22-4,2.56-9.77-.66-13.2-3.52-3.76-8.22,0-10.92,2.81C242.84,172.63,239.44,176.56,239.09,181.39Zm-23.91,26.5.3-.07a2.55,2.55,0,0,0-.33-.33,5,5,0,0,0-1.85-1,6.81,6.81,0,0,0-3.29-.16,1.37,1.37,0,0,1,0,.36,1.52,1.52,0,0,1-1.5,1.5c-.19,0-.13,0-.23,0s-.1.05-.2.2a.58.58,0,0,0-.1.6,1.66,1.66,0,0,0,.57.69,2.73,2.73,0,0,0,1.11.44,9.47,9.47,0,0,0,3.26-.31,11.92,11.92,0,0,0,1.19-.28A1.26,1.26,0,0,1,215.18,207.89ZM247,174.47l5.74,3.25a1.5,1.5,0,0,0,1.51-2.6l-5.74-3.24a1.52,1.52,0,0,0-2.05.53A1.53,1.53,0,0,0,247,174.47Zm-2.41,4.82L252,183a1.5,1.5,0,0,0,1.52-2.59l-7.36-3.68a1.54,1.54,0,0,0-2.06.54A1.52,1.52,0,0,0,244.63,179.29ZM120.73,285q-.21,10.9-.76,21.81c-.09,1.93,2.91,1.93,3,0a739.7,739.7,0,0,0-.18-76.37q-.58-10.9-1.51-21.78c-.15-1.91-3.16-1.93-3,0A739.45,739.45,0,0,1,120.73,285Zm74,26.22c-7.24-5.2-13-12.14-19.59-18-6.21-5.51-13.53-10-21.91-11.09a22.62,22.62,0,0,0-13,2.09c-1.73.86-.21,3.45,1.52,2.59,7.05-3.5,15.31-1.67,22,1.87,7.29,3.87,12.94,10,18.74,15.77a91.58,91.58,0,0,0,10.78,9.39C194.76,314.94,196.26,312.34,194.71,311.23Zm-36.58-9.66a15.6,15.6,0,0,0-18.32,1.48c-1.46,1.27.67,3.38,2.12,2.12a12.55,12.55,0,0,1,14.68-1C158.25,305.2,159.75,302.61,158.13,301.57Z"/>
    </g>
  </g>
</svg>
