<svg xmlns="http://www.w3.org/2000/svg" width="587.81" height="587.81" viewBox="0 0 587.81 587.81">
  <g id="faddfe44-4360-4ada-b47c-899e2d29a5fc" data-name="messenge">
    <circle id="e0e786af-409d-4aeb-95e3-42c0a9e23ad3" data-name="color background" cx="277" cy="253.13" r="139" style="fill: #f4f6f9"/>
    <g id="e514359d-d6ff-43b3-b03c-fff125627f6c" data-name="white background">
      <path d="M395.78,255.76a17.13,17.13,0,0,1-2.5-15.39A28.27,28.27,0,0,0,411,260.78Zm-5.7,5.79-1.51-2.16c-.74-.89-1.47-1.79-2.17-2.7Zm122.56-18.26c-.11.49-.6.79-1,1l-8.19,4.4a42.32,42.32,0,0,1-2.23,7.63c-7.54,18.9-27.09,31.18-47.42,33.2a56.82,56.82,0,0,1,30.08,6.78c2.86,1.6,5.67,3.62,7.12,6.57s1.08,7-1.59,8.9c-2.48,1.78-5.89,1.18-8.85.43-8.68-2.19-17.39-5-26.34-4.76a28.61,28.61,0,0,0-15.84,5.18c3.65.57,7.37,1.19,10.62,3A11.78,11.78,0,0,1,455,323a9.88,9.88,0,0,1,2.34-.57,7.3,7.3,0,0,1,6.71,2.71,8.75,8.75,0,0,1,1.38,5.08,17.19,17.19,0,0,1-.31,3.28c2.57,1.56,4,5.09,3.9,8.59-.15,4.12-2.06,8.12-4.4,11.54-.4.57-.81,1.13-1.25,1.67l0,0c-6.1,9.6-15.67,16.27-25.72,17.92A31.46,31.46,0,0,1,422.38,372l-.15,2.27a47,47,0,0,1-3.74,44.63c-5.83,8.68-14.44,15.15-20.75,23.49s-10.05,20.22-4.61,29.15C210,506.13,158.24,382.13,35.94,479.13A340.1,340.1,0,0,1,153.1,301.74l2,1.08c4.22-15.81,8-30.95,11.65-47.89a17.66,17.66,0,0,1-12.11-4.22,17.55,17.55,0,0,1,11.62-30.77c-1.72-7.92-3.76-15.79-4.42-23.86-.69-8.46.26-17.3,4.46-24.68a28.14,28.14,0,0,1,2.81-4.05c14.11-17,39-12.43,54.22.33,20.2,16.94,40,34.36,57.89,49.27,0,0-23.37,11.41-34.91,16.92,0,0,7.13,58.28,9.09,75.32l3.48-.17c19.65,13.05,33.83,35,38.19,59.18,1.31,7.23,1.86,14.85,3.81,21.83a36,36,0,0,1,11-13.32c3.86-2.78,8.53-5.07,10.34-9.63,1.55-3.92.49-8.38.47-12.64-.06-13.59,11.05-24.93,23.29-28.91s25.4-2.28,38.1-.53l1.59,1.25a194,194,0,0,1,15.37-14.14c11.57-9.44,24.77-17.23,39.28-20.72A71,71,0,0,1,450,289.8a56.44,56.44,0,0,1-6.1-.09c-21.57-1.49-41.38-13.68-55.32-30.32l-9.27-13.31c10.68,7.78,22.82,14.27,36,15.41a42.05,42.05,0,0,0,17.82-2.32,58.93,58.93,0,0,1-13.92-12.59,7.32,7.32,0,0,1-1.89-3.56c-.44-3.56,3.76-4.07,6.08-2.75s3.63,4,4.9,6.24q-4.86-8.53-9.08-17.41a10.64,10.64,0,0,1-1.36-4.51,3.74,3.74,0,0,1,2.44-3.69c2.28-.6,4.17,1.73,5.37,3.76q4.39,7.41,8.77,14.82c-4.86-11-9.83-22.49-9.47-34.52.05-1.68.58-6.45,2.13-7.57,2.74-2,4.82,2.32,5.45,4.24,3.1,9.48,6.1,19.13,11.45,27.55a45.64,45.64,0,0,0,9,10.4c3.21-8.19,4.88-17.25,11.28-23.11,9.25-8.47,25.43-5.58,33.31,4.18,4.75,5.88,6.77,13.4,6.61,21l6.28.16a3.53,3.53,0,0,1,1.48.26A1.2,1.2,0,0,1,512.64,243.29Zm-74.53,69.52a18.4,18.4,0,0,0-2.12,1.81l.89,1.32Z" style="fill: #fff"/>
    </g>
    <path id="b7be286b-4858-4392-9eb7-4c1589d1b93b" data-name="woman" d="M155,304.82c-1.32-1.41.79-3.53,2.12-2.12a73.86,73.86,0,0,0,19.6,14.85A80.77,80.77,0,0,0,219,326.5,74.14,74.14,0,0,0,240.25,322c6.73-2.53,14.6-6.34,17.26-13.55.66-1.8,3.56-1,2.89.8-3.2,8.68-12.2,13.09-20.38,16a80.64,80.64,0,0,1-45.44,2.16A79.45,79.45,0,0,1,155,304.82Zm-.28-.62a1.51,1.51,0,0,0,2.89,0c4.11-15.43,7.95-30.92,11.35-46.52l.06-.3A19,19,0,0,0,179.9,253a1.5,1.5,0,1,0-2-2.26c-5.8,5-15.55,5-21.3-.11s-7-14.75-2.74-21.12,13.68-8.9,20.57-5.53a1.5,1.5,0,1,0,1.32-2.69,18.21,18.21,0,0,0-2.31-.92,116,116,0,0,0,.41-12.37l.68-2.47c5.72.5,11.37-1.44,16.57-3.87,6-2.79,12-6.57,14.94-12.48,2.5-5,2.56-10.87,1.3-16.28a63.53,63.53,0,0,0-5.18-13.27,46.65,46.65,0,0,1,6.71,1.88,48.51,48.51,0,0,1,14.37,8.28c6.14,5.11,12.21,10.31,18.29,15.51,12.62,10.81,25.18,21.69,37.93,32.35q-11.91,5.82-23.85,11.59-4.53,2.2-9.09,4.38a1.44,1.44,0,0,0-.74,1.29q1.27,10.4,2.53,20.78,2.34,19.2,4.65,38.4,1,8.07,1.91,16.14c.22,1.89,3.23,1.91,3,0-1.27-11-2.61-22-3.93-32.95l-4.26-35c-.26-2.17-.53-4.33-.79-6.49,10.34-4.95,20.65-10,31-15l3.1-1.5a1.51,1.51,0,0,0,.3-2.36C271.08,206.72,259.06,196.32,247,186q-9.54-8.19-19.16-16.3c-.31-.27-.64-.53-1-.8-2.43-12.33-25.68-28.4-39.1-16.9-13.92-6.13-36.31,4.64-44.37,17.54-10.32,16.52-9.79,37-3.21,50.72a90.81,90.81,0,0,0,8.54,14.07,20,20,0,0,0,4.66,17.3,25.77,25.77,0,0,1-33.83,10.24c-1.62-.81-4-1.57-4.87,0-.56,1,.11,2.3.79,3.27a60.46,60.46,0,0,0,42.63,25.06l0,.07c-1,3.83-2,7.65-3,11.47a1.61,1.61,0,0,0-2.07-.06,333.16,333.16,0,0,0-31.5,28.22A344.68,344.68,0,0,0,70.26,397a339.36,339.36,0,0,0-33.37,77.75c-.48,1.67-.94,3.35-1.4,5a1.51,1.51,0,0,0,2.9.8A333.76,333.76,0,0,1,51.9,440.67,339.42,339.42,0,0,1,70.24,403a343.87,343.87,0,0,1,22.94-35.3,335.88,335.88,0,0,1,27-32.06,331.49,331.49,0,0,1,30.91-28.57C152.27,306.09,153.47,305.14,154.67,304.2Zm74.61-110.28-6.82-6.75a1.54,1.54,0,0,1,0-2.12,1.51,1.51,0,0,1,2.12,0l6.82,6.74a1.5,1.5,0,1,1-2.12,2.13ZM424.53,374.47a48.64,48.64,0,0,1-2,43.28c-3.66,6.48-9,11.75-14.13,17s-10.27,10.67-13.14,17.53c-2.6,6.21-3.41,13.46.15,19.45a1.5,1.5,0,0,1-2.59,1.52c-4-6.82-3.28-15.06-.3-22.13,5.85-13.91,19.82-21.7,27.22-34.55a45.55,45.55,0,0,0,2.18-40.6C421.16,374.23,423.74,372.71,424.53,374.47ZM218.44,189.92l6,6.29a1.54,1.54,0,0,1,0,2.12,1.52,1.52,0,0,1-2.13,0q-3-3.15-6-6.29a1.53,1.53,0,0,1,0-2.12A1.51,1.51,0,0,1,218.44,189.92Zm.16-14a1.46,1.46,0,0,1-.44-1.06,1.5,1.5,0,0,1,.44-1.06,1,1,0,0,1,.48-.31,1.06,1.06,0,0,1,.58-.13l2.25-.17a1.51,1.51,0,0,1,1.06.43,1.54,1.54,0,0,1,.44,1.07,1.52,1.52,0,0,1-.44,1.06,1.24,1.24,0,0,1-.48.31,1.27,1.27,0,0,1-.58.13l-2.25.17A1.46,1.46,0,0,1,218.6,175.94Zm-38.82,60.51a1.51,1.51,0,0,1,0,2.12,1.54,1.54,0,0,1-2.12,0,19.15,19.15,0,0,0-15.92-3.88c-1.89.39-2.68-2.5-.8-2.9A22.38,22.38,0,0,1,179.78,236.45ZM213.56,183a1.59,1.59,0,0,1-.15,1.15l-1.73,4a1.43,1.43,0,0,1-.9.69,1.5,1.5,0,0,1-1.84-1.05,1.59,1.59,0,0,1,.15-1.15c.57-1.33,1.15-2.66,1.73-4a1.43,1.43,0,0,1,.9-.69,1.5,1.5,0,0,1,1.84,1.05Zm9.57,145.71a8.3,8.3,0,0,0-5.85,1.33l0-.06a1.53,1.53,0,0,0-2.13,0,8.71,8.71,0,0,0-1,10.23,8.34,8.34,0,0,0,9.28,3.45A7.52,7.52,0,0,0,229,336C228.81,332.61,226.62,329.29,223.13,328.74Zm.16,11.84c-.16.08-.07,0,0,0Zm1-.6Zm1.65-3s0,.07,0,.1,0,.07,0,.05a.06.06,0,0,0,0,0c0,.15-.06.29-.1.44a3.31,3.31,0,0,1-.12.42l-.09.24v0l0,0a7.37,7.37,0,0,1-.43.78l-.11.15h0q-.16.19-.36.39c-.11.11-.23.21-.35.31l0,0-.14.1a7.37,7.37,0,0,1-.87.48h0l-.25.09-.44.14-.46.11-.35,0c-.28,0-.57,0-.85,0l-.47,0h-.12l-.22,0a7.17,7.17,0,0,1-.91-.24l-.33-.12-.06,0-.3-.15a6.48,6.48,0,0,1-.79-.49s0,0,0,0l-.16-.13a6,6,0,0,1-.43-.44l-.14-.16,0,0s0,0,0,0a4.66,4.66,0,0,1-.3-.47c-.11-.18-.2-.37-.3-.56l0-.06-.09-.23a9.49,9.49,0,0,1-.28-1.08v-.06a1.94,1.94,0,0,1,0-.24,2.09,2.09,0,0,1,0-.25,1.5,1.5,0,0,0,1.3-1.08c0-.15.07-.29.11-.43l.09-.25a6.11,6.11,0,0,1,.44-.79l0-.05.07-.09c.1-.11.19-.22.3-.32l.31-.3.15-.12v0l0,0a8.3,8.3,0,0,1,.81-.49l.26-.13a2.54,2.54,0,0,0,.37-.14c.28-.09.57-.15.86-.22h.05l.11,0h0c.17,0,.33,0,.5,0h.44l.27,0a6.34,6.34,0,0,1,.86.21l.14.06h0c.13.07.27.13.4.21l.37.24.19.17.31.31.22.25a6,6,0,0,1,.46.73l.15.31s.08.2.11.26a7.06,7.06,0,0,1,.25.93c0,.08.06.58,0,.23,0,.15,0,.3,0,.45,0,.32,0,.64,0,1a.17.17,0,0,1,0,.07Zm4.93-74.51a1.55,1.55,0,0,0-1.85-1,23.71,23.71,0,0,1-6,0,4.65,4.65,0,0,0,.6-.87,4.31,4.31,0,0,0-1.07-5.25,5.67,5.67,0,0,0-4.12-1.36,4.9,4.9,0,0,0-1-2.34,6.1,6.1,0,0,0-9.38,0,7.32,7.32,0,0,0-1,1.74,23.94,23.94,0,0,1-4.76-7.24c-.73-1.76-3.64-1-2.9.8a28,28,0,0,0,5.32,8.24,1.76,1.76,0,0,0-.5,1.09c-.44,4.14-.61,8.83,2.66,11.95a6.79,6.79,0,0,0,5.1,2,7.63,7.63,0,0,0,4.76-2.33,17.34,17.34,0,0,0,2.9-4,28,28,0,0,0,10.21.51A1.51,1.51,0,0,0,230.91,262.46Zm-20.36-9.13a3,3,0,0,1,3.29-.76,2.37,2.37,0,0,1,1.72,2.3s0,.08,0,.12a8.75,8.75,0,0,0-2.7,2.88l0,.05a27,27,0,0,1-3.3-2.3A3.91,3.91,0,0,1,210.55,253.33Zm3.95,12.52a3.84,3.84,0,0,1-4.08,1.11,5.52,5.52,0,0,1-3-3.52,13.56,13.56,0,0,1-.38-5,1.46,1.46,0,0,0,1.69.3,29.85,29.85,0,0,0,8,4.24A13.07,13.07,0,0,1,214.5,265.85Zm6.61-7a1.61,1.61,0,0,1-.63.9.78.78,0,0,1-.75.1,1.33,1.33,0,0,0-1.5.47c-.77-.25-1.53-.54-2.27-.86a5.23,5.23,0,0,0,2.07-2.41,2.54,2.54,0,0,1,2.11.16A1.59,1.59,0,0,1,221.11,258.89ZM202.9,343.17c-5.67,2.56-11.43,5.16-17.57,6.36-9,1.75-19.46.09-25.29-7.66-2.92-3.89-4.24-8.69-5.22-13.38-1.19-5.65-2.25-11.34-3.36-17-.37-1.89,2.52-2.69,2.89-.8,1.17,5.94,2.24,11.9,3.53,17.81.94,4.27,2.17,8.75,5,12.18a18.43,18.43,0,0,0,10.55,6c9.71,2.07,19.27-2.2,27.94-6.1C203.14,339.79,204.66,342.38,202.9,343.17ZM226,337.12v-.06h0Zm-64.48,43.4a9.48,9.48,0,0,0-3.72.87,8.74,8.74,0,0,0-.69-4.5,6.86,6.86,0,0,0-6-4,5.15,5.15,0,0,0-4.85,5.07,7.64,7.64,0,0,0,1.33,4.63c-2.42-1.39-5-2.46-7.88-1.83A5.71,5.71,0,0,0,135,386.7a7.57,7.57,0,0,0,5.06,6.12,9.46,9.46,0,0,0,4.54.38,9.05,9.05,0,0,0-1.51,3.63c-.48,2.92.77,6.34,3.52,7.73,3.15,1.58,6.62-.26,8.26-3.1a8.86,8.86,0,0,0,1.1-5.22c3.7,2.14,8.59,2.07,11.55-1.71a9.54,9.54,0,0,0,1.5-9.17A7.7,7.7,0,0,0,161.48,380.52ZM152.66,399c-.64,1.87-2.75,4-4.85,2.82-1.66-.93-2.18-3.27-1.7-5,.69-2.49,2.88-4.28,4.95-5.64a1.45,1.45,0,0,0,.37-.37,7.93,7.93,0,0,0,.42,1.05C152.7,394.17,153.45,396.71,152.66,399Zm13.84-9.57A5.79,5.79,0,0,1,161,394.7a7.22,7.22,0,0,1-6.4-4.06c-.14-.38-.28-.77-.43-1.14a1.57,1.57,0,0,0-2.65-.5,1.21,1.21,0,0,0-1.58-.55c-2.36.95-4.93,2-7.53,1.82a4.86,4.86,0,0,1-4.36-3.36c-.48-1.89,1.16-3.13,2.89-3.31,2.37-.24,4.58,1.24,6.5,2.44a1.41,1.41,0,0,0,2.13-.87c.26.28.53.56.8.83,1.34,1.39,3.46-.73,2.12-2.12s-3.13-3.08-3.28-5.21c-.09-1.44.7-3,2.34-2.74a4,4,0,0,1,3.11,3c.61,2.44-.35,5-1.13,7.3-.54,1.87,2.28,2.61,2.89.79.73-2.52,3.61-3.8,6.09-3.45C165.38,384,166.88,386.66,166.5,389.44Zm327.77-84.19a12.23,12.23,0,0,0-5-8c-5.51-4.32-12.73-6.86-19.53-8.22a65.7,65.7,0,0,0-21.85-.54c-14.64,2-28.29,8.69-40.18,17.28a175.78,175.78,0,0,0-21.72,19,1.1,1.1,0,0,0-.47-.2c-12-1.64-24.34-3.31-36.22-.24a37.79,37.79,0,0,0-22.79,16.38A28.59,28.59,0,0,0,322.28,354c-.29,5.23,1.79,11.29-1.71,15.84-2.87,3.74-7.61,5.69-11.11,8.76a37.15,37.15,0,0,0-7.07,8.43c-1.71-7.77-2.12-15.88-4-23.59A93,93,0,0,0,266.47,313c-1.88-1.49-3.82-2.91-5.82-4.24-1.61-1.08-3.11,1.52-1.51,2.59a81.09,81.09,0,0,1,10.15,8,1.32,1.32,0,0,0-.11,1.1c1.81,6.19-1.15,12.66-6,16.6-5.53,4.51-13.1,4.7-19.57,2.29a28.07,28.07,0,0,1-10.18-6.74c-1.35-1.38-3.47.74-2.12,2.12,5.68,5.81,13.84,9.71,22.08,9.14a20.92,20.92,0,0,0,17.65-12.18,17.89,17.89,0,0,0,1.57-9.09,90.61,90.61,0,0,1,20.42,33.34A92.06,92.06,0,0,1,296.71,370c.91,5.13,1.43,10.32,2.37,15.44.34,1.82.73,3.64,1.21,5.44-4,8.52-5.46,18.88-2.63,28,1.49,4.77,4.77,9.34,10.07,10,4.64.61,8.37-2.65,9.3-7.08,1-4.76-.63-9.34-3.32-13.24-3.12-4.51-6.86-8.37-8.92-13.55-.5-1.25-.94-2.53-1.32-3.82a35.65,35.65,0,0,1,5.38-7.82A32.26,32.26,0,0,1,314,378.8c1.77-1.26,3.63-2.39,5.36-3.72a16.81,16.81,0,0,0,4.6-4.94,14.54,14.54,0,0,0,1.67-7.15c0-2.71-.41-5.4-.36-8.1a23.86,23.86,0,0,1,1.06-6.55c2.6-8.52,9.58-15.26,17.52-19,10.05-4.67,21.78-4.2,32.52-3,2.39.26,4.78.58,7.16.9-3.41,3.53-6.76,7.13-10.06,10.75l-4,4.44c-1.29,1.43.83,3.56,2.13,2.13,19.53-21.55,40.86-44.87,70.28-51.93,13.48-3.24,28.37-2.47,40.82,4,2.77,1.43,5.77,3.12,7.5,5.81,1.39,2.16,1.87,5.44-.05,7.47-2.25,2.4-6.32,1.15-9,.45-3.82-1-7.62-2.06-11.47-2.93-7.5-1.68-15.39-2.56-22.86-.26a27.36,27.36,0,0,0-8.09,4,1.48,1.48,0,0,0-.35.25,20.15,20.15,0,0,0-6.4,7.84c-.78,1.75,1.8,3.27,2.59,1.51a17.71,17.71,0,0,1,5.33-6.72c3.29.52,6.67,1.12,9.6,2.76,2.68,1.5,5.16,4.15,5.35,7.36.2,3.54-2.19,6.74-4.61,9.06-.14.13-.29.24-.43.36l-1.12-.68a153,153,0,0,0-15.05-8.05,156.93,156.93,0,0,0-18-7c-1.84-.59-2.63,2.3-.8,2.9a150.75,150.75,0,0,1,27.58,12c2.18,1.23,4.34,2.51,6.46,3.84,1.81,1.14,4.05,2.34,5,4.38a2.92,2.92,0,0,1-2.12,4.24c-2.51.64-5.37-.65-7.73-1.42-5.66-1.86-11.2-4.07-16.73-6.27a1.51,1.51,0,0,0-1.9,1.45,10.4,10.4,0,0,1-12.06,11.46c-1.88-.34-2.69,2.55-.79,2.9a13.64,13.64,0,0,0,11.58-3.16,13.33,13.33,0,0,0,4.28-9c3.74,1.49,7.48,2.95,11.27,4.29.62,3.66,2.12,7.27,6.09,8.23a9.12,9.12,0,0,0,5.4-.47,22.76,22.76,0,0,0,2.12,4.42,6.08,6.08,0,0,0,5.29,2.76,37.71,37.71,0,0,1-12.77,9.12,30.68,30.68,0,0,1-22.42.65A31.88,31.88,0,0,1,412,362.93c-1.38-1.36-3.51.76-2.12,2.12.49.48,1,.94,1.52,1.39a26.71,26.71,0,0,1-19.85,2.13A26.4,26.4,0,0,1,373,346.94a1.56,1.56,0,0,0-1.5-1.5,1.5,1.5,0,0,0-1.5,1.5,29.84,29.84,0,0,0,9.73,18.48,28.93,28.93,0,0,0,20.78,7.12,29.74,29.74,0,0,0,12.66-3.66,1.44,1.44,0,0,0,.57-.55A34.09,34.09,0,0,0,433.07,375c8.38.17,16.42-3.06,22.94-8.2a44,44,0,0,0,9.6-10.63,29.11,29.11,0,0,0,3.78-6.06,18.48,18.48,0,0,0,2-10.81,10.59,10.59,0,0,0-3.58-6.58c.56-3.8,0-8-3.18-10.32a8.85,8.85,0,0,0-7.57-1.35,12.58,12.58,0,0,0-3.81-5.21,21.88,21.88,0,0,0-9.74-4.15,26.63,26.63,0,0,1,4.52-1.76c7.2-2.07,14.74-1,21.91.68,3.95.93,7.84,2.09,11.78,3,3.08.73,6.69,1.21,9.45-.72A8.07,8.07,0,0,0,494.27,305.25Zm-190.5,94.61c2.44,4.5,6.29,8,8.77,12.48,1.83,3.29,2.75,7.94.57,11.31-2.71,4.19-8.27,2-10.58-1.39-2.7-4-3.33-9.26-3.29-13.95a38.7,38.7,0,0,1,2.44-13.07A36.9,36.9,0,0,0,303.77,399.86ZM467,336.13a9.44,9.44,0,0,1,1.58,5.43c0,3.9-1.83,7.62-4,10.8-1.48,2.22-5.58,7.39-8.5,4.16a15.84,15.84,0,0,1-2.35-4.66,37.45,37.45,0,0,0,5-3.9A27.43,27.43,0,0,0,467,336.13Zm-9.33-10.33a9.11,9.11,0,0,0,0-1.88,6.23,6.23,0,0,1,4.66.58c3.37,1.93,2.9,6.78,2,10a22.82,22.82,0,0,1-6.14,9.91,38.5,38.5,0,0,1-4.42,3.74,13.66,13.66,0,0,1-5,2.64,4.63,4.63,0,0,1-5.12-2.15,8,8,0,0,1-.87-2.07l.79.27c2.67.87,5.5,1.89,8.35,1.38a6.21,6.21,0,0,0,4.93-4c1.23-3.9-1.5-6.76-4.56-8.92C455,332.76,457.24,329.46,457.68,325.8Z"/>
    <g id="b84c6983-272d-41f4-bd77-aa8c261f99a1" data-name="bird">
      <path id="b6f875e5-3c9f-4c0e-acac-b1d68ca82b61" data-name="bird" d="M467,293.14a5.69,5.69,0,0,1,.59,6.57,1.5,1.5,0,0,1-2.6-1.51,3.07,3.07,0,0,0,.17-.31h0a5.52,5.52,0,0,1,.16-.54l0-.16a.53.53,0,0,0,0-.13,3.51,3.51,0,0,0,0-.56v0a1.85,1.85,0,0,0,0-.23c0-.16-.13-.35-.17-.52l0-.05-.15-.27-.12-.16a.1.1,0,0,0,0-.05,3.34,3.34,0,0,0-.38-.37l0,0-.21-.13-.26-.14h0a5.34,5.34,0,0,0-.53-.16l-.2,0-.57,0-.14,0-.13,0a4,4,0,0,0-.56.17,1.5,1.5,0,0,1-1.69-2.2,1.59,1.59,0,0,1,.9-.69A5.6,5.6,0,0,1,467,293.14Zm46.51-46.63c-1.38.83-2.86,1.54-4.28,2.3l-3.53,1.9a47.65,47.65,0,0,1-8.89,18.91c-10.74,13.9-28,21.9-45.46,22.64a5.79,5.79,0,0,1,1.65,2.28,5.94,5.94,0,0,1-2.41,6.95,1.5,1.5,0,1,1-1.52-2.59l.24-.17.14-.13.22-.23.07-.08,0,0c.13-.07.27-.43.34-.56l0-.07a1.86,1.86,0,0,1,.11-.27,5.81,5.81,0,0,0,.15-.63v0c0-.1,0-.21,0-.32s0-.25,0-.37v0a5.9,5.9,0,0,0-.17-.6,1.17,1.17,0,0,1-.05-.11l-.17-.28-.05-.09c-.05-.07-.12-.14-.17-.2s-.42-.32-.46-.42l-.06,0-.28-.17-.29-.15h0c-.22-.07-.44-.14-.67-.19h-.76a1.53,1.53,0,0,1-1.84-1.05,1.19,1.19,0,0,1-.05-.53c-1.43-.08-2.86-.21-4.28-.39-19.64-2.52-37.19-13.34-50.32-27.9a1.48,1.48,0,0,1-.91-.62l-1.52-2.18q-1.93-2.33-3.74-4.75a1.27,1.27,0,0,1-.26-1L379,247.84c-.83-1.2.85-2.93,2.06-2.05,2.57,1.86,5.19,3.65,7.9,5.3q2.13,1.31,4.35,2.49a18.77,18.77,0,0,1-.47-12.61c.42-1.32,2.56-1.52,2.89,0a26.85,26.85,0,0,0,16.7,19.37,1.84,1.84,0,0,1,.37.19,43.12,43.12,0,0,0,10.72.46,38.66,38.66,0,0,0,7.19-1.31c-.73-.52-1.45-1.06-2.15-1.62a59.24,59.24,0,0,1-5.79-5.29,40.55,40.55,0,0,1-4.88-5.75c-1.11-1.73-1.63-4-.46-5.88a5.05,5.05,0,0,1,4.32-2,7.15,7.15,0,0,1,1.34.14c-.59-1.14-1.2-2.28-1.78-3.43-.92-1.83-1.84-3.67-2.69-5.54a10.21,10.21,0,0,1-1.26-5.2c.31-3.07,3.1-5.67,6.25-4.45a8.15,8.15,0,0,1,3.54,3,63.09,63.09,0,0,1-2.32-10.38,36.52,36.52,0,0,1-.06-10.44c.41-2.54,1.28-6.06,4.37-6.36s4.7,2.88,5.6,5.21c1.48,3.81,2.54,7.8,3.93,11.65,3.19,8.83,7.78,18.19,14.67,24.77,2.66-7.35,4.45-15.15,10.07-20.87,7.08-7.2,18.24-7.62,27-3.58,10,4.59,15.4,14.92,16.14,25.6q.07,1,.09,2l4.76.12c1.39.05,2.77.39,3.44,1.74S514.76,245.77,513.55,246.51Zm-118.5,1.65a16,16,0,0,0,3,7.75q2.14,1,4.34,1.8A30.18,30.18,0,0,1,395.05,248.16Zm116.26-3.85h-.53l-1.87-.05.09-.12h-5.36l-6.88-.18c-1.93-.05-1.93-3.05,0-3l6.95.18a32.79,32.79,0,0,0-2.39-11.89A24.35,24.35,0,0,0,478.51,214a18.49,18.49,0,0,0-12.2,4.56c-3.83,3.51-5.93,8.36-7.63,13.17-1,2.8-1.9,5.64-2.94,8.43a29.83,29.83,0,0,0,12.88,6.09c1.9.38,1.09,3.27-.79,2.89-7.7-1.53-14.42-6.16-19.53-12s-8.49-12.62-11.26-19.7c-1.47-3.76-2.75-7.58-4-11.41a31.5,31.5,0,0,0-1.52-4.31c-.33-.66-1-2.21-1.94-2.31-1.71-.2-2,4.71-2.1,5.79a40.93,40.93,0,0,0,.9,11.2c1.65,8.14,5,15.8,8.33,23.35.76,1.73-1.58,3.22-2.59,1.51l-6.89-11.63c-.73-1.24-4.51-8.95-6.54-5.4-.93,1.63.08,3.64.79,5.15,1,2,1.95,4,3,6q2.93,5.76,6.13,11.39a1.5,1.5,0,0,1-2.6,1.51c-1.36-2.42-3.64-7.35-7.28-6-3.25,1.2,2.72,6.81,3.77,7.93a54.05,54.05,0,0,0,9.68,8.24c7.37,4.83,16.34,7.59,25.18,6.25,1.89-.29,2.7,2.6.8,2.89A37.12,37.12,0,0,1,442,265.73a44.46,44.46,0,0,1-8.1-3.91,45.07,45.07,0,0,1-21,1.77c-9.61-1.43-18.55-5.55-26.73-10.72l4.5,6.46c.54.64,1.07,1.29,1.63,1.92,14.38,16.28,35.18,28.39,57.39,28.09,19.85-.27,40.25-10.86,49.46-28.89a42.66,42.66,0,0,0,3.05-7.83l-1.38.74c-1.7.92-3.21-1.67-1.51-2.59l3.79-2c0-.17.05-.33.07-.5l3.23-1.35a.25.25,0,0,0,0,.08l3.42-1.84Zm1,.11s0,0-.07,0S512.26,244.43,512.3,244.42Zm-54,13.77A29.29,29.29,0,0,1,440,252.3a1.5,1.5,0,0,0-2.05.53,1.54,1.54,0,0,0,.54,2.06,31.84,31.84,0,0,0,19.81,6.3C460.24,261.14,460.25,258.14,458.31,258.19Zm27.78-29.29a9.07,9.07,0,0,0-8.09,3.29,1.55,1.55,0,0,0,0,2.12,1.51,1.51,0,0,0,2.12,0,6.34,6.34,0,0,1,5.57-2.46,6.22,6.22,0,0,1,4.7,3.35,1.5,1.5,0,1,0,2.59-1.51A9.15,9.15,0,0,0,486.09,228.9Z"/>
      <g id="fffd17f7-22ec-46ef-a672-6a3499b0237e" data-name="messenge">
        <rect id="bf3167ff-932b-4f7f-a521-326918dc8e95" data-name="2" x="480.91" y="249.26" width="48.56" height="33.62" rx="4.08" transform="translate(66.08 -98.89) rotate(11.96)" style="fill: #ffe945"/>
        <path id="b85241a7-1d1b-44d4-ba81-151f20a78bd4" data-name="1" d="M487.32,249.72l9.07,8.37,4.72,4.35,2.18,2a22.18,22.18,0,0,0,2.33,2.12c.88.59,1.8.14,2.73-.12l2.84-.78,5.91-1.62,12.06-3.31a1.5,1.5,0,0,0-.79-2.9L506.13,264l1.46.38L489.44,247.6c-1.42-1.31-3.55.81-2.12,2.12Z"/>
      </g>
    </g>
  </g>
</svg>
