<svg xmlns="http://www.w3.org/2000/svg" width="587.81" height="587.81" viewBox="0 0 587.81 587.81">
  <g id="ace09d2a-ca3a-4138-bf31-f5b6f47f1194" data-name="relax">
    <g id="b210c2b5-352b-4333-b523-a008b9f23a21" data-name="color background">
      <path d="M235.1,305.63c-21.48,4.72-43.48,9.13-65.34,6.68s-43.91-12.86-55.18-31.75c-6.92-11.61-8.94-27.32-1-38.27s22.74-13.85,36-16.78c15.31-3.39,30.88-8.25,42.63-18.64s18.71-27.55,13.14-42.21c-4.92-12.94-18.85-23.9-15.58-37.36,2.8-11.52,16.42-16.15,24.65-24.68,8.67-9,11-22.1,15.39-33.81S243,44.94,255.48,44.75c11-.17,20,9.44,23.47,19.84s2.8,21.65,3.31,32.61,2.58,22.6,10.14,30.54c6.64,7,16.6,10,26.22,10.08s19.06-2.27,28.38-4.66l82.8-21.27c7.73-2,15.71-4,23.61-2.86s15.8,6.19,17.77,13.93c1.81,7.1-1.65,14.41-5.42,20.7a164,164,0,0,1-23.85,30.78c-6.81,6.91-14.6,13.82-16.79,23.27-2.5,10.79,3.11,21.82,9.95,30.54s15.2,16.51,19.72,26.63c8.11,18.16,1.68,40.26-11.12,55.49s-30.93,24.87-48.95,33.29S358,359.83,342.65,372.45" style="fill: #f4f6f9"/>
    </g>
    <path id="b7a9f39c-fdd5-40f7-8b88-f6cec873027d" data-name="carpet" d="M512,479.81c0,2.59-4.21,11.67-58.32,19.6-38.37,5.63-89.39,8.72-143.68,8.72S204.69,505,166.32,499.41c-54.11-7.93-58.32-17-58.32-19.6s4.21-11.68,58.32-19.61c38.37-5.62,89.39-8.72,143.68-8.72s105.31,3.1,143.68,8.72C507.79,468.13,512,477.21,512,479.81Zm28.5,2.32c0,25.13-103.65,45.5-231.5,45.5S77.5,507.26,77.5,482.13s103.65-45.5,231.5-45.5S540.5,457,540.5,482.13ZM515,479.81c0-9.06-20.48-16.66-60.89-22.58-38.5-5.64-89.68-8.75-144.11-8.75s-105.61,3.11-144.11,8.75C125.48,463.15,105,470.75,105,479.81s20.48,16.65,60.89,22.57c38.5,5.65,89.68,8.75,144.11,8.75s105.61-3.1,144.11-8.75C494.52,496.46,515,488.86,515,479.81Z" style="fill: #feaabc"/>
    <g id="f908860a-96b9-4948-a55b-e79f41ee414b" data-name="white background">
      <path d="M524.59,395.25a59.57,59.57,0,0,0-21.6-13.2c2.87.82,5.93,1.43,8.8.63s5.43-3.42,5.22-6.4a10.15,10.15,0,0,0-1.74-4.32l-6.39-10.72a3.62,3.62,0,0,0-1.44-1.58,2.55,2.55,0,0,0-2.91,1c-1.67,2.2-.7,5.29-.17,8s-.12,6.38-2.85,6.8a5.7,5.7,0,0,1-3.28-.82,115.86,115.86,0,0,1-13-7.36c-1.95-1.28-3.95-2.73-4.84-4.88s-.09-5.16,2.15-5.8a6.4,6.4,0,0,1,4.08.69l11,4.55a6.88,6.88,0,0,0,3.5.76c2.43-.36,3.75-3.38,3.09-5.75s-2.69-4.1-4.77-5.41c-8.31-5.24-19.29-5.35-28.11-1.18,0-.12,0-.25,0-.37,0-1.95-1.91-4.74-2.9-6.35a27.78,27.78,0,0,0-10.05-9.66c-1.65-.92-3.45-1.71-4.66-3.17s-1.64-3.28-2.3-5c-3.66-9.52-15.34-15.09-25.05-12a6.08,6.08,0,0,1-3.53.52c-6.61-1.94-12.29-24.22-14.89-30-6.89-15.39-13.87-31-24.23-44.26a87.67,87.67,0,0,0-18-17.91l3.87-4.29a31.07,31.07,0,0,0-4.25,4,53.53,53.53,0,0,0-20.89-9l.52-.89c-2.21-12.3-10.07-54.36-10.07-54.36,8.14-4.54,24.62-13.91,24.62-13.91-13.71-10-28.89-21.78-44.36-33.17-5.13-3.78-11.4-6.71-17.77-6.71-11.68-8.84-16.07,10.4-18.34,37.76a12.86,12.86,0,0,0-10.66,22.73,12.9,12.9,0,0,0,9.1,2.5l-.06,1.35c-2.29,16.6-5.05,29.06-8,43.7l-1.44-.4a81.56,81.56,0,0,0-13,2.49l-1.85-2.35c.49.83,1,1.64,1.57,2.43-17.39,4.83-33.72,15.21-47.31,28.4l-3.06-2.93a17.31,17.31,0,0,0,2.79,3.19,135.31,135.31,0,0,0-29.55,42.35,13,13,0,0,1-2.82,4.7c-2,1.8-4.84,2.12-7.35,3-13.34,4.89-15.29,25.62-28.74,30.18-2.35.8-5.15,1.19-6.51,3.26-3.24,5,5.7,9.91,5.75,15.83l.38.72c-6.62-2.74-13.82-4.44-20.93-3.63s-14.29,4.5-18.12,10.67a6.49,6.49,0,0,0-1.07,4.35,3.71,3.71,0,0,0-3-.36c-1.61.52-2.66,2.05-3.49,3.52a42.61,42.61,0,0,0-3.45,7.71c-.86,2.56-1.28,5.85.83,7.53,1.47,1.18,3.57,1,5.45.8l9.72-1.13c-2.67,1.69-4.73,4.17-7.15,6.2s-5.47,3.77-8.22,5.65a53.36,53.36,0,0,0-10,8.94c-.75.85-1.51,1.95-1.16,3a2.39,2.39,0,0,0,1,1.21c2,1.28,4.54.69,6.75-.08,1.38-.48,2.74-1,4.08-1.62a1.63,1.63,0,0,0-.11.17c-.79,1.27-1.39,2.91-.63,4.19a3.24,3.24,0,0,0,2,1.38c2.34.58,4.73-.53,6.86-1.67,1.5-.81,3-1.66,4.46-2.52a2.15,2.15,0,0,0-.39,1.21,2.62,2.62,0,0,0,1.1,2,5.4,5.4,0,0,0,4.73.66,17.37,17.37,0,0,0,4.39-2.25c9.44-6,19.48-11.11,28.87-17.17.34.5.68,1,1,1.47,1.43,2,2.8,4.09,4.43,5.94h0c-4.59,5.79-7.5,12.74-10.19,19.42-3.42,8.48-6.62,18.53-.73,25.53,4.93,5.85,14.23,7.08,22.52,8.49a161,161,0,0,1,52.63,18.57c5.34,3,11.32,6.74,17.63,7.57a36.74,36.74,0,0,1-9.85-1.31c-4.18-1.19-8.18-3.28-12.52-3.55-3.82-.23-7.57,1-11.1,2.43-7.19,3-14.29,7.79-17,15.12-3.76,10.36,3.14,22.27,12.9,27.37s21.42,4.83,32.32,3.22c7.07-1,14.12-2.59,21.2-3.44.48.36,1,.71,1.48,1l-1.12-1.08a71.89,71.89,0,0,1,11.17-.54c8.38.31,16.61,2.49,25,2.71s19.43-3.05,24.67-9.61l-1.24-4.85A79.91,79.91,0,0,0,326.85,527c1.65,1.37,3.93,2.73,5.8,1.68,1.54-.88,1.88-2.9,2.2-4.64,2.08-11.18,9.89-19.64,19.25-26.6l-.12.77c4.61-3,10.54.21,16,.65,4.51.37,8.89-1.22,13.33-2.16a6.62,6.62,0,0,0,3.49.88l-.91-1.32c.5-.07,1-.12,1.51-.16,8.44-.55,16,3.85,23.86,7.44a10.08,10.08,0,0,0,2,5.43c2.93,3.76,9.65,4.26,12.22.24a6.07,6.07,0,0,0,.57-1.14,42.57,42.57,0,0,0,23.07-3.65c3.71-1.74,7.36-4.26,8.84-8.08,3.24-8.36-3.38-19.95-10.43-24.48a43.14,43.14,0,0,0-4.74-2.63,176.6,176.6,0,0,0,36.25-6c3-.81,6.15-1.87,7.91-4.39a13.68,13.68,0,0,0,1.81-5.13c3.08-15.11,4.9-31.3-1-45.54-.15-.35-.31-.69-.47-1a24,24,0,0,0,7.46,4.54c1.89.66,4.56.65,5.24-1.23a4.11,4.11,0,0,0-.35-2.84,33.05,33.05,0,0,0-9.09-12.75,117.72,117.72,0,0,0,15.5,10.62c2.07,1.19,4.36,2.34,6.73,2s4.55-2.81,3.64-5a6,6,0,0,0-2.43-2.42L495.84,388l22.59,13.39c2.77,1.64,7.14,2.87,8.55,0C528,399.23,526.28,396.86,524.59,395.25ZM121.27,354c-.76,3.15-3.15,5.67-5.87,7.42a63.11,63.11,0,0,1-8.75,4.15c-1.63.73-3.64,1.49-5.08.43a3.81,3.81,0,0,1-1.19-3.43c.1-1.26.51-2.49.53-3.75a5.09,5.09,0,0,0-.67-2.57,7.54,7.54,0,0,0,3.56-.34,25.1,25.1,0,0,0,3.78-1.28c3.49-1.62,6.22-4.89,10-5.62a3.68,3.68,0,0,1,1.65,0C121.17,349.45,121.74,352,121.27,354Z" style="fill: #fff"/>
    </g>
    <path id="beb56bf6-4fde-4647-a3d8-0b997c816722" data-name="man" d="M528.34,397.58c-.93-2.13-2.76-3.73-4.48-5.23a60.55,60.55,0,0,0-5.66-4.42,59.49,59.49,0,0,0-6.36-3.82l.44-.1a8.94,8.94,0,0,0,5.85-5.06c1.23-3.09-.29-5.88-1.85-8.51L510.65,361c-.68-1.15-1.38-2.44-2.72-2.92a3.61,3.61,0,0,0-2-.08,7.21,7.21,0,0,0-1.32-4.08c-2.9-4.19-8.59-6.53-13.41-7.55A32.52,32.52,0,0,0,472.61,348a16.33,16.33,0,0,0-1.7-3.55,44.23,44.23,0,0,0-2.93-4.4,29,29,0,0,0-8.93-7.67c-1.7-.94-3.59-1.75-4.61-3.5-.93-1.59-1.32-3.45-2.09-5.12A22.39,22.39,0,0,0,437.56,312c-.39-.1-.79-.19-1.19-.27l-.86-3.26a1.51,1.51,0,0,0-1.84-1,1.53,1.53,0,0,0-1.05,1.84l.55,2.08a21.13,21.13,0,0,0-5.32.42c-1.43.3-3.58,1.38-4.73.92a5.1,5.1,0,0,1-1.83-1.45,24.54,24.54,0,0,1-3.69-6c-1.23-2.55-2.26-5.19-3.24-7.84-1.66-4.51-3-9.2-4.85-13.62-2.8-6.53-5.72-13.09-8.94-19.5l.65-.57a1.49,1.49,0,0,0-2.05-2.17,148.38,148.38,0,0,0-14-22.37,91.54,91.54,0,0,0-17.51-17.66,33.4,33.4,0,0,1,3.06-2.77,1.5,1.5,0,0,0,0-2.12,1.54,1.54,0,0,0-2.12,0,32.7,32.7,0,0,0-3.41,3.14,55.75,55.75,0,0,0-14.8-7.18c-1.28-.4-2.58-.72-3.88-1,0-.07,0-.13,0-.2-1.42-7.88-2.89-15.76-4.35-23.64q-2.36-12.69-4.72-25.38l-.78-4.15q11.89-6.64,23.71-13.4a1.52,1.52,0,0,0,0-2.59c-7.94-5.8-15.78-11.74-23.63-17.66q-6.21-4.69-12.44-9.36c-4-3-7.91-6.25-12.24-8.74a33.18,33.18,0,0,0-8.94-3.62,19.74,19.74,0,0,0,4.83-3.59c4.41-4.48,6.41-18.86-2.69-26.08C297.94,92.73,284.17,83.51,269.4,96c-11.31,9.58-4.51,33.41,4.23,43.91a14.62,14.62,0,0,0-9.72,6.76,14.82,14.82,0,0,0,3.61,18.59,14.25,14.25,0,0,0,8.42,2.88c-1.95,14-4.81,27.77-7.59,41.59a1.4,1.4,0,0,0-.29,0,84.78,84.78,0,0,0-12.6,2.35c-.32-.49-.64-1-.94-1.48a1.5,1.5,0,0,0-2.59,1.52c.16.27.35.54.52.81a102.57,102.57,0,0,0-25.31,11.75,128.66,128.66,0,0,0-19.91,15.68c-.19-.2-.39-.39-.56-.6l-.29-.34-.08-.11,0,0-.06-.07,0,.05c-.19-.24-.37-.5-.54-.76a1.5,1.5,0,0,0-2.59,1.52,18.75,18.75,0,0,0,2,2.4,139.61,139.61,0,0,0-11.32,12.77,135.91,135.91,0,0,0-12.34,18.56q-2.59,4.71-4.76,9.63c-.71,1.63-1.33,3.48-2.59,4.78s-3.22,1.8-4.95,2.3a21,21,0,0,0-7.82,4,31.25,31.25,0,0,0-5.46,6.24c-3.22,4.61-5.66,9.76-9.18,14.16a21,21,0,0,1-5.86,5.28c-2.75,1.57-6.25,1.65-8.69,3.74-5.25,4.48.81,10.25,3.17,14.32a10,10,0,0,1,.87,1.84,42.61,42.61,0,0,0-17.33-2.79,28.39,28.39,0,0,0-15.76,5.91,19.49,19.49,0,0,0-5.51,6.5A9.6,9.6,0,0,0,96.8,352a5.06,5.06,0,0,0-2.91.59c-2.84,1.56-4.34,5.34-5.56,8.16s-2.57,6.06-2.06,9.24,3.31,4.87,6.45,4.82a52.66,52.66,0,0,0,5.32-.54l1.46-.17L97.44,376a49.18,49.18,0,0,1-6.93,5.06A58.19,58.19,0,0,0,78.18,391.4c-1.57,1.79-2.94,4.25-.92,6.29,1.76,1.79,4.53,1.79,6.81,1.28a30.34,30.34,0,0,0,3-.89,4.6,4.6,0,0,0,.15,1.47c.62,2.18,2.94,3.16,5,3.18,2.48,0,4.78-1.21,6.9-2.36l1.54-.86a5.69,5.69,0,0,0,4.34,2.88c3.08.37,5.71-1.32,8.19-2.89,8.93-5.64,18.36-10.51,27.29-16.16a54.53,54.53,0,0,0,4,5.41c.31-.4.61-.81.93-1.2a27.39,27.39,0,0,0,2,2.27c-.3.38-.58.78-.86,1.18a20.88,20.88,0,0,0,4.71,3.44,22.42,22.42,0,0,0,16.47,1.89c5.6-1.63,9.95-5.76,13.68-10.05s7.36-8.92,11.74-12.76a56.69,56.69,0,0,1,12.67,1.11c8.52,1.63,16.72,4.55,25,7.17,4.2,1.33,8.42,2.6,12.7,3.6a120.81,120.81,0,0,0,12.25,2c7.84,1,15.71,1.88,23.45,3.57a73.29,73.29,0,0,1,22,8.14c3.41,2,6.33,4.6,9.54,6.9,3,2.15,6.32,3.39,10,2.79,6.28-1,10.64-6.41,16.53-8.39,3.89-1.3,7.5-.09,11,1.68,4.33,2.15,8.61,4.4,12.91,6.61l8.89,4.56c-2,.58-4.06,1.17-6.07,1.83-4.85,1.58-9.6,3.45-14.28,5.49-9.42,4.11-18.49,9-27.54,13.81-7.65,4.09-15.55,8.39-21.46,14.89a34.85,34.85,0,0,0-3.77,4.94c-.54.86-.89,1.45-.47,2.44a9.16,9.16,0,0,0,.43.82,77.86,77.86,0,0,0-.16,13.31,19.17,19.17,0,0,1-12.56,3.2c-.07-.39-.16-.77-.26-1.14a1.67,1.67,0,0,0-.29-.87c-2.14-5.68-8.93-8.64-14.76-9.37-9.57-1.2-19.32,1.49-28.7,3a71.74,71.74,0,0,1-11.33,1.1l-2.32-.32a19.6,19.6,0,0,0,2.13.33c-.9,0-1.8,0-2.7-.07a33.33,33.33,0,0,1-7.21-1.2c-.63-.18-1.25-.37-1.87-.58a16.28,16.28,0,0,1-3.64-1l-1.39-.78-.16-.06a22.05,22.05,0,0,0-7.46-1.21,24.86,24.86,0,0,0-7.32,1.5,44.4,44.4,0,0,0-11.76,6,24.94,24.94,0,0,0-8.1,9.38,19.88,19.88,0,0,0-1.54,11.41c1.21,7.86,6.67,14.95,13.48,18.88,8.27,4.77,18.26,5.48,27.58,4.7,9.16-.76,18.11-3,27.22-4.15.38.27.75.53,1.13.78a1.41,1.41,0,0,0,2.18-1.13l.53-.06a73.25,73.25,0,0,1,15.8.49c5.36.71,10.69,1.7,16.09,2,7.86.38,16.46-1.57,22.89-6.25a22.12,22.12,0,0,0,3.25-2.85q1,2,2.11,3.92a80.4,80.4,0,0,0,16,19.69c2.78,2.48,7.8,6.72,11,2.44,1.17-1.55,1.33-3.53,1.74-5.36a30.7,30.7,0,0,1,1.77-5.53c3.16-7.32,8.92-13.18,15.14-18l.19-.15a1.36,1.36,0,0,0,1.12-.17c3.42-2.08,7.61-.57,11.2.21a24.77,24.77,0,0,0,6.24.68,34.88,34.88,0,0,0,6.26-1c4.12-1,8.13-2.13,12.42-1.77a36.7,36.7,0,0,1,11.47,3.38c2.55,1.13,5.05,2.32,7.56,3.46a10.41,10.41,0,0,0,3.38,6.64,10.08,10.08,0,0,0,9.43,2,7.66,7.66,0,0,0,4.24-3.45,44.14,44.14,0,0,0,22.76-3.82c3.34-1.55,6.61-3.69,8.62-6.86a14.63,14.63,0,0,0,1.81-9.89A27.67,27.67,0,0,0,450,471.61c-.62-.48-1.27-.93-1.94-1.36q8.7-.76,17.29-2.36a148.76,148.76,0,0,0,15.29-3.59c4.22-1.25,7.74-3.36,9.1-7.79a62.94,62.94,0,0,0,1.48-7.07c.43-2.42.82-4.85,1.14-7.28a93,93,0,0,0,.87-14.72,58.8,58.8,0,0,0-2.62-16.18,16.57,16.57,0,0,0,4.44,2c2.54.66,5.94.15,6.6-2.84.42-1.86-.64-3.83-1.41-5.46-.33-.71-.7-1.39-1.09-2.07,1.6,1,3.22,2.07,4.86,3a23.39,23.39,0,0,0,5.86,2.8c3.47.88,7.85-.69,8.32-4.68a4,4,0,0,0,0-1.29,13.69,13.69,0,0,0,4.48,1.62,5.63,5.63,0,0,0,4.86-1.17A4.89,4.89,0,0,0,528.34,397.58ZM278.93,168.33c0-.14,0-.27,0-.41a14,14,0,0,0,7.49-3.75,1.5,1.5,0,0,0-2.1-2.14,11.38,11.38,0,1,1-3.62-18.64,1.5,1.5,0,0,0,1.15-2.77c-.26-.11-.53-.19-.79-.28l1.66-.41c7.08-7.49,3.5-15.47,4-22.26.77-9.4,5.26-10.76,10.68-12.58h0c9.74.11,17.31,6.7,24.71,12.22,7.95,5.94,15.86,11.95,23.8,17.92q5.42,4.07,10.87,8.08c-7.53,4.28-15.06,8.56-22.63,12.78a1.53,1.53,0,0,0-.69,1.69q1.39,7.44,2.77,14.88,2.6,13.91,5.17,27.82c.68,3.71,1.37,7.43,2,11.15a1.81,1.81,0,0,0-.33.5c-4.62,2.5-8,6.41-11.74,10.11a29.77,29.77,0,0,1-14.18,8.23,30.13,30.13,0,0,1-16-.53c-5.79-1.81-10.05-5.65-14.4-9.71a85.21,85.21,0,0,0-8-6.7,16.68,16.68,0,0,0-7.49-3.3C274.11,196.31,277,182.41,278.93,168.33Zm5.93,340.27c-9.47.9-18.88-2.07-28.3-2.54a70.32,70.32,0,0,0-11.78.52,26.39,26.39,0,0,1-6.51-7.41c-1.76-3-2.52-7.16-5.3-9.46a7.23,7.23,0,0,1,6.7,1.94c2.3,2.14,3.61,5.09,4.89,7.9a1.54,1.54,0,0,0,2.06.54,1.56,1.56,0,0,0,.54-2.06c-1.47-3.21-3-6.63-5.84-8.92s-6.4-3.45-9.74-2.12l-.18.09a11.18,11.18,0,0,0,1.19-3.37,7.85,7.85,0,0,0-4.62-8.82c-3.84-1.48-7.39,1.37-8,5.16-.72,4.22,1.87,7.63,4.59,10.55l0,.06c-2.33,2.16-4.77,4.18-6.52,6.9a20.49,20.49,0,0,0-2.4,5.31c-.48,1.65-1.12,3.82.07,5.3,2.23,2.8,6.63.17,8.53-1.71a11.81,11.81,0,0,0,3.55-8.64c0-1.73-1-3.67-.69-5.37,0,0,0-.07,0-.11.37-.35.73-.7,1.09-1.07a3.3,3.3,0,0,1,2,.21c1.75.76,2.58,2.88,3.26,4.52a36.16,36.16,0,0,0,2.75,5.54,29.38,29.38,0,0,0,4.61,5.57c-13.77,2.08-27.48,6-41.28,2.83-7.91-1.85-14.87-6.32-18.74-13.61-3.57-6.72-3.24-14.62,1.84-20.49a30.88,30.88,0,0,1,9.5-7.11c3.93-2,8.39-3.87,12.87-3.84,4.79,0,9.13,2.5,13.68,3.69A41.92,41.92,0,0,0,232,469.67c9.23-.59,18.17-3.21,27.37-4,4-.35,8.19-.51,12.11.52,3.14.81,6.46,2.33,8.43,5,.09.12.15.25.23.37a117.21,117.21,0,0,0-30.19,5c-1.53.47-1.34,3.17.4,2.95A16.38,16.38,0,0,1,261.24,482c3.1,2,5.94,5.25,6.41,9,.56,4.43-3.49,6.5-6.89,8.19-3,1.5-7.63,3.37-10.65.86-1.47-1.23-3.61.88-2.12,2.12,2.94,2.45,6.64,2.43,10.15,1.32a26.08,26.08,0,0,0,10-5.45c6.26-6.1.16-15.39-5.83-18.93a18.89,18.89,0,0,0-3.72-1.69,114,114,0,0,1,22.77-2.86,7.89,7.89,0,0,1,.1.85,1.51,1.51,0,0,0,1.1,1.45,22.26,22.26,0,0,0,14.64-2.64,83.35,83.35,0,0,0,7.17,25.5C299.71,505.28,291.9,507.94,284.86,508.6ZM223,480.22a3.35,3.35,0,0,1,2.55-2.74,4,4,0,0,1,3.53,2c1.91,3-.22,6.63-2.36,9C224.55,486.27,222.13,483.46,223,480.22Zm.73,22a8.87,8.87,0,0,1-3.52,3.56c-.4.22-1.6.89-2.07.59s.22-2.16.37-2.66a19.62,19.62,0,0,1,5.79-8.75,21.64,21.64,0,0,1,.44,2.38A8.54,8.54,0,0,1,223.69,502.18Zm157.94-6.7c-3.92.92-7.87,2.19-11.95,1.76-3.41-.36-6.7-1.65-10.13-1.83,5.07-3.39,10.38-6.43,15.66-9.44l3.1-1.75a2.29,2.29,0,0,0-.14.27c-1.64,3.95.34,8.56,3.74,10.93Zm41.72,13.9c-2.64,2.05-7,1-8.91-1.56-2.67-3.56-1.77-8.68.38-12.24a40.54,40.54,0,0,1,2.74-3.83c.83,2.29,2.73,4.36,4.26,6.19C424.16,500.75,427.14,506.45,423.35,509.38Zm-6.17-26.46-.84-.54c-1.42-1-3.7-2.62-3.39-4.61.42-2.74,4.8-1.95,5.92-.24a6,6,0,0,1,.68,4.8,3.76,3.76,0,0,1-.75,0A1.65,1.65,0,0,0,417.18,482.92Zm34.34-5.66a26,26,0,0,1,5,8.74,15.05,15.05,0,0,1,.37,9.24c-1.12,3.44-4.24,5.7-7.33,7.29A40.56,40.56,0,0,1,428,506.64a8.58,8.58,0,0,0,0-2.09c-.46-4.5-3.34-7.65-6.08-11-1.14-1.39-2.52-3.65-1.49-5.46l.78.36a1.67,1.67,0,0,0,2.2-1,6.23,6.23,0,0,1,1.56,1.21c1.54,1.63,1.84,3.9,2.31,6a14.46,14.46,0,0,0,2.73,6.34c1.23,1.49,3.34-.65,2.12-2.13-1.41-1.71-1.74-4-2.2-6.14A13,13,0,0,0,427.5,487a8.06,8.06,0,0,0-4-2.59,6.51,6.51,0,0,1,1.9-.35c2.23,0,3.87,2,5.2,3.51a14.55,14.55,0,0,0,5.14,4.24,5.82,5.82,0,0,0,6.33-.7c1.47-1.26-.66-3.37-2.13-2.13s-3.58,0-4.77-1c-1.62-1.27-2.75-3.1-4.26-4.49a8.16,8.16,0,0,0-5.34-2.47,9.65,9.65,0,0,0-2.91.49c.24-3.39-1-6.94-4.49-8.16s-7.94.45-8.18,4.44c-.16,2.58,1.65,4.72,3.56,6.21a30.82,30.82,0,0,0,4.09,2.66c-.5.78-1,1.52-1.52,2.16-2.74,3.57-5.47,6.94-6.11,11.53,0,.24,0,.48-.06.72-1.92-.89-3.84-1.8-5.78-2.66a44.39,44.39,0,0,0-10.79-3.57,24.92,24.92,0,0,0-5.29-.3,1.46,1.46,0,0,0-1.16-.57,6.09,6.09,0,0,1-.85,0l-.21,0-.45-.11-.43-.13-.2-.08a6.73,6.73,0,0,1-.76-.38c-.2-.12-.4-.25-.59-.39l-.23-.19c-.12-.1-.24-.2-.35-.31s-.38-.38-.56-.58c0,0-.25-.33-.23-.29s-.13-.17-.18-.26a7.17,7.17,0,0,1-.46-.75l-.21-.42a1.62,1.62,0,0,1-.08-.2,9.91,9.91,0,0,1-.45-1.59v0s0-.1,0-.15,0-.31,0-.46,0-.52,0-.79v-.06l0-.19.09-.39a7.08,7.08,0,0,1,.31-.88,1.52,1.52,0,0,0-1.05-1.85l-.22,0c7.24-4,14.71-7.59,22.69-9.8,10.22-2.84,20.76-2.51,31.26-2.63q4.42,0,8.83-.32c.42.22.85.42,1.27.65A25.31,25.31,0,0,1,451.52,477.26ZM488.9,445.1c-.37,2.36-.8,4.71-1.27,7-.42,2.13-.72,4.59-2.21,6.27a10.69,10.69,0,0,1-4.88,2.77c-2.26.73-4.58,1.29-6.89,1.85a174.48,174.48,0,0,1-30.07,4.57c-10.17.65-20.41-.08-30.56,1-9.71,1-18.83,4.19-27.56,8.46a263.75,263.75,0,0,0-23.3,13.12c-6.68,4.15-13.24,8.76-18.6,14.55a40,40,0,0,0-10.22,19.66c-.35,1.76-1,3.7-3.18,2.82-1.93-.76-3.57-2.52-5.07-3.9a77.89,77.89,0,0,1-8.37-9,80.34,80.34,0,0,1-17-45.14,76.91,76.91,0,0,1,.31-11.95,1.21,1.21,0,0,0-.39-1.09l-.09-.17c4.35-6.88,11.18-11.58,18.14-15.56,8.21-4.7,16.66-9.1,25.17-13.23a172,172,0,0,1,27.76-10.85c9-2.57,17.91-4.95,26.05-9.68,9.73-5.66,18.56-13.72,28.62-19a32.76,32.76,0,0,0,4.18,1.91c6.19,2.28,13.23,2.64,19.76,2.11,1.63-.13,3.26-.4,4.9-.51,1.32-.09,2.64.1,3.95,0a3.65,3.65,0,0,0,2.24-.94c4.19,2.32,8.78,3.92,12.87,6.44,4.9,3,8.52,7.53,12.84,11.24a45.16,45.16,0,0,1,3,9C491,426.16,490.37,435.82,488.9,445.1Zm36.64-44.24c-.8,1-2.51.58-3.54.28a21.29,21.29,0,0,1-4.85-2.46l-6.4-3.79-14.06-8.33c-1.68-1-3.11,1.53-1.52,2.59l12.8,8.56c2,1.33,4.1,2.57,6,4,.71.54,1.45,1.21,1.19,2.19a3,3,0,0,1-1.58,1.73c-2,1-4.51-.34-6.29-1.33-2-1.12-4-2.33-5.9-3.58a117.28,117.28,0,0,1-11.55-8.52h0l-.3-.24c-1.35-1-3.12,1.27-1.82,2.36L490,396.2a30.5,30.5,0,0,1,4.33,4.69,24.72,24.72,0,0,1,4.26,7.84c.81,3-3.69,1.36-5,.72a28.36,28.36,0,0,1-6.38-4.54c-4-3.63-7.56-7.79-12.18-10.69-4.42-2.78-9.43-4.44-13.95-7.05a19.52,19.52,0,0,1-6.15-5.17,13.68,13.68,0,0,1-2.44-9.84c.23-1.91-2.77-1.89-3,0-.81,6.54,2.48,12.29,7.64,16-1.06,0-2.15-.12-3.21,0-3.31.25-6.54.68-9.87.66a45.44,45.44,0,0,1-10-1.05,26.5,26.5,0,0,1-13.48-7.47,17.67,17.67,0,0,1-3.87-6.35c-.82-2.47-1.05-5.36-3.63-6.7-2-1.06-4.48-.85-6.75-.82,0-.05-.06-.11-.1-.17a1.51,1.51,0,0,0-2.62.09,45.52,45.52,0,0,1-6.58-.83,34.92,34.92,0,0,1-5.6-1.64c0-.21,0-.43.07-.63-.08.38,0-.06,0-.14s0-.28.07-.42c.09-.52.21-1,.34-1.54a1.5,1.5,0,1,0-2.89-.8,20.93,20.93,0,0,0-.44,2.23,23.08,23.08,0,0,1-5.88-4.31c-8.35-8.58-8.36-22-8.26-33.18a1.5,1.5,0,0,0-3,0c-.1,10.69,0,22.75,6.35,31.89a26.07,26.07,0,0,0,10.55,8.76c0,.46,0,.92,0,1.38a1.53,1.53,0,0,0,1.5,1.5,1.5,1.5,0,0,0,1.5-1.5V367a44.93,44.93,0,0,0,13.12,2.38,29.7,29.7,0,0,1,.84,24.66c-.74,1.78,2.16,2.55,2.89.79a32.41,32.41,0,0,0-.39-25.38,9.05,9.05,0,0,1,3.56.33c1.42.59,1.64,2.23,2,3.55a20.37,20.37,0,0,0,3.42,7.13,25.47,25.47,0,0,0,5.62,5.4c-6.52,3.62-12.46,8.21-18.54,12.49a105.42,105.42,0,0,1-11.32,7.12,74.78,74.78,0,0,1-13.65,5.34c-1.49.45-3,.88-4.49,1.3-8.43-4.34-16.79-8.87-25.34-13-3.68-1.77-7.57-2.92-11.63-1.85-3.15.83-5.93,2.66-8.63,4.41s-5.27,3.56-8.36,4.16c-3.77.74-6.94-1.39-9.76-3.64a65.72,65.72,0,0,0-10-6.85,68.11,68.11,0,0,0-11.06-4.69,132.53,132.53,0,0,0-23.74-5c-8.38-1.13-16.75-1.89-24.94-4.07-8.73-2.32-17.19-5.51-25.9-7.92A94.42,94.42,0,0,0,202.24,371c-1.75-.23-3.49-.36-5.22-.42a38.93,38.93,0,0,1,12.67-5.79c5.83-1.48,11.86-2.1,17.57-4.05a29.87,29.87,0,0,0,8.9-4.72,39.1,39.1,0,0,0,6.88-7.31,55,55,0,0,0,9.22-19.35c.47-1.87-2.42-2.67-2.9-.8a52.54,52.54,0,0,1-7.4,16.52c-3.28,4.84-7.31,9.18-12.68,11.66-5.14,2.37-10.88,3.12-16.37,4.25a46.29,46.29,0,0,0-16,6,59.67,59.67,0,0,0-12.73,11.48c-3.54,4.12-6.81,8.7-11.25,11.93a18.37,18.37,0,0,1-15.33,3.14,20.29,20.29,0,0,1-7.14-3.25,25.66,25.66,0,0,1-5.68-6.3c-.55-.78-1.11-1.56-1.66-2.35,1.68-1.11,3.36-2.25,5-3.45,2.72-2,5.53-4,7.46-6.84s2.7-6.32.46-9c-1.22-1.49-3.34.64-2.12,2.12,1.53,1.86-.41,4.89-1.66,6.33a34.59,34.59,0,0,1-6,5.1c-4.53,3.28-9.29,6.22-14.11,9.05-5,2.91-10,5.7-14.94,8.63-2.43,1.44-4.79,3-7.21,4.43a9.11,9.11,0,0,1-3.38,1.39c-.91.12-2.83,0-3.11-1.16a.62.62,0,0,1,0-.33c.73-.44,1.47-.87,2.2-1.33a135.93,135.93,0,0,0,14-10c1.32-1.07-.41-3.3-1.82-2.35l-9.54,6.38-4.56,3.05a9.73,9.73,0,0,0-2.52,2.17c-1.7,1-3.41,1.9-5.15,2.76-1.4.69-4.44,2-5.73.44-.5-.62-.27-1.51.19-2.37a59.2,59.2,0,0,0,7.28-4,56.92,56.92,0,0,0,12.88-11.3c1-1.2-.37-3.47-1.82-2.36-6.48,5-14.79,7.74-19.78,14.53l-.42.59-1.19.53c-1.93.77-4.18,1.8-6.31,1.61-.6-.06-1.93-.34-1.92-1.12s1.53-2.13,2.11-2.75a57.7,57.7,0,0,1,11.08-9,51.08,51.08,0,0,0,6.51-4.71c2-1.82,3.88-3.89,6.2-5.4,1.12-.73.83-3-.76-2.79-3.37.39-6.73.82-10.1,1.17-2.34.24-5,.13-5.1-2.79-.13-2.61,1.15-5.36,2.22-7.68a37.75,37.75,0,0,1,1.91-3.68c.61-1,1.45-2.37,2.74-2.59a2.12,2.12,0,0,1,1,.07,3.9,3.9,0,0,0,1.08,1.56,4.07,4.07,0,0,0,1.16.72,5.08,5.08,0,0,1,.12,2.61c-.41,2.47-.92,5.58,1.55,7.23s5.11.21,7.4-.78a50,50,0,0,0,8.26-4c3.75-2.53,8-7.56,5.94-12.4-2.48-5.81-9.42-.79-12.61,1.43a18.13,18.13,0,0,1-7.94,3.28,3.91,3.91,0,0,1-.76,0c-.14-.19-.27-.38-.43-.56a6.27,6.27,0,0,0-1-1,5.56,5.56,0,0,1,.89-2.8c2.7-4.46,7.44-7.49,12.35-9,6.57-2,13.57-1.21,20,.81q2.43.76,4.8,1.74a11.46,11.46,0,0,1,4.13,2.48c1.94,2.08,2.27,5.23,2.57,7.93.21,1.9,3.21,1.92,3,0-.31-2.83-.66-5.79-2.13-8.29-1.37-2.33-3.55-3.61-5.93-4.65-.22-2.69-1.68-5-3.23-7.15-1.18-1.65-3.43-4-3.18-6.21.35-3,5-3.33,7.17-4.25a20,20,0,0,0,6.52-4.44c4-4,6.59-9,9.52-13.75,2.74-4.43,5.92-9,10.82-11.26,3.11-1.4,6.81-1.52,9.25-4.18a16.93,16.93,0,0,0,2.79-4.91q1-2.36,2.15-4.67a130.05,130.05,0,0,1,11-18.4,137.5,137.5,0,0,1,15-17.69,19.41,19.41,0,0,0,1.75,1.21,1.5,1.5,0,1,0,1.51-2.59c-.25-.15-.5-.31-.74-.48l-.35-.24a129.16,129.16,0,0,1,14.19-11.73,103.33,103.33,0,0,1,30.57-15.13,39.18,39.18,0,0,0,4.34,5,1.5,1.5,0,0,0,2.12-2.12,37.41,37.41,0,0,1-3.38-3.74c1.86-.47,3.74-.88,5.63-1.21,1.71-.31,3.43-.55,5.15-.73a1.6,1.6,0,0,0,.33-.07,1.31,1.31,0,0,0,1.11.46c3.08-.11,5.71,1.45,8.11,3.23a85.06,85.06,0,0,1,7.38,6.29c4.49,4.2,9,8,14.9,10a32.54,32.54,0,0,0,31.13-6c4.84-4.19,8.54-9.45,14.33-12.35a53,53,0,0,1,17.79,7.69,33.4,33.4,0,0,0-2.2,3.06,1.51,1.51,0,0,0,.54,2,1.53,1.53,0,0,0,2-.54c.49-.77,1-1.53,1.56-2.26,0,0,.1-.14.12-.15l.12-.16.25-.31a81.39,81.39,0,0,1,14,13.2,138.78,138.78,0,0,1,17.22,26.66l-2.29,2a1.51,1.51,0,0,0,0,2.12,1.54,1.54,0,0,0,2.12,0l1.56-1.37c2.27,4.56,4.4,9.18,6.49,13.81,1.15,2.56,2.17,4.71,3.07,7.22.82,2.29,1.58,4.59,2.37,6.88a88.68,88.68,0,0,0,6.36,15.19,17,17,0,0,0,3.89,4.93,5.91,5.91,0,0,0,2.64,1.3c1.91.32,3.69-.64,5.51-1.05a17.74,17.74,0,0,1,5.49-.3l.33,1.27a1.49,1.49,0,0,0,2.91-.66,20.45,20.45,0,0,1,8.62,4.85,20.17,20.17,0,0,1,4.91,8.07,10.65,10.65,0,0,0,2.86,4.65,36.28,36.28,0,0,0,5,3.05,26.12,26.12,0,0,1,8.1,7.77,35.41,35.41,0,0,1,2.6,4.39,5.33,5.33,0,0,1,.54,1.55,28.66,28.66,0,0,0-9.14,7.32c-1.21,1.49.79,3.53,2.12,2.12,7.2-7.59,19.56-10.36,24.62-9.9a24.24,24.24,0,0,1,12.95,4.94c1.76,1.46,3.44,3.84,2.08,6.12-1.48,2.51-5.21.05-7.11-.73-3.07-1.27-6.12-2.69-9.26-3.8-2.43-.85-5.12-.55-6.57,1.78a6.54,6.54,0,0,0-.11,6.44c1.26,2.42,3.7,4,5.92,5.4q3.94,2.53,8.07,4.74c1.38.74,2.76,1.45,4.17,2.12a7.11,7.11,0,0,0,4.44,1,5.21,5.21,0,0,0,3.86-4.17c.59-2.46-.09-4.72-.5-7.14-.21-1.23-.4-2.77.35-3.87,1.22-1.79,2.13.53,2.74,1.55,1.94,3.26,3.92,6.51,5.84,9.79.73,1.27,1.55,2.68,1.26,4.2a5.07,5.07,0,0,1-2.29,3.14c-2.92,1.9-6.65,1.07-9.77.19-1.88-.53-2.61,2.26-.8,2.89a56.81,56.81,0,0,1,21.07,12.95C524.74,397.29,526.72,399.4,525.54,400.86Zm-423.1-43.09,0-.16a21.77,21.77,0,0,0,4-1.05c2.85-1,5.08-2.74,7.54-4.39,1.51-1,5.44-3.51,6-.39.48,2.66-1.64,5.27-3.5,6.89-2.42,2.12-5.52,3.33-8.45,4.57a22.08,22.08,0,0,1-3.9,1.53c-1.73.36-2.27-.82-2.14-2.37S102.65,359.36,102.44,357.77Zm399.88,15.55c-.77.91-1.92.51-2.85.11-1.7-.73-3.35-1.65-5-2.53-3-1.62-5.93-3.35-8.76-5.24-2-1.32-4.64-3.27-4.05-6,.74-3.44,5-.88,6.9-.08,3.29,1.36,6.6,3,10,4.09a6,6,0,0,0,3.65,0,15.88,15.88,0,0,0,.27,2.78C502.88,368.51,503.89,371.5,502.32,373.32ZM293.14,137.62a8.8,8.8,0,0,1,4.28-6.69c2.57-1.63,5.7-2,8.67-2.18a1.5,1.5,0,0,1,0,3,15.42,15.42,0,0,0-6.86,1.59,7,7,0,0,0-2.11,1.85,6.29,6.29,0,0,0-.41.64l-.16.3-.06.12s0,0,0,.06a5.67,5.67,0,0,0-.33,1.31,1.5,1.5,0,0,1-3,0Zm3.75-24.6a1.52,1.52,0,0,1,.54-2,12.42,12.42,0,0,1,10.47-.91A1.54,1.54,0,0,1,309,111.9a1.51,1.51,0,0,1-1.85,1,8.9,8.9,0,0,0-4.26-.62l-.43,0-.39.07a9.83,9.83,0,0,0-1.19.29l-.51.17L300,113a10.4,10.4,0,0,0-1.05.54A1.54,1.54,0,0,1,296.89,113Zm12.33,10.65a13.37,13.37,0,0,1,4.25-4.28c2.1-1.13,4.36-.74,6.56-.15a1.5,1.5,0,0,1-.79,2.89c-.45-.12-.89-.24-1.34-.33a5.13,5.13,0,0,0-1.13-.16,5,5,0,0,0-.67,0H316l-.31.06-.41.13-.4.2-.44.28c-.14.1-.16.11-.05,0l-.23.19a9.38,9.38,0,0,0-.85.82,13.43,13.43,0,0,0-1.48,1.82,1.53,1.53,0,0,1-2.05.53A1.5,1.5,0,0,1,309.22,123.67ZM217,464.93c-1.68-.57-3.34-1.21-5-1.76-3.28-1.86-6.55-3.7-9.93-5.37a157.57,157.57,0,0,0-24.82-9.68q-6.48-1.92-13.1-3.31c-4.11-.87-8.27-1.48-12.39-2.25-7-1.32-15.09-3.5-18.89-10.18-3.92-6.89-1.56-15.36,1.05-22.27,2.68-7.09,5.62-14.36,10.06-20.56.2-.28.41-.53.62-.8.67.78,1.36,1.54,2.1,2.25a54.66,54.66,0,0,0-4.87,8.13c-1.65,3.36-3.07,6.82-4.44,10.3A52.16,52.16,0,0,0,134,420.49c-.57,3.55-.39,7.38,1.47,10.53a15.56,15.56,0,0,0,8,6.24,55.77,55.77,0,0,0,11,2.75c4.09.71,8.18,1.39,12.24,2.29a162.82,162.82,0,0,1,25,7.67,180.11,180.11,0,0,1,22.79,11.18,47.33,47.33,0,0,0,11.5,5.16l.65.14C224.05,466.09,220,465.51,217,464.93ZM317.47,186.57a1.57,1.57,0,0,1-1.85,1.05,26.36,26.36,0,0,1-19.32-14c-.86-1.73,1.73-3.24,2.6-1.52a23.52,23.52,0,0,0,17.52,12.62A1.52,1.52,0,0,1,317.47,186.57ZM162.74,327.94a1.52,1.52,0,0,1,0,2.12,1.54,1.54,0,0,1-1.07.44,1.63,1.63,0,0,1-1.06-.44c.33.25-.06-.05-.13-.09s-.23-.17-.35-.25-.48-.32-.73-.48a16.21,16.21,0,0,0-1.48-.8l-.34-.16-.14-.07a6.26,6.26,0,0,0-.82-.31,15.86,15.86,0,0,0-1.66-.5,1.5,1.5,0,1,1,.8-2.89A18.68,18.68,0,0,1,162.74,327.94Zm77-65q-.33,4.06-.64,8.11a1.54,1.54,0,0,1-1.5,1.5,1.51,1.51,0,0,1-1.5-1.5q.31-4.05.64-8.11a1.5,1.5,0,0,1,3,0Zm49.45-137.3a1.67,1.67,0,0,1-.15-1.16,22.2,22.2,0,0,1,2.83-8.09,1.5,1.5,0,0,1,2.59,1.51,17.61,17.61,0,0,0-1,1.83c-.07.13-.13.27-.19.41s-.09.22-.1.24c-.12.32-.24.64-.35,1a21.32,21.32,0,0,0-.94,3.94,1.51,1.51,0,0,1-2.74.36ZM146.76,360.85a1.54,1.54,0,0,1-1.5,1.5,36.39,36.39,0,0,0-11.39,3.41,37.57,37.57,0,0,0-5.22,3.1c-1.43,1-3.07,2.21-3.73,3.89s-3.61,1-2.9-.8a11.76,11.76,0,0,1,4.22-5,38,38,0,0,1,5.79-3.6,40.68,40.68,0,0,1,13.23-4A1.51,1.51,0,0,1,146.76,360.85Zm132.79-13.74a1.5,1.5,0,0,1-2.89.8l-1.29-5.77a1.5,1.5,0,1,1,2.89-.79Zm-75.77-6.72q-1.49,5.49-3,11a1.5,1.5,0,1,1-2.9-.8l3-11a1.5,1.5,0,0,1,2.89.8ZM290,278.94a1.53,1.53,0,0,1-1.85,1.05l-4.05-1.17a1.5,1.5,0,1,1,.8-2.9l4.05,1.17A1.54,1.54,0,0,1,290,278.94Zm63.42,64.52a1.53,1.53,0,0,1,0,2.12,1.51,1.51,0,0,1-2.12,0c-1.37-1.53-2.73-3.07-4.09-4.6a1.53,1.53,0,0,1,0-2.12,1.51,1.51,0,0,1,2.12,0Zm-67.58-190a1.51,1.51,0,0,1-2.05.54,13.65,13.65,0,0,0-11.67-2.16,1.5,1.5,0,0,1-.8-2.89,16.54,16.54,0,0,1,14,2.46A1.53,1.53,0,0,1,285.86,153.45Zm64.84,98.66-5.23,7.52a1.54,1.54,0,0,1-2.05.54,1.51,1.51,0,0,1-.54-2.05l5.23-7.53a1.52,1.52,0,0,1,2.05-.53A1.51,1.51,0,0,1,350.7,252.11Z"/>
  </g>
</svg>
