<svg id="_505" data-name="505" xmlns="http://www.w3.org/2000/svg" viewBox="0 0 647.12 621.02"><defs><style>.cls-1{fill:#f5baae;}.cls-2{fill:#fff;}</style></defs><path d="M230.45,180.72,148.5,154.47,122.57,207a120,120,0,0,1,17.93,4.29c16.52,5.29,31.88,14.21,42.56,26.38,13.78,15,21.73,37.93,13.05,65-13.44,42-56.87,62.66-103.46,47.74C69.19,342.92,51.48,330,43.36,320.08l14.36-19.81c7.23,8.14,22.62,20.36,42.12,26.6,27.42,8.79,56.59-1.54,65.8-30.29,8.56-27.86-3.59-53.61-46.54-67.37A234.5,234.5,0,0,0,88.62,222l46.9-98.65,102.76,32.92Z"/><path d="M388.66,320.3c-23.4,73-63.4,104.65-111,89.41-42-13.44-57.78-61.87-35.69-133.12,23.07-72,66.84-101.73,110.45-87.76C397.71,203.33,410.57,251.9,388.66,320.3ZM271,286.24c-17.89,55.84-10.87,93.06,15.57,101.53,29.74,9.53,55.06-20.62,72.63-75.47,16.93-52.86,14.5-91.9-15.57-101.53C318.15,202.62,289.7,227.75,271,286.24Z"/><path d="M558.16,374.59c-23.4,73-63.4,104.66-111,89.41-42-13.44-57.79-61.86-35.69-133.11,23.07-72,66.83-101.73,110.45-87.76C567.2,257.63,580.06,306.2,558.16,374.59Zm-117.7-34.06C422.57,396.37,429.59,433.6,456,442.06c29.73,9.53,55.05-20.61,72.62-75.46,16.94-52.87,14.51-91.9-15.56-101.53C487.65,256.92,459.19,282.05,440.46,340.53Z"/><g id="hand_2" data-name="hand 2"><path class="cls-1" d="M158.89,378.83c-10-9.31-30.07-26.91-40.9-23.09s-54.57,32.87-66.07,48.81c-10.9,15.11-1.78,86.94-1.78,86.94L12.21,517.9C20.86,556.53,37.93,588.1,80,621l41.21-26.87s49.28-13.11,36.58-78.8c0,0,16.73-16,16.67-44.61a38.73,38.73,0,0,0,4.68-29.6C191.4,421.1,168.85,388.14,158.89,378.83Z"/><path d="M174.79,400.74l-3-2.48-16.53,57,19.43,15.16c20-6.72,10.47-27.11,10.47-27.11C192.16,431.81,196,413.45,174.79,400.74Z"/><path d="M113.6,433.12l19-43.71s-26.45,6.68-26.51,18.37S113.6,433.12,113.6,433.12Z"/><path d="M141.1,541.33l-1.69-1.07c.09-.14,9-14.18,23.79-33.47l1.59,1.22C150.09,527.22,141.18,541.19,141.1,541.33Z"/></g><g id="tape"><polygon class="cls-2" points="405.43 140.17 84.52 339.64 121.5 426.12 442.42 203.59 405.43 140.17"/><path d="M120.84,428.4,82.63,339.05,406,138.08,444.41,204l-1.14.79ZM86.4,340.24l35.76,83.6,318.26-220.7-35.5-60.88Z"/><polygon points="178.35 386.69 189.05 274.67 145.99 301.43 137.32 415.15 178.35 386.69"/><polygon points="390.71 149.32 344 178.35 348.17 268.94 395.63 236.03 390.71 149.32"/><polygon points="296.85 207.66 237.14 244.77 227.69 352.48 295.1 305.74 296.85 207.66"/><rect class="cls-2" x="159.67" y="299.58" width="31.98" height="6.87" transform="translate(-158.13 409.13) rotate(-77.54)"/><path d="M247.57,251.16a4.46,4.46,0,1,0-4.46-4.46A4.47,4.47,0,0,0,247.57,251.16Z"/><path d="M260,328.57a4.94,4.94,0,1,0-4.94,4.94A4.94,4.94,0,0,0,260,328.57Z"/><path class="cls-2" d="M368.52,179.55a4.23,4.23,0,1,0-4.23,4.22A4.23,4.23,0,0,0,368.52,179.55Z"/><polygon class="cls-2" points="388.04 153.58 384.96 152.9 380.55 155.63 374.43 183.32 381.14 184.8 388.04 153.58"/><polygon class="cls-2" points="346.77 238.67 365.46 246.1 368 239.72 346.43 231.14 346.77 238.67"/><polygon class="cls-2" points="392.83 186.62 369.11 200.32 344.06 179.73 344.28 184.37 365.93 202.16 347.44 212.83 350.26 217.71 370.57 205.98 395.07 226.11 394.8 221.43 373.76 204.14 393.19 192.92 392.83 186.62"/><polygon class="cls-2" points="234.25 277.72 246.93 279.5 247.88 272.69 234.85 270.87 234.25 277.72"/><polygon class="cls-2" points="259.68 248.58 266.52 247.99 264.76 227.61 258.21 231.68 259.68 248.58"/><polygon class="cls-2" points="281.23 277.98 295.6 277.98 295.65 274.7 281.23 274.7 281.23 277.98"/><polygon class="cls-2" points="272.89 247.95 295.8 266.78 295.92 259.59 276.46 243.6 272.89 247.95"/><polygon class="cls-2" points="252.41 335.34 255.8 332.99 230.13 324.67 229.84 328.02 252.41 335.34"/><polygon class="cls-2" points="265.06 284.57 262.25 279.69 239.02 293.1 233 291.99 231.97 303.67 240.04 299.01 287.61 307.76 288.63 302.22 247.57 294.67 265.06 284.57"/><polygon class="cls-2" points="179.29 376.86 153.19 375.31 152.99 378.75 178.97 380.28 179.29 376.86"/><polygon class="cls-2" points="159.61 399.69 164.42 396.35 140.26 376.5 139.74 383.36 159.61 399.69"/><polygon class="cls-2" points="142.74 344.07 149.79 361.05 156.13 358.41 143.89 328.94 142.74 344.07"/><polygon class="cls-2" points="184.27 324.7 174.74 330.21 145.62 306.27 145.3 310.47 171.56 332.05 153.07 342.72 155.89 347.6 176.21 335.87 182.7 341.2 183.09 337.07 179.39 334.03 183.62 331.59 184.27 324.7"/></g><g id="hand_1" data-name="hand 1"><path d="M441.06,208.55s15.42,36.94,78.89,10.52,68.57-79.19,68.57-79.19-69.81-39.15-94.7-28.38-60,59-62.24,76.65S441.06,208.55,441.06,208.55Z"/><path class="cls-2" d="M452.81,196.92s16.17,30.16,56.8,14.89,60.7-51.4,59.93-64.32S507.38,130,492,132.44s-28.87,20.66-31.41,31.36S452.81,196.92,452.81,196.92Z"/><path d="M488.05,217.6a42.48,42.48,0,0,1-36.56-20l-.27-.5.13-.55s5.27-22.43,7.8-33.13c2.75-11.56,16.82-30,32.64-32.49,14.13-2.25,63.64,1.16,76,11.12,2,1.62,3.09,3.41,3.21,5.32.38,6.38-4,18.84-14.77,32.31a107.12,107.12,0,0,1-46.13,33.51A63,63,0,0,1,488.05,217.6Zm-33.64-20.91c2.29,3.84,18.12,27.45,54.67,13.72,40.47-15.21,59.67-50.93,59-62.83a4.75,4.75,0,0,0-2.09-3.16c-11.61-9.32-60.3-12.63-73.69-10.5-14.38,2.29-27.69,19.71-30.19,30.22C459.78,173.83,455.25,193.12,454.41,196.69Z"/><path class="cls-2" d="M404.94,140.07s-6.59-35.82,26.53-45,49.41,31.6,49.41,31.6l-51.16,60.11Z"/><path d="M429.43,189.39l-25.92-48.82,0-.23c-.07-.37-6.45-37.27,27.59-46.76s51,32.07,51.21,32.49l.33.84Zm-23.05-49.81L430,184.09l49.12-57.72c-2.52-5.62-18.39-37.94-47.26-29.9-13.18,3.67-21.46,12-24.63,24.9A49.39,49.39,0,0,0,406.38,139.58Z"/><path d="M458.75,99a32.78,32.78,0,0,0-27.24-4c2.34,19.07,6.92,50.49,13.91,73.27l20.17-23.7C462.93,131,459.8,113,458.75,99Z"/><path class="cls-1" d="M477.18,135c2.92,5.36-4.41,14-38.23,32.68s-37.64,35-24.68,53.87c8.77,12.82,35.54-11.72,43.93-13.87s34.34-22.3,53.55-28.28,49.93,19.32,97.1-45.8l38.26-12.21c.17-74.3-10-81.23-29.57-116.11l-42.3,13.6s-52.82-26-84.3-17-37.77,14.2-45.45,23.94-25.82,18.57-31.41,31.35c0,0-29.77,14.11-20,38.81s11.48,32.47,11.48,32.47,3.56-19,10.69-23a54.33,54.33,0,0,0,10.37-7.1S454.63,93.52,477.18,135Z"/><path class="cls-1" d="M422,99.66l4.42-1.75c3.11-1.24,5.09-1.2,6.06.11l.66.89L432,98.82a23.86,23.86,0,0,0-5.34,0Z"/><path d="M416.21,105.47a54.33,54.33,0,0,0,10.37-7.1c-13.11,5.21-26.08-2.59-34.36-9.66A27.79,27.79,0,0,0,394,96c9.74,24.7,11.48,32.47,11.48,32.47S409.08,109.46,416.21,105.47Z"/><path d="M421.2,213.47l-1.7-1.05c.28-.45,7-11,16.28-12.52,4.17-.67,8.17.57,11.92,3.69l-1.27,1.54c-3.29-2.73-6.76-3.82-10.32-3.25C427.68,203.23,421.26,213.37,421.2,213.47Z"/><rect x="416.83" y="54.79" width="2" height="5.78" transform="translate(334.41 471.14) rotate(-86.45)"/><rect x="443.35" y="26.39" width="7.33" height="2" transform="translate(4.55 96.69) rotate(-12.41)"/><line x1="484.55" y1="170.44" x2="491.07" y2="183.08"/><rect class="cls-2" x="486.31" y="169.65" width="3" height="14.23" transform="translate(-26.75 243.31) rotate(-27.29)"/><line x1="491.79" y1="171.55" x2="497.04" y2="178.71"/><rect class="cls-2" x="492.91" y="170.69" width="3" height="8.87" transform="translate(-7.84 326.3) rotate(-36.26)"/></g><g id="ginger"><path class="cls-1" d="M113.51,433.64s20.77-77.07,36.58-86.48c18.82-11.21,37.39,6.42,26.29,45.83-9.25,32.82,4.06,64.54-5.32,100.39"/><path d="M165.07,383.34c-5.27,0-9.23-1.67-11.78-5-6.28-8.16-1.6-23.24-1.4-23.88l1.91.61c-.05.15-4.57,14.72,1.07,22.05,2.33,3,6.17,4.42,11.39,4.17l.1,2Z"/><line x1="154.2" y1="440.9" x2="162.31" y2="443.21"/><rect class="cls-2" x="156.75" y="437.84" width="3" height="8.43" transform="translate(-310.23 473.42) rotate(-74.13)"/><line x1="156.18" y1="434.86" x2="160.94" y2="435.51"/><rect class="cls-2" x="157.06" y="432.79" width="3" height="4.8" transform="translate(-294.22 532.73) rotate(-82.14)"/></g><g id="pattern"><rect x="306.81" y="346.38" width="18.8" height="4.77" transform="translate(-4.32 693.56) rotate(-94.89)"/><rect x="213.2" y="381.3" width="11.51" height="2.92" transform="translate(174.32 821.45) rotate(-144.42)"/><rect x="184.99" y="527.76" width="11.51" height="2.92" transform="translate(693.59 781.4) rotate(136.45)"/><rect x="279.13" y="156.18" width="18.8" height="4.77" transform="translate(586.77 19.1) rotate(126.15)"/><rect x="493.76" y="388.09" width="11.51" height="2.92" transform="translate(762.87 -186.56) rotate(76.62)"/><rect x="543.67" y="350.95" width="11.51" height="2.92" transform="translate(-14.89 24.37) rotate(-2.51)"/><circle cx="467.65" cy="414.15" r="2.49"/></g></svg>