<svg id="error_505" data-name="error 505" xmlns="http://www.w3.org/2000/svg" viewBox="0 0 680 680"><defs><style>.cls-1{fill:#fce054;}.cls-2{fill:#fff;}.cls-3{fill:#47cec0;}.cls-4{fill:#201000;}</style></defs><g id="_505" data-name="505"><path class="cls-1" d="M479.18,182.28c-25,13.93-39.83,37-42.87,66.74s6.28,65.12,27,102.26c20.8,36.52,45.33,62.8,70.94,76,26,13.41,52.48,13.42,76.55,0,26.6-14.82,41.87-38.42,44.16-68.27,2.25-29.16-7.57-63.6-29.16-102.37-20.38-36.58-43.37-61.82-68.33-75C531.56,168,504.5,168.18,479.18,182.28ZM591.77,389.2c-23.43,13.06-55.76-10.75-84.38-62.13-28.88-51.85-32.5-93.73-9.22-106.7,33.05-18.41,67.06,31,84.39,62.14,15.3,27.47,24.07,51.76,25.38,70.26C609.19,370.53,603.9,382.45,591.77,389.2Z"/><g id="_5" data-name="5"><path class="cls-1" d="M152.8,429.19c-18.76.74-38.52,7.56-57.15,19.72-3.69,2.41-6.64,4.54-9.16,6.49L66.26,411.29l81.91-53.5-24.53-37.55L9.54,394.76,69.83,521.28l9.44-8a241.34,241.34,0,0,1,25.59-19.61c24.58-16.05,58.54-28.23,80.69,4.82,16.87,25.83,3.77,53.67-17.89,67.81-17.5,11.43-37.36,16.08-49,16.59l-10,.44,11.27,42.16,6.18,0c15-.09,40.23-6.12,65.76-22.79,23.86-15.59,40.43-37.79,46.64-62.52s1.75-50.62-12.64-72.65C208.81,441.38,182.18,427.42,152.8,429.19Z"/><polygon class="cls-2" points="77.6 403.89 89.48 396.13 130.29 330.42 126.67 324.88 77.6 403.89"/><polygon class="cls-2" points="70.72 354.8 58.84 362.56 22.26 421.45 25.32 427.88 70.72 354.8"/><polygon class="cls-2" points="72.13 424.07 69.12 417.53 41.55 461.93 44.61 468.36 72.13 424.07"/><path class="cls-2" d="M148.33,576.14l-29.07,46.8.68,2.56,4.81,0,33.32-53.65C154.82,573.46,151.55,574.89,148.33,576.14Z"/><path class="cls-2" d="M220.45,460l-29.94,48.21a43.5,43.5,0,0,1,2.13,7.94l31.67-51Q222.45,462.51,220.45,460Z"/><path class="cls-2" d="M104.39,443.66c-2.94,1.63-5.85,3.37-8.74,5.25-1,.63-1.86,1.23-2.72,1.82L60.84,502.4l3.06,6.44Z"/><path class="cls-2" d="M196.1,439.06c-1.75-1-3.54-1.91-5.35-2.75l-27.18,43.75a38.7,38.7,0,0,1,5.49,2.54Z"/><path class="cls-2" d="M240.89,510a90.15,90.15,0,0,0-1.33-9.24L168.43,615.3q4.94-2.13,10-4.78Z"/><path class="cls-2" d="M157.89,429.05c-1.69,0-3.38,0-5.09.14-.71,0-1.43.09-2.14.13l-36.52,58.79a108.12,108.12,0,0,1,10.11-4.89Z"/></g><g id="_0" data-name="0"><path class="cls-3" d="M321.29,140.61c-28.63,0-52.81,12.95-69.93,37.44S225.15,238,225.15,280.5c.39,42,9,76.92,25,100.93,16.2,24.37,39.32,37.26,66.87,37.26,30.45,0,55.27-13.19,71.8-38.15,16.15-24.38,24.34-59.25,24.34-103.62,0-41.88-7.8-75.11-23.18-98.79C374,153.58,350.27,140.61,321.29,140.61ZM319,376.17c-26.82,0-43.48-36.54-43.48-95.35,0-59.35,17.22-97.69,43.87-97.69,37.83,0,43.48,59.74,43.48,95.35,0,31.44-4.15,56.93-12,73.73C343.26,368.33,332.84,376.17,319,376.17Z"/><polygon points="250.49 181.12 248.75 180.14 312.91 65.61 313.82 66.93 390.82 177.93 389.18 179.07 313.09 69.39 250.49 181.12"/><circle cx="313" cy="63.5" r="7"/></g><g id="_5-2" data-name="5"><circle class="cls-2" cx="458.06" cy="261.75" r="12"/><rect x="450.35" y="261.03" width="14.69" height="2"/><circle class="cls-2" cx="528.44" cy="197" r="12"/><rect x="521.97" y="195.76" width="13.3" height="2" transform="translate(15.42 430.8) rotate(-44.93)"/><circle class="cls-2" cx="630.75" cy="378.82" r="12"/><rect x="622.78" y="378.56" width="14.26" height="2" transform="translate(91.48 880.5) rotate(-74.01)"/><rect x="450.6" y="260.89" width="14.69" height="2" transform="translate(100.62 649.98) rotate(-77.13)"/><rect x="527.39" y="190.09" width="2" height="13.3" transform="translate(45.15 487.23) rotate(-51.43)"/><rect x="628.92" y="373.06" width="2" height="14.21" transform="translate(75.13 863.42) rotate(-72.17)"/></g></g><g id="man"><path d="M229.42,596l-.25,0a1,1,0,0,1-.71-1.22l35.11-135.24a1,1,0,0,1,.71-.71l44.55-11.46a520.82,520.82,0,0,0-19.22-57.43c-12.52-31.3-60.72-17.75-61.21-17.61a1.26,1.26,0,0,1-.28,0H177.41l-.19,0c-.75-.14-74.93-13.77-93.87,20.31-19.2,34.57-41.86,158.3-42.09,159.54a1,1,0,1,1-2-.35c.22-1.25,22.94-125.31,42.31-160.16,8.15-14.68,27.38-23,55.61-24.09a204.83,204.83,0,0,1,40.28,2.77H228c3-.82,50.64-13.27,63.48,18.83A513.5,513.5,0,0,1,311,447.8a1,1,0,0,1-.72,1.21l-44.95,11.56-35,134.66A1,1,0,0,1,229.42,596Z"/><path class="cls-4" d="M222.92,238.68s26-10.4,16.91-31.21-31.21-10.4-40.32-1.3c0,0-16.9-23.41-37.71-13s-14.3,28.6-14.3,28.6S112.39,207.47,102,227s0,35.11,0,35.11-22.12,71.43,88.42,57.21C281.44,307.6,222.92,238.68,222.92,238.68Z"/><path class="cls-2" d="M176.79,371.14V344.67s-18.68-15.57-18.68-29.58c0,0-37.38,3.11-42.05-20.25s14-35.81,28-28l14,7.79s26.47-3.11,24.91-31.14c0,0,43.6-28,60.73,10.9s23.36,73.18,14,85.64-29.59,14-29.59,14v17.12S211.05,413.19,176.79,371.14Z"/><path d="M205.33,390.83c-9.15,0-19-6.39-29.31-19.05a1,1,0,0,1-.23-.63v-26c-2.63-2.27-17.85-15.91-18.65-29-6.3.34-37.66.89-42.06-21.11-2.33-11.68.92-22.05,8.7-27.73a19.16,19.16,0,0,1,20.8-1.37l13.72,7.62c3-.45,25.14-4.61,23.72-30.05a1,1,0,0,1,.46-.89c.91-.59,22.53-14.28,41.61-8.53,9,2.72,16,9.41,20.58,19.86,18,40.89,23.31,74.09,13.9,86.65-8.47,11.29-25.23,13.85-29.39,14.32v16.23a1.21,1.21,0,0,1-.07.37c-.29.7-7.09,17-20.92,19.1A19.56,19.56,0,0,1,205.33,390.83Zm-27.54-20c10.84,13.21,21,19.21,30.09,17.85,12-1.78,18.54-16,19.3-17.7V354a1,1,0,0,1,.92-1c.2,0,19.91-1.68,28.87-13.62s3.3-45-14.13-84.64c-4.36-9.9-10.86-16.21-19.32-18.76-16.68-5-36.16,6-39.47,8,1.18,28.09-25.55,31.56-25.83,31.59a.91.91,0,0,1-.6-.12l-14-7.78A17.17,17.17,0,0,0,125,268.93c-7.14,5.2-10.1,14.82-7.92,25.72,4.45,22.21,40.62,19.47,41,19.44a1,1,0,0,1,.76.26,1,1,0,0,1,.33.74c0,13.38,18.14,28.66,18.32,28.81a1,1,0,0,1,.36.77Z"/><path d="M232.85,311.43A1,1,0,0,1,232,311a1,1,0,0,1,.3-1.39c4.4-2.87,6.75-6.4,7-10.48.58-10.68-13.15-22.05-13.29-22.16a1,1,0,0,1-.14-1.41,1,1,0,0,1,1.4-.14c.6.49,14.66,12.13,14,23.82-.26,4.75-2.91,8.81-7.88,12A1,1,0,0,1,232.85,311.43Z"/><path d="M206.18,328.64a12.61,12.61,0,0,1-8.21-2.82c-5.71-4.67-6.57-13.39-6.6-13.76a1,1,0,0,1,2-.18c0,.08.82,8.27,5.88,12.39a11.17,11.17,0,0,0,8.59,2.28,1,1,0,0,1,.22,2A17.26,17.26,0,0,1,206.18,328.64Z"/><path d="M135.53,293.51h0a1,1,0,0,1-1-1c0-.19,0-4.64,3.3-6.66,2.5-1.54,6.07-1.18,10.6,1.09a1,1,0,1,1-.89,1.79c-3.82-1.91-6.81-2.32-8.65-1.18-2.32,1.42-2.36,4.93-2.36,5A1,1,0,0,1,135.53,293.51Z"/><path d="M195.25,255.61a1,1,0,0,1-.71-1.71,12.84,12.84,0,0,1,8.49-3.41,1,1,0,0,1,0,2,10.9,10.9,0,0,0-7.08,2.82A1,1,0,0,1,195.25,255.61Z"/><circle class="cls-4" cx="207.45" cy="268.11" r="2.34"/><circle class="cls-4" cx="227.91" cy="261.11" r="2.34"/><path d="M216.23,249.39a1,1,0,0,1-.71-.29,1,1,0,0,1,0-1.41c1.82-1.82,6.37-4.51,10.61-1.69a1,1,0,0,1,.27,1.39,1,1,0,0,1-1.38.28c-4-2.63-8,1.39-8.09,1.43A1,1,0,0,1,216.23,249.39Z"/><path d="M153.86,298.5a1,1,0,0,1-.94-.65c-7.4-19.75-23-17.66-23.62-17.56a1,1,0,0,1-.3-2c.18,0,17.8-2.48,25.8,18.84a1,1,0,0,1-.59,1.29A1,1,0,0,1,153.86,298.5Z"/><path d="M77.46,601.66a1.45,1.45,0,0,1-.28,0,1,1,0,0,1-.68-1.24L119.23,453a1,1,0,0,1,1.92.56L78.42,600.93A1,1,0,0,1,77.46,601.66Z"/><path d="M112,482.58a1,1,0,0,1-.29,0L58.38,466.69a1,1,0,1,1,.57-1.91l53.31,15.85a1,1,0,0,1-.28,1.95Z"/><line class="cls-2" x1="274.94" y1="412.93" x2="258.86" y2="481.58"/><rect x="231.64" y="446.26" width="70.51" height="2" transform="translate(-229.43 605.14) rotate(-76.82)"/><line class="cls-2" x1="65.58" y1="446.74" x2="117.75" y2="461.65"/><path d="M117.76,462.65a1.26,1.26,0,0,1-.28,0L65.3,447.7a1,1,0,1,1,.55-1.92L118,460.69a1,1,0,0,1,.69,1.23A1,1,0,0,1,117.76,462.65Z"/><path d="M269.92,435.37a1,1,0,0,1-.17-2l34.08-5.88a1,1,0,0,1,.34,2l-34.08,5.87Z"/><path d="M203.71,544.85h-.11l-36.41-3.9a1,1,0,0,1-.7-.4,1,1,0,0,1-.18-.79l9.11-45.51a1,1,0,0,1,1.08-.8l36.41,3.9a1,1,0,0,1,.7.4,1,1,0,0,1,.18.79l-9.11,45.52A1,1,0,0,1,203.71,544.85Zm-35.22-5.78,34.41,3.69,8.71-43.55-34.41-3.68Z"/><path d="M211.58,505.47h-.09L175,502.21a1,1,0,1,1,.18-2l36.54,3.25a1,1,0,0,1-.09,2Z"/><path d="M156,482.5H142a1,1,0,0,1-.94-1.35c23.58-62.86,4.21-111.79,4-112.27a1,1,0,1,1,1.86-.76c.2.49,19.59,49.4-3.49,112.38h11.92c2.37-5.31,19.85-47.9,3-111.17a1,1,0,1,1,1.93-.52c18.18,68.15-3.15,112.69-3.36,113.13A1,1,0,0,1,156,482.5Z"/><path d="M240,486.5H226a1,1,0,0,1-.94-1.35c23.59-62.9,7.16-113.83,7-114.33a1,1,0,1,1,1.9-.64c.17.51,16.6,51.35-6.51,114.32h11.92c2.51-5.55,21.9-51.71,5-115.17a1,1,0,1,1,1.93-.52c18.18,68.15-5.13,116.65-5.36,117.13A1,1,0,0,1,240,486.5Z"/><path d="M230,470.5H230l-68.58-3.77a1,1,0,1,1,.11-2l68.57,3.76a1,1,0,0,1-.05,2Z"/><path d="M104.17,509.52a1,1,0,0,1-.71-1.71l43-42.78a1,1,0,0,1,1.41,1.41l-43,42.78A1,1,0,0,1,104.17,509.52Z"/><path d="M250.69,514.05a1,1,0,0,1-1-.86l-5.54-39.65a1,1,0,0,1,.85-1.13,1,1,0,0,1,1.13.85l5.54,39.65a1,1,0,0,1-.85,1.13Z"/><path class="cls-2" d="M427,498.5s-1.14,23.47,5,25c4,1,8,2,12-3,0,0,12,9,17-3,0,0,3,3,11,1s6-10,6-10,0,9,8,9,8.54-7.94,8-14c-.39-4.38-1.21-17.38-9-29-6.71-10-28-20-66-11s-97,35-97,35l-12-50-45.47,11.24-18.61,73S249,577.31,270,581.5c40,8,147-66,147-66"/><path d="M276.69,583.11a34.87,34.87,0,0,1-6.89-.63c-21.46-4.29-24.75-47.82-24.88-49.67a1.12,1.12,0,0,1,0-.32l18.61-73a1,1,0,0,1,.73-.73l45.47-11.24a1,1,0,0,1,.76.12,1,1,0,0,1,.45.62l11.72,48.84c8.27-3.6,61.27-26.34,96.08-34.58,37.83-9,59.77.55,67.06,11.41,7.6,11.33,8.7,24.06,9.11,28.86l.06.61c.53,6-.31,10.08-2.58,12.55A8.28,8.28,0,0,1,486,518.5a8.11,8.11,0,0,1-7.44-4.14,8.61,8.61,0,0,1-6.32,5.11c-5.81,1.45-9.22.38-10.82-.49a9.71,9.71,0,0,1-6.09,5.44c-4.52,1.23-9.3-1.4-11.15-2.59-4.21,4.69-8.56,3.61-12.42,2.64-6.6-1.65-6-22-5.76-26a1,1,0,0,1,1.05-.95,1,1,0,0,1,.95,1.05c-.42,8.75.35,23,4.24,24s7.38,1.84,11-2.65a1,1,0,0,1,1.38-.18s5.53,4.07,10.21,2.79c2.27-.62,4-2.43,5.27-5.37a1,1,0,0,1,.73-.6,1,1,0,0,1,.9.27s2.81,2.55,10.05.74c4.61-1.15,5.45-4.55,5.47-6.77a12,12,0,0,1-.23-2.26,1,1,0,0,1,2-.24,10.28,10.28,0,0,1,.28,2.31c.51,2.37,2.06,5.93,6.75,5.93a6.31,6.31,0,0,0,4.95-1.89c1.84-2,2.53-5.72,2.05-11L493,503c-.4-4.65-1.47-17-8.78-27.91-5.58-8.32-25.55-19.92-64.94-10.59-37.47,8.88-96.24,34.69-96.83,34.95a1,1,0,0,1-1.37-.69l-11.77-49-43.91,10.86-18.42,72.25c.23,2.89,3.9,43.83,23.27,47.7,39.12,7.83,145.17-65.11,146.23-65.84a1,1,0,1,1,1.14,1.64C413.42,519.19,320.47,583.1,276.69,583.11Z"/><path d="M281,518.5a1,1,0,0,1-.44-1.9c1.41-.69,34.61-16.86,44.32-20.44a1,1,0,0,1,.69,1.88c-9.62,3.54-43.79,20.19-44.13,20.36A1,1,0,0,1,281,518.5Z"/><path d="M444,521.5a1,1,0,0,1-.71-.29,1,1,0,0,1,0-1.42c7.4-7.39-2.09-26.65-2.18-26.84a1,1,0,0,1,1.78-.9c.43.85,10.23,20.74,1.82,29.16A1,1,0,0,1,444,521.5Z"/><path d="M461,518.5a1,1,0,0,1-.88-1.47c6.61-12.28-5.77-27.74-5.9-27.9a1,1,0,1,1,1.56-1.26c.54.67,13.33,16.67,6.1,30.1A1,1,0,0,1,461,518.5Z"/><path d="M478.22,511.45h-.13a1,1,0,0,1-.86-1.12c2.11-16.2-8.35-23.69-8.8-24a1,1,0,0,1,1.14-1.64c.49.33,11.91,8.45,9.64,25.9A1,1,0,0,1,478.22,511.45Z"/><rect x="406.84" y="491" width="14.32" height="2" transform="translate(-206.17 661.85) rotate(-65.24)"/><path d="M428.23,518.5c-.4,0-10,0-14.18-4.27a6.39,6.39,0,0,1-1.91-4.73l2,0a4.41,4.41,0,0,0,1.34,3.29c3.56,3.62,12.66,3.67,12.75,3.67Z"/><circle cx="152.5" cy="473" r="3.5"/><circle cx="235.5" cy="478" r="3.5"/><circle class="cls-2" cx="403" cy="530.5" r="3"/><rect x="423.5" y="426.72" width="2" height="16.55" transform="translate(-144.13 220.33) rotate(-25.02)"/><rect x="437.44" y="433" width="17.12" height="2" transform="translate(-37.08 826.3) rotate(-83.3)"/><rect x="464.74" y="436" width="12.53" height="2" transform="translate(-138.2 641.16) rotate(-61.38)"/></g><g id="tools"><path class="cls-3" d="M450.48,571.22a4,4,0,0,0,4.1,2.45,12.72,12.72,0,0,1,6.8.83h14.8a11.14,11.14,0,0,1-.67-2.87c-.33-3.74,2.13-6.69,4.58-8.66a4,4,0,0,0,1.13-4.64l-3.39-8.1s-7-15.14-4.56-29.23a60.2,60.2,0,0,0-10.53,1.82c1.42,7.79,4.42,20,4.42,20-1.69-4.92-4.91-16.59-5.76-19.69-2,.54-4.25,1.22-6.65,2.07a64.91,64.91,0,0,1,2.49,10,45.15,45.15,0,0,0-3.71-9.58c-1.14.43-2.29.87-3.49,1.37-2.2.93-4.22,1.88-6.09,2.83,2.79,6.08,5,13.56,5.69,14.75-2.33-4.57-6.43-9.7-9.16-12.88a63.72,63.72,0,0,0-11.05,7.63c11.77,8.12,17.65,23.73,17.65,23.73Z"/><rect class="cls-2" x="446.37" y="557.07" width="33.35" height="2" transform="translate(-173.33 210.38) rotate(-21.67)"/><path class="cls-1" d="M545,562.36l-15.44-54.05h0L527,499.5l-30-1a48.67,48.67,0,0,1-.39,8.5l18.71.74,15.36,54.62H378.05l19.73-51.78L426,508.5c0-5-.24-10-.24-10l-37.76,1-27,63h1v83.14H545V562.36Z"/><path d="M532,586.5H373a1,1,0,0,1,0-2H532a1,1,0,0,1,0,2Z"/><path d="M535,620.5H376a1,1,0,0,1,0-2H535a1,1,0,0,1,0,2Z"/><path d="M542.21,534,534,530.83a1.66,1.66,0,0,0-1.68.3,6.91,6.91,0,0,1-11.39-4.35,1.63,1.63,0,0,0-1-1.35l-9.11-3.49s-18.23-6.23-31.52,8.34a.94.94,0,0,0,.94,1.54c6.55-1.85,21.8-5,24.88,5l-1.72,4.49-8.09,21.16h11.57l6.62-17.3.94-2.45a6.63,6.63,0,0,1,7.9-4.15,4.23,4.23,0,0,1,.57.19,6.89,6.89,0,0,1,4.39,5.59,1.63,1.63,0,0,0,1,1.35l8.22,3.15a1,1,0,0,0,1.23-.55l5-13.13A1,1,0,0,0,542.21,534Z"/><path d="M389.48,549.4a9,9,0,0,1,3.24,8.3c-.24,1.63-.42,3.23-.55,4.8h8.26A72.68,72.68,0,0,1,403,551.65a1.9,1.9,0,0,0-1.27-2.42l-2.06-.6,1.93.55,2-11.23-.08-.28a6.39,6.39,0,0,0,1.06-.2,5.8,5.8,0,0,0,1-.37c0,.09.05.19.08.28L413.1,546l1.38-1.46L413,546.14a1.9,1.9,0,0,0,.14,2.73A67.62,67.62,0,0,1,425,562.5h9a79,79,0,0,0-8.92-13.68,9,9,0,0,1-1.45-8.79l.67-1.82a1.48,1.48,0,0,0-2.47-1.53l-3.67,3.93-8.51-9.12a6.89,6.89,0,0,0-1.67-5.33l.11-8.2a14.45,14.45,0,0,0-3.08-9.1l-8-10.18-1.93.53s1.15,4.12,2.77,10a4.12,4.12,0,0,1,2.12,7.69c.63,2.26,1.28,4.61,1.92,6.95a6.12,6.12,0,0,0-2,.56c-.64-2.34-1.28-4.69-1.89-7a4.12,4.12,0,0,1-2.1-7.7l-2.7-10-1.92.53L389.6,513.1a14.4,14.4,0,0,0,2,9.39l4.27,7a6.9,6.9,0,0,0,.13,3.09,7.06,7.06,0,0,0,1.15,2.35l-2.67,12.18-5.15-1.51a1.48,1.48,0,0,0-1.9,1.35,1.5,1.5,0,0,0,.55,1.23Z"/></g><g id="pattern"><path class="cls-1" d="M508,153a1.5,1.5,0,0,1-.51-2.91l74-27a1.5,1.5,0,1,1,1,2.82l-74,27A1.52,1.52,0,0,1,508,153Z"/><path class="cls-3" d="M608.21,556.26l-27-7.55,7.55-27,27,7.55Zm-23.27-9.63,21.19,5.93,5.93-21.19-21.19-5.93Z"/><rect class="cls-3" x="70" y="260.6" width="3" height="27.8" transform="translate(-189.43 163.23) rotate(-52.31)"/><path class="cls-3" d="M221.5,119.5A10.5,10.5,0,1,1,232,109,10.51,10.51,0,0,1,221.5,119.5Zm0-18A7.5,7.5,0,1,0,229,109,7.5,7.5,0,0,0,221.5,101.5Z"/></g></svg>