<svg id="Слой_1" data-name="Слой 1" xmlns="http://www.w3.org/2000/svg" viewBox="0 0 1000 1000"><defs><style>.cls-1{fill:#f9ff00;}.cls-2{fill:#201000;}.cls-3{fill:#fff;}.cls-4{fill:#47cec0;}</style></defs><path d="M809,755.76a1.65,1.65,0,0,1-1.55-1.08C807,753.44,761.23,630,702.27,567.73c-62.51-66.08-190.41-79-191.69-79.1a1.65,1.65,0,0,1,.31-3.28c1.3.12,130.41,13.14,193.78,80.12,59.42,62.81,105.39,186.83,105.84,188.08a1.64,1.64,0,0,1-1.54,2.21Z"/><path class="cls-1" d="M595.7,586l-97.39,48.62c-2.2,1.1-2.31,2.58-.24,3.32a11.36,11.36,0,0,0,7.51-.56l108.78-50.1-.94-.4Z"/><path class="cls-1" d="M771.94,494.25a16.86,16.86,0,0,0-21.64,10,16.64,16.64,0,0,0-1,6.95,28.3,28.3,0,0,0-8.17,2.18c-.17.07-.36.17-.52.25l-102.09,51,10.86,6.52,105.43-48.55a16.64,16.64,0,0,0,5.49,3.32,16.86,16.86,0,1,0,11.63-31.65Z"/><path d="M834.24,875.5C834,874.21,805.38,745,727.63,649.37c-73-89.76-96.53-88.41-119.29-87.09-1.69.09-3.37.19-5.06.25-21.55.77-60.32,21.51-61,28.42-.07.74,1.15,1.17,2.19,1.41,6.42,1.49,17.71-.85,29.66-3.32,19.18-4,40.9-8.45,51.08,1.21l3,2.86-4.15,0c-.25,0-24.68,0-31.4,11.83-3.14,5.53-1.92,13,3.64,22.21l.81,1.34-1.3.88s-4.34,3-4.09,7.44,4.81,9.06,13.2,13.55l1,.51-.08,1.07c-.5,6.51-.22,24.22,6.72,27.59,3.7,1.81,9.43-.67,16.57-7.16l2.22,2.44c-8.34,7.58-15.15,10.16-20.24,7.67-9.38-4.58-8.92-24.42-8.62-29.73-9-5-13.73-10.3-14-15.79-.24-4.53,2.62-7.81,4.33-9.35-5.59-9.76-6.58-17.93-3-24.3,5.69-10,21.18-12.6,29.26-13.26-10.21-4.8-28.18-1.09-44.26,2.24-12.32,2.54-23.95,5-31.08,3.3-4.42-1-4.85-3.53-4.72-4.94,1-10.1,42.94-30.63,64.15-31.39,1.67-.06,3.33-.16,5-.25,23.58-1.36,48-2.77,122,88.3,78.26,96.21,107,226.22,107.27,227.52Z"/><path d="M605.27,653,603,650.58c22.88-21.07,49.67-9,49.94-8.92l-1.38,3C650.58,644.18,626.5,633.45,605.27,653Z"/><path d="M596.3,628.48l-2.49-2.15c21-24.33,53.3-14.64,53.62-14.54l-1,3.14C646.15,614.84,615.9,605.8,596.3,628.48Z"/><path d="M618,593.44l-.43-3.26c8.93-1.18,21.66.33,22.2.39l-.39,3.27C639.27,593.83,626.54,592.32,618,593.44Z"/><path d="M663.57,761a1.6,1.6,0,0,1-.63-.88c-3.69-12.32-7-23.47-9.78-33.05-1.58-5.34-3-10.2-4.28-14.5-10.42-35.14-19.34-38.37-26.51-41-1-.35-1.88-.69-2.77-1.07a1.65,1.65,0,0,1,1.31-3c.83.36,1.69.67,2.58,1,7.86,2.85,17.66,6.4,28.55,43.12l4.28,14.52c2.81,9.57,6.09,20.71,9.77,33a1.64,1.64,0,0,1-1.11,2.05A1.63,1.63,0,0,1,663.57,761Z"/><g id="man"><path class="cls-2" d="M351.1,298.18S296,308.82,276.94,273c-22.6-42.63,23.05-72.44,71.4-46.32,0,0-1.91-51.58,38.85-59.79s51.62,24.59,51.62,24.59,30.88-41.54,67-25.49,41.49,32.26,41.49,32.26,73.76,139-72.77,236.1C337.78,525,351.1,298.18,351.1,298.18Z"/><path class="cls-3" d="M510.73,487s3.3-100.43,3.92-143.44c0,0,57.64-26.52,45.08-64.82s-50.46-41.09-64.62-18l-14.17,23.13s-41.58,17.45-62.62-25.13c0,0-87.56-5-80.39,66.61s26.52,127.25,50.66,137.83,48.06-.93,48.06-.93v31.28S464.63,556.14,510.73,487Z"/><path d="M468.85,521.17c-.73,0-1.45,0-2.18-.09-20.05-1.68-31.07-25.81-31.53-26.84a1.71,1.71,0,0,1-.14-.67V464.78c-6.73,2.64-26.67,8.88-47.07-.06-23.95-10.48-44.21-65.11-51.64-139.17-1.92-19.22,2.7-34.82,13.76-46.35,23.31-24.34,66.53-22.17,68.36-22.07a1.66,1.66,0,0,1,1.38.92c19.13,38.72,55.22,26.39,60,24.54l13.87-22.67a32.39,32.39,0,0,1,31.74-15.28c16.17,1.89,29.58,14.44,35.85,33.58,12.13,37-37.22,62.6-45,66.38-.65,43.08-3.87,141.44-3.9,142.44a1.66,1.66,0,0,1-.28.86C497.38,510,482.84,521.17,468.85,521.17Zm-30.56-28C439.62,496,450,516.38,467,517.8c13.26,1.1,27.46-9.43,42.14-31.34.25-7.52,3.31-101.94,3.9-142.93a1.65,1.65,0,0,1,1-1.47c.56-.26,56.16-26.36,44.2-62.82-5.86-17.88-18.24-29.59-33.1-31.33a29.12,29.12,0,0,0-28.55,13.73l-14.16,23.13a1.6,1.6,0,0,1-.77.66c-.42.18-42.68,17.31-64.3-25-6.45-.17-44.44-.23-64.86,21.09-10.35,10.81-14.67,25.53-12.85,43.75,7.31,72.89,26.8,126.46,49.68,136.48,23.12,10.13,46.45-.79,46.68-.9a1.65,1.65,0,0,1,2.36,1.48ZM510.73,487h0Z"/><path d="M390.64,383.09a17.18,17.18,0,0,1-12-4.55c-14.53-13.32-9.7-51.5-9.48-53.12a1.64,1.64,0,0,1,3.26.43c-.05.38-4.83,38.1,8.45,50.27,3.75,3.44,8.53,4.45,14.6,3.11a1.65,1.65,0,0,1,.71,3.22A26.19,26.19,0,0,1,390.64,383.09Z"/><path d="M506.87,296.63a1.63,1.63,0,0,1-.92-.28,1.65,1.65,0,0,1-.44-2.29c4.78-7.1,9.79-10.58,14.66-10.41,6.47.25,10.22,6.76,10.37,7a1.65,1.65,0,1,1-2.86,1.63c-.07-.12-3.06-5.2-7.65-5.37h-.23c-3.62,0-7.61,3.09-11.56,9A1.66,1.66,0,0,1,506.87,296.63Z"/><path d="M393,299.89a1.64,1.64,0,0,1-1.43-.82,1.66,1.66,0,0,1,.6-2.25,21.71,21.71,0,0,1,15.3-2.18,1.65,1.65,0,0,1-.85,3.18h0a18.72,18.72,0,0,0-12.8,1.85A1.63,1.63,0,0,1,393,299.89Z"/><circle class="cls-2" cx="409.49" cy="341.83" r="3.95"/><circle class="cls-2" cx="355.24" cy="347.01" r="3.95"/><path d="M341.76,317.79l-.2,0a1.64,1.64,0,0,1-1.44-1.83c1-8.52,9.47-11.41,13.79-11.74a1.65,1.65,0,0,1,.26,3.28h0c-.4,0-9.82.9-10.78,8.85A1.65,1.65,0,0,1,341.76,317.79Z"/><path d="M506.26,315.76a1.65,1.65,0,0,1-1.62-1.39c-6-38,22-49.07,22.28-49.18a1.65,1.65,0,0,1,1.17,3.08c-1.05.4-25.74,10.28-20.2,45.59a1.64,1.64,0,0,1-1.37,1.88A1.14,1.14,0,0,1,506.26,315.76Z"/><path class="cls-3" d="M421.42,466.76c15.23-4.47,25.1-1.18,53.09-32.46"/><path d="M421.42,468.4a1.64,1.64,0,0,1-.46-3.22c2.75-.81,5.34-1.37,7.84-1.91,11.22-2.43,21.81-4.73,44.49-30.07a1.65,1.65,0,1,1,2.45,2.2c-23.38,26.14-34.49,28.54-46.25,31.09-2.44.53-5,1.07-7.6,1.85A2,2,0,0,1,421.42,468.4Z"/><path d="M346.09,358.57a24.63,24.63,0,0,1-24.54-22,1.64,1.64,0,1,1,3.27-.35A21.4,21.4,0,1,0,366,326a1.64,1.64,0,0,1,1.14-2.2L382,320.12a1.65,1.65,0,0,1,1.39.29,1.67,1.67,0,0,1,.65,1.26,28,28,0,1,0,53.11-13.14,1.65,1.65,0,0,1,3-1.44,31.26,31.26,0,1,1-59.24,16.7l-11.18,2.77a24.66,24.66,0,0,1-23.58,32Z"/><path class="cls-3" d="M449.82,391.49s1.64,14.82-21.41,18.12"/><path d="M428.41,411.25a1.64,1.64,0,0,1-.23-3.27c21.23-3,20-16.17,20-16.3a1.64,1.64,0,0,1,1.46-1.82,1.63,1.63,0,0,1,1.81,1.45c0,.17,1.54,16.45-22.8,19.92A1,1,0,0,1,428.41,411.25Z"/><path d="M529.67,573.42a1.64,1.64,0,0,1-1.14-.46l-53.71-51.51-32.67,51.21a1.64,1.64,0,0,1-1.38.76h0a1.67,1.67,0,0,1-1.38-.74l-47.76-73a1.64,1.64,0,1,1,2.75-1.8l46.37,70.82L473.13,518a1.62,1.62,0,0,1,1.19-.75,1.59,1.59,0,0,1,1.33.44l53.42,51.24L560,494.74a1.65,1.65,0,0,1,3,1.26l-31.85,76.41a1.65,1.65,0,0,1-1.19,1Z"/><path d="M338.77,509.91a1.64,1.64,0,0,1-.49-3.21c52.76-16.61,98-14.79,98.44-14.77a1.65,1.65,0,1,1-.15,3.29c-.44,0-45.13-1.8-97.31,14.62A1.66,1.66,0,0,1,338.77,509.91Z"/></g><path d="M322.24,599l2.06-2.57C300,577,274.13,590.86,273.87,591l1.58,2.89C276.43,593.35,299.72,581,322.24,599Z"/><path d="M329.5,573.94l2.34-2.32c-22.66-22.82-54.19-10.92-54.5-10.8l1.19,3.07C278.83,563.78,308.38,552.67,329.5,573.94Z"/><path d="M305.41,540.48l.2-3.28c-9-.56-21.59,1.82-22.12,1.93l.62,3.23C284.23,542.34,296.83,540,305.41,540.48Z"/><path d="M271.55,710.77a1.58,1.58,0,0,0,.57-.92c2.83-12.55,5.33-23.9,7.47-33.65,1.2-5.44,2.29-10.38,3.27-14.76,8-35.78,16.64-39.62,23.61-42.7.94-.41,1.83-.81,2.69-1.26a1.63,1.63,0,0,0,.7-2.22,1.65,1.65,0,0,0-2.22-.7c-.8.42-1.63.79-2.5,1.17-7.65,3.39-17.17,7.6-25.5,45-1,4.37-2.06,9.32-3.26,14.77-2.15,9.74-4.65,21.08-7.47,33.63a1.64,1.64,0,0,0,2.64,1.64Z"/><circle class="cls-1" cx="808.97" cy="846.38" r="85.1"/><circle class="cls-4" cx="736.12" cy="905.81" r="47.87"/><path class="cls-3" d="M869.94,897.42,865,897c4-42.79-11.42-75.71-45.74-97.86-25.81-16.65-53.23-20.65-53.51-20.69l.69-4.89a151.71,151.71,0,0,1,55.35,21.34C846.64,810.83,875.13,841.58,869.94,897.42Z"/><path class="cls-3" d="M852.57,909.58l-4.9-.61c4.57-36.88-9.75-67.54-42.57-91.14a172.58,172.58,0,0,0-51.48-24.7l1.22-4.79a174.18,174.18,0,0,1,53,25.4C841.86,838.13,857.32,871.27,852.57,909.58Z"/><path class="cls-3" d="M777,860.4l-.32-4.93c.29,0,29-2,51.81-14.79l2.41,4.31C807.09,858.37,778.25,860.32,777,860.4Z"/><path class="cls-3" d="M787.6,877.62l-.29-4.93c.37,0,37.66-2.36,55.17-14.34l2.79,4.08C826.62,875.18,789.18,877.53,787.6,877.62Z"/><path class="cls-3" d="M796.54,892.87l-.06-4.94c11.88-.15,44.21-2.35,51-10.69l3.82,3.13C841.83,892,801.15,892.81,796.54,892.87Z"/><path class="cls-3" d="M843.51,813.8l-4.93-.11c.7-31.66-23.12-45.52-24.13-46.1l2.42-4.3C818,763.92,844.28,779.1,843.51,813.8Z"/><path class="cls-3" d="M859.73,837.21,855,836c7.61-29-7.52-55-7.67-55.29l4.24-2.52C852.19,779.28,867.87,806.16,859.73,837.21Z"/><path class="cls-3" d="M705.53,923.75,704.27,919c49.27-12.92,50-49.65,50-51.2h4.94C759.22,868.19,758.6,909.83,705.53,923.75Z"/><path class="cls-3" d="M719.47,937.72l-2-4.54c48.82-21.06,46.29-50.09,46.16-51.31l4.91-.57C768.74,882.67,771.9,915.1,719.47,937.72Z"/><path class="cls-4" d="M479.27,647.14S423,692.08,403.89,736.37c0,0,38.83,4.53,34.77,17.62s-50.37,33.72-27.72,68.46,63.93,67.95,63.93,67.95S526.71,838.55,523.69,750,479.27,647.14,479.27,647.14Z"/><rect class="cls-4" x="392.87" y="821.3" width="30.86" height="4.94" transform="matrix(0.14, -0.99, 0.99, 0.14, -463.16, 1116.78)"/><rect class="cls-4" x="402.27" y="838.66" width="30.86" height="4.94" transform="translate(-472.24 1141.09) rotate(-82.22)"/><rect class="cls-4" x="413.97" y="853.95" width="30.86" height="4.94" transform="matrix(0.14, -0.99, 0.99, 0.14, -477.27, 1165.91)"/><rect class="cls-4" x="425.92" y="869.24" width="30.86" height="4.94" transform="matrix(0.14, -0.99, 0.99, 0.14, -482.09, 1190.97)"/><rect class="cls-4" x="438.96" y="880.16" width="30.86" height="4.94" transform="translate(-481.64 1213.33) rotate(-82.22)"/><rect class="cls-4" x="452.91" y="891.11" width="30.86" height="4.94" transform="matrix(0.14, -0.99, 0.99, 0.14, -480.42, 1236.62)"/><path class="cls-3" d="M479.13,865.59c-36.88-22.23-62.51-67.45-63.58-69.37l4.3-2.41c.26.45,26.08,46,61.83,67.54Z"/><path class="cls-4" d="M481.73,669.44l-2.66-4.16c2.75-1.75,9.18-5.85,9.18-26.95,0-6.85,2-11.48,5.91-13.78,7-4.1,17.2,1.54,17.64,1.78l-2.43,4.3,1.21-2.15-1.2,2.15c-2.26-1.25-8.94-4-12.73-1.81-2.29,1.35-3.46,4.55-3.46,9.51C493.19,659.43,487.07,666,481.73,669.44Z"/><path class="cls-4" d="M480.68,655.46l-.56-4.91c18.71-2.14,26.12-7.26,29-11.18,2.16-2.89,1.87-5.17,1.87-5.2l4.86-.85c.08.43.66,4.41-2.77,9C508,649.16,497.11,653.57,480.68,655.46Z"/><path class="cls-4" d="M485,666.56c-4.81-14.44-15.84-20.87-30.93-26.09-5-1.72-8.39-4.74-10.17-9-3.69-8.8,1.31-19.56,1.53-20l4.46,2.11-2.23-1.05,2.23,1.05c0,.09-4.27,9.25-1.43,16,1.23,2.91,3.6,4.94,7.22,6.2,14.25,4.93,28.23,11.88,34,29.2Z"/><path class="cls-4" d="M393.58,86.93A20.33,20.33,0,0,1,373.5,69.31a20.3,20.3,0,1,1,22.81,17.44A20.86,20.86,0,0,1,393.58,86.93Zm.06-35.67a15.81,15.81,0,0,0-2.05.14,15.32,15.32,0,1,0,2.05-.14Z"/><circle class="cls-1" cx="460.21" cy="57.73" r="11.1"/><path class="cls-4" d="M528.6,78.61a12,12,0,1,1,1.62-.1A12.58,12.58,0,0,1,528.6,78.61Zm0-19.13a6.08,6.08,0,0,0-.95.07,7.08,7.08,0,0,0-3.37,12.66,7,7,0,0,0,5.24,1.4,7.11,7.11,0,0,0,6.1-8h0a7.11,7.11,0,0,0-7-6.16Z"/><path class="cls-1" d="M468.24,620.24a11.34,11.34,0,0,0-4.55-6L334.86,532.71l-15.17-2.14L313,532l152.34,89.83C467.44,623.09,468.74,622.37,468.24,620.24Z"/><path class="cls-1" d="M231.81,467.5a16.87,16.87,0,1,0-6.55,10.81,28.41,28.41,0,0,0,6.28,5.67l.49.3,50,29.47,15.56-4.63Z"/><path d="M107.58,838.23a1,1,0,0,1-.24,0,1.63,1.63,0,0,1-1.39-1.86c.19-1.32,19.86-133,91.28-234.39,67.6-96,92-96.26,115.64-96.53,1.67,0,3.33,0,5-.09,21.23-.77,64.5,16.87,66.17,26.88.23,1.39,0,3.92-4.37,5.25-7,2.14-18.76.54-31.22-1.15-16.28-2.2-34.46-4.67-44.31.83,8.11.1,23.74,1.62,30.1,11.2,4.06,6.11,3.63,14.33-1.27,24.46,1.81,1.41,4.89,4.49,5,9,.1,5.5-4.24,11.12-12.89,16.73.67,5.27,2.48,25-6.54,30.25-4.91,2.83-11.88.73-20.72-6.26a1.64,1.64,0,1,1,2-2.58c7.57,6,13.46,8,17,6,6.72-3.88,5.74-21.52,4.79-28a1.65,1.65,0,0,1,.76-1.63c8.07-5.06,12.3-10.05,12.24-14.43s-4.57-7.12-4.61-7.15a1.65,1.65,0,0,1-.64-2.17c4.91-9.57,5.62-17.11,2.1-22.41-7.52-11.34-31.9-9.65-32.14-9.63A1.64,1.64,0,0,1,298,537.8c9.47-10.35,31.46-7.37,50.87-4.74,12.09,1.64,23.51,3.19,29.82,1.26,1-.31,2.2-.83,2.08-1.56-1.12-6.71-39.69-24.16-61.52-24.16l-1.29,0c-1.69.05-3.37.07-5.06.09-22.79.27-46.36.54-113,95.13-71,100.76-90.52,231.66-90.71,233A1.65,1.65,0,0,1,107.58,838.23Z"/><path class="cls-4" d="M725.88,950.17c-36.76,0-77.93-24.5-113.84-68-39.49-47.83-67.79-112.23-79.71-181.36-4-23.06-28.91-28.82-50.91-33.91-16.66-3.86-31.05-7.18-35.54-17.26-2.61-5.84-1.41-13.15,3.67-22.34,10.15-18.38,7.61-21.24,7.5-21.35-.65-.65-3.84.1-6.33,1.48l-2.41-4.31c1.38-.77,8.45-4.42,12.22-.67s1.69,12.12-6.66,27.23c-4.27,7.74-5.41,13.62-3.48,18,3.49,7.83,17.41,11,32.14,14.46,22.34,5.16,50.14,11.59,54.67,37.88,25.91,150.31,122.86,249.83,193.71,245.11l.33,4.93C729.46,950.11,727.67,950.17,725.88,950.17Z"/></svg>