<svg id="Слой_1" data-name="Слой 1" xmlns="http://www.w3.org/2000/svg" viewBox="0 0 1000 1000"><defs><style>.cls-1{fill:#ed5564;}.cls-2{fill:#fff;}.cls-3{fill:#47cec0;}.cls-4{fill:#201000;}.cls-5{fill:#cb93ee;}.cls-6{fill:#fce054;}</style></defs><path class="cls-1" d="M335.24,246.55h0L157,245.87a2.52,2.52,0,0,1,0-5l178.25.69a2.52,2.52,0,0,1,0,5Z"/><path class="cls-1" d="M335.24,286.16h0l-95.66-.26a2.52,2.52,0,1,1,0-5h0l95.65.26a2.52,2.52,0,0,1,0,5Z"/><path class="cls-1" d="M350.47,331.87h0l-252.89-.69a2.52,2.52,0,0,1,0-5h0l252.89.69a2.52,2.52,0,0,1,0,5Z"/><path class="cls-2" d="M640.67,477.57C683.35,492.34,763.78,633.5,763.78,633.5S804.07,416.09,803.17,361c-.27-16.49,19.7-49.24,31.19-46s-6.57,24.62,1.64,42.68,31.18,4.92,34.47-16.42-18.88-30.36-31.19-27.9c-8.21,1.64-3.28-18.05,25.44-13.95,18.17,2.59,24.62,31.19,24.62,31.19s4.93-16.42,13.13-26.27,16.42,0,16.42,0c8.2-1.64,18.05,13.13,18.05,13.13s21.34,3.29,4.93,42.68-37.75,154.29-64,300.38S833.54,805,781,803.39s-123.1-121.47-123.1-121.47"/><path class="cls-3" d="M850.13,227.82H656.87c-15.3,0-22.21-19.37-10.2-28.86a36.76,36.76,0,0,1,37.69-4.72,30.58,30.58,0,0,1,49.87-13.38,51.14,51.14,0,0,1,87.06,14,36.75,36.75,0,0,1,39,4.1C872.34,208.45,865.43,227.82,850.13,227.82Z"/><path class="cls-2" d="M260.06,674.69s.4-11.63,5.33-97S327.63,454.42,372,449.49s225.94,11.67,268.62,26.44,123.1,155.93,123.1,155.93S804,414.44,803.06,359.39c-.27-16.49,19.7-49.24,31.19-46s-6.56,24.62,1.64,42.68,31.19,4.92,34.47-16.42-18.87-30.36-31.18-27.9c-8.21,1.64-3.29-18.06,25.44-14,18.16,2.59,24.62,31.18,24.62,31.18s4.92-16.41,13.13-26.26,16.41,0,16.41,0c8.21-1.64,18.06,13.13,18.06,13.13s21.34,3.29,4.92,42.68-37.75,154.29-64,300.37-44.32,144.45-96.84,142.8S657.8,680.28,657.8,680.28l0,78"/><path d="M796.19,803.76c-4.48,0-9.2-.14-14.2-.3l-1.14,0c-47.15-1.47-107-93.78-121.37-117.13l0,72a1.68,1.68,0,0,1-1.68,1.68h0a1.68,1.68,0,0,1-1.68-1.68l0-78a1.68,1.68,0,0,1,3.13-.85c.7,1.19,70.71,119,121.71,120.64l1.14,0c51,1.62,68.18,2.14,94-141.45,26.31-146.35,47.73-261.41,64.11-300.73,8.15-19.55,6.61-29.53,3.88-34.46a11.45,11.45,0,0,0-7.52-5.91,1.73,1.73,0,0,1-1.13-.73c-2.57-3.84-10.52-13.58-16.33-12.41a1.69,1.69,0,0,1-1.62-.57s-3.22-3.78-7.22-3.78h0c-2.29,0-4.51,1.28-6.59,3.78-7.89,9.46-12.77,25.51-12.81,25.67a1.68,1.68,0,0,1-3.25-.12c-.06-.27-6.42-27.49-23.22-29.89-14.85-2.12-23.39,2.43-26.19,7-1.07,1.74-1,3-.72,3.45s1,.3,1.38.22c7.27-1.45,18.58.85,26.12,8.06,4.13,3.95,8.72,10.93,7,21.75-2.27,14.78-13.15,24.93-22.36,26.2-6.62.91-12.18-2.5-15.3-9.35-4.39-9.66-1.74-19.95.38-28.23,2.25-8.78,2.79-12.46-1-13.53-2.5-.7-5.48,1-7.55,2.62-10.44,8-21.69,29.84-21.5,41.7.9,54.59-39,270.63-39.42,272.81a1.68,1.68,0,0,1-3.11.52c-.8-1.41-80.6-140.78-122.19-155.18-43.47-15-224.5-31.16-267.89-26.35-36.54,4.06-99.8,35.31-105.07,126.65-4.86,84.27-5.32,96.82-5.32,96.94a1.65,1.65,0,0,1-1.74,1.62,1.68,1.68,0,0,1-1.62-1.74c0-.11.46-12.62,5.33-97,2.24-38.78,15.72-71.76,39-95.35,18.84-19.1,44-31.65,69.06-34.43,43.61-4.85,225.63,11.38,269.36,26.51,39.24,13.59,108.07,129.24,121.72,152.72,5.74-31.39,39.36-217.76,38.55-267.64-.22-12.92,11.51-35.76,22.81-44.42,3.89-3,7.41-4.06,10.5-3.19-1.22-1.77-1-4.49.64-7.11,3.49-5.66,13.08-10.88,29.51-8.52,14.32,2,21.64,18.59,24.53,27.26,2.13-5.74,6.16-15.11,11.7-21.75,2.75-3.31,5.85-5,9.19-5,4.35,0,7.77,2.9,9.15,4.28,8.06-.65,16.38,10.48,18.43,13.42a15.15,15.15,0,0,1,9.13,7.34c4.55,8.1,3.32,20.71-3.67,37.47-16.25,39-37.64,153.89-63.91,300-13,72.27-24.17,109.11-38.6,127.16C828.94,801.24,814.65,803.76,796.19,803.76Zm41.72-490.21c3.32,3.22,1.74,9.39.08,15.85-2,7.77-4.47,17.43-.57,26,2.53,5.56,6.59,8.13,11.78,7.42,7.82-1.08,17.49-10.33,19.5-23.39,1.45-9.39-2.49-15.41-6.05-18.81-6.71-6.42-16.72-8.48-23.15-7.2A6.23,6.23,0,0,1,837.91,313.55Z"/><path d="M359.16,697.2h-.09a1.69,1.69,0,0,1-1.59-1.76l5.66-111.26a1.68,1.68,0,1,1,3.35.17l-5.65,111.26A1.69,1.69,0,0,1,359.16,697.2Z"/><path d="M658.62,683.33a1.68,1.68,0,0,1-1.68-1.68V617.09a1.68,1.68,0,1,1,3.36,0v64.56A1.68,1.68,0,0,1,658.62,683.33Z"/><path d="M752.18,694.27a1.63,1.63,0,0,1-.31,0,1.68,1.68,0,0,1-1.34-2l12.1-64.18a1.68,1.68,0,1,1,3.3.62l-12.1,64.18A1.68,1.68,0,0,1,752.18,694.27Z"/><path d="M909.76,372.56a1.54,1.54,0,0,1-.43-.06,1.68,1.68,0,0,1-1.2-2.05c8.93-33.93,17.6-53.13,25.06-55.51a4.2,4.2,0,0,1,3.9.48,1.68,1.68,0,0,1-2.05,2.66,1.54,1.54,0,0,0-1.14.17c-2.91,1.29-10.94,9-22.52,53.06A1.68,1.68,0,0,1,909.76,372.56Zm25.29-54.47ZM935,318Zm0,0h0Z"/><path d="M896.63,366l-.3,0a1.69,1.69,0,0,1-1.36-2c8.2-45.9,21.19-60.94,21.74-61.55a1.68,1.68,0,0,1,2.51,2.22c-.13.15-13,15.14-20.94,59.92A1.68,1.68,0,0,1,896.63,366Z"/><path d="M880.21,356.14a1.82,1.82,0,0,1-.56-.09,1.68,1.68,0,0,1-1-2.14l10.08-28.62a1.68,1.68,0,0,1,3.17,1.12L881.79,355A1.67,1.67,0,0,1,880.21,356.14Z"/><path d="M842.46,275.72a2.09,2.09,0,0,1-.35,0,1.67,1.67,0,0,1-1.29-2l4.92-23a1.68,1.68,0,1,1,3.28.7l-4.92,23A1.68,1.68,0,0,1,842.46,275.72Z"/><path d="M821.12,283.92a1.66,1.66,0,0,1-1.29-.6l-16.41-19.7a1.68,1.68,0,0,1,2.58-2.15l16.41,19.7a1.68,1.68,0,0,1-.21,2.36A1.71,1.71,0,0,1,821.12,283.92Z"/><path class="cls-4" d="M526.46,235.64s40.31-16.13,26.2-48.38-48.37-16.12-62.48-2c0,0-26.2-36.28-58.45-20.16s-22.17,44.34-22.17,44.34S355.14,187.26,339,217.5s0,54.42,0,54.42S304.73,382.63,476.07,360.6C617.16,342.46,526.46,235.64,526.46,235.64Z"/><path class="cls-2" d="M454.27,452.13l.69-52.2s-29-24.14-29-45.86c0,0-57.93,4.83-65.17-31.38s21.72-55.51,43.45-43.44L426,291.31s41-4.82,38.62-48.27c0,0,67.58-43.44,94.13,16.9S595,373.38,580.47,392.69s-45.86,21.72-45.86,21.72l.09,42.64S505.15,496.45,454.27,452.13Z"/><path d="M500.49,474.87c-15.05,0-30.94-7.21-47.32-21.48a1.63,1.63,0,0,1-.58-1.28l.68-51.42c-4.23-3.65-27.56-24.64-28.89-44.84-10.08.52-58.39,1.23-65.2-32.83-3.63-18.16,1.43-34.28,13.53-43.11a29.81,29.81,0,0,1,32.38-2.13l21.23,11.79c4.87-.73,38.8-7.24,36.62-46.43a1.69,1.69,0,0,1,.77-1.51c1.41-.91,35-22.16,64.61-13.24,14.06,4.24,24.81,14.62,32,30.87,27.91,63.42,36.16,114.93,21.53,134.43-13.07,17.44-38.86,21.47-45.52,22.24l.09,41.12a1.68,1.68,0,0,1-.34,1,46,46,0,0,1-35.55,16.81ZM456,451.37c17.22,14.83,33.72,21.52,49.06,19.9a43.81,43.81,0,0,0,28-14.81l-.09-42a1.68,1.68,0,0,1,1.55-1.68c.31,0,30.8-2.59,44.65-21.05,13.68-18.25,5.08-69.7-21.92-131.07-6.73-15.3-16.78-25.06-29.85-29-25.69-7.74-55.72,9.17-61,12.34,1.79,43.59-39.72,49-40.15,49a1.69,1.69,0,0,1-1-.2l-21.72-12.07a26.54,26.54,0,0,0-28.77,1.91c-11,8-15.58,22.9-12.21,39.74,6.86,34.31,62.82,30.09,63.38,30a1.65,1.65,0,0,1,1.27.44,1.68,1.68,0,0,1,.55,1.24c0,20.69,28.07,44.33,28.36,44.57a1.68,1.68,0,0,1,.6,1.31Z"/><path d="M541.85,348.53a1.68,1.68,0,0,1-.92-3.08c6.8-4.43,10.42-9.86,10.76-16.15.9-16.47-20.34-34.07-20.56-34.25a1.68,1.68,0,0,1,2.13-2.6c.93.76,22.77,18.85,21.78,37-.4,7.41-4.53,13.73-12.27,18.78A1.7,1.7,0,0,1,541.85,348.53Z"/><path d="M500.5,375.21a19.66,19.66,0,0,1-12.79-4.41c-8.9-7.27-10.23-20.83-10.29-21.41a1.68,1.68,0,0,1,3.35-.3c0,.12,1.27,12.76,9.07,19.12,3.56,2.9,8,4.07,13.21,3.5a1.68,1.68,0,0,1,.37,3.34A26.63,26.63,0,0,1,500.5,375.21Z"/><path d="M391,320.75h0a1.68,1.68,0,0,1-1.68-1.68c0-.29.06-7.26,5.18-10.43,3.92-2.41,9.48-1.85,16.56,1.69a1.68,1.68,0,1,1-1.5,3c-5.87-2.93-10.46-3.57-13.28-1.84-3.53,2.17-3.6,7.53-3.6,7.59A1.69,1.69,0,0,1,391,320.75Z"/><path d="M477,270.21a1.69,1.69,0,0,1-1.19-2.87A20.12,20.12,0,0,1,489.07,262a1.68,1.68,0,0,1,0,3.36,17,17,0,0,0-10.89,4.34A1.69,1.69,0,0,1,477,270.21Z"/><circle class="cls-4" cx="534.2" cy="270.4" r="3.62"/><path d="M521,242.52a1.68,1.68,0,0,1-1.19-2.86c2.84-2.84,10-7,16.6-2.63a1.68,1.68,0,1,1-1.86,2.8c-6-4-12.11,1.95-12.37,2.21A1.68,1.68,0,0,1,521,242.52Z"/><path d="M419.42,328.49a1.69,1.69,0,0,1-1.58-1.09c-11.48-30.61-36.22-27.18-36.46-27.14a1.68,1.68,0,1,1-.51-3.32c.27-.05,27.69-3.86,40.12,29.28a1.7,1.7,0,0,1-1,2.17A1.78,1.78,0,0,1,419.42,328.49Z"/><path d="M472.32,288a1.68,1.68,0,0,1-.22-3.35l24.62-3.28a1.68,1.68,0,0,1,.45,3.33L472.55,288Z"/><path d="M664.76,693.19a1.71,1.71,0,0,1-1-.36,1.68,1.68,0,0,1-.28-2.36l76.41-96.91a1.68,1.68,0,0,1,2.64,2.08l-76.41,96.91A1.67,1.67,0,0,1,664.76,693.19Z"/><path d="M679.75,715.53a1.69,1.69,0,0,1-1.27-2.78L757,621.44a1.68,1.68,0,0,1,2.55,2.19L681,714.94A1.67,1.67,0,0,1,679.75,715.53Z"/><path d="M362,618.3a1.42,1.42,0,0,1-.29,0L263,601.06a1.68,1.68,0,1,1,.58-3.31L362.27,615a1.68,1.68,0,0,1-.28,3.33Z"/><path d="M361.79,644.74a1.73,1.73,0,0,1-.32,0L263,626.07a1.68,1.68,0,0,1,.62-3.3l98.5,18.64a1.68,1.68,0,0,1-.31,3.33Z"/><path class="cls-1" d="M536.23,112.12a13.95,13.95,0,1,1,13.95-14A14,14,0,0,1,536.23,112.12Zm0-22.86a8.91,8.91,0,1,0,8.91,8.91A8.92,8.92,0,0,0,536.23,89.26Z"/><path class="cls-3" d="M586.51,148.76a3.51,3.51,0,0,1-1.14-.2l-38.09-13.71a3.36,3.36,0,0,1,2.28-6.32l38.09,13.71a3.36,3.36,0,0,1-1.14,6.52Z"/><path class="cls-5" d="M882.46,762.46H838.28a3.35,3.35,0,0,1-3.36-3.36V714.92a3.36,3.36,0,0,1,3.36-3.36h44.18a3.37,3.37,0,0,1,3.36,3.36V759.1A3.36,3.36,0,0,1,882.46,762.46Zm-40.82-6.72H879.1V718.28H841.64Z"/><path class="cls-6" d="M213,479.73a3.34,3.34,0,0,1-1.52-.37l-28-14.22a3.36,3.36,0,1,1,3.05-6l28,14.23a3.36,3.36,0,0,1-1.53,6.35Z"/><path d="M499.64,490.7c-1.56,0-3.12-.07-4.68-.2-35.08-3-58.21-38.59-59.18-40.1a1.68,1.68,0,0,1,2.83-1.81c.22.35,23.23,35.69,56.65,38.56,19.31,1.66,38.44-7.71,56.9-27.86a1.68,1.68,0,0,1,2.47,2.27C536.91,480.91,518.43,490.7,499.64,490.7Z"/><path class="cls-3" d="M719.61,549.52,731,554.09l12.94,5.22,50.34-124.87a41.69,41.69,0,1,0-13-5l-33.34,82.68-15.48-6.24-4.63,11.48,7.74,3.12-2.06,5.13-15-6-4.64,11.51L733.51,539l-2.14,5.32L723,541Zm58.71-161.38a24.74,24.74,0,1,1,18.73,29.56A24.73,24.73,0,0,1,778.32,388.14Z"/><path class="cls-6" d="M890.61,576.35l-9.89,2.16-1.38-6.31,23.35-5.11-3-13.66L882,557.31l-1.33-6.09,9.18-2-3-13.63-18.38,4L847,441.46a47,47,0,1,0-15.42,3.09L864,592.77l15.35-3.36,13.47-2.94Zm-59-150.94A27.88,27.88,0,1,1,858,396.11,27.88,27.88,0,0,1,831.62,425.41Z"/><path d="M825.48,381.49a36.59,36.59,0,0,1-12.79-2.3,1.68,1.68,0,0,1,1.18-3.15,33.21,33.21,0,1,0-21.59-31.12,34,34,0,0,0,.68,6.76,1.67,1.67,0,1,1-3.28.68,36.57,36.57,0,1,1,35.8,29.13Z"/><path class="cls-3" d="M670.9,921.34l-2.29-.43L50.33,806.07,72.54,632.71,712.23,767.15ZM55.94,802l611.3,113.55L706,771,76.84,638.76Z"/><polygon class="cls-3" points="182.11 730.16 192.01 722.05 198.8 729.78 185.56 740.83 198.98 746.74 194.4 756.59 175.15 747.35 169.94 764.96 160.36 760.57 166.04 740.01 149.7 732.43 155.8 718.73 167.6 726.35 168.55 714.11 181.96 714.87 182.11 730.16"/><polygon class="cls-3" points="290.22 763.5 302.98 764.53 302.5 774.8 285.3 773.57 290.87 787.14 280.73 791.06 273.29 771.04 257.31 780.11 253.46 770.3 271.82 759.43 265.31 742.64 279.21 737.01 282.42 750.68 291.6 742.53 300.73 752.38 290.22 763.5"/><polygon class="cls-3" points="382.69 774.25 379.03 761.99 388.78 758.71 393.87 775.19 404.5 765.09 411.82 773.12 395.86 787.3 410.1 798.91 402.35 806.06 385.57 792.88 372.27 805.02 361.99 794.1 373.57 786.16 362.65 780.56 368.53 768.48 382.69 774.25"/><polygon class="cls-3" points="491.42 806.43 504.17 807.47 503.69 817.74 486.49 816.51 492.06 830.08 481.92 834 474.48 813.98 458.5 823.05 454.65 813.24 473.01 802.37 466.5 785.58 480.4 779.95 483.61 793.62 492.79 785.47 501.92 795.32 491.42 806.43"/><polygon class="cls-3" points="583.88 817.19 580.22 804.92 589.97 801.65 595.06 818.13 605.69 808.03 613.01 816.06 597.05 830.24 611.29 841.85 603.53 849 586.76 835.82 573.46 847.96 563.18 837.04 574.76 829.1 563.84 823.5 569.72 811.42 583.88 817.19"/><path d="M499.5,565.53a1.68,1.68,0,0,1-1.68-1.68V489a1.68,1.68,0,0,1,3.36,0v74.83A1.68,1.68,0,0,1,499.5,565.53Z"/><circle class="cls-2" cx="479.1" cy="509.57" r="4.81"/><path d="M479.1,516.06a6.49,6.49,0,1,1,6.49-6.49A6.5,6.5,0,0,1,479.1,516.06Zm0-9.62a3.13,3.13,0,1,0,3.13,3.13A3.14,3.14,0,0,0,479.1,506.44Z"/><circle class="cls-2" cx="479.1" cy="546.91" r="4.81"/><path d="M479.1,553.4a6.49,6.49,0,1,1,6.49-6.49A6.5,6.5,0,0,1,479.1,553.4Zm0-9.62a3.14,3.14,0,1,0,3.13,3.13A3.14,3.14,0,0,0,479.1,543.78Z"/></svg>