<svg width="700" height="700" viewBox="0 0 700 700" fill="none" xmlns="http://www.w3.org/2000/svg">
<rect width="700" height="700" fill="white"/>
<path d="M99.3899 416.772L94.49 323.282L151.93 396.782" fill="#47CEC0"/>
<path d="M125.76 407.782C125.47 407.782 125.186 407.698 124.943 407.54C124.7 407.382 124.508 407.157 124.39 406.892L103.12 358.892C103.035 358.712 102.987 358.516 102.979 358.316C102.97 358.117 103.002 357.918 103.071 357.731C103.141 357.543 103.247 357.372 103.384 357.227C103.52 357.081 103.685 356.964 103.867 356.883C104.049 356.802 104.246 356.758 104.446 356.754C104.646 356.749 104.844 356.785 105.029 356.859C105.215 356.932 105.384 357.042 105.527 357.182C105.669 357.321 105.783 357.488 105.86 357.672L127.13 405.672C127.215 405.853 127.262 406.049 127.27 406.248C127.277 406.448 127.244 406.647 127.173 406.833C127.103 407.02 126.995 407.19 126.857 407.334C126.719 407.478 126.553 407.593 126.37 407.672C126.177 407.752 125.969 407.79 125.76 407.782Z" fill="white"/>
<path d="M175.25 390.482C175.25 390.482 110.18 316.042 154.49 270.782C197.1 227.252 251.79 290.842 241.55 370.242L175.25 390.482Z" fill="#FCE054"/>
<path d="M207.34 380.132C207.029 380.133 206.725 380.038 206.47 379.859C206.216 379.68 206.024 379.426 205.92 379.132L176.32 295.662C176.254 295.476 176.226 295.279 176.236 295.083C176.247 294.886 176.296 294.693 176.381 294.515C176.466 294.337 176.585 294.178 176.731 294.046C176.878 293.915 177.049 293.813 177.235 293.747C177.421 293.682 177.618 293.653 177.814 293.664C178.011 293.674 178.204 293.723 178.382 293.808C178.56 293.893 178.719 294.012 178.851 294.159C178.983 294.305 179.084 294.476 179.15 294.662L208.75 378.132C208.835 378.358 208.863 378.601 208.832 378.841C208.802 379.08 208.713 379.308 208.574 379.505C208.435 379.702 208.25 379.863 208.035 379.972C207.82 380.081 207.581 380.136 207.34 380.132Z" fill="white"/>
<path d="M197.49 354.672C197.148 354.671 196.817 354.555 196.55 354.342L170.92 333.712C170.614 333.46 170.419 333.098 170.376 332.704C170.333 332.31 170.445 331.914 170.69 331.602C170.813 331.448 170.966 331.321 171.139 331.226C171.311 331.131 171.501 331.071 171.697 331.05C171.893 331.029 172.091 331.046 172.281 331.101C172.47 331.157 172.646 331.249 172.8 331.372L198.43 352.002C198.672 352.197 198.848 352.462 198.934 352.761C199.019 353.059 199.009 353.377 198.906 353.67C198.803 353.963 198.611 354.217 198.358 354.397C198.104 354.576 197.801 354.673 197.49 354.672Z" fill="white"/>
<path d="M189.99 323.422C189.787 323.422 189.587 323.381 189.4 323.302C189.215 323.225 189.047 323.111 188.907 322.968C188.767 322.825 188.656 322.655 188.583 322.469C188.509 322.283 188.474 322.083 188.478 321.883C188.483 321.682 188.528 321.485 188.61 321.302L201.02 292.082C201.185 291.731 201.48 291.458 201.842 291.32C202.204 291.181 202.606 291.188 202.963 291.34C203.32 291.491 203.604 291.775 203.757 292.131C203.909 292.488 203.917 292.89 203.78 293.252L191.37 322.472C191.258 322.748 191.068 322.986 190.823 323.155C190.577 323.323 190.288 323.416 189.99 323.422Z" fill="white"/>
<path d="M507.25 355.782C507.25 355.782 481.79 280.992 508.93 255.782C536.07 230.572 562.21 261.022 562.53 287.392C562.53 287.392 571.94 269.672 585.61 281.542C599.28 293.412 562.5 365.722 562.5 365.722L507.25 355.782Z" fill="#47CEC0"/>
<path d="M534.56 362.162C534.183 362.163 533.82 362.021 533.543 361.765C533.267 361.509 533.098 361.158 533.07 360.782L526.57 279.162C526.554 278.966 526.577 278.768 526.637 278.58C526.698 278.392 526.795 278.219 526.924 278.069C527.052 277.919 527.209 277.796 527.385 277.708C527.561 277.619 527.753 277.566 527.95 277.552C528.344 277.524 528.734 277.652 529.035 277.908C529.336 278.165 529.524 278.529 529.56 278.922L536.06 360.542C536.077 360.739 536.054 360.936 535.994 361.124C535.934 361.312 535.838 361.486 535.711 361.636C535.583 361.786 535.428 361.91 535.253 362.001C535.078 362.091 534.886 362.146 534.69 362.162H534.56Z" fill="white"/>
<path d="M533.58 349.782C533.316 349.782 533.057 349.711 532.829 349.579C532.6 349.446 532.411 349.255 532.281 349.026C532.15 348.796 532.082 348.537 532.083 348.273C532.085 348.009 532.156 347.75 532.29 347.522L552.48 313.052C552.573 312.87 552.702 312.709 552.86 312.578C553.018 312.448 553.2 312.351 553.397 312.294C553.593 312.236 553.799 312.22 554.002 312.245C554.206 312.271 554.401 312.338 554.578 312.441C554.754 312.545 554.907 312.684 555.028 312.849C555.149 313.015 555.234 313.203 555.279 313.403C555.325 313.602 555.328 313.809 555.291 314.01C555.253 314.211 555.174 314.403 555.06 314.572L534.88 349.042C534.746 349.268 534.556 349.455 534.328 349.584C534.1 349.714 533.842 349.782 533.58 349.782Z" fill="white"/>
<path d="M561.15 364.672C561.15 364.672 551.54 323.852 577.15 315.672C601.76 307.802 609.64 342.492 590.04 370.222L561.15 364.672Z" fill="#FCE054"/>
<path d="M575.54 368.092H575.32C574.925 368.033 574.57 367.82 574.332 367.499C574.094 367.179 573.993 366.777 574.05 366.382L579.52 329.222C579.547 329.027 579.612 328.839 579.713 328.669C579.813 328.5 579.947 328.352 580.105 328.235C580.263 328.117 580.444 328.033 580.635 327.986C580.827 327.939 581.025 327.931 581.22 327.962C581.415 327.99 581.603 328.057 581.772 328.158C581.941 328.258 582.089 328.391 582.207 328.549C582.325 328.707 582.411 328.887 582.46 329.078C582.508 329.269 582.518 329.467 582.49 329.662L577.02 366.822C576.967 367.177 576.788 367.5 576.517 367.733C576.245 367.966 575.898 368.094 575.54 368.092Z" fill="white"/>
<path d="M576.91 356.602C576.616 356.604 576.328 356.518 576.082 356.356C575.837 356.194 575.644 355.963 575.53 355.692L570.01 342.872C569.853 342.506 569.849 342.093 569.997 341.724C570.145 341.354 570.434 341.059 570.8 340.902C571.166 340.746 571.579 340.741 571.948 340.889C572.318 341.037 572.613 341.326 572.77 341.692L578.28 354.502C578.363 354.684 578.408 354.881 578.413 355.081C578.419 355.281 578.384 355.48 578.311 355.666C578.239 355.853 578.129 356.023 577.99 356.166C577.851 356.31 577.684 356.424 577.5 356.502C577.311 356.573 577.111 356.606 576.91 356.602Z" fill="white"/>
<path d="M580.29 343.392C579.977 343.403 579.668 343.315 579.407 343.14C579.146 342.966 578.946 342.715 578.836 342.421C578.726 342.127 578.71 341.806 578.791 341.504C578.873 341.201 579.047 340.931 579.29 340.732L589.74 332.242C589.893 332.118 590.069 332.025 590.258 331.969C590.447 331.913 590.645 331.895 590.841 331.915C591.036 331.936 591.226 331.995 591.4 332.088C591.573 332.182 591.726 332.309 591.85 332.462C591.974 332.615 592.067 332.791 592.123 332.98C592.179 333.169 592.197 333.367 592.177 333.563C592.157 333.759 592.098 333.949 592.004 334.122C591.91 334.295 591.783 334.448 591.63 334.572L581.18 343.052C580.929 343.261 580.616 343.381 580.29 343.392Z" fill="white"/>
<path d="M30 451.142L29 449.422C29.8 448.952 110.26 402.252 229.15 372.932C298.98 355.712 368.22 347.762 434.96 349.302C518.39 351.222 598.11 368.062 671.9 399.362L671.12 401.202C504.52 330.542 339.12 347.882 229.62 374.882C110.99 404.132 30.79 450.682 30 451.142Z" fill="black"/>
<path d="M332.99 308.282C371.374 308.282 402.49 277.166 402.49 238.782C402.49 200.398 371.374 169.282 332.99 169.282C294.606 169.282 263.49 200.398 263.49 238.782C263.49 277.166 294.606 308.282 332.99 308.282Z" fill="#FCE054"/>
<path d="M350.008 271.29C395.247 229.177 424.446 187.01 415.227 177.106C406.007 167.202 361.86 193.312 316.621 235.424C271.382 277.536 242.183 319.704 251.402 329.608C260.622 339.512 304.769 313.402 350.008 271.29Z" fill="#FCE054"/>
<path d="M496.99 477.782L455.99 387.782C442.99 414.782 407.99 408.782 407.99 408.782C407.99 408.782 428.99 467.782 444.99 499.782C460.99 531.782 480.99 570.782 504.99 548.782C528.99 526.782 511.35 407.162 494.49 384.282C480.49 365.282 407.49 374.282 407.49 374.282C379.49 409.282 350.49 370.282 350.49 370.282C350.49 370.282 331.39 362.822 274.49 382.282C236.49 395.282 251.49 545.282 251.49 545.282L491.49 542.282" fill="white"/>
<path d="M490.82 556.202C489.773 556.205 488.728 556.108 487.7 555.912C470.34 552.712 455.79 523.612 444.1 500.232C428.25 468.542 407.26 409.712 407.05 409.122L406.48 407.512L408.16 407.792C408.5 407.852 442.57 413.342 455.09 387.352L456.02 385.422L497.9 477.372L496.08 478.192L455.94 390.072C443.85 412.072 416.49 410.732 409.48 409.982C412.9 419.472 431.53 470.622 445.88 499.332C456.77 521.112 471.68 550.922 488.06 553.952C493.55 554.952 498.87 553.032 504.31 548.042C514.52 538.682 518.17 508.372 514.07 466.962C510.52 431.122 501.76 395.832 493.69 384.872C480.69 367.272 413.84 374.552 408.01 375.232C400.01 385.102 391.12 390.032 381.61 389.862C364.7 389.562 351.68 373.462 349.88 371.132C347.48 370.402 327.16 365.322 274.81 383.232C237.99 395.822 252.34 543.692 252.49 545.232L250.49 545.432C249.88 539.272 235.86 394.492 274.17 381.432C330.76 362.072 350.06 369.142 350.85 369.432L351.12 369.532L351.29 369.762C351.43 369.942 364.8 387.652 381.65 387.942C390.65 388.092 399.04 383.312 406.71 373.742L406.96 373.422H407.37C410.37 373.052 481.11 364.572 495.29 383.822C511.72 406.102 530.66 526.742 505.67 549.652C500.82 553.962 495.83 556.202 490.82 556.202Z" fill="black"/>
<path d="M328.33 243.322C328.33 243.322 374.62 182.122 399.6 197.872C424.58 213.622 407.55 244.752 407.55 244.752L350.25 335.312C350.25 335.312 359.32 357.102 326.49 369.312C278.55 387.092 290.74 342.922 281.49 329.312C266.74 307.592 275.49 296.282 328.33 243.322Z" fill="#201000"/>
<path d="M350.75 377.712L350.25 335.312C350.25 335.312 331.4 320.842 330.86 307.162C330.86 307.162 294.5 311.652 289.04 289.032C283.58 266.412 301.33 253.532 315.31 260.582L329.31 267.642C329.31 267.642 355.03 263.582 352.43 236.282C352.43 236.282 393.9 207.282 412.12 244.572C430.34 281.862 437.76 315.102 429.12 327.572C420.48 340.042 400.78 342.392 400.78 342.392L400.92 375.672C400.92 375.672 385.81 417.422 350.75 377.712Z" fill="white"/>
<path d="M378.59 395.862C369.86 395.862 360.26 389.992 350 378.372C349.842 378.192 349.753 377.962 349.75 377.722L349.25 335.802C346.54 333.652 331.25 320.962 329.94 308.262C323.75 308.842 293.21 310.562 288.07 289.262C285.33 277.942 288.07 267.692 295.49 261.842C298.3 259.565 301.71 258.15 305.307 257.768C308.904 257.387 312.535 258.055 315.76 259.692L329.45 266.602C332.45 266.032 353.77 261.112 351.45 236.372C351.434 236.197 351.464 236.02 351.538 235.861C351.612 235.701 351.726 235.563 351.87 235.462C352.74 234.852 373.33 220.652 392.18 225.522C401.12 227.832 408.18 234.092 413.04 244.132C432.19 283.352 438.67 315.562 429.96 328.192C422.12 339.552 405.83 342.702 401.81 343.312L401.94 375.712C401.941 375.831 401.921 375.95 401.88 376.062C401.63 376.742 395.62 392.972 382.19 395.522C381.003 395.748 379.798 395.862 378.59 395.862ZM351.74 377.322C362.82 389.782 372.91 395.242 381.74 393.562C393.39 391.352 399.23 377.202 399.88 375.562L399.74 342.482C399.739 342.235 399.829 341.996 399.993 341.811C400.157 341.626 400.384 341.509 400.63 341.482C400.82 341.482 419.98 339.082 428.26 327.082C436.43 315.232 429.73 283.022 411.19 245.082C406.55 235.592 399.97 229.682 391.62 227.532C375.16 223.272 356.62 234.762 353.43 236.852C355.67 264.232 329.7 268.662 329.43 268.702C329.221 268.734 329.008 268.699 328.82 268.602L314.82 261.602C311.935 260.137 308.687 259.54 305.469 259.882C302.252 260.225 299.202 261.493 296.69 263.532C289.94 268.882 287.43 278.372 289.97 288.912C295.16 310.402 330.34 306.332 330.7 306.292C330.837 306.275 330.977 306.287 331.109 306.326C331.242 306.366 331.365 306.433 331.47 306.522C331.575 306.611 331.66 306.722 331.72 306.846C331.781 306.969 331.815 307.104 331.82 307.242C332.34 320.292 350.63 334.502 350.82 334.642C350.94 334.734 351.037 334.852 351.105 334.987C351.172 335.122 351.208 335.271 351.21 335.422L351.74 377.322Z" fill="black"/>
<path d="M403.34 293.112C403.179 293.112 403.02 293.073 402.877 292.998C402.734 292.923 402.612 292.815 402.52 292.682C402.368 292.466 402.308 292.198 402.353 291.938C402.398 291.677 402.544 291.445 402.76 291.292C406.94 288.292 409.09 284.792 409.15 280.812C409.3 270.382 395.47 259.812 395.33 259.712C395.225 259.633 395.137 259.535 395.07 259.422C395.003 259.309 394.959 259.184 394.94 259.054C394.921 258.924 394.929 258.791 394.961 258.664C394.994 258.537 395.051 258.417 395.13 258.312C395.289 258.1 395.526 257.96 395.789 257.922C396.051 257.885 396.318 257.953 396.53 258.112C397.13 258.572 411.32 269.392 411.15 280.832C411.08 285.492 408.65 289.562 403.91 292.922C403.746 293.047 403.546 293.114 403.34 293.112Z" fill="black"/>
<path d="M307.95 286.992C307.685 286.992 307.43 286.887 307.243 286.699C307.055 286.512 306.95 286.257 306.95 285.992C306.95 285.812 306.81 281.452 309.95 279.352C312.33 277.742 315.84 277.962 320.36 280.002C320.585 280.121 320.757 280.321 320.839 280.561C320.922 280.802 320.91 281.065 320.805 281.298C320.701 281.53 320.512 281.713 320.277 281.81C320.041 281.908 319.778 281.912 319.54 281.822C315.74 280.112 312.81 279.822 311.07 281.012C308.86 282.492 308.97 285.882 308.97 285.912C308.97 286.177 308.865 286.432 308.677 286.619C308.489 286.807 308.235 286.912 307.97 286.912L307.95 286.992Z" fill="black"/>
<path d="M355.81 258.662C355.557 258.661 355.314 258.565 355.13 258.392C354.944 258.205 354.839 257.951 354.839 257.687C354.839 257.423 354.944 257.169 355.13 256.982C357.331 254.814 360.254 253.532 363.34 253.382C363.605 253.374 363.863 253.472 364.056 253.654C364.249 253.836 364.362 254.087 364.37 254.352C364.378 254.617 364.28 254.875 364.098 255.068C363.916 255.261 363.665 255.374 363.4 255.382C360.844 255.535 358.428 256.599 356.59 258.382C356.488 258.482 356.365 258.558 356.23 258.607C356.096 258.655 355.953 258.674 355.81 258.662Z" fill="black"/>
<path d="M363.34 264.772C364.599 264.772 365.62 263.751 365.62 262.492C365.62 261.233 364.599 260.212 363.34 260.212C362.081 260.212 361.06 261.233 361.06 262.492C361.06 263.751 362.081 264.772 363.34 264.772Z" fill="#201000"/>
<path d="M399.4 252.682C400.659 252.682 401.68 251.661 401.68 250.402C401.68 249.143 400.659 248.122 399.4 248.122C398.141 248.122 397.12 249.143 397.12 250.402C397.12 251.661 398.141 252.682 399.4 252.682Z" fill="#201000"/>
<path d="M377.43 370.282C377.253 370.286 377.079 370.237 376.93 370.142C376.701 370.01 376.534 369.793 376.464 369.538C376.395 369.284 376.43 369.012 376.56 368.782L380.62 361.782C380.752 361.551 380.971 361.383 381.228 361.313C381.485 361.244 381.759 361.28 381.99 361.412C382.221 361.545 382.389 361.764 382.459 362.021C382.528 362.277 382.493 362.551 382.36 362.782L378.29 369.782C378.203 369.933 378.077 370.059 377.926 370.147C377.776 370.234 377.604 370.281 377.43 370.282Z" fill="black"/>
<path d="M398.18 234.722C398.03 234.721 397.882 234.687 397.747 234.621C397.612 234.555 397.493 234.46 397.4 234.342C394.54 230.762 389.69 233.182 389.48 233.282C389.245 233.401 388.972 233.423 388.721 233.343C388.47 233.262 388.262 233.086 388.14 232.852C388.079 232.735 388.042 232.608 388.031 232.476C388.02 232.345 388.035 232.213 388.075 232.088C388.115 231.962 388.179 231.846 388.264 231.746C388.349 231.645 388.453 231.562 388.57 231.502C390.8 230.352 395.85 229.202 398.96 233.102C399.125 233.308 399.201 233.571 399.173 233.833C399.145 234.095 399.015 234.336 398.81 234.502C398.631 234.645 398.409 234.723 398.18 234.722Z" fill="black"/>
<path d="M326.04 291.162C325.844 291.162 325.652 291.104 325.488 290.996C325.325 290.887 325.196 290.733 325.12 290.552C317.12 271.552 302.04 274.212 301.41 274.332C301.279 274.358 301.144 274.357 301.013 274.331C300.881 274.304 300.757 274.252 300.646 274.177C300.535 274.102 300.44 274.006 300.366 273.895C300.292 273.783 300.241 273.658 300.215 273.527C300.19 273.396 300.19 273.261 300.217 273.129C300.243 272.998 300.295 272.874 300.37 272.763C300.445 272.652 300.541 272.557 300.652 272.483C300.764 272.409 300.889 272.358 301.02 272.332C301.2 272.332 318.32 269.222 326.96 289.732C327.011 289.853 327.037 289.984 327.038 290.115C327.038 290.247 327.012 290.378 326.962 290.499C326.912 290.621 326.838 290.732 326.745 290.825C326.652 290.918 326.542 290.992 326.42 291.042C326.305 291.112 326.175 291.153 326.04 291.162Z" fill="black"/>
<path d="M417.17 297.402H417.06C416.798 297.372 416.558 297.239 416.393 297.033C416.229 296.827 416.152 296.564 416.18 296.302C416.35 294.712 416.18 293.642 415.61 293.302C414.37 292.622 410.91 294.622 408.96 296.192C408.857 296.275 408.739 296.336 408.612 296.373C408.485 296.409 408.353 296.42 408.222 296.406C408.091 296.391 407.964 296.35 407.849 296.286C407.733 296.222 407.632 296.136 407.55 296.032C407.387 295.825 407.312 295.561 407.342 295.299C407.372 295.037 407.504 294.797 407.71 294.632C408.71 293.842 413.71 289.992 416.57 291.552C417.9 292.282 418.44 293.942 418.16 296.482C418.14 296.731 418.027 296.964 417.844 297.135C417.661 297.305 417.42 297.4 417.17 297.402Z" fill="black"/>
<path d="M301.121 455.569L299.122 455.63L302.13 554.634L304.129 554.574L301.121 455.569Z" fill="black"/>
<path d="M407.99 408.782C404.09 397.574 398.345 387.096 390.99 377.782C378.99 362.782 367.99 355.782 371.99 343.782C371.99 343.782 370.99 336.782 374.99 333.782C374.99 333.782 372.99 330.782 374.99 322.782C374.99 322.782 358.99 308.782 366.99 300.782C374.99 292.782 382.99 319.782 401.99 326.782C420.99 333.782 429.99 331.782 432.99 312.782C435.166 315.214 436.821 318.065 437.853 321.161C438.885 324.257 439.272 327.531 438.99 330.782C437.99 341.782 443.99 365.782 455.99 387.782C455.99 387.782 449.99 415.782 407.99 408.782Z" fill="white"/>
<path d="M370.06 301.312C372.24 301.312 375.6 305.452 379.15 309.832C384.64 316.612 391.48 325.042 401.3 328.662C408.39 331.272 413.69 332.482 417.99 332.482C426.45 332.482 431.52 327.862 434.06 317.642C436.372 321.563 437.4 326.108 437 330.642C436 341.552 441.58 365.302 453.85 388.072C452.76 391.602 446.33 407.942 420.7 407.942C416.949 407.923 413.206 407.622 409.5 407.042C405.509 396.037 399.769 385.748 392.5 376.572C389.57 372.912 386.67 369.692 384.12 366.842C376.04 357.842 371.17 352.452 373.84 344.452L373.99 344.002L373.92 343.542C373.92 343.482 373.17 337.652 376.14 335.422L377.84 334.322L376.63 332.742C376.47 332.422 375.28 329.742 376.88 323.312L377.18 322.122L376.26 321.322C373.66 319.042 366.88 311.922 366.7 306.402C366.661 305.629 366.788 304.857 367.073 304.138C367.357 303.419 367.793 302.769 368.35 302.232C369.24 301.352 369.82 301.352 370.01 301.352L370.06 301.312ZM370.01 299.352C369.425 299.375 368.851 299.518 368.323 299.77C367.795 300.023 367.325 300.381 366.94 300.822C358.94 308.822 374.94 322.822 374.94 322.822C372.94 330.822 374.94 333.822 374.94 333.822C370.94 336.822 371.94 343.822 371.94 343.822C367.94 355.822 378.94 362.822 390.94 377.822C398.295 387.136 404.04 397.614 407.94 408.822C412.138 409.546 416.39 409.92 420.65 409.942C451.2 409.942 455.94 387.822 455.94 387.822C443.94 365.822 437.94 341.822 438.94 330.822C439.222 327.571 438.835 324.297 437.803 321.201C436.771 318.105 435.116 315.254 432.94 312.822C430.94 325.402 426.34 330.522 417.94 330.522C413.64 330.522 408.36 329.192 401.94 326.822C385.35 320.712 377.15 299.352 370.01 299.352Z" fill="black"/>
<path d="M395.49 337.282H395.25C383.01 334.222 374.99 322.372 374.66 321.862C374.53 321.642 374.489 321.381 374.546 321.131C374.602 320.882 374.752 320.664 374.965 320.522C375.177 320.38 375.436 320.325 375.688 320.367C375.94 320.41 376.166 320.548 376.32 320.752C376.4 320.872 384.26 332.472 395.73 335.342C395.995 335.374 396.237 335.51 396.402 335.72C396.567 335.93 396.642 336.197 396.61 336.462C396.578 336.727 396.442 336.969 396.232 337.134C396.022 337.299 395.755 337.374 395.49 337.342V337.282Z" fill="black"/>
<path d="M391.49 348.282C391.363 348.282 391.238 348.259 391.12 348.212C384.67 345.472 379.247 340.769 375.62 334.772C375.487 334.541 375.452 334.267 375.521 334.011C375.591 333.754 375.759 333.535 375.99 333.402C376.221 333.27 376.495 333.234 376.752 333.303C377.009 333.373 377.228 333.541 377.36 333.772C377.41 333.862 382.36 342.522 391.86 346.332C392.077 346.418 392.257 346.576 392.369 346.781C392.481 346.985 392.519 347.222 392.475 347.45C392.431 347.679 392.308 347.886 392.129 348.034C391.949 348.182 391.723 348.263 391.49 348.262V348.282Z" fill="black"/>
<path d="M387.49 357.282C387.371 357.283 387.252 357.263 387.14 357.222C378.93 354.142 372.91 345.222 372.66 344.832C372.53 344.612 372.489 344.351 372.546 344.101C372.602 343.852 372.752 343.634 372.965 343.492C373.177 343.35 373.436 343.295 373.688 343.337C373.94 343.38 374.166 343.518 374.32 343.722C374.38 343.812 380.24 352.502 387.84 355.342C388.062 355.423 388.248 355.579 388.366 355.784C388.483 355.988 388.525 356.228 388.483 356.46C388.441 356.692 388.318 356.902 388.137 357.052C387.955 357.203 387.726 357.284 387.49 357.282Z" fill="black"/>
<path d="M299.11 461.552L300.99 376.762L302.99 376.802L301.16 459.532L321.49 459.292V370.072H323.49V461.272L299.11 461.552Z" fill="black"/>
<path d="M306.49 443.282V513.282H318.49L317.49 443.282H306.49Z" fill="white"/>
<path d="M315.49 445.282L316.43 511.282H308.43V445.282H315.43H315.49ZM317.43 443.282H306.43V513.282H318.43L317.43 443.282Z" fill="black"/>
<path d="M317.49 441.282V450.282H306.49V441.282H317.49ZM319.49 439.282H304.49V452.282H319.49V439.282Z" fill="black"/>
<path d="M419.33 439.282C419.33 439.282 443.18 455.852 471.84 422.572L419.33 439.282Z" fill="white"/>
<path d="M434.77 444.322C429.149 444.42 423.611 442.96 418.77 440.102L419.91 438.462C420.91 439.112 443.4 454.072 471.09 421.912L472.6 423.222C458.07 440.102 444.6 444.322 434.77 444.322Z" fill="black"/>
<path d="M468.32 373.299L466.324 373.431L469.348 419.201L471.344 419.069L468.32 373.299Z" fill="black"/>
<path d="M382.49 419.282C382.299 419.283 382.111 419.228 381.95 419.125C381.789 419.023 381.661 418.876 381.58 418.702C375.58 405.632 376.45 376.482 376.49 375.252C376.498 374.987 376.611 374.736 376.804 374.554C376.997 374.372 377.255 374.274 377.52 374.282C377.785 374.29 378.036 374.403 378.218 374.596C378.4 374.789 378.498 375.047 378.49 375.312C378.49 375.612 377.57 405.232 383.4 417.862C383.455 417.981 383.487 418.111 383.492 418.242C383.498 418.374 383.477 418.505 383.432 418.629C383.386 418.752 383.316 418.866 383.227 418.962C383.137 419.059 383.03 419.137 382.91 419.192C382.778 419.25 382.635 419.281 382.49 419.282Z" fill="black"/>
<path d="M373.99 374.782C373.823 374.782 373.658 374.74 373.511 374.659C373.364 374.579 373.24 374.463 373.15 374.322C326.53 300.922 325.99 235.432 325.99 234.782C325.99 234.517 326.095 234.263 326.283 234.075C326.47 233.888 326.725 233.782 326.99 233.782C327.255 233.782 327.509 233.888 327.697 234.075C327.885 234.263 327.99 234.517 327.99 234.782C327.99 235.432 328.55 300.372 374.83 373.242C374.927 373.393 374.981 373.567 374.988 373.747C374.994 373.926 374.952 374.104 374.866 374.261C374.78 374.419 374.654 374.55 374.5 374.642C374.345 374.733 374.169 374.782 373.99 374.782Z" fill="black"/>
<path d="M380.03 369.282H369.95C368.039 369.282 366.49 370.831 366.49 372.742V373.822C366.49 375.733 368.039 377.282 369.95 377.282H380.03C381.941 377.282 383.49 375.733 383.49 373.822V372.742C383.49 370.831 381.941 369.282 380.03 369.282Z" fill="white"/>
<path d="M380.03 371.282C380.225 371.283 380.417 371.323 380.596 371.4C380.776 371.476 380.938 371.587 381.074 371.727C381.21 371.866 381.316 372.031 381.388 372.213C381.459 372.394 381.494 372.587 381.49 372.782V373.782C381.487 374.169 381.333 374.538 381.06 374.812C380.786 375.085 380.416 375.239 380.03 375.242H369.95C369.564 375.239 369.194 375.085 368.92 374.812C368.647 374.538 368.493 374.169 368.49 373.782V372.782C368.493 372.396 368.647 372.026 368.92 371.753C369.194 371.479 369.564 371.325 369.95 371.322H380.03V371.282ZM380.03 369.322H369.95C369.032 369.322 368.152 369.687 367.503 370.336C366.855 370.984 366.49 371.864 366.49 372.782V373.782C366.49 374.7 366.855 375.58 367.503 376.229C368.152 376.878 369.032 377.242 369.95 377.242H380.03C380.948 377.242 381.828 376.878 382.477 376.229C383.125 375.58 383.49 374.7 383.49 373.782V372.782C383.49 371.864 383.125 370.984 382.477 370.336C381.828 369.687 380.948 369.322 380.03 369.322Z" fill="black"/>
<path d="M371.49 403.282C371.384 403.296 371.276 403.296 371.17 403.282C371.045 403.24 370.93 403.174 370.83 403.088C370.731 403.001 370.65 402.896 370.591 402.778C370.533 402.66 370.498 402.532 370.489 402.4C370.48 402.269 370.498 402.137 370.54 402.012C375.37 387.512 371.54 376.782 371.54 376.672C371.491 376.548 371.467 376.415 371.471 376.281C371.474 376.148 371.504 376.016 371.559 375.894C371.614 375.772 371.693 375.663 371.791 375.572C371.889 375.481 372.004 375.411 372.13 375.365C372.256 375.32 372.389 375.3 372.523 375.307C372.656 375.314 372.787 375.348 372.907 375.406C373.028 375.465 373.135 375.547 373.223 375.647C373.311 375.748 373.378 375.865 373.42 375.992C373.59 376.452 377.48 387.492 372.42 402.652C372.346 402.838 372.218 402.998 372.052 403.11C371.886 403.222 371.69 403.282 371.49 403.282Z" fill="black"/>
<path d="M296.49 254.282C296.343 254.282 296.198 254.25 296.065 254.188C295.932 254.126 295.814 254.035 295.72 253.922C269.59 222.772 290.31 183.022 290.52 182.622C290.645 182.387 290.857 182.212 291.112 182.134C291.366 182.056 291.64 182.082 291.875 182.207C292.11 182.332 292.285 182.545 292.363 182.799C292.441 183.053 292.415 183.327 292.29 183.562C292.08 183.952 272 222.562 297.29 252.642C297.412 252.788 297.489 252.966 297.513 253.155C297.538 253.343 297.508 253.535 297.427 253.707C297.346 253.879 297.218 254.025 297.057 254.127C296.897 254.228 296.71 254.282 296.52 254.282H296.49Z" fill="black"/>
<path d="M322.49 231.222C322.338 231.223 322.187 231.188 322.05 231.122C288.68 214.882 299.05 177.622 299.17 177.252C299.206 177.125 299.266 177.006 299.348 176.903C299.43 176.799 299.531 176.713 299.646 176.649C299.762 176.585 299.888 176.544 300.02 176.529C300.151 176.514 300.283 176.525 300.41 176.562C300.664 176.636 300.879 176.809 301.007 177.041C301.134 177.274 301.164 177.547 301.09 177.802C300.67 179.272 291.09 213.802 322.93 229.322C323.048 229.38 323.154 229.46 323.241 229.559C323.329 229.657 323.395 229.772 323.438 229.897C323.481 230.021 323.499 230.153 323.49 230.284C323.482 230.415 323.448 230.544 323.39 230.662C323.307 230.83 323.179 230.972 323.02 231.071C322.861 231.17 322.677 231.222 322.49 231.222Z" fill="black"/>
<path d="M306.635 187.127C311.2 184.504 314.004 180.819 312.9 178.897C311.795 176.975 307.2 177.544 302.635 180.167C298.07 182.79 295.265 186.475 296.37 188.397C297.474 190.319 302.07 189.75 306.635 187.127Z" fill="white"/>
<path d="M300.49 173.402C300.83 173.386 301.17 173.437 301.49 173.552C301.49 174.312 299.92 176.762 296.02 179.012C294.069 180.241 291.849 180.979 289.55 181.162C289.21 181.178 288.87 181.127 288.55 181.012C288.55 180.252 290.12 177.802 294.02 175.552C295.971 174.323 298.191 173.585 300.49 173.402ZM300.49 171.402C297.839 171.582 295.273 172.414 293.02 173.822C288.48 176.442 285.69 180.122 286.79 182.032C287.112 182.445 287.535 182.766 288.02 182.964C288.504 183.163 289.031 183.231 289.55 183.162C292.201 182.982 294.767 182.151 297.02 180.742C301.56 178.122 304.35 174.442 303.25 172.532C302.928 172.119 302.504 171.798 302.02 171.6C301.536 171.402 301.009 171.333 300.49 171.402Z" fill="black"/>
<path d="M275.95 279.492C275.771 279.492 275.596 279.445 275.442 279.354C275.288 279.264 275.161 279.134 275.074 278.978C274.987 278.822 274.944 278.645 274.948 278.466C274.953 278.288 275.005 278.114 275.1 277.962C306.33 228.532 378.1 186.542 378.83 186.122C378.944 186.056 379.07 186.013 379.201 185.996C379.332 185.979 379.465 185.988 379.592 186.022C379.719 186.056 379.839 186.116 379.943 186.196C380.047 186.277 380.135 186.377 380.2 186.492C380.33 186.722 380.365 186.994 380.295 187.248C380.226 187.503 380.059 187.72 379.83 187.852C379.12 188.272 307.76 230.022 276.83 279.022C276.737 279.171 276.607 279.292 276.453 279.375C276.299 279.457 276.125 279.498 275.95 279.492Z" fill="black"/>
<path d="M80.74 251.152C80.3589 251.153 79.9917 251.009 79.7131 250.749C79.4345 250.489 79.2654 250.132 79.24 249.752C78.78 243.032 78.72 236.392 78.72 231.362C78.8 225.912 78.96 219.472 79.51 212.952C79.5481 212.557 79.7405 212.192 80.0457 211.937C80.3508 211.683 80.7439 211.559 81.1399 211.592C81.3358 211.609 81.5268 211.663 81.7014 211.754C81.876 211.844 82.0308 211.968 82.1572 212.119C82.2836 212.27 82.3792 212.444 82.438 212.631C82.4968 212.819 82.5178 213.016 82.5 213.212C81.96 219.642 81.8 226.002 81.72 231.382C81.72 236.382 81.78 242.912 82.23 249.552C82.2449 249.748 82.2208 249.945 82.1587 250.132C82.0966 250.318 81.9978 250.491 81.8684 250.639C81.739 250.787 81.5816 250.908 81.405 250.994C81.2284 251.08 81.0364 251.131 80.8401 251.142L80.74 251.152Z" fill="black"/>
<path d="M83.5401 190.462H83.2801C82.8885 190.392 82.5405 190.169 82.3121 189.843C82.0836 189.517 81.9932 189.114 82.0601 188.722C84.1438 176.571 87.3508 164.64 91.64 153.082C91.6888 152.877 91.7804 152.685 91.9085 152.518C92.0366 152.351 92.1983 152.213 92.3834 152.112C92.5684 152.012 92.7728 151.951 92.9827 151.935C93.1927 151.919 93.4037 151.947 93.6021 152.017C93.8005 152.088 93.9817 152.199 94.1341 152.345C94.2865 152.49 94.4066 152.666 94.4866 152.861C94.5666 153.055 94.6048 153.265 94.5985 153.475C94.5922 153.686 94.5415 153.893 94.45 154.082C90.2258 165.468 87.0689 177.222 85.0201 189.192C84.9653 189.546 84.7861 189.868 84.5147 190.101C84.2434 190.333 83.8977 190.462 83.5401 190.462Z" fill="black"/>
<path d="M106.09 128.412C105.821 128.412 105.557 128.339 105.326 128.201C105.094 128.064 104.904 127.867 104.776 127.63C104.647 127.394 104.584 127.128 104.593 126.859C104.603 126.59 104.685 126.329 104.83 126.102L105.68 124.752C106.22 123.892 106.75 123.042 107.32 122.202L111.37 116.582C111.72 116.132 112.05 115.732 112.37 115.342L115.79 111.192C116.46 110.382 117.17 109.642 117.87 108.922L118.96 107.762L120.56 106.082C121.101 105.474 121.679 104.9 122.29 104.362L125.65 101.292L126.24 100.752C126.62 100.402 127.01 100.042 127.45 99.6922L129.26 98.2822C129.414 98.1537 129.593 98.0576 129.785 97.9993C129.977 97.9411 130.179 97.922 130.378 97.9432C130.578 97.9644 130.771 98.0254 130.947 98.1226C131.122 98.2199 131.277 98.3514 131.4 98.5094C131.524 98.6673 131.615 98.8486 131.668 99.0423C131.72 99.236 131.733 99.4383 131.706 99.6372C131.679 99.836 131.612 100.028 131.51 100.2C131.408 100.373 131.272 100.523 131.11 100.642L129.3 102.052C128.95 102.332 128.62 102.642 128.3 102.952C127.98 103.262 127.89 103.342 127.68 103.522L124.3 106.602C123.76 107.084 123.246 107.595 122.76 108.132L121.17 109.812C120.82 110.202 120.43 110.602 120.05 111.002C119.36 111.712 118.72 112.382 118.12 113.102L114.7 117.252C114.39 117.622 114.08 118.002 113.78 118.382L109.78 123.922C109.26 124.692 108.78 125.522 108.22 126.342L107.35 127.722C107.215 127.934 107.029 128.108 106.809 128.229C106.588 128.35 106.341 128.413 106.09 128.412Z" fill="black"/>
<path d="M155.9 86.1823C155.55 86.1803 155.212 86.0562 154.945 85.8316C154.677 85.6069 154.496 85.2958 154.433 84.9519C154.37 84.608 154.429 84.253 154.6 83.9481C154.771 83.6433 155.044 83.4077 155.37 83.2822C167.002 78.9267 179.258 76.4686 191.67 76.0022C191.867 75.9914 192.064 76.0201 192.25 76.0866C192.435 76.153 192.605 76.2558 192.751 76.389C192.896 76.5223 193.013 76.6832 193.096 76.8623C193.178 77.0415 193.224 77.2352 193.23 77.4323C193.239 77.6293 193.21 77.8262 193.143 78.0118C193.076 78.1974 192.973 78.368 192.841 78.5138C192.708 78.6596 192.547 78.7779 192.369 78.8617C192.19 78.9455 191.997 78.9932 191.8 79.0022C179.71 79.4541 167.772 81.8446 156.44 86.0823C156.268 86.1492 156.085 86.1831 155.9 86.1823Z" fill="black"/>
<path d="M230.75 84.0423C230.576 84.0417 230.404 84.0113 230.24 83.9523C224.603 81.9711 218.753 80.6554 212.81 80.0323C211.81 79.9323 210.88 79.8523 209.9 79.7723L208.29 79.6322C207.37 79.5522 206.43 79.5322 205.45 79.5122H203.8L201.22 79.4323C199.091 79.3223 196.959 79.3223 194.83 79.4323C194.633 79.4461 194.435 79.421 194.248 79.3583C194.061 79.2957 193.888 79.1967 193.739 79.0672C193.589 78.9376 193.468 78.78 193.379 78.6033C193.291 78.4266 193.239 78.2343 193.225 78.0373C193.211 77.8403 193.236 77.6425 193.299 77.4552C193.362 77.268 193.461 77.0949 193.59 76.9458C193.72 76.7968 193.877 76.6747 194.054 76.5866C194.231 76.4985 194.423 76.4461 194.62 76.4323C196.852 76.3123 199.088 76.3123 201.32 76.4323C202.18 76.4323 203.03 76.4922 203.89 76.5022H205.52C206.52 76.5022 207.52 76.5022 208.52 76.6322L210.12 76.7723C211.12 76.8523 212.12 76.9423 213.12 77.0423C219.301 77.6916 225.386 79.0608 231.25 81.1222C231.581 81.2425 231.86 81.4758 232.037 81.781C232.213 82.0862 232.277 82.4438 232.216 82.7912C232.155 83.1385 231.973 83.4533 231.704 83.6802C231.434 83.9072 231.093 84.0319 230.74 84.0323L230.75 84.0423Z" fill="black"/>
<path d="M265.89 129.462C265.516 129.464 265.156 129.325 264.88 129.073C264.604 128.821 264.432 128.474 264.4 128.102C264.081 125.12 263.573 122.161 262.88 119.242C262.154 116.357 261.215 113.529 260.07 110.782C258.926 108.034 257.526 105.399 255.89 102.912C255.29 101.963 254.643 101.046 253.95 100.162L253.24 99.2322C252.98 98.9022 252.67 98.5522 252.36 98.2322L251.81 97.6022C251.355 97.0535 250.871 96.5295 250.36 96.0323C250.081 95.7568 249.92 95.3829 249.913 94.9906C249.906 94.5983 250.053 94.2189 250.323 93.9337C250.592 93.6486 250.963 93.4804 251.355 93.4651C251.747 93.4499 252.129 93.5888 252.42 93.8522C253.01 94.4202 253.568 95.0212 254.09 95.6523L254.61 96.2522C254.957 96.6389 255.29 97.039 255.61 97.4523L256.32 98.3922C257.061 99.3352 257.752 100.317 258.39 101.332C260.117 103.956 261.597 106.735 262.81 109.632C264.03 112.53 265.033 115.515 265.81 118.562C266.547 121.623 267.078 124.73 267.4 127.862C267.419 128.058 267.4 128.256 267.342 128.444C267.284 128.632 267.19 128.807 267.065 128.959C266.939 129.11 266.785 129.235 266.611 129.327C266.437 129.419 266.246 129.475 266.05 129.492L265.89 129.462Z" fill="black"/>
<path d="M250.03 192.872C249.747 192.875 249.469 192.795 249.23 192.642C249.063 192.537 248.919 192.4 248.805 192.239C248.691 192.079 248.61 191.897 248.566 191.705C248.522 191.512 248.517 191.313 248.55 191.119C248.584 190.925 248.655 190.739 248.76 190.572C251.977 185.466 254.728 180.081 256.98 174.482C259.257 168.885 261.066 163.108 262.39 157.212C262.479 156.824 262.718 156.486 263.056 156.274C263.394 156.062 263.801 155.993 264.19 156.082C264.579 156.171 264.916 156.411 265.128 156.748C265.34 157.086 265.409 157.494 265.32 157.882C263.956 163.935 262.096 169.864 259.76 175.612C257.44 181.374 254.609 186.916 251.3 192.172C251.164 192.386 250.977 192.562 250.755 192.685C250.533 192.807 250.284 192.871 250.03 192.872Z" fill="black"/>
<path d="M222.05 214.362C221.132 214.364 220.215 214.284 219.31 214.122C215.974 213.495 212.877 211.951 210.37 209.662C207.996 207.484 205.936 204.987 204.25 202.242C202.53 199.516 201.204 196.56 200.31 193.462C200.246 193.27 200.221 193.067 200.237 192.866C200.253 192.664 200.31 192.467 200.404 192.288C200.498 192.109 200.627 191.951 200.784 191.823C200.941 191.695 201.122 191.6 201.317 191.544C201.511 191.488 201.715 191.472 201.916 191.496C202.117 191.521 202.311 191.586 202.486 191.688C202.661 191.79 202.813 191.926 202.934 192.088C203.055 192.25 203.142 192.435 203.19 192.632C204.011 195.454 205.223 198.147 206.79 200.632C208.327 203.137 210.201 205.419 212.36 207.412C214.454 209.326 217.035 210.623 219.82 211.162C222.636 211.576 225.512 211.231 228.15 210.162C228.334 210.092 228.53 210.058 228.727 210.064C228.923 210.069 229.117 210.114 229.297 210.195C229.476 210.276 229.638 210.391 229.772 210.535C229.907 210.679 230.011 210.848 230.08 211.032C230.22 211.404 230.207 211.815 230.044 212.177C229.881 212.539 229.581 212.821 229.21 212.962C226.928 213.859 224.502 214.333 222.05 214.362Z" fill="black"/>
<path d="M201.56 191.542C201.211 191.543 200.873 191.422 200.604 191.199C200.335 190.976 200.153 190.666 200.09 190.322C199.002 184.049 199.631 177.598 201.91 171.652C204.142 165.805 207.321 160.366 211.32 155.552C211.444 155.399 211.597 155.272 211.77 155.178C211.944 155.085 212.133 155.026 212.329 155.005C212.525 154.985 212.723 155.003 212.912 155.059C213.101 155.115 213.277 155.208 213.43 155.332C213.583 155.456 213.71 155.609 213.804 155.783C213.898 155.956 213.957 156.146 213.977 156.342C213.998 156.538 213.979 156.736 213.923 156.924C213.867 157.113 213.774 157.289 213.65 157.442C209.861 161.999 206.848 167.148 204.73 172.682C202.64 178.12 202.056 184.021 203.04 189.762C203.111 190.154 203.024 190.558 202.8 190.888C202.575 191.217 202.231 191.445 201.84 191.522L201.56 191.542Z" fill="black"/>
<path d="M229.84 141.152C229.523 141.153 229.215 141.054 228.958 140.868C228.702 140.683 228.51 140.421 228.411 140.12C228.313 139.819 228.311 139.495 228.408 139.194C228.505 138.892 228.695 138.629 228.95 138.442C239.001 131.234 249.882 125.261 261.36 120.652C261.543 120.577 261.738 120.539 261.935 120.54C262.133 120.541 262.328 120.58 262.51 120.656C262.692 120.732 262.857 120.844 262.996 120.984C263.135 121.124 263.245 121.29 263.32 121.472C263.395 121.655 263.433 121.85 263.432 122.047C263.432 122.245 263.392 122.44 263.316 122.622C263.24 122.804 263.128 122.969 262.988 123.108C262.848 123.247 262.683 123.357 262.5 123.432C251.248 127.951 240.578 133.802 230.72 140.862C230.465 141.049 230.157 141.151 229.84 141.152Z" fill="black"/>
<path d="M290.2 114.372C289.838 114.367 289.49 114.23 289.22 113.988C288.951 113.745 288.778 113.414 288.734 113.054C288.691 112.694 288.778 112.331 288.982 112.031C289.185 111.731 289.49 111.515 289.84 111.422C301.792 108.495 313.951 106.489 326.21 105.422C326.407 105.404 326.605 105.426 326.794 105.485C326.983 105.544 327.159 105.639 327.31 105.766C327.462 105.893 327.588 106.048 327.679 106.223C327.771 106.399 327.827 106.59 327.845 106.787C327.863 106.984 327.842 107.183 327.783 107.372C327.724 107.56 327.628 107.736 327.501 107.887C327.375 108.039 327.219 108.165 327.044 108.256C326.869 108.348 326.677 108.404 326.48 108.422C314.372 109.475 302.364 111.457 290.56 114.352C290.441 114.373 290.32 114.38 290.2 114.372Z" fill="black"/>
<path d="M392.49 111.092H392.26L383.2 109.692C381.29 109.422 379.3 109.212 377.39 109.012C376.31 108.902 375.23 108.792 374.15 108.662C368.63 108.082 362.68 107.712 355.98 107.522C355.783 107.516 355.589 107.472 355.409 107.391C355.23 107.31 355.068 107.194 354.933 107.051C354.797 106.908 354.692 106.739 354.622 106.555C354.552 106.37 354.519 106.174 354.525 105.977C354.531 105.78 354.576 105.586 354.656 105.407C354.737 105.227 354.853 105.065 354.996 104.93C355.139 104.795 355.308 104.689 355.492 104.619C355.677 104.549 355.873 104.516 356.07 104.522C362.84 104.712 368.86 105.092 374.48 105.682C375.56 105.812 376.63 105.922 377.69 106.032C379.69 106.232 381.69 106.442 383.69 106.722L392.77 108.122C393.168 108.153 393.537 108.34 393.797 108.643C394.057 108.946 394.185 109.339 394.155 109.737C394.124 110.135 393.937 110.504 393.634 110.764C393.331 111.024 392.938 111.153 392.54 111.122L392.49 111.092Z" fill="black"/>
<path d="M430.49 122.172C430.305 122.169 430.122 122.132 429.95 122.062C418.637 117.732 406.961 114.415 395.06 112.152C394.866 112.115 394.682 112.041 394.517 111.933C394.352 111.825 394.21 111.685 394.099 111.522C393.988 111.359 393.91 111.176 393.87 110.983C393.83 110.79 393.828 110.591 393.865 110.397C393.902 110.203 393.976 110.019 394.084 109.854C394.193 109.689 394.332 109.547 394.495 109.436C394.658 109.325 394.841 109.248 395.034 109.207C395.227 109.167 395.426 109.165 395.62 109.202C407.698 111.5 419.548 114.866 431.03 119.262C431.353 119.393 431.621 119.631 431.789 119.936C431.956 120.242 432.013 120.595 431.949 120.938C431.886 121.28 431.706 121.59 431.44 121.815C431.174 122.04 430.838 122.166 430.49 122.172Z" fill="black"/>
<path d="M483.94 150.962C483.628 150.962 483.324 150.864 483.07 150.682C473.205 143.564 462.846 137.158 452.07 131.512C451.886 131.427 451.721 131.306 451.584 131.155C451.448 131.005 451.344 130.828 451.278 130.636C451.212 130.444 451.186 130.241 451.201 130.039C451.216 129.836 451.272 129.639 451.366 129.459C451.459 129.279 451.588 129.119 451.745 128.991C451.902 128.862 452.083 128.766 452.278 128.709C452.473 128.653 452.677 128.636 452.879 128.661C453.08 128.685 453.274 128.75 453.45 128.852C464.338 134.568 474.807 141.048 484.78 148.242C485.038 148.427 485.231 148.689 485.331 148.99C485.431 149.291 485.433 149.617 485.336 149.919C485.239 150.222 485.049 150.486 484.793 150.673C484.536 150.86 484.227 150.962 483.91 150.962H483.94Z" fill="black"/>
<path d="M535.76 192.382C535.415 192.383 535.08 192.267 534.81 192.052C530.04 188.172 525.24 184.172 520.59 180.302C515.94 176.432 511.27 172.542 506.59 168.712C506.281 168.46 506.085 168.096 506.044 167.699C506.004 167.303 506.123 166.906 506.375 166.597C506.627 166.288 506.991 166.092 507.388 166.052C507.784 166.011 508.181 166.13 508.49 166.382C513.2 170.222 517.94 174.172 522.49 177.992C527.04 181.812 531.93 185.852 536.68 189.722C536.834 189.845 536.962 189.998 537.057 190.171C537.151 190.345 537.211 190.535 537.231 190.731C537.252 190.928 537.233 191.126 537.176 191.315C537.119 191.504 537.025 191.68 536.9 191.832C536.763 192.003 536.589 192.141 536.392 192.236C536.195 192.331 535.979 192.381 535.76 192.382Z" fill="black"/>
<path d="M591.31 228.062C591.111 228.065 590.914 228.027 590.73 227.952C579.407 223.121 568.618 217.122 558.54 210.052C558.379 209.939 558.241 209.796 558.135 209.63C558.029 209.463 557.957 209.278 557.922 209.084C557.853 208.692 557.942 208.289 558.17 207.962C558.398 207.636 558.747 207.414 559.138 207.344C559.53 207.275 559.934 207.364 560.26 207.592C570.159 214.545 580.761 220.441 591.89 225.182C592.207 225.318 592.469 225.558 592.629 225.863C592.79 226.169 592.841 226.52 592.773 226.858C592.705 227.197 592.522 227.501 592.255 227.72C591.989 227.94 591.655 228.06 591.31 228.062Z" fill="black"/>
<path d="M624.74 248.372C624.536 248.373 624.334 248.331 624.146 248.25C623.959 248.17 623.79 248.051 623.65 247.902C619.59 243.55 614.942 239.787 609.84 236.722C607.273 235.198 604.6 233.862 601.84 232.722L593.34 229.552C593.153 229.485 592.982 229.381 592.835 229.247C592.689 229.113 592.57 228.952 592.487 228.771C592.403 228.591 592.356 228.396 592.349 228.198C592.341 228 592.373 227.802 592.443 227.616C592.512 227.43 592.618 227.259 592.754 227.115C592.889 226.97 593.053 226.853 593.234 226.772C593.415 226.691 593.61 226.646 593.809 226.641C594.007 226.636 594.205 226.67 594.39 226.742L602.97 229.942C605.869 231.147 608.676 232.561 611.37 234.172C616.703 237.379 621.563 241.314 625.81 245.862C626.011 246.075 626.146 246.342 626.197 246.631C626.248 246.92 626.213 247.217 626.097 247.486C625.981 247.755 625.789 247.984 625.544 248.145C625.3 248.306 625.013 248.392 624.72 248.392L624.74 248.372Z" fill="black"/>
<path d="M650.32 302.712C649.971 302.709 649.633 302.585 649.365 302.36C649.097 302.136 648.915 301.826 648.85 301.482C646.767 289.551 642.967 277.985 637.57 267.142C637.388 266.787 637.355 266.374 637.478 265.994C637.601 265.614 637.87 265.299 638.225 265.117C638.58 264.935 638.993 264.903 639.373 265.025C639.753 265.148 640.068 265.417 640.25 265.772C645.77 276.876 649.66 288.718 651.8 300.932C651.836 301.126 651.834 301.325 651.793 301.518C651.752 301.71 651.674 301.893 651.562 302.056C651.451 302.218 651.309 302.357 651.144 302.465C650.978 302.572 650.794 302.646 650.6 302.682C650.508 302.703 650.414 302.713 650.32 302.712Z" fill="black"/>
<path d="M649.49 368.782H649.19C648.997 368.743 648.813 368.666 648.65 368.556C648.487 368.445 648.347 368.304 648.238 368.14C648.13 367.975 648.055 367.791 648.017 367.598C647.98 367.404 647.981 367.205 648.02 367.012C650.474 355.128 651.668 343.017 651.58 330.882C651.579 330.685 651.616 330.49 651.69 330.307C651.765 330.125 651.874 329.959 652.012 329.819C652.151 329.678 652.315 329.567 652.497 329.49C652.678 329.414 652.873 329.374 653.07 329.372C653.466 329.372 653.846 329.529 654.127 329.808C654.408 330.087 654.567 330.466 654.57 330.862C654.658 343.209 653.444 355.53 650.95 367.622C650.872 367.951 650.685 368.244 650.42 368.454C650.156 368.665 649.828 368.78 649.49 368.782Z" fill="black"/>
<path d="M619.49 426.782C619.176 426.793 618.867 426.705 618.607 426.53C618.346 426.356 618.146 426.105 618.036 425.811C617.925 425.517 617.91 425.196 617.991 424.894C618.073 424.591 618.247 424.321 618.49 424.122C620.768 422.178 622.904 420.073 624.88 417.822C626.846 415.565 628.683 413.198 630.38 410.732C633.782 405.746 636.718 400.457 639.15 394.932C639.328 394.594 639.628 394.337 639.989 394.213C640.35 394.089 640.745 394.107 641.093 394.264C641.441 394.421 641.717 394.704 641.863 395.057C642.009 395.41 642.015 395.805 641.88 396.162C639.385 401.85 636.372 407.296 632.88 412.432C631.105 415 629.188 417.467 627.14 419.822C625.059 422.184 622.813 424.397 620.42 426.442C620.158 426.659 619.83 426.779 619.49 426.782Z" fill="black"/>
<path d="M587.69 449.582C587.442 449.582 587.198 449.52 586.98 449.402C586.64 449.212 586.386 448.898 586.273 448.525C586.159 448.152 586.194 447.75 586.37 447.402C587.925 444.549 589.931 441.965 592.31 439.752C594.676 437.582 597.315 435.73 600.16 434.242C601.6 433.452 603.11 432.802 604.57 432.172C606.03 431.542 607.22 431.032 608.45 430.372C611.083 429.026 613.584 427.436 615.92 425.622C616.075 425.491 616.255 425.392 616.45 425.332C616.644 425.272 616.849 425.253 617.051 425.275C617.253 425.296 617.449 425.359 617.626 425.459C617.803 425.559 617.958 425.693 618.082 425.855C618.206 426.016 618.295 426.201 618.345 426.399C618.395 426.596 618.404 426.801 618.372 427.002C618.34 427.203 618.267 427.395 618.159 427.567C618.05 427.739 617.908 427.887 617.74 428.002C615.268 429.916 612.619 431.59 609.83 433.002C608.52 433.702 607.12 434.312 605.76 434.892C604.4 435.472 602.92 436.122 601.58 436.892C598.963 438.261 596.536 439.965 594.36 441.962C592.213 443.948 590.406 446.272 589.01 448.842C588.876 449.072 588.683 449.262 588.451 449.392C588.219 449.523 587.956 449.588 587.69 449.582Z" fill="black"/>
<path d="M589.49 509.402C589.143 509.4 588.808 509.278 588.54 509.058C588.273 508.838 588.089 508.532 588.02 508.192C587.73 506.662 587.43 505.142 587.13 503.612C586.27 499.212 585.38 494.662 584.6 490.172C583.49 484.113 582.751 477.992 582.39 471.842C582.371 471.445 582.512 471.056 582.78 470.761C583.048 470.467 583.422 470.291 583.82 470.272C584.218 470.254 584.607 470.394 584.901 470.662C585.195 470.93 585.371 471.304 585.39 471.702C585.748 477.741 586.477 483.752 587.57 489.702C588.34 494.162 589.23 498.702 590.09 503.082C590.38 504.602 590.68 506.082 590.98 507.662C591.051 508.053 590.966 508.456 590.744 508.785C590.521 509.114 590.179 509.342 589.79 509.422L589.49 509.402Z" fill="black"/>
<path d="M588.64 574.782C588.389 574.785 588.142 574.724 587.921 574.605C587.699 574.487 587.512 574.314 587.375 574.104C587.239 573.893 587.157 573.652 587.139 573.402C587.121 573.151 587.166 572.9 587.27 572.672C589.676 567.182 591.253 561.366 591.95 555.412C592.657 549.438 592.781 543.41 592.32 537.412C592.294 537.014 592.426 536.622 592.689 536.322C592.951 536.022 593.322 535.839 593.72 535.812C594.118 535.786 594.51 535.918 594.81 536.181C595.11 536.443 595.294 536.814 595.32 537.212C595.787 543.417 595.656 549.652 594.93 555.832C594.194 562.076 592.536 568.176 590.01 573.932C589.886 574.19 589.692 574.406 589.449 574.557C589.206 574.707 588.926 574.786 588.64 574.782Z" fill="black"/>
<path d="M536.64 612.462C536.242 612.497 535.847 612.372 535.541 612.115C535.236 611.858 535.044 611.49 535.01 611.092C534.976 610.694 535.101 610.299 535.357 609.994C535.614 609.688 535.982 609.497 536.38 609.462C542.287 608.368 548.032 606.533 553.48 604.002C558.968 601.521 564.183 598.474 569.04 594.912C569.36 594.675 569.76 594.574 570.154 594.632C570.548 594.69 570.903 594.903 571.14 595.222C571.377 595.542 571.478 595.943 571.42 596.336C571.362 596.73 571.15 597.085 570.83 597.322C565.803 601.007 560.407 604.16 554.73 606.732C549.05 609.364 543.064 611.275 536.91 612.422L536.64 612.462Z" fill="black"/>
<path d="M524.56 613.092C521.436 613.085 518.316 612.872 515.22 612.452C512.148 612.044 509.105 611.439 506.11 610.642C503.118 609.876 500.17 608.945 497.28 607.852C497.081 607.798 496.896 607.703 496.735 607.573C496.575 607.444 496.443 607.283 496.347 607.1C496.252 606.917 496.195 606.717 496.181 606.511C496.166 606.305 496.195 606.099 496.263 605.904C496.332 605.71 496.441 605.532 496.581 605.381C496.722 605.231 496.893 605.111 497.082 605.029C497.271 604.947 497.475 604.905 497.681 604.906C497.887 604.906 498.091 604.949 498.28 605.032C501.08 606.085 503.934 606.99 506.83 607.742C509.718 608.505 512.65 609.086 515.61 609.482C518.571 609.877 521.553 610.08 524.54 610.092C527.498 610.084 530.451 609.873 533.38 609.462C533.778 609.403 534.183 609.503 534.507 609.742C534.83 609.982 535.045 610.339 535.105 610.737C535.165 611.135 535.064 611.54 534.825 611.864C534.586 612.187 534.228 612.403 533.83 612.462C530.758 612.883 527.661 613.094 524.56 613.092Z" fill="black"/>
<path d="M475.84 597.692C475.573 597.691 475.31 597.619 475.08 597.482C466.08 592.132 457.45 586.032 449.08 580.132L444.57 576.972C444.244 576.743 444.022 576.393 443.954 576C443.885 575.607 443.976 575.203 444.205 574.877C444.435 574.551 444.784 574.329 445.177 574.261C445.57 574.192 445.974 574.283 446.3 574.512L450.81 577.682C459.13 583.552 467.73 589.612 476.61 594.902C476.893 595.07 477.113 595.326 477.236 595.632C477.359 595.937 477.378 596.274 477.291 596.591C477.203 596.909 477.014 597.188 476.752 597.387C476.489 597.586 476.169 597.693 475.84 597.692Z" fill="black"/>
<path d="M420.56 561.072C420.301 561.072 420.047 561.007 419.82 560.882C414.611 557.881 409.162 555.316 403.53 553.212C400.724 552.187 397.859 551.332 394.95 550.652C392.06 549.989 389.125 549.535 386.17 549.292C385.772 549.259 385.404 549.069 385.146 548.764C384.888 548.46 384.762 548.065 384.795 547.667C384.828 547.269 385.018 546.901 385.323 546.643C385.628 546.385 386.022 546.259 386.42 546.292C389.524 546.548 392.605 547.026 395.64 547.722C398.663 548.434 401.641 549.322 404.56 550.382C410.346 552.548 415.944 555.183 421.3 558.262C421.586 558.427 421.809 558.681 421.936 558.985C422.063 559.289 422.086 559.627 422.002 559.946C421.918 560.264 421.731 560.546 421.47 560.748C421.21 560.95 420.89 561.06 420.56 561.062V561.072Z" fill="black"/>
<path d="M323.24 567.672C322.887 567.672 322.546 567.547 322.276 567.32C322.007 567.093 321.825 566.778 321.764 566.431C321.703 566.084 321.767 565.726 321.943 565.421C322.12 565.116 322.399 564.882 322.73 564.762C332.73 561.182 343.61 557.082 356.98 551.862C357.166 551.777 357.367 551.732 357.571 551.727C357.775 551.723 357.977 551.76 358.166 551.837C358.355 551.913 358.527 552.028 358.67 552.173C358.813 552.318 358.926 552.491 359 552.681C359.074 552.871 359.109 553.074 359.102 553.278C359.095 553.482 359.046 553.682 358.959 553.867C358.872 554.051 358.749 554.216 358.596 554.351C358.443 554.486 358.264 554.589 358.07 554.652C344.67 559.892 333.76 563.992 323.74 567.582C323.58 567.642 323.411 567.672 323.24 567.672Z" fill="black"/>
<path d="M285.49 579.642C285.133 579.639 284.789 579.509 284.519 579.275C284.249 579.041 284.072 578.718 284.019 578.365C283.966 578.012 284.041 577.652 284.23 577.349C284.419 577.046 284.71 576.82 285.05 576.712C296.24 573.332 307.6 569.602 319.77 565.282C320.145 565.15 320.558 565.172 320.917 565.343C321.276 565.515 321.552 565.822 321.685 566.197C321.818 566.573 321.796 566.985 321.624 567.344C321.452 567.703 321.145 567.98 320.77 568.112C308.56 572.442 297.16 576.192 285.92 579.582C285.78 579.622 285.635 579.642 285.49 579.642Z" fill="black"/>
<path d="M226.42 594.302C226.022 594.335 225.628 594.209 225.323 593.951C225.018 593.693 224.828 593.325 224.795 592.927C224.762 592.529 224.888 592.135 225.146 591.83C225.404 591.525 225.772 591.335 226.17 591.302C237.49 589.412 249.17 586.912 261.88 583.662C262.266 583.563 262.675 583.621 263.019 583.823C263.362 584.026 263.611 584.356 263.71 584.742C263.809 585.128 263.752 585.538 263.549 585.881C263.347 586.224 263.016 586.473 262.63 586.572C249.83 589.842 238.07 592.362 226.63 594.262L226.42 594.302Z" fill="black"/>
<path d="M180.25 598.502C173.534 598.521 166.821 598.187 160.14 597.502C159.742 597.461 159.377 597.264 159.125 596.953C158.872 596.643 158.754 596.245 158.795 595.847C158.836 595.449 159.034 595.084 159.344 594.832C159.654 594.58 160.052 594.461 160.45 594.502C172.538 595.702 184.708 595.836 196.82 594.902C197.218 594.874 197.61 595.006 197.911 595.267C198.212 595.529 198.397 595.899 198.425 596.297C198.453 596.695 198.321 597.088 198.06 597.389C197.798 597.69 197.428 597.874 197.03 597.902C191.22 598.302 185.64 598.502 180.25 598.502Z" fill="black"/>
<path d="M131.24 591.322C131.077 591.32 130.915 591.293 130.76 591.242C118.897 587.367 107.916 581.185 98.4501 573.052C98.3017 572.921 98.1807 572.762 98.0939 572.583C98.007 572.405 97.956 572.212 97.944 572.014C97.9319 571.816 97.959 571.618 98.0235 571.431C98.0881 571.243 98.1889 571.071 98.3202 570.922C98.4515 570.774 98.6106 570.653 98.7887 570.566C98.9668 570.479 99.1605 570.428 99.3583 570.416C99.5561 570.404 99.7542 570.431 99.9415 570.496C100.129 570.56 100.302 570.661 100.45 570.792C109.617 578.668 120.251 584.653 131.74 588.402C131.927 588.464 132.1 588.563 132.249 588.692C132.398 588.822 132.52 588.979 132.607 589.156C132.694 589.333 132.746 589.525 132.758 589.722C132.771 589.918 132.744 590.116 132.68 590.302C132.579 590.603 132.385 590.863 132.126 591.046C131.867 591.23 131.557 591.326 131.24 591.322Z" fill="black"/>
<path d="M97.5701 571.062C97.1983 571.059 96.8413 570.916 96.5701 570.662C92.0459 566.438 87.983 561.745 84.45 556.662C82.87 554.412 81.31 551.922 79.53 548.812L77.3699 544.742L76.79 543.512C76.32 542.512 75.7899 541.512 75.4199 540.412C75.3401 540.226 75.2987 540.027 75.2981 539.824C75.2975 539.622 75.3378 539.422 75.4165 539.236C75.4952 539.05 75.6107 538.881 75.7561 538.741C75.9015 538.6 76.0739 538.491 76.2627 538.419C76.4515 538.347 76.653 538.313 76.855 538.321C77.057 538.329 77.2554 538.377 77.4382 538.463C77.6211 538.55 77.7846 538.672 77.919 538.823C78.0533 538.974 78.1556 539.151 78.22 539.342C78.59 540.342 79.03 541.242 79.5 542.222C79.69 542.622 79.8701 543.012 80.0501 543.412L82.1599 547.412C83.8699 550.412 85.3799 552.822 86.9099 555.002C90.3205 559.925 94.2459 564.471 98.6199 568.562C98.9079 568.835 99.0767 569.211 99.0899 569.608C99.103 570.005 98.9593 570.391 98.6899 570.682C98.5378 570.817 98.3605 570.92 98.1682 570.985C97.9759 571.05 97.7726 571.076 97.5701 571.062Z" fill="black"/>
<path d="M72.08 517.782H72.0199C71.6229 517.764 71.249 517.59 70.9794 517.298C70.7098 517.006 70.5664 516.619 70.58 516.222C71.181 503.539 75.8833 491.394 83.9799 481.612C84.1025 481.453 84.2556 481.321 84.4303 481.222C84.6051 481.124 84.7979 481.061 84.9972 481.038C85.1966 481.015 85.3985 481.033 85.591 481.09C85.7835 481.146 85.9626 481.241 86.1178 481.368C86.2731 481.495 86.4013 481.652 86.4948 481.83C86.5883 482.007 86.6453 482.202 86.6623 482.402C86.6792 482.602 86.6559 482.803 86.5937 482.994C86.5314 483.184 86.4315 483.361 86.3 483.512C78.6174 492.79 74.1538 504.31 73.58 516.342C73.5645 516.73 73.3994 517.096 73.1198 517.364C72.8401 517.633 72.4676 517.783 72.08 517.782Z" fill="black"/>
<path d="M144.62 470.492C144.348 470.492 144.081 470.416 143.85 470.272C138.778 467.178 133.073 465.27 127.16 464.692C121.233 464.16 115.262 464.893 109.64 466.842C109.454 466.908 109.257 466.936 109.06 466.926C108.864 466.915 108.671 466.866 108.493 466.781C108.315 466.696 108.156 466.577 108.024 466.431C107.892 466.284 107.791 466.113 107.725 465.927C107.659 465.741 107.631 465.544 107.641 465.348C107.652 465.151 107.701 464.958 107.786 464.78C107.871 464.602 107.99 464.443 108.136 464.311C108.283 464.18 108.454 464.078 108.64 464.012C114.665 461.917 121.067 461.129 127.42 461.702C133.796 462.317 139.95 464.369 145.42 467.702C145.589 467.804 145.736 467.938 145.853 468.097C145.97 468.255 146.054 468.435 146.102 468.627C146.149 468.818 146.158 469.017 146.129 469.212C146.099 469.406 146.032 469.593 145.93 469.762C145.793 469.987 145.601 470.172 145.371 470.3C145.142 470.428 144.883 470.494 144.62 470.492Z" fill="black"/>
<path d="M179.16 525.682C178.869 525.681 178.584 525.596 178.341 525.436C178.098 525.276 177.907 525.049 177.79 524.782C176.54 521.942 175.37 519.072 174.31 516.252C173.69 514.572 173.1 512.912 172.51 511.252C172.08 510.042 171.65 508.832 171.21 507.622C169.164 501.95 166.603 496.477 163.56 491.272C163.365 490.93 163.313 490.526 163.413 490.146C163.514 489.765 163.76 489.44 164.098 489.239C164.437 489.039 164.84 488.979 165.222 489.073C165.604 489.167 165.934 489.407 166.14 489.742C169.275 495.108 171.916 500.748 174.03 506.592L175.33 510.252C175.92 511.912 176.51 513.572 177.12 515.252C178.12 518.012 179.31 520.832 180.54 523.632C180.624 523.814 180.671 524.01 180.678 524.21C180.685 524.41 180.651 524.609 180.579 524.795C180.508 524.982 180.399 525.152 180.26 525.296C180.121 525.44 179.954 525.554 179.77 525.632C179.573 525.692 179.365 525.709 179.16 525.682Z" fill="black"/>
<path d="M198.86 559.942C198.628 559.943 198.399 559.89 198.191 559.787C197.983 559.685 197.801 559.536 197.66 559.352C190.177 549.527 183.776 538.922 178.57 527.722C178.487 527.543 178.441 527.349 178.433 527.152C178.425 526.955 178.456 526.758 178.524 526.572C178.593 526.387 178.697 526.217 178.831 526.072C178.964 525.927 179.126 525.81 179.305 525.727C179.484 525.644 179.678 525.598 179.875 525.59C180.072 525.582 180.27 525.613 180.455 525.681C180.64 525.75 180.81 525.854 180.955 525.988C181.1 526.122 181.217 526.283 181.3 526.462C186.407 537.467 192.694 547.885 200.05 557.532C200.22 557.754 200.324 558.019 200.351 558.298C200.378 558.576 200.326 558.856 200.203 559.106C200.079 559.357 199.888 559.568 199.65 559.716C199.413 559.863 199.139 559.942 198.86 559.942Z" fill="black"/>
<path d="M243.57 600.852C243.278 600.853 242.992 600.766 242.75 600.602C232.451 593.868 222.868 586.097 214.15 577.412C213.883 577.129 213.737 576.754 213.742 576.365C213.747 575.976 213.903 575.605 214.176 575.328C214.45 575.052 214.82 574.893 215.209 574.885C215.598 574.876 215.974 575.018 216.26 575.282C224.835 583.824 234.26 591.468 244.39 598.092C244.662 598.268 244.87 598.528 244.983 598.832C245.095 599.136 245.106 599.469 245.014 599.779C244.921 600.09 244.731 600.363 244.471 600.556C244.21 600.75 243.894 600.854 243.57 600.852Z" fill="black"/>
<path d="M304.88 624.362H304.7C292.457 622.774 280.491 619.506 269.14 614.652C268.799 614.482 268.535 614.189 268.402 613.831C268.269 613.474 268.278 613.08 268.426 612.728C268.573 612.377 268.849 612.095 269.198 611.939C269.546 611.784 269.94 611.767 270.3 611.892C281.397 616.632 293.093 619.826 305.06 621.382C305.458 621.406 305.83 621.587 306.094 621.885C306.359 622.183 306.494 622.574 306.47 622.972C306.446 623.37 306.265 623.742 305.967 624.007C305.669 624.271 305.278 624.406 304.88 624.382V624.362Z" fill="black"/>
<path d="M334.36 623.482C333.962 623.522 333.565 623.402 333.255 623.149C332.946 622.896 332.75 622.53 332.71 622.132C332.67 621.734 332.79 621.337 333.043 621.028C333.296 620.718 333.662 620.522 334.06 620.482C339.903 619.311 345.566 617.37 350.9 614.712C353.549 613.391 356.091 611.863 358.5 610.142C360.925 608.435 363.209 606.536 365.33 604.462C365.616 604.199 365.992 604.056 366.381 604.064C366.77 604.073 367.14 604.232 367.413 604.509C367.687 604.785 367.843 605.156 367.848 605.545C367.853 605.934 367.706 606.309 367.44 606.592C362.957 610.938 357.838 614.576 352.26 617.382C346.689 620.155 340.774 622.173 334.67 623.382C334.57 623.426 334.466 623.459 334.36 623.482Z" fill="black"/>
<path d="M66.0218 266.649L60.1694 274.758L100.656 303.979L106.508 295.87L66.0218 266.649Z" fill="#ED5564"/>
<path d="M91.8904 260.855L62.0188 302.672L70.1559 308.485L100.028 266.668L91.8904 260.855Z" fill="#ED5564"/>
<path d="M400.54 499.342C400.74 518.942 370.88 581.162 370.88 581.162C370.88 581.162 343.74 519.532 343.54 499.932C343.34 480.332 355.93 464.312 371.67 464.152C387.41 463.992 400.34 479.782 400.54 499.342Z" fill="#ED5564"/>
<path d="M379.574 511.661C387.639 508.049 391.25 498.584 387.639 490.519C384.028 482.454 374.562 478.843 366.497 482.454C358.432 486.065 354.821 495.531 358.432 503.596C362.043 511.661 371.509 515.272 379.574 511.661Z" fill="white"/>
<path d="M559.57 131.482C559.246 131.481 558.93 131.376 558.67 131.182L535.89 114.062C535.73 113.943 535.596 113.793 535.495 113.621C535.394 113.45 535.328 113.26 535.3 113.062C535.249 112.669 535.353 112.271 535.59 111.952L552.71 89.1722C552.827 89.0135 552.975 88.8798 553.145 88.7786C553.314 88.6775 553.502 88.611 553.697 88.5831C553.893 88.5552 554.092 88.5664 554.283 88.616C554.474 88.6657 554.653 88.7527 554.81 88.8721L577.59 105.992C577.75 106.112 577.884 106.262 577.985 106.433C578.086 106.605 578.152 106.795 578.18 106.992C578.231 107.386 578.127 107.784 577.89 108.102L560.77 130.882C560.633 131.071 560.452 131.224 560.243 131.328C560.034 131.433 559.803 131.485 559.57 131.482ZM538.89 112.562L559.27 127.882L574.59 107.502L554.21 92.1822L538.89 112.562Z" fill="#ED5564"/>
<path d="M70.99 599.782C70.5168 599.78 70.0597 599.61 69.7 599.302L49.7 582.302C49.457 582.149 49.2499 581.945 49.0928 581.704C48.9358 581.463 48.8324 581.192 48.7898 580.907C48.7473 580.623 48.7666 580.333 48.8462 580.057C48.9259 579.781 49.0641 579.525 49.2515 579.307C49.4389 579.089 49.6711 578.914 49.9322 578.794C50.1933 578.674 50.4773 578.612 50.7647 578.611C51.0521 578.611 51.3362 578.672 51.5977 578.791C51.8592 578.911 52.092 579.085 52.2801 579.302L72.2801 596.302C72.5902 596.567 72.8118 596.921 72.9151 597.316C73.0184 597.711 72.9986 598.127 72.8582 598.51C72.7178 598.894 72.4636 599.225 72.1297 599.459C71.7958 599.693 71.398 599.82 70.99 599.822V599.782Z" fill="#47CEC0"/>
<path d="M162.99 202.282C162.837 202.283 162.685 202.26 162.54 202.212L143.54 196.212C143.173 196.083 142.871 195.816 142.697 195.468C142.523 195.12 142.491 194.718 142.608 194.347C142.725 193.976 142.981 193.665 143.323 193.479C143.665 193.294 144.065 193.248 144.44 193.352L163.44 199.352C163.781 199.46 164.072 199.687 164.261 199.991C164.45 200.295 164.524 200.656 164.47 201.01C164.415 201.364 164.237 201.686 163.965 201.92C163.694 202.153 163.348 202.282 162.99 202.282Z" fill="#ED5564"/>
<path d="M486.99 231.782H466.99C466.642 231.777 466.301 231.68 466.001 231.502C465.702 231.325 465.454 231.072 465.282 230.769C465.11 230.465 465.021 230.123 465.022 229.774C465.023 229.426 465.116 229.084 465.29 228.782L478.29 207.782C478.49 207.458 478.778 207.198 479.12 207.033C479.463 206.867 479.846 206.802 480.224 206.846C480.602 206.89 480.959 207.041 481.254 207.282C481.55 207.522 481.77 207.841 481.89 208.202L488.89 229.202C488.99 229.503 489.017 229.823 488.969 230.136C488.92 230.449 488.799 230.747 488.613 231.003C488.428 231.26 488.184 231.469 487.901 231.613C487.619 231.758 487.307 231.833 486.99 231.832V231.782ZM470.58 227.782H484.22L479.44 213.462L470.58 227.782Z" fill="#FCE054"/>
</svg>
