<svg width="700" height="700" viewBox="0 0 700 700" fill="none" xmlns="http://www.w3.org/2000/svg">
<rect width="700" height="700" fill="white"/>
<path d="M490.674 339.197L463.871 357.365L475.373 374.334L502.176 356.167L490.674 339.197Z" fill="#FCE054"/>
<path d="M463.9 357.823C463.768 357.823 463.64 357.771 463.547 357.677C463.453 357.583 463.4 357.456 463.4 357.323C463.4 357.191 463.453 357.064 463.547 356.97C463.64 356.876 463.768 356.823 463.9 356.823L482.74 356.234L490.26 338.964C490.285 338.902 490.322 338.846 490.37 338.8C490.417 338.753 490.473 338.716 490.534 338.692C490.596 338.668 490.662 338.656 490.728 338.658C490.795 338.66 490.86 338.676 490.92 338.704C490.981 338.73 491.035 338.768 491.081 338.815C491.127 338.862 491.163 338.918 491.187 338.979C491.212 339.041 491.223 339.106 491.222 339.172C491.221 339.238 491.207 339.303 491.18 339.363L483.53 356.924C483.494 357.011 483.433 357.085 483.354 357.139C483.276 357.192 483.185 357.221 483.09 357.224L463.93 357.823H463.9Z" fill="black"/>
<path d="M475.4 374.794H475.3C475.236 374.78 475.175 374.755 475.12 374.718C475.066 374.681 475.019 374.634 474.983 374.579C474.947 374.525 474.922 374.463 474.909 374.399C474.897 374.334 474.897 374.268 474.91 374.204L478.52 356.764C478.533 356.699 478.559 356.638 478.596 356.584C478.632 356.529 478.68 356.483 478.734 356.446C478.789 356.41 478.851 356.385 478.915 356.373C478.979 356.36 479.046 356.36 479.11 356.374C479.239 356.402 479.351 356.48 479.424 356.59C479.497 356.7 479.524 356.834 479.5 356.964L475.89 374.414C475.865 374.524 475.802 374.622 475.713 374.691C475.624 374.76 475.513 374.796 475.4 374.794Z" fill="black"/>
<path d="M502.2 356.634H502.11L484.7 353.434C484.57 353.409 484.456 353.335 484.381 353.226C484.306 353.117 484.277 352.983 484.3 352.854C484.327 352.725 484.402 352.612 484.51 352.537C484.618 352.463 484.751 352.433 484.88 352.454L502.29 355.654C502.423 355.666 502.545 355.73 502.63 355.832C502.716 355.934 502.757 356.066 502.745 356.199C502.733 356.331 502.669 356.454 502.567 356.539C502.465 356.624 502.333 356.666 502.2 356.654V356.634Z" fill="black"/>
<path d="M388.788 364.619L339.907 387.85L354.622 418.811L403.502 395.58L388.788 364.619Z" fill="#FCE054"/>
<path d="M371.86 392.043H371.8L340.01 388.184C339.944 388.176 339.88 388.156 339.823 388.124C339.765 388.091 339.714 388.048 339.673 387.996C339.632 387.943 339.602 387.884 339.584 387.82C339.566 387.756 339.562 387.689 339.57 387.624C339.577 387.558 339.598 387.495 339.63 387.437C339.663 387.38 339.706 387.33 339.759 387.29C339.811 387.249 339.871 387.22 339.935 387.204C339.998 387.187 340.065 387.184 340.13 387.194L371.61 391.014L388.52 364.184C388.592 364.072 388.705 363.994 388.834 363.966C388.963 363.938 389.099 363.962 389.21 364.033C389.267 364.067 389.317 364.112 389.356 364.166C389.395 364.219 389.423 364.28 389.438 364.344C389.452 364.409 389.454 364.476 389.443 364.541C389.431 364.606 389.406 364.668 389.37 364.724L372.29 391.813C372.244 391.885 372.18 391.944 372.105 391.985C372.03 392.025 371.945 392.045 371.86 392.043Z" fill="black"/>
<path d="M354.78 419.133H354.61C354.485 419.088 354.384 418.996 354.328 418.876C354.271 418.756 354.265 418.618 354.31 418.494L364.69 390.583C364.735 390.459 364.828 390.357 364.948 390.301C365.068 390.245 365.205 390.238 365.33 390.283C365.454 390.333 365.554 390.428 365.61 390.549C365.665 390.67 365.673 390.807 365.63 390.934L355.25 418.843C355.21 418.933 355.144 419.009 355.06 419.061C354.976 419.113 354.878 419.138 354.78 419.133Z" fill="black"/>
<path d="M403.66 395.904C403.607 395.913 403.553 395.913 403.5 395.904L375.5 386.214C375.438 386.193 375.38 386.161 375.331 386.118C375.281 386.075 375.241 386.023 375.212 385.964C375.183 385.905 375.166 385.841 375.162 385.776C375.159 385.711 375.168 385.645 375.19 385.583C375.233 385.459 375.323 385.357 375.441 385.299C375.559 385.241 375.695 385.232 375.82 385.274L403.82 394.954C403.886 394.965 403.948 394.989 404.005 395.024C404.061 395.06 404.11 395.106 404.149 395.16C404.187 395.214 404.215 395.276 404.229 395.341C404.244 395.406 404.246 395.473 404.235 395.539C404.224 395.604 404.2 395.667 404.164 395.723C404.129 395.78 404.083 395.829 404.028 395.867C403.974 395.906 403.913 395.933 403.848 395.948C403.783 395.963 403.716 395.965 403.65 395.954L403.66 395.904Z" fill="black"/>
<path d="M507.114 596.463L460.227 547.433L429.179 577.124L476.065 626.154L507.114 596.463Z" fill="#FCE054"/>
<path d="M507.31 597.044H507.19L468.19 587.384C468.098 587.36 468.015 587.31 467.949 587.241C467.884 587.172 467.839 587.087 467.82 586.994L459.9 547.634C459.876 547.504 459.903 547.37 459.976 547.26C460.049 547.15 460.161 547.072 460.29 547.044C460.354 547.03 460.421 547.03 460.485 547.043C460.55 547.055 460.611 547.08 460.666 547.117C460.721 547.153 460.768 547.199 460.804 547.254C460.841 547.308 460.867 547.369 460.88 547.434L468.74 586.434L507.4 596.024C507.533 596.04 507.653 596.107 507.736 596.212C507.818 596.318 507.856 596.451 507.84 596.584C507.824 596.716 507.756 596.837 507.651 596.92C507.546 597.002 507.413 597.04 507.28 597.024L507.31 597.044Z" fill="black"/>
<path d="M466.67 579.073L429.37 577.714C429.304 577.711 429.24 577.696 429.18 577.668C429.12 577.64 429.067 577.601 429.022 577.553C428.978 577.505 428.943 577.448 428.92 577.386C428.898 577.325 428.887 577.259 428.89 577.194C428.9 577.063 428.959 576.941 429.056 576.852C429.152 576.763 429.279 576.713 429.41 576.714L466.71 578.073C466.843 578.073 466.97 578.126 467.064 578.22C467.157 578.314 467.21 578.441 467.21 578.573C467.21 578.706 467.157 578.833 467.064 578.927C466.97 579.021 466.843 579.073 466.71 579.073H466.67Z" fill="black"/>
<path d="M476.26 626.734C476.195 626.734 476.13 626.721 476.07 626.695C476.01 626.67 475.956 626.633 475.91 626.587C475.864 626.54 475.828 626.485 475.804 626.424C475.78 626.364 475.769 626.299 475.77 626.234L476.29 589.144C476.285 589.076 476.296 589.008 476.32 588.945C476.344 588.881 476.381 588.824 476.43 588.776C476.478 588.729 476.537 588.692 476.6 588.669C476.664 588.646 476.732 588.638 476.8 588.644C476.932 588.649 477.056 588.705 477.148 588.8C477.239 588.895 477.29 589.022 477.29 589.154L476.77 626.244C476.765 626.376 476.709 626.5 476.614 626.591C476.519 626.683 476.392 626.734 476.26 626.734Z" fill="black"/>
<path d="M378.1 270.957L349.262 256.231L339.939 274.489L368.777 289.214L378.1 270.957Z" fill="#FCE054"/>
<path d="M359.05 273.224C358.964 273.224 358.879 273.202 358.803 273.16C358.728 273.118 358.665 273.057 358.62 272.984L348.86 256.494C348.792 256.378 348.773 256.241 348.807 256.111C348.841 255.982 348.925 255.871 349.04 255.803C349.155 255.736 349.293 255.717 349.422 255.751C349.552 255.785 349.662 255.868 349.73 255.984L359.32 272.204L378.08 270.464C378.213 270.45 378.345 270.49 378.448 270.575C378.551 270.659 378.617 270.781 378.63 270.914C378.643 271.046 378.603 271.179 378.519 271.282C378.435 271.385 378.313 271.45 378.18 271.464L359.1 273.234L359.05 273.224Z" fill="black"/>
<path d="M340 274.994C339.867 275.014 339.732 274.98 339.624 274.9C339.517 274.82 339.445 274.701 339.425 274.569C339.405 274.436 339.439 274.301 339.518 274.193C339.598 274.085 339.717 274.014 339.85 273.994L356.85 268.744C356.913 268.722 356.98 268.714 357.046 268.719C357.112 268.724 357.177 268.742 357.236 268.773C357.295 268.804 357.347 268.847 357.389 268.898C357.431 268.95 357.462 269.009 357.48 269.073C357.518 269.199 357.504 269.335 357.442 269.451C357.38 269.567 357.276 269.654 357.15 269.694L340.15 274.944C340.104 274.97 340.053 274.987 340 274.994Z" fill="black"/>
<path d="M368.8 289.724C368.697 289.72 368.597 289.686 368.513 289.625C368.429 289.565 368.366 289.481 368.33 289.384L362.74 272.584C362.718 272.522 362.709 272.456 362.712 272.391C362.716 272.326 362.733 272.262 362.762 272.203C362.791 272.144 362.831 272.092 362.881 272.049C362.93 272.006 362.988 271.974 363.05 271.954C363.112 271.932 363.178 271.922 363.244 271.926C363.311 271.929 363.375 271.946 363.435 271.975C363.494 272.004 363.547 272.044 363.591 272.094C363.635 272.143 363.669 272.201 363.69 272.264L369.28 289.064C369.321 289.189 369.31 289.327 369.25 289.445C369.19 289.563 369.086 289.652 368.96 289.694C368.909 289.714 368.855 289.724 368.8 289.724Z" fill="black"/>
<path d="M578.746 465.486L531.259 441.238L515.902 471.314L563.389 495.562L578.746 465.486Z" fill="#FCE054"/>
<path d="M547.36 468.904C547.274 468.904 547.189 468.882 547.113 468.84C547.038 468.798 546.975 468.737 546.93 468.664L530.86 441.504C530.826 441.447 530.805 441.383 530.796 441.318C530.786 441.252 530.79 441.185 530.807 441.121C530.824 441.057 530.853 440.997 530.893 440.944C530.933 440.892 530.983 440.847 531.04 440.814C531.097 440.78 531.16 440.758 531.226 440.749C531.291 440.74 531.358 440.744 531.422 440.761C531.486 440.778 531.546 440.807 531.599 440.847C531.652 440.886 531.696 440.937 531.73 440.994L547.63 467.874L578.73 464.994C578.863 464.98 578.995 465.02 579.098 465.105C579.201 465.189 579.267 465.311 579.28 465.444C579.293 465.576 579.253 465.709 579.169 465.812C579.085 465.915 578.963 465.98 578.83 465.994L547.41 468.904H547.36Z" fill="black"/>
<path d="M515.94 471.813C515.832 471.812 515.728 471.776 515.642 471.712C515.555 471.647 515.492 471.557 515.46 471.454C515.422 471.328 515.436 471.192 515.498 471.076C515.56 470.96 515.665 470.873 515.79 470.833L543.79 462.194C543.853 462.172 543.92 462.164 543.986 462.169C544.052 462.174 544.117 462.192 544.176 462.223C544.235 462.254 544.287 462.296 544.329 462.348C544.371 462.4 544.402 462.46 544.42 462.524C544.458 462.65 544.444 462.785 544.382 462.901C544.32 463.017 544.215 463.104 544.09 463.144L516.09 471.783C516.042 471.803 515.991 471.813 515.94 471.813Z" fill="black"/>
<path d="M563.42 496.054C563.316 496.054 563.214 496.022 563.129 495.961C563.045 495.9 562.982 495.813 562.95 495.714L553.74 468.054C553.699 467.929 553.708 467.793 553.766 467.675C553.824 467.557 553.926 467.467 554.05 467.424C554.112 467.402 554.178 467.392 554.245 467.396C554.311 467.399 554.375 467.416 554.435 467.445C554.494 467.474 554.548 467.514 554.591 467.564C554.635 467.613 554.669 467.671 554.69 467.734L563.9 495.404C563.941 495.53 563.93 495.667 563.87 495.785C563.81 495.903 563.706 495.992 563.58 496.033C563.528 496.051 563.474 496.057 563.42 496.054Z" fill="black"/>
<path d="M418.01 636.244L379.865 616.766L367.532 640.92L405.677 660.397L418.01 636.244Z" fill="#FCE054"/>
<path d="M392.81 639.084C392.724 639.084 392.639 639.062 392.563 639.02C392.488 638.978 392.425 638.917 392.38 638.844L379.47 617.024C379.436 616.968 379.414 616.905 379.405 616.84C379.396 616.775 379.399 616.709 379.416 616.646C379.433 616.582 379.462 616.523 379.503 616.471C379.543 616.419 379.593 616.376 379.65 616.344C379.763 616.277 379.898 616.258 380.025 616.29C380.152 616.321 380.262 616.402 380.33 616.514L393.08 638.064L418 635.744C418.066 635.738 418.132 635.746 418.195 635.766C418.257 635.786 418.316 635.819 418.366 635.861C418.416 635.904 418.457 635.956 418.487 636.015C418.517 636.074 418.535 636.138 418.54 636.204C418.547 636.269 418.541 636.335 418.522 636.398C418.503 636.46 418.471 636.518 418.429 636.569C418.387 636.619 418.336 636.66 418.277 636.691C418.219 636.721 418.155 636.739 418.09 636.744L392.85 639.084H392.81Z" fill="black"/>
<path d="M367.57 641.424C367.463 641.426 367.358 641.393 367.271 641.33C367.184 641.266 367.121 641.176 367.09 641.074C367.053 640.948 367.066 640.812 367.128 640.696C367.19 640.58 367.295 640.493 367.42 640.454L389.94 633.454C390.073 633.415 390.215 633.431 390.336 633.498C390.457 633.564 390.547 633.676 390.585 633.809C390.624 633.941 390.608 634.084 390.541 634.205C390.475 634.326 390.363 634.415 390.23 634.454L367.71 641.394C367.666 641.414 367.618 641.424 367.57 641.424Z" fill="black"/>
<path d="M405.71 660.904C405.606 660.904 405.504 660.872 405.419 660.811C405.335 660.749 405.272 660.663 405.24 660.564L397.84 638.344C397.81 638.28 397.793 638.21 397.791 638.14C397.79 638.069 397.803 637.999 397.83 637.934C397.857 637.869 397.898 637.81 397.95 637.762C398.002 637.714 398.063 637.677 398.13 637.654C398.197 637.632 398.268 637.623 398.338 637.63C398.409 637.637 398.477 637.658 398.538 637.693C398.599 637.728 398.653 637.775 398.695 637.832C398.736 637.889 398.765 637.955 398.78 638.024L406.18 660.244C406.202 660.305 406.211 660.371 406.208 660.436C406.204 660.501 406.187 660.565 406.158 660.624C406.129 660.683 406.089 660.735 406.039 660.778C405.99 660.821 405.932 660.853 405.87 660.874C405.819 660.893 405.765 660.903 405.71 660.904Z" fill="black"/>
<path d="M531.713 520.764L490.354 531.892L497.401 558.081L538.76 546.952L531.713 520.764Z" fill="#FCE054"/>
<path d="M514.39 540.073C514.34 540.083 514.29 540.083 514.24 540.073L490.04 532.543C489.976 532.525 489.916 532.494 489.865 532.452C489.813 532.41 489.77 532.359 489.74 532.3C489.709 532.241 489.69 532.176 489.685 532.11C489.68 532.043 489.688 531.977 489.71 531.914C489.749 531.788 489.836 531.683 489.952 531.621C490.068 531.56 490.204 531.546 490.33 531.583L514.23 539.024L531.17 520.604C531.216 520.557 531.272 520.52 531.333 520.494C531.394 520.469 531.459 520.456 531.525 520.456C531.591 520.456 531.656 520.469 531.717 520.494C531.778 520.52 531.833 520.557 531.88 520.604C531.927 520.649 531.963 520.704 531.989 520.764C532.014 520.824 532.027 520.888 532.027 520.954C532.027 521.019 532.014 521.083 531.989 521.143C531.963 521.203 531.927 521.258 531.88 521.303L514.75 539.904C514.706 539.956 514.651 539.998 514.588 540.028C514.526 540.057 514.459 540.073 514.39 540.073Z" fill="black"/>
<path d="M497.23 558.724C497.138 558.726 497.048 558.701 496.97 558.654C496.858 558.585 496.778 558.476 496.746 558.348C496.714 558.221 496.734 558.087 496.8 557.974L508.8 537.724C508.869 537.612 508.979 537.532 509.106 537.501C509.233 537.469 509.368 537.489 509.481 537.556C509.593 537.623 509.675 537.732 509.709 537.858C509.743 537.985 509.725 538.12 509.66 538.234L497.66 558.484C497.616 558.558 497.553 558.62 497.477 558.662C497.402 558.704 497.316 558.725 497.23 558.724Z" fill="black"/>
<path d="M538.59 547.603C538.502 547.605 538.415 547.581 538.34 547.533L518 536.014C517.885 535.948 517.8 535.84 517.765 535.713C517.729 535.585 517.745 535.449 517.81 535.333C517.879 535.219 517.989 535.136 518.117 535.101C518.245 535.066 518.383 535.081 518.5 535.143L538.88 546.663C538.996 546.731 539.081 546.841 539.116 546.97C539.152 547.099 539.135 547.236 539.07 547.353C539.022 547.437 538.952 547.505 538.867 547.549C538.782 547.593 538.686 547.612 538.59 547.603Z" fill="black"/>
<path d="M577.249 604.35L517.73 573.958L498.484 611.648L558.003 642.041L577.249 604.35Z" fill="#FCE054"/>
<path d="M537.9 608.504C537.813 608.505 537.726 608.483 537.65 608.439C537.574 608.395 537.512 608.331 537.47 608.254L517.33 574.254C517.296 574.198 517.274 574.135 517.265 574.07C517.256 574.005 517.259 573.939 517.276 573.876C517.293 573.812 517.322 573.753 517.363 573.701C517.403 573.649 517.453 573.606 517.51 573.574C517.623 573.507 517.758 573.488 517.885 573.52C518.012 573.551 518.122 573.632 518.19 573.744L538.19 607.514L577.25 603.894C577.316 603.887 577.382 603.894 577.445 603.913C577.509 603.932 577.567 603.963 577.618 604.005C577.669 604.046 577.712 604.098 577.743 604.156C577.774 604.214 577.794 604.278 577.8 604.344C577.807 604.409 577.8 604.476 577.781 604.539C577.762 604.602 577.731 604.661 577.689 604.712C577.647 604.763 577.596 604.805 577.538 604.836C577.479 604.868 577.416 604.887 577.35 604.894L537.96 608.544L537.9 608.504Z" fill="black"/>
<path d="M498.51 612.154C498.405 612.154 498.302 612.12 498.217 612.057C498.132 611.994 498.07 611.905 498.04 611.803C498.02 611.74 498.013 611.674 498.018 611.608C498.024 611.542 498.043 611.478 498.074 611.42C498.104 611.361 498.146 611.309 498.197 611.267C498.248 611.225 498.307 611.193 498.37 611.174L533.5 600.344C533.633 600.304 533.776 600.318 533.898 600.384C534.02 600.45 534.11 600.561 534.15 600.694C534.19 600.826 534.175 600.969 534.11 601.091C534.044 601.213 533.933 601.304 533.8 601.344L498.66 612.174C498.609 612.177 498.558 612.17 498.51 612.154Z" fill="black"/>
<path d="M558 642.543C557.896 642.544 557.794 642.512 557.709 642.451C557.625 642.39 557.562 642.303 557.53 642.204L546 607.533C545.958 607.401 545.97 607.257 546.033 607.133C546.097 607.009 546.207 606.916 546.34 606.874C546.473 606.831 546.617 606.843 546.74 606.907C546.864 606.971 546.958 607.081 547 607.214L558.55 641.884C558.589 642.011 558.577 642.148 558.518 642.267C558.458 642.386 558.355 642.478 558.23 642.524L558 642.543Z" fill="black"/>
<path d="M473.784 602.217L433.135 622.325L445.869 648.068L486.518 627.96L473.784 602.217Z" fill="#FCE054"/>
<path d="M459.84 625.623L433.15 622.803C433.084 622.797 433.021 622.777 432.963 622.746C432.904 622.715 432.853 622.673 432.811 622.622C432.769 622.571 432.738 622.512 432.719 622.449C432.7 622.385 432.693 622.319 432.7 622.254C432.707 622.188 432.726 622.124 432.757 622.066C432.788 622.008 432.831 621.956 432.882 621.914C432.933 621.873 432.992 621.841 433.055 621.822C433.118 621.803 433.184 621.797 433.25 621.803L459.63 624.583L473.42 601.933C473.454 601.877 473.499 601.828 473.552 601.789C473.605 601.75 473.666 601.721 473.73 601.705C473.794 601.69 473.86 601.687 473.926 601.697C473.991 601.707 474.054 601.729 474.11 601.764C474.167 601.798 474.216 601.842 474.255 601.896C474.294 601.949 474.322 602.009 474.338 602.073C474.354 602.137 474.357 602.204 474.347 602.269C474.337 602.334 474.314 602.397 474.28 602.454L460.28 625.373C460.236 625.45 460.171 625.514 460.094 625.558C460.017 625.602 459.929 625.625 459.84 625.623Z" fill="black"/>
<path d="M445.89 648.554C445.834 648.564 445.776 648.564 445.72 648.554C445.595 648.508 445.493 648.416 445.435 648.296C445.377 648.177 445.368 648.04 445.41 647.914L453.74 624.394C453.788 624.273 453.881 624.175 453.999 624.121C454.118 624.068 454.253 624.062 454.375 624.107C454.498 624.151 454.598 624.241 454.655 624.358C454.712 624.475 454.721 624.61 454.68 624.734L446.36 648.254C446.318 648.343 446.252 648.419 446.169 648.472C446.085 648.525 445.989 648.553 445.89 648.554Z" fill="black"/>
<path d="M486.53 628.444C486.48 628.453 486.43 628.453 486.38 628.444L462.82 620.694C462.696 620.65 462.593 620.56 462.533 620.443C462.474 620.325 462.462 620.189 462.5 620.063C462.541 619.937 462.631 619.833 462.749 619.773C462.867 619.713 463.004 619.703 463.13 619.744L486.69 627.494C486.816 627.535 486.92 627.624 486.98 627.742C487.04 627.86 487.051 627.997 487.01 628.123C486.973 628.22 486.907 628.303 486.821 628.36C486.735 628.417 486.633 628.446 486.53 628.444Z" fill="black"/>
<path d="M521.867 561.626L477.918 550.44L470.834 578.272L514.783 589.458L521.867 561.626Z" fill="#FCE054"/>
<path d="M496.19 570.484C496.122 570.483 496.055 570.468 495.994 570.44C495.932 570.413 495.876 570.373 495.83 570.323L477.4 550.813C477.353 550.767 477.316 550.712 477.291 550.651C477.265 550.59 477.252 550.525 477.252 550.458C477.252 550.392 477.265 550.327 477.291 550.266C477.316 550.205 477.353 550.15 477.4 550.104C477.446 550.057 477.5 550.02 477.56 549.995C477.62 549.97 477.685 549.957 477.75 549.957C477.815 549.957 477.88 549.97 477.94 549.995C478 550.02 478.054 550.057 478.1 550.104L496.32 569.384L521.53 561.164C521.654 561.128 521.788 561.142 521.902 561.203C522.016 561.264 522.102 561.366 522.143 561.489C522.183 561.612 522.174 561.746 522.117 561.862C522.061 561.979 521.961 562.069 521.84 562.114L496.33 570.434L496.19 570.484Z" fill="black"/>
<path d="M470.67 578.803C470.583 578.803 470.497 578.78 470.422 578.736C470.346 578.692 470.284 578.629 470.24 578.553C470.174 578.438 470.156 578.301 470.189 578.172C470.223 578.043 470.306 577.932 470.42 577.864L492.05 565.434C492.107 565.392 492.171 565.364 492.24 565.349C492.308 565.334 492.379 565.334 492.447 565.349C492.516 565.363 492.58 565.392 492.637 565.433C492.694 565.474 492.741 565.526 492.776 565.587C492.812 565.647 492.834 565.714 492.841 565.784C492.849 565.854 492.842 565.924 492.82 565.991C492.799 566.057 492.764 566.118 492.717 566.171C492.671 566.223 492.614 566.265 492.55 566.293L470.92 578.734C470.845 578.781 470.758 578.805 470.67 578.803Z" fill="black"/>
<path d="M514.62 589.994C514.534 589.992 514.45 589.97 514.375 589.928C514.3 589.886 514.236 589.826 514.19 589.754L501.35 568.533C501.281 568.419 501.26 568.283 501.292 568.153C501.324 568.024 501.406 567.912 501.52 567.843C501.634 567.775 501.771 567.754 501.9 567.786C502.03 567.817 502.141 567.9 502.21 568.014L515.05 589.234C515.093 589.31 515.116 589.396 515.116 589.484C515.115 589.572 515.093 589.658 515.049 589.735C515.006 589.811 514.944 589.875 514.869 589.921C514.793 589.966 514.708 589.991 514.62 589.994Z" fill="black"/>
<path d="M542.87 620.828L487.941 606.847L479.086 641.638L534.015 655.619L542.87 620.828Z" fill="#FCE054"/>
<path d="M510.82 631.754C510.753 631.755 510.686 631.742 510.624 631.716C510.562 631.69 510.506 631.652 510.46 631.603L487.46 607.214C487.368 607.117 487.319 606.988 487.323 606.854C487.327 606.721 487.383 606.595 487.48 606.504C487.577 606.412 487.706 606.363 487.839 606.366C487.972 606.37 488.098 606.427 488.19 606.524L511.01 630.684L542.6 620.373C542.726 620.335 542.862 620.347 542.979 620.407C543.097 620.466 543.187 620.569 543.23 620.694C543.269 620.821 543.257 620.958 543.198 621.077C543.138 621.196 543.035 621.288 542.91 621.333L511.02 631.734L510.82 631.754Z" fill="black"/>
<path d="M478.93 642.154C478.821 642.153 478.715 642.116 478.629 642.049C478.543 641.982 478.481 641.889 478.452 641.784C478.424 641.678 478.431 641.566 478.472 641.465C478.513 641.364 478.586 641.279 478.68 641.224L505.68 625.674C505.797 625.611 505.934 625.596 506.063 625.631C506.191 625.666 506.301 625.75 506.37 625.864C506.432 625.98 506.447 626.115 506.412 626.242C506.376 626.368 506.293 626.477 506.18 626.544L479.18 642.094C479.103 642.133 479.017 642.154 478.93 642.154Z" fill="black"/>
<path d="M533.86 656.143C533.774 656.143 533.689 656.121 533.614 656.079C533.539 656.037 533.476 655.977 533.43 655.903L517.43 629.383C517.363 629.269 517.343 629.133 517.375 629.004C517.407 628.875 517.487 628.764 517.6 628.694C517.715 628.627 517.851 628.607 517.98 628.639C518.108 628.67 518.22 628.751 518.29 628.863L534.29 655.383C534.325 655.438 534.348 655.5 534.359 655.564C534.37 655.628 534.367 655.694 534.352 655.757C534.338 655.82 534.31 655.88 534.272 655.933C534.234 655.985 534.186 656.03 534.13 656.063C534.049 656.114 533.956 656.142 533.86 656.143Z" fill="black"/>
<path d="M596.599 607.86L561.257 619.754L568.79 642.14L604.133 630.246L596.599 607.86Z" fill="#FCE054"/>
<path d="M582.55 625.623H582.44L561 620.373C560.872 620.343 560.761 620.262 560.691 620.15C560.622 620.037 560.6 619.902 560.63 619.774C560.645 619.709 560.673 619.648 560.712 619.594C560.751 619.54 560.801 619.495 560.857 619.461C560.914 619.426 560.977 619.403 561.043 619.393C561.109 619.384 561.176 619.387 561.24 619.403L582.37 624.573L596.07 607.683C596.154 607.58 596.275 607.514 596.407 607.5C596.539 607.486 596.672 607.525 596.775 607.609C596.879 607.692 596.945 607.813 596.959 607.945C596.973 608.078 596.934 608.21 596.85 608.313L582.94 625.453C582.892 625.51 582.833 625.555 582.765 625.584C582.697 625.614 582.624 625.627 582.55 625.623Z" fill="black"/>
<path d="M568.65 642.764C568.565 642.763 568.481 642.74 568.407 642.698C568.332 642.656 568.27 642.595 568.226 642.522C568.182 642.449 568.157 642.365 568.154 642.28C568.152 642.194 568.171 642.109 568.21 642.033L577.59 623.793C577.619 623.734 577.659 623.682 577.709 623.638C577.758 623.595 577.816 623.562 577.878 623.541C577.941 623.521 578.007 623.513 578.073 623.519C578.138 623.524 578.202 623.543 578.26 623.574C578.378 623.633 578.467 623.738 578.508 623.863C578.55 623.989 578.539 624.126 578.48 624.244L569.1 642.494C569.057 642.575 568.992 642.643 568.912 642.691C568.833 642.739 568.743 642.764 568.65 642.764Z" fill="black"/>
<path d="M604 630.903C603.927 630.917 603.853 630.917 603.78 630.903L585.45 621.984C585.34 621.921 585.258 621.819 585.22 621.698C585.182 621.578 585.192 621.447 585.246 621.333C585.301 621.219 585.396 621.13 585.514 621.084C585.632 621.037 585.762 621.037 585.88 621.083L604.22 630.004C604.279 630.032 604.332 630.072 604.376 630.122C604.419 630.171 604.453 630.228 604.474 630.291C604.496 630.353 604.504 630.419 604.5 630.485C604.496 630.55 604.479 630.614 604.45 630.674C604.401 630.748 604.334 630.808 604.256 630.848C604.177 630.888 604.089 630.908 604 630.903Z" fill="black"/>
<path d="M248.11 324.634C248.11 324.634 272.67 314.814 264.11 295.164C255.55 275.514 234.6 285.344 226 293.904C226 293.904 210 271.804 190.39 281.624C170.78 291.444 176.88 308.624 176.88 308.624C176.88 308.624 143.72 295.113 133.88 313.533C124.04 331.953 133.88 346.694 133.88 346.694C133.88 346.694 112.99 414.144 217.38 400.694C303.37 389.714 248.11 324.634 248.11 324.634Z" fill="#201000"/>
<path d="M332.39 656.374C332.125 656.374 331.871 656.268 331.683 656.081C331.495 655.893 331.39 655.639 331.39 655.374C334.04 575.224 332.54 565.704 326.93 530.244C326.58 528.024 326.21 525.704 325.83 523.244C325.81 523.112 325.815 522.978 325.847 522.849C325.878 522.72 325.935 522.598 326.013 522.491C326.092 522.384 326.191 522.293 326.304 522.224C326.418 522.155 326.544 522.109 326.675 522.089C326.806 522.068 326.94 522.074 327.07 522.105C327.199 522.137 327.32 522.193 327.428 522.272C327.535 522.35 327.626 522.449 327.695 522.563C327.764 522.676 327.81 522.802 327.83 522.934C328.22 525.384 328.58 527.704 328.94 529.934C334.57 565.534 336.08 575.104 333.41 655.444C333.392 655.7 333.276 655.94 333.086 656.113C332.896 656.286 332.647 656.379 332.39 656.374Z" fill="black"/>
<path d="M93 653.404C92.7348 653.404 92.4804 653.298 92.2929 653.111C92.1054 652.923 92 652.669 92 652.404C92 651.834 94.06 594.754 99 540.354C101.64 511.354 109 491.794 122.13 478.704C135.89 464.994 156.37 457.834 186.6 456.184C238.85 453.334 269.6 451.793 294.31 453.333C294.575 453.349 294.823 453.47 295 453.669C295.176 453.868 295.266 454.128 295.25 454.394C295.234 454.659 295.113 454.907 294.915 455.083C294.716 455.259 294.455 455.349 294.19 455.333C269.6 453.793 238.88 455.334 186.71 458.184C157 459.804 136.93 466.774 123.54 480.124C110.75 492.864 103.54 512.063 101 540.533C96.06 594.873 94 651.904 94 652.484C93.9798 652.735 93.8656 652.969 93.6802 653.139C93.4948 653.31 93.2519 653.404 93 653.404Z" fill="black"/>
<path d="M149.72 655.374C149.72 655.374 153 592.834 153 543.374L149.72 655.374Z" fill="white"/>
<path d="M149.72 656.374H149.67C149.414 656.361 149.172 656.25 148.995 656.063C148.818 655.877 148.72 655.63 148.72 655.374C148.72 654.754 152 592.294 152 543.454C152 543.188 152.105 542.934 152.293 542.746C152.48 542.559 152.735 542.454 153 542.454C153.265 542.454 153.52 542.559 153.707 542.746C153.895 542.934 154 543.188 154 543.454C154 592.354 150.75 654.854 150.72 655.454C150.7 655.705 150.586 655.939 150.4 656.11C150.215 656.28 149.972 656.374 149.72 656.374Z" fill="black"/>
<path d="M219.81 458.904L215.16 420.394C215.16 420.394 196.58 409.084 194.73 396.694C194.73 396.694 162.11 404.384 154.89 384.344C147.67 364.304 162.56 350.834 175.98 355.874L189.39 360.874C189.39 360.874 212.39 354.634 207.31 330.054C207.31 330.054 242.16 299.524 262.44 331.684C282.72 363.844 292.74 393.303 286.13 405.543C279.52 417.783 261.82 421.844 261.82 421.844L265.24 452.094C265.24 452.094 255.64 491.534 219.81 458.904Z" fill="white"/>
<path d="M245 472.824C237.48 472.824 228.83 468.404 219.19 459.624C219.012 459.462 218.899 459.242 218.87 459.004L214.27 421.004C211.5 419.244 196.49 409.284 193.99 397.914C188.22 399.084 160.78 403.544 153.99 384.704C150.37 374.644 151.89 365.014 158.05 358.934C160.391 356.568 163.367 354.931 166.618 354.221C169.869 353.511 173.256 353.759 176.37 354.934L189.47 359.854C192.22 359.014 210.94 352.404 206.37 330.284C206.325 330.104 206.332 329.915 206.388 329.738C206.445 329.562 206.549 329.404 206.69 329.284C207.42 328.644 224.76 313.664 242.44 316.224C250.83 317.444 257.86 322.464 263.32 331.124C284.64 364.934 293.73 393.624 287.05 406.004C281.05 417.074 266.68 421.574 262.95 422.574L266.27 451.964C266.295 452.079 266.295 452.198 266.27 452.314C266.11 452.964 262.27 468.314 250.27 472.034C248.563 472.559 246.786 472.825 245 472.824ZM220.81 458.394C232.08 468.584 241.81 472.544 249.62 470.154C259.92 467.014 263.83 453.674 264.28 452.034L260.88 421.964C260.852 421.719 260.915 421.472 261.057 421.271C261.199 421.07 261.41 420.929 261.65 420.874C261.82 420.874 278.98 416.774 285.3 405.084C291.62 393.394 282.3 364.914 261.64 332.224C256.5 324.074 249.95 319.364 242.16 318.224C226.88 316.004 211.24 328.154 208.46 330.444C213.18 355.164 189.94 361.774 189.7 361.844C189.501 361.903 189.289 361.903 189.09 361.844L175.67 356.844C172.915 355.806 169.92 355.587 167.043 356.213C164.167 356.84 161.534 358.285 159.46 360.374C153.87 365.894 152.53 374.744 155.88 384.044C162.71 403.044 194.24 395.844 194.55 395.764C194.685 395.733 194.825 395.73 194.961 395.756C195.097 395.782 195.226 395.835 195.34 395.914C195.455 395.991 195.552 396.092 195.626 396.209C195.7 396.326 195.749 396.457 195.77 396.594C197.53 408.374 215.55 419.464 215.77 419.594C215.899 419.673 216.009 419.781 216.09 419.91C216.172 420.038 216.223 420.183 216.24 420.334L220.81 458.394Z" fill="black"/>
<path d="M259.17 376.803C259.028 376.803 258.888 376.773 258.758 376.714C258.629 376.656 258.514 376.57 258.42 376.464C258.245 376.264 258.157 376.004 258.173 375.74C258.19 375.476 258.311 375.229 258.51 375.053C262 371.963 263.6 368.563 263.26 364.953C262.37 355.503 248.77 347.283 248.63 347.193C248.44 347.044 248.311 346.831 248.266 346.594C248.221 346.357 248.264 346.112 248.386 345.903C248.508 345.695 248.701 345.537 248.929 345.46C249.158 345.383 249.407 345.392 249.63 345.484C250.22 345.834 264.23 354.304 265.22 364.764C265.62 369.044 263.8 373.003 259.8 376.553C259.625 376.707 259.403 376.796 259.17 376.803Z" fill="black"/>
<path d="M171.79 380.693C171.549 380.696 171.315 380.612 171.131 380.455C170.947 380.299 170.826 380.082 170.79 379.843C170.79 379.673 170.21 375.673 172.87 373.423C174.87 371.703 178.14 371.554 182.49 372.974C182.619 373.01 182.74 373.073 182.844 373.158C182.949 373.242 183.035 373.347 183.099 373.466C183.162 373.584 183.2 373.715 183.212 373.849C183.223 373.982 183.208 374.117 183.166 374.245C183.125 374.373 183.057 374.491 182.969 374.593C182.881 374.694 182.773 374.776 182.652 374.835C182.531 374.893 182.399 374.927 182.265 374.934C182.13 374.941 181.996 374.92 181.87 374.873C178.29 373.703 175.62 373.723 174.17 374.943C172.36 376.473 172.77 379.523 172.77 379.553C172.807 379.814 172.74 380.08 172.583 380.291C172.425 380.503 172.191 380.644 171.93 380.683L171.79 380.693Z" fill="black"/>
<path d="M209.91 343.094C209.694 343.094 209.483 343.023 209.31 342.894C209.205 342.815 209.116 342.716 209.049 342.603C208.983 342.49 208.939 342.365 208.92 342.235C208.901 342.105 208.909 341.973 208.941 341.846C208.974 341.718 209.031 341.599 209.11 341.494C210.919 339.295 213.469 337.833 216.28 337.384C216.543 337.347 216.809 337.415 217.021 337.575C217.233 337.734 217.373 337.971 217.41 338.234C217.447 338.496 217.378 338.763 217.219 338.975C217.06 339.187 216.823 339.326 216.56 339.364C214.273 339.741 212.197 340.926 210.71 342.704C210.616 342.826 210.495 342.925 210.356 342.993C210.217 343.06 210.064 343.095 209.91 343.094Z" fill="black"/>
<path d="M219.85 354.914C221.004 354.914 221.94 353.978 221.94 352.823C221.94 351.669 221.004 350.734 219.85 350.734C218.696 350.734 217.76 351.669 217.76 352.823C217.76 353.978 218.696 354.914 219.85 354.914Z" fill="#201000"/>
<path d="M251.46 340.344C252.614 340.344 253.55 339.408 253.55 338.254C253.55 337.099 252.614 336.164 251.46 336.164C250.306 336.164 249.37 337.099 249.37 338.254C249.37 339.408 250.306 340.344 251.46 340.344Z" fill="#201000"/>
<path d="M250.82 326.734C250.688 326.733 250.557 326.706 250.435 326.655C250.313 326.603 250.203 326.528 250.11 326.434C247.2 323.514 243.11 326.154 242.9 326.264C242.68 326.408 242.411 326.46 242.152 326.408C241.894 326.355 241.667 326.203 241.52 325.984C241.447 325.874 241.396 325.751 241.37 325.622C241.345 325.493 241.345 325.36 241.371 325.23C241.397 325.101 241.448 324.978 241.522 324.869C241.596 324.76 241.69 324.666 241.8 324.593C243.74 323.313 248.27 321.754 251.52 325.024C251.66 325.163 251.756 325.341 251.796 325.534C251.835 325.728 251.816 325.929 251.741 326.112C251.666 326.295 251.539 326.452 251.375 326.563C251.211 326.673 251.018 326.733 250.82 326.734Z" fill="black"/>
<path d="M188.66 382.694C188.483 382.693 188.309 382.646 188.156 382.556C188.003 382.467 187.877 382.338 187.79 382.184C178.67 365.774 165.28 369.644 164.71 369.814C164.459 369.883 164.192 369.852 163.964 369.727C163.736 369.602 163.566 369.393 163.489 369.145C163.412 368.896 163.435 368.628 163.553 368.396C163.671 368.165 163.874 367.988 164.12 367.904C164.27 367.854 179.61 363.334 189.53 381.204C189.66 381.435 189.692 381.707 189.621 381.962C189.55 382.217 189.38 382.433 189.15 382.564C189.001 382.648 188.832 382.693 188.66 382.694Z" fill="black"/>
<path d="M283.79 455.043C282.763 455.043 281.743 455.043 280.73 455.043C280.465 455.043 280.21 454.938 280.023 454.751C279.835 454.563 279.73 454.309 279.73 454.043C279.73 453.778 279.835 453.524 280.023 453.336C280.21 453.149 280.465 453.043 280.73 453.043C323.52 453.713 376.98 440.563 435.36 415.043C432.75 399.153 418.46 340.733 408.99 307.333C408.946 307.205 408.928 307.069 408.938 306.934C408.948 306.798 408.986 306.667 409.049 306.546C409.111 306.426 409.198 306.319 409.303 306.233C409.408 306.147 409.53 306.084 409.66 306.047C409.791 306.009 409.927 305.999 410.062 306.016C410.197 306.033 410.326 306.077 410.443 306.146C410.56 306.215 410.662 306.307 410.742 306.417C410.822 306.526 410.88 306.651 410.91 306.783C420.76 341.513 435.15 400.434 437.46 415.494C437.494 415.712 437.454 415.936 437.347 416.129C437.241 416.323 437.073 416.475 436.87 416.563C379.36 441.773 326.51 455.043 283.79 455.043Z" fill="black"/>
<path d="M497.92 411.974C492.25 383.774 486.66 360.324 481.73 339.634C477.26 320.874 473.04 303.154 469.4 284.694C467.51 275.144 464.95 264.884 462.78 256.694C462.785 257.268 462.676 257.837 462.459 258.369C462.243 258.901 461.924 259.385 461.52 259.793C463.52 267.443 465.75 276.533 467.43 285.063C471.09 303.563 475.31 321.303 479.79 340.063C484.71 360.733 490.29 384.163 495.96 412.333C504.4 454.203 424.8 484.424 366.68 506.494C351.74 512.164 337.63 517.494 326.59 522.494C326.383 522.588 326.214 522.751 326.111 522.954C326.009 523.158 325.979 523.391 326.027 523.614C326.075 523.836 326.197 524.036 326.374 524.18C326.551 524.324 326.772 524.403 327 524.404C327.142 524.403 327.281 524.372 327.41 524.313C338.41 519.403 352.48 514.064 367.41 508.394C397.71 496.894 432.05 483.864 458.2 468.174C488.83 449.774 501.83 431.394 497.92 411.974Z" fill="black"/>
<path d="M457.88 262.143C456.151 262.129 454.466 261.599 453.041 260.621C451.616 259.642 450.515 258.261 449.88 256.653C449.82 256.503 448.43 252.993 445.75 244.333C441.38 230.243 442.09 221.933 447.83 219.613C448.297 219.425 448.799 219.34 449.302 219.366C449.804 219.392 450.295 219.528 450.74 219.764C455.05 221.974 458.07 232.993 461.3 246.093C462.07 249.233 462.74 251.943 463.3 253.793C464.72 258.353 462.62 260.903 460.19 261.793C459.444 262.035 458.664 262.153 457.88 262.143ZM451.76 255.914C452.332 257.427 453.446 258.674 454.885 259.413C456.324 260.152 457.987 260.33 459.55 259.914C461.55 259.194 462.28 257.194 461.42 254.424C460.83 252.514 460.16 249.783 459.42 246.613C457.16 237.433 453.74 223.563 449.89 221.613C449.701 221.507 449.49 221.445 449.273 221.433C449.056 221.421 448.84 221.459 448.64 221.543C442.89 223.853 444.97 234.923 447.72 243.813C450.37 252.363 451.78 255.934 451.8 255.984L451.76 255.914Z" fill="black"/>
<path d="M432.07 235.383C431.31 229.783 431.85 224.944 435.43 223.504C435.631 223.417 435.85 223.377 436.068 223.39C436.287 223.402 436.5 223.465 436.69 223.573C438.83 224.673 440.84 229.473 442.6 235.103C443.396 235.244 444.169 235.49 444.9 235.833C442.74 228.593 440.45 223.253 437.6 221.833C437.155 221.598 436.664 221.463 436.162 221.437C435.659 221.411 435.157 221.495 434.69 221.684C430.58 223.334 429.06 228.074 430.12 235.774C430.78 235.604 431.43 235.483 432.07 235.383Z" fill="black"/>
<path d="M450.17 255.823C449.59 253.973 448.92 251.254 448.17 248.114C447.56 245.624 446.95 243.204 446.34 240.904C445.886 241.57 445.356 242.181 444.76 242.724C445.29 244.784 445.76 246.784 446.23 248.594C447.01 251.764 447.69 254.504 448.23 256.414C449.08 259.174 448.4 261.184 446.36 261.904C444.795 262.318 443.133 262.139 441.692 261.401C440.252 260.662 439.136 259.416 438.56 257.904C438.56 257.904 437.45 255.104 435.38 248.604L433.56 249.474C435.56 255.854 436.65 258.524 436.7 258.644C437.334 260.253 438.434 261.637 439.859 262.617C441.285 263.597 442.97 264.128 444.7 264.144C445.493 264.148 446.282 264.016 447.03 263.754C449.49 262.904 451.58 260.383 450.17 255.823Z" fill="black"/>
<path d="M418.5 239.244C417.01 231.984 416.98 225.104 421.5 223.244C421.72 223.153 421.957 223.113 422.194 223.127C422.431 223.141 422.662 223.208 422.87 223.323C425.19 224.513 427.36 229.783 429.24 235.873C429.89 235.733 430.55 235.604 431.24 235.484C429.04 228.294 426.7 223.023 423.82 221.553C423.362 221.308 422.856 221.167 422.338 221.14C421.819 221.112 421.301 221.199 420.82 221.393C415.82 223.393 414.5 229.643 416.71 240.033C417.24 239.783 417.87 239.504 418.5 239.244Z" fill="black"/>
<path d="M434.87 249.313L434.78 248.944L432.93 249.803C433.75 253.143 434.46 256.024 435.08 258.024C436 261.024 435.27 263.114 433.08 263.884C431.553 264.353 429.905 264.225 428.47 263.524C428.47 264.224 428.47 264.934 428.47 265.654C429.394 265.986 430.368 266.161 431.35 266.174C432.183 266.179 433.012 266.044 433.8 265.774C436.34 264.874 438.52 262.214 437.04 257.434C436.39 255.484 435.69 252.623 434.87 249.313Z" fill="black"/>
<path d="M403.46 264.654C402.3 260.834 400.66 255.314 398.56 247.784C391.45 222.374 391.02 206.454 397.3 201.784C397.476 201.621 397.694 201.511 397.929 201.467C398.164 201.422 398.407 201.446 398.63 201.534C403.44 203.284 409.12 224.684 413.25 241.864C413.83 241.524 414.44 241.204 415.06 240.864C409.75 218.864 404.76 201.614 399.31 199.634C398.775 199.433 398.198 199.377 397.634 199.47C397.071 199.563 396.542 199.802 396.1 200.164C389 205.484 389.18 221.694 396.63 248.344C400.48 262.114 402.77 269.254 403.48 271.344C403.39 269.064 403.38 266.814 403.46 264.654Z" fill="black"/>
<path d="M409.92 308.204C409.702 308.215 409.486 308.154 409.305 308.032C409.125 307.909 408.99 307.731 408.92 307.524C402.11 286.794 398.35 251.974 409.34 243.234C417.56 236.694 435.59 232.053 443.8 234.373C445.91 234.963 447.26 236.004 447.8 237.454C448.98 240.704 445.73 244.304 437.85 248.454C434.477 250.213 431.008 251.782 427.46 253.153C428.85 256.933 432.88 270.764 422.46 280.994C422.367 281.087 422.256 281.162 422.134 281.212C422.013 281.263 421.882 281.289 421.75 281.289C421.618 281.289 421.487 281.263 421.365 281.212C421.244 281.162 421.133 281.087 421.04 280.994C420.854 280.806 420.749 280.553 420.749 280.288C420.749 280.024 420.854 279.771 421.04 279.583C432.15 268.663 425.29 253.164 425.22 253.014C425.165 252.887 425.136 252.751 425.136 252.613C425.136 252.476 425.165 252.34 425.22 252.214C425.272 252.085 425.351 251.969 425.451 251.872C425.551 251.776 425.67 251.701 425.8 251.653C434.97 248.303 447.27 241.893 445.9 238.133C445.6 237.323 444.71 236.693 443.24 236.283C436.31 234.333 418.89 238.173 410.58 244.783C401.43 252.063 403.15 283.573 410.81 306.883C410.892 307.135 410.871 307.41 410.751 307.646C410.631 307.882 410.422 308.061 410.17 308.143C410.09 308.176 410.006 308.196 409.92 308.204Z" fill="black"/>
<path d="M274 379.404C274 379.404 276 388.404 266 390.404L274 379.404Z" fill="white"/>
<path d="M266 391.404C265.735 391.43 265.47 391.35 265.264 391.181C265.057 391.013 264.927 390.769 264.9 390.504C264.873 390.238 264.953 389.973 265.122 389.767C265.291 389.561 265.535 389.43 265.8 389.404C268.65 388.834 270.7 387.614 271.9 385.774C273.003 383.915 273.401 381.721 273.02 379.594C272.992 379.462 272.99 379.327 273.014 379.195C273.038 379.062 273.088 378.936 273.161 378.823C273.234 378.711 273.328 378.613 273.439 378.537C273.549 378.461 273.674 378.407 273.805 378.379C273.936 378.35 274.072 378.348 274.204 378.372C274.336 378.396 274.462 378.447 274.575 378.52C274.688 378.592 274.785 378.687 274.862 378.797C274.938 378.908 274.992 379.032 275.02 379.164C275.514 381.811 275.019 384.547 273.63 386.854C272.12 389.164 269.63 390.684 266.24 391.364L266 391.404Z" fill="black"/>
<path d="M391.89 498.904C391.671 498.914 391.454 498.853 391.273 498.728C391.092 498.603 390.958 498.423 390.89 498.214L371.8 439.564C371.754 439.437 371.733 439.303 371.74 439.169C371.746 439.034 371.78 438.903 371.838 438.782C371.897 438.661 371.98 438.553 372.081 438.465C372.182 438.376 372.3 438.309 372.428 438.267C372.556 438.226 372.691 438.21 372.825 438.222C372.959 438.233 373.089 438.272 373.208 438.335C373.327 438.398 373.431 438.485 373.516 438.589C373.601 438.694 373.663 438.814 373.7 438.944L392.79 497.594C392.872 497.846 392.851 498.12 392.731 498.356C392.611 498.592 392.402 498.771 392.15 498.854C392.067 498.884 391.979 498.901 391.89 498.904Z" fill="black"/>
<path d="M152.85 571.904H152.79L98 568.573C97.8686 568.566 97.74 568.532 97.6216 568.475C97.5032 568.417 97.3973 568.337 97.3099 568.239C97.2226 568.14 97.1556 568.026 97.1127 567.901C97.0698 567.777 97.0519 567.645 97.06 567.514C97.0677 567.382 97.1012 567.254 97.1586 567.135C97.2161 567.017 97.2964 566.911 97.3948 566.823C97.4933 566.736 97.6081 566.669 97.7325 566.626C97.8569 566.583 97.9886 566.565 98.12 566.573L152.91 569.914C153.175 569.921 153.426 570.035 153.608 570.228C153.79 570.421 153.888 570.678 153.88 570.944C153.872 571.209 153.759 571.46 153.566 571.642C153.373 571.824 153.115 571.921 152.85 571.914V571.904Z" fill="black"/>
<path d="M213 585.404H172C171.735 585.404 171.48 585.298 171.293 585.111C171.105 584.923 171 584.669 171 584.404V523.404C171 523.138 171.105 522.884 171.293 522.697C171.48 522.509 171.735 522.404 172 522.404H213C213.265 522.404 213.52 522.509 213.707 522.697C213.895 522.884 214 523.138 214 523.404V584.404C214 584.669 213.895 584.923 213.707 585.111C213.52 585.298 213.265 585.404 213 585.404ZM173 583.404H212V524.404H173V583.404Z" fill="black"/>
<path d="M213 533.154H172C171.735 533.154 171.48 533.048 171.293 532.861C171.105 532.673 171 532.419 171 532.154C171 531.888 171.105 531.634 171.293 531.447C171.48 531.259 171.735 531.154 172 531.154H213C213.265 531.154 213.52 531.259 213.707 531.447C213.895 531.634 214 531.888 214 532.154C214 532.419 213.895 532.673 213.707 532.861C213.52 533.048 213.265 533.154 213 533.154Z" fill="black"/>
<path d="M239 493.404H238.86C238.56 493.404 231.34 492.174 215.29 476.124C209.29 470.124 206.76 464.894 207.88 460.714C209.15 455.994 214.51 454.504 214.74 454.444C214.997 454.375 215.271 454.411 215.502 454.544C215.733 454.677 215.901 454.896 215.97 455.154C216.039 455.411 216.003 455.685 215.87 455.916C215.737 456.146 215.517 456.315 215.26 456.384C215.26 456.384 210.77 457.634 209.81 461.244C208.91 464.634 211.29 469.294 216.71 474.704C229.42 487.424 236.39 490.524 238.47 491.234L248.42 471.384C248.491 471.242 248.594 471.12 248.722 471.026C248.849 470.932 248.997 470.87 249.154 470.845C249.31 470.819 249.47 470.831 249.62 470.88C249.771 470.928 249.908 471.012 250.02 471.124L265.21 486.214C267.64 485.034 276.77 480.104 279.71 471.454C281.53 466.064 280.71 460.164 277.13 453.904C276.997 453.673 276.962 453.399 277.031 453.142C277.101 452.885 277.269 452.666 277.5 452.534C277.731 452.401 278.005 452.365 278.262 452.435C278.519 452.504 278.737 452.673 278.87 452.904C282.7 459.684 283.62 466.134 281.6 472.084C277.91 482.914 265.9 488.084 265.39 488.314C265.208 488.39 265.007 488.411 264.813 488.374C264.619 488.336 264.441 488.242 264.3 488.104L249.59 473.494L239.89 492.844C239.808 493.01 239.682 493.151 239.525 493.25C239.367 493.349 239.186 493.402 239 493.404Z" fill="black"/>
<path d="M468.45 133.264L466.2 132.264C459.97 129.384 451.61 127.724 443.26 127.724C436.404 127.67 429.609 129.018 423.293 131.686C416.977 134.353 411.273 138.282 406.53 143.234C397.414 152.811 392.305 165.511 392.25 178.734C392.25 197.514 404.82 207.354 417.25 207.354C428.18 207.354 437.02 203.064 444.11 194.354C445.072 198.178 447.318 201.556 450.473 203.923C453.628 206.289 457.499 207.5 461.44 207.354C480.88 207.354 500.55 189.754 500.55 156.134C500.55 119.914 475.09 94.6235 438.64 94.6235C416.64 94.6235 396.76 103.213 382.64 118.833C369.19 133.713 361.79 153.763 361.79 175.293C361.79 194.663 368.4 211.354 380.91 223.583C392.69 235.104 408.75 241.444 426.12 241.444C440.92 241.444 452.46 238.844 463.53 233.014L466 231.704L460.5 216.914L457.26 218.734C449.59 223.024 439.32 225.394 428.34 225.394C399.23 225.394 379.66 204.774 379.66 174.094C379.66 137.094 403.78 110.274 437.02 110.274C465.17 110.274 482.66 128.273 482.66 157.333C482.66 170.043 479.09 180.834 472.87 186.944C470.09 189.674 467.03 191.163 464.15 191.083C463.642 191.117 463.134 191.029 462.667 190.825C462.201 190.621 461.79 190.309 461.47 189.914C460.33 188.474 458.76 184.274 461.13 172.254L468.45 133.264ZM447.25 145.354L443.56 165.214C441.56 176.694 431.69 190.043 422.07 190.043C413.26 190.043 411.94 182.424 411.94 177.884C411.94 159.884 425.18 144.754 440.84 144.754C442.991 144.746 445.138 144.946 447.25 145.354Z" fill="#CB93EE"/>
<path d="M410.101 40L408.178 40.5496L416.18 68.5486L418.103 67.999L410.101 40Z" fill="black"/>
<path d="M451.951 40.1336L448.952 65.1343L450.938 65.3725L453.937 40.3718L451.951 40.1336Z" fill="black"/>
<path d="M497.255 57.5785L480.262 78.5859L481.817 79.8438L498.81 58.8364L497.255 57.5785Z" fill="black"/>
<path d="M169.38 161.274C168.961 161.272 168.553 161.139 168.214 160.893C167.875 160.647 167.622 160.301 167.49 159.904L158.24 132.424C158.155 132.174 158.12 131.911 158.138 131.649C158.155 131.386 158.224 131.129 158.34 130.894C158.458 130.659 158.621 130.45 158.82 130.278C159.02 130.106 159.25 129.976 159.5 129.894L186.98 120.644C187.483 120.475 188.031 120.514 188.506 120.75C188.98 120.986 189.341 121.401 189.51 121.904L198.76 149.383C198.845 149.633 198.88 149.896 198.862 150.158C198.845 150.421 198.776 150.678 198.66 150.914C198.542 151.148 198.379 151.357 198.179 151.529C197.98 151.701 197.75 151.831 197.5 151.914L170 161.164C169.8 161.232 169.591 161.269 169.38 161.274ZM162.67 133.043L170.67 156.734L194.36 148.734L186.36 125.043L162.67 133.043Z" fill="#CB93EE"/>
<path d="M617.5 414.904C617.327 414.905 617.156 414.881 616.99 414.833C616.479 414.697 616.042 414.364 615.776 413.907C615.51 413.45 615.436 412.905 615.57 412.393L620.57 393.393C620.734 392.918 621.072 392.522 621.515 392.284C621.958 392.047 622.475 391.985 622.962 392.111C623.449 392.237 623.87 392.542 624.142 392.965C624.414 393.388 624.517 393.898 624.43 394.393L619.43 413.393C619.321 413.824 619.073 414.205 618.723 414.479C618.374 414.752 617.944 414.902 617.5 414.904Z" fill="#CB93EE"/>
<path d="M585.5 201.903C585.054 201.911 584.618 201.768 584.262 201.499C583.906 201.23 583.65 200.85 583.535 200.419C583.42 199.988 583.453 199.531 583.628 199.12C583.802 198.71 584.11 198.369 584.5 198.153L602.5 188.153C602.73 188.026 602.982 187.945 603.244 187.915C603.505 187.886 603.769 187.908 604.021 187.98C604.274 188.053 604.51 188.174 604.716 188.338C604.921 188.501 605.093 188.704 605.22 188.934C605.347 189.163 605.428 189.416 605.458 189.677C605.488 189.938 605.466 190.202 605.393 190.455C605.321 190.708 605.199 190.943 605.036 191.149C604.872 191.355 604.67 191.526 604.44 191.653L586.44 201.653C586.152 201.813 585.829 201.899 585.5 201.903Z" fill="#FCE054"/>
<path d="M627 70.4037H610C609.668 70.4032 609.342 70.3201 609.05 70.162C608.758 70.0038 608.51 69.7757 608.329 69.4979C608.147 69.2201 608.038 68.9016 608.01 68.5709C607.982 68.2402 608.037 67.9077 608.17 67.6036L615.17 51.6036C615.314 51.2697 615.547 50.9816 615.843 50.7701C616.139 50.5587 616.487 50.432 616.85 50.4037C617.214 50.3816 617.578 50.4572 617.903 50.6224C618.228 50.7876 618.503 51.0365 618.7 51.3436L628.7 67.3436C628.876 67.6476 628.968 67.9925 628.968 68.3436C628.968 68.6947 628.876 69.0396 628.7 69.3436C628.535 69.6542 628.291 69.9158 627.992 70.1019C627.694 70.288 627.352 70.3921 627 70.4037ZM613.06 66.4037H623.39L617.31 56.6737L613.06 66.4037Z" fill="#FCE054"/>
<path d="M83 426.404C80.6266 426.404 78.3065 425.7 76.3331 424.381C74.3597 423.063 72.8217 421.189 71.9134 418.996C71.0052 416.803 70.7676 414.39 71.2306 412.063C71.6936 409.735 72.8365 407.597 74.5147 405.918C76.1929 404.24 78.3312 403.097 80.6589 402.634C82.9867 402.171 85.3995 402.409 87.5922 403.317C89.7849 404.225 91.6591 405.764 92.9777 407.737C94.2962 409.71 95 412.03 95 414.404C95 417.586 93.7357 420.639 91.4853 422.889C89.2348 425.139 86.1826 426.404 83 426.404ZM83 406.404C81.4177 406.404 79.871 406.873 78.5554 407.752C77.2398 408.631 76.2144 409.88 75.6089 411.342C75.0034 412.804 74.8451 414.413 75.1537 415.964C75.4624 417.516 76.2243 418.942 77.3431 420.06C78.462 421.179 79.8874 421.941 81.4393 422.25C82.9911 422.559 84.5996 422.4 86.0615 421.795C87.5233 421.189 88.7727 420.164 89.6517 418.848C90.5308 417.533 91 415.986 91 414.404C91 412.282 90.1571 410.247 88.6569 408.747C87.1566 407.247 85.1217 406.404 83 406.404Z" fill="#CB93EE"/>
</svg>
