<svg width="700" height="700" viewBox="0 0 700 700" fill="none" xmlns="http://www.w3.org/2000/svg">
<rect width="700" height="700" fill="white"/>
<path d="M256.264 253.73L245.534 206.87L287.314 217.03L256.264 253.73Z" fill="#EC87BF"/>
<path d="M323.574 264.1L305.244 219.66L348.124 222.77L323.574 264.1Z" fill="#47CEC0"/>
<path d="M453.824 253.33L422.964 216.47L464.794 206.52L453.824 253.33Z" fill="#47CEC0"/>
<path d="M390.074 263.91L365.014 222.89L407.854 219.25L390.074 263.91Z" fill="#FCE054"/>
<path d="M486.693 314.799L441.755 315.144L442.014 348.943L486.953 348.598L486.693 314.799Z" fill="#EC87BF"/>
<path d="M454.366 333.406C455.785 333.395 456.927 332.231 456.916 330.807C456.905 329.382 455.745 328.235 454.326 328.246C452.907 328.257 451.765 329.421 451.776 330.846C451.787 332.271 452.946 333.417 454.366 333.406Z" fill="white"/>
<path d="M464.835 333.326C466.254 333.315 467.396 332.151 467.385 330.726C467.374 329.301 466.214 328.155 464.795 328.166C463.376 328.177 462.234 329.341 462.245 330.766C462.256 332.191 463.415 333.337 464.835 333.326Z" fill="white"/>
<path d="M475.914 333.231C477.333 333.22 478.475 332.056 478.464 330.631C478.453 329.206 477.293 328.06 475.874 328.071C474.455 328.082 473.313 329.246 473.324 330.671C473.335 332.095 474.494 333.242 475.914 333.231Z" fill="white"/>
<path d="M328.064 280H216.064V341H328.064V280Z" fill="#47CEC0"/>
<path d="M306.064 301.5H216.064V304.5H306.064V301.5Z" fill="white"/>
<path d="M258.064 318H216.064V321H258.064V318Z" fill="white"/>
<path d="M486.064 197H216.064C215.799 197 215.544 196.895 215.357 196.707C215.169 196.52 215.064 196.265 215.064 196C215.064 195.735 215.169 195.48 215.357 195.293C215.544 195.105 215.799 195 216.064 195H486.064C486.329 195 486.584 195.105 486.771 195.293C486.959 195.48 487.064 195.735 487.064 196C487.064 196.265 486.959 196.52 486.771 196.707C486.584 196.895 486.329 197 486.064 197Z" fill="black"/>
<path d="M216.064 564L120.064 619V251L216.064 196V564Z" fill="#FCE054"/>
<path d="M486.064 562L582.064 617V249L486.064 194V562Z" fill="#FCE054"/>
<path d="M130.564 433C133.602 433 136.064 428.971 136.064 424C136.064 419.029 133.602 415 130.564 415C127.526 415 125.064 419.029 125.064 424C125.064 428.971 127.526 433 130.564 433Z" fill="#201000"/>
<path d="M569.564 446C572.602 446 575.064 441.971 575.064 437C575.064 432.029 572.602 428 569.564 428C566.526 428 564.064 432.029 564.064 437C564.064 441.971 566.526 446 569.564 446Z" fill="#201000"/>
<path d="M355.804 223.21C277.374 223.21 216.304 197.21 215.664 196.92C215.42 196.814 215.228 196.615 215.131 196.368C215.033 196.12 215.038 195.844 215.144 195.6C215.25 195.356 215.449 195.164 215.696 195.067C215.944 194.969 216.22 194.974 216.464 195.08C217.124 195.37 284.244 223.96 368.024 221C451.804 218.04 485.164 195.41 485.494 195.18C485.712 195.045 485.973 194.999 486.224 195.05C486.475 195.102 486.696 195.249 486.842 195.459C486.989 195.669 487.049 195.928 487.01 196.181C486.971 196.434 486.836 196.663 486.634 196.82C486.304 197.05 452.414 220.02 368.104 223C363.964 223.15 359.864 223.21 355.804 223.21Z" fill="black"/>
<path d="M425.334 565C425.069 565 424.814 564.895 424.627 564.707C424.439 564.52 424.334 564.265 424.334 564L428.334 488C428.348 487.778 428.436 487.567 428.584 487.4C429.164 486.73 486.984 419.9 522.894 376.81C523.354 376.25 569.384 319.81 595.964 297.64C620.284 277.4 638.414 263.42 649.834 256.07C654.504 253.07 665.444 246.07 665.054 242.17C664.954 241.17 664.054 240.37 662.294 239.69C662.163 239.637 662.044 239.558 661.946 239.456C661.847 239.354 661.772 239.233 661.724 239.1C661.675 238.967 661.655 238.825 661.666 238.684C661.676 238.542 661.716 238.405 661.784 238.28C663.124 235.81 664.564 231.7 663.534 230.28C662.974 229.52 661.534 229.61 660.484 229.82C660.296 229.858 660.102 229.841 659.923 229.772C659.745 229.702 659.59 229.583 659.477 229.428C659.365 229.273 659.299 229.09 659.287 228.898C659.276 228.707 659.32 228.517 659.414 228.35C660.034 227.24 661.474 223.76 660.094 222.35C659.004 221.23 654.384 219.71 635.094 229.72C634.873 229.834 634.617 229.861 634.376 229.796C634.136 229.732 633.928 229.58 633.794 229.37C633.66 229.158 633.611 228.905 633.655 228.658C633.7 228.412 633.835 228.191 634.034 228.04C639.654 223.73 648.514 215.55 648.324 211.98C648.321 211.745 648.253 211.515 648.128 211.315C648.003 211.116 647.825 210.955 647.614 210.85C643.774 208.49 616.124 225.71 597.724 238.69C597.536 238.822 597.307 238.885 597.078 238.869C596.848 238.853 596.632 238.758 596.464 238.6C596.296 238.441 596.187 238.228 596.158 237.999C596.129 237.769 596.181 237.536 596.304 237.34C610.304 215.34 610.874 210.91 610.624 210.06C608.914 209.95 600.204 214.99 557.164 262.06C530.664 291.06 501.564 324.49 485.924 342.46C479.554 349.78 475.714 354.2 475.054 354.86C470.364 359.54 465.114 365.8 459.554 372.43C441.334 394.17 417.364 422.75 389.154 422.76C384.151 422.747 379.189 421.856 374.494 420.13L371.634 421.88C371.591 421.909 371.543 421.933 371.494 421.95C345.314 432.79 334.974 422.18 332.734 419.23C328.118 420.892 323.25 421.748 318.344 421.76C290.124 421.76 266.174 393.17 247.944 371.43C242.384 364.8 237.134 358.54 232.444 353.86C231.784 353.2 227.944 348.78 221.574 341.46C205.934 323.46 176.844 290.04 150.334 261.06C107.334 213.99 98.604 208.9 96.874 209.06C96.624 209.91 97.234 214.29 111.194 236.34C111.316 236.535 111.367 236.767 111.338 236.995C111.309 237.224 111.202 237.435 111.035 237.594C110.868 237.753 110.651 237.849 110.421 237.867C110.192 237.884 109.963 237.822 109.774 237.69C91.374 224.69 63.774 207.48 59.884 209.85C59.6745 209.957 59.4979 210.118 59.3729 210.317C59.2479 210.516 59.1791 210.745 59.174 210.98C58.994 214.55 67.844 222.73 73.474 227.04C73.6715 227.193 73.8048 227.413 73.8478 227.659C73.8907 227.905 73.8402 228.158 73.7062 228.369C73.5721 228.579 73.3642 228.732 73.1232 228.797C72.8823 228.862 72.6257 228.834 72.404 228.72C53.064 218.72 48.404 220.23 47.354 221.35C45.984 222.76 47.414 226.24 48.034 227.35C48.1278 227.517 48.1717 227.707 48.1604 227.898C48.1492 228.09 48.0833 228.273 47.9707 228.428C47.858 228.583 47.7032 228.702 47.5247 228.772C47.3463 228.841 47.1517 228.858 46.964 228.82C45.884 228.61 44.474 228.52 43.914 229.28C42.784 230.82 44.614 235.28 45.664 237.28C45.7331 237.404 45.7752 237.541 45.7872 237.682C45.7993 237.824 45.7811 237.966 45.734 238.1C45.685 238.234 45.6079 238.356 45.5078 238.458C45.4078 238.559 45.2871 238.639 45.154 238.69C43.424 239.37 42.494 240.21 42.394 241.17C42.014 245.05 52.944 252.07 57.614 255.07C69.034 262.42 87.164 276.4 111.484 296.64C138.064 318.76 184.104 375.25 184.564 375.82C220.464 418.9 278.294 485.73 278.874 486.4C279.018 486.568 279.103 486.779 279.114 487L283.114 563C283.114 563.257 283.016 563.504 282.839 563.69C282.662 563.876 282.42 563.987 282.164 564C282.029 564.007 281.893 563.986 281.766 563.939C281.639 563.891 281.523 563.819 281.424 563.725C281.326 563.632 281.248 563.519 281.195 563.395C281.141 563.27 281.114 563.136 281.114 563L277.114 487.35C273.114 482.73 217.784 418.74 182.994 376.99C182.534 376.42 136.614 320.07 110.184 298.08C85.924 277.89 67.864 263.96 56.514 256.66C46.244 250.06 39.964 245.12 40.384 240.88C40.534 239.35 41.554 238.11 43.384 237.18C42.384 235.1 40.494 230.43 42.264 228.01C42.6442 227.528 43.1361 227.146 43.6972 226.897C44.2582 226.648 44.8715 226.539 45.484 226.58C44.764 224.71 44.064 221.74 45.874 219.87C48.474 217.2 55.074 218.31 65.964 223.28C61.724 219.38 56.964 214.21 57.134 210.79C57.158 210.231 57.3227 209.686 57.6128 209.207C57.903 208.728 58.3092 208.33 58.794 208.05C64.394 204.62 94.464 224.6 106.854 233.16C93.524 211.66 94.024 208.53 95.614 207.34C97.204 206.15 100.534 203.68 150.694 258.45C177.494 287.71 207.124 321.77 223.044 340.07C229.164 347.07 233.214 351.76 233.814 352.36C238.574 357.1 243.814 363.36 249.434 370.06C271.624 396.53 299.234 429.47 332.724 417.06C332.944 416.978 333.186 416.977 333.407 417.055C333.628 417.134 333.815 417.288 333.934 417.49C334.284 418.06 342.934 431.49 370.624 420.11L373.824 418.11C373.953 418.03 374.098 417.98 374.249 417.965C374.399 417.949 374.552 417.968 374.694 418.02C408.184 430.48 435.794 397.54 457.984 371.02C463.564 364.36 468.844 358.02 473.604 353.32C474.214 352.72 478.254 348.07 484.384 341.03C500.294 322.73 529.924 288.67 556.724 259.41C606.884 204.64 610.204 207.11 611.804 208.3C613.404 209.49 613.894 212.62 600.564 234.12C612.954 225.56 643.024 205.57 648.624 209.01C649.111 209.288 649.518 209.686 649.809 210.165C650.099 210.644 650.263 211.19 650.284 211.75C650.464 215.17 645.694 220.34 641.454 224.24C652.344 219.24 658.944 218.16 661.544 220.83C663.364 222.7 662.654 225.67 661.934 227.54C662.546 227.499 663.16 227.608 663.721 227.857C664.282 228.106 664.774 228.488 665.154 228.97C666.924 231.39 665.034 236.06 664.034 238.14C665.894 239.07 666.904 240.31 667.034 241.84C667.454 246.08 661.174 251.02 650.914 257.62C639.554 264.91 621.494 278.85 597.234 299.04C570.804 321.04 524.894 377.38 524.434 377.94C489.634 419.7 434.294 483.69 430.304 488.31L426.304 563.96C426.309 564.092 426.288 564.224 426.242 564.348C426.196 564.472 426.126 564.586 426.036 564.682C425.946 564.779 425.837 564.857 425.717 564.912C425.596 564.966 425.466 564.996 425.334 565Z" fill="black"/>
<path d="M624.214 260.34C624.214 260.34 653.884 238.83 663.274 238.34L624.214 260.34Z" fill="white"/>
<path d="M624.214 261.34C624.055 261.339 623.899 261.301 623.758 261.228C623.617 261.155 623.496 261.049 623.404 260.92C623.251 260.705 623.19 260.438 623.233 260.178C623.276 259.917 623.42 259.685 623.634 259.53C624.854 258.64 653.634 237.84 663.224 237.37C663.489 237.358 663.748 237.452 663.944 237.631C664.14 237.81 664.257 238.06 664.269 238.325C664.281 238.59 664.187 238.849 664.008 239.045C663.829 239.241 663.579 239.358 663.314 239.37C654.314 239.8 625.094 260.93 624.804 261.15C624.631 261.271 624.425 261.337 624.214 261.34Z" fill="black"/>
<path d="M620.064 253.01C620.064 253.01 644.594 235.2 660.874 228.45L620.064 253.01Z" fill="white"/>
<path d="M620.064 254.01C619.856 254.006 619.654 253.937 619.487 253.813C619.32 253.688 619.196 253.515 619.132 253.317C619.068 253.119 619.068 252.905 619.131 252.707C619.194 252.509 619.317 252.335 619.484 252.21C619.724 252.03 644.284 234.21 660.484 227.53C660.605 227.48 660.736 227.455 660.867 227.455C660.998 227.455 661.128 227.482 661.249 227.532C661.37 227.583 661.481 227.657 661.573 227.75C661.666 227.843 661.739 227.953 661.789 228.075C661.839 228.196 661.864 228.327 661.864 228.458C661.864 228.589 661.837 228.719 661.787 228.84C661.736 228.962 661.662 229.072 661.569 229.164C661.476 229.257 661.365 229.33 661.244 229.38C645.244 236 620.894 253.65 620.644 253.82C620.475 253.942 620.272 254.009 620.064 254.01Z" fill="black"/>
<path d="M615.824 242.56C615.824 242.56 629.914 230.96 635.604 227.99L615.824 242.56Z" fill="white"/>
<path d="M615.824 243.56C615.677 243.56 615.532 243.528 615.399 243.466C615.266 243.404 615.148 243.313 615.054 243.2C614.97 243.098 614.908 242.981 614.869 242.855C614.831 242.729 614.818 242.597 614.831 242.466C614.844 242.335 614.883 242.208 614.945 242.092C615.007 241.976 615.092 241.873 615.194 241.79C615.764 241.32 629.424 230.09 635.194 227.11C635.428 226.994 635.698 226.974 635.946 227.055C636.195 227.135 636.402 227.31 636.523 227.541C636.645 227.772 636.671 228.041 636.597 228.292C636.522 228.542 636.352 228.753 636.124 228.88C630.584 231.77 616.654 243.22 616.514 243.34C616.32 243.497 616.073 243.575 615.824 243.56Z" fill="black"/>
<path d="M592.824 265.94C592.824 265.94 600.764 248.63 592.294 242.15L599.644 234.87" fill="white"/>
<path d="M592.824 266.94C592.682 266.944 592.541 266.913 592.414 266.85C592.175 266.739 591.989 266.538 591.897 266.291C591.806 266.044 591.815 265.77 591.924 265.53C591.994 265.36 599.424 248.86 591.684 242.94C591.571 242.853 591.477 242.743 591.41 242.617C591.343 242.491 591.303 242.352 591.294 242.21C591.286 242.068 591.309 241.925 591.361 241.793C591.412 241.66 591.492 241.54 591.594 241.44L598.944 234.16C599.136 233.998 599.383 233.914 599.635 233.925C599.886 233.936 600.125 234.042 600.301 234.222C600.478 234.401 600.581 234.641 600.589 234.893C600.597 235.144 600.509 235.39 600.344 235.58L593.764 242.09C601.374 249.41 594.064 265.65 593.764 266.36C593.682 266.538 593.548 266.688 593.381 266.792C593.214 266.895 593.02 266.946 592.824 266.94Z" fill="black"/>
<path d="M83.1839 258.34C83.1839 258.34 53.5139 236.83 44.1339 236.34L83.1839 258.34Z" fill="white"/>
<path d="M83.1839 259.34C82.973 259.335 82.7681 259.269 82.5939 259.15C82.3039 258.93 53.0639 237.8 44.0839 237.37C43.8187 237.357 43.5696 237.239 43.3915 237.042C43.2133 236.845 43.1207 236.585 43.1339 236.32C43.1472 236.055 43.2653 235.806 43.4622 235.628C43.6591 235.449 43.9187 235.357 44.1839 235.37C53.7439 235.84 82.5439 256.64 83.7739 257.53C83.9454 257.654 84.073 257.829 84.1385 258.031C84.2039 258.232 84.2039 258.449 84.1383 258.65C84.0727 258.851 83.945 259.026 83.7735 259.15C83.602 259.274 83.3956 259.341 83.1839 259.34Z" fill="black"/>
<path d="M87.304 251.01C87.304 251.01 62.784 233.2 46.494 226.5L87.304 251.01Z" fill="white"/>
<path d="M87.3039 252.01C87.0921 252.011 86.8855 251.944 86.7139 251.82C86.4739 251.65 62.1039 234 46.1139 227.38C45.9923 227.33 45.8818 227.256 45.7888 227.163C45.6958 227.069 45.6221 226.959 45.5719 226.837C45.5217 226.715 45.4961 226.585 45.4964 226.453C45.4968 226.322 45.5231 226.191 45.5739 226.07C45.6757 225.827 45.8694 225.634 46.1128 225.533C46.3563 225.431 46.6298 225.431 46.8739 225.53C63.0839 232.25 87.6439 250.03 87.8739 250.21C88.0412 250.335 88.1649 250.51 88.2278 250.71C88.2906 250.909 88.2894 251.123 88.2243 251.322C88.1592 251.52 88.0334 251.693 87.8648 251.817C87.6961 251.94 87.493 252.008 87.2839 252.01H87.3039Z" fill="black"/>
<path d="M91.5739 240.56C91.5739 240.56 77.4839 228.96 71.7939 225.99L91.5739 240.56Z" fill="white"/>
<path d="M91.574 241.56C91.3416 241.563 91.1153 241.485 90.934 241.34C90.794 241.22 76.864 229.77 71.334 226.88C71.2169 226.82 71.1129 226.737 71.0279 226.636C70.9429 226.536 70.8786 226.42 70.8386 226.294C70.7987 226.169 70.7839 226.037 70.7951 225.906C70.8063 225.774 70.8433 225.647 70.904 225.53C71.0273 225.295 71.2389 225.119 71.492 225.041C71.7452 224.962 72.0192 224.987 72.254 225.11C77.974 228.11 91.634 239.32 92.254 239.79C92.3552 239.874 92.4389 239.977 92.5003 240.093C92.5616 240.21 92.5994 240.337 92.6115 240.468C92.6236 240.599 92.6097 240.731 92.5707 240.857C92.5316 240.982 92.4682 241.099 92.384 241.2C92.2857 241.318 92.1615 241.412 92.021 241.475C91.8806 241.537 91.7276 241.566 91.574 241.56Z" fill="black"/>
<path d="M114.574 263.94C114.574 263.94 106.634 246.63 115.104 240.15L107.754 232.87" fill="white"/>
<path d="M114.574 264.94C114.383 264.94 114.195 264.886 114.034 264.783C113.873 264.681 113.744 264.534 113.664 264.36C113.334 263.65 106.024 247.41 113.664 240.09L107.084 233.58C106.898 233.393 106.793 233.139 106.793 232.875C106.793 232.611 106.898 232.357 107.084 232.17C107.177 232.076 107.288 232.002 107.409 231.951C107.531 231.9 107.662 231.874 107.794 231.874C107.926 231.874 108.057 231.9 108.179 231.951C108.3 232.002 108.411 232.076 108.504 232.17L115.854 239.45C115.954 239.55 116.032 239.671 116.082 239.804C116.132 239.937 116.153 240.078 116.144 240.22C116.135 240.362 116.095 240.501 116.028 240.627C115.961 240.753 115.867 240.863 115.754 240.95C108.024 246.87 115.444 263.37 115.524 263.54C115.632 263.781 115.64 264.056 115.547 264.303C115.453 264.551 115.265 264.751 115.024 264.86C114.884 264.927 114.728 264.955 114.574 264.94Z" fill="black"/>
<path d="M334.304 302.2C334.304 302.2 383.904 263.94 400.184 281.71C416.464 299.48 396.384 320.33 396.384 320.33L331.804 379.33C331.804 379.33 342.534 398.5 314.064 401C272.494 404.71 245.874 366.19 250.064 348C254.254 329.81 272.224 337.8 267.864 325.1C260.904 304.85 279.294 276.5 334.304 302.2Z" fill="#201000"/>
<path d="M332.264 414.22L331.804 379.34C331.804 379.34 320.074 363.9 322.584 353.01C322.584 353.01 292.994 348.73 293.584 329.75C294.174 310.77 310.894 304.43 320.384 312.99L329.884 321.55C329.884 321.55 351.004 323.88 354.814 301.82C354.814 301.82 393.714 287.82 400.054 321.17C406.394 354.52 405.054 382.17 395.594 390.17C386.134 398.17 370.094 395.76 370.094 395.76L373.094 417.95C373.094 417.95 348.904 442.88 332.264 414.22Z" fill="white"/>
<path d="M352.004 429.02C351.192 429.019 350.38 428.969 349.574 428.87C342.464 428 336.344 423.24 331.404 414.73C331.319 414.58 331.27 414.412 331.264 414.24L330.814 379.68C329.254 377.57 319.814 364.25 321.414 353.83C316.014 352.83 292.024 347.54 292.544 329.72C292.824 320.14 297.254 312.6 304.394 309.55C307.13 308.351 310.154 307.967 313.103 308.446C316.051 308.925 318.798 310.246 321.014 312.25L330.264 320.59C332.924 320.78 350.394 321.31 353.794 301.65C353.824 301.476 353.901 301.312 354.015 301.177C354.129 301.042 354.277 300.939 354.444 300.88C355.254 300.58 374.594 293.79 388.444 301.72C395.034 305.49 399.244 311.97 400.964 320.98C407.634 356.04 405.794 382.87 396.174 390.98C387.944 397.98 375.294 397.35 371.174 396.98L374.004 417.9C374.025 418.05 374.011 418.202 373.964 418.346C373.918 418.49 373.839 418.621 373.734 418.73C373.344 419.15 363.614 429.02 352.004 429.02ZM333.264 413.95C337.844 421.75 343.414 426.1 349.804 426.89C360.314 428.18 370.084 419.47 372.004 417.64L369.064 395.94C369.044 395.787 369.06 395.632 369.111 395.486C369.161 395.34 369.244 395.208 369.354 395.1C369.464 394.99 369.598 394.908 369.746 394.86C369.893 394.811 370.05 394.797 370.204 394.82C370.364 394.82 385.884 397.07 394.914 389.46C403.944 381.85 405.464 355.19 399.024 321.35C397.424 312.95 393.544 306.93 387.484 303.46C375.654 296.69 358.864 301.55 355.654 302.58C351.454 324.67 329.954 322.58 329.734 322.58C329.526 322.557 329.33 322.47 329.174 322.33L319.674 313.77C317.744 312.02 315.348 310.867 312.777 310.45C310.205 310.033 307.568 310.37 305.184 311.42C298.774 314.16 294.804 321.03 294.544 329.81C294.024 347.7 322.444 352.01 322.734 352.05C322.87 352.07 323.001 352.118 323.118 352.191C323.235 352.264 323.335 352.36 323.413 352.474C323.491 352.587 323.545 352.716 323.571 352.851C323.597 352.986 323.594 353.126 323.564 353.26C321.184 363.58 332.484 378.62 332.564 378.77C332.692 378.94 332.762 379.147 332.764 379.36L333.264 413.95Z" fill="black"/>
<path d="M382.894 357.72C382.659 357.72 382.431 357.637 382.251 357.485C382.072 357.334 381.951 357.124 381.91 356.893C381.87 356.661 381.912 356.423 382.03 356.219C382.147 356.016 382.333 355.86 382.554 355.78C386.424 354.36 388.834 352.09 389.724 349.02C392.054 340.94 383.484 329.71 383.404 329.6C383.314 329.497 383.246 329.377 383.204 329.247C383.162 329.117 383.148 328.98 383.161 328.844C383.174 328.708 383.215 328.577 383.281 328.457C383.347 328.338 383.437 328.233 383.545 328.15C383.653 328.066 383.777 328.006 383.909 327.972C384.042 327.938 384.18 327.932 384.314 327.954C384.449 327.975 384.578 328.024 384.693 328.098C384.808 328.171 384.907 328.267 384.984 328.38C385.364 328.87 394.254 340.51 391.644 349.57C390.574 353.29 387.744 356.01 383.234 357.66C383.125 357.7 383.01 357.72 382.894 357.72Z" fill="black"/>
<path d="M309.064 332.42C308.988 332.43 308.91 332.43 308.834 332.42C308.577 332.36 308.355 332.202 308.214 331.979C308.074 331.756 308.027 331.487 308.084 331.23C308.084 331.08 308.974 327.52 311.974 326.5C314.264 325.72 317.034 326.66 320.214 329.28C320.315 329.364 320.399 329.467 320.46 329.583C320.522 329.7 320.559 329.827 320.572 329.958C320.584 330.089 320.57 330.221 320.531 330.347C320.492 330.472 320.428 330.589 320.344 330.69C320.26 330.791 320.157 330.875 320.041 330.936C319.924 330.998 319.797 331.035 319.666 331.047C319.535 331.06 319.403 331.046 319.277 331.007C319.152 330.968 319.035 330.904 318.934 330.82C316.374 328.71 314.194 327.82 312.634 328.39C310.634 329.04 310.044 331.65 310.034 331.68C309.977 331.893 309.85 332.081 309.675 332.215C309.499 332.349 309.285 332.421 309.064 332.42Z" fill="black"/>
<path d="M353.064 313.66C352.891 313.661 352.721 313.617 352.571 313.533C352.42 313.449 352.294 313.327 352.204 313.18C352.067 312.954 352.025 312.684 352.087 312.427C352.148 312.17 352.309 311.949 352.534 311.81C354.771 310.548 357.397 310.16 359.904 310.72C360.143 310.797 360.345 310.962 360.469 311.181C360.592 311.4 360.628 311.658 360.57 311.903C360.512 312.147 360.364 312.361 360.155 312.502C359.947 312.642 359.693 312.699 359.444 312.66C357.452 312.227 355.371 312.529 353.584 313.51C353.428 313.607 353.248 313.659 353.064 313.66Z" fill="black"/>
<path d="M392.304 313.43C392.108 313.43 391.916 313.372 391.752 313.263C391.589 313.155 391.461 313.001 391.384 312.82C389.954 309.5 385.634 310.38 385.594 310.39C385.463 310.418 385.327 310.419 385.195 310.394C385.063 310.37 384.938 310.319 384.825 310.246C384.713 310.172 384.616 310.078 384.54 309.967C384.465 309.856 384.412 309.731 384.384 309.6C384.356 309.469 384.355 309.333 384.38 309.201C384.404 309.069 384.455 308.944 384.528 308.831C384.602 308.719 384.697 308.622 384.807 308.547C384.918 308.471 385.043 308.418 385.174 308.39C387.234 307.95 391.564 308.14 393.224 311.98C393.277 312.101 393.305 312.231 393.308 312.363C393.31 312.495 393.287 312.626 393.239 312.748C393.19 312.871 393.118 312.983 393.026 313.078C392.935 313.172 392.825 313.248 392.704 313.3C392.58 313.369 392.444 313.413 392.304 313.43Z" fill="black"/>
<path d="M322.434 339.59C322.19 339.592 321.953 339.505 321.769 339.344C321.585 339.184 321.466 338.962 321.434 338.72C319.244 322.22 306.944 321.06 306.434 321.01C306.169 320.99 305.922 320.866 305.749 320.664C305.575 320.462 305.489 320.2 305.509 319.935C305.529 319.67 305.653 319.423 305.855 319.25C306.056 319.076 306.319 318.99 306.584 319.01C306.734 319.01 321.024 320.29 323.444 338.45C323.478 338.712 323.407 338.978 323.245 339.188C323.084 339.398 322.846 339.535 322.584 339.57L322.434 339.59Z" fill="black"/>
<path d="M333.434 301.79C333.434 301.79 323.364 306.88 327.724 324.91C332.084 342.94 327.484 325.91 327.484 325.91L331.534 326.84C330.458 322.113 330.466 317.204 331.555 312.48C332.644 307.756 334.787 303.339 337.824 299.56L333.434 301.79Z" fill="white"/>
<path d="M369.264 377.21C366.339 377.334 363.472 376.373 361.214 374.51C357.114 370.95 357.064 365.24 357.064 365C357.064 364.735 357.169 364.48 357.357 364.293C357.544 364.105 357.799 364 358.064 364C358.329 364 358.584 364.105 358.771 364.293C358.959 364.48 359.064 364.735 359.064 365C359.064 365 359.124 370.06 362.534 373C364.744 374.9 367.894 375.57 371.924 375C372.189 374.963 372.458 375.033 372.672 375.194C372.886 375.355 373.027 375.595 373.064 375.86C373.101 376.125 373.031 376.394 372.87 376.608C372.709 376.822 372.469 376.963 372.204 377C371.23 377.142 370.248 377.212 369.264 377.21Z" fill="black"/>
<path d="M360.064 379C357.574 379 355.884 378.29 355.014 376.89C353.644 374.67 355.104 371.68 355.174 371.55C355.294 371.315 355.502 371.136 355.753 371.054C356.004 370.971 356.278 370.991 356.514 371.11C356.751 371.228 356.932 371.436 357.016 371.687C357.101 371.938 357.082 372.213 356.964 372.45C356.674 373.03 356.064 374.79 356.724 375.85C357.384 376.91 358.864 377 360.064 377C360.329 377 360.584 377.105 360.771 377.293C360.959 377.48 361.064 377.735 361.064 378C361.064 378.265 360.959 378.52 360.771 378.707C360.584 378.895 360.329 379 360.064 379Z" fill="black"/>
<path d="M354.064 330C353.838 329.999 353.62 329.921 353.444 329.78C353.238 329.615 353.105 329.375 353.076 329.113C353.046 328.851 353.12 328.587 353.284 328.38C353.464 328.15 357.794 322.87 362.774 322.9C363.994 322.958 365.183 323.305 366.242 323.914C367.301 324.523 368.2 325.375 368.864 326.4C368.943 326.505 369 326.625 369.033 326.752C369.065 326.879 369.072 327.011 369.054 327.141C369.035 327.271 368.991 327.397 368.924 327.51C368.858 327.623 368.769 327.721 368.664 327.8C368.559 327.879 368.439 327.936 368.312 327.969C368.185 328.001 368.053 328.009 367.923 327.99C367.793 327.971 367.667 327.927 367.554 327.86C367.441 327.794 367.343 327.705 367.264 327.6C366.781 326.821 366.119 326.17 365.332 325.7C364.546 325.23 363.658 324.956 362.744 324.9H362.664C358.664 324.9 354.884 329.58 354.844 329.63C354.75 329.746 354.631 329.84 354.496 329.904C354.361 329.968 354.213 330.001 354.064 330Z" fill="black"/>
<path d="M384.064 327C383.838 326.999 383.62 326.921 383.444 326.78C383.238 326.615 383.105 326.375 383.076 326.113C383.046 325.851 383.12 325.587 383.284 325.38C383.464 325.15 387.804 319.84 392.774 319.9C393.994 319.958 395.183 320.305 396.242 320.914C397.301 321.523 398.2 322.375 398.864 323.4C398.943 323.505 399 323.625 399.033 323.752C399.065 323.879 399.072 324.011 399.054 324.141C399.035 324.271 398.991 324.397 398.924 324.51C398.858 324.623 398.769 324.721 398.664 324.8C398.559 324.879 398.439 324.936 398.312 324.969C398.185 325.001 398.053 325.009 397.923 324.99C397.793 324.971 397.667 324.927 397.554 324.86C397.441 324.794 397.343 324.705 397.264 324.6C396.781 323.821 396.119 323.17 395.332 322.7C394.546 322.23 393.658 321.956 392.744 321.9H392.664C388.664 321.9 384.884 326.58 384.844 326.63C384.75 326.746 384.631 326.84 384.496 326.904C384.361 326.968 384.213 327.001 384.064 327Z" fill="black"/>
<path d="M399.064 484H378.064C377.932 483.999 377.801 483.973 377.679 483.921C377.557 483.87 377.447 483.794 377.354 483.7C377.261 483.607 377.188 483.496 377.138 483.374C377.088 483.252 377.063 483.122 377.064 482.99L377.484 423.12C369.594 433.12 361.204 438.04 352.484 437.72C340.484 437.28 331.374 427.08 327.624 422.08L328.034 482.99C328.035 483.122 328.009 483.252 327.96 483.374C327.91 483.496 327.837 483.607 327.744 483.7C327.651 483.794 327.541 483.87 327.419 483.921C327.297 483.973 327.166 483.999 327.034 484H306.064C305.932 483.999 305.801 483.973 305.679 483.921C305.557 483.87 305.447 483.794 305.354 483.7C305.261 483.607 305.188 483.496 305.138 483.374C305.088 483.252 305.063 483.122 305.064 482.99L305.504 418.1C305.504 417.835 305.609 417.58 305.797 417.393C305.984 417.205 306.239 417.1 306.504 417.1C306.769 417.1 307.024 417.205 307.211 417.393C307.399 417.58 307.504 417.835 307.504 418.1L307.064 482H326.064L325.634 418.87C325.626 418.646 325.693 418.425 325.826 418.243C325.958 418.062 326.148 417.93 326.364 417.87C326.573 417.812 326.795 417.823 326.998 417.903C327.2 417.982 327.37 418.125 327.484 418.31C327.594 418.47 338.084 435.17 352.604 435.69C361.264 436 369.704 430.55 377.704 419.49C377.829 419.319 378.004 419.193 378.205 419.128C378.407 419.063 378.623 419.064 378.824 419.13C379.033 419.198 379.214 419.332 379.338 419.513C379.463 419.694 379.525 419.911 379.514 420.13L379.064 482H398.064L397.634 420.87C397.634 420.605 397.739 420.35 397.927 420.163C398.114 419.975 398.369 419.87 398.634 419.87C398.899 419.87 399.154 419.975 399.341 420.163C399.529 420.35 399.634 420.605 399.634 420.87L400.074 483.01C400.075 483.142 400.049 483.272 400 483.394C399.95 483.516 399.877 483.627 399.784 483.72C399.688 483.812 399.576 483.884 399.452 483.932C399.328 483.98 399.197 484.003 399.064 484Z" fill="black"/>
<path d="M278.064 487C277.862 486.999 277.666 486.938 277.499 486.824C277.333 486.709 277.206 486.547 277.133 486.359C277.061 486.171 277.047 485.965 277.093 485.769C277.14 485.573 277.245 485.396 277.394 485.26L305.394 459.66C305.593 459.5 305.845 459.423 306.099 459.443C306.353 459.463 306.59 459.58 306.761 459.769C306.933 459.958 307.025 460.205 307.02 460.46C307.015 460.715 306.912 460.958 306.734 461.14L278.734 486.74C278.551 486.907 278.312 486.999 278.064 487Z" fill="black"/>
<path d="M378.254 457H328.064C327.799 457 327.544 456.895 327.357 456.707C327.169 456.52 327.064 456.265 327.064 456C327.064 455.735 327.169 455.48 327.357 455.293C327.544 455.105 327.799 455 328.064 455H378.254C378.519 455 378.774 455.105 378.961 455.293C379.149 455.48 379.254 455.735 379.254 456C379.254 456.265 379.149 456.52 378.961 456.707C378.774 456.895 378.519 457 378.254 457Z" fill="black"/>
<path d="M429.064 487C428.811 486.999 428.568 486.903 428.384 486.73L398.384 458.84C398.211 458.655 398.114 458.411 398.114 458.158C398.114 457.904 398.21 457.66 398.382 457.475C398.555 457.29 398.792 457.177 399.044 457.159C399.297 457.142 399.547 457.22 399.744 457.38L429.744 485.27C429.89 485.407 429.992 485.585 430.036 485.78C430.08 485.975 430.064 486.179 429.991 486.366C429.918 486.552 429.79 486.712 429.625 486.825C429.46 486.939 429.264 486.999 429.064 487Z" fill="black"/>
<path d="M482.064 426.6C481.808 426.602 481.561 426.505 481.374 426.33L442.224 389.73C442.031 389.552 441.916 389.306 441.903 389.044C441.89 388.782 441.98 388.526 442.154 388.33C442.334 388.14 446.534 383.5 450.664 383.78C451.528 383.856 452.361 384.139 453.093 384.603C453.826 385.068 454.436 385.701 454.874 386.45C456.764 389.28 457.024 391.56 456.694 393.26C459.214 392.26 462.344 391.88 464.754 394.26C465.301 394.769 465.732 395.39 466.018 396.08C466.305 396.77 466.44 397.513 466.414 398.26C466.337 399.384 465.994 400.474 465.414 401.44C468.564 400.44 472.834 399.95 474.914 403.44C476.504 405.917 477.064 408.917 476.474 411.8C479.334 411.6 485.084 411.65 486.924 414.97C488.354 417.58 487.024 421.25 482.834 426.2C482.747 426.302 482.64 426.386 482.52 426.446C482.399 426.506 482.268 426.542 482.134 426.55L482.064 426.6ZM444.334 388.97L481.964 424.15C484.964 420.43 486.054 417.62 485.164 415.99C483.744 413.41 477.474 413.67 475.164 413.99C474.986 414.009 474.806 413.979 474.643 413.905C474.48 413.83 474.34 413.713 474.238 413.566C474.136 413.419 474.075 413.247 474.062 413.068C474.049 412.889 474.084 412.71 474.164 412.55C474.224 412.41 475.854 408.94 473.164 404.55C470.704 400.44 462.594 404.87 462.504 404.91C462.287 405.023 462.036 405.053 461.799 404.993C461.561 404.934 461.354 404.789 461.216 404.587C461.078 404.385 461.019 404.139 461.05 403.897C461.081 403.654 461.2 403.431 461.384 403.27C461.384 403.27 464.284 400.81 464.384 398.27C464.401 397.795 464.312 397.322 464.126 396.885C463.939 396.447 463.659 396.057 463.304 395.74C460.004 392.43 454.874 396.62 454.654 396.8C454.446 396.964 454.181 397.039 453.917 397.009C453.654 396.978 453.413 396.843 453.249 396.635C453.085 396.427 453.01 396.162 453.04 395.898C453.071 395.635 453.206 395.394 453.414 395.23L453.524 395.14C453.974 394.74 456.374 392.29 453.224 387.55C452.951 387.06 452.564 386.643 452.096 386.335C451.628 386.027 451.092 385.837 450.534 385.78C448.374 385.63 445.754 387.63 444.354 388.97H444.334Z" fill="black"/>
<path d="M219.494 420.3C219.355 420.301 219.218 420.273 219.09 420.218C218.963 420.163 218.848 420.082 218.754 419.98C218.574 419.78 214.354 415.16 215.044 411.07C215.201 410.217 215.561 409.415 216.094 408.731C216.626 408.047 217.316 407.501 218.104 407.14C221.104 405.53 223.404 405.49 225.104 405.99C224.304 403.37 224.284 400.23 226.914 398.06C227.481 397.562 228.149 397.191 228.872 396.974C229.595 396.756 230.356 396.697 231.104 396.8C232.193 396.993 233.222 397.442 234.104 398.11C233.424 394.88 233.344 390.59 236.994 388.85C239.615 387.506 242.657 387.237 245.474 388.1C245.554 385.24 246.154 379.51 249.634 378.01C252.374 376.83 255.894 378.52 260.414 383.16C260.509 383.257 260.584 383.372 260.633 383.498C260.682 383.625 260.705 383.76 260.7 383.896C260.696 384.031 260.664 384.165 260.606 384.287C260.548 384.41 260.466 384.52 260.364 384.61L220.154 420.05C219.972 420.211 219.737 420.3 219.494 420.3ZM223.104 407.71C221.673 407.767 220.279 408.176 219.044 408.9C218.534 409.128 218.086 409.475 217.738 409.912C217.39 410.348 217.152 410.862 217.044 411.41C216.684 413.57 218.424 416.35 219.624 417.87L258.274 383.81C254.854 380.48 252.164 379.11 250.464 379.81C247.764 380.97 247.414 387.23 247.464 389.54C247.472 389.723 247.429 389.904 247.341 390.065C247.253 390.225 247.123 390.359 246.964 390.45C246.812 390.538 246.639 390.584 246.464 390.584C246.288 390.584 246.116 390.538 245.964 390.45C245.834 390.37 242.544 388.45 237.874 390.64C233.544 392.64 237.164 401.19 237.204 401.28C237.337 401.511 237.372 401.785 237.303 402.042C237.233 402.299 237.065 402.517 236.834 402.65C236.603 402.783 236.329 402.818 236.072 402.749C235.815 402.679 235.597 402.511 235.464 402.28C235.464 402.28 233.294 399.15 230.784 398.8C230.312 398.739 229.832 398.782 229.377 398.925C228.923 399.069 228.506 399.309 228.154 399.63C224.534 402.63 228.334 408.29 228.374 408.34C228.501 408.562 228.538 408.825 228.477 409.074C228.416 409.322 228.261 409.538 228.046 409.677C227.831 409.815 227.57 409.866 227.319 409.818C227.067 409.77 226.844 409.628 226.694 409.42C226.673 409.379 226.646 409.342 226.614 409.31C226.193 408.779 225.651 408.357 225.033 408.078C224.416 407.8 223.74 407.674 223.064 407.71H223.104Z" fill="black"/>
<path d="M475.364 434.5C475.106 434.499 474.859 434.399 474.674 434.22L435.374 396.86C435.188 396.673 435.083 396.419 435.083 396.155C435.083 395.891 435.188 395.637 435.374 395.45C435.467 395.356 435.578 395.282 435.699 395.231C435.821 395.18 435.952 395.154 436.084 395.154C436.216 395.154 436.347 395.18 436.469 395.231C436.59 395.282 436.701 395.356 436.794 395.45L476.094 432.81C476.241 432.948 476.343 433.126 476.387 433.322C476.43 433.519 476.414 433.724 476.339 433.911C476.265 434.097 476.136 434.257 475.969 434.37C475.802 434.482 475.605 434.541 475.404 434.54L475.364 434.5Z" fill="black"/>
<path d="M228.234 429.02C228.097 429.02 227.961 428.991 227.836 428.936C227.71 428.881 227.597 428.8 227.504 428.7C227.324 428.506 227.229 428.249 227.238 427.985C227.247 427.72 227.361 427.471 227.554 427.29L265.384 392.29C265.478 392.19 265.591 392.11 265.717 392.056C265.842 392.001 265.978 391.973 266.115 391.973C266.252 391.973 266.388 392.002 266.514 392.057C266.639 392.111 266.752 392.191 266.846 392.292C266.939 392.392 267.011 392.51 267.057 392.64C267.103 392.769 267.121 392.906 267.112 393.043C267.102 393.18 267.065 393.313 267.001 393.435C266.938 393.556 266.85 393.664 266.744 393.75L228.914 428.75C228.73 428.923 228.487 429.019 228.234 429.02Z" fill="black"/>
<path d="M316.064 476C314.877 476 313.717 475.648 312.731 474.989C311.744 474.33 310.975 473.393 310.521 472.296C310.067 471.2 309.948 469.993 310.179 468.83C310.411 467.666 310.982 466.596 311.821 465.757C312.66 464.918 313.73 464.347 314.893 464.115C316.057 463.884 317.264 464.003 318.36 464.457C319.456 464.911 320.394 465.68 321.053 466.667C321.712 467.653 322.064 468.813 322.064 470C322.064 471.591 321.432 473.118 320.307 474.243C319.181 475.368 317.655 476 316.064 476ZM316.064 466C315.273 466 314.499 466.235 313.842 466.674C313.184 467.114 312.671 467.738 312.368 468.469C312.066 469.2 311.986 470.005 312.141 470.78C312.295 471.556 312.676 472.269 313.236 472.828C313.795 473.388 314.508 473.769 315.284 473.923C316.06 474.077 316.864 473.998 317.595 473.696C318.326 473.393 318.95 472.88 319.39 472.222C319.829 471.565 320.064 470.791 320.064 470C320.064 468.939 319.643 467.922 318.892 467.172C318.142 466.422 317.125 466 316.064 466Z" fill="black"/>
<path d="M388.064 477C386.877 477 385.717 476.648 384.731 475.989C383.744 475.33 382.975 474.393 382.521 473.296C382.067 472.2 381.948 470.993 382.179 469.83C382.411 468.666 382.982 467.596 383.821 466.757C384.66 465.918 385.73 465.347 386.893 465.115C388.057 464.884 389.264 465.003 390.36 465.457C391.456 465.911 392.394 466.68 393.053 467.667C393.712 468.653 394.064 469.813 394.064 471C394.064 472.591 393.432 474.118 392.307 475.243C391.181 476.368 389.655 477 388.064 477ZM388.064 467C387.273 467 386.499 467.235 385.842 467.674C385.184 468.114 384.671 468.738 384.368 469.469C384.066 470.2 383.986 471.005 384.141 471.78C384.295 472.556 384.676 473.269 385.236 473.828C385.795 474.388 386.508 474.769 387.284 474.923C388.06 475.077 388.864 474.998 389.595 474.696C390.326 474.393 390.95 473.88 391.39 473.222C391.829 472.565 392.064 471.791 392.064 471C392.064 469.939 391.643 468.922 390.892 468.172C390.142 467.422 389.125 467 388.064 467Z" fill="black"/>
<path d="M624.064 181C623.971 181.015 623.877 181.015 623.784 181C623.658 180.963 623.54 180.902 623.438 180.82C623.336 180.738 623.25 180.636 623.187 180.521C623.124 180.406 623.084 180.279 623.07 180.149C623.056 180.018 623.067 179.886 623.104 179.76L630.104 155.76C630.178 155.505 630.351 155.291 630.583 155.163C630.816 155.036 631.089 155.006 631.344 155.08C631.599 155.154 631.813 155.327 631.941 155.559C632.068 155.792 632.098 156.065 632.024 156.32L625.024 180.32C624.956 180.52 624.827 180.694 624.655 180.816C624.482 180.938 624.275 181.003 624.064 181Z" fill="black"/>
<path d="M644.064 178C643.877 178.001 643.693 177.949 643.534 177.85C643.422 177.781 643.325 177.69 643.249 177.583C643.172 177.476 643.117 177.355 643.087 177.226C643.058 177.098 643.054 176.965 643.075 176.836C643.097 176.706 643.144 176.582 643.214 176.47L656.214 155.47C656.355 155.245 656.579 155.084 656.838 155.024C657.097 154.964 657.369 155.009 657.594 155.15C657.819 155.291 657.98 155.515 658.04 155.774C658.1 156.032 658.055 156.305 657.914 156.53L644.914 177.53C644.824 177.674 644.699 177.793 644.55 177.875C644.401 177.957 644.234 178 644.064 178Z" fill="black"/>
<path d="M51.064 195C50.9162 194.999 50.7706 194.965 50.6375 194.901C50.5043 194.837 50.387 194.745 50.294 194.63L32.294 172.63C32.1949 172.531 32.1177 172.413 32.0673 172.282C32.0168 172.152 31.9943 172.012 32.0012 171.873C32.0081 171.733 32.0441 171.596 32.1071 171.472C32.1701 171.347 32.2585 171.236 32.3668 171.148C32.475 171.059 32.6006 170.995 32.7354 170.958C32.8703 170.921 33.0114 170.912 33.1497 170.933C33.288 170.954 33.4203 171.004 33.5381 171.079C33.656 171.154 33.7568 171.253 33.834 171.37L51.834 193.37C51.9997 193.575 52.078 193.837 52.0518 194.099C52.0256 194.361 51.897 194.602 51.694 194.77C51.5194 194.922 51.2951 195.003 51.064 195Z" fill="black"/>
<path d="M77.064 184C76.8355 184.007 76.6117 183.935 76.4298 183.797C76.2478 183.658 76.1187 183.462 76.064 183.24L71.064 163.24C71.0266 163.111 71.0157 162.975 71.032 162.842C71.0482 162.708 71.0913 162.579 71.1586 162.463C71.2259 162.346 71.316 162.244 71.4235 162.163C71.5311 162.082 71.6538 162.024 71.7845 161.992C71.9151 161.959 72.0509 161.954 72.1838 161.975C72.3167 161.997 72.4439 162.045 72.5577 162.116C72.6716 162.188 72.7698 162.282 72.8465 162.393C72.9232 162.503 72.9767 162.628 73.004 162.76L78.004 182.76C78.0674 183.017 78.0262 183.289 77.8893 183.516C77.7524 183.743 77.5311 183.906 77.274 183.97L77.064 184Z" fill="black"/>
<path d="M509.064 90H201.064V155H509.064V90Z" fill="#47CEC0"/>
<path d="M250.804 140.76L242.474 107.94H246.954L250.854 124.54C251.854 128.63 252.704 132.72 253.284 135.89H253.384C253.914 132.62 254.944 128.73 256.064 124.49L260.444 107.94H264.874L268.874 124.59C269.804 128.49 270.674 132.38 271.164 135.84H271.264C271.944 132.23 272.864 128.58 273.894 124.49L278.224 107.94H282.554L273.254 140.76H268.824L264.694 123.67C263.778 120.14 263.06 116.561 262.544 112.95H262.454C261.798 116.566 260.951 120.144 259.914 123.67L255.244 140.76H250.804Z" fill="white"/>
<path d="M303.634 125.37H290.874V137.2H305.064V140.76H286.644V107.94H304.364V111.5H290.874V121.87H303.634V125.37Z" fill="white"/>
<path d="M310.594 107.94H314.834V137.2H328.834V140.76H310.594V107.94Z" fill="white"/>
<path d="M354.614 139.68C351.867 140.807 348.912 141.339 345.944 141.24C336.694 141.24 329.734 135.4 329.734 124.64C329.734 114.37 336.734 107.4 346.874 107.4C349.548 107.29 352.211 107.789 354.664 108.86L353.664 112.32C351.585 111.381 349.324 110.917 347.044 110.96C339.354 110.96 334.244 115.88 334.244 124.49C334.244 132.49 338.864 137.69 346.854 137.69C349.227 137.722 351.58 137.259 353.764 136.33L354.614 139.68Z" fill="white"/>
<path d="M386.944 124.01C386.944 135.3 380.074 141.29 371.704 141.29C363.034 141.29 356.954 134.57 356.954 124.64C356.954 114.22 363.424 107.4 372.194 107.4C381.144 107.4 386.944 114.27 386.944 124.01ZM361.474 124.54C361.474 131.54 365.274 137.83 371.944 137.83C378.614 137.83 382.464 131.65 382.464 124.2C382.464 117.68 379.054 110.86 371.994 110.86C364.934 110.86 361.474 117.34 361.474 124.5V124.54Z" fill="white"/>
<path d="M420.064 126.34C419.814 121.77 419.524 116.26 419.574 112.17H419.434C418.314 116.02 416.944 120.11 415.294 124.64L409.494 140.56H406.284L401.064 124.93C399.504 120.31 398.194 116.07 397.264 112.17H397.174C397.074 116.26 396.834 121.77 396.534 126.68L395.664 140.76H391.664L393.944 107.94H399.354L404.954 123.81C406.314 127.81 407.434 131.46 408.264 134.81H408.414C409.234 131.5 410.414 127.9 411.864 123.81L417.714 107.94H423.064L425.064 140.76H420.934L420.064 126.34Z" fill="white"/>
<path d="M448.584 125.37H435.834V137.2H450.064V140.76H431.594V107.94H449.314V111.5H435.834V121.87H448.584V125.37Z" fill="white"/>
<path d="M189.064 103L218.064 80L223.064 86L194.064 107L189.064 103Z" fill="#FCE054"/>
<path d="M486.064 159L515.064 136L520.064 142L491.064 163L486.064 159Z" fill="#FCE054"/>
<path d="M493.784 80.38L516.404 109.67L510.344 114.6L489.724 85.33L493.784 80.38Z" fill="#FCE054"/>
<path d="M196.784 129.38L219.404 158.67L213.344 163.6L192.724 134.33L196.784 129.38Z" fill="#FCE054"/>
</svg>
