<svg xmlns="http://www.w3.org/2000/svg" width="1000" height="1000" viewBox="0 0 1000 1000">
  <g id="faef6d9d-f3d7-4212-82e8-5b13d3d78089" data-name="Auth 404 Page not found">
    <g id="ea4ead54-5a23-459b-97a0-1fe1c83f8d2f" data-name="background">
      <g>
        <path d="M582.74,261.83l.17,0a113.48,113.48,0,0,0-5.54-25.34,13,13,0,0,0,5.37,25.37Z" style="fill: #dbdbdb"/>
        <path d="M571.85,283.5v-7.79a27.62,27.62,0,0,1-5.27-2.41l-6.14,4.77-11.27-14.54,5.51-4.27a27.73,27.73,0,0,1-1.86-10,28.59,28.59,0,0,1,.31-4.16l-6.68-3.67,8.85-16.12,6.42,3.52a27.91,27.91,0,0,1,9.5-5.81v-1c-15.9-30.81-45.65-51.55-79.72-51.55-50.81,0-92,46.11-92,103s41.19,103,92,103c47.8,0,87.07-40.81,91.57-93ZM487,327.5c-20.71,0-37.5-23.95-37.5-53.5s16.79-53.5,37.5-53.5,37.5,23.95,37.5,53.5S507.71,327.5,487,327.5Z" style="fill: #dbdbdb"/>
      </g>
      <g>
        <path d="M780.91,202.82l-35.82-9.7L736,199.61v2.53A23.35,23.35,0,0,1,741.7,205l5.54-4.3L756.77,213,751,217.45a23.6,23.6,0,0,1,1.08,7.07,24.3,24.3,0,0,1-.3,3.74l6.23,3.42-7.49,13.64L744.38,242a23.51,23.51,0,0,1-7.87,4.76v6.78H720.94v-6.59a23.6,23.6,0,0,1-4.45-2l-5.21,4-9.53-12.3,4.66-3.61A23.12,23.12,0,0,1,705,221.58L598.87,297l-7.41,54.27,87.76,19.24-7.1,47.58,46.11,9.72,14.48-42.31,29.22,7.15L776,349l-29.22-7.16Zm-81.28,123L650.4,315.48l61.69-46.87Z" style="fill: #dbdbdb"/>
        <path d="M717.81,222.82a11,11,0,1,0,9.48-9.48A11,11,0,0,0,717.81,222.82Z" style="fill: #dbdbdb"/>
      </g>
      <g>
        <path d="M387.5,355.5l-9-45-29,8-38-138-36,9L221.55,303a19,19,0,0,1,3.13,1.72l4.54-3.52L237,311.29,232.3,315a19.42,19.42,0,0,1,.88,5.79,20.73,20.73,0,0,1-.24,3.07l5.1,2.8L231.9,337.8l-5-2.76a19.51,19.51,0,0,1-6.45,3.91v5.55H207.67v-5.4a19.82,19.82,0,0,1-2.71-1.18L198.5,351.5l20,51,86-26,17,45,45-14-8-44Zm-135-13,31-71,17,56Z" style="fill: #dbdbdb"/>
        <path d="M215.22,329.47a9,9,0,0,0,2-17.37l-7.71,16.21A9,9,0,0,0,215.22,329.47Z" style="fill: #dbdbdb"/>
      </g>
      <g id="eeeab6ed-7ee1-4bcf-839e-d59d889361e2" data-name="background">
        <g id="ac1c2a55-49ac-4ee0-bb42-8a5079098786" data-name="6">
          <path d="M875,725.21l-.23,0a1.49,1.49,0,0,1-1.26-1.7,304.25,304.25,0,0,0,2.6-65.93c-.56-8.07-1.46-16.66-4.22-24.84-2-6-6.07-14.45-13.69-20.16-6.85-5.14-15.61-6.93-22.86-4.67a1.5,1.5,0,0,1-.89-2.87c8.15-2.54,17.94-.57,25.55,5.14,6.52,4.89,11.61,12.36,14.73,21.6,2.87,8.5,3.8,17.32,4.38,25.59a307.71,307.71,0,0,1-2.63,66.58A1.5,1.5,0,0,1,875,725.21Z" style="fill: #dbdbdb"/>
          <path d="M865.22,728.12a20.58,20.58,0,0,1-6.31-1,1.5,1.5,0,0,1,.91-2.86A18.13,18.13,0,0,0,873.63,723a1.5,1.5,0,1,1,1.41,2.65A21,21,0,0,1,865.22,728.12Z" style="fill: #cfcfcf"/>
          <path d="M848,732.49a21.36,21.36,0,0,1-4.49-.5,37.69,37.69,0,0,1-17.17-8.67,1.51,1.51,0,0,1-.13-2.11,118.92,118.92,0,0,0-13.58-93l-.46-.74c-2.41-3.83-5.14-8.17-5-13.07.23-6.9,6.6-12.9,14.2-13.39,6.31-.39,12.89,2.61,18,8.28,4.36,4.8,7.19,10.73,9.92,16.89,4.76,10.7,8.41,19.82,10.75,29.53,5.58,23.16,2.62,47.5-.59,66.12-.35,2-.83,4.81-2.5,6.94C855.14,731.21,852,732.49,848,732.49Zm-18.84-10.7a34.78,34.78,0,0,0,15,7.27c2.28.48,7.87,1.24,10.52-2.15,1.11-1.42,1.52-3.38,1.9-5.61,3.16-18.33,6.09-42.28.63-64.91-2.29-9.49-5.88-18.46-10.57-29-2.73-6.16-5.33-11.62-9.4-16.09-4.46-4.91-10.32-7.65-15.63-7.3s-11.2,4.64-11.4,10.49c-.13,4,2.23,7.74,4.52,11.37l.46.75A122,122,0,0,1,829.19,721.79Z" style="fill: #dbdbdb"/>
          <path d="M816.08,628.19a1.5,1.5,0,0,1-1.5-1.5,15,15,0,0,1,23.11-12.59,1.5,1.5,0,0,1-1.63,2.52,12,12,0,0,0-18.48,10.07A1.5,1.5,0,0,1,816.08,628.19Z" style="fill: #dbdbdb"/>
          <path d="M822.38,639.17a1.59,1.59,0,0,1-.43-.06,1.5,1.5,0,0,1-1-1.87,19.61,19.61,0,0,1,19.37-13.45,1.49,1.49,0,0,1,1.4,1.59,1.52,1.52,0,0,1-1.59,1.4,16.49,16.49,0,0,0-16.3,11.32A1.51,1.51,0,0,1,822.38,639.17Z" style="fill: #dbdbdb"/>
          <path d="M829.68,649.17a1.5,1.5,0,0,1-1.33-2.18,19.44,19.44,0,0,1,17.51-10.49,1.5,1.5,0,0,1-.07,3A16.57,16.57,0,0,0,831,648.34,1.49,1.49,0,0,1,829.68,649.17Z" style="fill: #dbdbdb"/>
          <path d="M846.9,678.45a21.1,21.1,0,0,1-12.38-3.93,1.5,1.5,0,1,1,1.77-2.42,18.25,18.25,0,0,0,18.13,1.71,1.5,1.5,0,1,1,1.29,2.7A20.52,20.52,0,0,1,846.9,678.45Z" style="fill: #dbdbdb"/>
          <path d="M850.6,690.7a25.88,25.88,0,0,1-13.75-3.92,1.5,1.5,0,0,1,1.6-2.54,22.93,22.93,0,0,0,19.28,2.32,1.5,1.5,0,1,1,.95,2.84A25.31,25.31,0,0,1,850.6,690.7Z" style="fill: #dbdbdb"/>
          <path d="M844.49,705.31a23.24,23.24,0,0,1-11.78-3.15,1.49,1.49,0,0,1-.54-2,1.51,1.51,0,0,1,2.06-.53,20.55,20.55,0,0,0,20,.26,1.5,1.5,0,1,1,1.45,2.63A23.26,23.26,0,0,1,844.49,705.31Z" style="fill: #dbdbdb"/>
          <path d="M844.51,717.3A20.3,20.3,0,0,1,832,713.07a1.5,1.5,0,0,1,1.86-2.36A17.7,17.7,0,0,0,853.17,712a1.5,1.5,0,0,1,1.53,2.58A20,20,0,0,1,844.51,717.3Z" style="fill: #dbdbdb"/>
          <path d="M843.54,725.92a16.4,16.4,0,0,1-9.18-2.78,1.5,1.5,0,0,1,1.68-2.48,13.65,13.65,0,0,0,13.51.84,1.5,1.5,0,0,1,1.36,2.68A16.33,16.33,0,0,1,843.54,725.92Z" style="fill: #cfcfcf"/>
          <path d="M869.62,715.43a12.68,12.68,0,0,1-8.27-3,1.5,1.5,0,0,1,2-2.26,9.83,9.83,0,0,0,10.56,1.28,1.49,1.49,0,0,1,2,.65,1.5,1.5,0,0,1-.64,2A12.43,12.43,0,0,1,869.62,715.43Z" style="fill: #dbdbdb"/>
          <path d="M871.36,698.68a22.86,22.86,0,0,1-7.23-1.18,1.5,1.5,0,0,1,1-2.84,19.83,19.83,0,0,0,10.25.62,1.5,1.5,0,1,1,.6,2.94A22.71,22.71,0,0,1,871.36,698.68Z" style="fill: #dbdbdb"/>
          <path d="M869.93,688.73a10.9,10.9,0,0,1-6.65-2.19,1.5,1.5,0,1,1,1.84-2.37,8.08,8.08,0,0,0,9.49.09,1.5,1.5,0,0,1,1.8,2.41A10.89,10.89,0,0,1,869.93,688.73Z" style="fill: #dbdbdb"/>
          <path d="M868.78,663a15.11,15.11,0,0,1-4.27-.62,1.5,1.5,0,0,1,.86-2.87,12.11,12.11,0,0,0,9-.88,1.5,1.5,0,1,1,1.4,2.65A15,15,0,0,1,868.78,663Z" style="fill: #dbdbdb"/>
          <path d="M866.31,651.29a13.14,13.14,0,0,1-5.78-1.31,1.5,1.5,0,0,1,1.33-2.69,10.52,10.52,0,0,0,11.21-1.39,1.5,1.5,0,1,1,1.95,2.28A13.53,13.53,0,0,1,866.31,651.29Z" style="fill: #dbdbdb"/>
          <path d="M867.72,628.74a1.51,1.51,0,0,1-.65-.15,16.17,16.17,0,0,0-12.58-.57,1.49,1.49,0,0,1-1.93-.87,1.5,1.5,0,0,1,.87-1.93,19.22,19.22,0,0,1,15,.67,1.5,1.5,0,0,1-.66,2.85Z" style="fill: #dbdbdb"/>
          <path d="M850.57,621.49a1.51,1.51,0,0,1-1.26-2.32,11.63,11.63,0,0,1,12-4.94,1.5,1.5,0,0,1-.63,2.93,8.68,8.68,0,0,0-8.84,3.65A1.51,1.51,0,0,1,850.57,621.49Z" style="fill: #dbdbdb"/>
        </g>
        <g id="b81a2b10-7aee-4a33-b623-9ab95c4e18cd" data-name="5">
          <path d="M229,518.36a128.25,128.25,0,0,1-19.29-1.45,1.51,1.51,0,0,1-1.26-1.35l-2.88-32.36a1.5,1.5,0,0,1,.37-2.92L269.21,476a1.53,1.53,0,0,1,1.17.45,1.49,1.49,0,0,1,.43,1.17l-2.62,33.73a1.49,1.49,0,0,1-1.05,1.32A130.22,130.22,0,0,1,229,518.36Zm-17.67-4.25a126.92,126.92,0,0,0,53.91-4l2.4-31-59.07,4Z" style="fill: #e6e6e6"/>
          <path d="M236.65,530.5a1.51,1.51,0,0,1-.94-.33,1.47,1.47,0,0,1-.55-1l-.87-9.54a1.5,1.5,0,0,1,3-.27l.73,8a472.1,472.1,0,0,1,49.85-3l-1-22a3.53,3.53,0,0,0-.27-1.5c-.21-.3-.89-.38-1.58-.42l-15.83-1a1.5,1.5,0,0,1-1.41-1.59,1.46,1.46,0,0,1,1.59-1.4l15.84,1a4.78,4.78,0,0,1,3.81,1.64,5.63,5.63,0,0,1,.85,3.14l1.08,23.54a1.5,1.5,0,0,1-.41,1.1,1.51,1.51,0,0,1-1.08.47,469.83,469.83,0,0,0-52.61,3.18Z" style="fill: #e6e6e6"/>
          <path d="M262.05,487.58a2.37,2.37,0,0,1-2.12-1.25,1.49,1.49,0,0,1,.57-2s0-.08,0-.13a1.49,1.49,0,0,1,1.35-1.63,2.33,2.33,0,0,1,2.14,1,2.61,2.61,0,0,1,.28,2.6,2.42,2.42,0,0,1-2.14,1.38Zm.52-2.67Z" style="fill: #e6e6e6"/>
          <path d="M215.93,491.46a2.75,2.75,0,0,1-2.08-1,3.07,3.07,0,0,1-.68-2.5,1.49,1.49,0,0,1,1.75-1.2,1.58,1.58,0,0,1,.58.24,2.91,2.91,0,0,1,2.1-.24,1.5,1.5,0,0,1,1.07,1.14,3.05,3.05,0,0,1-.63,2.52,2.7,2.7,0,0,1-2.09,1Z" style="fill: #e6e6e6"/>
          <path d="M282.4,508.31a2.43,2.43,0,0,1-.38,0,1.5,1.5,0,0,1-1.23-1.73A1.46,1.46,0,0,1,281,506a1.52,1.52,0,0,1,.22-2.45,2.34,2.34,0,0,1,2.2-.06,2.54,2.54,0,0,1,1.41,1.89,2.61,2.61,0,0,1-.77,2.23A2.34,2.34,0,0,1,282.4,508.31Z" style="fill: #e6e6e6"/>
        </g>
        <g id="b188091f-20a6-4f15-9229-6419ee6abd31" data-name="4">
          <path d="M389.21,859.85a78.46,78.46,0,0,1-16.43-1.71c-1.26-.27-5.09-1.09-6-4.22-.72-2.38.54-4.95,3.55-7.24a46,46,0,0,1,41.42-7.07,1.5,1.5,0,1,1-.92,2.85,43,43,0,0,0-38.68,6.61c-.91.69-3,2.45-2.5,4,.29,1,1.53,1.67,3.78,2.16a77.39,77.39,0,0,0,42.07-2.93c3.14-1.15,6.93-3.18,7.15-6.35a6.09,6.09,0,0,0-2.57-4.83,20.86,20.86,0,0,0-6-2.84,1.5,1.5,0,0,1,1-2.83,23.24,23.24,0,0,1,6.85,3.31,8.86,8.86,0,0,1,3.71,7.39c-.18,2.64-1.91,6.34-9.12,9A80.19,80.19,0,0,1,389.21,859.85Z" style="fill: #e6e6e6"/>
          <path d="M365.48,881.49c-3.18,0-5.21-1.2-5.58-3.32s1.19-3.61,1.71-4.13a18.46,18.46,0,0,1,16.07-5.12,1.51,1.51,0,0,1,1.22,1.74,1.68,1.68,0,0,1-.09.32,4.18,4.18,0,0,1,1.24.53,4.42,4.42,0,0,1,2.09,3.56,6,6,0,0,1-3.73,5.3,14.3,14.3,0,0,1-5.58.93l-7,.19Zm9.13-9.83a15.42,15.42,0,0,0-10.87,4.49c-.88.89-.92,1.35-.89,1.5.09.52,1.35.88,2.91.84l7-.19a11.89,11.89,0,0,0,4.44-.67,3,3,0,0,0,1.95-2.48,1.48,1.48,0,0,0-.69-1.11.8.8,0,0,0-.69-.12,1.5,1.5,0,0,1-1.85-2.21C375.47,871.68,375,871.66,374.61,871.66Z" style="fill: #e6e6e6"/>
        </g>
        <g id="a5e3aa80-5283-41ea-9e30-acc0ac2051ef" data-name="1">
          <path d="M110.28,697.29a1.5,1.5,0,0,1,0-3c84.84-1.9,171.32-3.69,255-5.43,128.19-2.67,260.74-5.42,390.84-8.58a1.54,1.54,0,0,1,1.54,1.46,1.51,1.51,0,0,1-1.47,1.54c-130.11,3.16-262.66,5.91-390.85,8.58-83.63,1.74-170.12,3.53-254.95,5.43Z" style="fill: #dbdbdb"/>
          <path d="M880.07,680.47a1.5,1.5,0,0,1,0-3c8-.14,15.21-.25,22.14-.32a1.47,1.47,0,0,1,1.52,1.48,1.51,1.51,0,0,1-1.49,1.52c-6.93.07-14.16.18-22.12.32Z" style="fill: #dbdbdb"/>
          <path d="M804.25,682.28a1.5,1.5,0,0,1,0-3l24.61-.62,1.37,0a1.5,1.5,0,1,1,.08,3l-1.37,0-24.62.62Z" style="fill: #dbdbdb"/>
        </g>
        <g id="fb9543b3-77e7-4795-9d35-5f2dc2a7e78a" data-name="8">
          <path d="M184.21,695.44a1.49,1.49,0,0,1-1.49-1.46,549.7,549.7,0,0,0-5.59-63.43,1.5,1.5,0,1,1,3-.44,549.29,549.29,0,0,1,5.62,63.79,1.5,1.5,0,0,1-1.45,1.54Z" style="fill: #dbdbdb"/>
          <path d="M293.87,632.16c-12.45,0-32-.33-51-.65-26.23-.44-53.36-.9-61.52-.49a1.49,1.49,0,0,1-1.57-1.43,1.51,1.51,0,0,1,1.43-1.57c8.24-.41,35.43.05,61.72.49s53.36.9,61.52.49a1.49,1.49,0,0,1,1.57,1.43,1.51,1.51,0,0,1-1.43,1.57C302.3,632.11,298.6,632.16,293.87,632.16Z" style="fill: #dbdbdb"/>
          <path d="M187.79,642.85a3.94,3.94,0,0,1-3-1.34,1.49,1.49,0,0,1-.36-.94,1.53,1.53,0,0,1-.52-.86,4,4,0,0,1,7.49-2.52,3.84,3.84,0,0,1-3.17,5.64Zm-.93-3.47a1.8,1.8,0,0,1,.2.19,1.18,1.18,0,0,0,1.67-.16,1.18,1.18,0,0,0-.73-1.51,1.18,1.18,0,0,0-1.17,1.21A1.24,1.24,0,0,1,186.86,639.38Z" style="fill: #dbdbdb"/>
          <path d="M298.79,642.85a3.94,3.94,0,0,1-3-1.34,1.49,1.49,0,0,1-.36-.94,1.53,1.53,0,0,1-.52-.86,4,4,0,0,1,7.49-2.52,3.84,3.84,0,0,1-3.17,5.64Zm-.93-3.47a1.8,1.8,0,0,1,.2.19,1.18,1.18,0,0,0,1.67-.16,1,1,0,0,0-1.57-1.15,1,1,0,0,0-.33.85A1.24,1.24,0,0,1,297.86,639.38Z" style="fill: #dbdbdb"/>
          <path d="M202,695l-.75-44.87c0-1.64,1-3,2.35-3a53.3,53.3,0,0,0,8.18-.39c1.43-.18,2.64,1.3,2.53,3.1-.92,14.9-1.11,29.86-.56,44.79" style="fill: #dbdbdb"/>
          <path d="M227,694l-.75-44.87c0-1.64,1-3,2.35-3a53.3,53.3,0,0,0,8.18-.39c1.43-.18,2.64,1.3,2.53,3.1-.92,14.9-1.11,29.86-.56,44.79" style="fill: #dbdbdb"/>
          <path d="M250,694l-.75-44.87c0-1.64,1-3,2.35-3a53.3,53.3,0,0,0,8.18-.39c1.43-.18,2.64,1.3,2.53,3.1-.92,14.9-1.11,29.86-.56,44.79" style="fill: #dbdbdb"/>
          <path d="M275,694l-.75-44.87c0-1.64,1-3,2.35-3a53.3,53.3,0,0,0,8.18-.39c1.43-.18,2.64,1.3,2.53,3.1-.92,14.9-1.11,29.86-.56,44.79" style="fill: #dbdbdb"/>
          <path d="M308.48,696.14a1.5,1.5,0,0,1-1.49-1.38c-1.74-21.24-2.59-42.8-2.53-64.09a1.5,1.5,0,0,1,1.5-1.5h0a1.5,1.5,0,0,1,1.5,1.5c-.06,21.21.79,42.69,2.52,63.84a1.51,1.51,0,0,1-1.38,1.62Z" style="fill: #dbdbdb"/>
        </g>
        <path d="M845.28,805.25A19.3,19.3,0,0,1,831,799.32a1.5,1.5,0,0,1-.37-1.2,1.49,1.49,0,0,1,.65-1.06,21.47,21.47,0,0,1,17.94-2.66,1.5,1.5,0,1,1-.86,2.87,18.55,18.55,0,0,0-13.79,1.32c5.85,4.91,15.5,5,21.24-.11a1.5,1.5,0,0,1,2,2.24A18.88,18.88,0,0,1,845.28,805.25Z" style="fill: #dbdbdb"/>
        <path d="M893.56,691a1.49,1.49,0,0,1-1.5-1.47,1.51,1.51,0,0,1,1.48-1.53l28.89-.44a1.5,1.5,0,1,1,.05,3l-28.9.44Z" style="fill: #dbdbdb"/>
        <path d="M827.65,782.7a24.56,24.56,0,0,1-7.28-1.09,1.5,1.5,0,0,1-.28-2.75l-.58.08a1.5,1.5,0,0,1-.46-3,26.23,26.23,0,0,1,16.31,2.83,1.5,1.5,0,0,1,.78,1.46,1.48,1.48,0,0,1-1,1.29A24.75,24.75,0,0,1,827.65,782.7Zm-6.4-4a22,22,0,0,0,8.23.87,23.11,23.11,0,0,0-8.23-.87Z" style="fill: #dbdbdb"/>
      </g>
      <g id="a7acac5d-1493-4049-81a2-6cef127145fd" data-name="3">
        <path d="M706.59,562.21h0a1.51,1.51,0,0,1-1.49-1.51l.54-87.44a1.5,1.5,0,0,1,1.5-1.49h0a1.49,1.49,0,0,1,1.49,1.51l-.54,87.43A1.5,1.5,0,0,1,706.59,562.21Z" style="fill: #e6e6e6"/>
        <path d="M788.23,477.54c-27,0-54.08-.87-80.89-2.59a1.5,1.5,0,0,1-1.4-1.59,1.52,1.52,0,0,1,1.59-1.4c37.67,2.42,75.89,3.14,113.6,2.15h0a1.5,1.5,0,0,1,0,3Q804.77,477.54,788.23,477.54Z" style="fill: #e6e6e6"/>
        <path d="M821.28,562.52h-.07a1.5,1.5,0,0,1-1.43-1.56c1.25-28,1.54-56.31.86-84.28a1.5,1.5,0,0,1,1.46-1.53h0a1.5,1.5,0,0,1,1.5,1.46c.68,28,.39,56.46-.86,84.48A1.51,1.51,0,0,1,821.28,562.52Z" style="fill: #e6e6e6"/>
        <path d="M821.79,563.18h0l-115.27-.47a1.5,1.5,0,0,1,0-3h0l115.26.47a1.5,1.5,0,0,1,0,3Z" style="fill: #e6e6e6"/>
        <path d="M800,492.19a826.54,826.54,0,0,1-93-5.25,1.5,1.5,0,0,1,.34-3,823.57,823.57,0,0,0,112.89,5,1.47,1.47,0,0,1,1.53,1.46,1.5,1.5,0,0,1-1.46,1.54C813.55,492.1,806.76,492.19,800,492.19Z" style="fill: #e6e6e6"/>
        <path d="M795.56,487.64a3.91,3.91,0,0,1-1.23-.2,4.24,4.24,0,0,1-1.9-1.34,1.48,1.48,0,0,1-.73-.73,4.27,4.27,0,0,1,6.58-5.17,4.06,4.06,0,0,1-.25,6.64A4.37,4.37,0,0,1,795.56,487.64Zm-1.15-4.51a1.17,1.17,0,0,1,.09.42,1.27,1.27,0,0,0,.8,1.05,1.19,1.19,0,0,0,1-.22,1.23,1.23,0,0,0,.58-.91,1.22,1.22,0,0,0-.51-.94,1.26,1.26,0,0,0-1.07-.32,1.28,1.28,0,0,0-.82.74Z" style="fill: #e6e6e6"/>
        <path d="M810.41,488.18a4.74,4.74,0,0,1-3.33-1.44,4.62,4.62,0,0,1-1.38-4.23,1.39,1.39,0,0,1,.27-.59,1.56,1.56,0,0,1,.17-.63,4.65,4.65,0,1,1,5.18,6.79A4,4,0,0,1,810.41,488.18Zm-1.74-5.28a2,2,0,0,1,0,.24,1.69,1.69,0,0,0,.56,1.47,1.66,1.66,0,0,0,1.48.54,1.88,1.88,0,0,0,1-2.69,1.75,1.75,0,0,0-1.48-.54,1.73,1.73,0,0,0-1.38.78A1.32,1.32,0,0,1,808.67,482.9Z" style="fill: #e6e6e6"/>
        <path d="M751.47,503c-12.09,0-24.18-.44-36.19-1.32a1.5,1.5,0,0,1-1.38-1.61,1.49,1.49,0,0,1,1.6-1.38,492.74,492.74,0,0,0,75.58-.28,1.53,1.53,0,0,1,1.62,1.37,1.51,1.51,0,0,1-1.38,1.62C778.1,502.51,764.78,503,751.47,503Z" style="fill: #e6e6e6"/>
        <path d="M775.93,515.35h-.06l-54.11-2.09a1.5,1.5,0,0,1-1.44-1.56,1.53,1.53,0,0,1,1.56-1.44l54.1,2.1a1.5,1.5,0,0,1-.05,3Z" style="fill: #e6e6e6"/>
        <path d="M829.42,449a5.1,5.1,0,0,1-2.69-.66c-2.35-1.45-2.58-4.71-.61-8.51a1.51,1.51,0,0,1,2-.64,1.49,1.49,0,0,1,.63,2c-.92,1.78-1.46,4-.48,4.57a3.82,3.82,0,0,0,2.09.17l26.81-2.29a151.92,151.92,0,0,1,2.42-28.65l-24,2.7a9.5,9.5,0,0,0-3.74.93c-2.89,1.71-2.55,6.53-2.38,8,.08.68.18,1.36.28,2.05.45,3,.92,6.07-.23,9.06a1.5,1.5,0,1,1-2.8-1.07c.86-2.26.48-4.83.07-7.55-.11-.71-.22-1.43-.3-2.13-.61-5.12.78-9.09,3.83-10.9a12.07,12.07,0,0,1,4.93-1.33l26-2.93a1.5,1.5,0,0,1,1.64,1.78A149.16,149.16,0,0,0,860.22,445a1.52,1.52,0,0,1-1.37,1.53L830.64,449C830.29,449,829.87,449,829.42,449Z" style="fill: #e6e6e6"/>
        <path d="M840.25,440.44a7.68,7.68,0,0,1-6.6-3.58,8.62,8.62,0,0,1-.58-6.93,17.59,17.59,0,0,1,3.18-5.55,1.46,1.46,0,0,1,1-.57,10.86,10.86,0,0,1,10.83.83,1.47,1.47,0,0,1,.56.76,13.23,13.23,0,0,1,0,8.7,9.71,9.71,0,0,1-6.55,6.11A7.5,7.5,0,0,1,840.25,440.44Zm-2-13.77a14.25,14.25,0,0,0-2.34,4.16,5.61,5.61,0,0,0,.3,4.5,4.8,4.8,0,0,0,5.18,2,6.78,6.78,0,0,0,4.46-4.24,10.07,10.07,0,0,0,.08-6.23,7.91,7.91,0,0,0-7.66-.17Z" style="fill: #e6e6e6"/>
        <path d="M828.28,513.54c-1.71,0-3.36-.12-4.82-.23a1.5,1.5,0,1,1,.23-3c5,.37,9.4.5,12.87-1.64,2.64-1.63,4.62-4.61,5.6-8.41a43.92,43.92,0,0,0,.9-11.06c0-6.94-.37-13.54-4.39-17.95-2.57-2.81-6.29-4.32-10.23-5.92-4.81-1.95-9.79-4-12.56-8.61-4-6.66-.86-15.4,4.47-20,5.93-5.14,14-6.44,19.57-7a1.5,1.5,0,0,1,.28,3c-8.18.78-13.87,2.76-17.89,6.24-4.39,3.8-7,10.9-3.86,16.21,2.26,3.78,6.56,5.52,11.12,7.37,4.07,1.66,8.29,3.37,11.31,6.68,4.75,5.19,5.16,12.71,5.18,20a46.48,46.48,0,0,1-1,11.81c-1.18,4.55-3.64,8.18-6.93,10.21A18.56,18.56,0,0,1,828.28,513.54Z" style="fill: #e6e6e6"/>
        <path d="M778.42,550.43h0a1.49,1.49,0,0,1-1.45-1.55l.79-25.22a1.49,1.49,0,0,1,1.49-1.45h0a1.48,1.48,0,0,1,1.45,1.54L779.92,549A1.5,1.5,0,0,1,778.42,550.43Z" style="fill: #e6e6e6"/>
        <path d="M779.49,524.71a1.5,1.5,0,0,1-.15-3,164.7,164.7,0,0,1,26.37-.5,1.5,1.5,0,0,1,1.41,1.59,1.47,1.47,0,0,1-1.59,1.41,159.88,159.88,0,0,0-25.89.49Z" style="fill: #e6e6e6"/>
        <path d="M803.2,551.34h-.12a1.49,1.49,0,0,1-1.38-1.61l2.15-27.49a1.5,1.5,0,1,1,3,.23L804.69,550A1.49,1.49,0,0,1,803.2,551.34Z" style="fill: #e6e6e6"/>
        <path d="M786.16,551.06q-3.4,0-6.79-.18a1.5,1.5,0,1,1,.16-3,131.33,131.33,0,0,0,23.12-.87,1.5,1.5,0,0,1,.38,3A135.73,135.73,0,0,1,786.16,551.06Z" style="fill: #e6e6e6"/>
      </g>
    </g>
    <g id="a1bea3d8-3eac-4e6c-b708-cea2b0072d64" data-name="robot">
      <g>
        <path d="M807,673a119.24,119.24,0,0,0-43-16c-25-4,0-2,0-2l-123-1s-27,52-9,141S807,673,807,673Z" style="fill: #1d1d1b"/>
        <g>
          <g>
            <path d="M807.51,816c10.74-80.17-2-141.43-2-141.43L655.19,667c-21.07,82,0,149,0,149Z" style="fill: #fff"/>
            <path d="M655.19,667l150.36,7.57s12.7,61.26,2,141.43H655.19s-21.07-67,0-149m0-2a2,2,0,0,0-1.93,1.5,310.28,310.28,0,0,0-8,106c2.63,26.9,7.77,43.46,8,44.15a2,2,0,0,0,1.9,1.4H807.51a2,2,0,0,0,2-1.73c10.66-79.59-1.86-141.49-2-142.1a2,2,0,0,0-1.85-1.6L655.29,665Z" style="fill: #1d1d1b"/>
          </g>
          <path d="M655.19,816H807.51c10.74-80.17-2-141.43-2-141.43l-7.86-.39c1.36,21.22,6.92,116.83-1.77,127.52-7.62,9.38-102.35,4.15-143.94,1.38C653.74,811.38,655.19,816,655.19,816Z" style="fill: #ababab"/>
          <g>
            <path d="M796.23,804.6h-.1a1,1,0,0,1-.9-1.09l1.09-11.38a1,1,0,0,1,1.09-.9,1,1,0,0,1,.9,1.09l-1.09,11.38A1,1,0,0,1,796.23,804.6Z" style="fill: #1d1d1b"/>
            <path d="M799.26,808.22h-.13a1,1,0,0,1-.86-1.11l1.21-9.82a1,1,0,0,1,2,.25l-1.22,9.81A1,1,0,0,1,799.26,808.22Z" style="fill: #1d1d1b"/>
            <path d="M656.83,691.22h-.12a1,1,0,0,1-.88-1.11,37.42,37.42,0,0,1,5.43-15.41,1,1,0,0,1,1.7,1.06,35.31,35.31,0,0,0-5.14,14.59A1,1,0,0,1,656.83,691.22Z" style="fill: #1d1d1b"/>
            <path d="M661.77,693.37a1,1,0,0,1-.34-.06,1,1,0,0,1-.6-1.28l4.51-12.48a1,1,0,0,1,1.28-.6,1,1,0,0,1,.6,1.28l-4.51,12.48A1,1,0,0,1,661.77,693.37Z" style="fill: #1d1d1b"/>
          </g>
          <path d="M752.27,726.43h-.17a1,1,0,0,1-.82-1.16c1-5.9,1-12,.94-17.9L752,671.79a1,1,0,1,1,2,0l.25,35.56c0,6,.09,12.19-1,18.26A1,1,0,0,1,752.27,726.43Z" style="fill: #1d1d1b"/>
          <path d="M771.4,727.45c-1.23,0-2.44-.09-3.59-.17l-10.53-.75a9.27,9.27,0,0,0-4,.29,1,1,0,0,1-.76-1.85,10.74,10.74,0,0,1,4.91-.43l10.54.75a22.6,22.6,0,0,0,7.12-.24,1,1,0,1,1,.49,1.94A16.77,16.77,0,0,1,771.4,727.45Z" style="fill: #1d1d1b"/>
          <path d="M776.51,727.26a1,1,0,0,1-1-.9,277.43,277.43,0,0,1,0-53.29,1,1,0,1,1,2,.19,275,275,0,0,0,0,52.9,1,1,0,0,1-.9,1.09Z" style="fill: #1d1d1b"/>
          <path d="M756.73,723.86a1,1,0,0,1-.89-.53,1.91,1.91,0,0,1-.69-.55,1.82,1.82,0,0,1-.27-1.8,2.61,2.61,0,0,1,2.46-1.41,2.33,2.33,0,0,1,2.08.94,2,2,0,0,1-.55,2.65,3.84,3.84,0,0,1-2,.7Zm.41-2.27a1,1,0,0,1,.22.14,1.13,1.13,0,0,0,.27-.13.69.69,0,0,0-.27,0Z" style="fill: #1d1d1b"/>
          <path d="M771.72,724.24a2.07,2.07,0,0,1-.89-.2,2.18,2.18,0,0,1-1.27-.49,1.91,1.91,0,0,1-.72-1.76,2.54,2.54,0,0,1,2.66-1.89,2.83,2.83,0,0,1,1.94,1,2,2,0,0,1-.73,3.17A2.33,2.33,0,0,1,771.72,724.24Zm-.48-2.25a1,1,0,0,1,.62.22.41.41,0,0,0,.12-.09,1.78,1.78,0,0,0-.59-.22.87.87,0,0,0-.5.14h0A1,1,0,0,1,771.24,722Z" style="fill: #1d1d1b"/>
          <path d="M772.16,702a1,1,0,0,1-1-.91,97.26,97.26,0,0,1,1.2-26.38,1,1,0,1,1,2,.36,95.3,95.3,0,0,0-1.18,25.84,1,1,0,0,1-.91,1.09Z" style="fill: #1d1d1b"/>
        </g>
      </g>
      <g>
        <g>
          <path d="M200.74,726.87s20.86-19.74,85.95-11.27,104.2-28.15,123.56-74.09S388.05,625,388.05,625s-19.8,70.14-97.36,68.75-101,16.2-101,16.2C198,713,200.31,717.44,200.74,726.87Z" style="fill: #fff"/>
          <path d="M409.24,615.74c6.28,0,9.49,5.65,1,25.77-17.47,41.45-51,75.31-105.23,75.31a141.41,141.41,0,0,1-18.33-1.23,237.19,237.19,0,0,0-30.46-2.1c-41.34,0-55.49,13.38-55.49,13.38C200.31,717.44,198,713,189.69,710c0,0,21.69-16.27,92.39-16.27q4.2,0,8.61.07c.76,0,1.51,0,2.27,0,75.67,0,95.09-68.77,95.09-68.77s13.13-9.3,21.19-9.3m0-2c-8.6,0-21.79,9.28-22.35,9.67a2,2,0,0,0-.76,1.09,103.32,103.32,0,0,1-18.89,33.77c-18.59,22.26-43.58,33.54-74.28,33.54-.74,0-1.48,0-2.23,0-2.91,0-5.82-.07-8.65-.07-70.55,0-92.68,16-93.59,16.67a2,2,0,0,0-.78,1.89,2,2,0,0,0,1.3,1.59c7.13,2.6,9.32,6,9.73,15.09a2,2,0,0,0,1.25,1.77,2.12,2.12,0,0,0,.75.14,2,2,0,0,0,1.37-.55c.13-.12,14.29-12.83,54.12-12.83a235.74,235.74,0,0,1,30.2,2.09A145.32,145.32,0,0,0,305,718.82c25.86,0,48.61-7.58,67.63-22.54,16.56-13,29.83-31.2,39.44-54,5.39-12.8,6.64-21.1,3.8-25.37-1-1.45-2.9-3.18-6.65-3.18Z" style="fill: #1d1d1b"/>
        </g>
        <path d="M400,654s-63,62-111,56c-38.95-4.87-71.31,1.46-89.07,10.43a34.62,34.62,0,0,1,.81,6.44s20.86-19.74,85.95-11.28c57.12,7.43,94.24-19.86,115.55-57.7Z" style="fill: #ababab"/>
        <g>
          <path d="M216.44,718.62a1,1,0,0,1-1-.8,18.76,18.76,0,0,0-10.29-13A1,1,0,1,1,206,703a20.79,20.79,0,0,1,11.41,14.39,1,1,0,0,1-.78,1.18Z" style="fill: #1d1d1b"/>
          <path d="M223.26,716.93a1,1,0,0,1-1-.79,20.67,20.67,0,0,0-5.81-10.37,1,1,0,0,1,1.38-1.44,22.51,22.51,0,0,1,6.38,11.39,1,1,0,0,1-.77,1.19Z" style="fill: #1d1d1b"/>
          <path d="M238.67,713.93h0a1,1,0,0,1-1-1A16,16,0,0,0,233,701.55a1,1,0,1,1,1.41-1.42A18,18,0,0,1,239.67,713,1,1,0,0,1,238.67,713.93Z" style="fill: #1d1d1b"/>
          <path d="M247,714.32a1.13,1.13,0,0,1-.36-.06A1,1,0,0,1,246,713a14.33,14.33,0,0,0-2.46-14,1,1,0,0,1,1.52-1.3,16.15,16.15,0,0,1,2.81,16A1,1,0,0,1,247,714.32Z" style="fill: #1d1d1b"/>
          <path d="M273.38,714.25a1.14,1.14,0,0,1-.4-.08,1,1,0,0,1-.51-1.32,10.15,10.15,0,0,0-2.65-11.41,1,1,0,1,1,1.29-1.52,12.05,12.05,0,0,1,3.19,13.73A1,1,0,0,1,273.38,714.25Z" style="fill: #1d1d1b"/>
          <path d="M281.13,715.21a1.06,1.06,0,0,1-.42-.09,1,1,0,0,1-.48-1.33,15.43,15.43,0,0,0-2-16,1,1,0,1,1,1.54-1.27,17.45,17.45,0,0,1,2.3,18.1A1,1,0,0,1,281.13,715.21Z" style="fill: #1d1d1b"/>
          <path d="M299.44,716.11a1,1,0,0,1-.34-.06,1,1,0,0,1-.6-1.28A19.05,19.05,0,0,0,296,697.34a1,1,0,1,1,1.61-1.17,21.06,21.06,0,0,1,2.75,19.28A1,1,0,0,1,299.44,716.11Z" style="fill: #1d1d1b"/>
          <path d="M318.64,716.59a.93.93,0,0,1-.4-.09,1,1,0,0,1-.52-1.31,24.81,24.81,0,0,0-.19-19.91,1,1,0,1,1,1.82-.84,26.84,26.84,0,0,1,.2,21.55A1,1,0,0,1,318.64,716.59Z" style="fill: #1d1d1b"/>
          <path d="M344,708.89h-.12a1,1,0,0,1-.87-1.11c.43-3.52.88-7.15.27-10.64-.65-3.76-2.54-6.78-5.17-8.29a1,1,0,1,1,1-1.73c3.16,1.8,5.4,5.33,6.15,9.68.66,3.78.19,7.57-.26,11.22A1,1,0,0,1,344,708.89Z" style="fill: #1d1d1b"/>
          <path d="M360.87,700.72a1,1,0,0,1-.62-.22,1,1,0,0,1-.15-1.4c1.94-2.42.6-6.22-.78-9.26l-3.65-8a1,1,0,1,1,1.82-.83l3.65,8c1.62,3.56,3.14,8.07.51,11.34A1,1,0,0,1,360.87,700.72Z" style="fill: #1d1d1b"/>
          <path d="M377.84,688.35h-.09a1,1,0,0,1-.9-1.09A24.69,24.69,0,0,0,368,666.18a1,1,0,1,1,1.26-1.56,26.75,26.75,0,0,1,9.58,22.82A1,1,0,0,1,377.84,688.35Z" style="fill: #1d1d1b"/>
          <path d="M391.24,674.51a1,1,0,0,1-1-.73A30.12,30.12,0,0,0,375,655.19a1,1,0,0,1-.45-1.35,1,1,0,0,1,1.35-.44,32.14,32.14,0,0,1,16.33,19.84,1,1,0,0,1-.69,1.23A.84.84,0,0,1,391.24,674.51Z" style="fill: #1d1d1b"/>
          <path d="M402,657.76a1,1,0,0,1-1-.79,23.71,23.71,0,0,0-8.71-13.84,1,1,0,0,1-.19-1.4,1,1,0,0,1,1.4-.19,25.76,25.76,0,0,1,9.46,15,1,1,0,0,1-.78,1.18A.71.71,0,0,1,402,657.76Z" style="fill: #1d1d1b"/>
        </g>
        <g>
          <path d="M199.14,733.53s-20.57,14.58-18.25,53.67c0,0-13,1.95-19.38-6a121.63,121.63,0,0,1,22.43-42.92s-26.76,9.9-38,40.28c0,0-9.34,2.93-14.85-9.82,0,0,14.21-21,46.6-36,0,0-34.21,4.4-52.18,22.11a16.7,16.7,0,0,1-9.27-16.09s29.89-17.22,60.61-20.23c0,0-.64,1.67,17.46-4.54S199.14,733.53,199.14,733.53Z" style="fill: #fff"/>
          <path d="M199.08,713c10.6,0,.06,20.54.06,20.54s-20.57,14.58-18.25,53.67a26.74,26.74,0,0,1-3.54.21c-4.3,0-11.54-.88-15.84-6.2a121.63,121.63,0,0,1,22.43-42.92s-26.76,9.9-38,40.28a8.72,8.72,0,0,1-2.37.29c-3.13,0-8.7-1.37-12.48-10.11,0,0,14.21-21,46.6-36,0,0-34.21,4.4-52.18,22.11a16.7,16.7,0,0,1-9.27-16.09s29.89-17.22,60.61-20.23c0,0-.08.2.6.2,1.25,0,5.1-.7,16.86-4.74a15.13,15.13,0,0,1,4.8-1m-22.26,5.51h0M199.09,711h0a17.09,17.09,0,0,0-5.45,1.08c-11.3,3.88-14.89,4.53-15.95,4.62a2,2,0,0,0-.85-.19h-.23c-30.79,3-60.15,19.77-61.39,20.48a2,2,0,0,0-1,1.66,18.58,18.58,0,0,0,10.49,18,2,2,0,0,0,.78.16,2,2,0,0,0,1.41-.58c10.14-10,25.84-15.66,37.15-18.65-23.53,13.87-34.13,29.29-34.64,30a2,2,0,0,0-.17,1.91c4.25,9.85,10.79,11.32,14.31,11.32a10.68,10.68,0,0,0,3-.38,2,2,0,0,0,1.27-1.21A69.79,69.79,0,0,1,177,744.11a123.11,123.11,0,0,0-17.41,36.61,2,2,0,0,0,.39,1.75c4.88,6,13,6.94,17.39,6.94a30.59,30.59,0,0,0,3.83-.23,2,2,0,0,0,1.7-2.1c-1.15-19.56,3.65-32.64,7.88-40.17,4.58-8.13,9.49-11.72,9.54-11.75a2,2,0,0,0,.62-.72c1.25-2.43,7.31-14.87,3.8-20.61a6.14,6.14,0,0,0-5.63-2.84Z" style="fill: #1d1d1b"/>
        </g>
        <g>
          <path d="M202.31,711.75s-37.16-25.1-55.26,13.47c0,0,7.75,8.94,13.68,6.56,0,0,1.32-20.95,21.26-12.11" style="fill: #fff"/>
          <path d="M158.59,733.18c-5.89,0-12-7-12.3-7.31a1,1,0,0,1-.14-1.08c5.31-11.31,12.77-18.36,22.18-20.95,16.88-4.66,33.83,6.6,34.54,7.08a1,1,0,0,1,.27,1.39,1,1,0,0,1-1.39.27c-.17-.12-16.91-11.23-32.9-6.81-8.65,2.39-15.58,8.87-20.61,19.27,1.59,1.67,7.17,7.11,11.56,6,.26-2.27,1.54-9.52,7-12.86,4-2.42,9.22-2.22,15.54.59a1,1,0,1,1-.81,1.83c-5.7-2.53-10.3-2.77-13.69-.71-5.56,3.37-6.16,11.87-6.16,12a1,1,0,0,1-.63.86A6.66,6.66,0,0,1,158.59,733.18Z" style="fill: #1d1d1b"/>
        </g>
      </g>
      <g>
        <path d="M391.74,645.7A475.85,475.85,0,0,0,321.37,606s42.4,66.22,41.5,166c0,0,31.58-21.19,45.11-41.5S391.74,645.7,391.74,645.7Z" style="fill: #fff"/>
        <path d="M362.87,773a1,1,0,0,1-.48-.12,1,1,0,0,1-.52-.89c.89-98.3-40.92-164.79-41.34-165.45a1,1,0,0,1,1.25-1.45,482.7,482.7,0,0,1,70.54,39.79,1.08,1.08,0,0,1,.33.4c1.22,2.65,29.85,65.24,16.16,85.77-13.49,20.24-45.07,41.57-45.38,41.78A1,1,0,0,1,362.87,773Zm-39-164.74c7.81,13.56,40.3,75.26,40,161.83,6.53-4.57,31.72-22.81,43.27-40.14,12.66-19-14.24-79.25-16.21-83.59A481,481,0,0,0,323.88,608.26Z" style="fill: #1d1d1b"/>
      </g>
      <g>
        <path d="M378,602s34,6,52-2c0,0,108,21,157,6l24,13L488,664Z"/>
        <path d="M488,665a1,1,0,0,1-.49-.13l-110-62a1,1,0,0,1,.66-1.85c.34.05,33.91,5.85,51.42-1.93a1,1,0,0,1,.6-.07c1.08.21,108.32,20.78,156.52,6a1,1,0,0,1,.77.08l24,13a1,1,0,0,1,.52,1,1,1,0,0,1-.66.87l-123,45A1,1,0,0,1,488,665ZM383.2,603.78,488.09,662.9l120.48-44.08-21.68-11.74c-12.83,3.85-29.69,5.27-47.58,5.27-48.43,0-104.49-10.42-109.19-11.31C416.15,607.08,393.5,605.12,383.2,603.78Z" style="fill: #1d1d1b"/>
      </g>
      <g>
        <path d="M378,602s93,31,233,17c0,0-43,84-50,135l-151,3S405,676,378,602Z" style="fill: #fff"/>
        <path d="M378,602s61.9,20.63,160.7,20.63c22.32,0,46.5-1,72.3-3.63,0,0-43,84-50,135l-151,3s-5-81-32-155m233,17h0M378,600a2,2,0,0,0-1.43.61,2,2,0,0,0-.45,2.08C402.71,675.55,408,756.32,408,757.12a2,2,0,0,0,2,1.88h0l151-3a2,2,0,0,0,1.94-1.73C569.76,704.86,611.23,623,612.74,620a2,2,0,0,0,.26-1,2,2,0,0,0-2-2h-.24c-24,2.4-48.26,3.62-72.07,3.62-97.29,0-159.45-20.32-160.07-20.53a2,2,0,0,0-.63-.1Z" style="fill: #1d1d1b"/>
      </g>
      <path d="M492.08,621.07c27,7.83,70.44,18.91,107.54,21.54C606.23,628.31,611,619,611,619A713.85,713.85,0,0,1,492.08,621.07Z" style="fill: #ababab"/>
      <g>
        <path d="M505.41,726c0-17.14,7.22-74.88,7.22-74.88-65,12.63-120.89-6.32-120.89-6.32s13.2,65.89,15.33,84.6l.82.05C455.62,731.08,505.41,726,505.41,726Z" style="fill: #ababab"/>
        <path d="M427.6,730.76c-6.54,0-13.17-.1-19.74-.32l-.54,0-.31,0a1,1,0,0,1-.93-.88C404,711.05,390.89,645.65,390.76,645a1,1,0,0,1,1.3-1.14c.56.19,56.45,18.71,120.38,6.28a1,1,0,0,1,1.18,1.1c-.07.58-7.21,57.88-7.21,74.76a1,1,0,0,1-.9,1C505.09,727,468,730.76,427.6,730.76ZM408,728.44c43.63,1.5,89.53-2.69,96.45-3.36.21-16.45,6-64.05,7.05-72.73-57.79,10.86-108.78-3.17-118.42-6.1C395.08,656.44,405.79,710.64,408,728.44ZM505.41,726h0Z"/>
      </g>
      <g>
        <g>
          <path d="M427.66,751.08,305.51,808.4,347,845.09,447.17,755.5C443.34,743.89,436,745.75,427.66,751.08Z" style="fill: #fff"/>
          <path d="M438.3,746.9c3.71,0,6.81,2.35,8.87,8.6L347,845.09,305.51,808.4l122.15-57.32c3.83-2.46,7.46-4.18,10.64-4.18m0-2c-3.2,0-6.89,1.41-11.61,4.42l-122,57.27a2,2,0,0,0-1.13,1.53,2,2,0,0,0,.66,1.78l41.51,36.69a2,2,0,0,0,2.66,0L448.5,757a2,2,0,0,0,.57-2.12c-2.18-6.61-5.81-10-10.77-10Z" style="fill: #1d1d1b"/>
        </g>
        <path d="M347,845.09,447.17,755.5a20,20,0,0,0-2.15-4.64L332.17,832Z" style="fill: #ababab"/>
        <path d="M438.51,760.45a1,1,0,0,1-1-1,8.11,8.11,0,0,0-3.17-6.57,6,6,0,0,0-6.38-.15,1,1,0,0,1-1-1.73,8,8,0,0,1,8.52.23,10,10,0,0,1,4,8.21,1,1,0,0,1-1,1Z" style="fill: #1d1d1b"/>
        <path d="M430.35,770.07h-.12a1,1,0,0,1-.88-1.11,11.44,11.44,0,0,0-2.54-8.71,7.85,7.85,0,0,0-7.32-2.55,1,1,0,0,1-1.17-.78,1,1,0,0,1,.78-1.18,9.86,9.86,0,0,1,9.2,3.18,13.31,13.31,0,0,1,3,10.26A1,1,0,0,1,430.35,770.07Z" style="fill: #1d1d1b"/>
        <path d="M416.69,780.92a.77.77,0,0,1-.25,0,1,1,0,0,1-.72-1.22,13.4,13.4,0,0,0-1.71-10.8,9,9,0,0,0-8.41-3.93,1,1,0,0,1-1.11-.87,1,1,0,0,1,.86-1.12,11,11,0,0,1,10.29,4.77,15.43,15.43,0,0,1,2,12.46A1,1,0,0,1,416.69,780.92Z" style="fill: #1d1d1b"/>
        <path d="M396.81,798.77h-.12a1,1,0,0,1-.87-1.11A23.67,23.67,0,0,0,393,783.17a17.18,17.18,0,0,0-10.28-8.08,1,1,0,0,1-.72-1.21,1,1,0,0,1,1.22-.72,19.18,19.18,0,0,1,11.51,9,25.66,25.66,0,0,1,3.09,15.73A1,1,0,0,1,396.81,798.77Z" style="fill: #1d1d1b"/>
        <path d="M369.46,825.23a1.26,1.26,0,0,1-.27,0,1,1,0,0,1-.7-1.23,48.73,48.73,0,0,0-.1-26.62c-1.17-3.93-2.67-6.69-4.59-8.43s-5-2.76-7.57-1.2a1,1,0,1,1-1-1.71c3-1.81,7-1.24,9.95,1.43,2.19,2,3.88,5.05,5.15,9.34a50.78,50.78,0,0,1,.12,27.72A1,1,0,0,1,369.46,825.23Z" style="fill: #1d1d1b"/>
        <g>
          <path d="M261.65,847.69l77.64,6.08L358,836s-.62-98-70.7-99C229.56,736.1,261.65,847.69,261.65,847.69Z"/>
          <path d="M339.29,854.77h-.08l-77.64-6.09a1,1,0,0,1-.88-.72c-.85-2.94-20.48-72.39,1-100.53,5.95-7.77,14.55-11.61,25.55-11.47,29.11.43,50.74,17.91,62.56,50.54C358.7,811,359,835.7,359,836a1,1,0,0,1-.31.73L340,854.5A1,1,0,0,1,339.29,854.77Zm-76.87-8,76.5,6,18-17.2c-.08-3.37-.89-26-9-48.4-11.68-32.21-32.1-48.76-60.69-49.18-10.32-.16-18.39,3.44-23.93,10.69C243.5,774.56,260.43,839.45,262.42,846.74Z" style="fill: #1d1d1b"/>
        </g>
        <path d="M338.35,847.93a1,1,0,0,1-1-.84A405.29,405.29,0,0,0,323,787.6c-3.32-10.28-7.54-22-15.44-31.17-8.35-9.65-20-14.57-30.32-12.83a1,1,0,0,1-.33-2c11-1.85,23.36,3.33,32.16,13.5,8.15,9.43,12.45,21.4,15.84,31.87a406.35,406.35,0,0,1,14.44,59.78,1,1,0,0,1-.82,1.14Z" style="fill: #fff"/>
        <path d="M258.07,779.67a1,1,0,0,1-.69-.28,1,1,0,0,1,0-1.41,164.34,164.34,0,0,0,21.79-28,1,1,0,0,1,1.38-.32,1,1,0,0,1,.33,1.37,166.56,166.56,0,0,1-22.06,28.32A1,1,0,0,1,258.07,779.67Z" style="fill: #fff"/>
        <path d="M261.68,791.29a1,1,0,0,1-.56-.17,1,1,0,0,1-.28-1.39,330.56,330.56,0,0,1,27.3-35.63,1,1,0,0,1,1.41-.09,1,1,0,0,1,.09,1.41,330.16,330.16,0,0,0-27.13,35.42A1,1,0,0,1,261.68,791.29Z" style="fill: #fff"/>
        <path d="M257.08,816.23a1,1,0,0,1-.79-1.61l40.2-52.54a1,1,0,0,1,1.59,1.21l-40.2,52.55A1,1,0,0,1,257.08,816.23Z" style="fill: #fff"/>
        <path d="M266.73,826.71a1,1,0,0,1-.64-.23,1,1,0,0,1-.13-1.41,385.59,385.59,0,0,0,36.58-52.59,1,1,0,0,1,1.36-.36,1,1,0,0,1,.37,1.37,387.78,387.78,0,0,1-36.77,52.86A1,1,0,0,1,266.73,826.71Z" style="fill: #fff"/>
        <path d="M272,837.94a1,1,0,0,1-.68-.27,1,1,0,0,1-.05-1.42,371.68,371.68,0,0,0,36-44.93,1,1,0,0,1,1.38-.26,1,1,0,0,1,.27,1.39,373.68,373.68,0,0,1-36.23,45.17A1,1,0,0,1,272,837.94Z" style="fill: #fff"/>
        <path d="M286.69,837.63a1,1,0,0,1-.53-.15,1,1,0,0,1-.31-1.38,232.15,232.15,0,0,1,28.41-36.49,1,1,0,0,1,1.41,0,1,1,0,0,1,0,1.42,229.79,229.79,0,0,0-28.17,36.17A1,1,0,0,1,286.69,837.63Z" style="fill: #fff"/>
        <path d="M306.32,832.08a1,1,0,0,1-.75-1.66l11.15-12.71a1,1,0,0,1,1.42-.09,1,1,0,0,1,.09,1.41l-11.16,12.71A1,1,0,0,1,306.32,832.08Z" style="fill: #fff"/>
        <path d="M326.17,848.2a6,6,0,0,1-4.59-2.3,6.41,6.41,0,0,1-1.39-5.55,1,1,0,0,1,1.21-.73,1,1,0,0,1,.56.37,5.05,5.05,0,0,1,3.82-2.56,5.22,5.22,0,0,1,5.3,2.12,5.37,5.37,0,0,1,.05,5.39,5.75,5.75,0,0,1-4.71,3.25ZM322,842a4.65,4.65,0,0,0,1.1,2.66,3.91,3.91,0,0,0,3.2,1.57,3.75,3.75,0,0,0,3-2.16,3.41,3.41,0,0,0,0-3.4,3.28,3.28,0,0,0-3.3-1.22,3,3,0,0,0-2.54,2,1,1,0,0,1-1.22.72A1,1,0,0,1,322,842Z" style="fill: #fff"/>
        <path d="M267.48,844.45a4.75,4.75,0,0,1-2.29-.58,1,1,0,0,1,1-1.75A2.94,2.94,0,0,0,269,837a3.52,3.52,0,0,0-4.63,3.8,1,1,0,0,1-1.92.56,5.39,5.39,0,1,1,5,3.11Z" style="fill: #fff"/>
      </g>
      <g>
        <g>
          <path d="M545.26,751.08,667.41,808.4,625.9,845.09,525.75,755.5C529.58,743.89,537,745.75,545.26,751.08Z" style="fill: #fff"/>
          <path d="M534.62,746.9c3.18,0,6.81,1.72,10.64,4.18L667.41,808.4,625.9,845.09,525.75,755.5c2.06-6.25,5.16-8.6,8.87-8.6m0-2h0c-5,0-8.59,3.36-10.77,10a2,2,0,0,0,.57,2.12l100.14,89.59a2,2,0,0,0,2.66,0l41.51-36.69a2,2,0,0,0,.66-1.78,2,2,0,0,0-1.13-1.53l-122-57.27c-4.72-3-8.42-4.42-11.61-4.42Z" style="fill: #1d1d1b"/>
        </g>
        <path d="M647.36,826.12,527.19,752.05a22.14,22.14,0,0,0-1.44,3.45L625.9,845.09Z" style="fill: #ababab"/>
        <path d="M534.4,760.45h0a1,1,0,0,1-1-1,10.07,10.07,0,0,1,4.05-8.21A8,8,0,0,1,546,751a1,1,0,0,1-1,1.73,6,6,0,0,0-6.38.15,8.15,8.15,0,0,0-3.18,6.57A1,1,0,0,1,534.4,760.45Z" style="fill: #1d1d1b"/>
        <path d="M542.57,770.07a1,1,0,0,1-1-.89,13.52,13.52,0,0,1,3-10.26,9.87,9.87,0,0,1,9.21-3.18,1,1,0,0,1,.78,1.18,1,1,0,0,1-1.17.78,7.88,7.88,0,0,0-7.33,2.55,11.44,11.44,0,0,0-2.53,8.71,1,1,0,0,1-.89,1.11Z" style="fill: #1d1d1b"/>
        <path d="M556.22,780.92a1,1,0,0,1-1-.75,15.47,15.47,0,0,1,2-12.46,11,11,0,0,1,10.3-4.77,1,1,0,0,1-.26,2,9,9,0,0,0-8.4,3.93,13.4,13.4,0,0,0-1.72,10.8,1,1,0,0,1-.71,1.22A.78.78,0,0,1,556.22,780.92Z" style="fill: #1d1d1b"/>
        <path d="M576.11,798.77a1,1,0,0,1-1-.88,25.75,25.75,0,0,1,3.1-15.73,19.15,19.15,0,0,1,11.51-9,1,1,0,1,1,.5,1.93,17.15,17.15,0,0,0-10.28,8.08,23.67,23.67,0,0,0-2.84,14.49,1,1,0,0,1-.88,1.11Z" style="fill: #1d1d1b"/>
        <path d="M603.46,825.23a1,1,0,0,1-1-.74,50.68,50.68,0,0,1,.11-27.72c1.28-4.29,3-7.35,5.16-9.34,2.93-2.67,6.93-3.24,10-1.43a1,1,0,1,1-1,1.71c-2.6-1.56-5.68-.52-7.57,1.2s-3.42,4.5-4.59,8.43a48.82,48.82,0,0,0-.11,26.62,1,1,0,0,1-.69,1.23A1.26,1.26,0,0,1,603.46,825.23Z" style="fill: #1d1d1b"/>
        <g>
          <path d="M711.27,847.69l-77.64,6.08L615,836s.62-98,70.7-99C743.36,736.1,711.27,847.69,711.27,847.69Z"/>
          <path d="M633.63,854.77a1,1,0,0,1-.69-.27l-18.67-17.82A1,1,0,0,1,614,836c0-.25.26-25,9.13-49.45,11.82-32.63,33.45-50.11,62.56-50.54,11-.13,19.6,3.69,25.55,11.47,21.51,28.14,1.88,97.59,1,100.53a1,1,0,0,1-.88.72l-77.64,6.09ZM616,835.54l18,17.2,76.49-6c2-7.29,18.93-72.18-.88-98.09C704.07,741.4,696,737.83,685.68,738c-28.6.42-49,17-60.69,49.18C616.86,809.56,616,832.17,616,835.54Zm95.3,12.15h0Z" style="fill: #1d1d1b"/>
        </g>
        <path d="M634.56,847.93l-.16,0a1,1,0,0,1-.82-1.14A406.35,406.35,0,0,1,648,787c3.39-10.47,7.69-22.43,15.84-31.87C672.66,745,685,739.77,696,741.62a1,1,0,0,1-.33,2c-10.35-1.74-22,3.18-30.31,12.83-7.91,9.15-12.12,20.89-15.45,31.17a405.26,405.26,0,0,0-14.37,59.49A1,1,0,0,1,634.56,847.93Z" style="fill: #fff"/>
        <path d="M714.85,779.67a1,1,0,0,1-.72-.3,167,167,0,0,1-22.06-28.32,1,1,0,0,1,1.7-1,165.76,165.76,0,0,0,21.79,28,1,1,0,0,1,0,1.41A1,1,0,0,1,714.85,779.67Z" style="fill: #fff"/>
        <path d="M711.24,791.29a1,1,0,0,1-.83-.45,329.47,329.47,0,0,0-27.13-35.42,1,1,0,0,1,.09-1.41,1,1,0,0,1,1.41.09,330.78,330.78,0,0,1,27.29,35.63,1,1,0,0,1-.28,1.39A1,1,0,0,1,711.24,791.29Z" style="fill: #fff"/>
        <path d="M715.84,816.23a1,1,0,0,1-.8-.39l-40.2-52.55a1,1,0,0,1,1.59-1.21l40.2,52.54a1,1,0,0,1-.19,1.4A1,1,0,0,1,715.84,816.23Z" style="fill: #fff"/>
        <path d="M706.19,826.71a1,1,0,0,1-.77-.36,387.51,387.51,0,0,1-36.77-52.86,1,1,0,0,1,1.73-1A384.7,384.7,0,0,0,707,825.07a1,1,0,0,1-.13,1.41A1,1,0,0,1,706.19,826.71Z" style="fill: #fff"/>
        <path d="M701,837.94a1,1,0,0,1-.73-.32A373.68,373.68,0,0,1,664,792.45a1,1,0,0,1,1.65-1.13,370.71,370.71,0,0,0,36,44.93,1,1,0,0,1-.73,1.69Z" style="fill: #fff"/>
        <path d="M686.22,837.63a1,1,0,0,1-.84-.46A229.79,229.79,0,0,0,657.21,801a1,1,0,0,1,0-1.42,1,1,0,0,1,1.41,0,232.15,232.15,0,0,1,28.41,36.49,1,1,0,0,1-.32,1.38A1,1,0,0,1,686.22,837.63Z" style="fill: #fff"/>
        <path d="M666.6,832.08a1,1,0,0,1-.75-.34L654.69,819a1,1,0,1,1,1.5-1.32l11.16,12.71a1,1,0,0,1-.09,1.41A1,1,0,0,1,666.6,832.08Z" style="fill: #fff"/>
        <path d="M646.75,848.2h-.26a5.78,5.78,0,0,1-4.71-3.25,5.39,5.39,0,0,1,.06-5.39,5.22,5.22,0,0,1,5.3-2.12A5.05,5.05,0,0,1,651,840a1,1,0,0,1,.56-.37,1,1,0,0,1,1.21.73,6.41,6.41,0,0,1-1.39,5.55A6,6,0,0,1,646.75,848.2Zm-.56-8.84a3,3,0,0,0-2.66,1.27,3.38,3.38,0,0,0,0,3.4,3.75,3.75,0,0,0,3,2.16,3.9,3.9,0,0,0,3.2-1.57,4.65,4.65,0,0,0,1.1-2.66,1,1,0,0,1-.3.14,1,1,0,0,1-1.22-.72,3,3,0,0,0-2.54-2A4.26,4.26,0,0,0,646.19,839.36Z" style="fill: #fff"/>
        <path d="M705.44,844.45a4.59,4.59,0,1,1,5-3.11,1,1,0,1,1-1.91-.56A3.51,3.51,0,0,0,703.9,837a2.94,2.94,0,0,0,2.86,5.13,1,1,0,0,1,1.36.39,1,1,0,0,1-.39,1.36A4.75,4.75,0,0,1,705.44,844.45Z" style="fill: #fff"/>
      </g>
      <g>
        <g>
          <path d="M657.92,613.64c-23,3.43-39,8.48-49.83,13.22-3.1,6.38-7.79,16.21-13,28,75.66-31.62,103.3,6.37,103.3,6.37s0,1.19,7.13,2.38,45.21,14.28,52.35-9.51S713.83,605.31,657.92,613.64Z" style="fill: #fff"/>
          <path d="M680.07,612c46.45,0,84,21.49,77.78,42.09-3.33,11.1-13.39,14.17-23.9,14.17-12,0-24.64-4-28.45-4.66-7.13-1.19-7.13-2.38-7.13-2.38s-13.78-18.94-48.53-18.94c-14.45,0-32.54,3.28-54.77,12.57,5.23-11.78,9.92-21.61,13-28,10.82-4.74,26.79-9.79,49.83-13.22A150.28,150.28,0,0,1,680.07,612m0-2a153,153,0,0,0-22.45,1.66c-20,3-36.89,7.47-50.33,13.37a2,2,0,0,0-1,1c-3,6.23-7.77,16.15-13.06,28a2,2,0,0,0,1.83,2.81,1.9,1.9,0,0,0,.77-.16c19.72-8.24,37.88-12.41,54-12.41,31.27,0,45.14,15.93,46.75,17.92.75,1.49,3.39,2.51,8.59,3.38.84.14,2.24.48,4,.91,5.76,1.41,15.39,3.77,24.76,3.77,14,0,22.71-5.25,25.82-15.6,1.76-5.87.4-12.06-3.94-17.89C744.1,621,713,610,680.07,610Z" style="fill: #1d1d1b"/>
        </g>
        <path d="M654.35,632.67c-25.91,1.47-44.54,8.46-56.14,15.2q-1.53,3.36-3.14,7c68.64-28.69,97.75-.08,102.56,5.48l31.67-21.71S717.4,629.1,654.35,632.67Z" style="fill: #ababab"/>
        <g>
          <path d="M726.92,637.43s-132.06-9.52-151.09,96.37c0,0,11.89,8.32,23.79,1.19.6-6.13,8.12-72.79,135.63-65.44" style="fill: #fff"/>
          <path d="M589.3,738.85a27.27,27.27,0,0,1-14-4.23,1,1,0,0,1-.41-1c4.38-24.37,15.13-44.65,31.94-60.28,13.44-12.49,30.74-22,51.44-28.39,35.16-10.79,68.44-8.54,68.77-8.52a1,1,0,1,1-.14,2c-.33,0-33.28-2.24-68.1,8.45-31.87,9.79-71.87,32.73-81.82,86.43,2.35,1.42,12.08,6.55,21.75,1.07.64-5.62,3.92-22.61,20.49-37.9,23.43-21.62,62.5-31,116.13-27.93a1,1,0,0,1,1,1.06,1,1,0,0,1-1.06.94c-53.06-3.06-91.65,6.16-114.67,27.4-16.58,15.3-19.43,32.29-19.9,37.13a1,1,0,0,1-.49.76A20.73,20.73,0,0,1,589.3,738.85Z" style="fill: #1d1d1b"/>
        </g>
        <path d="M757.85,654.09a15.54,15.54,0,0,0,.58-3c-17.14,18-63.06.83-116,23.17-44.39,18.74-48.7,52.2-48.88,63.09,2-.43,2.82,0,4.86-1.22,3.57-40.45,51.16-73.77,136.48-67.94C745.07,668.05,754.62,664.85,757.85,654.09Z" style="fill: #ababab"/>
        <g>
          <path d="M575.83,732.33s-25,16.93-25,56.19a20,20,0,0,0,17.85,0s-1.19-35.69,13.09-41.64c0,0-7.14,17.85,1.18,55.92,0,0,7.14,3.57,19-4.76,0,0-15.47-28.55-9.52-51.16,0,0,2.38,30.94,30.93,32.13,0,0,8.33-3.57,8.33-10.71,0,0-27.36-4.76-29.74-23.8,0,0,11.9,13.09,27.36,7.14a16.65,16.65,0,0,0,2.38-14.27s-24,9-31.63-5C600.11,732.33,585.34,740.39,575.83,732.33Z" style="fill: #fff"/>
          <path d="M587.3,804.57a11.1,11.1,0,0,1-4.78-.88A1,1,0,0,1,582,803c-6.66-30.42-3.56-47.91-1.92-54-11.28,8.15-10.39,39.18-10.38,39.51a1,1,0,0,1-.55.93,20.77,20.77,0,0,1-18.79,0,1,1,0,0,1-.51-.87c0-39.33,25.17-56.84,25.43-57a1,1,0,0,1,1.2.06c8.89,7.52,23,0,23.16-.11a1,1,0,0,1,.76-.08.94.94,0,0,1,.59.48c7.13,13.09,30.18,4.66,30.41,4.57a1,1,0,0,1,.8,0,1,1,0,0,1,.51.62,17.52,17.52,0,0,1-2.56,15.18,1.1,1.1,0,0,1-.42.31c-11.87,4.56-21.79-1.72-26.12-5.27,4.55,15.67,28.06,20,28.31,20a1,1,0,0,1,.83,1c0,7.71-8.57,11.47-8.93,11.62a.93.93,0,0,1-.44.08c-21.58-.9-28.68-18.46-30.91-27.61-2.52,20.94,10.28,44.91,10.42,45.17a1,1,0,0,1-.31,1.3C596,803.47,590.76,804.57,587.3,804.57Zm-3.47-2.51c1.59.52,7.66,1.82,16.87-4.34-2.51-4.89-14.68-30.21-9.18-51.09a1,1,0,0,1,1.05-.74,1,1,0,0,1,.91.92c.1,1.22,2.64,29.89,29.74,31.19,1.14-.56,6.93-3.59,7.48-8.89-4.84-1-27.46-6.66-29.69-24.48a1,1,0,0,1,.57-1,1,1,0,0,1,1.16.23c.11.13,11.49,12.35,26,7A15.87,15.87,0,0,0,631,738.67c-4.75,1.57-23.84,6.94-31.32-5-3.32,1.6-15.27,6.56-23.92,0-3.71,2.85-23.72,19.84-24,54.31a19.23,19.23,0,0,0,15.83,0c-.09-5.08-.1-36.18,13.72-41.94a1,1,0,0,1,1.31,1.29C582.63,747.43,575.86,765.17,583.83,802.06Z" style="fill: #1d1d1b"/>
        </g>
        <g>
          <path d="M615.22,641.46a1,1,0,0,1-.94-.67,19.87,19.87,0,0,1,1.32-16.15,1,1,0,1,1,1.74,1,17.9,17.9,0,0,0-1.17,14.51,1,1,0,0,1-.61,1.28A1,1,0,0,1,615.22,641.46Z" style="fill: #1d1d1b"/>
          <path d="M652.14,639.38a1,1,0,0,1-.9-.57,20.22,20.22,0,0,1,3.94-22.45,1,1,0,0,1,1.4,1.43A18.17,18.17,0,0,0,653,638a1,1,0,0,1-.47,1.33A.94.94,0,0,1,652.14,639.38Z" style="fill: #1d1d1b"/>
          <path d="M691.69,639.22a1,1,0,0,1-1-1,23,23,0,0,1,7.5-17.67,1,1,0,0,1,1.34,1.48,21.06,21.06,0,0,0-6.85,16.13,1,1,0,0,1-1,1Z" style="fill: #1d1d1b"/>
          <path d="M672.79,633a1,1,0,0,1-1-.78,20.7,20.7,0,0,1,5.34-18.67,1,1,0,0,1,1.42,1.4,18.68,18.68,0,0,0-4.81,16.83A1,1,0,0,1,673,633Z" style="fill: #1d1d1b"/>
          <path d="M611.16,708.13a1.07,1.07,0,0,1-.59-.18A25.79,25.79,0,0,0,592,703.33a1,1,0,0,1-.28-2,27.91,27.91,0,0,1,20,5,1,1,0,0,1,.22,1.4A1,1,0,0,1,611.16,708.13Z" style="fill: #1d1d1b"/>
          <path d="M601.13,722.53a1,1,0,0,1-.49-.13,19,19,0,0,0-14.51-1.61,1,1,0,0,1-.57-1.92,21,21,0,0,1,16.06,1.79A1,1,0,0,1,602,722,1,1,0,0,1,601.13,722.53Z" style="fill: #1d1d1b"/>
          <path d="M636.48,684a1,1,0,0,1-.88-.53,22.83,22.83,0,0,0-18.38-11.67,1,1,0,0,1,.11-2,24.89,24.89,0,0,1,20,12.72,1,1,0,0,1-.4,1.36A1,1,0,0,1,636.48,684Z" style="fill: #1d1d1b"/>
          <path d="M661.94,672.42a1,1,0,0,1-.91-.59,28.88,28.88,0,0,0-14.17-14.1,1,1,0,0,1-.5-1.33,1,1,0,0,1,1.32-.49A30.83,30.83,0,0,1,662.84,671a1,1,0,0,1-.49,1.32A.86.86,0,0,1,661.94,672.42Z" style="fill: #1d1d1b"/>
          <path d="M693,667.83l-.23,0a1,1,0,0,1-.75-1.2,19.63,19.63,0,0,0-12.78-23,1,1,0,0,1,.65-1.89A21.63,21.63,0,0,1,694,667.05,1,1,0,0,1,693,667.83Z" style="fill: #1d1d1b"/>
          <path d="M720.59,667.57l-.25,0a1,1,0,0,1-.72-1.22,22.66,22.66,0,0,0-12.76-26.27,1,1,0,1,1,.81-1.82,24.63,24.63,0,0,1,13.89,28.58A1,1,0,0,1,720.59,667.57Z" style="fill: #1d1d1b"/>
          <path d="M743.9,665a1,1,0,0,1-1-.9c-.47-4.52-1.35-10.36-4-15.34s-6.84-8.59-11.47-9.66a1,1,0,0,1,.45-1.95c5.2,1.2,9.86,5.1,12.79,10.68,2.78,5.28,3.7,11.36,4.19,16.07A1,1,0,0,1,744,665Z" style="fill: #1d1d1b"/>
        </g>
      </g>
      <g>
        <g>
          <g>
            <path d="M357.27,644.59l7.42.7,6,2.41-1.88,4.63,2.9,4.25,5.7-.77,1.67,13-5,1,0,3.84,4.1,3.2-6.27,9.78-4.24-.94-1.11-2.31s-3.93,3.35-7.5,2.67,5.48-11.64,5.48-11.64l7.21-14-8.85-6.66Z"/>
            <path d="M371.81,687.66l-.22,0-4.23-.95a1,1,0,0,1-.69-.54l-.59-1.21c-1.5,1-4.45,2.66-7.31,2.12a1.89,1.89,0,0,1-1.51-1.24c-1-2.65,4.06-9.16,6.34-11.93l6.78-13.18-8.18-6.15a1,1,0,0,1-.25-.28l-5.53-9.17a1,1,0,0,1,.95-1.51l7.42.69a1,1,0,0,1,.28.07l5.95,2.41a1,1,0,0,1,.55,1.3l-1.67,4.14,2.25,3.29,5.09-.68a1,1,0,0,1,.74.2,1,1,0,0,1,.38.66l1.67,13a1,1,0,0,1-.79,1.11l-4.24.88v2.54l3.7,2.89a1,1,0,0,1,.23,1.33l-6.27,9.78A1,1,0,0,1,371.81,687.66Zm-3.55-2.81,3.08.68,5.41-8.42-3.38-2.64a1,1,0,0,1-.39-.79l0-3.84a1,1,0,0,1,.8-1l4.13-.85-1.42-11.08-4.71.64a1,1,0,0,1-1-.43L368,652.89a1,1,0,0,1-.1-.94l1.49-3.7-4.89-2-5.3-.5,4.41,7.31,8.7,6.54a1,1,0,0,1,.28,1.26l-7.21,14a.94.94,0,0,1-.12.18c-3.62,4.38-6.46,9.09-6.07,10.06,2.55.44,5.68-1.64,6.67-2.49a1,1,0,0,1,.85-.22,1.05,1.05,0,0,1,.7.55Z" style="fill: #1d1d1b"/>
          </g>
          <g>
            <path d="M348.55,684.43l8.89,3.63,1.07-4.76a11.4,11.4,0,0,0,6.08-1.82L368,685l5.68-8.12-3.26-3.36a18.62,18.62,0,0,0,.8-4.34l3.77-.78-2.24-10.87-3.88.8a18,18,0,0,0-4-5l.92-4.15-8.89-3.62-1,4.32a11.11,11.11,0,0,0-2.06.23,11.52,11.52,0,0,0-4.62,2.1l-2.74-2.84-5.68,8.12,3.06,3.16a18.29,18.29,0,0,0-.52,3.35l-3.78.78,2.24,10.88,3.88-.8a18,18,0,0,0,3.87,4.94ZM351.44,669c-1.56-4.93,1-9.87,5.29-10.09,2.9-.14,5.74,2.16,6.8,5.51,1.55,4.92-1,9.87-5.29,10.08C355.34,674.66,352.5,672.36,351.44,669Z" style="fill: #fff"/>
            <path d="M356.91,645.51l8.89,3.62-.92,4.15a18,18,0,0,1,4,5l3.88-.8L375,668.39l-3.77.78a18.62,18.62,0,0,1-.8,4.34l3.26,3.36L368,685l-3.39-3.51a11.4,11.4,0,0,1-6.08,1.82l-1.07,4.76-8.89-3.63,1.05-4.68a18,18,0,0,1-3.87-4.94l-3.88.8-2.24-10.88,3.78-.78a18.29,18.29,0,0,1,.52-3.35l-3.06-3.16,5.68-8.12,2.74,2.84a11.52,11.52,0,0,1,4.62-2.1,11.11,11.11,0,0,1,2.06-.23l1-4.32m1.06,29h.27c4.25-.21,6.84-5.16,5.29-10.08-1-3.25-3.73-5.51-6.53-5.51h-.27c-4.25.22-6.85,5.16-5.29,10.09,1,3.25,3.73,5.51,6.53,5.51m-1.06-31a2,2,0,0,0-2,1.56l-.65,2.89c-.27,0-.55.08-.82.14a13.27,13.27,0,0,0-3.93,1.48l-1.6-1.65a2,2,0,0,0-1.43-.61h-.16a2,2,0,0,0-1.48.85l-5.68,8.11a2,2,0,0,0,.21,2.54l2.31,2.39c-.07.35-.13.71-.18,1.07l-2.34.48a2,2,0,0,0-1.56,2.37L339.89,676a2,2,0,0,0,2,1.6,2,2,0,0,0,.41,0l2.47-.51a19.53,19.53,0,0,0,2.67,3.36l-.8,3.58a2,2,0,0,0,1.2,2.28l8.89,3.63a2,2,0,0,0,.75.15,2,2,0,0,0,.93-.23,2,2,0,0,0,1-1.34l.74-3.3c.32,0,.64-.1,1-.16a13.84,13.84,0,0,0,3.12-1.06l2.33,2.41A2,2,0,0,0,368,687h.16a2,2,0,0,0,1.48-.84L375.3,678a2,2,0,0,0-.21-2.54l-2.46-2.54a20.7,20.7,0,0,0,.41-2.11l2.34-.48a2,2,0,0,0,1.55-2.36l-2.24-10.88a2,2,0,0,0-.86-1.27,2,2,0,0,0-1.1-.32,1.81,1.81,0,0,0-.4,0l-2.48.51a19.19,19.19,0,0,0-2.77-3.47l.68-3a2,2,0,0,0-1.2-2.29l-8.89-3.63a2,2,0,0,0-.76-.14Zm1.06,29c-1.92,0-3.87-1.73-4.62-4.12a6.79,6.79,0,0,1,.66-5.81,3.62,3.62,0,0,1,2.82-1.67H357c1.92,0,3.87,1.73,4.62,4.11a6.82,6.82,0,0,1-.66,5.82,3.65,3.65,0,0,1-2.82,1.67Z" style="fill: #1d1d1b"/>
          </g>
        </g>
        <path d="M446,710.06a1,1,0,0,1-1-.81c-1.3-6.44-2.77-13.73-7-19.22a17.71,17.71,0,0,0-8.8-6,21,21,0,0,1-.11,4.47,12.26,12.26,0,0,1-4.75,8.32,6.22,6.22,0,0,1-5.14,1,7.08,7.08,0,0,1-4.89-7.63,9.82,9.82,0,0,1,5.39-7.29,12.74,12.74,0,0,1,7.09-1.38c-1.92-8.58-9.35-15.7-16.92-18.71-8.79-3.5-19.38-3.71-33.31-.65a1,1,0,0,1-.43-2c14.34-3.15,25.3-2.91,34.48.75,8.32,3.32,16.48,11.29,18.29,20.91a19.56,19.56,0,0,1,10.67,6.93c4.57,5.86,6.09,13.4,7.43,20.06a1,1,0,0,1-.79,1.18Zm-20.49-26.55a10.5,10.5,0,0,0-4.91,1.17,7.81,7.81,0,0,0-4.33,5.75,5.12,5.12,0,0,0,3.4,5.47,4.24,4.24,0,0,0,3.52-.71,10.34,10.34,0,0,0,3.9-6.93,19,19,0,0,0,0-4.64A12.6,12.6,0,0,0,425.52,683.51Z" style="fill: #1d1d1b"/>
      </g>
      <g>
        <g>
          <g>
            <path d="M344.24,503.49l7.07,12.61L354,528.27l-9.46,2.11L341,539.7,348.5,548l-18.91,17-7.22-6.9-6.16,4.21-.59,10.07-22.53.77-3.16-7.81,2.45-4.32s-9.67-2.58-12.53-9,24.63-4.09,24.63-4.09l30.34-3.94.88-21.48Z"/>
            <path d="M293.09,574.1a1,1,0,0,1-.93-.62L289,565.67a1,1,0,0,1,.06-.87l1.84-3.25c-2.8-.95-9.55-3.75-12-9.21a2.77,2.77,0,0,1,.22-2.86c3.05-4.28,21.36-3,25.31-2.63l29.4-3.82.84-20.64a.78.78,0,0,1,.09-.37l8.54-18.94a1,1,0,0,1,.87-.59,1,1,0,0,1,.91.51l7.08,12.61a1.33,1.33,0,0,1,.1.28L355,528.05a1,1,0,0,1-.13.75,1,1,0,0,1-.63.44l-8.94,2-3.18,8.24,7.1,7.8a1,1,0,0,1,.26.72,1,1,0,0,1-.33.7l-18.91,17a1,1,0,0,1-1.36,0l-6.63-6.34-5.08,3.48-.56,9.58a1,1,0,0,1-1,.94l-22.53.77Zm-2-8.73,2.71,6.71,20.93-.72.53-9.16a1,1,0,0,1,.44-.76l6.15-4.22a1,1,0,0,1,1.26.11l6.55,6.26,17.47-15.71-6.84-7.51a1,1,0,0,1-.2-1l3.6-9.32a1,1,0,0,1,.71-.61l8.49-1.9-2.47-11-6-10.75-7.65,16.95L335.82,544a1,1,0,0,1-.87.95l-30.34,3.94a.79.79,0,0,1-.22,0c-8.13-.7-21.74-.83-23.61,1.79a.79.79,0,0,0,0,.89c2.64,6,11.78,8.45,11.87,8.47a1,1,0,0,1,.67.58,1,1,0,0,1-.05.88Zm43.78-21.46h0Z" style="fill: #1d1d1b"/>
          </g>
          <g>
            <path d="M271,533.5l4,18.2,8.77-3.55a22,22,0,0,0,9.61,7.7l-1.86,9.3,19.22.11,1.78-8.92a35.92,35.92,0,0,0,7.81-3.51l5.41,5.18,14.89-15.58-5.55-5.32a34.81,34.81,0,0,0,3.65-11.9l7.65-3.09-4-18.2-8,3.22a22.76,22.76,0,0,0-2.64-3,22.45,22.45,0,0,0-8.45-5.07l1.5-7.5-19.22-.11-1.67,8.36a36.31,36.31,0,0,0-5.93,2.87l-5.41-5.17-14.9,15.57,5.56,5.32A34.66,34.66,0,0,0,279.63,530Zm27.82-12.4c6.14-7.91,16.9-9.22,21.94-2.67,3.43,4.47,2.89,11.54-1.3,16.93-6.15,7.91-16.9,9.22-21.94,2.67C294.09,533.56,294.63,526.49,298.82,521.1Z" style="fill: #fff"/>
            <path d="M305.61,491.44l19.22.11-1.5,7.5a22.45,22.45,0,0,1,8.45,5.07,22.76,22.76,0,0,1,2.64,3l8-3.22,4,18.2-7.65,3.09a34.81,34.81,0,0,1-3.65,11.9l5.55,5.32L325.76,558l-5.41-5.18a35.92,35.92,0,0,1-7.81,3.51l-1.78,8.92-19.22-.11,1.86-9.3a22,22,0,0,1-9.61-7.7L275,551.7l-4-18.2,8.63-3.49a34.66,34.66,0,0,1,3.63-11.62l-5.56-5.32,14.9-15.57,5.41,5.17a36.31,36.31,0,0,1,5.93-2.87l1.67-8.36m.8,50.78a16.94,16.94,0,0,0,13-6.86c4.19-5.39,4.73-12.46,1.3-16.93a10.94,10.94,0,0,0-8.89-4.19,16.94,16.94,0,0,0-13.05,6.86c-4.19,5.39-4.73,12.46-1.3,16.93a10.91,10.91,0,0,0,8.89,4.19m-.8-52.78a2,2,0,0,0-2,1.6l-1.46,7.3a40.38,40.38,0,0,0-3.88,1.85L294,496.05a2,2,0,0,0-1.38-.55h-.05a2,2,0,0,0-1.4.61l-14.9,15.58a2,2,0,0,0,.07,2.83l4.5,4.3a36.52,36.52,0,0,0-3,9.77l-7.56,3.06a2,2,0,0,0-1.2,2.28l4,18.2a2,2,0,0,0,1,1.34,1.91,1.91,0,0,0,.93.23,2,2,0,0,0,.75-.14l7.35-3a23.29,23.29,0,0,0,2.07,2.25,24.23,24.23,0,0,0,5.94,4.18l-1.55,7.75a2,2,0,0,0,.41,1.65,2,2,0,0,0,1.54.74l19.22.11h0a2,2,0,0,0,2-1.61l1.55-7.77a37.82,37.82,0,0,0,5.77-2.57l4.33,4.14a2,2,0,0,0,1.39.56,2,2,0,0,0,1.44-.62l14.9-15.58A2,2,0,0,0,342,541l-4.51-4.3a35.82,35.82,0,0,0,3.05-10l6.57-2.66a2,2,0,0,0,1.2-2.28l-4-18.21a2,2,0,0,0-1-1.33,1.91,1.91,0,0,0-.93-.23,2,2,0,0,0-.75.14l-6.56,2.66a24.77,24.77,0,0,0-1.91-2.05,24.16,24.16,0,0,0-7.54-4.9l1.17-5.83a2,2,0,0,0-2-2.39l-19.22-.11Zm.8,50.78a8.94,8.94,0,0,1-7.3-3.41c-2.87-3.73-2.33-9.82,1.29-14.48a14.93,14.93,0,0,1,11.47-6.09,8.94,8.94,0,0,1,7.3,3.41c2.87,3.73,2.33,9.82-1.29,14.48a14.9,14.9,0,0,1-11.47,6.09Z" style="fill: #1d1d1b"/>
          </g>
        </g>
        <path d="M372.55,612.48a1,1,0,0,1-.57-.17A121.86,121.86,0,0,1,337.92,577a1,1,0,0,1,1.7-1.07,119.64,119.64,0,0,0,33.49,34.71,1,1,0,0,1,.26,1.39A1,1,0,0,1,372.55,612.48Z" style="fill: #1d1d1b"/>
        <path d="M358,584.75a1,1,0,0,1-.58-.18,58.51,58.51,0,0,1-19.95-25,1,1,0,1,1,1.84-.77,56.66,56.66,0,0,0,19.27,24.09,1,1,0,0,1,.23,1.39A1,1,0,0,1,358,584.75Z" style="fill: #1d1d1b"/>
      </g>
      <path d="M511.09,653a230.45,230.45,0,0,1-35.56,4c-7.9,49.67-52.51,45.09-71.49,40.76,2.32,12.74,4.34,24.56,5.06,30.85l.79,0c46.11,1.59,94.23-3.33,94.23-3.33C504.12,708.79,511.09,653,511.09,653Z" style="fill: #737373"/>
      <g>
        <g>
          <path d="M480,727c6.48-4.55,18.94-17.79,18.34-25.68-.4-5.26-2.56-10.77-.42-15.59,2.31-5.23,8.59-7.2,14.14-8.58a14,14,0,0,0,8.85,7.08c-2.84,3.42-9,1.71-12.09,4.92-2.87,3-1.13,7.81-.77,11.94.42,4.92-1.47,9.81-4.29,13.86s-6.54,7.39-10.21,10.68" style="fill: #fff"/>
          <path d="M480,728a1,1,0,0,1-.82-.43,1,1,0,0,1,.25-1.39c6.62-4.65,18.46-17.6,17.91-24.79-.11-1.48-.38-3-.63-4.54-.66-3.85-1.34-7.83.29-11.52,2.39-5.39,8.53-7.58,14.82-9.15a1,1,0,0,1,1.13.51,13,13,0,0,0,8.22,6.57,1,1,0,0,1,.7.67,1,1,0,0,1-.19.94c-1.69,2-4.24,2.48-6.71,2.91-2.13.37-4.15.73-5.43,2.06-1.87,1.95-1.39,5-.89,8.2.15,1,.31,2,.39,3,.52,6-2.14,11.19-4.46,14.52-2.91,4.17-6.7,7.57-10.37,10.86a1,1,0,1,1-1.33-1.49c3.58-3.21,7.29-6.53,10.06-10.51,3-4.33,4.47-9,4.11-13.21-.08-.9-.22-1.84-.38-2.83-.53-3.38-1.13-7.22,1.43-9.88,1.73-1.81,4.17-2.24,6.53-2.65a13.91,13.91,0,0,0,4.26-1.2,15.1,15.1,0,0,1-7.33-6.31c-5.19,1.34-10.69,3.23-12.73,7.84-1.39,3.14-.79,6.65-.15,10.38.26,1.54.54,3.15.66,4.72.63,8.35-11.88,21.74-18.77,26.58A1,1,0,0,1,480,728Z" style="fill: #1d1d1b"/>
        </g>
        <path d="M503.37,691.89a1.15,1.15,0,0,1-.37-.06,6.2,6.2,0,0,1-3.63-7.13,1,1,0,0,1,1.94.5,4.18,4.18,0,0,0,2.42,4.76,1,1,0,0,1-.36,1.93Z" style="fill: #1d1d1b"/>
        <path d="M501.92,697.74h-.08a6.2,6.2,0,0,1-5.54-6.1,1,1,0,0,1,1-1,1,1,0,0,1,1,1,4.19,4.19,0,0,0,3.7,4.07,1,1,0,0,1-.08,2Z" style="fill: #1d1d1b"/>
        <path d="M502,713a6.77,6.77,0,0,1-2.83-.61,1,1,0,0,1-.49-1.33,1,1,0,0,1,1.32-.49,4.85,4.85,0,0,0,3.74.1,1,1,0,0,1,.74,1.86A6.66,6.66,0,0,1,502,713Z" style="fill: #1d1d1b"/>
        <path d="M520,663.73a1,1,0,0,1-.58-.19,1,1,0,0,1-.23-1.39,10.34,10.34,0,0,0,1.18-9.8,1,1,0,1,1,1.85-.76,12.36,12.36,0,0,1-1.41,11.73A1,1,0,0,1,520,663.73Z" style="fill: #1d1d1b"/>
        <path d="M526.63,665.88a.94.94,0,0,1-.48-.13,1,1,0,0,1-.4-1.35,25,25,0,0,0,2.8-8.39,1,1,0,0,1,1.13-.85,1,1,0,0,1,.85,1.14,27.09,27.09,0,0,1-3,9.05A1,1,0,0,1,526.63,665.88Z" style="fill: #1d1d1b"/>
        <path d="M524.36,676.77a1,1,0,0,1-.82-.43,1,1,0,0,1,.25-1.39,32.15,32.15,0,0,1,10-4.58,1,1,0,1,1,.52,1.94,29.63,29.63,0,0,0-9.33,4.28A1,1,0,0,1,524.36,676.77Z" style="fill: #1d1d1b"/>
        <g>
          <path d="M512.92,678.48a1.44,1.44,0,0,1-.39-2.26,2.35,2.35,0,0,1,2.52-.41,7,7,0,0,1,2.18,1.58l4.45,4.24c.63.59,1.3,1.49.84,2.22s-1.7.45-2.53,0" style="fill: #fff"/>
          <path d="M521.54,685.32a4.35,4.35,0,0,1-2-.56,1,1,0,0,1-.44-1.34,1,1,0,0,1,1.35-.43,2.1,2.1,0,0,0,1.24.32,2.21,2.21,0,0,0-.7-1l-4.45-4.23a6.25,6.25,0,0,0-1.85-1.38,1.39,1.39,0,0,0-1.43.16.59.59,0,0,0-.09.48.24.24,0,0,0,.08.16,1,1,0,0,1,.61,1.27,1,1,0,0,1-1.28.61,2.15,2.15,0,0,1-1.35-1.56,2.54,2.54,0,0,1,.56-2.32,3.36,3.36,0,0,1,3.62-.66,7.56,7.56,0,0,1,2.51,1.79l4.45,4.23c1.8,1.71,1.3,3,1,3.48A2.07,2.07,0,0,1,521.54,685.32Z" style="fill: #1d1d1b"/>
        </g>
        <g>
          <path d="M472,728c5.11-17.38,0-37.07-11.67-50.92a5.49,5.49,0,0,1-4.12,8.59c8.34,11.1,10.6,29,6.79,42.33" style="fill: #fff"/>
          <path d="M472,729a.9.9,0,0,1-.28,0,1,1,0,0,1-.68-1.24c4.43-15.09,1-32.93-8.82-46.59a6.41,6.41,0,0,1-.56,1.87,6.63,6.63,0,0,1-3.75,3.32c7.4,10.9,10,28.24,6,41.95a1,1,0,1,1-1.92-.54c3.9-13.71,1.12-31.15-6.63-41.46a1,1,0,0,1,.73-1.6,4.5,4.5,0,0,0,3.37-7,1,1,0,0,1,.22-1.36,1,1,0,0,1,1.37.15C473.3,690.92,478,711.27,473,728.28A1,1,0,0,1,472,729Z" style="fill: #1d1d1b"/>
        </g>
        <g>
          <path d="M460.45,676.69a6.44,6.44,0,0,1-1.46,7.5c-1.45,1.27-3.85,1.73-5.25.41s-1.19-3.42-.52-5.11a6.75,6.75,0,0,1,2-2.86,3.78,3.78,0,0,1,3.3-.75,2.64,2.64,0,0,1,1.91,2.63" style="fill: #fff"/>
          <path d="M455.87,686.4a4,4,0,0,1-2.82-1.07c-1.74-1.62-1.53-4.27-.76-6.21a7.7,7.7,0,0,1,2.3-3.28,4.75,4.75,0,0,1,4.2-.92,3.8,3.8,0,0,1,1.42.79,1,1,0,0,1,1.13.53,7.43,7.43,0,0,1-1.69,8.7A5.92,5.92,0,0,1,455.87,686.4Zm1.75-9.64a3,3,0,0,0-1.8.66,5.64,5.64,0,0,0-1.67,2.44c-.5,1.26-.74,3.08.27,4s2.82.52,3.91-.43a5.42,5.42,0,0,0,1.74-4,1,1,0,0,1-.65-1,1.65,1.65,0,0,0-1.2-1.57A2.35,2.35,0,0,0,457.62,676.76Z" style="fill: #1d1d1b"/>
        </g>
        <path d="M466.07,697.75a1,1,0,0,1-.82-.42,1,1,0,0,1,.24-1.39,4.63,4.63,0,0,0,1.82-4.64,1,1,0,0,1,1.95-.43,6.66,6.66,0,0,1-2.62,6.7A1,1,0,0,1,466.07,697.75Z" style="fill: #1d1d1b"/>
        <path d="M467.31,702.5a1,1,0,0,1-.71-1.7,8.36,8.36,0,0,0,2.3-5.13,1,1,0,0,1,1.07-.92,1,1,0,0,1,.93,1.07A10.4,10.4,0,0,1,468,702.2,1,1,0,0,1,467.31,702.5Z" style="fill: #1d1d1b"/>
        <path d="M469.26,716.85a1,1,0,0,1-.93-.63,1,1,0,0,1,.57-1.3,5,5,0,0,0,2.28-1.86,1,1,0,0,1,1.68,1.09,6.94,6.94,0,0,1-3.23,2.63A.94.94,0,0,1,469.26,716.85Z" style="fill: #1d1d1b"/>
        <path d="M468.62,721.6a1,1,0,0,1-.12-2,3.58,3.58,0,0,0,2.68-1.9,1,1,0,0,1,1.79.9,5.53,5.53,0,0,1-4.22,3Z" style="fill: #1d1d1b"/>
        <path d="M455.67,669.76a1,1,0,0,1-1-.74,43.11,43.11,0,0,0-3.5-8.9,1,1,0,1,1,1.77-.93,45.16,45.16,0,0,1,3.66,9.31,1,1,0,0,1-.71,1.22A.75.75,0,0,1,455.67,669.76Z" style="fill: #1d1d1b"/>
        <path d="M449,672.89a1,1,0,0,1-.8-.4,13,13,0,0,0-4.83-3.91,1,1,0,0,1,.85-1.81,15,15,0,0,1,5.57,4.51,1,1,0,0,1-.19,1.41A1,1,0,0,1,449,672.89Z" style="fill: #1d1d1b"/>
        <path d="M447,677.66l-.27,0-2.55-.73a1,1,0,1,1,.55-1.92l2.54.72a1,1,0,0,1,.69,1.24A1,1,0,0,1,447,677.66Z" style="fill: #1d1d1b"/>
      </g>
      <g>
        <g>
          <path d="M427.42,379.11s34.48-17.87,44.77-19.61c0,0,115.36,4.32,197.36,65.95l21,33.85Z"/>
          <path d="M690.52,460.3a1,1,0,0,1-.3,0l-263.09-80.2a1,1,0,0,1-.71-.86,1,1,0,0,1,.54-1c1.41-.73,34.74-18,45.07-19.71h.2c.29,0,29.38,1.18,68.11,9.89,35.76,8,87.31,24.31,129.81,56.26a.93.93,0,0,1,.25.27l21,33.86a1,1,0,0,1-.06,1.13A1,1,0,0,1,690.52,460.3ZM430.08,378.87l258.19,78.7L668.8,426.13c-79.75-59.83-192.52-65.45-196.54-65.63C463.62,362,437.79,375,430.08,378.87Z" style="fill: #1d1d1b"/>
        </g>
        <g>
          <path d="M427.42,379.11s-44.51,98.24-37.91,190.77c0,0,113.87,56.54,239.27,61.1,0,0,57.29-79.52,62.11-166.59C690.89,464.39,622.53,398.42,427.42,379.11Z" style="fill: #fff"/>
          <path d="M427.42,379.11c195.11,19.31,263.47,85.28,263.47,85.28C686.07,551.46,628.78,631,628.78,631c-125.4-4.56-239.27-61.1-239.27-61.1-6.6-92.53,37.91-190.77,37.91-190.77m0-2a2,2,0,0,0-1.82,1.17,490.16,490.16,0,0,0-21.53,61c-9.45,33.11-20,82.68-16.56,130.77a2,2,0,0,0,1.11,1.65c.28.14,29.1,14.37,72.87,29,40.4,13.45,102.2,30,167.22,32.36h.07a2,2,0,0,0,1.62-.83c.15-.2,14.6-20.37,29.43-50.94,13.69-28.23,30.55-71.4,33.06-116.71a2,2,0,0,0-.61-1.55c-.71-.68-17.81-16.95-59.13-35.78-24.18-11-51.69-20.62-81.74-28.53-37.53-9.87-79.18-17.11-123.79-21.52Z" style="fill: #1d1d1b"/>
        </g>
        <path d="M389.51,569.88S503.38,626.42,628.78,631c0,0,50-69.39,60.5-149.51C673.8,529.14,648,599.91,621,620c0,0-98-1-231.56-51.17C389.46,569.18,389.48,569.53,389.51,569.88Z" style="fill: #ababab"/>
        <g>
          <path d="M443.53,397.2S405.35,481.47,411,560.84c0,0,97.68,48.5,205.25,52.41,0,0,49.14-68.21,53.27-142.9C669.53,470.35,610.9,413.76,443.53,397.2Z" style="fill: #fff"/>
          <path d="M443.53,397.2c167.37,16.56,226,73.15,226,73.15-4.13,74.69-53.27,142.9-53.27,142.9C508.69,609.34,411,560.84,411,560.84c-5.66-79.37,32.52-163.64,32.52-163.64m0-2a2,2,0,0,0-1.82,1.17,419.26,419.26,0,0,0-18.48,52.34c-8.11,28.43-17.16,71-14.21,112.27a2,2,0,0,0,1.1,1.65c.25.12,25,12.33,62.54,24.85,34.68,11.54,87.72,25.74,143.53,27.77h.07a2,2,0,0,0,1.62-.83,328.29,328.29,0,0,0,25.26-43.74c11.76-24.24,26.24-61.31,28.39-100.22a2,2,0,0,0-.61-1.55c-.61-.59-15.31-14.57-50.8-30.74-32.6-14.86-89.66-34.38-176.39-43Z" style="fill: #1d1d1b"/>
        </g>
        <path d="M481.93,515.75a1,1,0,0,1-.91-.58,210.76,210.76,0,0,1-16.33-52.69l-.21,0a1,1,0,0,1-.81-1.16l.46-2.59a1,1,0,0,1,1-.82h0a1,1,0,0,1,1,.85,209,209,0,0,0,16.73,55.59,1,1,0,0,1-.49,1.33A1,1,0,0,1,481.93,515.75Z" style="fill: #1d1d1b"/>
        <path d="M454.3,502.5a1,1,0,0,1-.8-.39,1,1,0,0,1,.19-1.41l52.49-40.08a1,1,0,1,1,1.21,1.59l-52.48,40.08A1,1,0,0,1,454.3,502.5Z" style="fill: #1d1d1b"/>
        <path d="M607.05,547.76a1,1,0,0,1-1-.9,197.82,197.82,0,0,0-11.16-49.27,1,1,0,1,1,1.88-.69,199.6,199.6,0,0,1,11.27,49.77,1,1,0,0,1-.9,1.09Z" style="fill: #1d1d1b"/>
        <path d="M564.91,546.39a1,1,0,0,1-.54-1.84,622.12,622.12,0,0,0,56.11-40.29,1,1,0,0,1,1.26,1.56,624.85,624.85,0,0,1-56.3,40.42A1,1,0,0,1,564.91,546.39Z" style="fill: #1d1d1b"/>
        <g>
          <path d="M546.62,389a10.23,10.23,0,0,1-4.84-10.9c2.09-10,13.35-23.27,34.38-17.27,18.05,5.15,20,16.37,22.37,26.59A10.27,10.27,0,0,1,588.71,400,78.85,78.85,0,0,1,546.62,389Z" style="fill: #fff"/>
          <path d="M587.2,401a80.38,80.38,0,0,1-41.09-11.12h0a11.21,11.21,0,0,1-5.3-12A25.31,25.31,0,0,1,552.29,362c6.65-4,15-4.76,24.14-2.15,18,5.13,20.54,16.32,22.81,26.2l.26,1.13A11.26,11.26,0,0,1,588.73,401Zm-40.08-12.85A78.57,78.57,0,0,0,588.7,399a9.26,9.26,0,0,0,8.85-11.33l-.26-1.13c-2.25-9.79-4.58-19.92-21.4-24.73-8.6-2.45-16.4-1.78-22.57,2a23.24,23.24,0,0,0-10.56,14.56,9.2,9.2,0,0,0,4.36,9.84Z" style="fill: #1d1d1b"/>
        </g>
      </g>
      <g>
        <g id="b2956d93-23b1-40c8-9d91-7e10b7954e1f" data-name="pin">
          <g>
            <polygon points="512.47 810.29 512.47 800.29 532.47 794.29 532.47 806.29 522.47 812.29 512.47 810.29" style="fill: #fff"/>
            <path d="M532.47,794.29v12l-10,6-10-2v-10l20-6m0-2a1.83,1.83,0,0,0-.57.08l-20,6a2,2,0,0,0-1.43,1.92v10a2,2,0,0,0,1.61,2l10,2a2.58,2.58,0,0,0,.39,0,2,2,0,0,0,1-.29l10-6a2,2,0,0,0,1-1.71v-12a2,2,0,0,0-.81-1.61,2,2,0,0,0-1.19-.39Z" style="fill: #1d1d1b"/>
          </g>
          <g>
            <polygon points="512.47 801.29 512.47 793.29 519.47 788.29 530.47 788.29 532.47 796.29 524.47 803.29 512.47 801.29" style="fill: #fff"/>
            <path d="M530.47,788.29l2,8-8,7-12-2v-8l7-5h11m0-2h-11a2,2,0,0,0-1.16.37l-7,5a2,2,0,0,0-.84,1.63v8a2,2,0,0,0,1.67,2l12,2,.33,0a2,2,0,0,0,1.32-.5l8-7a2,2,0,0,0,.62-2l-2-8a2,2,0,0,0-1.94-1.51Z" style="fill: #1d1d1b"/>
          </g>
          <path d="M524.47,813.09a1,1,0,0,1-1-1v-7.8a1,1,0,0,1,2,0v7.8A1,1,0,0,1,524.47,813.09Z" style="fill: #1d1d1b"/>
          <g>
            <ellipse cx="521.97" cy="794.79" rx="4.5" ry="2.5" transform="translate(-273.3 273.55) rotate(-23.46)" style="fill: #fff"/>
            <path d="M520.21,798.71a3.33,3.33,0,0,1-3.28-1.73,3.12,3.12,0,0,1,.62-3.16,7.7,7.7,0,0,1,3-2.24c2.87-1.26,5.64-.81,6.44,1s-.78,4.15-3.66,5.4A8,8,0,0,1,520.21,798.71Zm3.51-5.83a6,6,0,0,0-2.35.53,5.8,5.8,0,0,0-2.23,1.63c-.34.45-.49.89-.38,1.14.24.55,1.88.82,3.81,0s2.85-2.22,2.61-2.77C525.05,793.09,524.51,792.88,523.72,792.88Z" style="fill: #1d1d1b"/>
          </g>
        </g>
        <g id="b83a8c1d-366f-4813-aff9-95d6f9a2b408" data-name="wire">
          <path d="M173.5,842.19a6.23,6.23,0,0,1-1.65-.21c-2.66-.71-4.74-3.17-6-7.14a33.28,33.28,0,0,1-1.58-9.55,1,1,0,0,1,1-1,1,1,0,0,1,1,1,30.77,30.77,0,0,0,1.49,9c.73,2.29,2.13,5.16,4.62,5.81,2.29.61,4.77-.82,6.89-2.3A101.2,101.2,0,0,0,193,826.23c2-2,4.74-4.75,8.19-4.43,2.86.27,4.73,2.42,6.53,4.49,1.61,1.84,3.12,3.58,5.15,3.83a1,1,0,0,1-.25,2c-2.79-.35-4.63-2.46-6.4-4.5-1.62-1.86-3.16-3.62-5.22-3.81-2.31-.24-4.36,1.61-6.59,3.84a103,103,0,0,1-14,11.74C178.35,840.81,176,842.19,173.5,842.19Z" style="fill: #1d1d1b"/>
          <path d="M170.83,851.82a9.26,9.26,0,0,1-3.46-.65c-2.47-1-4.56-3.17-6.38-6.62a34.91,34.91,0,0,1-4.05-16.9,1,1,0,0,1,1-1,1,1,0,0,1,1,1,32.83,32.83,0,0,0,3.81,15.93c1.6,3,3.36,4.89,5.37,5.71,2.64,1.07,6.13.41,9.35-1.76a39.51,39.51,0,0,0,4.91-4.16c1-1,2.1-2,3.22-2.91,3.67-3,7.24-4.39,10.62-4,4.78.47,8.36,4.26,11.24,7.9a1,1,0,0,1-1.57,1.24c-2.62-3.31-5.83-6.75-9.87-7.15-2.82-.28-5.9.93-9.14,3.6-1.08.88-2.12,1.87-3.13,2.82a41.2,41.2,0,0,1-5.16,4.37A14.12,14.12,0,0,1,170.83,851.82Z" style="fill: #1d1d1b"/>
          <path d="M208.81,847.13a4.12,4.12,0,0,1-3.16-1.62,7.7,7.7,0,0,1-1.37-3.23,15.89,15.89,0,0,1,1.42-10.73,4.85,4.85,0,0,1,1.61-1.88,2.63,2.63,0,0,1,3,.06,1,1,0,0,1,.3,1.14,2.53,2.53,0,0,1,1.82,0,3.37,3.37,0,0,1,2,1.95,6.77,6.77,0,0,1-.06,3.93L213.24,842a10.38,10.38,0,0,1-1,3,4.18,4.18,0,0,1-3,2.15Zm0-15.91a.85.85,0,0,0-.46.14,3,3,0,0,0-.91,1.14,13.94,13.94,0,0,0-1.23,9.37,5.64,5.64,0,0,0,1,2.39,2.07,2.07,0,0,0,1.77.86,2.19,2.19,0,0,0,1.5-1.17,8.65,8.65,0,0,0,.81-2.44l1.18-5.23a5,5,0,0,0,.14-2.78,1.41,1.41,0,0,0-.8-.77.52.52,0,0,0-.46,0,2.89,2.89,0,0,0-2.28-1.47A.4.4,0,0,0,208.83,831.22Z" style="fill: #1d1d1b"/>
          <path d="M157.51,828.22a1,1,0,0,1-.24,0,1,1,0,0,1-.74-1.21,5.5,5.5,0,0,1,8.89-2.94,1,1,0,1,1-1.29,1.53,3.49,3.49,0,0,0-5.65,1.88A1,1,0,0,1,157.51,828.22Z" style="fill: #1d1d1b"/>
          <path d="M198.2,836.69a1,1,0,0,1-1-.88,8.81,8.81,0,0,1,1.33-5.81,1,1,0,1,1,1.68,1.09,6.85,6.85,0,0,0-1,4.48,1,1,0,0,1-.88,1.11Z" style="fill: #1d1d1b"/>
          <path d="M190.73,838.24a1,1,0,0,1-.94-.67,5.94,5.94,0,0,1,1.05-5.7,1,1,0,1,1,1.53,1.29,4,4,0,0,0-.7,3.75,1,1,0,0,1-.61,1.27A1,1,0,0,1,190.73,838.24Z" style="fill: #1d1d1b"/>
          <path d="M173.2,851.49a1,1,0,0,1-.74-.33,7.08,7.08,0,0,1-1.35-7.23,1,1,0,0,1,1.3-.56,1,1,0,0,1,.56,1.3,5.1,5.1,0,0,0,1,5.14,1,1,0,0,1-.06,1.41A1,1,0,0,1,173.2,851.49Z" style="fill: #1d1d1b"/>
          <path d="M165.48,847.34a1,1,0,0,1-1-1,17.86,17.86,0,0,1,1-6.24,1,1,0,0,1,1.89.65,15.81,15.81,0,0,0-.85,5.54,1,1,0,0,1-1,1Z" style="fill: #1d1d1b"/>
          <path d="M156.92,818.2a1,1,0,0,1-.81-.41,34.72,34.72,0,0,1-5.55-11.64,1,1,0,1,1,1.93-.52,32.8,32.8,0,0,0,5.23,11,1,1,0,0,1-.22,1.39A1,1,0,0,1,156.92,818.2Z" style="fill: #1d1d1b"/>
          <path d="M159.46,817a1,1,0,0,1-.94-.66,41,41,0,0,1-2.36-10.14,1,1,0,0,1,.89-1.09,1,1,0,0,1,1.1.89,39,39,0,0,0,2.24,9.65,1,1,0,0,1-.59,1.28A.83.83,0,0,1,159.46,817Z" style="fill: #1d1d1b"/>
          <path d="M163.87,816.09h-.07a1,1,0,0,1-.93-1.06l.22-3.41a1,1,0,0,1,1.06-.93,1,1,0,0,1,.93,1.06l-.22,3.41A1,1,0,0,1,163.87,816.09Z" style="fill: #1d1d1b"/>
          <path d="M228.8,857.05a1,1,0,0,1-.6-.2l-12.38-9.32a1,1,0,0,1-.19-1.4,1,1,0,0,1,1.4-.2l12.37,9.33a1,1,0,0,1-.6,1.79Z" style="fill: #1d1d1b"/>
          <path d="M229.56,850.05a1,1,0,0,1-.48-.12l-7.81-4.26a1,1,0,1,1,.95-1.75l7.82,4.26a1,1,0,0,1,.39,1.35A1,1,0,0,1,229.56,850.05Z" style="fill: #1d1d1b"/>
          <path d="M227.51,841.67a.83.83,0,0,1-.22,0l-3.76-.87a1,1,0,0,1-.75-1.2,1,1,0,0,1,1.2-.75l3.76.87a1,1,0,0,1-.23,2Z" style="fill: #1d1d1b"/>
        </g>
      </g>
    </g>
    <g id="a950f232-7fff-427f-b5fc-ac8a5947b694" data-name="pattern">
      <path d="M412,363.39a1,1,0,0,1-.33-.06L375.94,351a1,1,0,0,1,.65-1.89l35.78,12.38a1,1,0,0,1-.33,1.95Z" style="fill: #1d1d1b"/>
      <path d="M417.3,356.72a1,1,0,0,1-.74-.34l-20.71-23.32a1,1,0,1,1,1.49-1.33l20.71,23.33a1,1,0,0,1-.75,1.66Z" style="fill: #1d1d1b"/>
      <path d="M425.79,353.76a1,1,0,0,1-1-.76L418,325.48a1,1,0,0,1,.72-1.21,1,1,0,0,1,1.22.73l6.88,27.52a1,1,0,0,1-1,1.24Z" style="fill: #1d1d1b"/>
      <path d="M750,621a1,1,0,0,1-.85-.48,33.69,33.69,0,0,0-33-15.39,1,1,0,0,1-.29-2,35.78,35.78,0,0,1,35,16.33,1,1,0,0,1-.34,1.38A1,1,0,0,1,750,621Z" style="fill: #1d1d1b"/>
      <path d="M705,397.67a1,1,0,0,1-1-1.23c4.59-18.89,21.14-34.49,40.26-37.94,10.9-2,21,.47,27.19,6.53A46.11,46.11,0,0,1,830,378.43a1,1,0,1,1-1.6,1.19,44.11,44.11,0,0,0-55.47-13.06,19.81,19.81,0,0,1,4.05,14,14.51,14.51,0,0,1-6.16,10.94,12.2,12.2,0,0,1-10.16,1.42,8.67,8.67,0,0,1-5.71-5c-2.39-5.92,2.55-11.91,4.79-14.2a45.51,45.51,0,0,1,10-7.73c-5.73-5.29-15-7.37-25-5.57-18.37,3.32-34.27,18.31-38.67,36.45A1,1,0,0,1,705,397.67Zm66.06-30.15a43.45,43.45,0,0,0-10,7.63c-2,2-6.31,7.23-4.36,12.06a6.7,6.7,0,0,0,4.44,3.81,10.32,10.32,0,0,0,8.46-1.17,12.58,12.58,0,0,0,5.28-9.48A17.7,17.7,0,0,0,771.09,367.52Z" style="fill: #1d1d1b"/>
      <path d="M290.06,440.29a1,1,0,0,1-1-.83c-1.73-9.83-11.61-17.76-21.6-17.33a13,13,0,0,0-6.69,2.08,13.75,13.75,0,0,1,3.72,10.17,1,1,0,0,1-.6.85,5.06,5.06,0,0,1-5.58-1.27,7.13,7.13,0,0,1-1.88-7.44,8.24,8.24,0,0,1,1.43-2.38A19.67,19.67,0,0,0,243,419.58c-9.86,1.29-18.16,8.57-24.82,14.41a1,1,0,1,1-1.32-1.51c6.87-6,15.41-13.51,25.88-14.88a21.7,21.7,0,0,1,16.66,5.17,14.71,14.71,0,0,1,8-2.64c11.09-.48,21.72,8,23.65,19a1,1,0,0,1-.81,1.16Zm-30.74-14.74a6.17,6.17,0,0,0-1,1.7,5.17,5.17,0,0,0,1.41,5.27,3.38,3.38,0,0,0,2.82,1.05A11.83,11.83,0,0,0,259.32,425.55Z" style="fill: #1d1d1b"/>
      <path d="M374.72,151.6a10.36,10.36,0,0,1-7.92-4,12.89,12.89,0,0,1-2.53-12.23c1.84-5.22,6.5-8.46,11.51-9.81a31.85,31.85,0,0,1,4.35-10.3,1,1,0,0,1,1.37-.35,1,1,0,0,1,.35,1.38,31.55,31.55,0,0,0-3.93,8.81,20.11,20.11,0,0,1,5.35-.15c4.2.46,8.74,2.8,9.42,7a6.41,6.41,0,0,1-2.42,5.93,8.21,8.21,0,0,1-7.74,1.69c-4.8-1.61-7.16-7-7-11.54,0-.1,0-.2,0-.3-4.14,1.29-7.86,4-9.38,8.34a10.88,10.88,0,0,0,2.19,10.28,8.13,8.13,0,0,0,7.49,3.22,1,1,0,0,1,.31,2A9.81,9.81,0,0,1,374.72,151.6Zm2.86-24.44c0,.29-.05.58-.06.88-.12,3.77,1.78,8.27,5.65,9.57a6.29,6.29,0,0,0,5.81-1.32,4.43,4.43,0,0,0,1.73-4.08c-.51-3.13-4.21-4.92-7.66-5.3A18.11,18.11,0,0,0,377.58,127.16Z" style="fill: #1d1d1b"/>
      <path d="M606.55,210.72a1,1,0,0,1-1-.95c-1.11-21.24,14.14-42.09,34.71-47.48a1,1,0,1,1,.51,1.93c-19.69,5.16-34.28,25.12-33.22,45.45a1,1,0,0,1-.94,1.05Z" style="fill: #1d1d1b"/>
      <path d="M264.6,600.06a8.27,8.27,0,0,1-4.71-1.57c-2.86-2-4.14-5.1-3.25-7.93s3.71-4.66,7.19-4.66h0c3.48,0,6.3,1.83,7.19,4.65a1,1,0,0,1-1.91.6c-.75-2.4-3.31-3.25-5.28-3.25h0c-2,0-4.53.86-5.28,3.26s.87,4.56,2.48,5.69,4.21,1.89,6.2.35a1,1,0,1,1,1.22,1.58A6.2,6.2,0,0,1,264.6,600.06Z" style="fill: #1d1d1b"/>
    </g>
  </g>
</svg>
