<svg xmlns="http://www.w3.org/2000/svg" width="1000" height="1000" viewBox="0 0 1000 1000">
  <g id="a3a972f0-b547-4405-bce5-b44fbc5acf8d" data-name="Auth 500 System Error">
    <g id="a5908fce-77ce-4154-afc4-fcc905b55bd9" data-name="background">
      <g id="f56550da-f946-48c9-9dc4-068eea60f83d" data-name="background">
        <g id="b2027f25-fd03-4ecf-9d81-308e7fab0936" data-name="5">
          <path d="M602.89,259.15a146,146,0,0,1-22-1.66,1,1,0,0,1-.84-.9l-3.36-37.69h0a1,1,0,0,1-1.07-.93,1,1,0,0,1,.93-1.06L649,212a1,1,0,0,1,.78.3,1,1,0,0,1,.28.78l-3,38.69a1,1,0,0,1-.7.88A148.46,148.46,0,0,1,602.89,259.15ZM582,255.63a146.47,146.47,0,0,0,63.19-4.69L648,214.08l-69.33,4.68Z" style="fill: #e6e6e6"/>
          <path d="M611.62,273.08a1,1,0,0,1-.63-.23,1,1,0,0,1-.37-.68l-1-10.94a1,1,0,0,1,.91-1.09,1,1,0,0,1,1.08.91l.9,9.91a544.3,544.3,0,0,1,58.6-3.54l-1.2-26a4.16,4.16,0,0,0-.44-2.12,3.16,3.16,0,0,0-2.35-.77L649,237.45a1,1,0,0,1-.93-1.06,1,1,0,0,1,1.06-.94l18.16,1.12c1,.06,2.81.18,3.84,1.59a5.72,5.72,0,0,1,.83,3.21l1.25,27a1,1,0,0,1-1,1,543.13,543.13,0,0,0-60.44,3.66Z" style="fill: #e6e6e6"/>
          <path d="M640.75,223.84a2,2,0,0,1-1.8-1.05,1,1,0,0,1,.41-1.36,1,1,0,0,1,.69-.09,1,1,0,0,1-.42-.74,1,1,0,0,1,1-1.08,2,2,0,0,1,1.8.89,2.26,2.26,0,0,1,.25,2.26,2,2,0,0,1-1.81,1.17Zm0-2a.13.13,0,0,0,.12,0,.38.38,0,0,0-.15-.32.93.93,0,0,1-.29,0A1.07,1.07,0,0,1,640.71,221.83Z" style="fill: #e6e6e6"/>
          <path d="M587.85,228.29a2.43,2.43,0,0,1-1.84-.9,2.77,2.77,0,0,1-.62-2.28,1,1,0,0,1,1.16-.79,1,1,0,0,1,.69.49l.28-.19a2.63,2.63,0,0,1,2.05-.32,1,1,0,0,1,.72.77,2.8,2.8,0,0,1-.58,2.28,2.41,2.41,0,0,1-1.84.94Z" style="fill: #e6e6e6"/>
          <path d="M664.09,247.63l-.31,0a1,1,0,0,1,.29-2,.27.27,0,0,0,.13-.24.18.18,0,0,0-.14-.14,1,1,0,0,1-1.34-.38,1,1,0,0,1,.39-1.37,2,2,0,0,1,1.86,0,2.18,2.18,0,0,1,1.21,1.63,2.24,2.24,0,0,1-.67,1.94A2,2,0,0,1,664.09,247.63Z" style="fill: #e6e6e6"/>
        </g>
        <g id="ee3e9cb8-9d38-4727-b3d9-9f0de9d49977" data-name="4">
          <path d="M622.81,778.32a89.84,89.84,0,0,1-18.69-2c-2.33-.5-5.52-1.49-6.38-4.35-.73-2.42.63-5.09,3.82-7.51a52.08,52.08,0,0,1,46.86-8,1,1,0,0,1-.62,1.91,50,50,0,0,0-45,7.69c-1.44,1.09-3.75,3.24-3.12,5.34.43,1.41,2,2.35,4.88,3A89.36,89.36,0,0,0,653.18,771c3.81-1.39,8.4-3.89,8.68-7.91.17-2.55-1.55-4.85-3.22-6.16a24.85,24.85,0,0,0-7.08-3.38,1,1,0,1,1,.66-1.88,26.27,26.27,0,0,1,7.65,3.68,9.46,9.46,0,0,1,4,7.87c-.27,4-3.72,7.38-10,9.66A91.16,91.16,0,0,1,622.81,778.32Z" style="fill: #e6e6e6"/>
          <path d="M595.6,803.14c-3.27,0-5.34-1.16-5.7-3.21-.23-1.33.34-2.67,1.76-4.11a20.44,20.44,0,0,1,17.8-5.66,1,1,0,0,1,.82,1.15,1,1,0,0,1-1.16.82,18.4,18.4,0,0,0-16,5.1c-.91.93-1.32,1.72-1.21,2.35.28,1.58,3.43,1.58,4.06,1.56l8-.22a14.11,14.11,0,0,0,5.37-.83c1.31-.58,2.71-1.93,2.67-3.52a2.44,2.44,0,0,0-1.14-1.86,1.56,1.56,0,0,0-1.46-.2,1,1,0,0,1-.8-1.83,3.51,3.51,0,0,1,3.33.34,4.4,4.4,0,0,1,2.07,3.5c.06,2.52-1.89,4.53-3.85,5.4a15.84,15.84,0,0,1-6.13,1l-8,.22Z" style="fill: #e6e6e6"/>
        </g>
        <g id="a769ec7e-089d-4088-98ba-50450afd953d" data-name="1">
          <path d="M27.52,720.31a1,1,0,0,1,0-2c97.34-2.17,196.57-4.23,292.54-6.23,147-3.05,299.07-6.21,448.3-9.84h0a1,1,0,0,1,0,2c-149.24,3.62-301.28,6.79-448.31,9.84-96,2-195.2,4.06-292.53,6.23Z" style="fill: #dbdbdb"/>
          <path d="M910.6,701a1,1,0,0,1-1-1,1,1,0,0,1,1-1c8.77-.16,17.31-.28,25.4-.37h0a1,1,0,0,1,1,1,1,1,0,0,1-1,1c-8.08.09-16.62.21-25.38.37Z" style="fill: #dbdbdb"/>
          <path d="M823.62,703.09a1,1,0,0,1,0-2q14.89-.35,29.8-.74h0a1,1,0,0,1,0,2q-14.9.38-29.81.74Z" style="fill: #dbdbdb"/>
        </g>
        <path d="M223.68,864.82a21.38,21.38,0,0,1-15.79-6.58,1,1,0,0,1-.26-.79,1.06,1.06,0,0,1,.44-.72,24,24,0,0,1,20-3,1,1,0,1,1-.58,1.92,22,22,0,0,0-17.26,2.07c6.87,6.51,19,6.87,26.08.55a1,1,0,0,1,1.42.08,1,1,0,0,1-.09,1.41A20.92,20.92,0,0,1,223.68,864.82Z" style="fill: #dbdbdb"/>
        <path d="M926.07,713.06a1,1,0,0,1-1-1,1,1,0,0,1,1-1l33.15-.52a1,1,0,0,1,1,1,1,1,0,0,1-1,1l-33.14.52Z" style="fill: #dbdbdb"/>
        <path d="M203.46,838.94a27.62,27.62,0,0,1-8.14-1.21,1,1,0,1,1,.58-1.91,26.18,26.18,0,0,0,12.68.62,27.4,27.4,0,0,0-14.57-1.8,1,1,0,1,1-.3-2A29.32,29.32,0,0,1,212,835.84a1,1,0,0,1-.18,1.83A27.64,27.64,0,0,1,203.46,838.94Z" style="fill: #dbdbdb"/>
      </g>
      <g>
        <path d="M243,410.48l0,0a124.8,124.8,0,0,0-28.82-12.9A101.88,101.88,0,0,0,185,393H174.74c-1.43,0-2.93,0-4.48.1V353.42h122V275.6H97V508.78l11.28-9.5c7-5.89,13.43-10.92,19.12-15A101.35,101.35,0,0,1,143,475,59,59,0,0,1,157,470.44a85.8,85.8,0,0,1,15.49-1.31c15.28,0,27.44,4.63,37.18,14.14S224,504.71,224,519.85a58.06,58.06,0,0,1-4,21.72,56.23,56.23,0,0,1-27.32,29.73,42.45,42.45,0,0,1-19.06,4.36,48.73,48.73,0,0,1-13.19-1.73,38.64,38.64,0,0,1-12-6.06,103.75,103.75,0,0,1-13.82-12.23,221,221,0,0,1-16.21-19.25l-4.66-6.13-54.2,52.12,3.7,4.87a244.12,244.12,0,0,0,26.57,30,161,161,0,0,0,26.67,20.62,103.34,103.34,0,0,0,28.58,12,131.68,131.68,0,0,0,31.41,3.63,119.3,119.3,0,0,0,49.64-10.54,124,124,0,0,0,40.21-29.12,140.2,140.2,0,0,0,36.7-95.4c0-23-5.16-44-15.33-62.31S262.45,422.4,243,410.48Z" style="fill: #dbdbdb"/>
        <path d="M577.24,323.68a141.84,141.84,0,0,0-45.59-39.32,120.94,120.94,0,0,0-58-14.43,128.62,128.62,0,0,0-69.46,20.34C383,303.66,365,322.57,350.94,346.41c-9,14.9-16,32.46-20.66,52.16a271.28,271.28,0,0,0-7,62.57c0,27.06,3.63,52.46,10.8,75.49s17.28,43.49,30,60.49a142.81,142.81,0,0,0,46.18,40.49,121.79,121.79,0,0,0,58.87,14.73,112.86,112.86,0,0,0,38.05-6.92A146.71,146.71,0,0,0,543.53,626c23.93-17.66,42.43-41.21,55-70,12.43-28.54,18.72-61.81,18.72-98.88,0-26.66-3.53-51.67-10.51-74.34S589.78,340.14,577.24,323.68ZM541.1,460a175.79,175.79,0,0,1-4.89,41.76,133.15,133.15,0,0,1-14,35.38c-15,26.3-32.11,39.09-52.25,39.09a49,49,0,0,1-27.12-7.73c-8.32-5.28-15.69-13-21.89-22.82-6.37-10.11-11.41-22.42-15-36.59a197,197,0,0,1-5.44-47.95c0-17.47,1.92-33.58,5.7-47.88,3.74-14.14,9-26.43,15.75-36.53,6.56-9.86,14.38-17.56,23.25-22.86a55.06,55.06,0,0,1,28.69-7.82A44.74,44.74,0,0,1,499.49,354c8.18,5.48,15.39,13.26,21.43,23.12,6.2,10.14,11.16,22.38,14.74,36.41A188.52,188.52,0,0,1,541.1,460Z" style="fill: #dbdbdb"/>
        <path d="M919.8,382.83c-7-22.79-16.93-42.69-29.47-59.15a141.84,141.84,0,0,0-45.59-39.32,120.89,120.89,0,0,0-58-14.43,128.59,128.59,0,0,0-69.45,20.34C696,303.66,678.11,322.57,664,346.41c-9,14.9-16,32.46-20.65,52.16a271.28,271.28,0,0,0-7,62.57c0,27.06,3.64,52.46,10.81,75.49s17.27,43.49,30,60.49a142.78,142.78,0,0,0,46.17,40.49,121.79,121.79,0,0,0,58.87,14.73,112.92,112.92,0,0,0,38.06-6.92A146.65,146.65,0,0,0,856.62,626c23.93-17.66,42.43-41.21,55-70,12.42-28.54,18.72-61.81,18.72-98.88C930.31,430.51,926.77,405.5,919.8,382.83ZM854.19,460a175.28,175.28,0,0,1-4.89,41.76,132.81,132.81,0,0,1-14,35.38c-15,26.3-32.11,39.09-52.25,39.09a49.06,49.06,0,0,1-27.12-7.73c-8.32-5.28-15.68-13-21.89-22.82-6.37-10.11-11.41-22.42-15-36.59a197,197,0,0,1-5.44-47.95c0-17.47,1.92-33.58,5.71-47.88,3.74-14.14,9-26.43,15.75-36.53,6.55-9.86,14.37-17.56,23.24-22.86A55.09,55.09,0,0,1,787,346.05,44.77,44.77,0,0,1,812.59,354c8.18,5.48,15.39,13.26,21.42,23.12,6.2,10.14,11.16,22.38,14.74,36.41A188.52,188.52,0,0,1,854.19,460Z" style="fill: #dbdbdb"/>
        <path d="M890.3,297.59A281,281,0,0,1,927.84,365a286.36,286.36,0,0,1,18.07,75,280.28,280.28,0,0,1,1,43.46c-.11,1.93,2.89,1.92,3,0a283.68,283.68,0,0,0-6.47-77.63,289.7,289.7,0,0,0-26.9-72.68,279.33,279.33,0,0,0-23.61-37c-1.15-1.52-3.76,0-2.59,1.51Z" style="fill: #dbdbdb"/>
        <path d="M927.57,323.86a8,8,0,0,0,6.1,7.38,7.63,7.63,0,0,0,1.26.17,2.13,2.13,0,0,0,1.34-.54,7.49,7.49,0,0,0,1.58-1.6,8,8,0,0,0,1.32-3.75,8.29,8.29,0,0,0-2.58-7,7,7,0,0,0-8.42-.37c-2.86,1.88-4.8,5.54-3.6,8.95a1.53,1.53,0,0,0,1.84,1,1.51,1.51,0,0,0,1.05-1.84,5.31,5.31,0,0,1-.2-.68,2.74,2.74,0,0,0,0-.28c0,.28,0,0,0,0,0-.23,0-.46,0-.69a2.45,2.45,0,0,1,0-.27c0,.32,0-.08,0-.15a5,5,0,0,1,.18-.66l.09-.27c-.09.24,0,0,0,0a8.31,8.31,0,0,1,.72-1.22c-.15.21,0,0,.07-.08l.24-.27.4-.4a3,3,0,0,1,.26-.24s.29-.23.09-.08a6,6,0,0,1,.59-.39c.2-.12.41-.22.62-.33,0,0,.26-.11,0,0l.26-.1c.22-.07.44-.14.67-.19l.27-.05c-.32.06.1,0,.15,0a3.86,3.86,0,0,1,.68,0l.28,0c-.28,0,0,0,0,0l.69.19c.06,0,.26.11,0,0l.33.16c.17.09.34.2.51.31s.21.18,0,0l.18.15q.21.19.42.42l.15.18c.25.28-.15-.25,0,.07a10.72,10.72,0,0,1,.54.93c.19.34-.07-.2,0,0s.07.18.11.28.12.39.18.58.07.36.11.54.06.37,0,0l0,.25a7.09,7.09,0,0,1,0,1.22,1.94,1.94,0,0,1,0,.24c0,.35.06-.24,0,.08s-.1.47-.16.71-.13.37-.19.56c.12-.33-.09.19-.15.29s-.22.37-.34.56-.22.27,0,0l-.23.27a5.62,5.62,0,0,1-.44.41c-.28.26.17-.11,0,0l-.36.24.76-.21a4.93,4.93,0,0,1-3-1.47c-.13-.13-.25-.27-.37-.41s0,.05-.14-.2a6.59,6.59,0,0,1-.51-.89c-.05-.09-.05-.09,0,0a2.49,2.49,0,0,1-.11-.29c-.05-.15-.09-.3-.13-.45a3.78,3.78,0,0,1-.1-.46c0,.24,0-.32,0-.38a1.54,1.54,0,0,0-1.5-1.5,1.5,1.5,0,0,0-1.5,1.5Z" style="fill: #dbdbdb"/>
        <path d="M948.71,371.86c-1.47,3.59.82,7.88,4.12,9.54a7.45,7.45,0,0,0,2.8.8,3.52,3.52,0,0,0,3-.82,6.77,6.77,0,0,0,1.56-4.67A8.48,8.48,0,0,0,954.6,369a6.76,6.76,0,0,0-7.93,3.84c-1.59,3.34-1.18,7.5,2,9.78a1.5,1.5,0,0,0,1.51-2.59c-.31-.23.22.21-.06-.06l-.25-.23c-.08-.08-.44-.52-.21-.21a3.82,3.82,0,0,1-.31-.47,2.69,2.69,0,0,1-.16-.29c0-.08-.17-.4,0-.05a8.33,8.33,0,0,1-.34-1.18c0-.09,0-.29,0,.06l0-.34a5.3,5.3,0,0,1,0-.69,5.46,5.46,0,0,1,0-.58c0,.4,0-.17.06-.29a7.56,7.56,0,0,1,.4-1.33c-.14.35.1-.19.14-.28s.19-.33.29-.49.39-.54.16-.26c.16-.19.32-.37.49-.55s.3-.28.46-.41c-.3.25.16-.09.24-.14s.33-.18.49-.27c.34-.16-.3.09.06,0l.33-.1.33-.08s.39-.05.15,0,.15,0,.16,0h.37l.24,0c.4,0-.3-.08.08,0s.46.1.69.17c.06,0,.42.17.08,0l.21.1a6.27,6.27,0,0,1,.62.36l.2.13c.32.22-.22-.2.07.06s.36.33.52.5a5.72,5.72,0,0,1,.4.46c-.21-.26.14.21.2.3a6.67,6.67,0,0,1,.37.64l.11.22.1.22c-.07-.17-.08-.17,0,0a9.91,9.91,0,0,1,.38,1.42c-.07-.34,0-.08,0,0s0,.28,0,.42a5.61,5.61,0,0,1,0,.71c0,.4.08-.31,0,.07,0,.12,0,.24-.07.35a6,6,0,0,1-.22.68c.13-.35,0,0,0,.07l-.18.31c-.06.1-.13.2-.2.3.2-.29-.11.12-.16.18l.66-.39a2.71,2.71,0,0,1-.41.09c.21,0,0,0-.09,0s-.51,0-.76,0,.2.06-.15,0l-.33-.07a5.5,5.5,0,0,1-.72-.23c.2.07,0,0-.09-.05l-.31-.16-.65-.41c-.13-.09.11.1-.09-.07l-.32-.28c-.19-.18-.36-.37-.54-.56s-.2-.25-.08-.09l-.24-.34c-.13-.2-.26-.4-.37-.61l-.18-.38c.09.2,0,0,0-.09a6.14,6.14,0,0,1-.22-.73c0-.11,0-.23-.07-.34s0,.21,0-.08a7.42,7.42,0,0,1,0-.82s.05-.4,0-.21,0-.18.05-.21a7.63,7.63,0,0,1,.26-.81,1.5,1.5,0,0,0-1-1.84,1.54,1.54,0,0,0-1.85,1.05Z" style="fill: #dbdbdb"/>
        <path d="M304,248.18a476.63,476.63,0,0,0,.32,80.94q1,11.37,2.58,22.67a1.51,1.51,0,0,0,1.85,1,1.54,1.54,0,0,0,1.05-1.84,473.73,473.73,0,0,1-4.1-80.2q.38-11.32,1.3-22.62c.15-1.92-2.85-1.91-3,0Z" style="fill: #dbdbdb"/>
        <path d="M68.88,393.07q3.87,25.49,5.94,51.2t2.35,51.4q.17,14.54-.25,29.05c0,1.94,3,1.93,3,0q.73-26-.36-51.94t-4-51.55q-1.63-14.5-3.83-29c-.28-1.9-3.17-1.09-2.89.8Z" style="fill: #dbdbdb"/>
        <path d="M71.1,511.52a21.42,21.42,0,0,0,.65-9.41,9.84,9.84,0,0,0-4.49-6.47c-2.1-1.26-5-1.68-7.15-.33a6.28,6.28,0,0,0-2.77,5.27,5,5,0,0,0,3.56,5.15,1.5,1.5,0,0,0,.79-2.89,1.66,1.66,0,0,1-.21-.06c-.24-.08.17.09,0,0a2.12,2.12,0,0,1-.36-.21c-.2-.13.15.14,0,0l-.15-.14s-.16-.18-.06-.06-.1-.15-.12-.18-.13-.24-.19-.37c.11.24-.05-.16-.07-.24s-.08-.32-.11-.49c0,.25,0-.18,0-.26s0-.35,0-.52,0,.05,0-.28a8.28,8.28,0,0,1,.26-.9,5.18,5.18,0,0,1,.44-.73c-.14.19.15-.15.2-.2l.16-.15c.19-.16,0,0,.11-.08a4.09,4.09,0,0,1,4.27.35,6.79,6.79,0,0,1,3,4.49c.57,2.63,0,5.39-.63,8-.46,1.87,2.43,2.67,2.9.79Z" style="fill: #dbdbdb"/>
        <path d="M56.9,455.66a10.64,10.64,0,0,0,4.61,12.62,1.54,1.54,0,0,0,2.05-.54A18.7,18.7,0,0,0,62,445a1.5,1.5,0,0,0-1.81-.24c-5.16,3.36-6.83,10.91-3.28,16,1.1,1.58,3.7.08,2.59-1.51a8.68,8.68,0,0,1,2.2-11.92l-1.82-.23A15.69,15.69,0,0,1,61,466.23l2.05-.54a7.66,7.66,0,0,1-3.23-9.24c.68-1.81-2.22-2.59-2.89-.79Z" style="fill: #dbdbdb"/>
      </g>
    </g>
    <g id="a6c55dad-5b98-46ac-923a-6f2651aa8b54" data-name="kat">
      <g>
        <g>
          <path d="M524.21,672.73s-4.58,53.92,20.65,71.12,40.15-4.58,34.42-22.94-11.23-55.82-10.2-77.24S524.21,672.73,524.21,672.73Z" style="fill: #fff"/>
          <path d="M565.8,638.38c2.2,0,3.46,1.54,3.28,5.29-1,21.42,4.46,58.89,10.2,77.24,4.26,13.65-2.89,29.2-17.22,29.2-4.94,0-10.73-1.85-17.2-6.26-25.23-17.2-20.65-71.12-20.65-71.12s31.24-34.35,41.59-34.35m0-2c-1.8,0-7.27,0-26,17.72-9,8.54-16.94,17.2-17,17.29a2,2,0,0,0-.51,1.17,153.94,153.94,0,0,0,.87,29.53c2.74,21.34,9.69,35.94,20.65,43.42,6.43,4.38,12.59,6.6,18.32,6.6a19.07,19.07,0,0,0,15.71-8c4.71-6.4,6-15.53,3.42-23.84-5.53-17.67-11.15-55-10.11-76.54.12-2.72-.4-4.65-1.62-5.93a4.86,4.86,0,0,0-3.66-1.46Z"/>
        </g>
        <path d="M544.86,743.85a35.11,35.11,0,0,0,13.36,5.9c-28.12-34.21-3-62.19,12.39-74.63-1.3-11.56-2-22.81-1.53-31.45,1-21.41-44.87,29.06-44.87,29.06S519.63,726.65,544.86,743.85Z" style="fill: #ababab"/>
        <path d="M548.66,721.29a61,61,0,0,1-21.4-4,1,1,0,0,1,.79-1.84c.29.13,29.05,12.15,47.45-6.64a1,1,0,1,1,1.43,1.4C568.42,718.85,557.85,721.29,548.66,721.29Z"/>
        <path d="M544.07,686.88a61,61,0,0,1-21.4-4,1,1,0,0,1,.79-1.84c.29.12,29,12.14,47.46-6.65a1,1,0,0,1,1.43,1.4C563.83,684.43,553.26,686.88,544.07,686.88Z"/>
        <path d="M563.57,751.05a1,1,0,0,1-.89-.54l-6.09-11.94a1,1,0,0,1,1.78-.91l6.09,11.94a1,1,0,0,1-.43,1.34A1,1,0,0,1,563.57,751.05Z"/>
        <path d="M575.27,745.09a1,1,0,0,1-.88-.52l-5.17-9.41a1,1,0,0,1,1.76-1l5.17,9.4a1,1,0,0,1-.4,1.36A.94.94,0,0,1,575.27,745.09Z"/>
        <g>
          <path d="M316.67,687.64c-20.68,3.56-112,64.89-53.77,140.6,44.5,57.86,165,31.63,151.19-7.53s-89.53-5.53-114-26.28c-27.14-23-16.55-76.53,12.41-96.11Z" style="fill: #fff"/>
          <path d="M316.67,687.64h0m0,0-4.13,10.68c-29,19.58-39.55,73.07-12.41,96.11,7,6,18.28,7.43,31.09,7.43,12.5,0,26.47-1.4,39.42-1.4,19.95,0,37.49,3.33,43.45,20.25,8,22.8-29.44,41.21-70.93,41.21-29.79,0-61.67-9.5-80.26-33.68-58.25-75.71,33.09-137,53.77-140.6m0-2h-.09a1.43,1.43,0,0,0-.29,0c-6.49,1.13-20,7.66-34.25,19.35-11.53,9.43-27,25-35,45.66a72.37,72.37,0,0,0-4.52,37c2,14.07,8.36,28.11,18.83,41.72,16.84,21.9,46.67,34.46,81.85,34.46,30.82,0,59.53-10.14,69.81-24.66,4.27-6,5.31-12.67,3-19.21-6.7-19-26.67-21.59-45.33-21.59-6.59,0-13.49.37-20.17.72-6.44.33-13.11.68-19.25.68-14.94,0-24.13-2.14-29.8-7-10.54-8.94-15.83-23.31-14.89-40.46,1.18-21.53,11.83-42.12,27.13-52.46a2.08,2.08,0,0,0,.74-.94l4.1-10.58a2,2,0,0,0,.18-.82,2,2,0,0,0-2-2Zm0,4h0Z"/>
        </g>
        <path d="M403.12,846.12a285.67,285.67,0,0,1-63.6-1.32c-92.88-12-83.89-85.32-73.58-121.26-21.84,25.72-35.1,63-3,104.7C296.49,871.93,373.38,867.67,403.12,846.12Z" style="fill: #ababab"/>
        <path d="M386.55,855.67a1,1,0,0,1-.71-.3c-27.88-28.36-3.58-54.75-3.33-55a1,1,0,0,1,1.46,1.37c-1,1-23.22,25.27,3.3,52.24a1,1,0,0,1,0,1.41A1,1,0,0,1,386.55,855.67Z"/>
        <path d="M346.83,862.87a1,1,0,0,1-.82-.43c-9.86-14.06-13.68-27.29-11.35-39.33a36.94,36.94,0,0,1,14.64-22.74,1,1,0,0,1,1.09,1.68,35.54,35.54,0,0,0-13.77,21.47c-2.21,11.48,1.5,24.19,11,37.77a1,1,0,0,1-.25,1.39A.93.93,0,0,1,346.83,862.87Z"/>
        <path d="M297.57,854.65a1,1,0,0,1-.9-.57c-7.26-15.39-8.73-28.58-4.39-39.19a30.87,30.87,0,0,1,16.45-16.62,1,1,0,1,1,.69,1.87,29.4,29.4,0,0,0-15.3,15.54c-4.11,10.06-2.64,22.7,4.36,37.55a1,1,0,0,1-.48,1.33A1.11,1.11,0,0,1,297.57,854.65Z"/>
        <path d="M253.3,814.53a1,1,0,0,1-1-.9c-1.08-11,1.39-20,7.34-26.55,10.38-11.46,27.48-11.61,28.2-11.61h0a1,1,0,0,1,0,2c-.17,0-17,.16-26.74,11-5.54,6.13-7.84,14.54-6.82,25a1,1,0,0,1-.89,1.09Z"/>
        <path d="M244.31,763.21a1,1,0,0,1-.42-.09,1,1,0,0,1-.49-1.33c4.21-9.13,10.13-14.88,17.59-17.11,12.48-3.72,24.63,3.74,25.14,4.06a1,1,0,0,1-1.05,1.7c-.12-.08-11.93-7.31-23.53-3.84-6.88,2.06-12.38,7.45-16.34,16A1,1,0,0,1,244.31,763.21Z"/>
        <path d="M292.67,722.9a1,1,0,0,1-.75-.34c-.42-.48-10.48-11.55-22.53-1.44a1,1,0,1,1-1.28-1.53c13.56-11.38,25.2,1.51,25.31,1.65a1,1,0,0,1-.08,1.41A1,1,0,0,1,292.67,722.9Z"/>
        <g>
          <path d="M421,499.51s-14.91,4.59-18.36,28.68c0,0-64.24,51.62-84.89,110.13s-1.14,91.77,25.24,97.5,113.57,2.3,170.93-39S582.72,630.29,588.45,581s-9.17-55.07-9.17-55.07Z" style="fill: #fff"/>
          <path d="M421.16,501.57l157.49,26.25c1.42.82,12.92,9,7.82,52.91-2.69,23.13-6.72,42.21-17.65,60.13-10.62,17.42-27.4,33.67-56.1,54.34C471,725.26,411.46,736,369.7,736c-10.72,0-20.06-.75-26.31-2.11-10.52-2.29-19.43-9.14-25.09-19.3-10-18-9.55-44.81,1.31-75.59,10.55-29.88,32.86-58,49.73-76.26a359,359,0,0,1,34.53-33,2,2,0,0,0,.72-1.28c2.93-20.47,14.22-26,16.57-26.9m-.19-2.06s-14.91,4.59-18.36,28.68c0,0-64.24,51.62-84.89,110.13s-1.14,91.77,25.24,97.5C349,737.14,358.31,738,369.7,738c38.16,0,100-9.35,144.19-41.16,57.36-41.3,68.83-66.53,74.56-115.86s-9.17-55.07-9.17-55.07L421,499.51Z"/>
        </g>
        <g>
          <path d="M387.7,726.65c24.09-5.74,74.57-3.44,65.39,32.12,0,0-133.07,13.76-133.07-34.42S387.7,726.65,387.7,726.65Z" style="fill: #fff"/>
          <path d="M336.65,703.52c20,0,51.05,23.13,51.05,23.13a98.51,98.51,0,0,1,22.15-2.41c23.8,0,50.08,8,43.24,34.53,0,0-17.6,1.82-40,1.82-39.19,0-93.08-5.57-93.08-36.24,0-15.56,7.06-20.83,16.63-20.83m0-2h0c-8.5,0-18.63,4-18.63,22.83,0,31.6,51.7,38.24,95.08,38.24,22.23,0,40-1.81,40.2-1.83a2,2,0,0,0,1.73-1.49c2.34-9.1,1.15-16.8-3.56-22.88-9.54-12.31-30.17-14.15-41.62-14.15a102.16,102.16,0,0,0-21.7,2.25c-5-3.63-32.55-23-51.5-23Z"/>
        </g>
        <path d="M453.27,744.18c-87.72,4.78-120.53-12.59-132.8-26.06a39.44,39.44,0,0,0-.45,6.23c0,48.18,133.07,34.42,133.07,34.42C454.56,753.09,454.49,748.26,453.27,744.18Z" style="fill: #ababab"/>
        <path d="M409.17,761.57a1,1,0,0,1-.88-.54c-13.24-25.12,6.17-37.38,6.37-37.5a1,1,0,0,1,1.37.33,1,1,0,0,1-.33,1.38c-.74.45-18,11.43-5.65,34.86a1,1,0,0,1-.88,1.47Z"/>
        <path d="M380.33,760.07a1,1,0,0,1-.9-.55c-4.73-9.4-5.87-17.68-3.41-24.59a20.71,20.71,0,0,1,10.13-11.49,1,1,0,1,1,.81,1.82,19.11,19.11,0,0,0-9.07,10.37c-2.26,6.38-1.14,14.11,3.33,23a1,1,0,0,1-.45,1.34A.87.87,0,0,1,380.33,760.07Z"/>
        <path d="M348.24,753.87a1,1,0,0,1-.88-.52c-5.65-10.34-6.9-19.47-3.69-27.14,4.88-11.69,18.21-15.63,18.78-15.79a1,1,0,0,1,.55,1.93c-.13,0-13,3.84-17.49,14.64-2.95,7.08-1.74,15.62,3.61,25.39a1,1,0,0,1-.4,1.36A.94.94,0,0,1,348.24,753.87Z"/>
        <path d="M445.55,760.4a1,1,0,0,1-1-.93c-.61-9-5.56-12.34-5.77-12.48a1,1,0,0,1-.29-1.38,1,1,0,0,1,1.37-.3c.25.15,6,4,6.69,14a1,1,0,0,1-.93,1.07Z"/>
        <path d="M433.22,761.12h-.11a1,1,0,0,1-.88-1.11,11.2,11.2,0,0,0-3.84-9.63,1,1,0,1,1,1.22-1.58,13.06,13.06,0,0,1,4.61,11.44A1,1,0,0,1,433.22,761.12Z"/>
        <g>
          <path d="M307.4,699.12c-1.39-23.61,5.74-64.25,44.74-82.6s60.8,10.32,74.56,37.86,21.8,58.5-29.82,80.3S309.69,738.12,307.4,699.12Z" style="fill: #fff"/>
          <path d="M375.47,610.72c24.87,0,40.5,22.18,51.24,43.66,13.76,27.53,21.79,58.5-29.83,80.3C381.8,741,368.08,744,356.17,744c-28.86,0-47.15-17.26-48.77-44.87-1.39-23.61,5.74-64.25,44.74-82.6,8.57-4,16.32-5.8,23.33-5.8m0-2v0h0c-7.6,0-15.74,2-24.18,6-36.49,17.17-47.63,54.92-45.89,84.52,1.7,28.84,21.15,46.76,50.77,46.76,12.65,0,26.61-3.19,41.49-9.47,21.18-8.94,33.92-19.92,39-33.56,6.22-16.84-.62-34.46-8.13-49.48-9.6-19.21-25.55-44.76-53-44.76Z"/>
        </g>
        <path d="M377.62,741.17c-69.07,5-69.07-68.44-42.19-114-24.39,20.57-29.19,52.2-28,71.94C309.4,733.05,336.59,751.34,377.62,741.17Z" style="fill: #ababab"/>
        <g>
          <path d="M449.65,628s3.44,118.16,31,130.78,37.86-12.62,31-26.39-17.2-71.12-9.17-95.21S449.65,628,449.65,628Z" style="fill: #fff"/>
          <path d="M483.52,623.43c12.33,0,22.49,3,18.9,13.74-8,24.09,2.29,81.45,9.17,95.21,5.58,11.15-.13,29.82-17.12,29.82a33.5,33.5,0,0,1-13.85-3.43c-27.53-12.62-31-130.78-31-130.78s18.6-4.56,33.87-4.56m0-2c-15.33,0-33.58,4.43-34.35,4.62a2,2,0,0,0-1.52,2c0,.3.91,30,5.18,60.87,5.81,42,14.88,66.13,27,71.67a35.71,35.71,0,0,0,14.68,3.61,19.93,19.93,0,0,0,17.6-9.61c4.26-6.88,4.78-16.16,1.31-23.1s-7.68-25.1-10-43.1c-2.81-22-2.48-40.41.92-50.59,1.35-4.08,1.05-7.51-.9-10.22-3-4.14-9.49-6.15-19.9-6.15Z"/>
        </g>
        <path d="M464.71,625.08c-8.51,1.3-15.06,2.91-15.06,2.91s3.44,118.16,31,130.78c6.41,2.93,11.87,3.8,16.42,3.26C466.8,736.77,464.35,658.13,464.71,625.08Z" style="fill: #ababab"/>
        <path d="M479,667.42c-14.3,0-27.67-7.12-28.52-7.58a1,1,0,1,1,1-1.75c.3.16,30.27,16.09,47.64.14a1,1,0,1,1,1.35,1.47C494.17,665.49,486.48,667.42,479,667.42Z"/>
        <path d="M479.47,692c-13.46,0-25.6-7.08-25.79-7.19a1,1,0,0,1,1-1.72c.28.17,28.22,16.43,45.26-1.51a1,1,0,1,1,1.45,1.37C494.91,689.84,487,692,479.47,692Z"/>
        <path d="M484.36,720.33c-14.06,0-26.11-8-26.29-8.12a1,1,0,1,1,1.12-1.65c.26.17,26.19,17.35,45.44.08a1,1,0,1,1,1.33,1.49A31.46,31.46,0,0,1,484.36,720.33Z"/>
        <g>
          <circle cx="477.18" cy="618.81" r="33.27" style="fill: #fff"/>
          <path d="M477.18,585.55a33.27,33.27,0,1,1-33.27,33.26,33.27,33.27,0,0,1,33.27-33.26m0-2a35.27,35.27,0,1,0,35.27,35.26,35.31,35.31,0,0,0-35.27-35.26Z"/>
        </g>
        <path d="M477.18,652.08h.45c-30.28-12.61-25.69-48.17-15.36-63a33.26,33.26,0,0,0,14.91,63Z" style="fill: #ababab"/>
        <g>
          <circle cx="478.33" cy="618.81" r="16.06"/>
          <path d="M478.33,635.87a17.06,17.06,0,1,1,17.06-17.06A17.08,17.08,0,0,1,478.33,635.87Zm0-32.12a15.06,15.06,0,1,0,15.06,15.06A15.08,15.08,0,0,0,478.33,603.75Z" style="fill: #1d1d1b"/>
        </g>
        <g>
          <circle cx="371.64" cy="668.14" r="32.12" style="fill: #fff"/>
          <path d="M371.64,638a30.12,30.12,0,1,1-30.12,30.12A30.15,30.15,0,0,1,371.64,638m0-2a32.12,32.12,0,1,0,32.12,32.12A32.12,32.12,0,0,0,371.64,636Z"/>
        </g>
        <g>
          <circle cx="368.2" cy="668.14" r="18.35"/>
          <path d="M368.2,687.5a19.36,19.36,0,1,1,19.35-19.36A19.39,19.39,0,0,1,368.2,687.5Zm0-36.71a17.36,17.36,0,1,0,17.35,17.35A17.37,17.37,0,0,0,368.2,650.79Z" style="fill: #1d1d1b"/>
        </g>
        <g>
          <path d="M432.44,304.49s-58.5,82.6-52.77,141.1S462.11,548.84,530,548.84c89.48,0,128.48-84.89,128.48-84.89L630.9,384.79s4.59-68.83-28.68-80.3c0,0-28.68,13.77-43.59,48.18,0,0-44.74-11.47-82.6-1.15C476,351.52,456.53,310.23,432.44,304.49Z" style="fill: #fff"/>
          <path d="M602.36,306.67c30.58,11.68,26.59,77.32,26.54,78a2.1,2.1,0,0,0,.11.79l27.26,78.37a169.49,169.49,0,0,1-30,41.27,145.5,145.5,0,0,1-39.4,28.72,128.18,128.18,0,0,1-56.87,13c-33.24,0-68.72-10.7-97.34-29.36-30.23-19.71-48.32-45.31-50.95-72.08-2.91-29.74,11.45-66.09,24-91.35a416.24,416.24,0,0,1,27.61-47.26c22.3,6.61,40.76,45.19,40.94,45.59a2,2,0,0,0,1.81,1.15,2,2,0,0,0,.53-.08,134.52,134.52,0,0,1,35.16-4.23,211.09,211.09,0,0,1,46.41,5.39,2.14,2.14,0,0,0,.5.06,2,2,0,0,0,1.83-1.2c13.12-30.27,37.4-44.39,41.9-46.8m-.14-2.18s-28.68,13.77-43.59,48.18a211,211,0,0,0-46.91-5.45,137.29,137.29,0,0,0-35.69,4.3s-19.5-41.29-43.59-47c0,0-58.5,82.6-52.77,141.1S462.11,548.84,530,548.84c89.48,0,128.48-84.89,128.48-84.89L630.9,384.79s4.59-68.83-28.68-80.3Z"/>
        </g>
        <g>
          <path d="M412.94,368.73s5.73-22.94,19.5-36.71c0,0,11.47,5.74,18.36,20.65C450.8,352.67,430.15,356.11,412.94,368.73Z"/>
          <path d="M412.94,369.73a1,1,0,0,1-.56-.17,1,1,0,0,1-.41-1.07c.24-.95,6-23.37,19.76-37.17a1,1,0,0,1,1.16-.19c.48.24,11.86,6.06,18.81,21.12a1,1,0,0,1,0,.89,1,1,0,0,1-.72.52c-.21,0-20.62,3.55-37.43,15.88A1,1,0,0,1,412.94,369.73Zm19.68-36.46c-10.32,10.66-16,26.7-17.94,33,14.19-9.59,30.08-13.4,34.66-14.34A45.11,45.11,0,0,0,432.62,333.27Z" style="fill: #1d1d1b"/>
        </g>
        <g>
          <path d="M585,356.11s10.33-18.35,19.51-24.09c0,0,10.32,10.33,10.32,36.71C614.84,368.73,597.63,355,585,356.11Z"/>
          <path d="M614.84,369.73a1,1,0,0,1-.63-.22c-.16-.13-17-13.48-29.11-12.4a1,1,0,0,1-1-1.49c.43-.76,10.56-18.64,19.84-24.44a1,1,0,0,1,1.24.14c.44.43,10.62,10.92,10.62,37.41a1,1,0,0,1-.57.9A.91.91,0,0,1,614.84,369.73Zm-28-14.68c10.35.12,22.62,8.42,27,11.65-.44-20.76-7.48-30.89-9.49-33.36C597.2,338.28,589.41,350.67,586.8,355.05Z" style="fill: #1d1d1b"/>
        </g>
        <g>
          <path d="M469.15,377.91c-28.61,11.65-57.36,20.65-53.92,75.71s84.89,81.45,126.19,75.72,81.45-29.83,90.63-71.13S616,383.65,589.6,379.06s-39,29.82-55.06,34.41S500.12,365.29,469.15,377.91Z" style="fill: #fff"/>
          <path d="M478.7,376c24.15,0,40,37.81,53.81,37.81a7.43,7.43,0,0,0,2-.29c15.06-4.3,27.09-34.83,50.29-34.83a27.33,27.33,0,0,1,4.77.42c26.39,4.59,51.62,37.85,42.45,79.15s-49.33,65.39-90.63,71.13a88.37,88.37,0,0,1-12,.77c-43.28,0-111-26.36-114.19-76.49-3.44-55.06,25.31-64.06,53.92-75.71a25.18,25.18,0,0,1,9.55-2m0-2a27.15,27.15,0,0,0-10.3,2.11l-3.77,1.52c-13.49,5.44-27.44,11.07-37.28,22-11.16,12.4-15.65,29.61-14.11,54.17.76,12.26,5.31,23.76,13.5,34.2,7.24,9.24,17.19,17.47,29.55,24.45,21.5,12.16,49.52,19.71,73.13,19.71a90.65,90.65,0,0,0,12.28-.79c21.7-3,42.39-11,58.26-22.59,17.88-13,29.65-30.34,34-50.09,4.61-20.72,1.11-41.15-9.85-57.51-8.71-13-21.18-21.78-34.21-24a29.67,29.67,0,0,0-5.11-.45c-14.59,0-24.82,11.11-33.84,20.92-5.85,6.37-11.38,12.38-17,14a5.29,5.29,0,0,1-1.48.21c-5.08,0-11.36-7-18-14.35-9.92-11-21.16-23.46-35.79-23.46Z"/>
        </g>
        <path d="M441.62,453.62c-3.28-52.51,22.72-63.13,49.95-74.11-6.7-3.66-14.1-5-22.42-1.6-28.61,11.65-57.36,20.65-53.92,75.71s84.89,81.45,126.19,75.72l.4-.07C499.31,524.45,444.43,498.61,441.62,453.62Z" style="fill: #ababab"/>
        <g>
          <line x1="332.06" y1="420.93" x2="395.16" y2="443.87" style="fill: #fff"/>
          <path d="M395.16,444.87a1,1,0,0,1-.34-.06l-63.1-22.94a1,1,0,0,1,.69-1.88l63.09,22.94a1,1,0,0,1-.34,1.94Z"/>
        </g>
        <g>
          <line x1="338.95" y1="471.4" x2="398.6" y2="459.93" style="fill: #fff"/>
          <path d="M339,472.4a1,1,0,0,1-.19-2L398.41,459a1,1,0,0,1,1.17.79,1,1,0,0,1-.79,1.17l-59.65,11.48Z"/>
        </g>
        <g>
          <line x1="644.09" y1="449.61" x2="706.04" y2="432.4" style="fill: #fff"/>
          <path d="M644.09,450.61a1,1,0,0,1-1-.73,1,1,0,0,1,.69-1.24l61.95-17.2a1,1,0,0,1,.54,1.92l-61.95,17.21A.84.84,0,0,1,644.09,450.61Z"/>
        </g>
        <g>
          <line x1="641.8" y1="473.7" x2="693.42" y2="484.02" style="fill: #fff"/>
          <path d="M693.42,485a.71.71,0,0,1-.2,0L641.6,474.68a1,1,0,0,1-.78-1.18,1,1,0,0,1,1.17-.78L693.62,483a1,1,0,0,1-.2,2Z"/>
        </g>
        <g>
          <path d="M405.61,516.53a51.28,51.28,0,0,0-3,11.66h0l1.73,1.72s84,80.21,185.4,28.06c0-2.74-.19-5.24-.4-7.55-.2.09-1.46-4.45-1.46-4.45S496.63,592.26,405.61,516.53Z"/>
          <path d="M406.54,519.88C441,547.82,479.24,562,520.28,562c34.08,0,59-9.9,66.31-13.2a17.18,17.18,0,0,0,.79,2.27c.16,1.84.27,3.75.33,5.71-22.1,11.17-45.13,16.83-68.46,16.83-34.16,0-63.18-12.25-81.52-22.52-19.92-11.17-31.9-22.5-32-22.58l-1-1a50.44,50.44,0,0,1,1.8-7.61m-.93-3.35a51.28,51.28,0,0,0-3,11.66h0l1.73,1.72s47.86,45.68,114.91,45.68c21.8,0,45.62-4.82,70.49-17.62,0-2.74-.19-5.24-.4-7.55h0a34.94,34.94,0,0,1-1.45-4.45s-27.61,14-67.6,14c-32.72,0-73.71-9.37-114.67-43.45Z" style="fill: #1d1d1b"/>
        </g>
        <g>
          <rect x="545.44" y="555.15" width="5.74" height="19.5" rx="1.58" style="fill: #fff"/>
          <path d="M549.59,555.15a1.57,1.57,0,0,1,1.58,1.57v16.35a1.58,1.58,0,0,1-1.58,1.58H547a1.57,1.57,0,0,1-1.57-1.58V556.72a1.57,1.57,0,0,1,1.57-1.57h2.58m0-2H547a3.57,3.57,0,0,0-3.57,3.57v16.35a3.58,3.58,0,0,0,3.57,3.58h2.58a3.58,3.58,0,0,0,3.58-3.58V556.72a3.57,3.57,0,0,0-3.58-3.57Z"/>
        </g>
        <path d="M502.42,762.06a1,1,0,0,1-.78-.37l-9.18-11.48a1,1,0,0,1,.16-1.4,1,1,0,0,1,1.4.15l9.18,11.48a1,1,0,0,1-.16,1.4A1,1,0,0,1,502.42,762.06Z"/>
        <path d="M510.45,754.53a1,1,0,0,1-.85-.47L505,746.68a1,1,0,0,1,1.7-1.06L511.3,753a1,1,0,0,1-.32,1.38A1,1,0,0,1,510.45,754.53Z"/>
        <g>
          <rect x="604.52" y="410.03" width="14.91" height="44.74" rx="5.86"/>
          <path d="M613.57,455.77h-3.19a6.87,6.87,0,0,1-6.87-6.86v-33a6.87,6.87,0,0,1,6.87-6.86h3.19a6.87,6.87,0,0,1,6.86,6.86v33A6.87,6.87,0,0,1,613.57,455.77ZM610.38,411a4.87,4.87,0,0,0-4.87,4.86v33a4.87,4.87,0,0,0,4.87,4.86h3.19a4.87,4.87,0,0,0,4.86-4.86v-33a4.87,4.87,0,0,0-4.86-4.86Z" style="fill: #1d1d1b"/>
        </g>
        <g>
          <rect x="462.27" y="410.03" width="14.91" height="44.74" rx="5.86"/>
          <path d="M471.32,455.77h-3.19a6.86,6.86,0,0,1-6.86-6.86v-33a6.86,6.86,0,0,1,6.86-6.86h3.19a6.87,6.87,0,0,1,6.86,6.86v33A6.87,6.87,0,0,1,471.32,455.77ZM468.13,411a4.87,4.87,0,0,0-4.86,4.86v33a4.87,4.87,0,0,0,4.86,4.86h3.19a4.87,4.87,0,0,0,4.86-4.86v-33a4.87,4.87,0,0,0-4.86-4.86Z" style="fill: #1d1d1b"/>
        </g>
        <path d="M538.24,506.81a34.25,34.25,0,0,1-9.06-1.27,1,1,0,1,1,.58-1.91c.12,0,11.87,3.48,18.46-1.68,3-2.34,4.52-6.16,4.53-11.36,0-.89,0-1.46,0-1.55a1,1,0,0,1,1-1h0a1,1,0,0,1,1,.95c0,.47,0,.92,0,1.36.17,2.44,1,7.79,5.15,10.92s10.64,3.35,19.2.56a1,1,0,1,1,.62,1.9c-9.23,3-16.31,2.72-21-.88a14.41,14.41,0,0,1-4.67-6.42,13.11,13.11,0,0,1-4.56,7.06C546.19,506.08,542,506.81,538.24,506.81Z"/>
        <g>
          <polygon points="543.72 474.27 554.2 487.61 564.36 474.27 543.72 474.27"/>
          <path d="M554.2,488.61a1,1,0,0,1-.79-.38l-10.48-13.34a1,1,0,0,1,.79-1.62h20.64a1,1,0,0,1,.9.56,1,1,0,0,1-.1,1.05L555,488.21a1,1,0,0,1-.79.4Zm-8.43-13.34,8.41,10.7,8.16-10.7Z" style="fill: #1d1d1b"/>
        </g>
        <g>
          <g>
            <path d="M591.06,592.69s-.69-14.51,12.55-17.82S615.87,592,615.87,592Z" style="fill: #fff"/>
            <path d="M591.06,593.69a1,1,0,0,1-1-1c0-.16-.56-15.38,13.31-18.84,3.33-.84,6.15-.34,8.36,1.47,5.65,4.63,5.17,16.22,5.14,16.71a1,1,0,0,1-1,.95l-24.82.66Zm15.3-18.19a10.57,10.57,0,0,0-2.51.33c-10.35,2.59-11.64,12.64-11.78,15.83l22.82-.6c0-2.75-.39-10.84-4.43-14.14A6.22,6.22,0,0,0,606.36,575.5Z" style="fill: #1d1d1b"/>
          </g>
          <g>
            <ellipse cx="604.02" cy="590.02" rx="14.15" ry="4.29" transform="translate(-30.95 33.44) rotate(-3.09)" style="fill: #fff"/>
            <path d="M601.81,595.37c-6.62,0-12.71-1.44-12.91-4.51a2.76,2.76,0,0,1,.77-2c1.9-2.13,7.4-3.75,14-4.11,7.5-.42,15.23,1,15.46,4.43a2.75,2.75,0,0,1-.77,2c-1.9,2.14-7.4,3.76-14,4.12C603.51,595.35,602.65,595.37,601.81,595.37Zm4.55-8.71c-.81,0-1.67,0-2.56.07-6.61.37-11.35,2-12.63,3.45a.87.87,0,0,0-.27.55c.07,1.12,4.85,3,13.35,2.57,6.61-.36,11.36-2,12.63-3.44a.87.87,0,0,0,.27-.55h0C617.09,588.3,613.25,586.66,606.36,586.66Z" style="fill: #1d1d1b"/>
          </g>
          <g>
            <ellipse cx="603.44" cy="593.43" rx="14.15" ry="4.29" transform="translate(-31.13 33.41) rotate(-3.09)" style="fill: #fff"/>
            <path d="M601.22,598.78c-6.61,0-12.7-1.44-12.9-4.51a2.72,2.72,0,0,1,.77-2c1.89-2.13,7.39-3.75,14-4.11,7.51-.42,15.24,1,15.47,4.43h0a2.74,2.74,0,0,1-.78,2c-1.89,2.14-7.39,3.76-14,4.12C602.93,598.76,602.07,598.78,601.22,598.78Zm4.56-8.71c-.81,0-1.67,0-2.57.07-6.6.37-11.35,2-12.62,3.45a.94.94,0,0,0-.28.55c.08,1.12,4.86,3,13.36,2.57,6.61-.36,11.35-2,12.62-3.44a.89.89,0,0,0,.28-.56h0C616.5,591.71,612.67,590.07,605.78,590.07Z" style="fill: #1d1d1b"/>
          </g>
          <path d="M599.05,604.94a1,1,0,0,1-1-1c0-3.44.09-6.92.3-10.34a1,1,0,1,1,2,.12c-.2,3.38-.3,6.82-.29,10.21a1,1,0,0,1-1,1Z" style="fill: #1d1d1b"/>
          <path d="M607.32,606.23h-.13a1,1,0,0,1-.86-1.12,76,76,0,0,0,.54-11.48,1,1,0,0,1,1-1,1,1,0,0,1,1,1,77.48,77.48,0,0,1-.56,11.79A1,1,0,0,1,607.32,606.23Z" style="fill: #1d1d1b"/>
        </g>
        <path d="M603.37,575.07a1,1,0,0,1-1-.85c-9-61.81-26.36-69.48-26.53-69.55a1,1,0,1,1,.74-1.85c.76.3,18.61,8.17,27.77,71.11a1,1,0,0,1-.85,1.13Z"/>
      </g>
      <path d="M180.1,800.07c-9.89,0-20.28-2-31.34-6a1,1,0,0,1-.61-1.27,1,1,0,0,1,1.28-.61c30.43,10.87,55.63,6.55,79.32-13.59,38.32-32.57,62.51-21.09,83.86-11,3.85,1.83,7.49,3.55,11.22,5.06,18.58,7.51,45.55,10.45,72.15,7.86,29.17-2.83,53.64-11.69,68.9-24.93,15.69-13.61,21.05-31,15.92-51.74-16.51-66.71-.9-117.69,15.11-148.71,17.35-33.62,38.92-51.72,39.14-51.9a1,1,0,0,1,1.41.13,1,1,0,0,1-.14,1.41c-.21.17-21.52,18.07-38.68,51.36-15.82,30.7-31.25,81.17-14.9,147.23,5.25,21.21-.48,39.78-16.55,53.73C432.86,786.1,361.9,790.3,323.08,774.61c-3.78-1.53-7.62-3.35-11.33-5.11-21.82-10.35-44.38-21-81.71,10.68C214.38,793.49,198.06,800.07,180.1,800.07Z"/>
      <g>
        <rect x="614.84" y="636.02" width="39" height="39"/>
        <path d="M653.84,676h-39a1,1,0,0,1-1-1V636a1,1,0,0,1,1-1h39a1,1,0,0,1,1,1v39A1,1,0,0,1,653.84,676Zm-38-2h37V637h-37Z" style="fill: #1d1d1b"/>
      </g>
      <g>
        <circle cx="634.34" cy="655.52" r="12.62" style="fill: #fff"/>
        <path d="M634.34,642.9a12.62,12.62,0,1,1-12.62,12.62,12.62,12.62,0,0,1,12.62-12.62m0-2A14.62,14.62,0,1,0,649,655.52a14.64,14.64,0,0,0-14.62-14.62Z"/>
      </g>
      <path d="M630.9,662.26a1,1,0,0,1-1-1V649.79a1,1,0,0,1,2,0v11.47A1,1,0,0,1,630.9,662.26Z"/>
      <path d="M638.93,662.26a1,1,0,0,1-1-1V649.79a1,1,0,0,1,2,0v11.47A1,1,0,0,1,638.93,662.26Z"/>
      <path d="M622.22,574a1,1,0,0,1-.5-1.87l9.62-5.51a1,1,0,0,1,1.37.37,1,1,0,0,1-.37,1.36l-9.63,5.52A1,1,0,0,1,622.22,574Z" style="fill: #1d1d1b"/>
      <path d="M642.77,586.27H624.89a1,1,0,1,1,0-2h17.88a1,1,0,0,1,0,2Z" style="fill: #1d1d1b"/>
      <path d="M358.88,593.59a1.08,1.08,0,0,1-.54-.15,1,1,0,0,1-.3-1.39l7.33-11.46a1,1,0,1,1,1.69,1.08l-7.34,11.46A1,1,0,0,1,358.88,593.59Z" style="fill: #1d1d1b"/>
      <path d="M360.05,604.54a.87.87,0,0,1-.32-.06,1,1,0,0,1-.62-1.27,53.48,53.48,0,0,1,5.89-12,1,1,0,1,1,1.68,1.1A51.44,51.44,0,0,0,361,603.86,1,1,0,0,1,360.05,604.54Z" style="fill: #1d1d1b"/>
      <path d="M427.26,705.47a1,1,0,0,1-.66-.24l-6.88-6a1,1,0,0,1-.1-1.42,1,1,0,0,1,1.41-.1l6.88,6a1,1,0,0,1-.65,1.76Z" style="fill: #1d1d1b"/>
      <path d="M420.76,707.33h-.16a1,1,0,0,1-.83-1.16A17.05,17.05,0,0,1,425.69,696,1,1,0,0,1,427,697.5a14.94,14.94,0,0,0-5.21,9A1,1,0,0,1,420.76,707.33Z" style="fill: #1d1d1b"/>
      <path d="M385.5,627.54a1,1,0,0,1-.67-1.74l6.78-6.08a1,1,0,0,1,1.33,1.49l-6.77,6.08A1,1,0,0,1,385.5,627.54Z" style="fill: #1d1d1b"/>
      <path d="M390.14,627.49a1,1,0,0,1-.74-.32l-5.48-6a1,1,0,1,1,1.47-1.36l5.49,6a1,1,0,0,1-.07,1.41A1,1,0,0,1,390.14,627.49Z" style="fill: #1d1d1b"/>
      <path d="M324.05,725.22a1,1,0,0,1-.6-1.8l6.88-5a1,1,0,0,1,1.19,1.62l-6.88,5A1,1,0,0,1,324.05,725.22Z" style="fill: #1d1d1b"/>
      <path d="M330.51,728.87a1,1,0,0,1-.86-.49l-6.29-10.63a1,1,0,0,1,1.72-1l6.29,10.63a1,1,0,0,1-.35,1.37A1.06,1.06,0,0,1,330.51,728.87Z" style="fill: #1d1d1b"/>
      <path d="M563.43,631.67a.93.93,0,0,1-.5-.14,1,1,0,0,1-.36-1.36l3.21-5.51a1,1,0,1,1,1.73,1l-3.21,5.5A1,1,0,0,1,563.43,631.67Z" style="fill: #1d1d1b"/>
      <path d="M560.17,626.14a1.06,1.06,0,0,1-.45-.11,1,1,0,0,1-.44-1.34l4.58-9.17a1,1,0,1,1,1.79.89l-4.59,9.18A1,1,0,0,1,560.17,626.14Z" style="fill: #1d1d1b"/>
    </g>
    <g id="eb3ffcb6-0028-4a63-8c0f-9aa4fbf5e3ec" data-name="pattern">
      <path d="M761.38,545.14l-.5,0a5.27,5.27,0,0,1-3.66-7.81,1,1,0,0,1,.33-.32.92.92,0,0,1,.23-.39,5,5,0,0,1,7.53,6.52A5,5,0,0,1,761.38,545.14Zm-2.37-7a1.15,1.15,0,0,1-.12.25,3,3,0,1,0,4.85,3.48,3,3,0,0,0,.61-2.85,3.3,3.3,0,0,0-5.12-1.06A1,1,0,0,1,759,538.14Z" style="fill: #1d1d1b"/>
      <path d="M380.42,385.85a1.09,1.09,0,0,1-.39-.08,1,1,0,0,1-.53-1.32,535.67,535.67,0,0,1,37-71.35,1,1,0,1,1,1.7,1,533.53,533.53,0,0,0-36.86,71.09A1,1,0,0,1,380.42,385.85Z" style="fill: #1d1d1b"/>
      <path d="M660.14,307.86a1,1,0,0,1-.62-.23,1,1,0,0,1-.15-1.4,53.24,53.24,0,0,1,30-18.59,1,1,0,1,1,.43,1.95,51.32,51.32,0,0,0-28.86,17.89A1,1,0,0,1,660.14,307.86Z" style="fill: #1d1d1b"/>
      <path d="M205,602.39a1,1,0,0,1-.95-.69,28.5,28.5,0,0,1,8.15-29.19c-1.12-5.87.86-12.22,3.94-16.73,4.36-6.39,11.06-10.86,17-14.81a1,1,0,1,1,1.11,1.66c-5.76,3.85-12.29,8.21-16.43,14.27a21.63,21.63,0,0,0-3.8,14.16c2.6-1.9,6.45-3.9,10.7-3.42,3.94.44,8.2,3.71,8.24,8.23,0,4.19-3.92,8-8.46,8.07h-.22c-3.8,0-7.7-2.37-10-6.09a15.82,15.82,0,0,1-1.48-3.15A26.47,26.47,0,0,0,206,601.09a1,1,0,0,1-.64,1.26A1.1,1.1,0,0,1,205,602.39Zm9.42-29.14a13.62,13.62,0,0,0,1.54,3.56,10.23,10.23,0,0,0,8.29,5.13h.17c3.43-.08,6.53-3,6.51-6.05,0-3.32-3.36-5.92-6.46-6.26-3.84-.45-7.4,1.58-9.7,3.35Z" style="fill: #1d1d1b"/>
      <path d="M354.4,253.42a8.34,8.34,0,0,1-2-.23,7.33,7.33,0,0,1-5.36-4.54,1,1,0,0,1,.6-1.27l.09,0h-.12a1,1,0,0,1-1-1,7.37,7.37,0,1,1,12.62,5.19A7,7,0,0,1,354.4,253.42Zm-6.39-6.1a1,1,0,0,1,.94.67,5.09,5.09,0,1,0-.31-1.66,1,1,0,0,1-.75,1Z" style="fill: #1d1d1b"/>
    </g>
  </g>
</svg>
