<svg xmlns="http://www.w3.org/2000/svg" width="1000" height="1000" viewBox="0 0 1000 1000">
  <g id="a2980a87-130e-450a-b2d8-d0373f080823" data-name="Account Deactivated">
    <g id="b82dd899-2cf6-4081-9249-cfeeb4e8da39" data-name="background">
      <g>
        <path d="M461.31,367.87a1.5,1.5,0,0,1-1.29-2.26c3.37-5.7,6.39-11,9.25-16.11,14.61-26.26,24.52-48.52,31.2-70.06,8-25.84,11-50.55,9-73.44a162.16,162.16,0,0,0-18-60.25,171.91,171.91,0,0,0-39.37-49.67,160.19,160.19,0,0,0-57.27-31.87,176.58,176.58,0,0,0-69.29-7,171.27,171.27,0,0,0-115.77,60.9,185.89,185.89,0,0,0-32.35,55.08A178.42,178.42,0,0,0,166,237.72a1.5,1.5,0,0,1-1.49,1.51h0a1.5,1.5,0,0,1-1.5-1.48,181.37,181.37,0,0,1,11.62-65.59,188.9,188.9,0,0,1,32.87-56A174.27,174.27,0,0,1,325.21,54.25a179.76,179.76,0,0,1,70.48,7.1A163.11,163.11,0,0,1,454,93.81a174.7,174.7,0,0,1,40.06,50.55,165.08,165.08,0,0,1,18.35,61.37c2.09,23.29-1,48.38-9.09,74.6-6.75,21.74-16.74,44.19-31.45,70.63-2.87,5.16-5.91,10.45-9.29,16.17A1.46,1.46,0,0,1,461.31,367.87Z" style="fill: #dbdbdb"/>
        <path d="M366.9,433.42c-4,0-8.08-.13-12.13-.34a207.64,207.64,0,0,1-63.2-13.28,204.93,204.93,0,0,1-56.3-32.15,191.89,191.89,0,0,1-42.6-48.28A198.64,198.64,0,0,1,168,279.62c-.61-2.6-1.17-5.26-1.67-7.89a1.5,1.5,0,1,1,2.95-.56c.49,2.59,1,5.21,1.64,7.77a195.43,195.43,0,0,0,24.3,58.85,188.9,188.9,0,0,0,41.94,47.52A201.46,201.46,0,0,0,292.63,417a204.8,204.8,0,0,0,62.29,13.09c22,1.12,44.21.19,57.57-13.94a1.5,1.5,0,1,1,2.18,2.06C403,430.54,385.41,433.42,366.9,433.42Z" style="fill: #dbdbdb"/>
        <path d="M164.15,239.49a1.49,1.49,0,0,1-.92-.32c-19.61-15.24-34.9-30.65-46.76-47.13l-.29-.41c-5.72-7.93-14.35-19.92-7.48-30,6.15-9,21.1-9.64,30-10a96.91,96.91,0,0,1,40,6.81,1.5,1.5,0,1,1-1.12,2.78,93.77,93.77,0,0,0-38.71-6.59c-8.37.36-22.38,1-27.68,8.72-5.68,8.34,2.21,19.3,7.43,26.55l.3.41c11.68,16.24,26.78,31.45,46.16,46.51a1.51,1.51,0,0,1,.26,2.11A1.49,1.49,0,0,1,164.15,239.49Z" style="fill: #dbdbdb"/>
        <path d="M473.38,380.51a1.47,1.47,0,0,1-.36,0c-114.77-28.76-218.08-75.6-307.08-139.21a1.5,1.5,0,1,1,1.75-2.44c88.68,63.39,191.66,110.07,306.06,138.74a1.5,1.5,0,0,1-.37,2.95Z" style="fill: #dbdbdb"/>
        <path d="M512.08,429.41h-.14c-50.05-4.66-100.82-20.56-159.8-50l-7.66-3.9c-63.85-32.46-124.16-63.12-180-104.35a1.5,1.5,0,1,1,1.78-2.41c55.65,41.08,115.85,71.69,179.59,104.09l7.65,3.89c58.62,29.31,109.06,45.12,158.73,49.75a1.5,1.5,0,0,1-.14,3Z" style="fill: #dbdbdb"/>
        <path d="M161.55,268.49a1.5,1.5,0,0,1-.92-.31A407.27,407.27,0,0,1,117.43,230C83.56,195.27,76,165.45,95.63,143.77c24.59-27.18,62.61-18.7,96.31-8.63a1.5,1.5,0,1,1-.86,2.87c-32.82-9.81-69.8-18.11-93.22,7.77-23.22,25.66-1,58.83,21.72,82.14a404.42,404.42,0,0,0,42.88,37.88,1.5,1.5,0,0,1-.91,2.69Z" style="fill: #dbdbdb"/>
        <path d="M235.75,160.87a11.28,11.28,0,0,1-9.29-4.25c-2.16-2.89-2.74-6.9-1.77-12.24A49,49,0,0,1,244,113.93a10.76,10.76,0,0,1,4.18-2.7c.57-.33,1.14-.64,1.73-1a1.5,1.5,0,0,1,1.65.19,12.34,12.34,0,0,1,8.93,2.57c6,4.95,6.52,13.62,4.35,20-2.27,6.7-7.13,12.14-11.43,16.94-3.2,3.58-6.82,7.64-11.74,9.7A15.25,15.25,0,0,1,235.75,160.87Zm6.38-41.6a45.89,45.89,0,0,0-14.49,25.64c-.81,4.48-.41,7.73,1.23,9.92,2.57,3.45,7.89,3.66,11.61,2.1,4.29-1.81,7.68-5.6,10.67-8.94,4.1-4.59,8.75-9.79,10.82-15.9,1.78-5.24,1.47-12.71-3.42-16.74a9.67,9.67,0,0,0-9-1.42l-.11,0c-1.17.68-2.3,1.42-3.4,2.2a6,6,0,0,0-1.31,2.47,1.5,1.5,0,0,1-1.82,1.09A1.41,1.41,0,0,1,242.13,119.27Z" style="fill: #dbdbdb"/>
        <path d="M250.42,205a7.63,7.63,0,0,1-1.16-.08,6.54,6.54,0,0,1-5.56-4.28,1.5,1.5,0,0,1,2.85-.94,3.61,3.61,0,0,0,3.12,2.25,4.38,4.38,0,0,0,4.29-1.6,4.85,4.85,0,0,0,.43-4.24A6,6,0,0,0,251,192.3c-3.11-1.13-7.09.54-8.88,3.72a1.5,1.5,0,1,1-2.61-1.47c2.52-4.48,8-6.71,12.51-5.07a8.93,8.93,0,0,1,5.27,5.66,7.88,7.88,0,0,1-.8,6.85A7.23,7.23,0,0,1,250.42,205Z" style="fill: #dbdbdb"/>
        <path d="M247.43,368.48a9.39,9.39,0,0,1-5.06-1.55,8.57,8.57,0,0,1-4-6,1.49,1.49,0,0,1-1.29-1.63A9.4,9.4,0,0,1,242.3,352a9.09,9.09,0,0,1,8.66-.14,9,9,0,0,1,4.32,7.84,8.61,8.61,0,0,1-4,7.71A7.58,7.58,0,0,1,247.43,368.48Zm-7-10.44a1.51,1.51,0,0,1,.86,1.53,5.34,5.34,0,0,0,2.68,4.84,5.58,5.58,0,0,0,5.77.46,5.65,5.65,0,0,0,2.51-5.09,6,6,0,0,0-2.78-5.26,6.12,6.12,0,0,0-5.82.18A7.06,7.06,0,0,0,240.46,358Z" style="fill: #dbdbdb"/>
        <path d="M338.51,206.59c-5.21,0-9.27-4.62-10.24-9.25-.84-4.05,0-8.57,2.61-13.8,2.92-5.88,6.62-9.59,11-11a11.6,11.6,0,0,1,9.44,1.19,8.45,8.45,0,0,1,4.08,5.93,1.5,1.5,0,0,1-3,.43,5.48,5.48,0,0,0-2.69-3.81,8.65,8.65,0,0,0-6.93-.89c-3.58,1.17-6.68,4.36-9.23,9.49-2.29,4.61-3.06,8.49-2.36,11.86s3.85,7.05,7.64,6.85a1.5,1.5,0,1,1,.17,3Z" style="fill: #dbdbdb"/>
        <path d="M385.7,116.77a1.48,1.48,0,0,1-.8-.23,8.94,8.94,0,1,1,14-7.07,1.5,1.5,0,1,1-3-.2,5.94,5.94,0,1,0-9.38,4.73,1.51,1.51,0,0,1,.46,2.08A1.5,1.5,0,0,1,385.7,116.77Z" style="fill: #dbdbdb"/>
        <path d="M478.21,216.44c-.26,0-.53,0-.79,0a1.5,1.5,0,0,1,.3-3,5.26,5.26,0,0,0,4.36-1.78,10.76,10.76,0,0,0,2.6-8.5c-.49-3.36-2.06-6.41-3.72-9.65-.94-1.84-1.91-3.73-2.69-5.71-2.48-6.37-2.78-13.26-3.06-19.92-.07-1.73-.14-3.46-.25-5.18-.68-10.49-3.2-17.45-7.94-21.88-7.82-7.33-20.38-6.14-29.36-1.71-7.07,3.48-13.19,8.87-19.12,14.07-2.21,1.94-4.49,3.95-6.8,5.84-2.1,1.72-4.3,3.41-6.43,5-7,5.35-14.19,10.89-18.84,18.26-5.87,9.29-6.24,23.39,2.56,29.56a1.5,1.5,0,1,1-1.72,2.46c-10.21-7.16-10-23.16-3.38-33.62,4.94-7.82,12.37-13.53,19.55-19,2.11-1.62,4.29-3.3,6.36-5,2.27-1.86,4.53-3.85,6.72-5.77,6.07-5.34,12.35-10.85,19.78-14.52,9.9-4.88,23.86-6.09,32.73,2.22,7,6.55,8.42,16.76,8.88,23.88.11,1.74.19,3.49.26,5.24.27,6.42.55,13.05,2.86,19a58.21,58.21,0,0,0,2.56,5.43c1.7,3.31,3.45,6.73,4,10.58a13.79,13.79,0,0,1-3.4,11A8.32,8.32,0,0,1,478.21,216.44Z" style="fill: #dbdbdb"/>
        <path d="M411.53,224.09a1.46,1.46,0,0,1-1-.35l-30.41-25.28a1.5,1.5,0,0,1,1.92-2.31l30.41,25.29a1.5,1.5,0,0,1,.19,2.11A1.48,1.48,0,0,1,411.53,224.09Z" style="fill: #dbdbdb"/>
        <path d="M429.12,225.44a1.48,1.48,0,0,1-1.17-.56,262.57,262.57,0,0,0-38.49-38.82,1.5,1.5,0,1,1,1.9-2.32A265.2,265.2,0,0,1,430.29,223a1.49,1.49,0,0,1-.24,2.1A1.41,1.41,0,0,1,429.12,225.44Z" style="fill: #dbdbdb"/>
        <path d="M455.28,230.82a1.53,1.53,0,0,1-1-.42l-55.65-53.61a1.5,1.5,0,1,1,2.09-2.16l55.65,53.61a1.51,1.51,0,0,1,0,2.12A1.49,1.49,0,0,1,455.28,230.82Z" style="fill: #dbdbdb"/>
        <path d="M469.29,220a1.49,1.49,0,0,1-1.06-.44l-53.39-53.78a1.5,1.5,0,0,1,2.13-2.11l53.38,53.77a1.5,1.5,0,0,1,0,2.12A1.53,1.53,0,0,1,469.29,220Z" style="fill: #dbdbdb"/>
        <path d="M475,211a1.5,1.5,0,0,1-1.14-.53l-43.36-51.09a1.62,1.62,0,0,1-.28.42,1.51,1.51,0,0,1-2.12.08,5.2,5.2,0,0,1-1.09-6,1.49,1.49,0,0,1,1.16-.82,1.48,1.48,0,0,1,1.32.52l46.66,55a1.5,1.5,0,0,1-.18,2.11A1.48,1.48,0,0,1,475,211Z" style="fill: #dbdbdb"/>
        <path d="M473.3,185.48a1.51,1.51,0,0,1-1-.41,259.6,259.6,0,0,1-37-43.32,1.5,1.5,0,1,1,2.48-1.69,256.76,256.76,0,0,0,36.55,42.82,1.49,1.49,0,0,1,.07,2.12A1.47,1.47,0,0,1,473.3,185.48Z" style="fill: #dbdbdb"/>
        <path d="M464.79,147.7a1.5,1.5,0,0,1-1.39-.93,13.63,13.63,0,0,0-10.21-8.12,1.5,1.5,0,1,1,.49-3,16.73,16.73,0,0,1,12.5,9.94,1.49,1.49,0,0,1-.82,2A1.42,1.42,0,0,1,464.79,147.7Z" style="fill: #dbdbdb"/>
        <path d="M281.08,305.66H281a5.21,5.21,0,0,1-3.88-2.27,8.56,8.56,0,0,1-1.16-6.87,21.88,21.88,0,0,1,2.13-4.85,22.33,22.33,0,0,0,1.73-3.7c1.5-4.68-.49-10.66-5.33-16-1.65-1.81-3.52-3.53-5.33-5.19a56,56,0,0,1-8.19-8.7,56.78,56.78,0,0,1-4.62-8.52c-1.9-4.05-3.7-7.88-6.68-10.81-4.86-4.79-12.8-6.8-21.78-5.53a45.78,45.78,0,0,0-31.46,20,1.5,1.5,0,1,1-2.51-1.64,48.84,48.84,0,0,1,33.55-21.32c9.91-1.4,18.77.91,24.31,6.36,3.36,3.31,5.36,7.56,7.29,11.67a53.93,53.93,0,0,0,4.36,8.07,52.53,52.53,0,0,0,7.76,8.22c1.86,1.71,3.78,3.47,5.52,5.39,2.68,2.94,8.62,10.68,6,18.92a24,24,0,0,1-1.94,4.2,19.54,19.54,0,0,0-1.87,4.19,5.58,5.58,0,0,0,.71,4.37,2.2,2.2,0,0,0,1.65,1,1.5,1.5,0,0,1-.11,3Z" style="fill: #dbdbdb"/>
        <path d="M218.8,274.92a1.5,1.5,0,0,1-1.33-.8l-15.63-29.49a1.5,1.5,0,0,1,2.65-1.4l15.63,29.48a1.5,1.5,0,0,1-.62,2A1.52,1.52,0,0,1,218.8,274.92Z" style="fill: #dbdbdb"/>
        <path d="M240.58,286.63a1.5,1.5,0,0,1-1.32-.78l-26-47.42A1.5,1.5,0,1,1,215.9,237l26,47.42a1.51,1.51,0,0,1-.59,2A1.57,1.57,0,0,1,240.58,286.63Z" style="fill: #dbdbdb"/>
        <path d="M263.75,298.14a1.5,1.5,0,0,1-1.34-.81l-34.49-66.27a1.5,1.5,0,0,1,2.66-1.39L265.08,296a1.5,1.5,0,0,1-.64,2A1.44,1.44,0,0,1,263.75,298.14Z" style="fill: #dbdbdb"/>
        <path d="M278.85,293.74a1.5,1.5,0,0,1-1.29-.73L251.28,248.9a1.5,1.5,0,0,1,2.58-1.54l26.28,44.11a1.51,1.51,0,0,1-.52,2.06A1.54,1.54,0,0,1,278.85,293.74Z" style="fill: #dbdbdb"/>
      </g>
      <g>
        <path d="M786.79,581.47a118.07,118.07,0,0,1-20.21-1.75c-25.29-4.4-48.51-16.5-65.37-34.1a1.5,1.5,0,1,1,2.17-2.07c16.42,17.13,39,28.93,63.72,33.21A112.1,112.1,0,0,0,880,528.05c25.6-39.08,24.6-88.19-2.56-125.12a1.5,1.5,0,0,1,2.42-1.77c27.91,37.94,29,88.4,2.65,128.54a114,114,0,0,1-95.74,51.77Z" style="fill: #dbdbdb"/>
        <path d="M714.93,388.16a1.48,1.48,0,0,1-1.06-.45,1.5,1.5,0,0,1,0-2.12c28.21-27.89,74.85-38,113.41-24.5a1.51,1.51,0,0,1,.92,1.91,1.49,1.49,0,0,1-1.91.92c-37.52-13.1-82.88-3.31-110.31,23.8A1.49,1.49,0,0,1,714.93,388.16Z" style="fill: #dbdbdb"/>
        <path d="M704.48,535.48a1.49,1.49,0,0,1-1.17-.57c-22.63-28.42-29.51-67.28-18.4-103.95a1.5,1.5,0,0,1,2.87.87C677,467.55,683.64,505.39,705.66,533a1.51,1.51,0,0,1-1.18,2.44Z" style="fill: #dbdbdb"/>
        <path d="M264.06,660.78a48.54,48.54,0,0,1-29.54-10.56c-10.85-8.44-17.65-20.42-18.65-32.88S219.64,592,229,581.89s21.71-15.72,34.12-15.72h.26c12.5.09,24.95,6,34.17,16.17S311.37,605.52,310.2,618a1.5,1.5,0,0,1-3-.28c1.1-11.61-3.24-23.75-11.89-33.32s-20.31-15.11-32-15.19h-.25c-11.57,0-23.19,5.37-31.91,14.76s-13.27,21.55-12.33,33.17,7.32,22.83,17.5,30.75,22.62,11.34,34.12,9.4c10.87-1.85,20.06-7.91,24.58-16.23,5-9.23,3.52-21-3.49-27.5a1.5,1.5,0,0,1,2-2.21c8,7.35,9.75,20.74,4.1,31.14-5,9.12-14.95,15.76-26.72,17.75A41.08,41.08,0,0,1,264.06,660.78Z" style="fill: #dbdbdb"/>
        <path d="M253.8,635.22a8.71,8.71,0,0,1-5.57-1.91,1.5,1.5,0,0,1,1.91-2.31,5.85,5.85,0,1,0-2-3.18,1.5,1.5,0,0,1-2.9.78,9.33,9.33,0,1,1,11.14,6.3A10.11,10.11,0,0,1,253.8,635.22Z" style="fill: #dbdbdb"/>
        <path d="M241.11,600.08a1.5,1.5,0,0,1,0-3c2.43,0,5.73-1,7-3.54a4.22,4.22,0,0,0-.26-3.89,2.65,2.65,0,0,0-2.1-1.42c-.9,0-1.63,1-1.79,2.06-.06.4-.12,1.35.63,1.55a1.5,1.5,0,0,1-.79,2.9c-2-.56-3.16-2.53-2.8-4.9s2.16-4.74,4.85-4.61a5.55,5.55,0,0,1,4.58,2.89,7.2,7.2,0,0,1,.36,6.76c-1.88,3.75-6.21,5.15-9.64,5.2Z" style="fill: #dbdbdb"/>
        <path d="M778.33,114a14,14,0,0,1-4.84-.87c-4.63-1.73-7.48-5.44-7.44-9.68a1.5,1.5,0,0,1,1.5-1.49h0a1.51,1.51,0,0,1,1.49,1.52c0,3.51,2.82,5.84,5.49,6.84,3.09,1.16,7.29,1.06,9.71-1.77,2-2.34,2.45-5.79,1.2-9.24-1.35-3.73-4.39-6.52-7.75-7.09a11.32,11.32,0,0,0-9.28,3,13.08,13.08,0,0,0-4.65,10.07,1.5,1.5,0,0,1-1.44,1.56,1.54,1.54,0,0,1-1.56-1.45,16.11,16.11,0,0,1,5.67-12.44,14.32,14.32,0,0,1,11.77-3.65,13.53,13.53,0,0,1,10.07,9c1.61,4.48,1,9-1.75,12.21A10.57,10.57,0,0,1,778.33,114Z" style="fill: #dbdbdb"/>
        <path d="M692.91,709.46a13.27,13.27,0,0,1-2.84-.31,11.52,11.52,0,0,1-8.53-6.87,1.51,1.51,0,0,1,2.81-1.08,8.08,8.08,0,1,0-.59-3,1.49,1.49,0,0,1-1.47,1.52,1.51,1.51,0,0,1-1.53-1.47,11.58,11.58,0,1,1,19.93,8.18A11,11,0,0,1,692.91,709.46Z" style="fill: #dbdbdb"/>
        <path d="M147.15,443.92a9.76,9.76,0,0,1-4.29-1,1.38,1.38,0,0,1-.5-.39,1.51,1.51,0,0,1-.6-.22,11.6,11.6,0,1,1,11.85-.43A11.89,11.89,0,0,1,147.15,443.92Zm-3.43-3.8a1.53,1.53,0,0,1,.45.13,7.45,7.45,0,1,0-.81-.45A1.59,1.59,0,0,1,143.72,440.12Z" style="fill: #dbdbdb"/>
        <path d="M786.66,370.5a1.5,1.5,0,0,1-.11-3,200.11,200.11,0,0,0,41.53-7.67,1.5,1.5,0,0,1,.86,2.88,204.19,204.19,0,0,1-42.16,7.78Z" style="fill: #dbdbdb"/>
        <path d="M882,428.29a1.51,1.51,0,0,1-1.47-1.19,90.61,90.61,0,0,1-1.64-27.19,1.5,1.5,0,1,1,3,.27,87.25,87.25,0,0,0,1.59,26.29,1.51,1.51,0,0,1-1.15,1.79Z" style="fill: #dbdbdb"/>
        <path d="M880.88,401.57a1.49,1.49,0,0,1-.76-.2c-2.67-1.57-6-1.52-9.47-1.46-1.11,0-2.26,0-3.38,0a32.4,32.4,0,0,1-22.79-10.77l-.81-.94c-1.66-1.95-3.23-3.78-5.29-4.11a10.05,10.05,0,0,0-1.76,0,7.65,7.65,0,0,1-4-.67c-2.41-1.33-3-4.3-3.24-5.9L826.52,362a1.5,1.5,0,0,1,1-1.7,1.5,1.5,0,0,1,1.19-2.41h0a29.38,29.38,0,0,1,22.14,10.51c.84,1,1.61,2.09,2.36,3.13a29.32,29.32,0,0,0,4.13,5,29.61,29.61,0,0,0,6.55,4c1.13.56,2.31,1.15,3.44,1.8a34.56,34.56,0,0,1,14.94,17.29,1.5,1.5,0,0,1-1.4,2Zm-8.34-4.68a24.84,24.84,0,0,1,5.45.48,31.6,31.6,0,0,0-12.14-12.53c-1.06-.61-2.19-1.17-3.29-1.72a24.5,24.5,0,0,1-11.78-9.89c-.75-1.05-1.46-2-2.23-3a26.37,26.37,0,0,0-19.3-9.41,1.53,1.53,0,0,1,.22.56l2.84,15.52c.28,1.54.67,3.22,1.74,3.81a5.27,5.27,0,0,0,2.5.3,11.86,11.86,0,0,1,2.29.09c3.16.5,5.26,2.95,7.11,5.12l.78.91a29.35,29.35,0,0,0,20.64,9.75c1,0,2.11,0,3.23,0Z" style="fill: #dbdbdb"/>
        <path d="M808.45,561a30.44,30.44,0,0,1-11.37-2.17,1.5,1.5,0,0,1-.83-1.95,1.83,1.83,0,0,1,.3-.46,3.91,3.91,0,0,1-.79-.63,3.83,3.83,0,0,1-1-3.09,5.16,5.16,0,0,1,3-3.84,13.14,13.14,0,0,1,2.94-.93l.82-.2a37.17,37.17,0,0,0,5.55-2.07c1.19-.52,2.43-1.06,3.69-1.52,4.26-1.54,7.94-1.66,10.93-.35a8.82,8.82,0,0,1,4.64,5,6.7,6.7,0,0,1-.19,5.28c-1.13,2.29-3.45,3.54-5.11,4.29A30.67,30.67,0,0,1,808.45,561Zm-9.21-4.56a28,28,0,0,0,20.57-.84c1.23-.56,3-1.47,3.65-2.89a3.71,3.71,0,0,0,.06-2.92,5.84,5.84,0,0,0-3-3.25c-2.26-1-5.19-.85-8.71.42-1.17.43-2.36,1-3.51,1.45a40.59,40.59,0,0,1-6,2.23l-.88.21a11.2,11.2,0,0,0-2.31.7A2.32,2.32,0,0,0,797.7,553a.84.84,0,0,0,.23.64.38.38,0,0,0,.18.12,1.5,1.5,0,0,1,1.62,1.38A1.48,1.48,0,0,1,799.24,556.4Z" style="fill: #dbdbdb"/>
        <path d="M732.27,391.47a45.82,45.82,0,0,1-22.48-5.9,1.5,1.5,0,1,1,1.48-2.61,42.71,42.71,0,0,0,26.53,5.15,1.5,1.5,0,0,1,.39,3A43.39,43.39,0,0,1,732.27,391.47Z" style="fill: #dbdbdb"/>
        <path d="M691.89,435.18A10.92,10.92,0,0,1,683,430c-1.77-2.81-2.58-6.39-2.47-10.95a39.72,39.72,0,0,1,28-36.37,1.52,1.52,0,0,1,1.57.48l2,2.35v-.09a1.51,1.51,0,0,1,1.5-1.44h.07A1.51,1.51,0,0,1,715,385.5a109.8,109.8,0,0,0,1.36,22.76c.34,2.1.82,5-.87,7.19a8.62,8.62,0,0,1-4.65,2.69,17.42,17.42,0,0,0-1.82.66c-2.84,1.29-4.57,4.41-6.25,7.43l-.29.53c-1.91,3.42-4.67,7.45-9.11,8.29A8.28,8.28,0,0,1,691.89,435.18Zm16.5-49.38c-13.9,4.53-24.52,18.65-24.87,33.27-.09,3.95.56,7,2,9.28,1.7,2.7,4.7,4.24,7.31,3.75,3.21-.61,5.45-4,7-6.81l.29-.52c1.82-3.28,3.89-7,7.62-8.7a19.4,19.4,0,0,1,2.16-.78c1.36-.44,2.53-.81,3.17-1.65.84-1.11.63-2.87.3-4.89a112.58,112.58,0,0,1-1.5-20,1.51,1.51,0,0,1-1.49-.5Z" style="fill: #dbdbdb"/>
        <path d="M836.36,383.32h-.05a1.48,1.48,0,0,1-1.45-1.54,82.53,82.53,0,0,0-1.93-20.31,1.5,1.5,0,0,1,2.93-.65,86.06,86.06,0,0,1,2,21.05A1.5,1.5,0,0,1,836.36,383.32Z" style="fill: #dbdbdb"/>
        <path d="M845.86,385.43a1.51,1.51,0,0,1-1.47-1.2l-4.23-20.65a1.5,1.5,0,1,1,2.93-.6l4.24,20.65a1.5,1.5,0,0,1-1.17,1.77A1.53,1.53,0,0,1,845.86,385.43Z" style="fill: #dbdbdb"/>
        <path d="M855.09,392.12a1.49,1.49,0,0,1-1.48-1.26l-2.47-15.47a1.5,1.5,0,0,1,3-.47l2.46,15.46a1.5,1.5,0,0,1-1.25,1.72Z" style="fill: #dbdbdb"/>
        <path d="M863.15,395.9a1.5,1.5,0,0,1-1.43-1.07l-4-13.25a1.5,1.5,0,1,1,2.87-.87l4,13.25a1.5,1.5,0,0,1-1,1.87A1.31,1.31,0,0,1,863.15,395.9Z" style="fill: #dbdbdb"/>
        <path d="M870.15,397.66a1.5,1.5,0,0,1-1.45-1.12l-2.43-9.11a1.5,1.5,0,1,1,2.9-.77l2.43,9.11a1.5,1.5,0,0,1-1.07,1.83A1.31,1.31,0,0,1,870.15,397.66Z" style="fill: #dbdbdb"/>
        <path d="M699.78,434.89a1.51,1.51,0,0,1-1-.39,72.89,72.89,0,0,1-15.92-21,1.5,1.5,0,0,1,2.56-1.56l.61.85a1.49,1.49,0,0,1,.28.85,70,70,0,0,0,14.49,18.62,1.5,1.5,0,0,1,.1,2.12A1.52,1.52,0,0,1,699.78,434.89Z" style="fill: #dbdbdb"/>
        <path d="M700.52,424a1.5,1.5,0,0,1-1.12-.49,87.1,87.1,0,0,1-14.16-21.44,1.5,1.5,0,1,1,2.72-1.27,83.84,83.84,0,0,0,13.67,20.7,1.49,1.49,0,0,1-.11,2.12A1.47,1.47,0,0,1,700.52,424Z" style="fill: #dbdbdb"/>
        <path d="M706,415.67a1.48,1.48,0,0,1-1.27-.71L692.84,396a1.5,1.5,0,0,1,2.55-1.59l11.84,18.95a1.5,1.5,0,0,1-.48,2.07A1.42,1.42,0,0,1,706,415.67Z" style="fill: #dbdbdb"/>
        <path d="M712.42,406.82a1.5,1.5,0,0,1-1.25-.68l-10.88-16.43a1.5,1.5,0,1,1,2.5-1.66l10.88,16.44a1.5,1.5,0,0,1-.42,2.08A1.55,1.55,0,0,1,712.42,406.82Z" style="fill: #dbdbdb"/>
        <path d="M813.33,559.07a1.41,1.41,0,0,1-.49-.09,27.06,27.06,0,0,1-10-6.24,1.5,1.5,0,1,1,2.1-2.14,24.13,24.13,0,0,0,8.93,5.55,1.5,1.5,0,0,1-.5,2.92Z" style="fill: #dbdbdb"/>
        <path d="M822.77,555.26a1.64,1.64,0,0,1-.64-.14,52.8,52.8,0,0,1-10.81-6.85,1.5,1.5,0,0,1,1.9-2.32,49.53,49.53,0,0,0,10.2,6.46,1.5,1.5,0,0,1,.71,2A1.51,1.51,0,0,1,822.77,555.26Z" style="fill: #dbdbdb"/>
        <path d="M854.25,510.89a1.5,1.5,0,0,1-.13-3c3.9-.35,7.62-3.54,9.47-8.11,1.76-4.36,1.86-9.26,1.95-14l.57-29.23c0-2.44.1-5.2-1-7.36-1.63-3.06-5.85-4.65-9.81-3.71-4.31,1-7.61,4.44-9.63,7.13-5.33,7.12-7.69,16.38-9.77,24.55-1.16,4.55-2.36,9.27-2.32,14,.05,5.09,1.65,9.45,4.5,12.3,3.17,3.18,8.15,4.13,11.58,2.22a1.5,1.5,0,1,1,1.46,2.62c-4.63,2.59-11,1.44-15.16-2.71-3.41-3.41-5.32-8.53-5.38-14.4,0-5.09,1.21-10,2.42-14.75,2.14-8.43,4.58-18,10.27-25.6,3.31-4.42,7.23-7.27,11.33-8.25,5.25-1.25,10.91,1,13.16,5.22,1.51,2.85,1.44,6.17,1.39,8.83l-.57,29.23c-.09,4.77-.2,10.18-2.17,15-2.27,5.61-7,9.52-12,10Z" style="fill: #dbdbdb"/>
        <path d="M855.65,505.94a1.52,1.52,0,0,1-.94-.33,109.91,109.91,0,0,1-20.94-22,1.5,1.5,0,1,1,2.44-1.75,106.74,106.74,0,0,0,20.37,21.44,1.5,1.5,0,0,1-.93,2.67Z" style="fill: #dbdbdb"/>
        <path d="M860,497.15a1.47,1.47,0,0,1-.91-.31A83.39,83.39,0,0,1,837.5,472.1a1.52,1.52,0,0,1,.57-2.05,1.5,1.5,0,0,1,2,.57,80.46,80.46,0,0,0,20.77,23.84,1.5,1.5,0,0,1-.92,2.69Z" style="fill: #dbdbdb"/>
        <path d="M863.16,482.27a1.48,1.48,0,0,1-1.15-.54L843,459.1a1.5,1.5,0,1,1,2.3-1.93l19,22.64a1.49,1.49,0,0,1-.19,2.11A1.51,1.51,0,0,1,863.16,482.27Z" style="fill: #dbdbdb"/>
        <path d="M860.17,458.65a1.49,1.49,0,0,1-1.27-.7,37.62,37.62,0,0,0-8.79-9.78A1.5,1.5,0,0,1,852,445.8a40.69,40.69,0,0,1,9.49,10.56,1.51,1.51,0,0,1-.48,2.07A1.53,1.53,0,0,1,860.17,458.65Z" style="fill: #dbdbdb"/>
        <path d="M786,461a5.76,5.76,0,0,1-3.5-1.44,15.32,15.32,0,0,1-5.64-9.56,1.5,1.5,0,1,1,3-.47,12.29,12.29,0,0,0,4.53,7.67,2.75,2.75,0,0,0,1.75.79c1-.1,1.57-1.74,1.76-3.32.36-3.16,0-5.32-1.12-6.81a3.89,3.89,0,0,0-3-1.42h0a2.12,2.12,0,0,0-1.73.74,1.5,1.5,0,1,1-2.38-1.82,5,5,0,0,1,4.11-1.92h0a6.83,6.83,0,0,1,5.34,2.6c1.61,2.12,2.17,5,1.72,9-.41,3.49-2.06,5.72-4.43,6A2.83,2.83,0,0,1,786,461Z" style="fill: #dbdbdb"/>
        <path d="M706,491.18a4.8,4.8,0,0,1-2.9-1,9.24,9.24,0,0,1-2.51-3.78,1.5,1.5,0,1,1,2.75-1.2,6.84,6.84,0,0,0,1.63,2.63c.48.38,1.24.48,1.52.21s.16-1.29-.35-2.09a11.74,11.74,0,0,0-.73-1c-.26-.35-.54-.71-.8-1.11l-.42.32a1.5,1.5,0,0,1-1.79-2.41l1.87-1.4a1.52,1.52,0,0,1,1.38-.21,1.49,1.49,0,0,1,1,1,6.55,6.55,0,0,0,1.19,2c.3.4.61.8.87,1.22,1.11,1.73,1.52,4.19,0,5.79A3.61,3.61,0,0,1,706,491.18Z" style="fill: #dbdbdb"/>
      </g>
    </g>
    <g id="b2f749e1-321a-4ade-a197-1a9771fe7fe4" data-name="robot">
      <path d="M364.4,663.41a1,1,0,0,1-.3,0,1,1,0,0,1-.65-1.26c6.5-20.36-6.1-44.93-26.43-51.53-8.57-2.79-17.86-2.67-26.86-2.56a152.1,152.1,0,0,1-16-.37c-31.95-3-61.17-27.7-72.71-61.47-10-29.24-7.37-63.93,7.37-97.68a165.88,165.88,0,0,1,48.67-63.18c22.16-17.39,47.31-27.27,72.75-28.56a1,1,0,0,1,1.05.95,1,1,0,0,1-.95,1.05c-49,2.49-97.13,38.88-119.69,90.54-14.54,33.29-17.13,67.47-7.31,96.23,11.29,33,39.82,57.2,71,60.13a150.69,150.69,0,0,0,15.76.36c9.15-.12,18.62-.23,27.5,2.66,21.32,6.92,34.53,32.68,27.71,54A1,1,0,0,1,364.4,663.41Z" style="fill: #1d1d1b"/>
      <g>
        <path d="M345.36,672.94s6.88-16,20.62-13.74,2.29,24,2.29,24Z" style="fill: #fff"/>
        <path d="M368.27,684.25a1,1,0,0,1-.41-.09L345,673.85a1,1,0,0,1-.51-1.3c.08-.17,7.35-16.73,21.7-14.34a8.31,8.31,0,0,1,6.55,4.46c3.62,7.29-3.24,20.49-3.53,21A1,1,0,0,1,368.27,684.25Zm-21.56-11.8,21.09,9.49c1.41-3,5.79-13,3.1-18.38a6.37,6.37,0,0,0-5.08-3.38C354.85,658.35,348.37,669.22,346.71,672.45Z" style="fill: #1d1d1b"/>
      </g>
      <g>
        <ellipse cx="358.54" cy="675.8" rx="5.15" ry="14.32" transform="translate(-402.75 751.3) rotate(-67.72)" style="fill: #fff"/>
        <path d="M367.23,684c-.24,0-.49,0-.75,0a35.55,35.55,0,0,1-19.36-7.93c-3.17-2.86-3.25-4.89-2.76-6.08s2-2.59,6.23-2.41A35.73,35.73,0,0,1,370,675.53c3.16,2.86,3.24,4.89,2.75,6.08h0C372.25,682.74,370.91,684,367.23,684Zm-17.35-14.45c-2,0-3.36.43-3.67,1.17s.53,2.29,2.25,3.85a33.75,33.75,0,0,0,18.1,7.42c2.31.09,4-.35,4.3-1.17h0c.33-.81-.53-2.28-2.25-3.84a33.75,33.75,0,0,0-18.1-7.42Z" style="fill: #1d1d1b"/>
      </g>
      <g>
        <ellipse cx="356.24" cy="679.24" rx="5.15" ry="14.32" transform="translate(-407.35 751.31) rotate(-67.72)" style="fill: #fff"/>
        <path d="M364.93,687.45a31.27,31.27,0,0,1-11-2.51c-6.87-2.82-13.35-7.81-11.84-11.51.49-1.19,2-2.58,6.23-2.4A35.55,35.55,0,0,1,367.66,679c3.17,2.86,3.25,4.89,2.76,6.09C369.72,686.74,367.64,687.45,364.93,687.45ZM347.59,673c-2,0-3.36.44-3.67,1.18-.66,1.6,3.11,5.77,10.75,8.89s13.24,2.82,13.9,1.21c.33-.82-.53-2.29-2.25-3.84a33.75,33.75,0,0,0-18.1-7.42Z" style="fill: #1d1d1b"/>
      </g>
      <path d="M344.26,693.06a1.12,1.12,0,0,1-.47-.11,1,1,0,0,1-.41-1.36c2.56-4.86,5.31-9.72,8.17-14.44a1,1,0,0,1,1.37-.34,1,1,0,0,1,.34,1.38c-2.84,4.68-5.57,9.51-8.11,14.34A1,1,0,0,1,344.26,693.06Z" style="fill: #1d1d1b"/>
      <path d="M353.68,694.75a1,1,0,0,1-.53-.15,1,1,0,0,1-.33-1.37A106.09,106.09,0,0,0,359.27,681a1,1,0,1,1,1.83.81,108.43,108.43,0,0,1-6.57,12.49A1,1,0,0,1,353.68,694.75Z" style="fill: #1d1d1b"/>
      <g>
        <g>
          <path d="M629.14,588.75c36.37,41.22,14,89.1-33.85,115.44a155.2,155.2,0,0,1-24.77,10.87A169.1,169.1,0,0,1,549,720.8c-76.65,15.17-119.1,17.37-119.1,17.37l-2.64-16.32s87.5-5.84,141.43-31.2a117.49,117.49,0,0,0,22.08-13.16,57,57,0,0,0,14-15c24.76-40.69,3.81-66.56-78.46-69.22-31.7-13-62.06-6.88-62.06-6.88s-.26.24-.66.68l-.09-4.13,3.95-4.36S582.44,535.8,629.14,588.75Z" style="fill: #fff"/>
          <path d="M555.87,562.25c27.58,0,55.41,6.25,73.27,26.5,36.37,41.22,14,89.1-33.85,115.44a155.2,155.2,0,0,1-24.77,10.87A169.1,169.1,0,0,1,549,720.8c-76.65,15.17-119.1,17.37-119.1,17.37l-2.64-16.32s87.5-5.84,141.43-31.2a117.49,117.49,0,0,0,22.08-13.16,57,57,0,0,0,14-15c24.76-40.69,3.81-66.56-78.46-69.22a116.42,116.42,0,0,0-43.9-8.33,100.86,100.86,0,0,0-18.16,1.45s-.26.24-.66.68l-.09-4.13,3.95-4.36s43.88-16.31,88.43-16.32m0-2h0c-44.4,0-88.69,16.28-89.13,16.44a2,2,0,0,0-.78.54L462,581.59a2,2,0,0,0-.52,1.38l.09,4.13a2,2,0,0,0,1.28,1.82,2,2,0,0,0,.72.14,2,2,0,0,0,1.46-.64l.17-.18a104.61,104.61,0,0,1,17.19-1.31,115.1,115.1,0,0,1,43.14,8.18,2.09,2.09,0,0,0,.7.15c46.55,1.5,74.59,10.46,83.33,26.62,5.48,10.13,3.29,23.44-6.52,39.56a55.19,55.19,0,0,1-13.46,14.47,116,116,0,0,1-21.71,12.93c-53,24.9-139.84,30.95-140.71,31a2,2,0,0,0-1.85,2.32L428,738.49a2,2,0,0,0,2,1.68H430c.42,0,43.47-2.39,119.38-17.41A170.11,170.11,0,0,0,571.16,717a157,157,0,0,0,25.09-11c28.83-15.87,47.79-38.92,52-63.24,3.36-19.29-2.74-38.41-17.63-55.29-15.9-18-41.06-27.17-74.76-27.17Z" style="fill: #1d1d1b"/>
        </g>
        <path d="M488.9,585.1c176.62-10.73,144.66,68,101.45,103.43C551.79,720.17,455.43,725.24,428,726l-.68-4.19s87.5-5.84,141.43-31.2a117.49,117.49,0,0,0,22.08-13.16,57,57,0,0,0,14-15c24.76-40.69,3.81-66.56-78.46-69.22A114.33,114.33,0,0,0,488.9,585.1Z" style="fill: #ababab"/>
        <path d="M443.64,735.68a1,1,0,0,1-.57-.18,1,1,0,0,1-.26-1.39,8.34,8.34,0,0,0-1.88-11,1,1,0,0,1-.22-1.4,1,1,0,0,1,1.39-.22,10.3,10.3,0,0,1,2.36,13.79A1,1,0,0,1,443.64,735.68Z" style="fill: #1d1d1b"/>
        <path d="M457.36,736.2a1.06,1.06,0,0,1-.54-.16,1,1,0,0,1-.3-1.38,10.1,10.1,0,0,0-2.41-13.06,1,1,0,0,1-.22-1.39,1,1,0,0,1,1.4-.22,12,12,0,0,1,2.91,15.75A1,1,0,0,1,457.36,736.2Z" style="fill: #1d1d1b"/>
        <path d="M479.55,733a1,1,0,0,1-.34-.06,1,1,0,0,1-.6-1.28,19.25,19.25,0,0,0-.15-13.32,1,1,0,0,1,1.86-.72,21.24,21.24,0,0,1,.17,14.72A1,1,0,0,1,479.55,733Z" style="fill: #1d1d1b"/>
        <path d="M505.63,728a1,1,0,0,1-.61-1.79,8.52,8.52,0,0,0-.93-14.13,1,1,0,0,1-.36-1.37,1,1,0,0,1,1.36-.36,10.51,10.51,0,0,1,1.15,17.45A1,1,0,0,1,505.63,728Z" style="fill: #1d1d1b"/>
        <path d="M531.17,723.89a1,1,0,0,1-.67-.26,1,1,0,0,1-.08-1.41,9.51,9.51,0,0,0-2.57-14,1,1,0,0,1-.42-1.35,1,1,0,0,1,1.35-.42,11.52,11.52,0,0,1,3.14,17.11A1,1,0,0,1,531.17,723.89Z" style="fill: #1d1d1b"/>
        <path d="M552,718a1.14,1.14,0,0,1-.4-.08,1,1,0,0,1-.51-1.32,12.89,12.89,0,0,0-3.14-14.39,1,1,0,1,1,1.32-1.5,14.77,14.77,0,0,1,3.65,16.7A1,1,0,0,1,552,718Z" style="fill: #1d1d1b"/>
        <path d="M574.87,711.92a1,1,0,0,1-.53-.15,1,1,0,0,1-.31-1.38,9.64,9.64,0,0,0-3.17-12.94,1,1,0,0,1-.36-1.37,1,1,0,0,1,1.36-.36,11.64,11.64,0,0,1,3.86,15.74A1,1,0,0,1,574.87,711.92Z" style="fill: #1d1d1b"/>
        <path d="M600.61,701.31a1,1,0,0,1-.93-1.38,13.85,13.85,0,0,0-6.24-16.84,1,1,0,1,1,.91-1.78,15.74,15.74,0,0,1,7.18,19.38A1,1,0,0,1,600.61,701.31Z" style="fill: #1d1d1b"/>
        <path d="M621.67,682.49h-.12a1,1,0,0,1-.88-1.11,19.35,19.35,0,0,0-11.84-19.59,1,1,0,0,1,.72-1.87,21.15,21.15,0,0,1,13.11,21.7A1,1,0,0,1,621.67,682.49Z" style="fill: #1d1d1b"/>
        <path d="M639.15,659.3a1,1,0,0,1-1-.93,15.78,15.78,0,0,0-20.73-14,1,1,0,0,1-1.27-.64,1,1,0,0,1,.64-1.26,17.8,17.8,0,0,1,23.36,15.74,1,1,0,0,1-.93,1.06Z" style="fill: #1d1d1b"/>
        <path d="M616.66,628.57a1.08,1.08,0,0,1-.61-.2,1,1,0,0,1-.18-1.41,18.76,18.76,0,0,1,27.91-2.14,1,1,0,0,1,0,1.41,1,1,0,0,1-1.42,0,16.76,16.76,0,0,0-24.93,1.92A1,1,0,0,1,616.66,628.57Z" style="fill: #1d1d1b"/>
        <path d="M607.2,615.19a1,1,0,0,1-.53-.15,1,1,0,0,1-.31-1.38,31,31,0,0,1,27.46-14.14,1,1,0,0,1,.94,1.06,1,1,0,0,1-1.06.94,29,29,0,0,0-25.65,13.2A1,1,0,0,1,607.2,615.19Z" style="fill: #1d1d1b"/>
        <path d="M593.54,602.59a1,1,0,0,1-1-1,27.65,27.65,0,0,1,14.67-25,1,1,0,0,1,.92,1.77,25.64,25.64,0,0,0-13.6,23.18,1,1,0,0,1-1,1Z" style="fill: #1d1d1b"/>
        <path d="M569,595.1a1,1,0,0,1-1-.73,31.24,31.24,0,0,1,4.89-26.5,1,1,0,1,1,1.6,1.19A29.19,29.19,0,0,0,570,593.83a1,1,0,0,1-.7,1.23A.84.84,0,0,1,569,595.1Z" style="fill: #1d1d1b"/>
        <path d="M550.32,594.82a1,1,0,0,1-.89-.56,30.59,30.59,0,0,1-.49-25.77,1,1,0,1,1,1.83.82,28.57,28.57,0,0,0,.45,24.07,1,1,0,0,1-.45,1.33A.93.93,0,0,1,550.32,594.82Z" style="fill: #1d1d1b"/>
        <path d="M525.06,590a1,1,0,0,1-.91-.58,21,21,0,0,1,.46-18.22,1,1,0,0,1,1.36-.41,1,1,0,0,1,.41,1.35,18.89,18.89,0,0,0-.42,16.44,1,1,0,0,1-.48,1.32A.92.92,0,0,1,525.06,590Z" style="fill: #1d1d1b"/>
        <path d="M508.52,586.91a1,1,0,0,1-.92-.6,17.44,17.44,0,0,1-.09-13.58,1,1,0,0,1,1.84.78,15.35,15.35,0,0,0,.08,12,1,1,0,0,1-.51,1.32A1,1,0,0,1,508.52,586.91Z" style="fill: #1d1d1b"/>
        <path d="M492.05,583.79a1,1,0,0,1-.88-.53,12.78,12.78,0,0,1-1.32-8.12,1,1,0,1,1,2,.34,10.67,10.67,0,0,0,1.1,6.84,1,1,0,0,1-.41,1.36A1,1,0,0,1,492.05,583.79Z" style="fill: #1d1d1b"/>
        <g>
          <path d="M432.82,736.82s19,45.43-26.58,55.28l.76-69.51L425.25,720Z"/>
          <path d="M425.25,720l7.57,16.8s19,45.43-26.58,55.28l.76-69.51L425.25,720m0-2-.28,0-18.25,2.57a2,2,0,0,0-1.72,2l-.76,69.51a2,2,0,0,0,.74,1.57,2,2,0,0,0,1.26.45,2.09,2.09,0,0,0,.43,0c13.62-2.95,23.06-9.29,28.05-18.86,9-17.16.32-38.26-.05-39.15l0,0-7.58-16.8a2,2,0,0,0-1.82-1.18Z" style="fill: #1d1d1b"/>
        </g>
        <path d="M411.22,789.37h-.08a1,1,0,0,1-.92-1.07,455.16,455.16,0,0,0-.52-62.93,1,1,0,0,1,.91-1.08,1,1,0,0,1,1.08.91,454.35,454.35,0,0,1,.52,63.25A1,1,0,0,1,411.22,789.37Z" style="fill: #fff"/>
        <path d="M435.41,764.68a1,1,0,0,1-.56-.18c-.11-.07-10.68-7.15-21.39-2.67a1,1,0,0,1-.77-1.85c11.73-4.9,22.82,2.55,23.29,2.87a1,1,0,0,1,.26,1.39A1,1,0,0,1,435.41,764.68Z" style="fill: #fff"/>
      </g>
      <g>
        <g>
          <path d="M546,733.5l-1.15-25.16c-13.23-74.25-111.58-90-111.58-90-2.84-9.24,4.06-17.19,6.33-19.49.44-.44.7-.68.7-.68s31.4-5.48,63.63,8.81c26.34,11.67,53.22,36.56,64,88.42L571.74,723c8.4,121.16-110.11,143.27-110.11,143.27l-12.12-19.35s80.75-2.23,95.56-105.28C545.47,738.88,545.76,736.16,546,733.5Z" style="fill: #fff"/>
          <path d="M455.52,597.18c12.17,0,30.13,1.75,48.37,9.84,26.34,11.67,53.22,36.56,64,88.42L571.74,723c8.4,121.16-110.11,143.27-110.11,143.27l-12.12-19.35s80.75-2.23,95.56-105.28c.4-2.78.69-5.5.89-8.16l-1.15-25.16c-13.23-74.25-111.58-90-111.58-90-2.84-9.24,4.06-17.19,6.33-19.49.44-.44.7-.68.7-.68a98.26,98.26,0,0,1,15.26-1m0-2v0a100,100,0,0,0-15.6,1.06,2.13,2.13,0,0,0-1,.47s-.33.3-.8.77c-2.4,2.44-10,11.17-6.82,21.48a2,2,0,0,0,1.59,1.39,194.71,194.71,0,0,1,50.34,17c23.47,11.83,52.84,33.79,59.57,71.22l1.14,24.9c-.2,2.64-.49,5.3-.87,7.91-7.52,52.35-32.55,77.7-52.22,89.75-21.35,13.08-41.22,13.8-41.42,13.81a2,2,0,0,0-1.64,3.06l12.13,19.35a2,2,0,0,0,1.69.94,2.22,2.22,0,0,0,.37,0c1.23-.23,30.4-5.85,59-26.55,16.84-12.19,29.91-27.08,38.84-44.27C571,776,575.67,750.89,573.73,722.88c0,0,0-.09,0-.14l-3.86-27.58a.51.51,0,0,0,0-.13c-5-24.19-14-44.42-26.56-60.13a102,102,0,0,0-38.58-29.71c-18.66-8.27-37-10-49.18-10Z" style="fill: #1d1d1b"/>
        </g>
        <path d="M551.42,751.9c-9.77,73.66-71.55,96.49-97,102.83l-4.88-7.79s80.75-2.23,95.56-105.28c.4-2.78.69-5.5.89-8.16l-1.15-25.16c-13.23-74.25-111.58-90-111.58-90a15.36,15.36,0,0,1-.44-7.16C502,623,562,672.18,551.42,751.9Z" style="fill: #ababab"/>
        <g>
          <path d="M444.06,881.73s-45.24,39.69-74.4-9.28l80.84-26.19,10.08,20.15Z"/>
          <path d="M450.5,846.26l10.08,20.15-16.52,15.32s-17.3,15.18-37.41,15.18c-12.4,0-25.86-5.78-37-24.46l80.84-26.19m0-2a1.86,1.86,0,0,0-.61.1l-80.84,26.18a2,2,0,0,0-1.26,1.2,2,2,0,0,0,.16,1.73c10,16.88,23.07,25.44,38.7,25.44,20.62,0,38-15,38.73-15.68l0,0,16.52-15.31a2,2,0,0,0,.43-2.37l-10.08-20.14a2,2,0,0,0-1.79-1.11Z" style="fill: #1d1d1b"/>
        </g>
        <path d="M475.75,862a1,1,0,0,1-1-1.29,15.42,15.42,0,0,0-4.58-15.59,1,1,0,0,1,1.31-1.52,17.47,17.47,0,0,1,5.18,17.68A1,1,0,0,1,475.75,862Z" style="fill: #1d1d1b"/>
        <path d="M490.75,857.3a1,1,0,0,1-.3,0,1,1,0,0,1-.65-1.26,18.48,18.48,0,0,0-1.8-14.94,1,1,0,1,1,1.71-1,20.47,20.47,0,0,1,2,16.59A1,1,0,0,1,490.75,857.3Z" style="fill: #1d1d1b"/>
        <path d="M509.29,846.8a1,1,0,0,1-.87-1.5,13.55,13.55,0,0,0-4.82-17.88,1,1,0,0,1,1-1.75,15.56,15.56,0,0,1,5.57,20.64A1,1,0,0,1,509.29,846.8Z" style="fill: #1d1d1b"/>
        <path d="M533.46,828.33a.9.9,0,0,1-.23,0,1,1,0,0,1-.75-1.2,16.79,16.79,0,0,0-9.14-18.56,1,1,0,0,1,.83-1.82,18.86,18.86,0,0,1,10.26,20.83A1,1,0,0,1,533.46,828.33Z" style="fill: #1d1d1b"/>
        <path d="M551.9,805.82h-.1a1,1,0,0,1-.89-1.1,15.7,15.7,0,0,0-13.68-16.52,1,1,0,0,1-.91-1.08,1,1,0,0,1,1.08-.91,17.68,17.68,0,0,1,15.5,18.71A1,1,0,0,1,551.9,805.82Z" style="fill: #1d1d1b"/>
        <path d="M564.52,780.93a1,1,0,0,1-1-.93c-.53-7.84-8.14-14.73-16-14.44a1,1,0,0,1-1-1,1,1,0,0,1,1-1c9-.34,17.46,7.3,18.08,16.3a1,1,0,0,1-.93,1.07Z" style="fill: #1d1d1b"/>
        <path d="M568.61,751.5a1,1,0,0,1-.84-.45,21.23,21.23,0,0,0-21.87-8.83,1,1,0,0,1-1.19-.75,1,1,0,0,1,.75-1.2,23.3,23.3,0,0,1,24,9.69,1,1,0,0,1-.84,1.54Z" style="fill: #1d1d1b"/>
        <path d="M555.41,701.39a1,1,0,0,1-.73-.31,11.88,11.88,0,0,0-8.45-3.66,1,1,0,0,1-1-1,1,1,0,0,1,1-1h0a14,14,0,0,1,9.9,4.29,1,1,0,0,1-.73,1.68Z" style="fill: #1d1d1b"/>
        <path d="M535.54,676.55a1,1,0,0,1-.64-1.77,21.7,21.7,0,0,1,23.75-2.37,1,1,0,0,1-.95,1.76,19.64,19.64,0,0,0-21.52,2.15A1,1,0,0,1,535.54,676.55Z" style="fill: #1d1d1b"/>
        <path d="M520.62,664.05a1,1,0,0,1-.88-1.47,31.94,31.94,0,0,1,27.09-16.66h0a1,1,0,0,1,0,2,30.33,30.33,0,0,0-25.37,15.6A1,1,0,0,1,520.62,664.05Z" style="fill: #1d1d1b"/>
        <path d="M509.08,650a1,1,0,0,1-1-.89A25.19,25.19,0,0,1,520,625.19a1,1,0,0,1,1,1.73,23.1,23.1,0,0,0-11,21.92,1,1,0,0,1-.88,1.1Z" style="fill: #1d1d1b"/>
        <path d="M492.59,640.37a1,1,0,0,1-1-.73,24.78,24.78,0,0,1,11.53-27.42,1,1,0,1,1,1,1.75c-8.47,4.73-13.12,15.78-10.58,25.14a1,1,0,0,1-.7,1.23Z" style="fill: #1d1d1b"/>
        <path d="M475.22,632.19a1,1,0,0,1-1-.82,29,29,0,0,1,8.54-25.9,1,1,0,0,1,1.36,1.46A27,27,0,0,0,476.21,631a1,1,0,0,1-.8,1.16A.58.58,0,0,1,475.22,632.19Z" style="fill: #1d1d1b"/>
        <path d="M457.53,623.41a1,1,0,0,1-1-.78,23.61,23.61,0,0,1,6.07-21.38,1,1,0,0,1,1.43,1.4,21.59,21.59,0,0,0-5.55,19.54,1,1,0,0,1-.75,1.2Z" style="fill: #1d1d1b"/>
        <path d="M378.91,876.5a1,1,0,0,1-.24-2c.37-.09,37.28-9.65,72.75-25.1a1,1,0,1,1,.8,1.83c-35.62,15.52-72.69,25.11-73.06,25.21A1,1,0,0,1,378.91,876.5Z" style="fill: #fff"/>
        <path d="M416.94,894.93a.84.84,0,0,1-.27,0,1,1,0,0,1-.69-1.23c0-.16,4.17-15.28-5.27-26a1,1,0,0,1,.09-1.41,1,1,0,0,1,1.41.09c10.17,11.59,5.88,27.23,5.7,27.89A1,1,0,0,1,416.94,894.93Z" style="fill: #fff"/>
      </g>
      <g>
        <g>
          <g>
            <path d="M664.36,395.19c-56-17.85-99.17,39-99.17,39C567.9,446.58,581,446.4,581,446.4s44.75-64.09,104.66-19.34,30,94.92,30,94.92-1.08,4-2.4,9.55c5.23,5,10.48,10.2,15.71,15.52q1.89-3.06,4-6.66C774.67,469.51,720.35,413.05,664.36,395.19Z" style="fill: #fff"/>
            <path d="M642.33,391.72a72.24,72.24,0,0,1,22,3.47c56,17.86,110.31,74.32,68.63,145.2q-2.12,3.6-4,6.66c-5.23-5.32-10.48-10.52-15.71-15.52,1.32-5.59,2.4-9.55,2.4-9.55s29.9-50.17-30-94.92c-15.5-11.58-30-15.87-42.95-15.87-37.12,0-61.71,35.21-61.71,35.21h0c-.71,0-13.15-.18-15.78-12.24,0,0,32.24-42.44,77.14-42.44m0-2c-23.76,0-43.91,11.77-56.63,21.64A130.43,130.43,0,0,0,563.6,433a2,2,0,0,0-.36,1.63c3,13.66,17.13,13.82,17.73,13.82H581a2,2,0,0,0,1.61-.86,97,97,0,0,1,16.65-17.27c9.57-7.79,24.87-17.08,43.42-17.08,14,0,28,5.2,41.76,15.47,24.24,18.11,36.57,39.12,36.66,62.45A63.64,63.64,0,0,1,714,521a2.13,2.13,0,0,0-.21.49s-1.11,4.06-2.42,9.62a2,2,0,0,0,.57,1.91c5,4.79,10.27,10,15.66,15.47a2,2,0,0,0,1.43.6h.22a2,2,0,0,0,1.48-.94c1.29-2.09,2.65-4.34,4-6.7,8.3-14.11,13.21-28.33,14.6-42.27a81.48,81.48,0,0,0-5-37.51c-11.57-30.23-42-56.42-79.32-68.33a74.4,74.4,0,0,0-22.64-3.57Z"/>
          </g>
          <path d="M571.5,442.22s2.06,1.36,5.7,3.7a18,18,0,0,0,3.8.48s44.75-64.09,104.66-19.34a116.31,116.31,0,0,1,18.94,17.46C631,357.51,571.5,442.22,571.5,442.22Z" style="fill: #ababab"/>
          <path d="M737.11,523.9a1,1,0,0,1-.85-.47c-3.07-5-10.43-7.7-16-5.95a1,1,0,0,1-1.25-.65,1,1,0,0,1,.65-1.26c6.54-2,14.77,1,18.35,6.81a1,1,0,0,1-.32,1.37A1,1,0,0,1,737.11,523.9Z"/>
          <path d="M724.46,503.77a1,1,0,0,1-.62-.21,1,1,0,0,1-.16-1.41c4.19-5.32,13.48-6.53,19.88-2.6a1,1,0,0,1-1,1.71c-5.6-3.44-13.67-2.44-17.27,2.13A1,1,0,0,1,724.46,503.77Z"/>
          <path d="M723.15,486.74a1,1,0,0,1-.65-.25,1,1,0,0,1-.1-1.41c4.12-4.74,11.7-6.68,18.41-4.71a1,1,0,0,1-.56,1.92c-6-1.76-12.71-.07-16.34,4.1A1,1,0,0,1,723.15,486.74Z"/>
          <path d="M722.08,478.32a1,1,0,0,1-.84-1.54c3.09-4.83,10.47-6.83,16.45-4.45a1,1,0,0,1-.74,1.86c-5.14-2.05-11.42-.4-14,3.67A1,1,0,0,1,722.08,478.32Z"/>
          <path d="M711,453.93h-.18a1,1,0,0,1-.8-1.17,11.39,11.39,0,0,1,5.25-7.42,14.91,14.91,0,0,1,11.43-2,1,1,0,0,1-.47,1.95,12.86,12.86,0,0,0-9.87,1.7,9.38,9.38,0,0,0-4.37,6.1A1,1,0,0,1,711,453.93Z"/>
          <path d="M702.21,443h-.12a1,1,0,0,1-.88-1.11c.87-7.21,8.18-12.83,16.22-12.53a1,1,0,0,1-.07,2c-7.1-.27-13.42,4.57-14.16,10.77A1,1,0,0,1,702.21,443Z"/>
          <path d="M683.48,424a.9.9,0,0,1-.42-.1,1,1,0,0,1-.48-1.33,22.58,22.58,0,0,0,1.47-14.79,1,1,0,1,1,2-.46,24.62,24.62,0,0,1-1.61,16.1A1,1,0,0,1,683.48,424Z"/>
          <path d="M667,416.07a1.16,1.16,0,0,1-.37-.07,1,1,0,0,1-.56-1.3,20,20,0,0,0-.56-15.47,1,1,0,0,1,1.83-.82,22,22,0,0,1,.59,17A1,1,0,0,1,667,416.07Z"/>
          <path d="M644.54,411.89a1.05,1.05,0,0,1-.68-.26,1,1,0,0,1-.06-1.42,12.09,12.09,0,0,0,1-14.37,1,1,0,0,1,.34-1.37,1,1,0,0,1,1.37.33,14.12,14.12,0,0,1-1.26,16.76A1,1,0,0,1,644.54,411.89Z"/>
          <path d="M627.26,413.93a1,1,0,0,1-.34-.06,1,1,0,0,1-.59-1.29c1.86-5-.36-11.24-5.28-14.81a1,1,0,1,1,1.18-1.62c5.63,4.09,8.14,11.29,6,17.13A1,1,0,0,1,627.26,413.93Z"/>
          <path d="M613.29,419.81a1,1,0,0,1-1-1c-.06-4.83-3.1-9.78-7.75-12.6a1,1,0,0,1,1-1.71c5.23,3.17,8.65,8.78,8.71,14.28a1,1,0,0,1-1,1Z"/>
          <path d="M597.31,429.2a1,1,0,0,1-.94-.68c-1.66-4.87-6.44-9.11-11.9-10.54a1,1,0,1,1,.51-1.93c6.18,1.62,11.39,6.26,13.28,11.83a1,1,0,0,1-.63,1.27A.86.86,0,0,1,597.31,429.2Z"/>
        </g>
        <g>
          <path d="M710.43,533.25s-18.09,15.08-54.22,7.19c0,0-4.62,10.6,1.44,17.2a132.82,132.82,0,0,0,45.05-12.32s-15,21-45.93,25.84c0,0-4.75,7.4,6,14,0,0,22.78-8.74,43.8-33.69,0,0-11.49,28.09-31.94,40.5,0,0,1.81,8.84,13.08,10.25,0,0,22.57-22.51,32-47.88,0,0-1.7.28,8-14S710.43,533.25,710.43,533.25Z" style="fill: #fff"/>
          <path d="M722.8,531.44c5.5,0,9.76,1.78,4.92,8.88-9.34,13.72-8.12,14-8,14h0c-9.42,25.37-32,47.88-32,47.88-11.27-1.41-13.08-10.25-13.08-10.25,20.45-12.41,31.94-40.5,31.94-40.5-21,24.95-43.8,33.69-43.8,33.69-10.76-6.57-6-14-6-14,30.9-4.86,45.93-25.84,45.93-25.84a132.82,132.82,0,0,1-45.05,12.32c-6.06-6.6-1.44-17.2-1.44-17.2a94.08,94.08,0,0,0,20.15,2.28c22.7,0,34.07-9.47,34.07-9.47a58,58,0,0,1,12.37-1.81m0-2a58.88,58.88,0,0,0-12.88,1.88,2,2,0,0,0-.77.4c-.1.08-11.18,9-32.79,9a93.26,93.26,0,0,1-19.73-2.23,1.51,1.51,0,0,0-.42,0,2,2,0,0,0-1.84,1.2c-.21.48-5.06,11.88,1.81,19.35a2,2,0,0,0,1.47.65h.12a134,134,0,0,0,36.8-8.57,73.82,73.82,0,0,1-38.11,18.13,1.93,1.93,0,0,0-1.37.89,10.28,10.28,0,0,0-1.1,7.44c.81,3.54,3.42,6.68,7.75,9.32a2,2,0,0,0,1.75.16c.81-.31,17-6.65,34.7-23.68-5.29,8.86-13.66,20.28-24.59,26.91a2,2,0,0,0-.92,2.12c.08.41,2.25,10.26,14.79,11.82l.25,0a2,2,0,0,0,1.41-.59c.94-.93,23-23.11,32.46-48.6a2.13,2.13,0,0,0,.1-1c.34-.87,1.76-3.82,7.69-12.53,2.44-3.59,3.06-6.41,1.88-8.64s-4-3.36-8.46-3.36Z" style="fill: #1d1d1b"/>
        </g>
        <g>
          <path d="M730.55,533.5s11.78,36.32-28.88,42.42c0,0-5.85-8.42-1.89-12.76,0,0,19.53,3.7,17.43-14.74" style="fill: #fff"/>
          <path d="M701.67,576.92a1,1,0,0,1-.82-.43c-.26-.37-6.25-9.13-1.81-14a1,1,0,0,1,.92-.31c.09,0,8.66,1.56,13.34-2.79,2.49-2.32,3.47-6,2.92-10.85a1,1,0,0,1,.88-1.11,1,1,0,0,1,1.1.88c.64,5.55-.56,9.78-3.55,12.55-4.69,4.37-12.27,3.69-14.46,3.38-2.26,3.23.89,8.86,2,10.59,11.86-1.9,20.21-6.63,24.82-14.08,7.36-11.86,2.67-26.79,2.62-26.94a1,1,0,1,1,1.9-.61c.21.64,5,15.93-2.81,28.59-5,8.11-14.06,13.2-26.87,15.12Z" style="fill: #1d1d1b"/>
        </g>
      </g>
      <g>
        <path d="M372.12,463.88s97.69-58.6,205.32-72.25l15.13,181.89s-38.17,30.62-92.17,38.71-68.47,4.4-68.47,4.4-29.11-51.92-63.38-82.86Z" style="fill: #fff"/>
        <path d="M577.44,391.63l15.13,181.89s-38.17,30.62-92.17,38.71c-28.25,4.23-45.69,5.24-55.89,5.24-9.3,0-12.58-.84-12.58-.84s-29.11-51.92-63.38-82.86l3.57-69.89s97.69-58.6,205.32-72.25m0-2-.25,0C521.36,396.73,468.3,416.06,433.62,431c-37.56,16.22-62.29,31-62.53,31.13a2,2,0,0,0-1,1.61l-3.57,69.89a2,2,0,0,0,.66,1.59c33.62,30.35,62.68,81.84,63,82.35a2,2,0,0,0,1.25,1c.15,0,3.64.9,13.08.9,9.6,0,27.14-.91,56.19-5.26,28.17-4.22,52-14.62,67-22.6C584,583,593.43,575.4,593.82,575.08a2,2,0,0,0,.74-1.72L579.44,391.47a2,2,0,0,0-2-1.84Z" style="fill: #1d1d1b"/>
      </g>
      <path d="M584.24,473.39l-6.8-81.76c-79.54,10.09-153.65,44.72-186.91,62.11C430.33,464.36,504.05,479.49,584.24,473.39Z" style="fill: #ababab"/>
      <g>
        <path d="M368.55,533.77c34.27,30.94,63.38,82.86,63.38,82.86s13.86,3.52,65-3.89c-34.61-45.16-96.81-114.13-125-145Z"/>
        <path d="M444.48,618.48c-9.12,0-12.52-.81-12.8-.88a1,1,0,0,1-.63-.48c-.29-.51-29.42-52.13-63.17-82.61a1,1,0,0,1-.33-.79l3.37-66a1,1,0,0,1,.66-.89,1,1,0,0,1,1.08.27c25.92,28.37,90,99.31,125.06,145.05a1,1,0,0,1,.14,1,1,1,0,0,1-.79.61C470.76,617.54,454.3,618.48,444.48,618.48Zm-11.91-2.73c2.58.46,18.19,2.56,62.52-3.76-34.5-44.78-95.7-112.65-122.29-141.79l-3.23,63.15C401.83,562.64,429.77,610.84,432.57,615.75Z" style="fill: #1d1d1b"/>
      </g>
      <g>
        <g>
          <path d="M262.89,708.41s22-16.91,23.76-80.24,42.6-95.09,89.32-106.59,12.34,23.65,12.34,23.65S318.45,553.5,308,627.65s-30.72,93.84-30.72,93.84C275.7,713.15,271.82,710.24,262.89,708.41Z" style="fill: #fff"/>
          <path d="M391.19,519.26c22.53,0-2.88,26-2.88,26S318.45,553.5,308,627.65s-30.72,93.84-30.72,93.84c-1.62-8.34-5.5-11.25-14.43-13.08,0,0,22-16.91,23.76-80.24s42.6-95.09,89.32-106.59a67,67,0,0,1,15.22-2.32m0-2v0a69.17,69.17,0,0,0-15.7,2.38c-25.64,6.31-47.25,18.21-62.5,34.43-18,19.1-27.51,44-28.35,74-1.73,61.67-22.76,78.55-23,78.71a2,2,0,0,0,.81,3.55c8.59,1.76,11.47,4.34,12.86,11.5a2,2,0,0,0,2,1.62,2,2,0,0,0,1.39-.56c.85-.83,20.92-21,31.31-95,4.22-30.07,18.68-52.78,43-67.5a99.73,99.73,0,0,1,35.57-13.21,2,2,0,0,0,1.19-.59,80.6,80.6,0,0,0,7.23-8.7c4.9-6.91,6.53-12.07,5-15.77-1.36-3.25-5-4.9-10.74-4.9Z" style="fill: #1d1d1b"/>
        </g>
        <path d="M388.31,545.23s6.45-6.6,10-13.14c-22.89,2.28-67.53,12.49-86.7,56.67-24.89,57.34-3.79,54.4-38.08,124.39,1.9,2,3.09,4.59,3.82,8.34,0,0,20.31-19.69,30.72-93.84S388.31,545.23,388.31,545.23Z" style="fill: #ababab"/>
        <g>
          <path d="M285.5,708.25a1,1,0,0,1-1-.73,18.09,18.09,0,0,0-10.8-11.75,1,1,0,1,1,.7-1.87,20.11,20.11,0,0,1,12,13.08,1,1,0,0,1-.69,1.23A.84.84,0,0,1,285.5,708.25Z" style="fill: #1d1d1b"/>
          <path d="M286.19,697a1,1,0,0,1-.83-.43,19.79,19.79,0,0,0-9-7.09,1,1,0,0,1-.57-1.3,1,1,0,0,1,1.3-.56,21.83,21.83,0,0,1,9.91,7.82,1,1,0,0,1-.26,1.39A1,1,0,0,1,286.19,697Z" style="fill: #1d1d1b"/>
          <path d="M292.71,681.9a1,1,0,0,1-.82-.42,15.37,15.37,0,0,0-10.11-6.14,1,1,0,0,1,.28-2,17.41,17.41,0,0,1,11.46,7,1,1,0,0,1-.23,1.39A1,1,0,0,1,292.71,681.9Z" style="fill: #1d1d1b"/>
          <path d="M296.73,672.16a1,1,0,0,1-.76-.35,13.79,13.79,0,0,0-13-4.45,1,1,0,1,1-.4-2,15.62,15.62,0,0,1,14.88,5.11,1,1,0,0,1-.76,1.65Z" style="fill: #1d1d1b"/>
          <path d="M298.42,646.9a1,1,0,0,1-.86-.48,9.76,9.76,0,0,0-10.44-4.24,1,1,0,1,1-.5-1.94,11.69,11.69,0,0,1,12.65,5.14,1,1,0,0,1-.34,1.37A1,1,0,0,1,298.42,646.9Z" style="fill: #1d1d1b"/>
          <path d="M303.05,639.32a1,1,0,0,1-.75-.34,14.83,14.83,0,0,0-14.9-4.34,1,1,0,0,1-1.23-.69,1,1,0,0,1,.68-1.24,16.9,16.9,0,0,1,16.95,4.94,1,1,0,0,1-.09,1.42A1,1,0,0,1,303.05,639.32Z" style="fill: #1d1d1b"/>
          <path d="M306.14,622.36a1,1,0,0,1-.7-.3,18.39,18.39,0,0,0-16.21-5,1,1,0,1,1-.37-2,20.36,20.36,0,0,1,18,5.54,1,1,0,0,1-.71,1.71Z" style="fill: #1d1d1b"/>
          <path d="M311.22,602a1,1,0,0,1-.55-.17,23.91,23.91,0,0,0-18.93-3.19,1,1,0,1,1-.5-1.94,26,26,0,0,1,20.54,3.46,1,1,0,0,1,.28,1.39A1,1,0,0,1,311.22,602Z" style="fill: #1d1d1b"/>
          <path d="M320.84,583.83a1,1,0,0,1-.94-.64c-1-2.73-3.61-5-7.09-6.17-3.24-1.1-6.77-1.22-10.18-1.34a1,1,0,0,1-1-1,1,1,0,0,1,1-1c3.56.12,7.24.25,10.75,1.45,4.05,1.38,7.08,4.06,8.32,7.35a1,1,0,0,1-.58,1.29A1.07,1.07,0,0,1,320.84,583.83Z" style="fill: #1d1d1b"/>
          <path d="M329.83,567.71a1,1,0,0,1-.55-.16l-7.1-4.7c-2.69-1.77-6.1-3.62-8.68-2.14a1,1,0,0,1-1-1.74c3.53-2,7.61.13,10.77,2.21l7.1,4.7a1,1,0,0,1-.55,1.83Z" style="fill: #1d1d1b"/>
          <path d="M346.9,558.64a1,1,0,0,1-.87-.5,23.75,23.75,0,0,0-18.72-11.6,1,1,0,0,1-.93-1.06,1,1,0,0,1,1.05-.94,25.86,25.86,0,0,1,20.34,12.6,1,1,0,0,1-.87,1.5Z" style="fill: #1d1d1b"/>
          <path d="M358.52,553.85a1,1,0,0,1-.95-.7,29.08,29.08,0,0,0-15.39-17.38A1,1,0,1,1,343,534a31.07,31.07,0,0,1,16.46,18.6,1,1,0,0,1-.65,1.25A.79.79,0,0,1,358.52,553.85Z" style="fill: #1d1d1b"/>
          <path d="M372.57,539a1,1,0,0,1-.88-.53,22.87,22.87,0,0,0-11.86-10.38,1,1,0,1,1,.71-1.87,24.88,24.88,0,0,1,12.91,11.3,1,1,0,0,1-.88,1.48Z" style="fill: #1d1d1b"/>
        </g>
        <g>
          <path d="M277.27,724.92s-2.51,24.21,27.34,47.41c0,0-6.83,10.65-16.68,10.25A117.48,117.48,0,0,1,271,739s-9.83,25.72,5,53.24c0,0-3.81,8.64-16.57,4.52,0,0-6.24-23.7,3.5-56.75,0,0-18.58,27.63-17.17,51.94a16.11,16.11,0,0,1-17.58-3.52s6.52-32.65,23.9-56.86c0,0,.8,1.53,7.81-15.56S277.27,724.92,277.27,724.92Z" style="fill: #fff"/>
          <path d="M265.57,710.19c5.87,0,11.7,14.73,11.7,14.73s-2.51,24.21,27.34,47.41c0,0-6.58,10.26-16.14,10.26h-.54A117.48,117.48,0,0,1,271,739s-9.83,25.72,5,53.24c0,0-2.49,5.63-10.17,5.63a20.64,20.64,0,0,1-6.4-1.11s-6.24-23.7,3.5-56.75c0,0-18.58,27.63-17.17,51.94a15.75,15.75,0,0,1-6.21,1.22,16.12,16.12,0,0,1-11.37-4.74s6.52-32.65,23.9-56.86a.08.08,0,0,0,.07,0c.31,0,1.8-1.1,7.74-15.6,1.73-4.22,3.67-5.81,5.6-5.81m0-2v0h0c-3,0-5.53,2.37-7.45,7-4.41,10.77-6.22,13.73-6.77,14.49a2,2,0,0,0-.82.66c-17.42,24.29-24,56.29-24.23,57.64a2,2,0,0,0,.59,1.84,18.26,18.26,0,0,0,12.74,5.29,17.79,17.79,0,0,0,7.08-1.42,2,2,0,0,0,1.13-1.92c-.78-13.5,4.91-28.26,9.88-38.35-4.76,25.65-.37,42.95-.15,43.79a2,2,0,0,0,1.32,1.4,23.1,23.1,0,0,0,7,1.2c8.88,0,11.88-6.54,12-6.82a2,2,0,0,0-.07-1.76,67.36,67.36,0,0,1-7-43.2,118.31,118.31,0,0,0,15.44,35.64,2,2,0,0,0,1.56.86h.62c10.53,0,17.53-10.72,17.82-11.18a2,2,0,0,0-.46-2.66c-14.92-11.6-21.34-23.39-24.11-31.24-3-8.49-2.47-14.33-2.46-14.39a2,2,0,0,0-.13-.93c-1.06-2.67-6.68-16-13.56-16Z" style="fill: #1d1d1b"/>
        </g>
        <g>
          <path d="M263.48,708.76s-41.86,11-25.4,48.68c0,0,11.43.07,13.47-5.75,0,0-14.37-14.29,4.75-23.13" style="fill: #fff"/>
          <path d="M238.12,758.44h0a1,1,0,0,1-.91-.6c-4.84-11.06-5.2-21-1.09-29.46,7.37-15.24,26.34-20.37,27.14-20.58a1,1,0,1,1,.51,1.93c-.19,0-18.89,5.13-25.86,19.53-3.76,7.78-3.47,16.92.87,27.17,3.2-.1,9.82-1,11.64-4.53-1.5-1.67-5.92-7.2-4.84-13.32.78-4.44,4.26-8.12,10.34-10.93a1,1,0,0,1,.84,1.82c-5.45,2.52-8.55,5.69-9.21,9.45-1.09,6.15,4.69,12,4.75,12.06a1,1,0,0,1,.24,1C250.29,758.31,239,758.44,238.12,758.44Z" style="fill: #1d1d1b"/>
        </g>
      </g>
      <g>
        <path d="M378,520s18.33,2.38,10.31,25.28l-8.85,3s5.42,9.61,16.87,1.59,9.17-21.76,2.29-30.92C392.29,510.44,376.86,514.31,378,520Z" style="fill: #fff"/>
        <path d="M387.8,514c3.95,0,8.18,1.38,10.82,4.91,6.88,9.16,9.17,22.91-2.29,30.92-3.37,2.36-6.22,3.2-8.56,3.2a10.06,10.06,0,0,1-8.31-4.79l8.85-3C396.33,522.33,378,520,378,520c-.67-3.28,4.29-6,9.8-6m0-2c-4.45,0-8.6,1.56-10.57,4a5.18,5.18,0,0,0-1.2,4.4,2,2,0,0,0,1.71,1.59c.05,0,5.83.85,8.79,5.69,2.35,3.85,2.42,9.24.21,16l-7.92,2.67a2,2,0,0,0-1.11,2.88A12.07,12.07,0,0,0,387.77,555c3.08,0,6.34-1.2,9.71-3.56a19.92,19.92,0,0,0,8.61-13.31c1-6.52-1.15-14.17-5.87-20.45C397.5,514.06,393,512,387.8,512Z" style="fill: #1d1d1b"/>
      </g>
      <path d="M389.33,541.89c-.28,1.06-.6,2.17-1,3.34l-8.85,3s5.42,9.61,16.87,1.59a18.48,18.48,0,0,0,8-12.6C399.77,542.94,393.28,542.38,389.33,541.89Z" style="fill: #ababab"/>
      <g>
        <g>
          <path d="M366.06,422.76s-16.39-43.16-19.56-98.59c0,0,17.62-64.65,29.24-99.32,0,0,99.6-15,231.08,15.14,0,0,17.77,16.4,41.44,45.36L475.1,316.17Z"/>
          <path d="M366.06,423.76a.83.83,0,0,1-.22,0,1,1,0,0,1-.72-.62c-.16-.43-16.47-43.93-19.62-98.88a1.17,1.17,0,0,1,0-.32c.17-.65,17.76-65.08,29.25-99.38a1,1,0,0,1,.8-.67c1-.15,101.3-14.72,231.45,15.16a1,1,0,0,1,.46.24c.18.16,18.09,16.78,41.53,45.46a1,1,0,0,1,.16,1,1,1,0,0,1-.76.63L475.58,317.1,366.76,423.47A1,1,0,0,1,366.06,423.76Zm-18.55-99.48a373.27,373.27,0,0,0,19,96.68L474.4,315.45a1,1,0,0,1,.52-.27L646.4,284.66c-21.52-26.17-38.11-41.92-40.07-43.75C482,212.4,385,224.58,376.49,225.75,365.29,259.3,348.48,320.72,347.51,324.28Z" style="fill: #1d1d1b"/>
        </g>
        <g>
          <path d="M621.58,416.26s-122,23.14-255.52,6.5c0,0,42-75.67,54.75-154.34,0,0,105.85-6.5,227.45,16.93C648.26,285.35,645.11,364.16,621.58,416.26Z" style="fill: #fff"/>
          <path d="M457.2,267.59c41.21,0,112.87,2.69,191.06,17.76,0,0-3.15,78.81-26.68,130.91,0,0-66,12.52-154.06,12.52a824.67,824.67,0,0,1-101.46-6s42-75.67,54.75-154.34c0,0,13.5-.83,36.39-.83m0-2v0c-22.69,0-36.38.83-36.51.84a2,2,0,0,0-1.85,1.67C406.33,345.51,364.73,421,364.31,421.79a2,2,0,0,0,1.5,2.95,825.17,825.17,0,0,0,101.71,6c87.21,0,153.77-12.43,154.43-12.56a2,2,0,0,0,1.45-1.14c23.42-51.86,26.82-130.86,26.86-131.65a2,2,0,0,0-1.62-2.05c-76.31-14.7-146.23-17.79-191.44-17.79Z" style="fill: #1d1d1b"/>
        </g>
        <path d="M473.62,422.8a728.35,728.35,0,0,1-89.78-5.31,1,1,0,0,1-.76-.54,1,1,0,0,1,0-.93c.38-.68,37.38-67.85,48.51-136.73a1,1,0,0,1,.93-.84c.94-.06,95.35-5.54,202.22,15.05a1,1,0,0,1,.81,1c0,.7-3,70.71-23.78,116.62a1,1,0,0,1-.72.57C610.26,411.86,551.34,422.8,473.62,422.8Zm-88.07-7.11c112.32,13.73,216.42-4.37,224.63-5.85,19.14-42.8,22.93-106.42,23.34-114.54-101-19.35-190.72-15.38-200.08-14.89C423,344.06,390.73,406,385.55,415.69Zm225.32-5h0Z" style="fill: #1d1d1b"/>
        <path d="M434,278.42a1.08,1.08,0,0,1-.57-.17l-13.16-9a1,1,0,0,1-.41-.58c-.06-.23-6.31-23-44.56-42.94a1,1,0,0,1-.42-1.35,1,1,0,0,1,1.34-.42c36.9,19.19,44.52,40.65,45.47,43.84l12.87,8.79a1,1,0,0,1,.26,1.39A1,1,0,0,1,434,278.42Z" style="fill: #fff"/>
        <path d="M371.14,422.78a1,1,0,0,1-.36-1.93l13.72-5.35a1,1,0,1,1,.73,1.86l-13.73,5.35A.92.92,0,0,1,371.14,422.78Z" style="fill: #1d1d1b"/>
        <path d="M621.58,417.26a1.13,1.13,0,0,1-.44-.1l-10.86-5.3a1,1,0,1,1,.87-1.8l10.87,5.3a1,1,0,0,1-.44,1.9Z" style="fill: #1d1d1b"/>
        <g>
          <path d="M634.39,295.05s9.9-3.89,13.87-9.7" style="fill: #fff"/>
          <path d="M634.39,296.05a1,1,0,0,1-.37-1.93c.1,0,9.66-3.85,13.41-9.34a1,1,0,1,1,1.65,1.13c-4.09,6-13.91,9.9-14.33,10.07A1.15,1.15,0,0,1,634.39,296.05Z" style="fill: #1d1d1b"/>
        </g>
        <g>
          <path d="M479.48,248.3a12.08,12.08,0,0,1-7.33-12c.9-12,12-29.28,37.57-25.49,21.92,3.25,25.92,16.07,30.27,27.67a12.12,12.12,0,0,1-9.55,16.21A93.18,93.18,0,0,1,479.48,248.3Z" style="fill: #fff"/>
          <path d="M516,256.75a94.4,94.4,0,0,1-36.93-7.53,13,13,0,0,1-7.94-13A29.74,29.74,0,0,1,482.08,216c7.13-5.69,16.74-7.83,27.79-6.19,21.7,3.22,26.42,15.87,30.58,27l.48,1.27a13.12,13.12,0,0,1-10.34,17.55A98.59,98.59,0,0,1,516,256.75Zm-13.16-45.49c-7.65,0-14.32,2.13-19.53,6.3a27.6,27.6,0,0,0-10.18,18.8,11,11,0,0,0,6.72,11h0a92.69,92.69,0,0,0,50.42,6.3,11.13,11.13,0,0,0,8.77-14.87l-.48-1.27c-4.16-11.17-8.47-22.72-29-25.76A44.93,44.93,0,0,0,502.86,211.26Z" style="fill: #1d1d1b"/>
        </g>
        <path d="M485.83,357.7a1,1,0,0,1-.95-.68c-2.8-8.37-8.07-15.84-13.16-23.06-5.3-7.52-10.78-15.29-13.62-24.21a1,1,0,0,1,1.9-.6c2.75,8.62,8.14,16.26,13.35,23.66s10.53,14.92,13.43,23.58a1,1,0,0,1-.63,1.26A.89.89,0,0,1,485.83,357.7Z" style="fill: #1d1d1b"/>
        <path d="M452.73,361.46a1,1,0,0,1-.66-1.75A195.22,195.22,0,0,0,487.72,318a1,1,0,0,1,1.38-.3,1,1,0,0,1,.31,1.38,197,197,0,0,1-36,42.16A1,1,0,0,1,452.73,361.46Z" style="fill: #1d1d1b"/>
        <path d="M602.55,372.42a1,1,0,0,1-.87-.51l-26.86-47.76a1,1,0,0,1,1.74-1l26.86,47.76a1,1,0,0,1-.38,1.36A1,1,0,0,1,602.55,372.42Z" style="fill: #1d1d1b"/>
        <path d="M560.81,367.54a1,1,0,0,1-.47-1.89A134.64,134.64,0,0,0,602.22,331a1,1,0,0,1,1.41-.15,1,1,0,0,1,.15,1.4,136.71,136.71,0,0,1-42.5,35.19A1,1,0,0,1,560.81,367.54Z" style="fill: #1d1d1b"/>
      </g>
      <path d="M483.3,591.49a1,1,0,0,1-.47-1.89L534.16,563c8.44-4.38,18-9.33,28.32-9.44a464.7,464.7,0,0,1-23.55-106.95,553.8,553.8,0,0,0-138.49,52.47,1,1,0,1,1-1-1.75,555.52,555.52,0,0,1,139.36-52.75,1,1,0,0,1,.25-.38,1,1,0,0,1,.85-.26l1.17.2a1,1,0,0,1,0,2l-.26.06a462.62,462.62,0,0,0,23.58,107.07,1,1,0,0,1,0,.53l-.21,1a1,1,0,0,1-1,.79c-10.15-.15-19.76,4.82-28.23,9.21l-51.32,26.61A1.11,1.11,0,0,1,483.3,591.49Z"/>
      <path d="M440.9,544.34a1,1,0,0,1-.82-.43,1,1,0,0,1,.24-1.39l7.43-5.2c-3.29-6.2-8.3-12-15.69-18.29-1.93-1.64-4-3.27-6.43-3.68-2.12-.36-4.78.63-5.35,2.69a1,1,0,1,1-1.93-.54c.89-3.2,4.65-4.64,7.62-4.12s5.24,2.3,7.38,4.12c7.91,6.69,13.18,13,16.58,19.69a1,1,0,0,1-.32,1.27l-8.14,5.7A1,1,0,0,1,440.9,544.34Z"/>
      <path d="M473.12,581.67a1,1,0,0,1-.46-1.89L478,577c.28-.15.82-.43.91-.69s-.39-1.06-.59-1.32c-5.82-7.94-12.06-15.72-18.55-23.14l-7,4.35a1,1,0,0,1-1-1.7l7.73-4.79a1,1,0,0,1,1.28.18c6.73,7.66,13.2,15.71,19.23,23.92a3.52,3.52,0,0,1,.86,3.15,3.44,3.44,0,0,1-1.88,1.81l-5.3,2.78A.93.93,0,0,1,473.12,581.67Z"/>
      <path d="M427.35,523.16a1.49,1.49,0,0,1-1.11-.53,1.46,1.46,0,0,1-.33-1.26,1,1,0,0,1,1.18-.77l.21.07a.78.78,0,0,1,.21-.09,1,1,0,0,1,1.25.65,1.43,1.43,0,0,1-.21,1.28,1.46,1.46,0,0,1-1.13.64Z"/>
      <path d="M440.05,536.54a1,1,0,0,1-1-.74,1.54,1.54,0,0,1,2.9-1,1,1,0,0,1-.55,1.31,1,1,0,0,1-.61,0,1,1,0,0,1-.52.33A1.15,1.15,0,0,1,440.05,536.54Z"/>
      <path d="M460.72,559.63a1,1,0,0,1-.66-.26,1.12,1.12,0,0,1-.35-1.13,1.27,1.27,0,0,1,.93-.93,1.15,1.15,0,0,1,1.13.36,1,1,0,0,1-.08,1.41l-.13.09-.09.13A1,1,0,0,1,460.72,559.63Zm.67-1.75h0Z"/>
      <path d="M472.6,574.4h-.08l-.7,0a1,1,0,1,1,.16-2l.69.06a1,1,0,0,1-.07,2Z"/>
      <path d="M531.8,458.84h-.22a3.21,3.21,0,0,1-2.55-1.45,2.44,2.44,0,0,0-.48-1.65,3.26,3.26,0,1,1,3.25,3.11Zm-1.31-2.78a.9.9,0,0,1,.24.27,1.36,1.36,0,0,0,2,.12,1.21,1.21,0,0,0,.15-1.08,1.07,1.07,0,0,0-1.78-.62,1.24,1.24,0,0,0-.55.95A1,1,0,0,1,530.49,456.06Z"/>
      <path d="M554.38,551.27a2.57,2.57,0,0,1-.94-.18,1,1,0,0,1-.61-1l.14-1.5a1,1,0,0,1-.51-.15,1,1,0,0,1-.33-1.37,2.75,2.75,0,1,1,4.2,3.42A2.88,2.88,0,0,1,554.38,551.27ZM555,548l-.1,1,0,0a.78.78,0,0,0,.3-.74A.54.54,0,0,0,555,548Z"/>
      <path d="M535.76,529.65a1,1,0,0,1-1-.75,1,1,0,0,1,.72-1.22c2.43-.61,5.09-1.44,6-3.51a7.37,7.37,0,0,0-.14-4.58c-2.28-8.84-6.8-17-11.16-24.85-1.37-2.47-2.67-4.59-4.72-5.57a4.32,4.32,0,0,0-3.7.11,2.34,2.34,0,0,0-1.32,1.69,1,1,0,0,1-2-.31,4.29,4.29,0,0,1,2.37-3.15,6.3,6.3,0,0,1,5.49-.14c2.8,1.33,4.42,4.26,5.61,6.39,4.42,8,9,16.24,11.35,25.33.49,1.93.84,4,0,5.86-1.18,2.78-4.21,3.89-7.32,4.67A1,1,0,0,1,535.76,529.65Z"/>
      <path d="M516.44,496.19a3,3,0,0,1-2.26-.93c-1.39-1.53-1.24-3.66-.91-5.55.24-1.37.67-2.87,2-3.6a2.61,2.61,0,0,1,3,.57,1.91,1.91,0,0,1,.31,2.34,1,1,0,0,1-1.37.33,1,1,0,0,1-.39-1.28.6.6,0,0,0-.29-.18.43.43,0,0,0-.31,0c-.6.32-.84,1.29-1,2.19-.25,1.41-.39,3,.41,3.85a1.33,1.33,0,0,0,1.47.13c.33-.16.3-.3.28-.37a1,1,0,0,1,2-.4,2.28,2.28,0,0,1-1.33,2.55A3.48,3.48,0,0,1,516.44,496.19Z"/>
      <path d="M532.46,531a4.41,4.41,0,0,1-2.39-.68,1,1,0,0,1-.31-1.38,1,1,0,0,1,1.39-.3,2.71,2.71,0,0,0,3.51-4.09,2.69,2.69,0,0,0-2.27-1,3,3,0,0,0-2.29,3.91,1,1,0,0,1-.5,1.32,1,1,0,0,1-1.32-.5,4.86,4.86,0,1,1,6.1,2.37A5.21,5.21,0,0,1,532.46,531Z"/>
      <path d="M474.26,503.86a1,1,0,0,1-.86-.48c-5.55-9.21-11.64-18.25-18.09-26.87a1,1,0,1,1,1.6-1.2c6.49,8.67,12.62,17.77,18.21,27a1,1,0,0,1-.34,1.37A1,1,0,0,1,474.26,503.86Z"/>
      <path d="M471.27,483.8a1,1,0,0,1-.81-.42l-8.38-11.57a1,1,0,0,1,1.63-1.18l8.37,11.58a1,1,0,0,1-.23,1.4A1,1,0,0,1,471.27,483.8Z"/>
      <path d="M500.7,573.32a1,1,0,0,1-.89-.55,1,1,0,0,1,.44-1.34l24.19-12a1,1,0,0,1,.89,1.8l-24.18,12A1,1,0,0,1,500.7,573.32Z"/>
      <path d="M407.1,506.93a1,1,0,0,1-.5-1.87l16.31-9.4a1,1,0,1,1,1,1.73L407.6,506.8A1,1,0,0,1,407.1,506.93Z"/>
      <path d="M582.24,574.34a3.11,3.11,0,0,1-3.17-3.19,2.94,2.94,0,0,1,1.39-2.69,1,1,0,0,1,1.37.36,1,1,0,0,1-.36,1.36,1,1,0,0,0-.4.91,1.28,1.28,0,0,0,.6,1.12,1.44,1.44,0,0,0,1.22,0A1.92,1.92,0,0,0,584,571.1a2.68,2.68,0,0,0-1.16-2.87,4.3,4.3,0,0,0-3.6-.36,1,1,0,0,1-1.25-.66,1,1,0,0,1,.66-1.25,6.29,6.29,0,0,1,5.3.61,4.62,4.62,0,0,1,2,5.16,3.94,3.94,0,0,1-2.23,2.33A3.69,3.69,0,0,1,582.24,574.34Z"/>
      <path d="M503.25,606.65a3.88,3.88,0,0,1-2.29-.78,4.29,4.29,0,0,1-1.76-3.1,1,1,0,0,1,1.68-.8,3.1,3.1,0,0,1,1.09-1.26,3,3,0,0,1,3.69,0,3.14,3.14,0,0,1,.89,3.18,3.53,3.53,0,0,1-2.51,2.64A3.48,3.48,0,0,1,503.25,606.65Zm-1-2.29a1.72,1.72,0,0,0,1.29.26,1.6,1.6,0,0,0,1-1.18,1.23,1.23,0,0,0-.27-1.19,1.07,1.07,0,0,0-1.23.11c-.1.07-.59.43-.44.83A1,1,0,0,1,502.29,604.36Z"/>
      <path d="M386.12,468.11a5,5,0,0,1-2.56-.69,1,1,0,1,1,1-1.72,3,3,0,0,0,3.75-.58,2.22,2.22,0,0,0,.23-1.93,1.7,1.7,0,0,0-1-1.15,1.56,1.56,0,0,0-1.51.59,1.21,1.21,0,0,0-.29,1.26,1,1,0,0,1-1.78.9,3.12,3.12,0,0,1,.54-3.45,3.47,3.47,0,0,1,3.64-1.21,3.69,3.69,0,0,1,2.34,2.44,4.17,4.17,0,0,1-.52,3.73A4.7,4.7,0,0,1,386.12,468.11Z"/>
      <path d="M582.73,512.8a1,1,0,0,1-1-.83,653.27,653.27,0,0,1-8.3-68.43,1,1,0,0,1,.93-1.07,1,1,0,0,1,1.07.93,652.11,652.11,0,0,0,8.27,68.23,1,1,0,0,1-.81,1.16Z"/>
      <path d="M559.15,820.52a1,1,0,0,1-.8-1.59,132.68,132.68,0,0,0,21.18-43.76,1,1,0,0,1,1.93.53A134.8,134.8,0,0,1,560,820.12,1,1,0,0,1,559.15,820.52Z" style="fill: #1d1d1b"/>
      <path d="M751.66,450.94a1,1,0,0,1-.94-.67,92.31,92.31,0,0,0-39.34-48,1,1,0,0,1,1-1.72,94.31,94.31,0,0,1,40.2,49.06,1,1,0,0,1-.61,1.27A1,1,0,0,1,751.66,450.94Z" style="fill: #1d1d1b"/>
      <path d="M750.59,429a1,1,0,0,1-.92-.63,26.22,26.22,0,0,0-9-11.44,1,1,0,1,1,1.16-1.63,28.21,28.21,0,0,1,9.72,12.32,1,1,0,0,1-.55,1.31A1.22,1.22,0,0,1,750.59,429Z" style="fill: #1d1d1b"/>
    </g>
    <g id="aec06e95-781d-4f53-859f-587930b1925c" data-name="pattern">
      <path d="M333.83,875.38a1,1,0,0,1-1-1,1,1,0,0,1,1-1l21.28-.62a1,1,0,0,1,1,1,1,1,0,0,1-1,1l-21.28.62Z" style="fill: #1d1d1b"/>
      <path d="M340.07,888.08a1,1,0,0,1-.29-2l12.61-3.91a1,1,0,0,1,.6,1.91L340.37,888A1,1,0,0,1,340.07,888.08Z" style="fill: #1d1d1b"/>
      <path d="M388.25,708.31a1,1,0,0,1-.1-2l54.33-5.78a1,1,0,0,1,1.1.89,1,1,0,0,1-.89,1.1l-54.33,5.78Z" style="fill: #1d1d1b"/>
      <path d="M213.24,825.26a.82.82,0,0,1-.26,0,1,1,0,0,1-.7-1.22l6.19-22.88a1,1,0,1,1,1.93.52l-6.19,22.88A1,1,0,0,1,213.24,825.26Z" style="fill: #1d1d1b"/>
      <path d="M224.32,816.6a1,1,0,0,1-1-.84A16,16,0,0,1,225,805.68a1,1,0,1,1,1.76.94,14.16,14.16,0,0,0-1.47,8.83,1,1,0,0,1-.83,1.14Z" style="fill: #1d1d1b"/>
      <path d="M659.9,267.26a1,1,0,0,1-.57-1.82l7.9-5.49a1,1,0,0,1,1.14,1.64l-7.9,5.49A1,1,0,0,1,659.9,267.26Z" style="fill: #1d1d1b"/>
      <path d="M660.93,278.84a1,1,0,0,1-.29-1.95L676.35,272a1,1,0,1,1,.59,1.91l-15.71,4.87A1,1,0,0,1,660.93,278.84Z" style="fill: #1d1d1b"/>
      <path d="M328.33,429a1,1,0,0,1-.53-1.85l12.6-7.88a1,1,0,1,1,1.06,1.7l-12.61,7.88A1,1,0,0,1,328.33,429Z" style="fill: #1d1d1b"/>
      <path d="M338.57,435.26a1,1,0,0,1-.48-.12,1,1,0,0,1-.4-1.35l4.73-8.67a1,1,0,1,1,1.75,1l-4.72,8.66A1,1,0,0,1,338.57,435.26Z" style="fill: #1d1d1b"/>
      <path d="M347.24,459.69l-.21,0a1,1,0,0,1-.77-1.19l3.94-18.91a1,1,0,1,1,1.95.41l-3.94,18.91A1,1,0,0,1,347.24,459.69Z" style="fill: #1d1d1b"/>
      <path d="M627.46,193.1a13.18,13.18,0,0,1-7.91-2.79A16.44,16.44,0,0,1,613,178.65,20.33,20.33,0,0,1,616.6,166a18.63,18.63,0,0,0-3.27,1.16c-6.71,3.13-12.3,9.8-15.75,18.78a1,1,0,0,1-1.29.58,1,1,0,0,1-.58-1.3c3.64-9.47,9.59-16.53,16.77-19.87a21.8,21.8,0,0,1,5.88-1.75,30,30,0,0,1,5.85-5.4c6.57-4.6,14.68-6.81,21.83-8.77a1,1,0,0,1,.52,1.93c-7.33,2-14.91,4.08-21.21,8.48a27.86,27.86,0,0,0-4.09,3.51c6-.17,12.16,2,15.87,7.07a15.27,15.27,0,0,1,1.55,14.26c-1.63,4.29-4.83,7.25-8.77,8.12A11.93,11.93,0,0,1,627.46,193.1Zm-8-27.59a19.11,19.11,0,0,0-4.41,13,14.44,14.44,0,0,0,5.73,10.2,10.67,10.67,0,0,0,8.73,2.17c3.27-.71,5.94-3.22,7.33-6.87a13.42,13.42,0,0,0-1.3-12.38C631.83,166.58,625.36,164.81,619.43,165.51Z" style="fill: #1d1d1b"/>
      <path d="M809.7,311.41h-.19a1,1,0,0,1-.8-1.17,33.78,33.78,0,0,0-46.08-37.39,1,1,0,0,1-1.3-.54,1,1,0,0,1,.54-1.31,35.78,35.78,0,0,1,48.81,39.6A1,1,0,0,1,809.7,311.41Z" style="fill: #1d1d1b"/>
      <path d="M798.27,635.41h-.37a1,1,0,0,1,.12-2,5.2,5.2,0,1,0-3.95-2.07,1,1,0,0,1-.17,1.4,1,1,0,0,1-1.4-.17,7.49,7.49,0,1,1,11.28.23A7.49,7.49,0,0,1,798.27,635.41Z" style="fill: #1d1d1b"/>
      <g id="bad0203c-9a7d-4f89-a706-dd6742397b8d" data-name="wire">
        <path d="M226.74,308.16a7.32,7.32,0,0,1-1.84-.24c-3-.79-5.35-3.59-6.79-8.08a37.77,37.77,0,0,1-1.81-10.9,1,1,0,0,1,1-1,1,1,0,0,1,1,1A35.87,35.87,0,0,0,220,299.23c.86,2.66,2.48,6,5.4,6.76,2.68.71,5.55-.95,8-2.67a115.87,115.87,0,0,0,15.72-13.19c2.27-2.28,5.37-5.39,9.27-5,3.21.3,5.33,2.73,7.38,5.09,1.86,2.13,3.61,4.14,6,4.44a1,1,0,0,1-.25,2c-3.14-.39-5.23-2.79-7.24-5.11-1.88-2.15-3.65-4.18-6.07-4.41-2.73-.27-5.09,1.86-7.67,4.45a117.83,117.83,0,0,1-16,13.42C232.24,306.59,229.55,308.16,226.74,308.16Z" style="fill: #1d1d1b"/>
        <path d="M223.7,319.18a10.39,10.39,0,0,1-3.92-.73c-2.79-1.14-5.16-3.59-7.23-7.51a39.75,39.75,0,0,1-4.62-19.29,1,1,0,0,1,1-1,1,1,0,0,1,1,1A37.79,37.79,0,0,0,214.31,310c1.85,3.49,3.89,5.64,6.23,6.6,3.06,1.24,7.11.49,10.84-2a45.7,45.7,0,0,0,5.64-4.78c1.18-1.12,2.4-2.27,3.69-3.33,4.17-3.44,8.22-5,12-4.6,5.42.54,9.5,4.85,12.77,9a1,1,0,1,1-1.57,1.24c-3-3.81-6.72-7.78-11.4-8.24-3.27-.33-6.84,1.07-10.58,4.16-1.23,1-2.43,2.14-3.58,3.23a47.42,47.42,0,0,1-5.9,5A16,16,0,0,1,223.7,319.18Z" style="fill: #1d1d1b"/>
        <path d="M267.2,313.82a4.62,4.62,0,0,1-3.51-1.8,8.86,8.86,0,0,1-1.55-3.64,18.09,18.09,0,0,1,1.62-12.19,5.31,5.31,0,0,1,1.79-2.11,2.87,2.87,0,0,1,3.29.06,1,1,0,0,1-1.26,1.56.91.91,0,0,0-1,.07,3.71,3.71,0,0,0-1.09,1.37A16.06,16.06,0,0,0,264.1,308a6.38,6.38,0,0,0,1.15,2.8,2.51,2.51,0,0,0,2.16,1,2.64,2.64,0,0,0,1.82-1.4,9.78,9.78,0,0,0,.94-2.84l1.36-6a5.93,5.93,0,0,0,.15-3.28,1.77,1.77,0,0,0-1-1,.71.71,0,0,0-.64,0,1,1,0,0,1-1.06-1.7,2.73,2.73,0,0,1,2.34-.22,3.7,3.7,0,0,1,2.24,2.14,7.71,7.71,0,0,1-.07,4.43l-1.36,6a11.52,11.52,0,0,1-1.16,3.4,4.6,4.6,0,0,1-3.3,2.39A3.55,3.55,0,0,1,267.2,313.82Z" style="fill: #1d1d1b"/>
        <path d="M208.43,292.16a.91.91,0,0,1-.23,0,1,1,0,0,1-.74-1.2,6.15,6.15,0,0,1,9.94-3.29,1,1,0,1,1-1.29,1.53,4.16,4.16,0,0,0-6.71,2.22A1,1,0,0,1,208.43,292.16Z" style="fill: #1d1d1b"/>
        <path d="M255,301.86a1,1,0,0,1-1-.88,10,10,0,0,1,1.5-6.56,1,1,0,1,1,1.68,1.09,8,8,0,0,0-1.19,5.23,1,1,0,0,1-.88,1.11Z" style="fill: #1d1d1b"/>
        <path d="M246.49,303.63a1,1,0,0,1-1-.67,6.66,6.66,0,0,1,1.18-6.39,1,1,0,0,1,1.53,1.3,4.69,4.69,0,0,0-.82,4.43,1,1,0,0,1-.61,1.28A1,1,0,0,1,246.49,303.63Z" style="fill: #1d1d1b"/>
        <path d="M226.4,318.8a1,1,0,0,1-.73-.32,7.92,7.92,0,0,1-1.52-8.12,1,1,0,1,1,1.86.73,6,6,0,0,0,1.13,6,1,1,0,0,1-.06,1.41A1,1,0,0,1,226.4,318.8Z" style="fill: #1d1d1b"/>
        <path d="M217.57,314.06a1,1,0,0,1-1-1,20.13,20.13,0,0,1,1.08-7.09,1,1,0,0,1,1.89.65,18.24,18.24,0,0,0-1,6.39,1,1,0,0,1-1,1Z" style="fill: #1d1d1b"/>
        <path d="M207.75,280.67a1,1,0,0,1-.8-.41A39.8,39.8,0,0,1,200.61,267a1,1,0,0,1,1.93-.51,37.93,37.93,0,0,0,6,12.61,1,1,0,0,1-.22,1.4A1,1,0,0,1,207.75,280.67Z" style="fill: #1d1d1b"/>
        <path d="M210.67,279.34a1,1,0,0,1-.94-.66,46.93,46.93,0,0,1-2.7-11.57,1,1,0,0,1,.89-1.1,1,1,0,0,1,1.1.89A45.4,45.4,0,0,0,211.6,278a1,1,0,0,1-.59,1.28A.83.83,0,0,1,210.67,279.34Z" style="fill: #1d1d1b"/>
        <path d="M215.72,278.26h-.07a1,1,0,0,1-.93-1.06l.25-3.91a1,1,0,1,1,2,.13l-.26,3.9A1,1,0,0,1,215.72,278.26Z" style="fill: #1d1d1b"/>
        <path d="M290.09,325.18a1,1,0,0,1-.6-.2L275.31,314.3a1,1,0,1,1,1.21-1.59l14.17,10.67a1,1,0,0,1-.6,1.8Z" style="fill: #1d1d1b"/>
        <path d="M291,317.16a.9.9,0,0,1-.48-.12l-9-4.88a1,1,0,1,1,1-1.75l8.95,4.88a1,1,0,0,1,.39,1.35A1,1,0,0,1,291,317.16Z" style="fill: #1d1d1b"/>
        <path d="M288.62,307.56a.85.85,0,0,1-.23,0l-4.3-1a1,1,0,1,1,.45-2l4.3,1a1,1,0,0,1-.22,2Z" style="fill: #1d1d1b"/>
      </g>
      <g id="eeaf271e-5dec-477f-b238-dd847bdbddaa" data-name="pin">
        <g>
          <polygon points="672.37 750.38 685.33 739.93 714.03 759.58 698.47 772.13 680.23 765.44 672.37 750.38"/>
          <path d="M685.33,739.93,714,759.58l-15.56,12.55-18.24-6.69-7.86-15.06,13-10.45m0-2a2,2,0,0,0-1.25.44l-13,10.46a2,2,0,0,0-.52,2.48l7.87,15.06a2,2,0,0,0,1.08,1L697.78,774a2,2,0,0,0,.69.12,2,2,0,0,0,1.25-.44l15.56-12.55a2,2,0,0,0-.12-3.21l-28.7-19.65a2,2,0,0,0-1.13-.35Z" style="fill: #1d1d1b"/>
        </g>
        <g>
          <polygon points="684.03 740.97 694.41 732.61 708.21 736.45 719.71 750.72 711.43 761.67 693.99 758.62 684.03 740.97" style="fill: #fff"/>
          <path d="M694.41,732.61l13.8,3.84,11.5,14.26-8.28,11-17.44-3L684,741l10.38-8.36m0-2a2,2,0,0,0-1.26.44l-10.37,8.37a2,2,0,0,0-.49,2.53l10,17.66a2,2,0,0,0,1.4,1l17.44,3a2,2,0,0,0,.34,0,2,2,0,0,0,1.6-.79l8.28-11a2,2,0,0,0,0-2.46l-11.5-14.26a2,2,0,0,0-1-.67l-13.81-3.85a1.88,1.88,0,0,0-.53-.07Z" style="fill: #1d1d1b"/>
        </g>
        <path d="M682.58,768.83a1,1,0,0,1-.63-1.78l10.12-8.16a1,1,0,0,1,1.4.15,1,1,0,0,1-.15,1.41l-10.11,8.15A1,1,0,0,1,682.58,768.83Z" style="fill: #fff"/>
        <g>
          <ellipse cx="702.4" cy="746.49" rx="4.16" ry="7.5" transform="translate(-284.79 1022.31) rotate(-62.35)"/>
          <path d="M705.54,752.56a12.39,12.39,0,0,1-5.54-1.49,12.19,12.19,0,0,1-4.5-3.88c-1.1-1.67-1.32-3.32-.63-4.64,1.35-2.57,5.7-2.84,9.92-.63a12.08,12.08,0,0,1,4.5,3.87c1.1,1.67,1.33,3.32.63,4.64s-2.17,2.08-4.17,2.13Zm-6.28-10.14a2.84,2.84,0,0,0-2.62,1.06,2.72,2.72,0,0,0,.53,2.61,10,10,0,0,0,3.76,3.2,10.16,10.16,0,0,0,4.77,1.27,2.12,2.12,0,0,0,1.92-3.67,11.19,11.19,0,0,0-8.36-4.47Z" style="fill: #1d1d1b"/>
        </g>
      </g>
    </g>
  </g>
</svg>
