<svg xmlns="http://www.w3.org/2000/svg" width="1000" height="1000" viewBox="0 0 1000 1000">
  <g id="a9db1e69-2ff9-4e78-8177-c06859d2aeb2" data-name="Coming Soon">
    <g id="f1877edb-cb88-4b72-ba18-a4c878c85456" data-name="background">
      <g id="a115274d-bc56-4743-8eb0-d973fefc5a08" data-name="8">
        <path d="M165.21,792.44a1.49,1.49,0,0,1-1.49-1.46,549.7,549.7,0,0,0-5.59-63.43,1.5,1.5,0,1,1,3-.44,549.29,549.29,0,0,1,5.62,63.79,1.5,1.5,0,0,1-1.45,1.54Z" style="fill: #dbdbdb"/>
        <path d="M162.26,728a1.5,1.5,0,0,1-.07-3l49.2-2.45a1.5,1.5,0,0,1,.15,3L162.33,728Z" style="fill: #dbdbdb"/>
        <path d="M168.79,737.85a3.94,3.94,0,0,1-3-1.34,1.49,1.49,0,0,1-.36-.94,1.53,1.53,0,0,1-.52-.86,4,4,0,0,1,7.49-2.52,3.84,3.84,0,0,1-3.17,5.64Zm-.93-3.47a1.8,1.8,0,0,1,.2.19,1.18,1.18,0,0,0,1.67-.16,1,1,0,0,0-1.57-1.15,1,1,0,0,0-.33.85A1.24,1.24,0,0,1,167.86,734.38Z" style="fill: #dbdbdb"/>
        <path d="M183,792l-.75-44.87c0-1.64,1-3,2.35-3a53.3,53.3,0,0,0,8.18-.39c1.43-.18,2.64,1.3,2.53,3.1-.92,14.9-1.11,29.86-.56,44.79" style="fill: #dbdbdb"/>
        <path d="M208,791l-.75-44.87c0-1.64,1-3,2.35-3a53.3,53.3,0,0,0,8.18-.39c1.43-.18,2.64,1.3,2.53,3.1-.92,14.9-1.11,29.86-.56,44.79" style="fill: #dbdbdb"/>
        <path d="M231,791l-.75-44.87c0-1.64,1-3,2.35-3a53.3,53.3,0,0,0,8.18-.39c1.43-.18,2.64,1.3,2.53,3.1-.92,14.9-1.11,29.86-.56,44.79" style="fill: #dbdbdb"/>
      </g>
      <g id="fd6435ea-d4f4-4b24-9fe7-ed0195ace04f" data-name="7">
        <path d="M721.05,772.25l-3-.07a1049,1049,0,0,0-3.35-110.87l3-.25A1055.1,1055.1,0,0,1,721.05,772.25Z" style="fill: #dbdbdb"/>
        <path d="M706.47,684.46a4.57,4.57,0,0,1-2.92-1.09,4.4,4.4,0,0,1-1.67-3.87l3,.34a1.44,1.44,0,0,0,.6,1.22,1.49,1.49,0,0,0,1.31.36,1.67,1.67,0,0,0,.69-2.39,1.49,1.49,0,0,0-1.31-.39,1.46,1.46,0,0,0-1.15.72l-2.71-1.29a4.44,4.44,0,1,1,5.37,6.22A4,4,0,0,1,706.47,684.46Z" style="fill: #dbdbdb"/>
        <path d="M705.71,720a4.48,4.48,0,0,1-3.92-2.6,4.61,4.61,0,0,1-.41-3.26l-1-.35a5.26,5.26,0,0,1,3.85-3.18,4.91,4.91,0,0,1,4.58,1.22,4.77,4.77,0,0,1,1,5,4.54,4.54,0,0,1-3.63,3.17A4.19,4.19,0,0,1,705.71,720Zm-1.85-6,.6.57a1.32,1.32,0,0,0,0,1.45,1.57,1.57,0,0,0,1.37,1A1.64,1.64,0,0,0,707,715.8a1.89,1.89,0,0,0-.27-1.88,1.93,1.93,0,0,0-1.82-.41A2.72,2.72,0,0,0,703.86,714Z" style="fill: #dbdbdb"/>
      </g>
      <g id="f990f10b-4514-498e-8a9f-5d7e72b80aa0" data-name="6">
        <path d="M830,818.21l-.23,0a1.49,1.49,0,0,1-1.26-1.7,304.25,304.25,0,0,0,2.6-65.93c-.56-8.07-1.46-16.66-4.22-24.84-2-6-6.07-14.45-13.69-20.16-6.85-5.14-15.61-6.93-22.86-4.67a1.5,1.5,0,0,1-.89-2.87c8.15-2.54,17.94-.57,25.55,5.14,6.52,4.89,11.61,12.36,14.73,21.6,2.87,8.5,3.8,17.32,4.38,25.59a307.71,307.71,0,0,1-2.63,66.58A1.5,1.5,0,0,1,830,818.21Z" style="fill: #dbdbdb"/>
        <path d="M820.22,821.12a20.58,20.58,0,0,1-6.31-1,1.5,1.5,0,0,1,.91-2.86A18.13,18.13,0,0,0,828.63,816a1.5,1.5,0,1,1,1.41,2.65A21,21,0,0,1,820.22,821.12Z" style="fill: #cfcfcf"/>
        <path d="M803,825.49a21.36,21.36,0,0,1-4.49-.5,37.69,37.69,0,0,1-17.17-8.67,1.51,1.51,0,0,1-.13-2.11,118.92,118.92,0,0,0-13.58-93l-.46-.74c-2.41-3.83-5.14-8.17-5-13.07.23-6.9,6.6-12.9,14.2-13.39,6.31-.39,12.89,2.62,18,8.28,4.36,4.8,7.19,10.73,9.92,16.89,4.76,10.7,8.41,19.82,10.75,29.53,5.58,23.16,2.62,47.5-.59,66.12-.35,2-.83,4.81-2.5,6.94C810.14,824.21,807,825.49,803,825.49Zm-18.84-10.7a34.78,34.78,0,0,0,15,7.27c2.28.48,7.87,1.24,10.52-2.15,1.11-1.42,1.52-3.38,1.9-5.61,3.16-18.33,6.09-42.28.63-64.91-2.29-9.49-5.88-18.46-10.57-29-2.73-6.16-5.33-11.62-9.4-16.09-4.46-4.91-10.31-7.65-15.63-7.3s-11.2,4.64-11.4,10.49c-.13,4,2.23,7.74,4.52,11.37l.46.75A122,122,0,0,1,784.19,814.79Z" style="fill: #dbdbdb"/>
        <path d="M771.08,721.19a1.5,1.5,0,0,1-1.5-1.5,15,15,0,0,1,23.11-12.59,1.5,1.5,0,0,1-1.63,2.52,12,12,0,0,0-18.48,10.07A1.5,1.5,0,0,1,771.08,721.19Z" style="fill: #dbdbdb"/>
        <path d="M777.38,732.17a1.59,1.59,0,0,1-.43-.06,1.5,1.5,0,0,1-1-1.87,19.6,19.6,0,0,1,19.37-13.45,1.49,1.49,0,0,1,1.4,1.59,1.52,1.52,0,0,1-1.59,1.4,16.49,16.49,0,0,0-16.3,11.32A1.51,1.51,0,0,1,777.38,732.17Z" style="fill: #dbdbdb"/>
        <path d="M784.68,742.17a1.5,1.5,0,0,1-1.33-2.18,19.38,19.38,0,0,1,17.51-10.49,1.5,1.5,0,0,1-.07,3A16.6,16.6,0,0,0,786,741.34,1.49,1.49,0,0,1,784.68,742.17Z" style="fill: #dbdbdb"/>
        <path d="M801.9,771.45a21.1,21.1,0,0,1-12.38-3.93,1.5,1.5,0,1,1,1.77-2.42,18.25,18.25,0,0,0,18.13,1.71,1.5,1.5,0,1,1,1.29,2.7A20.52,20.52,0,0,1,801.9,771.45Z" style="fill: #dbdbdb"/>
        <path d="M805.6,783.7a25.88,25.88,0,0,1-13.75-3.92,1.5,1.5,0,0,1,1.6-2.54,22.93,22.93,0,0,0,19.28,2.32,1.5,1.5,0,1,1,.95,2.84A25.31,25.31,0,0,1,805.6,783.7Z" style="fill: #dbdbdb"/>
        <path d="M799.49,798.31a23.24,23.24,0,0,1-11.78-3.15,1.49,1.49,0,0,1-.54-2,1.51,1.51,0,0,1,2.06-.53,20.55,20.55,0,0,0,20,.26,1.5,1.5,0,1,1,1.45,2.63A23.26,23.26,0,0,1,799.49,798.31Z" style="fill: #dbdbdb"/>
        <path d="M799.51,810.3A20.3,20.3,0,0,1,787,806.07a1.5,1.5,0,1,1,1.86-2.36A17.68,17.68,0,0,0,808.17,805a1.5,1.5,0,0,1,1.53,2.58A20,20,0,0,1,799.51,810.3Z" style="fill: #dbdbdb"/>
        <path d="M798.54,818.92a16.4,16.4,0,0,1-9.18-2.78,1.5,1.5,0,0,1,1.68-2.48,13.65,13.65,0,0,0,13.51.84,1.5,1.5,0,1,1,1.36,2.68A16.33,16.33,0,0,1,798.54,818.92Z" style="fill: #cfcfcf"/>
        <path d="M824.62,808.43a12.68,12.68,0,0,1-8.27-3,1.5,1.5,0,0,1,2-2.26,9.83,9.83,0,0,0,10.56,1.28,1.49,1.49,0,0,1,2,.65,1.5,1.5,0,0,1-.64,2A12.43,12.43,0,0,1,824.62,808.43Z" style="fill: #dbdbdb"/>
        <path d="M826.36,791.68a22.86,22.86,0,0,1-7.23-1.18,1.5,1.5,0,0,1,1-2.84,19.83,19.83,0,0,0,10.25.62,1.5,1.5,0,1,1,.6,2.94A22.71,22.71,0,0,1,826.36,791.68Z" style="fill: #dbdbdb"/>
        <path d="M824.93,781.73a10.9,10.9,0,0,1-6.65-2.19,1.5,1.5,0,1,1,1.84-2.37,8.08,8.08,0,0,0,9.49.09,1.5,1.5,0,0,1,1.8,2.41A10.89,10.89,0,0,1,824.93,781.73Z" style="fill: #dbdbdb"/>
        <path d="M823.78,756a15.11,15.11,0,0,1-4.27-.62,1.5,1.5,0,0,1,.86-2.87,12.11,12.11,0,0,0,9-.88,1.5,1.5,0,1,1,1.4,2.65A15,15,0,0,1,823.78,756Z" style="fill: #dbdbdb"/>
        <path d="M821.31,744.29a13.14,13.14,0,0,1-5.78-1.31,1.5,1.5,0,0,1,1.33-2.69,10.52,10.52,0,0,0,11.21-1.39,1.5,1.5,0,1,1,1.95,2.28A13.53,13.53,0,0,1,821.31,744.29Z" style="fill: #dbdbdb"/>
        <path d="M822.72,721.74a1.51,1.51,0,0,1-.65-.15,16.17,16.17,0,0,0-12.58-.57,1.49,1.49,0,0,1-1.93-.87,1.5,1.5,0,0,1,.87-1.93,19.22,19.22,0,0,1,15,.67,1.5,1.5,0,0,1-.66,2.85Z" style="fill: #dbdbdb"/>
        <path d="M805.57,714.49a1.51,1.51,0,0,1-1.26-2.32,11.63,11.63,0,0,1,12-4.94,1.5,1.5,0,0,1-.63,2.93,8.68,8.68,0,0,0-8.84,3.65A1.51,1.51,0,0,1,805.57,714.49Z" style="fill: #dbdbdb"/>
      </g>
      <g id="fd9867da-86ad-48db-9391-e29506b15357" data-name="5">
        <path d="M234.5,541.12a171.78,171.78,0,0,1-25.95-2,1.5,1.5,0,0,1-1.27-1.35l-3.91-44a1.5,1.5,0,0,1,0-3L288.75,485a1.48,1.48,0,0,1,1.59,1.61l-3.53,45.52a1.49,1.49,0,0,1-1.05,1.32A175.39,175.39,0,0,1,234.5,541.12Zm-24.33-4.75a171.84,171.84,0,0,0,73.73-5.48l3.32-42.77-80.86,5.46Z" style="fill: #e6e6e6"/>
        <path d="M244.77,557.5a1.51,1.51,0,0,1-1.5-1.37l-1.16-12.87a1.5,1.5,0,0,1,3-.27l1,11.34a639.68,639.68,0,0,1,68.31-4.13L313,520a4.83,4.83,0,0,0-.47-2.31c-.39-.54-1.26-.7-2.52-.77l-21.37-1.33a1.5,1.5,0,0,1-1.4-1.59,1.48,1.48,0,0,1,1.59-1.4l21.37,1.32c1.2.08,3.45.22,4.75,2a7,7,0,0,1,1,4l1.47,31.76a1.5,1.5,0,0,1-1.49,1.57,635.2,635.2,0,0,0-71.07,4.3Z" style="fill: #e6e6e6"/>
        <path d="M279.05,499.58a2.72,2.72,0,0,1-2.41-1.41,1.5,1.5,0,0,1,.61-2,1.7,1.7,0,0,1,.35-.14,1.3,1.3,0,0,1-.14-.52,1.49,1.49,0,0,1,1.35-1.63,2.67,2.67,0,0,1,2.42,1.19,3,3,0,0,1,.32,3,2.72,2.72,0,0,1-2.42,1.56Z" style="fill: #e6e6e6"/>
        <path d="M216.8,504.82a3.16,3.16,0,0,1-2.4-1.18,3.6,3.6,0,0,1-.81-2.95,1.5,1.5,0,0,1,1.75-1.19,1.48,1.48,0,0,1,.83.45l.08-.05a3.38,3.38,0,0,1,2.67-.41,1.51,1.51,0,0,1,1.08,1.14,3.68,3.68,0,0,1-.75,3,3.2,3.2,0,0,1-2.42,1.23Z" style="fill: #e6e6e6"/>
        <path d="M306.5,527.56a2,2,0,0,1-.42,0,1.5,1.5,0,0,1-.61-2.7,1.46,1.46,0,0,1-.83-.68,1.49,1.49,0,0,1,.55-2,2.65,2.65,0,0,1,2.48-.06,2.88,2.88,0,0,1,1.61,2.16,3,3,0,0,1-.88,2.56A2.7,2.7,0,0,1,306.5,527.56Z" style="fill: #e6e6e6"/>
      </g>
      <g id="a303308a-f2ce-4001-ab95-53ee9ba2794e" data-name="4">
        <path d="M566.21,873.85a78.46,78.46,0,0,1-16.43-1.71c-1.26-.27-5.09-1.09-6-4.22-.72-2.38.54-4.95,3.55-7.24a46,46,0,0,1,41.42-7.07,1.5,1.5,0,1,1-.92,2.85,43,43,0,0,0-38.68,6.61c-.91.69-3,2.45-2.5,4,.29,1,1.53,1.67,3.78,2.16a77.39,77.39,0,0,0,42.07-2.93c3.14-1.15,6.93-3.18,7.15-6.35a6.09,6.09,0,0,0-2.57-4.83,20.86,20.86,0,0,0-6-2.84,1.5,1.5,0,0,1-.91-1.92,1.49,1.49,0,0,1,1.91-.91,23.24,23.24,0,0,1,6.85,3.31,8.86,8.86,0,0,1,3.71,7.39c-.18,2.64-1.91,6.34-9.12,9A80.19,80.19,0,0,1,566.21,873.85Z" style="fill: #e6e6e6"/>
        <path d="M542.48,895.49c-3.18,0-5.21-1.2-5.58-3.32s1.19-3.61,1.71-4.13a18.46,18.46,0,0,1,16.07-5.12,1.51,1.51,0,0,1,1.22,1.74,1.68,1.68,0,0,1-.09.32,4.18,4.18,0,0,1,1.24.53,4.42,4.42,0,0,1,2.09,3.56,6,6,0,0,1-3.73,5.3,14.3,14.3,0,0,1-5.58.93l-7,.19Zm9.13-9.83a15.42,15.42,0,0,0-10.87,4.49c-.88.89-.92,1.35-.89,1.5.09.52,1.34.88,2.91.84l7-.19a11.89,11.89,0,0,0,4.44-.67,3,3,0,0,0,1.95-2.48,1.48,1.48,0,0,0-.69-1.11.77.77,0,0,0-.69-.12,1.5,1.5,0,0,1-1.85-2.21C552.47,885.68,552,885.66,551.61,885.66Z" style="fill: #e6e6e6"/>
      </g>
      <g id="b21f035a-1a7e-4d60-be00-8c2a432abca3" data-name="3">
        <path d="M732.21,204.89a57.12,57.12,0,0,1-30.22-8.3c-14.41-9.05-23.3-25.23-22.64-41.22.7-17.06,12.62-32.47,28.34-36.64a1.47,1.47,0,0,1,.93,0,1.5,1.5,0,0,1,.89-.64c21.23-5.32,43.16-.92,57.23,11.47,16.27,14.32,20.32,39.18,9,55.41-5.64,8.11-15.09,14.34-26.62,17.56A63.29,63.29,0,0,1,732.21,204.89ZM709.33,121a1.46,1.46,0,0,1-.87.64C694.21,125.41,683,140,682.35,155.5c-.62,14.93,7.72,30.06,21.24,38.55,12.51,7.85,29.24,10,44.75,5.64,10.86-3,19.73-8.85,25-16.38,10.27-14.77,6.35-38.33-8.55-51.45-13.35-11.75-34.24-15.89-54.52-10.81A1.48,1.48,0,0,1,709.33,121Z" style="fill: #e6e6e6"/>
        <path d="M733.37,215.69a71.09,71.09,0,0,1-37.65-10.35c-17.94-11.26-29-31.39-28.18-51.28.88-21.2,15.69-40.36,35.21-45.54a1.47,1.47,0,0,1,1.23.21,1.54,1.54,0,0,1,1-1c26.46-6.62,53.8-1.15,71.33,14.28,20.24,17.81,25.28,48.72,11.25,68.9-7,10.08-18.77,17.83-33.13,21.84A78.54,78.54,0,0,1,733.37,215.69ZM704.55,110.48a1.48,1.48,0,0,1-1,.94c-18,4.78-32.17,23.16-33,42.77-.78,18.83,9.73,37.91,26.78,48.61,15.76,9.9,36.83,12.56,56.35,7.11,13.69-3.82,24.87-11.16,31.48-20.66,13-18.65,8-48.39-10.77-64.94-16.81-14.79-43.1-20-68.62-13.62A1.5,1.5,0,0,1,704.55,110.48Z" style="fill: #e6e6e6"/>
        <path d="M688.81,165.86a1.5,1.5,0,0,1-.19-3l6.67-.83a1.5,1.5,0,0,1,.38,3l-6.67.83Z" style="fill: #e6e6e6"/>
        <path d="M763.84,160.86a1.5,1.5,0,0,1-.59-2.88l5.83-2.5a1.5,1.5,0,0,1,1.18,2.76l-5.83,2.5A1.52,1.52,0,0,1,763.84,160.86Z" style="fill: #e6e6e6"/>
        <path d="M739.52,196.75a1.51,1.51,0,0,1-1.44-1.07l-1.75-5.81a1.5,1.5,0,1,1,2.87-.86l1.75,5.81a1.49,1.49,0,0,1-1,1.86A1.29,1.29,0,0,1,739.52,196.75Z" style="fill: #e6e6e6"/>
        <path d="M721.26,130.05a1.5,1.5,0,0,1-1.34-.83l-1.67-3.34a1.5,1.5,0,1,1,2.68-1.34l1.67,3.34a1.5,1.5,0,0,1-1.34,2.17Z" style="fill: #e6e6e6"/>
        <path d="M727.75,161.81a1.53,1.53,0,0,1-.3,0,1.5,1.5,0,0,1-1.17-1.77,125.09,125.09,0,0,1,9.6-28.77,1.5,1.5,0,1,1,2.71,1.29,121.83,121.83,0,0,0-9.37,28.08A1.5,1.5,0,0,1,727.75,161.81Z" style="fill: #e6e6e6"/>
        <path d="M743.7,170.27a1.51,1.51,0,0,1-.68-.16l-14.25-7.35a1.5,1.5,0,1,1,1.37-2.67l14.25,7.35a1.5,1.5,0,0,1-.69,2.83Z" style="fill: #e6e6e6"/>
      </g>
      <g id="b6c8e32d-86c9-4314-beb0-accfaa89239f" data-name="2">
        <path d="M714.23,372.79a1.49,1.49,0,0,1-1.27-2.3l26.66-42.07a1.5,1.5,0,0,1,2.54,1.61L715.49,372.1A1.48,1.48,0,0,1,714.23,372.79Z" style="fill: #e6e6e6"/>
        <path d="M723.08,377.54a1.47,1.47,0,0,1-.73-.19,1.49,1.49,0,0,1-.58-2l22.08-39.86a1.5,1.5,0,1,1,2.62,1.45l-22.08,39.86A1.49,1.49,0,0,1,723.08,377.54Z" style="fill: #e6e6e6"/>
        <path d="M740.29,371.21a1.51,1.51,0,0,1-1.25-.66L722.12,345.6a1.5,1.5,0,1,1,2.48-1.68l16.93,24.95a1.51,1.51,0,0,1-.4,2.08A1.54,1.54,0,0,1,740.29,371.21Z" style="fill: #e6e6e6"/>
        <path d="M745,364.41a1.48,1.48,0,0,1-1.16-.55,89.52,89.52,0,0,1-15.4-28,1.5,1.5,0,1,1,2.85-.95A86.54,86.54,0,0,0,746.15,362a1.51,1.51,0,0,1-.22,2.11A1.55,1.55,0,0,1,745,364.41Z" style="fill: #e6e6e6"/>
      </g>
      <g id="b28db9c4-6851-4338-9ce9-71f9d58e7a4e" data-name="1">
        <g>
          <rect x="586.3" y="791.72" width="122.92" height="3" transform="translate(-7.2 5.94) rotate(-0.52)" style="fill: #dbdbdb"/>
          <path d="M602,811a309.07,309.07,0,0,1-36.63-1.92l.35-3c22.35,2.62,43.65,2,66.2,1.28,13.71-.42,27.89-.86,42.81-.55l-.06,3c-14.85-.31-29,.13-42.65.55C621.82,810.67,611.89,811,602,811Z" style="fill: #dbdbdb"/>
          <path d="M140.28,794.29a1.5,1.5,0,0,1,0-3c84.84-1.9,171.32-3.69,255-5.43,128.19-2.67,260.74-5.42,390.84-8.58h0a1.5,1.5,0,0,1,0,3c-130.11,3.16-262.66,5.91-390.85,8.58-83.63,1.74-170.12,3.53-254.95,5.43Z" style="fill: #dbdbdb"/>
        </g>
        <path d="M834.29,779.28l-.07-3,25.76-.65c23.47-.6,47.74-1.22,72.21-1.48l0,3c-24.44.26-48.7.88-72.17,1.48Z" style="fill: #dbdbdb"/>
      </g>
    </g>
    <g id="e92ddf9e-3a27-4277-9e32-19e3908a4da7" data-name="watch">
      <g>
        <path d="M402.48,262.12h-.15a1,1,0,0,1-.84-1.14,34.14,34.14,0,0,0-12.06-30.91c-1.75-1.42-3.74-2.75-5.66-4-4.83-3.22-9.82-6.55-12.11-12-3.5-8.38.9-17.41,5.29-25.22a1,1,0,0,1,1.16-.47,20.14,20.14,0,0,0,16.09-2.24,1,1,0,0,1,1-.06,1,1,0,0,1,.56.79c.45,3.76-1.65,6.93-3.68,10-1.85,2.8-3.59,5.44-3.45,8.38.21,4.31,4.12,7,8.26,9.84,1.22.84,2.49,1.71,3.62,2.61,6.94,5.52,9.86,13.71,11.08,19.61,1.54,7.42,1.34,15.06,1.14,22.44a1,1,0,0,1-1,1h0a1,1,0,0,1-1-1c.19-7.27.4-14.79-1.1-22-1.63-7.89-5.31-14.44-10.36-18.45-1.08-.86-2.27-1.68-3.52-2.53-4.35-3-8.85-6.09-9.12-11.39-.17-3.6,1.84-6.64,3.78-9.58,1.58-2.38,3.08-4.65,3.36-7.07a22.24,22.24,0,0,1-15.41,1.81c-4,7.23-7.87,15.47-4.81,22.79,2.05,4.91,6.58,7.92,11.37,11.12,2,1.31,4,2.65,5.81,4.14a36.19,36.19,0,0,1,12.78,32.75A1,1,0,0,1,402.48,262.12Z" style="fill: #1d1d1b"/>
        <path d="M380.8,214.68a8.83,8.83,0,0,1-7.41-4,1,1,0,1,1,1.69-1.06,6.85,6.85,0,0,0,8.36,2.46,1,1,0,0,1,1.33.48,1,1,0,0,1-.48,1.33A8.28,8.28,0,0,1,380.8,214.68Z" style="fill: #1d1d1b"/>
        <path d="M383.71,223.49a8.58,8.58,0,0,1-6-2.34,1,1,0,0,1,1.39-1.44,6.84,6.84,0,0,0,9,.18,1,1,0,0,1,1.34,1.49A8.54,8.54,0,0,1,383.71,223.49Z" style="fill: #1d1d1b"/>
        <path d="M402.41,239.4a1,1,0,0,1-.38-1.93,7.74,7.74,0,0,0,4.26-4.26,1,1,0,0,1,1.31-.55,1,1,0,0,1,.55,1.3,9.73,9.73,0,0,1-5.37,5.37A1,1,0,0,1,402.41,239.4Z" style="fill: #1d1d1b"/>
        <path d="M370.25,166.72a1,1,0,0,1-1-.81,16.08,16.08,0,0,0-9.81-11.8,1,1,0,0,1-.58-1.29,1,1,0,0,1,1.3-.57,18.11,18.11,0,0,1,11.06,13.29,1,1,0,0,1-.8,1.17Z" style="fill: #1d1d1b"/>
        <path d="M379.47,161.67a1,1,0,0,1-1-.69,38,38,0,0,0-6.36-11.89,1,1,0,0,1,1.57-1.24,40,40,0,0,1,6.69,12.51,1,1,0,0,1-.64,1.26A1.06,1.06,0,0,1,379.47,161.67Z" style="fill: #1d1d1b"/>
        <path d="M389,175.42l-.16,0a1,1,0,0,1-.83-1.14,47.75,47.75,0,0,1,5.23-15.44,1,1,0,0,1,1.76,1,45.35,45.35,0,0,0-5,14.79A1,1,0,0,1,389,175.42Z" style="fill: #1d1d1b"/>
        <path d="M379.45,190.9a2.92,2.92,0,0,1-1.46-.4,3.33,3.33,0,0,1-1.69-2.61,4.52,4.52,0,0,1,2.72-4.15,11.07,11.07,0,0,1,4.36-.84l9.24-.49c3.22-.19,4.09,1.26,4.32,2.13.41,1.63-.79,3.12-3.22,4a1,1,0,0,1-.67-1.89c1.08-.38,2.09-1,1.95-1.6s-1.31-.68-2.28-.63l-9.23.49a9.64,9.64,0,0,0-3.6.65,2.58,2.58,0,0,0-1.6,2.22,1.37,1.37,0,0,0,.69,1,.79.79,0,0,0,.73.08,1,1,0,0,1,.91,1.78A2.55,2.55,0,0,1,379.45,190.9Z" style="fill: #1d1d1b"/>
        <path d="M434.67,252h-.06a1,1,0,0,1-.94-1.06c1.73-27.34,18.18-53.83,41.92-67.49a1,1,0,0,1,1.08,1.68,7.28,7.28,0,0,0,1.24,12.54,1,1,0,0,1,.59.84,1,1,0,0,1-.45.91,68.35,68.35,0,0,0-30.24,51.38,1,1,0,1,1-2-.14,70.4,70.4,0,0,1,29.79-52,9.47,9.47,0,0,1-3.94-6.7,9.21,9.21,0,0,1,.53-4c-20.8,13.94-35,38.18-36.53,63.15A1,1,0,0,1,434.67,252Z" style="fill: #1d1d1b"/>
        <path d="M479.85,199.65a7.78,7.78,0,0,1-6.39-4.15,10.66,10.66,0,0,1,2-12.57,1,1,0,0,1,1.41,0l0,0a5.19,5.19,0,0,1,2.46-.48,6.65,6.65,0,0,1,5.07,3.23,10.82,10.82,0,0,1,1.49,5.55c.09,3-.9,6.62-4,7.92A5.26,5.26,0,0,1,479.85,199.65Zm-4.93-12.46a8.72,8.72,0,0,0,.3,7.34c1.15,2.11,3.81,3.75,5.94,2.85s2.82-3.81,2.75-6a9.06,9.06,0,0,0-1.18-4.56,4.64,4.64,0,0,0-3.49-2.28,3,3,0,0,0-3,2,1,1,0,0,1-1.22.71Z" style="fill: #1d1d1b"/>
        <path d="M457.87,210.15a1,1,0,0,1-.82-.43,9.52,9.52,0,0,1-.25-10.27,1,1,0,0,1,1.69,1.07,7.45,7.45,0,0,0,.2,8,1,1,0,0,1-.25,1.4A1,1,0,0,1,457.87,210.15Z" style="fill: #1d1d1b"/>
        <path d="M453.66,216.22a1,1,0,0,1-.91-.59,15,15,0,0,1-.75-10.15,1,1,0,0,1,1.23-.69,1,1,0,0,1,.69,1.23,13.1,13.1,0,0,0,.65,8.79,1,1,0,0,1-.91,1.41Z" style="fill: #1d1d1b"/>
        <path d="M443.52,235.51a1,1,0,0,1-.66-.25,9.9,9.9,0,0,1-3.05-5.12,1,1,0,1,1,1.95-.45,7.83,7.83,0,0,0,2.42,4.07,1,1,0,0,1,.09,1.41A1,1,0,0,1,443.52,235.51Z" style="fill: #1d1d1b"/>
        <path d="M442,242.56a1.07,1.07,0,0,1-.46-.11,7.85,7.85,0,0,1-4.17-6,1,1,0,0,1,2-.23,5.91,5.91,0,0,0,3.09,4.45,1,1,0,0,1,.44,1.34A1,1,0,0,1,442,242.56Z" style="fill: #1d1d1b"/>
        <path d="M487,175.9a1,1,0,0,1-.58-.18,1,1,0,0,1-.24-1.4,68,68,0,0,1,9.89-11.2,1,1,0,0,1,1.35,1.47,65.76,65.76,0,0,0-9.6,10.88A1,1,0,0,1,487,175.9Z" style="fill: #1d1d1b"/>
        <path d="M494.86,183.78a1,1,0,0,1-.85-.46,1,1,0,0,1,.3-1.38,22.07,22.07,0,0,1,10-3.44,1,1,0,1,1,.18,2,20,20,0,0,0-9.06,3.13A1.09,1.09,0,0,1,494.86,183.78Z" style="fill: #1d1d1b"/>
        <path d="M499.17,191.83h-.07l-4-.29a1,1,0,0,1,.14-2l4,.28a1,1,0,0,1-.07,2Z" style="fill: #1d1d1b"/>
      </g>
      <g>
        <path d="M275.5,325.5s-9,120,135,234c0,0-158,60-158,257,0,0,147,107,392-13,0,0,4-143-136-245,0,0,95-78,119-160s0-121,0-121S411.5,210.5,275.5,325.5Z" style="fill: #fff"/>
        <path d="M486,258.1c79,0,141.53,19.4,141.53,19.4s24,39,0,121-119,160-119,160c140,102,136,245,136,245-88,43.12-163.4,56.93-223.85,56.93-107.79,0-168.15-43.93-168.15-43.93,0-197,158-257,158-257-144-114-135-234-135-234,62.81-53.11,142.69-67.4,210.47-67.4m0-2c-38.74,0-75,4.66-107.64,13.86-40,11.25-75.05,29.43-104.12,54l-.64.54-.06.84c-.1,1.24-2.11,30.93,13.61,75.07A310.07,310.07,0,0,0,327,476c21,29.52,47.75,57.41,79.59,83-10.24,4.5-43.6,20.71-76.54,53.75a265,265,0,0,0-54.72,79.71c-16.5,37.12-24.86,78.86-24.86,124.08v1l.82.6c.63.45,15.63,11.26,44.12,22.21,26.21,10.08,69.22,22.1,125.21,22.1,71.72,0,147.33-19.23,224.73-57.13l1.09-.54,0-1.2c0-.37.82-36.67-15.61-84.95a320.64,320.64,0,0,0-40.44-79.94c-21-30.21-47.5-57.21-78.72-80.28a541.51,541.51,0,0,0,48.76-47.8c24.54-27.3,56.43-68.81,68.93-111.53s11.82-73.66,9.06-92.11c-3-20.17-9-30.09-9.28-30.5l-.39-.64-.72-.22c-.63-.2-63.75-19.49-142.12-19.49Z"/>
      </g>
      <path d="M644.5,803.5s4-143-136-245c0,0,95-78,119-160s0-121,0-121-56.17-17.42-129.26-19.25c3.71,4.77,91.79,115.6-8,289a31.93,31.93,0,0,0-1.88,27.92c17.42,43,58.35,175.51-43.74,284.51C500.6,856.41,567.74,841.1,644.5,803.5Z" style="fill: #e6e6e6"/>
      <path d="M508.5,558.5s95-78,119-160c16.12-55.07,10.59-90.75,5.21-108.24L591,281S632.32,406.89,504,550.33a11.66,11.66,0,0,0,.71,16.29C530.68,591,607.24,673.7,620.88,814.5q11.65-5.16,23.62-11S648.5,660.5,508.5,558.5Z" style="fill: #ababab"/>
      <path d="M591.59,676.85c-8.75-5.78-17-10.12-24-12.05-38.45-10.58-100.71,100.49-128.18,66.11-19.83-24.81-43-46.72-86.07-24.68-36.14,18.51-49,.37-57.37-21.69-17.12,31.62-29.16,71.66-29.16,121.74,0,0,134.6,94.32,358.93-11.46C625.71,794.82,627.29,740,591.59,676.85Z"/>
      <path d="M512,539c7.45-6.78,18.28-17.13,30-29.92-1-10-18.35-7.67-52.4,2.8-44,13.55-63.5-18.63-91.44-40.64-24.11-19-41.9-.18-36,22.2,12,14.64,29.67,32.31,48,48.05a48.83,48.83,0,0,0,22.09,10.83,125.13,125.13,0,0,0,57.53-1.38A51.91,51.91,0,0,0,512,539Z"/>
      <path d="M417.07,384.46a12.92,12.92,0,0,1-3.24-.42,11.18,11.18,0,0,1,2.73-21.9h.07A11.81,11.81,0,0,1,427.3,377.2a1,1,0,1,1-1.88-.67,9.83,9.83,0,0,0-8.79-12.39h-.05a9.18,9.18,0,1,0,6.05,16.42,1,1,0,0,1,1.29,1.53A10.56,10.56,0,0,1,417.07,384.46Z" style="fill: #1d1d1b"/>
      <path d="M476,378.75h0a9.75,9.75,0,0,1-7.85-3.86c-3.07-4.3-2.32-11,1.7-15.22,3.45-3.64,8.64-5,12.92-3.5,4.78,1.73,7.58,7.19,6,11.69a8,8,0,0,1-5.66,4.89,6.94,6.94,0,0,1-6.52-1.41,1,1,0,1,1,1.34-1.48,5,5,0,0,0,4.69.95,6,6,0,0,0,4.27-3.62c1.21-3.44-1.07-7.79-4.79-9.14-3.49-1.26-7.93,0-10.79,3-3.38,3.56-4,9.13-1.52,12.68a7.71,7.71,0,0,0,6.23,3h0a6.18,6.18,0,0,0,5.13-2.37,1,1,0,0,1,1.4-.23,1,1,0,0,1,.22,1.4A8.15,8.15,0,0,1,476,378.75Z" style="fill: #1d1d1b"/>
      <path d="M548.65,372.09a1,1,0,0,1-.59-1.81,9.2,9.2,0,0,0,2.32-12,8.34,8.34,0,0,0-5.6-3.48,7.93,7.93,0,0,0-6.14,1.34,7.72,7.72,0,0,0-2.87,5.81,7.35,7.35,0,0,0,2.2,5.8,7.15,7.15,0,0,0,6.19,1.53,6.84,6.84,0,0,0,5-3.56,1,1,0,0,1,1.34-.46,1,1,0,0,1,.46,1.33,8.81,8.81,0,0,1-6.37,4.65,9.16,9.16,0,0,1-7.92-2,9.29,9.29,0,0,1-2.84-7.37,9.75,9.75,0,0,1,3.65-7.32,10,10,0,0,1,7.69-1.72,10.38,10.38,0,0,1,6.93,4.36,11.26,11.26,0,0,1-2.81,14.72A1,1,0,0,1,548.65,372.09Z" style="fill: #1d1d1b"/>
      <path d="M572,635a1,1,0,0,1-.84-.46c-15.89-24.83-27.07-38-49.83-58.8a1,1,0,1,1,1.34-1.48c22.92,20.93,34.17,34.2,50.17,59.2a1,1,0,0,1-.3,1.38A1,1,0,0,1,572,635Z" style="fill: #1d1d1b"/>
      <path d="M579,469.1l-1.6-1.2c38.3-51.07,53-118.79,39.26-181.14l2-.43C632.45,349.24,617.65,417.57,579,469.1Z" style="fill: #1d1d1b"/>
      <path d="M332.51,453.24a305.46,305.46,0,0,1-49.32-125.9l2-.29a303.35,303.35,0,0,0,49,125.06Z" style="fill: #1d1d1b"/>
      <path d="M341.58,623.61l-1.38-1.44a251.72,251.72,0,0,1,71.15-48l.82,1.83A249.57,249.57,0,0,0,341.58,623.61Z" style="fill: #1d1d1b"/>
      <path d="M636.09,308.43a366.63,366.63,0,0,0-185.56-30c-63.06,6.35-124.52,33.13-176,70l-.26-.29a17.73,17.73,0,0,1-5.33-32.15l.59-.56c52.58-37,114.59-62.22,178.45-69.67A390,390,0,0,1,637.18,271l.32.47c9,10.29,8.26,25.16-.79,35.43" style="fill: #1d1d1b"/>
      <path d="M404.07,244.05l-.66-1.89a4.74,4.74,0,0,0,3-3.28l1.95.47A6.7,6.7,0,0,1,404.07,244.05Z" style="fill: #1d1d1b"/>
      <path d="M582.05,708.74a3.31,3.31,0,0,1-1.91-.61,3.15,3.15,0,0,1-1.42-2.78l2,.15a1.33,1.33,0,0,0,1.7,1.17,1.17,1.17,0,0,0,.58-1,1.16,1.16,0,0,0-.39-1.07,1.19,1.19,0,0,0-1.14,0,1.17,1.17,0,0,0-.74.87l-2-.24a3.15,3.15,0,1,1,4.52,3.27A2.76,2.76,0,0,1,582.05,708.74Z" style="fill: #fff"/>
      <path d="M410.05,512.74a3.31,3.31,0,0,1-1.91-.61,3.15,3.15,0,0,1-1.42-2.78l2,.15a1.33,1.33,0,0,0,1.7,1.17,1.17,1.17,0,0,0,.58-1,1.16,1.16,0,0,0-.39-1.07,1.19,1.19,0,0,0-1.14,0,1.17,1.17,0,0,0-.74.87l-2-.24a3.15,3.15,0,1,1,4.52,3.27A2.76,2.76,0,0,1,410.05,512.74Z" style="fill: #fff"/>
      <path d="M383.28,721.48h0a4.2,4.2,0,0,1-3.67-1.94l1.71-1a2.25,2.25,0,0,0,2,1h0a2.06,2.06,0,1,0-2.1-1.23l-1.84.8a4.46,4.46,0,0,1,4.24-6,4.22,4.22,0,0,1-.29,8.44Z" style="fill: #fff"/>
      <path d="M503.28,757.48h0a4.2,4.2,0,0,1-3.67-1.94l1.71-1a2.25,2.25,0,0,0,2,1h0a2.06,2.06,0,1,0-2.1-1.23l-1.84.8a4.46,4.46,0,0,1,4.24-6,4.22,4.22,0,0,1-.29,8.44Z" style="fill: #fff"/>
      <path d="M515.7,254.05A392.06,392.06,0,0,1,591,266.18q10.38,2.73,20.6,6c1.84.59,2.63-2.31.8-2.9A397.22,397.22,0,0,0,537.55,253q-10.9-1.29-21.85-2c-1.93-.12-1.92,2.88,0,3Z" style="fill: #fff"/>
      <path d="M412,543c14.28,17.9,18.55,33.74,16.76,56.57-.51,6.47-1.57,13.47-.73,19.79A6.26,6.26,0,0,0,440,621.15a32.32,32.32,0,0,0,2.76-11.37c.59-9-1.62-18.06-1.5-27.14a4.77,4.77,0,0,1,4.38-4.74c4-.24,4.92,5,4.68,8.78s.89,9.16,5,8.59a5.06,5.06,0,0,0,4.19-5.09c.1-20.31,10.59-36.24,30.54-39.18" style="fill: #1d1d1b"/>
      <path d="M455.9,610a3.6,3.6,0,1,0,.79-2.95" style="fill: #1d1d1b"/>
    </g>
    <g id="aebdd051-6f56-4de5-8c22-4521a73a7503" data-name="hand 1">
      <g>
        <path d="M293.86,660.07S204,649,211,717c8.3,80.67,201,109,274,100s180-41,180-90-51.22-46.7-51.22-46.7S621,697,629,716.29c0,0,23,39.71-135,67.71s-300-75-220-87A309.16,309.16,0,0,1,293.86,660.07Z" style="fill: #fff"/>
        <path d="M280.37,659.4a121.59,121.59,0,0,1,13.49.67A309.16,309.16,0,0,0,274,697c-70.49,10.57,31.39,91.8,164.7,91.8A316.8,316.8,0,0,0,494,784c158-28,135-67.71,135-67.71-8-19.29-15.25-36-15.25-36h1.07c7.36,0,50.15,1.92,50.15,46.71,0,49-107,81-180,90a252.72,252.72,0,0,1-30.27,1.6c-85.56,0-236.4-30.43-243.73-101.6-5.28-51.3,44.57-57.6,69.37-57.6m0-2c-15.77,0-44.58,2.62-60.41,20.17-9,9.92-12.64,23.25-11,39.63,4.21,40.89,53.38,65.63,93.88,79.19,53.36,17.85,113.42,24.21,151.84,24.21A252.22,252.22,0,0,0,485.24,819c41.46-5.11,85.54-16.37,117.92-30.14,19.38-8.24,34.62-17.28,45.32-26.88,12.29-11,18.52-22.8,18.52-35,0-19.42-8.09-33.92-23.39-41.92-12-6.3-25.05-6.79-28.76-6.79h-1.16a2.05,2.05,0,0,0-1.6.94,2,2,0,0,0-.14,1.86c.07.16,7.3,16.9,15.24,36a1.63,1.63,0,0,0,.11.23c.09.17,2.47,4.65-.88,11.66-2.82,5.9-10.53,15-31.19,24.78C572.16,764.65,538,774.17,493.65,782a315.49,315.49,0,0,1-54.95,4.77c-61.43,0-108.14-16.91-130.52-27C276.16,745.38,254,727,253,714c-.72-9.67,11.17-13.51,21.28-15a2,2,0,0,0,1.52-1.15,302.88,302.88,0,0,1,19.74-36.69,2,2,0,0,0-1.45-3.06,126,126,0,0,0-13.74-.68Z" style="fill: #1d1d1b"/>
      </g>
      <g>
        <path d="M665,727c0-.11,0-.21,0-.32-7.4,10.67-20,27-38,38.32-73,46-180,52-302,26-102.71-21.89-111.86-79.21-112.19-96.79A57,57,0,0,0,211,717c8.3,80.67,201,109,274,100S665,776,665,727Z" style="fill: #ababab"/>
        <path d="M220,745.55a1,1,0,0,1-1-.76,24.37,24.37,0,0,1,17.44-28.59c5.18-1.21,10.1-.22,13.17,2.64a1,1,0,1,1-1.37,1.47c-2.57-2.41-6.82-3.22-11.35-2.16a22.36,22.36,0,0,0-15.95,26.16,1,1,0,0,1-.72,1.21Z" style="fill: #1d1d1b"/>
        <path d="M254.29,702.31a1,1,0,0,1-1-.87c-.8-5.77-6-10.82-12.67-12.29-5.41-1.19-11.77-.29-18.91,2.69-2.5,1-8.29,4-8,8.61a1,1,0,0,1-2,.13c-.28-4.17,3.08-8,9.21-10.58,7.53-3.14,14.3-4.09,20.11-2.8,7.46,1.64,13.31,7.39,14.22,14a1,1,0,0,1-.86,1.13Z" style="fill: #1d1d1b"/>
        <path d="M247.09,768.76a1,1,0,0,1-.9-.57A21.89,21.89,0,0,1,263.33,737a1,1,0,0,1,.24,2A19.89,19.89,0,0,0,248,767.33a1,1,0,0,1-.47,1.33A1,1,0,0,1,247.09,768.76Z" style="fill: #1d1d1b"/>
        <path d="M277.09,789.66a1,1,0,0,1-.56-.17c-4.74-3.22-7.3-9.74-6.86-17.45.32-5.64,2-10.31,4.93-13.5a15.53,15.53,0,0,1,13-4.9,1,1,0,0,1-.22,2,13.48,13.48,0,0,0-11.31,4.26c-3.27,3.6-4.21,8.65-4.41,12.27-.41,7,1.83,12.86,6,15.68a1,1,0,0,1,.27,1.39A1,1,0,0,1,277.09,789.66Z" style="fill: #1d1d1b"/>
        <path d="M297,791.65a1,1,0,0,1-.78-.37,17.26,17.26,0,0,1,11.09-28,1,1,0,1,1,.26,2,15.26,15.26,0,0,0-9.8,24.74,1,1,0,0,1-.77,1.63Z" style="fill: #1d1d1b"/>
        <path d="M315,796.24a1,1,0,0,1-.33-.06,13.86,13.86,0,0,1,4.75-27,1,1,0,0,1,0,2h-.24a11.86,11.86,0,0,0-3.84,23.1,1,1,0,0,1-.32,2Z" style="fill: #1d1d1b"/>
        <path d="M337.08,808.28a1,1,0,0,1-.95-.68c-2.07-6.18-4-12.75-2.54-19.13,1.47-6.56,7.7-12.72,14.63-11.44a1,1,0,0,1-.36,2c-5.71-1.07-11.08,4.37-12.32,9.91-1.32,5.88.51,12.14,2.49,18.05a1,1,0,0,1-.64,1.27A1.12,1.12,0,0,1,337.08,808.28Z" style="fill: #1d1d1b"/>
        <path d="M359.76,780.32h-.92a1,1,0,0,1,0-2h.92a1,1,0,0,1,0,2Z" style="fill: #1d1d1b"/>
        <path d="M352.1,809.14a1,1,0,0,1-.63-.23,17.49,17.49,0,0,1,6.24-30.32,1,1,0,1,1,.56,1.92,15.49,15.49,0,0,0-5.53,26.85,1,1,0,0,1,.14,1.41A1,1,0,0,1,352.1,809.14Z" style="fill: #1d1d1b"/>
        <path d="M387,813.61a1,1,0,0,1-.74-.32,18.13,18.13,0,0,1,4.06-26.82,1,1,0,0,1,1.37.37,1,1,0,0,1-.36,1.36,16.14,16.14,0,0,0-3.6,23.73,1,1,0,0,1,0,1.42A1.05,1.05,0,0,1,387,813.61Z" style="fill: #1d1d1b"/>
        <path d="M422.89,814.42a1,1,0,0,1-.67-.26,16.76,16.76,0,0,1,.36-25,1,1,0,1,1,1.3,1.52,14.75,14.75,0,0,0-.31,22,1,1,0,0,1,.06,1.41A1,1,0,0,1,422.89,814.42Z" style="fill: #1d1d1b"/>
        <path d="M478.59,817.41a1,1,0,0,1-.71-.3,25.41,25.41,0,0,1-4.17-30.26,1,1,0,0,1,1.75,1,23.4,23.4,0,0,0,3.84,27.88,1,1,0,0,1,0,1.42A1,1,0,0,1,478.59,817.41Z" style="fill: #1d1d1b"/>
        <path d="M485.62,812.8a1,1,0,0,1-.81-.4,28.32,28.32,0,0,1-3.63-26.19,1,1,0,1,1,1.87.71,26.25,26.25,0,0,0,3.37,24.29,1,1,0,0,1-.8,1.59Z" style="fill: #1d1d1b"/>
        <path d="M448.54,820.21a1,1,0,0,1-.77-.36A26.67,26.67,0,0,1,445.59,790a1,1,0,0,1,1.72,1,24.6,24.6,0,0,0,2,27.52,1,1,0,0,1-.78,1.63Z" style="fill: #1d1d1b"/>
        <path d="M533.94,807a1,1,0,0,1-.61-.21,24,24,0,0,1-7.28-29.32,1,1,0,0,1,1.33-.48,1,1,0,0,1,.48,1.33,22,22,0,0,0,6.68,26.88,1,1,0,0,1,.2,1.4A1,1,0,0,1,533.94,807Z" style="fill: #1d1d1b"/>
        <path d="M564.15,799.75a1,1,0,0,1-.79-.39c-3.15-4.06-6.29-8.53-8-13.77-1.86-5.74-1.49-11.56,1-16a1,1,0,1,1,1.74,1c-2.22,3.93-2.52,9.17-.84,14.38,1.6,4.94,4.63,9.24,7.66,13.16a1,1,0,0,1-.79,1.61Z" style="fill: #1d1d1b"/>
        <path d="M598,788.11a1.14,1.14,0,0,1-.4-.08,23.8,23.8,0,0,1-14.21-20.89c-.09-3.27.92-5.75,2.81-6.9l0-.29a1,1,0,0,1,2,.21l-.09.82a1,1,0,0,1-.59.8c-2.11,1-2.18,4.3-2.15,5.31a22,22,0,0,0,13,19.1,1,1,0,0,1,.53,1.31A1,1,0,0,1,598,788.11Z" style="fill: #1d1d1b"/>
        <path d="M637.2,760.76a1,1,0,0,1-1-.78c-1-4.2-1.93-8.54-4.06-12.3-2.31-4.09-5.74-6.81-9.42-7.49a1,1,0,1,1,.36-2c4.27.78,8.2,3.86,10.8,8.46,2.27,4,3.29,8.51,4.27,12.85a1,1,0,0,1-.76,1.2Z" style="fill: #1d1d1b"/>
        <path d="M653.44,747.53a1,1,0,0,1-1-.91,65.15,65.15,0,0,0-1.72-11.45,20.69,20.69,0,0,0-5.42-9.69,15.72,15.72,0,0,0-13.84-3.84,1,1,0,1,1-.43-1.95A17.54,17.54,0,0,1,646.68,724a22.64,22.64,0,0,1,6,10.61,66.72,66.72,0,0,1,1.8,11.8,1,1,0,0,1-.91,1.09Z" style="fill: #1d1d1b"/>
        <path d="M627.19,708.2a1,1,0,0,1-1-.87c-.42-3.25,2.47-5.58,4.24-6.68a25.08,25.08,0,0,1,30.17,2.74,1,1,0,0,1-1.35,1.48,23.06,23.06,0,0,0-27.76-2.52c-1.1.68-3.6,2.51-3.32,4.72a1,1,0,0,1-.86,1.12Z" style="fill: #1d1d1b"/>
        <path d="M619.14,692.28h-.09a1,1,0,0,1-.91-1.08,11.37,11.37,0,0,1,8.2-9.7,1,1,0,1,1,.51,1.94,9.28,9.28,0,0,0-6.71,7.94A1,1,0,0,1,619.14,692.28Z" style="fill: #1d1d1b"/>
        <path d="M277.62,688h-.1a1,1,0,0,1-.89-1.09,24,24,0,0,0-15.84-25,1,1,0,0,1-.61-1.27,1,1,0,0,1,1.28-.61,26,26,0,0,1,17.16,27A1,1,0,0,1,277.62,688Z" style="fill: #1d1d1b"/>
      </g>
    </g>
    <g id="b7e21a96-d768-4f24-932b-855a34fec80a" data-name="hand 2">
      <g>
        <path d="M349,596c-48-29-82,18-41,57,39.27,37.36,327,104,347-86l-27-8s3.94,109.65-161,100c-171-10-136-51.78-128.49-50.89Z" style="fill: #fff"/>
        <path d="M628,559l27,8c-10.44,99.16-93.79,128.42-176.7,128.42-75.95,0-151.52-24.56-170.3-42.42-32.11-30.55-18.22-66,12.38-66,8.47,0,18.22,2.71,28.62,9l-10.49,12.11-.25,0c-8,0-40.45,41,128.74,50.91,7,.41,13.59.6,20,.6C631.59,659.6,628,559,628,559m0-2a1.94,1.94,0,0,0-1.22.42,2,2,0,0,0-.78,1.65c0,.43.79,33.69-25.76,61.15C576.26,645,538.15,657.6,487,657.6c-6.39,0-13.06-.2-19.84-.6-125.75-7.35-134.83-31.44-134.62-38.64.14-5,4.34-8.27,5.76-8.27l.24,0a2,2,0,0,0,1.52-.69l10.49-12.11a2,2,0,0,0-.48-3c-10-6.08-20.31-9.29-29.65-9.29-14.22,0-25.58,7.2-30.4,19.26-2.89,7.22-3.07,15.5-.53,23.93,2.74,9.1,8.68,18.18,17.17,26.26,10,9.48,34.1,20.09,64.56,28.39A419.8,419.8,0,0,0,478.3,697.42a289.83,289.83,0,0,0,61.55-6.17c20.89-4.57,39.4-11.68,55-21.15,36.36-22,57.26-56.66,62.13-102.89a2,2,0,0,0-1.42-2.13l-27-8A2.24,2.24,0,0,0,628,557Z" style="fill: #1d1d1b"/>
      </g>
      <path d="M655,567l-10.35-3.07C643.34,575.72,647,609,612,645c-39.54,40.67-140,51-224,35-71.88-13.69-91.18-49.22-94.15-79-7.88,13.13-5.36,33.49,14.15,52C347.27,690.36,635,757,655,567Z" style="fill: #ababab"/>
      <g>
        <path d="M627.27,543.58s-3.13-42.9-16.66-73.27c0,0,13-20.67,32.76-5.63,0,0-7.8,64.47-.22,76.1S627.27,543.58,627.27,543.58Z" style="fill: #fff"/>
        <path d="M629.12,459.2c4.19,0,9,1.47,14.25,5.48,0,0-7.8,64.47-.22,76.1,3,4.62,1.13,6-2.23,6-5.11,0-13.65-3.21-13.65-3.21s-3.13-42.9-16.66-73.27c0,0,7-11.11,18.51-11.11m0-2h0c-12.48,0-19.89,11.56-20.2,12.05a2,2,0,0,0-.13,1.88c13.22,29.68,16.46,72.17,16.49,72.59a2,2,0,0,0,1.29,1.73c.36.13,8.94,3.34,14.35,3.34,2.66,0,4.43-.78,5.27-2.33,1.39-2.55-.68-5.73-1.36-6.77-5.9-9-1.62-57,.53-74.77a2,2,0,0,0-.78-1.83c-5.13-3.91-10.34-5.89-15.46-5.89Z" style="fill: #1d1d1b"/>
      </g>
      <path d="M626.38,534.76c.65,5.48.89,8.82.89,8.82s23.47,8.84,15.88-2.8c-1.1-1.69-1.87-4.49-2.4-8A57.41,57.41,0,0,0,626.38,534.76Z" style="fill: #ababab"/>
      <g>
        <path d="M663,527.35s-7.58-8.46-21.29-4.68c0,0,4.42,27.88-4.14,36.47,0,0-.57,8.59,15.43,4.11C653,563.25,665,553.38,663,527.35Z" style="fill: #fff"/>
        <path d="M648.6,521.7a20.16,20.16,0,0,1,14.4,5.65c2,26-10,35.9-10,35.9a29.94,29.94,0,0,1-8,1.29c-7.83,0-7.47-5.4-7.47-5.4,8.56-8.59,4.14-36.47,4.14-36.47a25.82,25.82,0,0,1,6.89-1m0-2a27.68,27.68,0,0,0-7.42,1,2,2,0,0,0-1.45,2.24c1.19,7.47,2.85,28.29-3.58,34.74a2,2,0,0,0-.58,1.28,6.81,6.81,0,0,0,1.85,4.85c1.67,1.78,4.23,2.68,7.62,2.68a32.35,32.35,0,0,0,8.5-1.37,1.83,1.83,0,0,0,.73-.38c.52-.43,12.78-10.84,10.72-37.59a2,2,0,0,0-.5-1.18,22.06,22.06,0,0,0-15.89-6.32Z" style="fill: #1d1d1b"/>
      </g>
      <path d="M642.63,531.5c.58,8.93.38,22.18-5.06,27.64,0,0-.57,8.59,15.43,4.11,0,0,8.9-7.34,10.09-26A58.42,58.42,0,0,0,642.63,531.5Z" style="fill: #ababab"/>
      <g>
        <path d="M681.26,535.57s-5-9.31-18.6-8.47c0,0-2.62,26.7-12.64,33,0,0-2.59,7.86,13.32,6.8C663.34,566.9,676.84,560.08,681.26,535.57Z" style="fill: #fff"/>
        <path d="M664.38,527.05c12.32,0,16.88,8.52,16.88,8.52-4.42,24.51-17.92,31.33-17.92,31.33-1,.07-1.93.1-2.78.1-12.81,0-10.54-6.9-10.54-6.9,10-6.3,12.64-33,12.64-33,.59,0,1.16-.05,1.72-.05m0-2c-.61,0-1.23,0-1.85.06a2,2,0,0,0-1.86,1.8c-.71,7.15-4.19,26.77-11.71,31.5a2,2,0,0,0-.84,1.07,6.45,6.45,0,0,0,1,5.57c1.89,2.62,5.76,4,11.48,4,.91,0,1.89,0,2.91-.1a2.05,2.05,0,0,0,.77-.21c.59-.3,14.45-7.56,19-32.76a2,2,0,0,0-.2-1.3c-.21-.39-5.29-9.58-18.65-9.58Z" style="fill: #1d1d1b"/>
      </g>
      <path d="M661.25,536.14c-1.67,8.36-5,20.07-11.23,24,0,0-2.59,7.86,13.32,6.8,0,0,9.27-4.69,15-20.25A61,61,0,0,0,661.25,536.14Z" style="fill: #ababab"/>
      <g>
        <path d="M617,541s-5,14,2.22,26c0,0,28.46-6.83,37.78,4,0,0,13.14-1.61,8-22C665,549,644.55,537.92,617,541Z" style="fill: #fff"/>
        <path d="M626.74,540.46C649.23,540.46,665,549,665,549c5.14,20.39-8,22-8,22-4.11-4.76-12-6.09-19.43-6.09A89.26,89.26,0,0,0,619.22,567C612,555,617,541,617,541a86.67,86.67,0,0,1,9.74-.54m0-2a91.64,91.64,0,0,0-10,.55,2,2,0,0,0-1.66,1.32c-.22.61-5.23,15,2.38,27.74a2,2,0,0,0,1.72,1,2,2,0,0,0,.47-.06,88.05,88.05,0,0,1,17.88-2.07c8.67,0,14.87,1.86,17.92,5.4A2,2,0,0,0,657,573h.24a12.63,12.63,0,0,0,8.22-5.33c3.06-4.47,3.56-10.91,1.48-19.15a2,2,0,0,0-1-1.27c-.66-.36-16.47-8.78-39.21-8.78Z" style="fill: #1d1d1b"/>
      </g>
      <path d="M665.24,563.67c-14-13-39-8.62-49.45-6a27.14,27.14,0,0,0,3.43,9.39s28.46-6.83,37.78,4A10.81,10.81,0,0,0,665.24,563.67Z" style="fill: #ababab"/>
      <g>
        <path d="M330.62,614.29h-.05a1,1,0,0,1-.95-1A19,19,0,0,0,300,596.52a1,1,0,1,1-1.12-1.65,21,21,0,0,1,32.77,18.48A1,1,0,0,1,330.62,614.29Z" style="fill: #1d1d1b"/>
        <path d="M296.53,635.62a1,1,0,0,1-1-.83,19.33,19.33,0,0,1,33.89-15.71,1,1,0,1,1-1.54,1.28,17.33,17.33,0,0,0-30.38,14.09,1,1,0,0,1-.81,1.16Z" style="fill: #1d1d1b"/>
        <path d="M314,658.82a1,1,0,0,1-.88-.52,19.83,19.83,0,0,1,20-29.06,1,1,0,1,1-.25,2,17.84,17.84,0,0,0-18,26.13,1,1,0,0,1-.4,1.36A1.05,1.05,0,0,1,314,658.82Z" style="fill: #1d1d1b"/>
        <path d="M347.36,671.41a1,1,0,0,1-.93-.63A21.62,21.62,0,0,1,360,642.14a1,1,0,0,1,.6,1.91,19.61,19.61,0,0,0-12.31,26,1,1,0,0,1-.56,1.3A1,1,0,0,1,347.36,671.41Z" style="fill: #1d1d1b"/>
        <path d="M371.65,681.4a1,1,0,0,1-.8-.4,19.56,19.56,0,0,1,11.4-30.8,1,1,0,1,1,.43,1.95,17.55,17.55,0,0,0-10.23,27.65,1,1,0,0,1-.2,1.4A1,1,0,0,1,371.65,681.4Z" style="fill: #1d1d1b"/>
        <path d="M406.26,685.31a1,1,0,0,1-.61-.21,18.24,18.24,0,0,1,4-31.34,1,1,0,0,1,.78,1.85,16.24,16.24,0,0,0-3.55,27.9,1,1,0,0,1,.19,1.4A1,1,0,0,1,406.26,685.31Z" style="fill: #1d1d1b"/>
        <path d="M430.41,689.54a1,1,0,0,1-.63-.22,18.74,18.74,0,0,1,7.51-32.84,1,1,0,0,1,1.2.74,1,1,0,0,1-.75,1.2,16.74,16.74,0,0,0-6.7,29.34,1,1,0,0,1-.63,1.78Z" style="fill: #1d1d1b"/>
        <path d="M465.78,691.92a1,1,0,0,1-.61-.21,18.55,18.55,0,0,1,2.52-31,1,1,0,0,1,.95,1.76,16.54,16.54,0,0,0-2.24,27.62,1,1,0,0,1-.62,1.79Z" style="fill: #1d1d1b"/>
        <path d="M496.8,694.7a1,1,0,0,1-.72-.31c-3.71-3.85-8.71-9.79-9.3-16.93a14.91,14.91,0,0,1,3.74-10.92,10.45,10.45,0,0,1,7.59-3.61h0a1,1,0,0,1,1,1,1,1,0,0,1-1,1,8.44,8.44,0,0,0-6.13,3,12.8,12.8,0,0,0-3.22,9.4c.53,6.51,5.24,12.09,8.74,15.71a1,1,0,0,1-.72,1.7Z" style="fill: #1d1d1b"/>
        <path d="M533.8,688.8h0a17,17,0,0,1-13.35-27.41,1,1,0,0,1,1.4-.18,1,1,0,0,1,.18,1.41A15,15,0,0,0,533.8,686.8a1,1,0,0,1,0,2Z" style="fill: #1d1d1b"/>
        <path d="M559.91,682.52a.85.85,0,0,1-.23,0A19.18,19.18,0,0,1,547,655.32a1,1,0,0,1,1.34-.46,1,1,0,0,1,.45,1.34,17.2,17.2,0,0,0,11.4,24.35,1,1,0,0,1-.23,2Z" style="fill: #1d1d1b"/>
        <path d="M576.45,681.51h0a20.92,20.92,0,0,1-19.33-28.9,1,1,0,0,1,1.85.76,18.92,18.92,0,0,0,17.48,26.14,1,1,0,0,1,0,2Z" style="fill: #1d1d1b"/>
        <path d="M606,661.18H606a20.75,20.75,0,0,1-19.14-24,1,1,0,0,1,1.15-.83,1,1,0,0,1,.83,1.15,18.73,18.73,0,0,0,17.28,21.69,1,1,0,0,1-.06,2Z" style="fill: #1d1d1b"/>
        <path d="M613.57,654.4h-.13A22.46,22.46,0,0,1,594.39,634a1,1,0,0,1,.94-1.06,1,1,0,0,1,1.06.94c.53,9.07,8.3,17.39,17.31,18.55a1,1,0,0,1-.13,2Z" style="fill: #1d1d1b"/>
        <path d="M628,629.47a16,16,0,0,1-8.09-2.15,16.2,16.2,0,0,1-7.72-11.87,1,1,0,1,1,2-.23,13.87,13.87,0,0,0,19.09,11.23,1,1,0,0,1,.76,1.85A15.72,15.72,0,0,1,628,629.47Z" style="fill: #1d1d1b"/>
        <path d="M632.25,619.59a18.54,18.54,0,0,1-6.09-1.05,17.14,17.14,0,0,1-10.09-8.93,1,1,0,0,1,1.82-.82,15.84,15.84,0,0,0,20.81,7.29,1,1,0,1,1,.92,1.78A16.06,16.06,0,0,1,632.25,619.59Z" style="fill: #1d1d1b"/>
        <path d="M640.5,585a24.84,24.84,0,0,1-13.11-3.66,1,1,0,0,1,1.06-1.7,23.13,23.13,0,0,0,21.87,1.16,1,1,0,0,1,.87,1.8A24.5,24.5,0,0,1,640.5,585Z" style="fill: #1d1d1b"/>
      </g>
      <path d="M621.82,563.34a3,3,0,0,1-.77-.11,2.48,2.48,0,0,1-1.62-1.45,4.31,4.31,0,0,0,.12-2.1,2.45,2.45,0,0,1,1.77-1.25,2.5,2.5,0,0,1,1.88,4.49A2.39,2.39,0,0,1,621.82,563.34Zm-.66-2.52a1.71,1.71,0,0,1,.13.23.5.5,0,0,0,.34.26.49.49,0,0,0,.42,0,.53.53,0,0,0,.18-.39.52.52,0,0,0-.13-.41.56.56,0,0,0-.42-.09.52.52,0,0,0-.37.23A1,1,0,0,1,621.16,560.82Z" style="fill: #1d1d1b"/>
      <path d="M635.29,472.34a4.34,4.34,0,0,1-.71-.06,4.08,4.08,0,0,1-2.73-1.8,1,1,0,0,1,.32-1.37.86.86,0,0,1,.43-.15,2.94,2.94,0,0,1,1.09-2.54,3.08,3.08,0,0,1,3.37-.53,3.24,3.24,0,0,1,1.69,2.61,3.51,3.51,0,0,1-1.25,3.11A3.56,3.56,0,0,1,635.29,472.34ZM634.16,470a2.23,2.23,0,0,0,.77.29,1.68,1.68,0,0,0,1.34-.28,1.5,1.5,0,0,0,.48-1.34,1.19,1.19,0,0,0-.59-1,1.14,1.14,0,0,0-1.17.26.91.91,0,0,0-.38.91A1,1,0,0,1,634.16,470Z" style="fill: #1d1d1b"/>
      <path d="M661.64,461.4a1,1,0,0,1-.92-.6,24.77,24.77,0,0,0-11.91-12.31,1,1,0,1,1,.86-1.8A26.7,26.7,0,0,1,662.55,460a1,1,0,0,1-.51,1.32A1.14,1.14,0,0,1,661.64,461.4Z" style="fill: #1d1d1b"/>
    </g>
    <g id="b0ecc60d-bb08-47d1-aa18-0e9d87ce2abe" data-name="pin">
      <g>
        <polygon points="665 858 665 848 685 842 685 854 675 860 665 858" style="fill: #fff"/>
        <path d="M685,842v12l-10,6-10-2V848l20-6m0-2a2.18,2.18,0,0,0-.57.08l-20,6A2,2,0,0,0,663,848v10a2,2,0,0,0,1.61,2l10,2a1.72,1.72,0,0,0,.39,0,2,2,0,0,0,1-.29l10-6a2,2,0,0,0,1-1.71V842a2,2,0,0,0-2-2Z" style="fill: #1d1d1b"/>
      </g>
      <g>
        <polygon points="665 849 665 841 672 836 683 836 685 844 677 851 665 849" style="fill: #fff"/>
        <path d="M683,836l2,8-8,7-12-2v-8l7-5h11m0-2H672a2,2,0,0,0-1.16.37l-7,5A2,2,0,0,0,663,841v8a2,2,0,0,0,1.67,2l12,2,.33,0a2,2,0,0,0,1.32-.49l8-7a2,2,0,0,0,.62-2l-2-8A2,2,0,0,0,683,834Z" style="fill: #1d1d1b"/>
      </g>
      <path d="M677,860.8a1,1,0,0,1-1-1V852a1,1,0,0,1,2,0v7.8A1,1,0,0,1,677,860.8Z" style="fill: #1d1d1b"/>
      <g>
        <ellipse cx="674.5" cy="842.5" rx="4.5" ry="2.5" transform="translate(-279.68 338.23) rotate(-23.46)" style="fill: #fff"/>
        <path d="M672.75,846.41a5.12,5.12,0,0,1-.56,0,2.82,2.82,0,0,1-2.11-4.84,8.27,8.27,0,0,1,6.73-2.92,2.82,2.82,0,0,1,2.11,4.84,7.63,7.63,0,0,1-3,2.25A8,8,0,0,1,672.75,846.41Zm3.51-5.82a6.25,6.25,0,0,0-2.36.53,5.8,5.8,0,0,0-2.23,1.63c-.34.45-.49.89-.38,1.14s.53.45,1.09.5a6.25,6.25,0,0,0,5-2.14c.34-.45.49-.89.38-1.14s-.53-.45-1.09-.5A2.17,2.17,0,0,0,676.26,840.59Z" style="fill: #1d1d1b"/>
      </g>
    </g>
    <g id="ad942717-7524-40ee-ba8f-0ee80442ab12" data-name="wire">
      <path d="M186,844.9a6.2,6.2,0,0,1-1.64-.21c-2.66-.7-4.74-3.17-6-7.13a33.4,33.4,0,0,1-1.58-9.56,1,1,0,0,1,1-1h0a1,1,0,0,1,1,1,30.72,30.72,0,0,0,1.49,9c.73,2.29,2.13,5.16,4.62,5.82,2.29.6,4.77-.83,6.89-2.31A101.12,101.12,0,0,0,205.49,829c2-2,4.71-4.75,8.19-4.43,2.86.27,4.73,2.41,6.53,4.49,1.6,1.84,3.12,3.57,5.15,3.83a1,1,0,0,1,.86,1.12,1,1,0,0,1-1.11.86c-2.79-.35-4.63-2.46-6.4-4.5-1.63-1.86-3.16-3.62-5.21-3.81-2.34-.23-4.37,1.61-6.6,3.85a103.7,103.7,0,0,1-14,11.73C190.88,843.52,188.51,844.9,186,844.9Z" style="fill: #1d1d1b"/>
      <path d="M183.36,854.53a9.06,9.06,0,0,1-3.46-.65c-2.47-1-4.56-3.17-6.38-6.61a35,35,0,0,1-4.05-16.91,1,1,0,0,1,1-1,1,1,0,0,1,1,1,32.86,32.86,0,0,0,3.81,15.93c1.6,3,3.36,4.88,5.37,5.7,2.64,1.07,6.13.41,9.35-1.76a39.51,39.51,0,0,0,4.91-4.16c1-1,2.1-2,3.22-2.91,3.67-3,7.24-4.38,10.62-4.05,4.78.48,8.36,4.26,11.24,7.9a1,1,0,0,1-1.57,1.24c-2.62-3.31-5.83-6.75-9.87-7.15-2.82-.28-5.9.93-9.14,3.6-1.08.89-2.12,1.87-3.12,2.82a42,42,0,0,1-5.17,4.37A14.14,14.14,0,0,1,183.36,854.53Z" style="fill: #1d1d1b"/>
      <path d="M221.34,849.85a4.13,4.13,0,0,1-3.16-1.63,7.46,7.46,0,0,1-1.37-3.22,15.91,15.91,0,0,1,1.42-10.74,5,5,0,0,1,1.6-1.88,2.64,2.64,0,0,1,3,.06,1,1,0,0,1,.3,1.15,2.53,2.53,0,0,1,1.82,0,3.37,3.37,0,0,1,2,2,6.81,6.81,0,0,1-.06,3.94l-1.18,5.23a10.38,10.38,0,0,1-1,3,4.13,4.13,0,0,1-3,2.15Zm0-15.92a.94.94,0,0,0-.46.14,3,3,0,0,0-.91,1.15,13.91,13.91,0,0,0-1.23,9.36,5.64,5.64,0,0,0,1,2.39,2,2,0,0,0,1.77.86,2.19,2.19,0,0,0,1.5-1.16,9.09,9.09,0,0,0,.81-2.44L225,839a5.12,5.12,0,0,0,.14-2.79,1.44,1.44,0,0,0-.8-.77.55.55,0,0,0-.46,0,1,1,0,0,1-1.38-.32,1,1,0,0,1-.06-.94,1,1,0,0,1-.84-.2A.4.4,0,0,0,221.36,833.93Z" style="fill: #1d1d1b"/>
      <path d="M170,830.94l-.24,0a1,1,0,0,1-.74-1.2,5.51,5.51,0,0,1,8.89-3,1,1,0,0,1-1.29,1.54,3.5,3.5,0,0,0-5.65,1.87A1,1,0,0,1,170,830.94Z" style="fill: #1d1d1b"/>
      <path d="M210.73,839.4a1,1,0,0,1-1-.88,8.72,8.72,0,0,1,1.33-5.8,1,1,0,1,1,1.68,1.08,6.93,6.93,0,0,0-1,4.48,1,1,0,0,1-.87,1.11Z" style="fill: #1d1d1b"/>
      <path d="M203.26,841a1,1,0,0,1-.94-.67,6,6,0,0,1,1.05-5.71,1,1,0,0,1,1.41-.12,1,1,0,0,1,.12,1.41,4,4,0,0,0-.69,3.76,1,1,0,0,1-.62,1.27A1,1,0,0,1,203.26,841Z" style="fill: #1d1d1b"/>
      <path d="M185.73,854.2a1,1,0,0,1-.74-.32,7.06,7.06,0,0,1-1.35-7.23,1,1,0,1,1,1.86.73,5.1,5.1,0,0,0,1,5.14,1,1,0,0,1-.73,1.68Z" style="fill: #1d1d1b"/>
      <path d="M178,850.05a1,1,0,0,1-1-1,18.07,18.07,0,0,1,1-6.23,1,1,0,0,1,1.9.64A15.81,15.81,0,0,0,179,849a1,1,0,0,1-1,1Z" style="fill: #1d1d1b"/>
      <path d="M169.44,820.91a1,1,0,0,1-.8-.41,34.63,34.63,0,0,1-5.55-11.64,1,1,0,0,1,.71-1.22,1,1,0,0,1,1.22.71,32.66,32.66,0,0,0,5.23,11,1,1,0,0,1-.22,1.4A1,1,0,0,1,169.44,820.91Z" style="fill: #1d1d1b"/>
      <path d="M172,819.74a1,1,0,0,1-.94-.65A41.19,41.19,0,0,1,168.69,809a1,1,0,1,1,2-.21,38.92,38.92,0,0,0,2.24,9.65,1,1,0,0,1-.59,1.29A1,1,0,0,1,172,819.74Z" style="fill: #1d1d1b"/>
      <path d="M176.4,818.8h-.07a1,1,0,0,1-.93-1.06l.22-3.42a1,1,0,0,1,2,.13l-.22,3.41A1,1,0,0,1,176.4,818.8Z" style="fill: #1d1d1b"/>
      <path d="M241.33,859.77a1,1,0,0,1-.6-.2l-12.38-9.33a1,1,0,0,1,1.21-1.59L241.93,858a1,1,0,0,1,.2,1.4A1,1,0,0,1,241.33,859.77Z" style="fill: #1d1d1b"/>
      <path d="M242.09,852.77a.91.91,0,0,1-.48-.13l-7.81-4.26a1,1,0,1,1,.95-1.75l7.82,4.26a1,1,0,0,1-.48,1.88Z" style="fill: #1d1d1b"/>
      <path d="M240,844.38a.83.83,0,0,1-.22,0l-3.76-.86a1,1,0,1,1,.45-2l3.76.86a1,1,0,0,1,.75,1.2A1,1,0,0,1,240,844.38Z" style="fill: #1d1d1b"/>
    </g>
    <g id="b2128f55-9669-472f-94a8-cb04fb09b69b" data-name="pattern">
      <path d="M644.19,261.66a1,1,0,0,1-.78-.37,1,1,0,0,1,.15-1.41l44-35.8a1,1,0,0,1,1.27,1.55l-44,35.8A1,1,0,0,1,644.19,261.66Z" style="fill: #1d1d1b"/>
      <path d="M651.36,278.47a1,1,0,0,1-.43-1.91l28.91-13.71a1,1,0,0,1,.86,1.8l-28.91,13.72A1,1,0,0,1,651.36,278.47Z" style="fill: #1d1d1b"/>
      <path d="M678.88,307.63a1,1,0,0,1-.44-.1l-23.75-11.64a1,1,0,1,1,.88-1.8l23.75,11.64a1,1,0,0,1-.44,1.9Z" style="fill: #1d1d1b"/>
      <path d="M222.3,250.08l-2-.42a24.17,24.17,0,0,0-31.8-27.89c2.06,3.47,3.37,8.93.39,13.13a8.12,8.12,0,0,1-7.22,3.19,6.13,6.13,0,0,1-5.24-3.28c-2-4,.93-8.71,4.51-11.36a24.48,24.48,0,0,1,4.48-2.61c-5-6.12-13.64-8.22-20.55-7.5-9,.94-17.24,5.81-23.38,10l-1.11-1.66c6.33-4.27,14.81-9.31,24.28-10.29,7.66-.79,17.34,1.64,22.69,8.71a26.18,26.18,0,0,1,34.91,30ZM186.64,222.5a22.29,22.29,0,0,0-4.47,2.56c-2.93,2.17-5.4,5.87-3.91,8.86a4.21,4.21,0,0,0,3.6,2.18,6.24,6.24,0,0,0,5.44-2.35c2.3-3.26,1.37-7.92-.56-11.1A1.3,1.3,0,0,1,186.64,222.5Z" style="fill: #1d1d1b"/>
      <path d="M759.06,445.78a13.36,13.36,0,0,1,19-18.13c.32-7.42,6-14.44,13.32-16a17.37,17.37,0,0,1,19.46,11.4l-1.91.6a14.79,14.79,0,0,0-28.81,6l.31,2.86-2-2.05a11.37,11.37,0,0,0-17.65,14.16Z" style="fill: #1d1d1b"/>
      <path d="M196.16,661.92V661a1.06,1.06,0,0,0-.13-.58,1.14,1.14,0,0,0-.31-.48,1,1,0,0,0-.48-.31,1.15,1.15,0,0,0-.58-.13l-.4,0a1.49,1.49,0,0,0-.66.39l-.23.3a1.48,1.48,0,0,0-.21.76v.92a1.17,1.17,0,0,0,.13.58,1.36,1.36,0,0,0,.79.79,1.29,1.29,0,0,0,.58.13l.4-.06a1.45,1.45,0,0,0,.66-.38l.24-.31a1.5,1.5,0,0,0,.2-.75Z" style="fill: #1d1d1b"/>
      <path d="M204,647.07l11.73,9.41a1.55,1.55,0,0,0,2.12,0,1.52,1.52,0,0,0,0-2.12L206.07,645a1.54,1.54,0,0,0-2.12,0,1.5,1.5,0,0,0,0,2.12Z" style="fill: #1d1d1b"/>
      <path d="M215.19,632.06l6.43,15.59a1.56,1.56,0,0,0,1.85,1.05,1.51,1.51,0,0,0,1-1.84l-6.42-15.59a1.55,1.55,0,0,0-1.85-1,1.5,1.5,0,0,0-1.05,1.84Z" style="fill: #1d1d1b"/>
    </g>
  </g>
</svg>
