<svg xmlns="http://www.w3.org/2000/svg" width="1000" height="1000" viewBox="0 0 1000 1000">
  <g id="a34e6aa1-cd9b-4ab3-a94c-04a539c899e3" data-name="Password is changed">
    <g id="e83d47f2-b444-4008-984a-676c816c1045" data-name="background">
      <g>
        <path d="M193.56,273.34a1.5,1.5,0,0,1-1-2.66A638.16,638.16,0,0,0,258,208.31a1.5,1.5,0,0,1,2.22,2A642,642,0,0,1,194.51,273,1.51,1.51,0,0,1,193.56,273.34Z" style="fill: #dbdbdb"/>
        <path d="M188.15,275.1a1.46,1.46,0,0,1-1.12-.51L166.6,251.66a1.49,1.49,0,0,1,.05-2l6.57-6.63a1.49,1.49,0,0,1,1.07-.45h0a1.58,1.58,0,0,1,1.07.45l13.86,14.14.53-2.12-4.36-3.93a1.49,1.49,0,0,1-.28-1.89l4.58-7.59a1.5,1.5,0,0,1,1.23-.72,1.52,1.52,0,0,1,1.28.63l6.48,9.15c5.38-7.28,12.41-13.51,19.23-19.55,11.75-10.41,22.84-20.24,25.58-34.65.88-4.68.79-9.75.7-14.65-.16-8.37-.32-17,4.34-24.24,6.94-10.72,23.25-13.6,34.92-6.15,10.23,6.53,16.17,19.69,15.14,33.52-.73,9.72-4.77,18.33-11.08,23.62-7.37,6.17-18.12,7.37-25.56,2.85a1.5,1.5,0,0,1,1.56-2.56c6.37,3.87,15.66,2.78,22.08-2.59,5.69-4.77,9.34-12.62,10-21.54,1-12.75-4.44-24.82-13.75-30.77-10.15-6.48-24.82-4-30.79,5.25-4.16,6.44-4,14.27-3.86,22.55.09,5.06.19,10.29-.76,15.27-2.92,15.41-14.92,26.05-26.53,36.33-7.22,6.4-14.69,13-20,20.74a1.49,1.49,0,0,1-1.23.65h0a1.49,1.49,0,0,1-1.22-.63l-6.39-9-2.75,4.57,4.11,3.7a1.47,1.47,0,0,1,.45,1.48l-1.4,5.59a1.51,1.51,0,0,1-2.53.69l-14.67-15-4.51,4.55,19.5,21.88a1.51,1.51,0,0,1-1.12,2.5Z" style="fill: #dbdbdb"/>
        <path d="M267,195a16.85,16.85,0,0,1-3.88-.44,1.5,1.5,0,1,1,.67-2.92,15.21,15.21,0,0,0,17.7-20.08c-1-2.74-3.33-5.93-6.79-6.68-4.26-.92-8.42,2.15-10.89,5.33A24,24,0,0,0,260,192.09a1.5,1.5,0,1,1-2.85.92,27.06,27.06,0,0,1,4.31-24.6c3-3.9,8.27-7.64,13.89-6.42,3.89.84,7.33,4.13,9,8.58A18.17,18.17,0,0,1,267,195Z" style="fill: #dbdbdb"/>
      </g>
      <g>
        <path d="M157.11,682.31a1.5,1.5,0,0,1-.88-2.72,415.08,415.08,0,0,0,47.63-39.92,1.5,1.5,0,0,1,2.1,2.15A419.27,419.27,0,0,1,158,682,1.48,1.48,0,0,1,157.11,682.31Z" style="fill: #dbdbdb"/>
        <path d="M153.1,683.34a1.48,1.48,0,0,1-1.07-.45l-15.7-15.95a1.51,1.51,0,0,1,.07-2.18l4.78-4.26a1.51,1.51,0,0,1,2,0L153.41,670l.09-.34-3.12-2.58a1.5,1.5,0,0,1-.29-2l3.28-5a1.48,1.48,0,0,1,1.18-.67,1.46,1.46,0,0,1,1.24.57l4.8,6c3.88-4.62,8.91-8.52,13.79-12.3,8.49-6.58,16.51-12.79,18.24-22.15a43.07,43.07,0,0,0,.23-9.66c-.28-5.72-.56-11.64,2.91-16.51,5.09-7.17,17.45-8.71,26.43-3.31a25.74,25.74,0,0,1,12.13,23.32c-.37,6.69-3.31,12.51-8.06,16-5.5,4-13.65,4.54-19.38,1.24a1.5,1.5,0,1,1,1.49-2.6A15.47,15.47,0,0,0,224.49,639c4-2.93,6.51-7.93,6.83-13.71a22.69,22.69,0,0,0-10.68-20.59c-7.58-4.56-18.27-3.38-22.44,2.48-2.87,4-2.62,9.17-2.35,14.62a45.42,45.42,0,0,1-.28,10.36c-1.94,10.48-10.79,17.34-19.36,24-5.24,4.06-10.66,8.26-14.43,13.24a1.47,1.47,0,0,1-1.18.59,1.66,1.66,0,0,1-1.19-.56l-4.68-5.89-1.4,2.11,2.81,2.32a1.48,1.48,0,0,1,.5,1.53l-.94,3.7a1.5,1.5,0,0,1-2.48.73l-11.06-10.27L139.57,666l14.6,14.82a1.5,1.5,0,0,1-1.07,2.56Z" style="fill: #dbdbdb"/>
        <path d="M211.08,631.91a15.29,15.29,0,0,1-3.61-.43,1.5,1.5,0,0,1,.71-2.92,11.54,11.54,0,0,0,10.65-2.64,8.71,8.71,0,0,0,1.72-9.54,7.63,7.63,0,0,0-5-4.48c-3.07-.7-6,1.14-7.68,3.11A13.75,13.75,0,0,0,205.55,629a1.5,1.5,0,1,1-2.8,1.07,16.73,16.73,0,0,1,2.86-17c2.28-2.63,6.26-5.07,10.63-4.07a10.64,10.64,0,0,1,7.07,6.21A11.78,11.78,0,0,1,221,628,14,14,0,0,1,211.08,631.91Z" style="fill: #dbdbdb"/>
      </g>
      <g>
        <path d="M805.53,567.2a1.44,1.44,0,0,1-.6-.13,418.24,418.24,0,0,1-55.2-29.52,1.5,1.5,0,0,1,1.61-2.54,415.27,415.27,0,0,0,54.8,29.32,1.5,1.5,0,0,1-.61,2.87Z" style="fill: #dbdbdb"/>
        <path d="M823.07,588.58a19.28,19.28,0,0,1-10.23-2.81c-5.76-3.61-9.29-11-8.37-17.52a1.5,1.5,0,0,1,3,.41,15.46,15.46,0,0,0,7,14.56c4.23,2.64,9.79,3.09,15.28,1.23a22.7,22.7,0,0,0,15.12-17.58c1.4-8.74-3.68-18.22-10.67-19.91-4.8-1.16-9.49,1-14.45,3.28a45.53,45.53,0,0,1-9.71,3.6c-10.44,2.11-20.11-3.55-29.46-9-5.72-3.36-11.64-6.82-17.66-8.46a1.46,1.46,0,0,1-1-.87,1.5,1.5,0,0,1,.08-1.32l3.71-6.54-2.47-.51-1.11,3.48a1.51,1.51,0,0,1-1.23,1l-3.79.5a1.49,1.49,0,0,1-1.6-2l5.4-14.1-3.1-1.54-8.32,19.07a1.5,1.5,0,1,1-2.75-1.2l8.95-20.51a1.49,1.49,0,0,1,.86-.81,1.51,1.51,0,0,1,1.18.06l5.74,2.85a1.51,1.51,0,0,1,.73,1.89l-5,13,.35-.05,1.23-3.86a1.49,1.49,0,0,1,1.73-1l5.82,1.2a1.5,1.5,0,0,1,1,2.21L765.5,534c5.74,1.87,11.23,5.09,16.56,8.21,9.27,5.43,18,10.55,27.34,8.67a42.83,42.83,0,0,0,9.06-3.39c5.2-2.39,10.59-4.87,16.41-3.46,8.54,2.06,14.58,12.94,12.92,23.29a25.74,25.74,0,0,1-17.12,19.95A23.56,23.56,0,0,1,823.07,588.58Z" style="fill: #dbdbdb"/>
        <path d="M827.71,576.74a11.32,11.32,0,0,1-4.39-.88,14.45,14.45,0,0,1-8.23-11.24,1.5,1.5,0,1,1,3-.43,11.58,11.58,0,0,0,6.43,8.9,8.74,8.74,0,0,0,9.5-2,7.7,7.7,0,0,0,2.29-6.3c-.49-3.11-3.29-5.12-5.75-6a13.73,13.73,0,0,0-13.8,3,1.5,1.5,0,1,1-2-2.2A16.7,16.7,0,0,1,831.49,556c3.29,1.13,7,3.91,7.74,8.34a10.63,10.63,0,0,1-3.12,8.87A11.86,11.86,0,0,1,827.71,576.74Z" style="fill: #dbdbdb"/>
      </g>
      <g>
        <path d="M583.49,241.28l65-2.32,64.77-2.3,36.61-1.3-4.5-4.5q-2,24.9-2.95,49.88t-.65,50q.15,14.18.66,28.34l4.5-4.5q-28.16-1.83-56.4-1.48T634,356q-16.19,1.48-32.29,3.7c-2.34.32-3.82,3.44-3.14,5.54.83,2.57,3,3.48,5.53,3.14l1-.13c-.11,0-.5.07,0,0l1.71-.23,3.66-.47c2.29-.28,4.57-.56,6.85-.82q7-.81,14-1.48,14-1.34,28-2.13,28.05-1.59,56.17-1,15.76.35,31.51,1.37a4.53,4.53,0,0,0,4.5-4.5q-.9-25-.66-50t1.64-49.95q.8-14.15,2-28.27c.2-2.37-2.22-4.58-4.5-4.5l-65,2.31L620.11,231l-36.62,1.31a4.5,4.5,0,0,0,0,9Z" style="fill: #dbdbdb"/>
        <path d="M603.24,257.72q55.39.7,110.71-3.44a24.84,24.84,0,0,0-4.73,22.5q-55.85.38-111.62-3.33" style="fill: #dbdbdb"/>
        <path d="M634.51,304.25l60.13-2.35,16.9-.67a4.5,4.5,0,0,0,0-9l-60.14,2.36-16.89.66a4.5,4.5,0,0,0,0,9Z" style="fill: #dbdbdb"/>
        <path d="M649.59,318a378.89,378.89,0,0,0,53.59-.72q7.61-.64,15.17-1.59c2.33-.29,4.62-1.86,4.5-4.5-.09-2.19-2-4.81-4.5-4.5a379.87,379.87,0,0,1-53.52,2.88q-7.62-.14-15.24-.57a4.53,4.53,0,0,0-4.5,4.5,4.59,4.59,0,0,0,4.5,4.5Z" style="fill: #dbdbdb"/>
        <path d="M732.73,234.89a6.54,6.54,0,0,0-2.84,1.63,6.87,6.87,0,0,0-1.63,2.78,6.5,6.5,0,0,0-.28,2.19,7.72,7.72,0,0,0,.36,2.24,7.8,7.8,0,0,0,3.28,4.32,6.6,6.6,0,0,0,3.13.9,6.72,6.72,0,0,0,3.31-.8,7,7,0,0,0,3.39-4.23,7.82,7.82,0,0,0,.35-2.3,8.15,8.15,0,0,0-.3-2.35,7.64,7.64,0,0,0-3.26-4.41,7.18,7.18,0,0,0-3.38-1,7.86,7.86,0,0,0-1.82.18,3.56,3.56,0,0,0-.73.19,8.13,8.13,0,0,0-1.69.79,10.2,10.2,0,0,0-1.51,1.2,8,8,0,0,0-1.59,2.23,9.87,9.87,0,0,0-.7,1.83,10.29,10.29,0,0,0-.24,1.91,7.75,7.75,0,0,0,1,3.79,3.43,3.43,0,0,0,1.16,1.26,3.34,3.34,0,0,0,1.53.81,3.52,3.52,0,0,0,1.79.08,3.41,3.41,0,0,0,1.68-.54,4.52,4.52,0,0,0,2.06-2.69l.17-1.19a4.56,4.56,0,0,0-.62-2.28,2.06,2.06,0,0,1-.12-.26l.45,1.08a3.44,3.44,0,0,1-.21-.76l.17,1.2a3.62,3.62,0,0,1,0-.93l-.16,1.2a4,4,0,0,1,.27-1l-.46,1.07a4.74,4.74,0,0,1,.58-1l-.7.91a3.91,3.91,0,0,1,.76-.76l-.91.7a3.77,3.77,0,0,1,.78-.45l-1.07.45a3.76,3.76,0,0,1,.73-.2l-1.2.17a3.29,3.29,0,0,1,.7,0l-1.2-.16a2.7,2.7,0,0,1,.69.18l-1.07-.45a2.82,2.82,0,0,1,.53.31l-.91-.7a2.92,2.92,0,0,1,.46.47l-.7-.91a3.14,3.14,0,0,1,.39.69l-.45-1.08a4.46,4.46,0,0,1,.26,1l-.17-1.2a4.1,4.1,0,0,1,0,1.05l.16-1.2a3.37,3.37,0,0,1-.25.93l.46-1.07a3.76,3.76,0,0,1-.36.61l.7-.91a3.25,3.25,0,0,1-.41.42l.91-.71a1.81,1.81,0,0,1-.52.3l1.08-.45a2.73,2.73,0,0,1-.56.15l1.2-.16a2.44,2.44,0,0,1-.54,0l1.2.16a2.11,2.11,0,0,1-.49-.14l1.08.46a2.36,2.36,0,0,1-.48-.29l.91.71a3,3,0,0,1-.47-.48l.7.91a3.48,3.48,0,0,1-.43-.75l.45,1.08a3.94,3.94,0,0,1-.26-.95l.16,1.19a3.39,3.39,0,0,1,0-.9l-.16,1.2a2.66,2.66,0,0,1,.17-.63l-.45,1.07a1.76,1.76,0,0,1,.24-.42l-.7.91a1.77,1.77,0,0,1,.3-.31l-.91.7a2,2,0,0,1,.45-.26l-1.08.46a1.34,1.34,0,0,1,.26-.09,4.69,4.69,0,0,0,2.69-2.07,3.37,3.37,0,0,0,.54-1.67,3.55,3.55,0,0,0-.08-1.8,4.59,4.59,0,0,0-2.07-2.69,4.76,4.76,0,0,0-3.47-.45Z" style="fill: #dbdbdb"/>
      </g>
      <g>
        <path d="M157.53,419.16a197.7,197.7,0,0,1-36.33-3.34,1.51,1.51,0,0,1-1.23-1.41l-1.89-43.31a1.5,1.5,0,0,1,.11-3L209,366.49a1.57,1.57,0,0,1,1.14.51,1.46,1.46,0,0,1,.37,1.2l-6.07,44.43a1.5,1.5,0,0,1-1.15,1.26A200,200,0,0,1,157.53,419.16Zm-34.61-6.07a197.24,197.24,0,0,0,78.63-1.89l5.7-41.68-86.17,1.54Z" style="fill: #e6e6e6"/>
        <path d="M158.69,435.5a1.5,1.5,0,0,1-1.5-1.43l-.57-12.67a1.5,1.5,0,1,1,3-.13l.51,11.14a732,732,0,0,1,74.36-.76,1.5,1.5,0,1,1-.12,3,730.14,730.14,0,0,0-75.58.86Z" style="fill: #e6e6e6"/>
        <path d="M233.86,400.35a1.52,1.52,0,0,1-1.23-.63c-.45-.63-1.64-.8-2.71-.91l-22.59-2.3a1.5,1.5,0,1,1,.31-3l22.58,2.31c1.25.13,3.58.36,4.86,2.15a1.5,1.5,0,0,1-1.22,2.37Z" style="fill: #e6e6e6"/>
        <path d="M198.06,380.37H198a2.79,2.79,0,0,1-2.46-1.47,1.5,1.5,0,0,1,.65-2,1.76,1.76,0,0,1,.44-.15,1.52,1.52,0,0,1-.1-.48,1.48,1.48,0,0,1,1.43-1.56,2.81,2.81,0,0,1,2.48,1.39,2.87,2.87,0,0,1,.1,2.91A2.83,2.83,0,0,1,198.06,380.37Z" style="fill: #e6e6e6"/>
        <path d="M131.81,382.56h-.11a3.27,3.27,0,0,1-2.52-1.37,3.4,3.4,0,0,1-.61-2.88,1.48,1.48,0,0,1,1.82-1.08,1.45,1.45,0,0,1,.81.52l.1-.05a3.73,3.73,0,0,1,2.82-.33,1.49,1.49,0,0,1,1,1.19,3.46,3.46,0,0,1-.84,2.82A3.4,3.4,0,0,1,131.81,382.56Z" style="fill: #e6e6e6"/>
        <path d="M225.71,409.08a2.24,2.24,0,0,1-.52-.05,1.5,1.5,0,0,1-1.17-1.77,1.47,1.47,0,0,1,.61-.93,1.54,1.54,0,0,1-.79-.74,1.51,1.51,0,0,1,.72-2,2.81,2.81,0,0,1,2.58.12,2.8,2.8,0,0,1,.51,4.6A2.91,2.91,0,0,1,225.71,409.08Z" style="fill: #e6e6e6"/>
        <path d="M233.83,434h0a1.49,1.49,0,0,1-1.47-1.53L233,399a1.5,1.5,0,0,1,1.5-1.47h0A1.5,1.5,0,0,1,236,399l-.65,33.51A1.5,1.5,0,0,1,233.83,434Z" style="fill: #e6e6e6"/>
        <path d="M130.4,399.28a144.39,144.39,0,0,0,53.91.91c2.32-.4,3.84-3.38,3.14-5.54a4.62,4.62,0,0,0-5.53-3.14,112.35,112.35,0,0,1-12,1.46q-6.3.46-12.61.36t-12.58-.8l-1.41-.16-1.16-.15q-1.43-.2-2.82-.42c-2.19-.34-4.37-.75-6.54-1.2s-5,.67-5.53,3.14c-.52,2.25.67,5,3.14,5.54Z" style="fill: #e6e6e6"/>
        <path d="M203.08,425.39h15.08a4.5,4.5,0,0,0,0-9H203.08a4.5,4.5,0,0,0,0,9Z" style="fill: #e6e6e6"/>
      </g>
    </g>
    <g id="a7506034-a575-4c94-bc96-c0138407c2fc" data-name="password">
      <g id="f0a47295-4329-40ee-9bc7-b2d0951d7a53" data-name="password 2">
        <g>
          <path d="M247.5,794.61s11.31,21.16,19.84,25.31l426.41-51.59,6.06-14.67-23.67-13s-104.51,19.91-423-15.08C253.16,725.54,238,768.2,247.5,794.61Z"/>
          <path d="M267.34,820.92a1,1,0,0,1-.43-.1c-8.73-4.24-19.82-24.87-20.29-25.74l-.06-.13c-9.55-26.44,5-68,5.66-69.75a1,1,0,0,1,1.05-.66c314.57,34.57,421.64,15.3,422.69,15.1a1,1,0,0,1,.66.1l23.68,13a1,1,0,0,1,.44,1.25l-6.06,14.68a1,1,0,0,1-.81.61L267.46,820.91ZM248.42,794.2c.67,1.25,11.21,20.55,19.11,24.69l425.52-51.48,5.5-13.3L676,741.67c-7.06,1.21-116.88,18.44-422.12-15C251.91,732.4,239.85,770.32,248.42,794.2Z"/>
        </g>
        <g>
          <path d="M271.47,743.24s313.84,35.16,428.34,10.42c0,0,4,49.45-7.69,81.63,0,0-180.15,15-424.78-15.37C267.34,819.92,258.19,779.76,271.47,743.24Z" style="fill: #fff"/>
          <path d="M271.47,743.24S443.22,762.48,579,762.48c47.75,0,91-2.38,120.84-8.82,0,0,4,49.45-7.69,81.63,0,0-44.54,3.72-119.37,3.72a2503,2503,0,0,1-305.41-19.09s-9.15-40.16,4.13-76.68m0-2a2,2,0,0,0-1.88,1.31c-13.33,36.66-4.57,76.15-4.2,77.81a2,2,0,0,0,1.71,1.54A2520.88,2520.88,0,0,0,572.75,841c74.06,0,119.09-3.69,119.54-3.73A2,2,0,0,0,694,836c11.67-32.22,8-80.43,7.81-82.47a2,2,0,0,0-2.42-1.79c-26.95,5.82-67.46,8.77-120.42,8.77-134.08,0-305.56-19-307.27-19.23Z"/>
        </g>
        <path d="M265.93,811.77c.73,5.13,1.41,8.15,1.41,8.15,244.63,30.4,424.78,15.37,424.78,15.37,11.66-32.18,7.69-81.63,7.69-81.63-2.49.54-5.09,1.05-7.77,1.53-2.44,20.78-7.66,52.4-17.28,59.33C661.38,824.18,322,813.59,265.93,811.77Z" style="fill: #ababab"/>
        <path d="M268.08,743a1,1,0,0,1-.69-.28l-13.54-13.12a1,1,0,0,1,0-1.42,1,1,0,0,1,1.41,0l13.54,13.12a1,1,0,0,1-.7,1.72Z" style="fill: #fff"/>
        <path d="M363.75,811.17a1,1,0,0,1-.9-.56,28.81,28.81,0,0,0-12-12.41,117.89,117.89,0,0,1-9.88,9,1,1,0,0,1-1.32-1.5,43.59,43.59,0,0,0,7.43-9.32,29.17,29.17,0,0,0-15.62-1.69l-1.84.39a1,1,0,0,1-.45-1.94c.63-.16,1.26-.29,1.89-.41l18.73-4q-7.74-4.71-15.1-10a1,1,0,0,1,1.17-1.62q7.49,5.4,15.39,10.19A44,44,0,0,0,353.52,774a1,1,0,0,1,.89-1,1,1,0,0,1,1.08.74l3.14,12.31a114.22,114.22,0,0,0,8.61-13.1,1,1,0,0,1,1.87.45,52.29,52.29,0,0,0,1.62,10.89l7.45-1.59a1,1,0,0,1,.41,2l-7.32,1.56a52.77,52.77,0,0,0,7.48,15.47,1,1,0,0,1-1.22,1.5q-8.44-3.71-16.58-8.06l3.76,14.75a1,1,0,0,1-.62,1.19A1,1,0,0,1,363.75,811.17Zm-11.49-14.45a32.1,32.1,0,0,1,9,7.63l-2.68-10.48-2.49-1.39C354.83,793.92,353.56,795.34,352.26,796.72Zm8-4.19q7.34,4,14.93,7.47a55.93,55.93,0,0,1-5.9-13.32l-10,2.13ZM349,797.24l0,0,0,0Zm1-1.73.48.24q2-2.1,3.87-4.28l-2-1.15A46.84,46.84,0,0,1,350,795.51Zm-9-2.79a32.63,32.63,0,0,1,7.11,2c.68-1.27,1.3-2.56,1.86-3.88Zm16.41-1.8.5.28-.17-.68Zm-2.16-1.24c.13.08.26.16.4.23l.31-.38Zm-.17-9.56a47.23,47.23,0,0,1-1.88,8l3.71-.8Zm12.31-3.34q-3,5-6.47,9.65l7.9-1.68A55.48,55.48,0,0,1,367.35,776.78Z"/>
        <path d="M448.29,822.64a2.33,2.33,0,0,1-2.2-1.62,5.22,5.22,0,0,1,.67-3.64l5.64-10.23L440,800.47a1,1,0,0,1-.52-1.05,1,1,0,0,1,.85-.82l10.39-1.46-12.6-7.75a1,1,0,0,1-.33-1.37,1,1,0,0,1,1.38-.33l14.66,9,4.74-.67.47-.84c-.19-6.23,2.74-13.42,9-15.86a1,1,0,0,1,1.11.28,1,1,0,0,1,.12,1.14L461,795.66v0l6.56-.93a1,1,0,0,1,1.13.85,1,1,0,0,1-.85,1.13l-6.61.94a27.94,27.94,0,0,0,1.08,4.28l2,1.25a97.28,97.28,0,0,0,9.71-17.55,1,1,0,0,1,1.09-.59,1,1,0,0,1,.83.93,60.49,60.49,0,0,0,10.23,30.75,1,1,0,0,1-1.35,1.41l-20-12.27-.62.84c1.11,2.31,2.36,4.53,3.55,6.63a1,1,0,0,1-.15,1.19,1,1,0,0,1-1.19.18l-6-3.21a99.23,99.23,0,0,1-9.52,9.82A4.23,4.23,0,0,1,448.29,822.64Zm5.88-14.54-5.66,10.25a3.22,3.22,0,0,0-.51,2.07.23.23,0,0,0,.16.18c.26.13.83-.15,1.51-.76a95.81,95.81,0,0,0,9.05-9.3Zm11.91-3.85,16.23,10a62.59,62.59,0,0,1-8-24.21A99.08,99.08,0,0,1,466.08,804.25Zm-4.26,5.68,2.62,1.41c-.51-.92-1-1.87-1.49-2.83C462.58,809,462.2,809.46,461.82,809.93Zm-6.69-3.58L460,809c.67-.82,1.32-1.65,2-2.49-.47-1.05-.91-2.12-1.3-3.21l-2.88-1.76Zm-11.53-6.2,9.77,5.25,2.73-4.94-2.74-1.68Zm15.17-.4,1,.63c-.15-.58-.28-1.17-.39-1.76Zm-2.3-1.41.6.37.26-.49Zm9.24-15.3a14.42,14.42,0,0,0-4.32,7.83Z"/>
        <path d="M523.09,828.5a1,1,0,0,1-.79-1.61,69,69,0,0,0,8-13.41l-12-9.9a1,1,0,0,1-.32-1.07,1,1,0,0,1,.88-.7l8.46-.63-8.69-5.39a1,1,0,1,1,1-1.7l11,6.83,4-.3c.3-1.29.57-2.58.79-3.89a71.59,71.59,0,0,1,1-12.55,1,1,0,0,1,1.07-.82,1,1,0,0,1,.91,1,70.12,70.12,0,0,1-1,12.54c0,1.17,0,2.34.11,3.51l3.11-.23q2.07-4,3.85-8.2a24.12,24.12,0,0,1,3.79-10,1,1,0,0,1,1.78.88q-1.62,4.89-3.63,9.67a26.39,26.39,0,0,0,0,7.21l4.88-.37a1,1,0,0,1,1.08.93,1,1,0,0,1-.93,1.07l-4.68.35a30.76,30.76,0,0,0,.85,3.09,27.16,27.16,0,0,0,6.73,10.83l8.4,5.21a1,1,0,0,1-.85,1.79,24.24,24.24,0,0,1-8.77-5.4l-14.65-9.08-.06.1a68.48,68.48,0,0,0,3.39,12.37,1,1,0,0,1-.35,1.17,1,1,0,0,1-1.22,0l-6.87-5.67a127.63,127.63,0,0,1-9.6,12.09A1,1,0,0,1,523.09,828.5Zm11.48-14.08,4.26,3.51a71,71,0,0,1-1.89-7.15Q535.78,812.63,534.57,814.42Zm-1.84-1.52.29.24q1.76-2.6,3.38-5.28c-.07-.39-.13-.77-.18-1.16l-1-.61A71.15,71.15,0,0,1,532.73,812.9Zm6.83-6.48,9.6,6a29.85,29.85,0,0,1-3.36-6.93,30.6,30.6,0,0,1-1-3.58l-2.88.22C541.18,803.54,540.39,805,539.56,806.42Zm-18.08-2.8,9.64,8a69.44,69.44,0,0,0,2.36-6.57l-3.29-2Zm16.24-1.22c.08.9.18,1.8.29,2.7.54-.94,1.07-1.89,1.58-2.84Zm-1.89,1.7.06,0a1.1,1.1,0,0,1,0-.18A1,1,0,0,0,535.83,804.1Zm-2.25-1.39.48.3.09-.34Zm10.69-5.29c-.41.86-.83,1.72-1.25,2.57l1.48-.11C544.39,799.06,544.31,798.24,544.27,797.42Z"/>
        <path d="M609.68,828.77a1.26,1.26,0,0,1-.27,0,1,1,0,0,1-.72-1.06l1.88-19.34a76.62,76.62,0,0,0-14.75-4.17,1,1,0,0,1,.17-2h0q7.62.17,15.19-.37l1-9.79-4.76-2.87a1,1,0,0,1,1-1.71l3.94,2.38.71-7.3a1,1,0,0,1,2-.15,103.69,103.69,0,0,0,3.54,11.19l5.29,3.19,9.2-18.65a1,1,0,0,1,1.2-.52,1,1,0,0,1,.69,1.12,35.22,35.22,0,0,0,2.42,19.11c3.17-.75,6.31-1.6,9.44-2.54a1,1,0,1,1,.58,1.91c-3,.92-6.1,1.74-9.18,2.48a34.65,34.65,0,0,0,7.86,10.52,1,1,0,0,1,.14,1.34,1,1,0,0,1-1.32.26l-16.65-10c-1.67.29-3.33.56-5,.8l-.39.78a103.75,103.75,0,0,0,9.8,15.81,1,1,0,0,1-1.44,1.37A76.93,76.93,0,0,0,618.57,812l-8,16.19A1,1,0,0,1,609.68,828.77Zm2.82-19.65-1.29,13.29,5.58-11.31Q614.67,810.05,612.5,809.12Zm7,1.11a78.21,78.21,0,0,1,7.88,4.81,108.26,108.26,0,0,1-5.57-9.5ZM612.71,807q2.52,1.05,5,2.27l3-6-.19-.4q-3.69.47-7.41.77Zm18.5-5.86,8.87,5.35a37.74,37.74,0,0,1-3.85-6.4C634.56,800.5,632.89,800.86,631.21,801.18Zm-26.68,3c2.11.61,4.19,1.32,6.24,2.11l.24-2.43C608.85,804,606.69,804.08,604.53,804.15Zm9.52-11-.82,8.49q3.16-.27,6.31-.65-1.38-3-2.58-6.09Zm5.76,3.47c.57,1.38,1.18,2.74,1.81,4.1l.3,0,1.06-2.15Zm4.89,3-.38.76,1.3-.2Zm.89-1.8,3,1.84c2.26-.41,4.52-.86,6.77-1.37a38.07,38.07,0,0,1-2.86-14.58ZM614.27,791l1.58.95c-.46-1.29-.89-2.59-1.3-3.9Z"/>
      </g>
      <g id="a53d76ca-92dd-448a-9fef-1d8b48b4a230" data-name="password 1">
        <g>
          <path d="M282.38,732.69s14.58,19.06,23.68,21.76l412.43-120,3.6-15.46-25.47-9s-99.91,36.57-419.84,53.62C276.78,663.62,268.69,708.18,282.38,732.69Z"/>
          <path d="M306.06,755.45a1,1,0,0,1-.29,0c-9.3-2.77-23.58-21.32-24.19-22.11l-.08-.12c-13.7-24.55-6-67.91-5.71-69.74a1,1,0,0,1,.93-.82c316.13-16.84,418.56-53.19,419.55-53.56a1,1,0,0,1,.68,0l25.47,9a1,1,0,0,1,.64,1.17l-3.6,15.46a1,1,0,0,1-.7.74L306.34,755.41A.9.9,0,0,1,306.06,755.45Zm-22.85-23.31c.88,1.12,14.4,18.46,22.86,21.27L717.64,633.7l3.27-14-24.29-8.62c-6.79,2.34-112.37,37.13-419,53.51C276.65,670.59,270.89,710,283.21,732.14Z"/>
        </g>
        <g>
          <path d="M297.71,678.12S613.1,662,722.09,619c0,0,11.92,48.15,5.63,81.79,0,0-175.34,44-421.66,53.62C306.06,754.45,290.52,716.31,297.71,678.12Z" style="fill: #fff"/>
          <path d="M722.09,619s11.92,48.15,5.63,81.79c0,0-175.34,44-421.66,53.62,0,0-15.54-38.14-8.35-76.33,0,0,315.39-16.13,424.38-59.08m0-2a2,2,0,0,0-.73.13c-44.4,17.5-131.71,33.24-252.51,45.52C377.48,672,298.4,676.08,297.61,676.12a2,2,0,0,0-1.86,1.63c-7.22,38.33,7.81,75.88,8.46,77.46a2,2,0,0,0,1.85,1.24h.08A2520.46,2520.46,0,0,0,609.58,726c73.85-12.08,118.18-23.13,118.62-23.24a2,2,0,0,0,1.48-1.57c6.3-33.69-5.16-80.66-5.65-82.65a2,2,0,0,0-1.94-1.51Z"/>
        </g>
        <path d="M716.37,690.3c-28.85,13.24-275.95,48.76-373.83,62.46,227-12.22,385.18-51.93,385.18-51.93,3.06-16.36,1.81-36.16-.28-52.18C722.1,669.11,716.37,690.3,716.37,690.3Z" style="fill: #ababab"/>
        <path d="M294.17,678.42a1,1,0,0,1-.57-.17l-15.49-10.76a1,1,0,0,1,1.14-1.64l15.49,10.75A1,1,0,0,1,295,678,1,1,0,0,1,294.17,678.42Z" style="fill: #fff"/>
        <path d="M402.81,727.91a1,1,0,0,1-.81-1.58,36.55,36.55,0,0,0,4.51-8.6,24.08,24.08,0,0,0-12.78,1.14l-1.44.61a1,1,0,0,1-.82-1.82c.49-.24,1-.45,1.5-.64l14.31-6.1q-6.9-2.56-13.59-5.65a1,1,0,0,1,.84-1.82q6.89,3.18,14,5.81a36.65,36.65,0,0,0-.29-11,1,1,0,0,1,1.89-.6l4.39,9.27a96.87,96.87,0,0,0,4.8-11.78,1,1,0,0,1,1-.68,1,1,0,0,1,.93.76,43.28,43.28,0,0,0,3,8.49l5.69-2.43a1,1,0,1,1,.79,1.84l-5.59,2.38a44.06,44.06,0,0,0,8.49,11.27,1,1,0,0,1-.91,1.7q-7.34-1.63-14.52-3.84l5.28,11.14a1,1,0,0,1-1.71,1,23.81,23.81,0,0,0-11.6-8.14,100.7,100.7,0,0,1-6.59,8.9A1,1,0,0,1,402.81,727.91Zm8.46-11a27.07,27.07,0,0,1,7.85,4.31l-3.52-7.42-2.07-.68C412.81,714.41,412.05,715.68,411.27,716.92Zm-2.13-.65.15,0q1.2-1.89,2.31-3.84l-1.41-.49A39.46,39.46,0,0,1,409.14,716.27Zm-7.05-.91a27.59,27.59,0,0,1,5.05.47c.31-1,.57-2,.8-3l-6,2.54Zm14.94-3.2q6.36,2,12.83,3.58a46.38,46.38,0,0,1-6.56-9.47l-7.54,3.21Zm-6.19-8.4a39.48,39.48,0,0,1-.27,5.76l2.49-1.06Zm9.34-5q-1.53,4.13-3.41,8.09l5.64-2.4A45.34,45.34,0,0,1,420.18,698.79Z"/>
        <path d="M493.45,723.09A2.09,2.09,0,0,1,491.6,722a4.52,4.52,0,0,1-.05-3.22l2.94-9.12-11.09-3.44a1,1,0,0,1-.71-.93,1,1,0,0,1,.68-1l7.84-2.71-11.13-4.16a1,1,0,0,1-.58-1.29,1,1,0,0,1,1.29-.58l13.38,5,3.65-1.26.21-.64c-1.15-5.12.13-11.53,4.93-14.56a1,1,0,0,1,1.15.06,1,1,0,0,1,.34,1.09l-4.26,13.23,4.91-1.7a1,1,0,0,1,1.28.62s0,0,0,.05a78.42,78.42,0,0,0,2.47-9,1,1,0,0,1,1.95,0,50.23,50.23,0,0,0,13.26,23.47,1,1,0,0,1-1.06,1.64l-18.17-6.8-.27.56c1.26,1.68,2.61,3.26,3.9,4.77a1,1,0,0,1-1.05,1.61l-5.3-1.64a81.36,81.36,0,0,1-6.17,9.47A3.3,3.3,0,0,1,493.45,723.09Zm2.95-12.84-2.94,9.14a2.61,2.61,0,0,0-.1,1.65c.14.07.45,0,1-.76a78.3,78.3,0,0,0,5.82-8.87Zm6.69,0,1.66.51c-.39-.48-.78-1-1.17-1.46Zm2.57-5.34,14.12,5.29a52.33,52.33,0,0,1-9.84-17.58A82.8,82.8,0,0,1,505.66,704.89ZM497,708.34l4.13,1.28c.38-.7.74-1.42,1.1-2.13-.53-.75-1-1.52-1.5-2.3l-2.42-.91Zm-10.11-3.12,8.2,2.53,1.34-4.17-2.3-.87Zm15.21-1.65,1.67.62q1.21-2.78,2.22-5.62a.75.75,0,0,1-.25.13l-5.11,1.77A24.36,24.36,0,0,0,502.12,703.57Zm-3.18-1.2.41.16-.27-.6Zm2.3-13.66a11.81,11.81,0,0,0-1.53,4.75Z"/>
        <path d="M555.85,715.92a1,1,0,0,1-.9-1.44,57.27,57.27,0,0,0,4.36-12.11L548,696.24a1,1,0,0,1-.51-1,1,1,0,0,1,.73-.85l6.33-1.74-7.51-2.84a1,1,0,0,1-.58-1.29,1,1,0,0,1,1.29-.58l10.07,3.81,3-.83c0-1,0-2.11,0-3.17a59,59,0,0,1-1.15-10.46,1,1,0,0,1,2-.22,58.67,58.67,0,0,1,1.16,10.46c.19.89.39,1.78.62,2.67l2.25-.62c.69-2.38,1.29-4.79,1.81-7.21a20.28,20.28,0,0,1,1.52-8.84,1,1,0,0,1,1.91.51q-.54,4.28-1.42,8.5a21.55,21.55,0,0,0,1.11,5.69l3.79-1a1,1,0,1,1,.53,1.92l-3.59,1a22.85,22.85,0,0,0,8.27,9.93l7.7,2.92a1,1,0,0,1-.5,1.92,20.11,20.11,0,0,1-8.09-3l-13.17-5a57.4,57.4,0,0,0,4.66,9.35,1,1,0,0,1-.13,1.21,1,1,0,0,1-1.2.19l-6.38-3.46a105.79,105.79,0,0,1-5.86,11.29A1,1,0,0,1,555.85,715.92Zm7.52-13.62,3.42,1.85c-.82-1.53-1.58-3.1-2.26-4.7C564.16,700.41,563.77,701.36,563.37,702.3Zm-1.77-1h0q1-2.3,1.83-4.63l-.29-.8-.63-.23C562.3,697.58,562,699.46,561.6,701.34Zm-10.45-5.67,8.61,4.67c.36-1.78.63-3.59.82-5.4l-2.85-1.08Zm15-.75,8,3a25.49,25.49,0,0,1-3.39-4.64,26.2,26.2,0,0,1-1.31-2.66l-2.1.57C567,692.46,566.59,693.7,566.18,694.92ZM564,692.14c.15.51.31,1,.47,1.52.2-.6.4-1.2.59-1.81Zm4.36-4.58c-.12.47-.24.94-.37,1.41l.74-.2C568.62,688.37,568.5,688,568.38,687.56Z"/>
        <path d="M626.81,702.3h-.09a1,1,0,0,1-.91-.9l-1.54-16a63.14,63.14,0,0,0-12.59-1h0a1,1,0,0,1-.17-2q6.19-1.07,12.24-2.68l-.77-7.93-4.25-1.56a1,1,0,1,1,.68-1.88l3.36,1.23-.56-5.82a1,1,0,0,1,.73-1.06,1,1,0,0,1,1.17.53,86.1,86.1,0,0,0,4.65,8.54l4.62,1.69,4.5-16.58a1,1,0,0,1,1.08-.73,1,1,0,0,1,.89,1,29.34,29.34,0,0,0,4.93,15.06c2.43-1.11,4.83-2.28,7.19-3.53a1,1,0,1,1,.93,1.77c-2.28,1.21-4.59,2.34-6.93,3.42a28.66,28.66,0,0,0,7.94,7.15,1,1,0,0,1-.85,1.79l-15.19-5.54c-1.27.48-2.54.95-3.83,1.4l-.14.54a85.57,85.57,0,0,0,10.47,11.29A1,1,0,0,1,643.2,692a63.87,63.87,0,0,0-11.52-4.84l-3.91,14.36A1,1,0,0,1,626.81,702.3Zm-.49-16.51,1,10,2.48-9.12C628.62,686.32,627.48,686,626.32,685.79Zm5.89-.53q3.21,1,6.32,2.31c-1.86-1.92-3.63-3.94-5.31-6Zm-6.09-1.56c1.4.29,2.79.62,4.17,1l1.4-5.15-.11-.13q-2.83.93-5.7,1.74Zm-6.29-1c1.42.16,2.84.36,4.25.6l-.16-1.62C622.56,682.05,621.2,682.39,619.83,682.71Zm5.22-10.2.63,6.62q2.34-.66,4.66-1.41-1.53-2.13-2.93-4.35Zm15.6,3.57,7,2.54a32.52,32.52,0,0,1-3.52-4C642.94,675.13,641.8,675.61,640.65,676.08Zm-10.11-1.56c.58.86,1.18,1.7,1.79,2.54h0l.46-1.7Zm4.17,1.52-.05.2.3-.11Zm.53-1.94,2.59.95q2.56-1,5.09-2.1a32,32,0,0,1-4.46-10.69Zm-10.41-3.8.92.34c-.36-.63-.72-1.25-1.06-1.88Z"/>
      </g>
    </g>
    <g id="b889a3b5-f152-453d-9199-8d4338597558" data-name="padlock">
      <g>
        <path d="M285.5,335.5S227.58,632.74,489,649.12L673.5,350.5l-84-58Z"/>
        <path d="M489,650.12H489c-71-4.45-125-30.06-160.6-76.13-37.3-48.27-47.24-110.6-49-154.4-1.92-47.41,5.07-83.92,5.14-84.28a1,1,0,0,1,.84-.8l304-43a1,1,0,0,1,.71.17l84,58a1,1,0,0,1,.28,1.35L489.89,649.65A1,1,0,0,1,489,650.12ZM286.35,336.39a409.42,409.42,0,0,0-5,83.17C283.14,463.05,293,524.94,330,572.78c35.13,45.46,88.46,70.79,158.53,75.3l183.65-297.3-82.9-57.24Z"/>
      </g>
      <g>
        <path d="M340.5,390.5s-10,155,37,209,135,56,175,45,111-56,117-129,4-165,4-165Z" style="fill: #fff"/>
        <path d="M673.5,350.5s2,92-4,165-77,118-117,129c-11.75,3.23-27.64,5.34-45.41,5.34-42.74,0-96.39-12.2-129.59-50.34-47-54-37-209-37-209l333-40m0-2h-.24l-333,40a2,2,0,0,0-1.76,1.86,691.59,691.59,0,0,0,.88,84.53c2,26.53,5.53,50,10.57,69.66,6.35,24.77,15.11,43.7,26,56.25,40.09,46.06,105,51,131.1,51,16.94,0,33.25-1.92,45.94-5.41,18.58-5.11,47.27-18.75,72.08-41.71,19.29-17.85,43-47.8,46.38-89.06,5.94-72.26,4-164.28,4-165.2a2,2,0,0,0-2-2Z"/>
      </g>
      <path d="M482.09,648.46c27.59,3,53.36.73,70.41-4,40-11,111-56,117-129s4-165,4-165l-33.31,4C647.9,409.76,664.31,617.36,482.09,648.46Z" style="fill: #ababab"/>
      <g>
        <path d="M541.4,441.67c-14.49-9-33.24-6.82-45.95,4.59-11,9.92-15.62,20.3-13.95,34.24,3,25,22,26,22,26l3,69,24-3-2-65s29-6,28-39C556.08,454.75,549.24,446.56,541.4,441.67Z"/>
        <path d="M521.77,436.09a37,37,0,0,1,19.63,5.58c7.84,4.89,14.68,13.08,15.1,26.83,1,33-28,39-28,39l2,65-24,3-3-69s-19-1-22-26c-1.67-13.94,2.91-24.32,13.95-34.24a39.54,39.54,0,0,1,26.32-10.17m0-2a41.41,41.41,0,0,0-27.65,10.68c-11.81,10.61-16.32,21.7-14.61,36,1.65,13.67,8,20.49,13,23.81a25.38,25.38,0,0,0,9.05,3.7l2.93,67.34a2,2,0,0,0,2,1.91l.25,0,24-3a2,2,0,0,0,1.75-2l-2-63.41a41.48,41.48,0,0,0,13.56-7.09c6.87-5.41,14.93-15.62,14.39-33.5-.38-12.5-5.78-22.07-16-28.46a39.07,39.07,0,0,0-20.69-5.89Z"/>
      </g>
      <path d="M556.5,468.5c-.42-13.75-7.26-21.94-15.1-26.83a36.82,36.82,0,0,0-15.66-5.36c6.84,3.54,19.49,13,18.76,34.19-1,29-26,30-26,30v56l-12.77,1.34.77,17.66,24-3-2-65S557.5,501.5,556.5,468.5Z" style="fill: #ababab"/>
      <g>
        <path d="M598.5,290.5c46.26,21.06,69.9,57.55,67.76,111.65,0,0-9.92,19.5-34.87,5.45l-.89,1.9a30.42,30.42,0,0,1-34,4c-20,25-40-2-40-2,41-113-45.37-107.91-45.37-107.91L487.37,307C516.5,258.5,550.14,284,550.14,284Z" style="fill: #fff"/>
        <path d="M528.72,277.31A38.45,38.45,0,0,1,550.14,284l48.36,6.46c46.26,21.06,69.9,57.55,67.76,111.65a20.89,20.89,0,0,1-18.12,10.54c-4.59,0-10.15-1.37-16.75-5.09l-.89,1.9a30.35,30.35,0,0,1-34,4c-6.33,7.91-12.66,10.62-18.35,10.62-12.31,0-21.65-12.62-21.65-12.62,37.61-103.67-32-107.95-43.72-107.95-1.06,0-1.65,0-1.65,0L487.37,307c14.18-23.59,29.43-29.64,41.35-29.64m0-2v0h0c-11.25,0-27.86,5.31-43.06,30.61a2,2,0,0,0,0,2.13,2,2,0,0,0,1.67.9l.28,0,23.67-3.35c.18,0,.69,0,1.46,0,6.94,0,30.62,1.46,43.78,20.23,12.64,18,12,46.65-1.94,85a2,2,0,0,0,.27,1.87c.41.55,10.1,13.43,23.26,13.43,6.77,0,13.11-3.41,18.87-10.12a33.39,33.39,0,0,0,13.67,3A32.54,32.54,0,0,0,631.77,411a1.82,1.82,0,0,0,.53-.67c5.6,2.87,10.92,4.32,15.84,4.32A22.74,22.74,0,0,0,668,403.05a2.13,2.13,0,0,0,.22-.82c1.07-27.05-4.32-50.38-16-69.35-11.45-18.56-29.25-33.44-52.9-44.2a1.86,1.86,0,0,0-.57-.16l-47.86-6.4a40.5,40.5,0,0,0-22.18-6.81Z"/>
      </g>
      <path d="M560,311c-31.63-19.36-44.5-13.73-49.66-7.3l.79-.11S597.5,298.5,556.5,411.5a39.7,39.7,0,0,0,9.2,8.5C578,390,595.44,332.7,560,311Z" style="fill: #ababab"/>
      <path d="M595.35,414.87c.38-.44.77-.89,1.15-1.37a29.66,29.66,0,0,0,10,3.17C617.66,372.87,595,344,595,344,599.68,376.06,599,397.12,595.35,414.87Z" style="fill: #ababab"/>
      <path d="M632.17,408a43.5,43.5,0,0,0,7.73,3.33C641,401.16,644,372,625,343,625,343,633.65,380.42,632.17,408Z" style="fill: #ababab"/>
      <g>
        <path d="M349.5,350.5s29,25,54-2c0,0-11-76,2-114s44-49,67-52,66,21,72,59,5,53,5,53,39,18,49-5c0,0,6-58-16-95s-55-70-118-65-103,42-113,98S349.5,350.5,349.5,350.5Z" style="fill: #fff"/>
        <path d="M476.92,129c55,0,85.07,31,105.58,65.5,22,37,16,95,16,95-3.9,9-12.2,11.7-20.89,11.7-13.59,0-28.11-6.7-28.11-6.7s1-15-5-53c-5.66-35.86-44.27-59.25-67.93-59.25a31.33,31.33,0,0,0-4.07.25c-23,3-54,14-67,52s-2,114-2,114c-8.77,9.47-18,12.54-26.35,12.54-15.42,0-27.65-10.54-27.65-10.54s-8-67,2-123,50-93,113-98c4.28-.34,8.41-.5,12.42-.5m0-2c-4.09,0-8.32.17-12.58.51-62.54,5-104.39,41.28-114.81,99.64-9.94,55.65-2.1,122.91-2,123.59a2,2,0,0,0,.68,1.27c.53.46,13,11,29,11,10.36,0,19.72-4.43,27.82-13.18a2,2,0,0,0,.51-1.65c-.11-.75-10.78-76,1.91-113.06,12.47-36.46,42.43-47.68,65.37-50.67a30.83,30.83,0,0,1,3.81-.23c11.82,0,26.95,6,39.49,15.76,14.6,11.32,24,26.17,26.46,41.8,5.88,37.23,5,52.41,5,52.56a2,2,0,0,0,1.16,1.95c.61.28,15.08,6.88,29,6.88,11.2,0,19-4.46,22.72-12.9a1.79,1.79,0,0,0,.16-.59,228,228,0,0,0,.26-34c-1.16-17.66-5-42.81-16.53-62.26-17-28.54-46.56-66.48-107.3-66.48Z"/>
      </g>
      <path d="M446,174c-73,26-62,147-60.16,185.86,5.83-1.62,11.85-5.09,17.66-11.36,0,0-11-76,2-114s44-49,67-52,66,21,72,59,5,53,5,53a88.29,88.29,0,0,0,15.59,5.15C566.94,249.56,547.46,137.86,446,174Z" style="fill: #ababab"/>
      <g>
        <path d="M587.5,330.5s23,24,9,83" style="fill: #fff"/>
        <path d="M596.5,414.5a.91.91,0,0,1-.23,0,1,1,0,0,1-.74-1.2c13.69-57.69-8.53-81.84-8.75-82.08a1,1,0,0,1,1.44-1.38c1,1,23.22,25.07,9.25,83.92A1,1,0,0,1,596.5,414.5Z"/>
      </g>
      <g>
        <path d="M615.5,323.5s27,51,16,84" style="fill: #fff"/>
        <path d="M631.5,408.5a1.25,1.25,0,0,1-.32-.05,1,1,0,0,1-.63-1.27C641.29,375,614.88,324.47,614.62,324a1,1,0,0,1,1.76-.94c1.11,2.1,27.08,51.76,16.07,84.79A1,1,0,0,1,631.5,408.5Z"/>
      </g>
      <path d="M330.08,385.11a1,1,0,0,1-.49-.13,98.19,98.19,0,0,1-40-43.42,1,1,0,1,1,1.81-.84,96.15,96.15,0,0,0,39.17,42.52,1,1,0,0,1,.37,1.36A1,1,0,0,1,330.08,385.11Z" style="fill: #fff"/>
      <path d="M328.25,409.17a2.34,2.34,0,0,1-.38,0,2.23,2.23,0,0,1-1.78-1.64,1.76,1.76,0,0,1,.56-1.91A1,1,0,0,1,328,407a.39.39,0,0,0,.13.15c.3.05.76-.23,1.17-.72a3,3,0,0,0,.82-2.1,1.27,1.27,0,0,0-1-1.16.59.59,0,0,0-.52.33.39.39,0,0,0-.07.32,1,1,0,1,1-1.79.89,2.31,2.31,0,0,1,.18-2.29,2.59,2.59,0,0,1,2.27-1.25,3.22,3.22,0,0,1,2.94,3,4.9,4.9,0,0,1-1.28,3.59A3.51,3.51,0,0,1,328.25,409.17Z" style="fill: #fff"/>
      <path d="M329.35,458.35h-.1a1,1,0,0,1-.81-.6l-.79-1.8a1,1,0,0,1,.52-1.32,1,1,0,0,1,1.3.49,10.22,10.22,0,0,0,.87-3.73,1.39,1.39,0,0,0-.23.25,1.49,1.49,0,0,0-.33,1.29,1,1,0,0,1-.7,1.22,1,1,0,0,1-1.23-.7,3.51,3.51,0,0,1,.68-3,3.55,3.55,0,0,1,2.79-1.41,1,1,0,0,1,1,.91,12.1,12.1,0,0,1-2.12,8A1,1,0,0,1,329.35,458.35Z" style="fill: #fff"/>
      <path d="M334.91,516.14a.93.93,0,0,1-.5-.14,5.2,5.2,0,0,1-1.94-6.69,1,1,0,0,1,1-.54l.29-.14a2.71,2.71,0,0,1,2.59.28,3.6,3.6,0,0,1,1.14,3.87,8.52,8.52,0,0,1-1.75,3A1,1,0,0,1,334.91,516.14Zm-1-4.92a3.44,3.44,0,0,0,.79,2.5,5,5,0,0,0,.78-1.47,1.69,1.69,0,0,0-.39-1.73.74.74,0,0,0-.67,0c-.05,0-.21.09-.22.19A1,1,0,0,1,334,511.22Z" style="fill: #fff"/>
      <path d="M344.77,558.25a3.29,3.29,0,0,1-1-.17,4,4,0,0,1-2.4-2.37,8.16,8.16,0,0,1,.3-4.87,1,1,0,0,1,1.93.55h0l.12-.23a1,1,0,0,1,.74-.53,1,1,0,0,1,.86.29,8.09,8.09,0,0,1,2.07,2.88,3.45,3.45,0,0,1-1.1,4A2.71,2.71,0,0,1,344.77,558.25Zm-1.17-2.61a1.87,1.87,0,0,0,.8.54.82.82,0,0,0,.77,0,1.52,1.52,0,0,0,.32-1.67,3.83,3.83,0,0,0-.67-1.12l-1.15,2.19A.41.41,0,0,1,343.6,555.64Z" style="fill: #fff"/>
      <path d="M295.21,488.27a1,1,0,0,1-1-.76,279.29,279.29,0,0,1-2.94-118.75,1,1,0,0,1,1.17-.79,1,1,0,0,1,.79,1.17A277.43,277.43,0,0,0,296.18,487a1,1,0,0,1-.73,1.21A1,1,0,0,1,295.21,488.27Z" style="fill: #fff"/>
      <path d="M318.23,361.79a1,1,0,0,1-.64-.23,1,1,0,0,1-.14-1.4l17.73-21.69a1,1,0,0,1,1.54,1.26L319,361.42A1,1,0,0,1,318.23,361.79Z" style="fill: #fff"/>
      <path d="M323,368.92a1,1,0,0,1-.61-.21,1,1,0,0,1-.18-1.4l12.37-16.06a1,1,0,1,1,1.58,1.22l-12.37,16.06A1,1,0,0,1,323,368.92Z" style="fill: #fff"/>
      <path d="M400,377a1,1,0,0,1-.64-.23,1,1,0,0,1-.13-1.41l44.42-53.63a1,1,0,0,1,1.54,1.27l-44.42,53.64A1,1,0,0,1,400,377Z" style="fill: #fff"/>
      <path d="M434.21,358.92a1,1,0,0,1-.63-.23,1,1,0,0,1-.14-1.4l35.33-43.38a1,1,0,0,1,1.41-.15,1,1,0,0,1,.14,1.41L435,358.55A1,1,0,0,1,434.21,358.92Z" style="fill: #fff"/>
      <path d="M460.61,346.91a1,1,0,0,1-.68-.26,1,1,0,0,1-.06-1.42L475,328.73a1,1,0,0,1,1.41-.06,1,1,0,0,1,.06,1.42l-15.15,16.5A1,1,0,0,1,460.61,346.91Z" style="fill: #fff"/>
      <path d="M482.07,355.08a1,1,0,0,1-.66-.24,1,1,0,0,1-.1-1.41l37.61-43.11a1,1,0,1,1,1.5,1.31l-37.6,43.11A1,1,0,0,1,482.07,355.08Z" style="fill: #fff"/>
      <path d="M488.88,357.31a1.05,1.05,0,0,1-.68-.26,1,1,0,0,1-.06-1.41l29.91-32.93a1,1,0,0,1,1.48,1.35L489.62,357A1,1,0,0,1,488.88,357.31Z" style="fill: #fff"/>
      <path d="M514.73,344.62a1,1,0,0,1-.67-.26A1,1,0,0,1,514,343l22.62-25.09a1,1,0,0,1,1.49,1.34l-22.62,25.09A1,1,0,0,1,514.73,344.62Z" style="fill: #fff"/>
      <path d="M565.31,412.06a4,4,0,0,1-.69-.06,3.5,3.5,0,0,1-2.41-1.64,1,1,0,0,1,.37-1.37,1,1,0,0,1,1.36.37,1.57,1.57,0,0,0,1,.67,1.5,1.5,0,0,0,1.21-.26,1.63,1.63,0,0,0,.06-2.29,1.52,1.52,0,0,0-1.2-.31,1.48,1.48,0,0,0-1.07.62,1,1,0,1,1-1.68-1.08,3.46,3.46,0,0,1,6.39,2,3.45,3.45,0,0,1-1.23,2.63A3.42,3.42,0,0,1,565.31,412.06Z"/>
      <path d="M604.22,409.24a1,1,0,0,1-.73-.32,3.05,3.05,0,0,1-.62-3,3.11,3.11,0,0,1,6,1.61,1,1,0,0,1-2-.48,1.14,1.14,0,0,0-.37-1,1.18,1.18,0,0,0-1-.37,1.14,1.14,0,0,0-.73.82,1.12,1.12,0,0,0,.17,1.08,1,1,0,0,1-.74,1.68Z"/>
      <path d="M642.53,405.74a3.63,3.63,0,0,1-3.36-2.69,1,1,0,0,1,1.62-1,2.18,2.18,0,0,1,2-1.44,2.41,2.41,0,0,1,2.43,1.43,2.59,2.59,0,0,1-.28,2.37,3,3,0,0,1-2.32,1.37Zm-.88-2.38a1.36,1.36,0,0,0,.92.38,1,1,0,0,0,.72-.46.62.62,0,0,0,.1-.54.42.42,0,0,0-.32-.17.49.49,0,0,0-.39.07A1,1,0,0,1,641.65,403.36Z"/>
      <path d="M370.27,318.39a38.38,38.38,0,0,1-22.09-7,1,1,0,1,1,1.16-1.63,35.91,35.91,0,0,0,48.67-6.6,1,1,0,0,1,1.55,1.27,38.33,38.33,0,0,1-24.32,13.63A37.6,37.6,0,0,1,370.27,318.39Z"/>
      <path d="M374.68,266.77a37.6,37.6,0,0,1-25.31-9.92,1,1,0,0,1-.05-1.42,1,1,0,0,1,1.41-.05,35.54,35.54,0,0,0,23.95,9.39h.21a35.51,35.51,0,0,0,24-9.69,1,1,0,0,1,1.42,0,1,1,0,0,1,0,1.41,37.49,37.49,0,0,1-25.4,10.25Z"/>
      <path d="M409.4,213.38c-18.56,0-36.53-12-43.39-29.31a1,1,0,0,1,.56-1.3,1,1,0,0,1,1.3.56c6.86,17.31,25.34,29.07,43.92,28a1,1,0,0,1,.11,2C411.07,213.36,410.23,213.38,409.4,213.38Z"/>
      <path d="M451.82,188.12a1,1,0,0,1-.5-.14c-16.92-9.69-27.44-30-25.57-49.44a1,1,0,1,1,2,.19c-1.8,18.66,8.31,38.2,24.58,47.52a1,1,0,0,1-.5,1.87Z"/>
      <path d="M488.66,180.84a1.11,1.11,0,0,1-.43-.09,1,1,0,0,1-.48-1.33,59.76,59.76,0,0,0,.88-47.95,1,1,0,1,1,1.84-.78,61.77,61.77,0,0,1-.91,49.58A1,1,0,0,1,488.66,180.84Z"/>
      <path d="M524.69,204.52a1,1,0,0,1-.35-1.94,55.24,55.24,0,0,0,33.71-38,1,1,0,0,1,1.21-.73A1,1,0,0,1,560,165a57.28,57.28,0,0,1-34.94,39.41A.92.92,0,0,1,524.69,204.52Z"/>
      <path d="M545.83,231.88h-.59a1,1,0,1,1,0-2h.57a47.75,47.75,0,0,0,39.69-21.94,1,1,0,1,1,1.7,1.06A49.81,49.81,0,0,1,545.83,231.88Z"/>
      <path d="M569.4,272.57a34.73,34.73,0,0,1-18.58-5.37,1,1,0,1,1,1.07-1.68,32.46,32.46,0,0,0,43.65-8.3,1,1,0,0,1,1.4-.23,1,1,0,0,1,.22,1.4,34.27,34.27,0,0,1-27.76,14.18Z"/>
      <path d="M528.66,571.51a1,1,0,0,1-.75-.34,79.58,79.58,0,0,1-10.11-14.45,1,1,0,0,1,1.76-1,77.7,77.7,0,0,0,9.85,14.08,1,1,0,0,1-.09,1.41A1,1,0,0,1,528.66,571.51Z"/>
      <path d="M516.82,573.59a1,1,0,0,1-.8-.4l-7-9.47a1,1,0,1,1,1.6-1.19l7.05,9.46a1,1,0,0,1-.2,1.4A1,1,0,0,1,516.82,573.59Z"/>
      <path d="M526.69,551.43a1,1,0,0,1-.83-.44l-7.33-10.71a1,1,0,0,1,1.65-1.13l7.33,10.71a1,1,0,0,1-.26,1.39A1,1,0,0,1,526.69,551.43Z"/>
      <path d="M529.28,535.12a1,1,0,0,1-.69-.29,42.77,42.77,0,0,1-9.16-13.11,1,1,0,1,1,1.82-.81A41,41,0,0,0,530,533.4a1,1,0,0,1-.7,1.72Z"/>
      <path d="M526.84,509.43a1,1,0,0,1-.71-.3l-6.67-6.78a1,1,0,0,1,1.43-1.4l6.66,6.78a1,1,0,0,1,0,1.41A1,1,0,0,1,526.84,509.43Z"/>
      <path d="M538.76,500.57a1,1,0,0,1-.37-.07,9,9,0,0,1-4.81-4.47,1,1,0,1,1,1.8-.86,7,7,0,0,0,3.74,3.47,1,1,0,0,1-.36,1.93Z"/>
      <path d="M552.21,485.9a1.11,1.11,0,0,1-.43-.09,25.57,25.57,0,0,1-7.89-5.79,1,1,0,1,1,1.47-1.35,23.61,23.61,0,0,0,7.27,5.33,1,1,0,0,1-.42,1.9Z"/>
      <path d="M553.13,473.66a1.07,1.07,0,0,1-.46-.11,44.52,44.52,0,0,1-8.71-6,1,1,0,1,1,1.33-1.5,42.07,42.07,0,0,0,8.31,5.73,1,1,0,0,1-.47,1.88Z"/>
      <path d="M554.31,459.05a1,1,0,0,1-.57-.17,75.72,75.72,0,0,0-13.11-7.3,1,1,0,1,1,.8-1.84,79.31,79.31,0,0,1,13.45,7.49,1,1,0,0,1,.25,1.4A1,1,0,0,1,554.31,459.05Z"/>
      <path d="M468.3,488.68a1,1,0,0,1-1-.78,51.05,51.05,0,0,1,48.77-62.36h0a1,1,0,0,1,0,2,49.06,49.06,0,0,0-46.86,59.92,1,1,0,0,1-.76,1.2Z"/>
      <path d="M538.39,575.79h0a1,1,0,0,1-1-1l.83-55a1,1,0,0,1,1-1,1,1,0,0,1,1,1l-.83,55A1,1,0,0,1,538.39,575.79Z"/>
      <path d="M547.26,551.11h-.1a1,1,0,0,1-.69-.38l-2-2.66a1,1,0,0,1,1.59-1.21l1.37,1.79a8.88,8.88,0,0,0,2.3-2.95c.49-1.18.45-2.86-.59-3.67a1.77,1.77,0,0,0-1.75-.11,1.07,1.07,0,0,0-.7.84,1,1,0,0,1-1.07.93,1,1,0,0,1-.93-1.06,3,3,0,0,1,1.89-2.54,3.76,3.76,0,0,1,3.79.36c1.85,1.44,2,4.12,1.2,6a12.79,12.79,0,0,1-3.62,4.4A1,1,0,0,1,547.26,551.11Z"/>
      <path d="M549.26,573.15a1,1,0,0,1-.67-1.75,7.83,7.83,0,0,0,2.32-7.48,2.77,2.77,0,0,0-1.46.66,2.65,2.65,0,0,0-1,1.94,1,1,0,0,1-1,1h0a1,1,0,0,1-1-1,4.77,4.77,0,0,1,5.35-4.58,1,1,0,0,1,.79.66,9.88,9.88,0,0,1-2.69,10.27A1,1,0,0,1,549.26,573.15Z"/>
      <path d="M638.09,533.36a1,1,0,0,1-.11-2l24.75-2.89a1,1,0,0,1,.23,2l-24.75,2.89Z"/>
      <path d="M616.08,526a1,1,0,0,1-.1-2l34-3.28a1,1,0,0,1,.19,2l-34,3.28Z"/>
      <path d="M371.5,451a1,1,0,0,1-1-1l-2-59.61a1,1,0,1,1,2-.07l2,59.61a1,1,0,0,1-1,1Z"/>
      <path d="M383.22,439.62a4.8,4.8,0,0,1-2.6-.79,4.6,4.6,0,0,1-2.11-3.38,1,1,0,1,1,2-.16,2.54,2.54,0,0,0,1.21,1.86,2.5,2.5,0,1,0,1.51-4.53,2.51,2.51,0,0,0-2.08.77,1,1,0,0,1-1.51-1.33,4.55,4.55,0,1,1,4.94,7.34A4.11,4.11,0,0,1,383.22,439.62Z"/>
      <path d="M382.43,421.18a1,1,0,0,1-.46-1.89,2.61,2.61,0,0,0,.54-3.94,2.36,2.36,0,0,0-2.13-.51,2.42,2.42,0,0,0-1.77,1.29,1,1,0,1,1-1.83-.81,4.41,4.41,0,1,1,6.12,5.75A1.12,1.12,0,0,1,382.43,421.18Z"/>
      <path d="M346.45,498.68a1,1,0,0,1-.1-2l66-6.69a1,1,0,0,1,1.1.89,1,1,0,0,1-.9,1.1l-66.05,6.69Z"/>
      <path d="M350.65,510.35a1,1,0,0,1-.11-2l41.22-4.55a1,1,0,0,1,1.11.89,1,1,0,0,1-.89,1.1l-41.22,4.55Z"/>
      <path d="M578.92,512.2a1,1,0,0,1-.11-2l11-1.33a1,1,0,0,1,1.11.88,1,1,0,0,1-.87,1.11l-11,1.32Z"/>
      <path d="M394.61,520.75h-6.88a1,1,0,0,1,0-2h6.88a1,1,0,0,1,0,2Z"/>
      <path d="M445.53,166.7a1,1,0,0,1-.73-.31,33.17,33.17,0,0,1-7.67-32.18,1,1,0,0,1,1.25-.67,1,1,0,0,1,.66,1.25A31.57,31.57,0,0,0,446.25,165a1,1,0,0,1-.72,1.69Z"/>
      <path d="M570.39,258.28a29.53,29.53,0,0,1-10.53-1.88,1,1,0,0,1,.7-1.87c12.28,4.66,27.65-.22,35-11.11a1,1,0,1,1,1.66,1.12C591.38,253.18,580.81,258.28,570.39,258.28Z"/>
      <path d="M371.59,276.93a34.58,34.58,0,0,1-23-8.67,1,1,0,0,1-.07-1.42,1,1,0,0,1,1.41-.06,32.62,32.62,0,0,0,32.07,6.4,1,1,0,0,1,1.28.6,1,1,0,0,1-.61,1.28A32.81,32.81,0,0,1,371.59,276.93Z"/>
      <path d="M358.21,295.27a13.62,13.62,0,0,1-9.74-4.11,1,1,0,0,1,0-1.42,1,1,0,0,1,1.41,0A11.57,11.57,0,0,0,360,293.12a1,1,0,0,1,1.15.82,1,1,0,0,1-.82,1.15A13,13,0,0,1,358.21,295.27Z"/>
      <path d="M369.87,339a30.71,30.71,0,0,1-9.14-1.36,1,1,0,0,1,.59-1.91,31.58,31.58,0,0,0,33.41-10.64,1,1,0,0,1,1.4-.19,1,1,0,0,1,.19,1.41C390.18,334.28,380,339,369.87,339Z"/>
      <path d="M368.46,347.4a1,1,0,0,1-.09-2l9.17-.92a1,1,0,0,1,.2,2l-9.18.92Z"/>
      <path d="M425.22,623.75a10.43,10.43,0,0,1-4.51-1,11,11,0,0,1-5.65-7,10.35,10.35,0,0,1,1.23-8.58,1,1,0,0,1,1.66,1.13,8.37,8.37,0,0,0-1,6.92,8.94,8.94,0,0,0,4.58,5.78,9.26,9.26,0,0,0,7.1.16,9.73,9.73,0,0,0,5.59-5,10.86,10.86,0,0,0-4.36-13.25,12,12,0,0,0-14.15,2,1,1,0,0,1-1.42,0,1,1,0,0,1,0-1.41,13.94,13.94,0,0,1,16.59-2.29c5.26,3.12,7.62,10.35,5.17,15.79a11.83,11.83,0,0,1-6.73,6.06A12,12,0,0,1,425.22,623.75Z"/>
      <path d="M418.9,616.12a1,1,0,0,1-.51-1.85l12.67-7.62a1,1,0,1,1,1,1.71L419.42,616A1,1,0,0,1,418.9,616.12Z"/>
      <path d="M600.57,609.37a10.08,10.08,0,0,1-9.16-5.53c-1.69-3.67-.29-8.32,3.07-10.15a1,1,0,0,1,1.35.4,1,1,0,0,1-.4,1.36c-2.42,1.31-3.45,4.85-2.2,7.56a8.14,8.14,0,0,0,7.34,4.36h0a9.59,9.59,0,1,0-9.11-12.63,1,1,0,1,1-1.89-.63,11.59,11.59,0,1,1,11,15.26Z"/>
      <path d="M595.25,607.19a1,1,0,0,1-.72-1.69l11.73-12.11a1,1,0,0,1,1.44,1.4L596,606.89A1,1,0,0,1,595.25,607.19Z"/>
    </g>
    <g id="a52ff075-1865-473b-b6c8-e9554d110f5a" data-name="pattern">
      <path d="M598,153.18a1,1,0,0,1-.71-.29,1,1,0,0,1,0-1.42l30.28-30.25a1,1,0,0,1,1.41,0,1,1,0,0,1,0,1.41L598.7,152.89A1,1,0,0,1,598,153.18Z"/>
      <path d="M609.52,165.18a1,1,0,0,1-.36-1.93,80.58,80.58,0,0,0,25.38-15.86,1,1,0,0,1,1.36,1.47,82.47,82.47,0,0,1-26,16.25A.92.92,0,0,1,609.52,165.18Z"/>
      <path d="M588.59,142.41a1,1,0,0,1-.89-1.45l5.5-11a1,1,0,0,1,1.34-.44,1,1,0,0,1,.45,1.34l-5.5,11A1,1,0,0,1,588.59,142.41Z"/>
      <path d="M321.93,260.72a1,1,0,0,1-1-1c-1.81-45.7,18.66-92.55,53.41-122.27a1,1,0,1,1,1.3,1.51c-34.3,29.34-54.49,75.58-52.71,120.68a1,1,0,0,1-1,1Z"/>
      <path d="M731.53,453.26a8.4,8.4,0,0,1-3.44-.73,9.48,9.48,0,0,1-5.29-7.2A12.41,12.41,0,0,1,726,434.54a14.62,14.62,0,0,1,8.28-4,20,20,0,0,0-5.86-2.79c-6.47-1.83-13.6-.86-19.9,0a1,1,0,0,1-1.12-.86,1,1,0,0,1,.85-1.12c6.49-.88,13.85-1.88,20.72.07a21.93,21.93,0,0,1,8.28,4.51,21.75,21.75,0,0,1,8,1.6c6.25,2.56,11.25,7.49,15.67,11.84a1,1,0,0,1-1.4,1.42c-4.29-4.21-9.15-9-15-11.41a19.77,19.77,0,0,0-5.15-1.32,14.33,14.33,0,0,1,3.44,8.31,12.29,12.29,0,0,1-5.41,10.49A10.17,10.17,0,0,1,731.53,453.26Zm4.94-20.88a13.33,13.33,0,0,0-9.08,3.58,10.34,10.34,0,0,0-2.62,9,7.51,7.51,0,0,0,4.13,5.73,7.38,7.38,0,0,0,7.29-1,10.39,10.39,0,0,0,4.55-8.73A13,13,0,0,0,736.47,432.38Z"/>
      <path d="M231.19,528.06a18.9,18.9,0,0,1-6.87-1.31,16.3,16.3,0,0,1-7.5-25.83,19.2,19.2,0,0,1,3.68-3.79,14.16,14.16,0,0,1-8.79-7.19c-3.49-7.22-.78-15.51,2.92-20.85,6.07-8.77,16.45-13.16,25.22-10.68a1,1,0,0,1,.69,1.23,1,1,0,0,1-1.24.69c-8.88-2.51-18.3,3.08-23,9.9-3.38,4.88-5.88,12.39-2.77,18.84a12.2,12.2,0,0,0,8.31,6.33c.35.07.7.13,1,.17a15.83,15.83,0,0,1,7.27-2h0a1,1,0,0,1,.93.65,1,1,0,0,1-.29,1.12,10.37,10.37,0,0,1-7.49,2.29,16.94,16.94,0,0,0-4.87,4.48,15.27,15.27,0,0,0,20,22,1,1,0,0,1,1.37.34,1,1,0,0,1-.34,1.37A15.93,15.93,0,0,1,231.19,528.06Z"/>
      <path d="M219.6,317.06a6.78,6.78,0,0,1-1.62-.2,1,1,0,1,1,.48-1.94,5.85,5.85,0,1,0-3.46-9.35,1,1,0,0,1-1.64-1.16,7.88,7.88,0,1,1,12.28,9.77A8.24,8.24,0,0,1,219.6,317.06Z"/>
      <path d="M222.41,699.19a6.57,6.57,0,0,1-5.16-2.34,1,1,0,0,1,1.57-1.24,4.71,4.71,0,0,0,3.61,1.58,4.4,4.4,0,1,0-4.53-5.31,1,1,0,0,1-2-.38,6.65,6.65,0,1,1,6.51,7.69Z"/>
      <path d="M704.05,589.5a1,1,0,0,1-.93-1.38l9.57-23.42a1,1,0,1,1,1.85.76L705,588.87A1,1,0,0,1,704.05,589.5Z"/>
      <path d="M716.54,593.67a1,1,0,0,1-.55-.17,1,1,0,0,1-.28-1.39L724,579.73a1,1,0,0,1,1.67,1.11l-8.26,12.38A1,1,0,0,1,716.54,593.67Z"/>
      <path d="M727.35,607.23a1,1,0,0,1-.71-.29,1,1,0,0,1,0-1.42l8.3-8.21a1,1,0,1,1,1.4,1.42l-8.29,8.21A1,1,0,0,1,727.35,607.23Z"/>
      <path d="M188.22,837.13a1,1,0,0,1-.29-2L238.84,820a1,1,0,0,1,.57,1.92L188.5,837.09A.9.9,0,0,1,188.22,837.13Z"/>
      <path d="M219.7,852.1a1,1,0,0,1-.77-.36,1,1,0,0,1,.13-1.41l15.07-12.46a1,1,0,1,1,1.27,1.54l-15.06,12.46A1,1,0,0,1,219.7,852.1Z"/>
      <path d="M246.94,875.59a1,1,0,0,1-.25,0,1,1,0,0,1-.72-1.22l9.17-35.89a1,1,0,0,1,1.21-.72,1,1,0,0,1,.73,1.22l-9.18,35.89A1,1,0,0,1,246.94,875.59Z"/>
      <path d="M686.86,390.51a1,1,0,0,1-1-1l-1-55a1,1,0,0,1,2,0l1,55a1,1,0,0,1-1,1Z"/>
      <path d="M697.74,365.75a1,1,0,0,1-1-1V350.07a1,1,0,1,1,2,0v14.68A1,1,0,0,1,697.74,365.75Z"/>
    </g>
  </g>
</svg>
