<svg id="eba291a8-fed2-46e0-87bc-05d02f98a004" data-name="Site is under maintenance" xmlns="http://www.w3.org/2000/svg" width="1000" height="1000" viewBox="0 0 1000 1000">
  <g id="a1443735-a645-45a0-ac5d-e12d25bf70d3" data-name="background">
    <g>
      <g>
        <path d="M769.71,651.11a213.72,213.72,0,0,1-37.8-3.34,1,1,0,0,1-.83-.94l-2-43.78h-.39a1,1,0,0,1-1-1,1,1,0,0,1,1-1l94.7-1.61a1.1,1.1,0,0,1,.76.33,1,1,0,0,1,.24.81L818,645a1,1,0,0,1-.78.84A216.62,216.62,0,0,1,769.71,651.11Zm-36.66-5.17a214.87,214.87,0,0,0,83.1-1.9l6.08-42.58L731.08,603Z" style="fill: #e6e6e6"/>
        <path d="M770.92,667.44a1,1,0,0,1-.67-.25,1,1,0,0,1-.33-.7l-.6-12.67a1,1,0,0,1,.95-1,1,1,0,0,1,1,1l.56,11.65c25.92-1.54,52.19-1.8,78.1-.79a1,1,0,0,1,1,1,1,1,0,0,1-1,1c-26.18-1-52.73-.74-78.91.85Z" style="fill: #e6e6e6"/>
        <path d="M849.34,632.3a1,1,0,0,1-.8-.41c-.6-.81-1.94-1-3.25-1.13l-23.56-2.31a1,1,0,0,1-.9-1.09,1,1,0,0,1,1.1-.9l23.56,2.31c1.68.16,3.56.46,4.65,1.93a1,1,0,0,1-.2,1.4A1,1,0,0,1,849.34,632.3Z" style="fill: #e6e6e6"/>
        <path d="M812,612.32h-.06a2.34,2.34,0,0,1-2.06-1.18,1,1,0,0,1,.4-1.35,1,1,0,0,1,1.36.4.45.45,0,0,0,.34.14.68.68,0,0,0,.39-.14.47.47,0,0,0-.37-.55,1,1,0,0,1-.08-2,2.38,2.38,0,0,1,2.11,1.2,2.34,2.34,0,0,1,.06,2.37A2.42,2.42,0,0,1,812,612.32Z" style="fill: #e6e6e6"/>
        <path d="M742.87,614.51h-.09a2.93,2.93,0,0,1-2.24-1.21,2.83,2.83,0,0,1-.5-2.43,1,1,0,0,1,2,.13,3.46,3.46,0,0,1,3.11-.7,1,1,0,0,1,.72.79,2.88,2.88,0,0,1-.71,2.36A3,3,0,0,1,742.87,614.51Z" style="fill: #e6e6e6"/>
        <path d="M840.84,641a3,3,0,0,1-.42,0,1,1,0,0,1,.38-2,.43.43,0,0,0,.37-.14.4.4,0,0,0,.15-.29.39.39,0,0,0-.21-.24.45.45,0,0,0-.38-.05,1,1,0,0,1-1.33-.5,1,1,0,0,1,.5-1.32,2.45,2.45,0,0,1,2.2.13,2.26,2.26,0,0,1,.42,3.74A2.48,2.48,0,0,1,840.84,641Z" style="fill: #e6e6e6"/>
        <path d="M849.32,666h0a1,1,0,0,1-1-1l.68-33.52a1,1,0,0,1,1-1,1,1,0,0,1,1,1L850.32,665A1,1,0,0,1,849.32,666Z" style="fill: #e6e6e6"/>
        <path d="M772.05,631.28a149.91,149.91,0,0,1-29.6-2.92,1,1,0,1,1,.39-2,149.45,149.45,0,0,0,53.39.91,1,1,0,0,1,1.15.82,1,1,0,0,1-.82,1.15A150.47,150.47,0,0,1,772.05,631.28Z" style="fill: #e6e6e6"/>
        <path d="M833,654.33H817.23a1,1,0,0,1,0-2H833a1,1,0,0,1,0,2Z" style="fill: #e6e6e6"/>
      </g>
      <g id="ab56930b-ce1e-4ff6-9d9e-f17f5ef79c3a" data-name="2">
        <path d="M475.39,792.37a113.27,113.27,0,0,1-15.42-1,1.51,1.51,0,0,1-1.28-1.34l-2.27-23.15A1.49,1.49,0,0,1,457,764l50.46-3.1a1.52,1.52,0,0,1,1.17.45,1.54,1.54,0,0,1,.42,1.18l-2.09,24.41a1.52,1.52,0,0,1-1.09,1.32A114,114,0,0,1,475.39,792.37Zm-13.83-3.87A111.06,111.06,0,0,0,504,785.63L505.89,764l-46.46,2.85Z" style="fill: #e6e6e6"/>
        <path d="M481.46,801.16a1.49,1.49,0,0,1-.94-.34,1.51,1.51,0,0,1-.55-1l-.69-6.91a1.5,1.5,0,1,1,3-.29l.54,5.4c13-1.33,26.15-2.06,39.2-2.16l-.79-15.46a3,3,0,0,0-.11-.82,2.37,2.37,0,0,0-1.07-.18l-12.63-.71A1.51,1.51,0,0,1,506,777.1a1.53,1.53,0,0,1,1.58-1.42l12.64.71a3.57,3.57,0,0,1,4,3.85l.87,17a1.52,1.52,0,0,1-.41,1.11,1.58,1.58,0,0,1-1.09.47,411.62,411.62,0,0,0-42,2.3Z" style="fill: #e6e6e6"/>
        <path d="M470.15,776.23a1.5,1.5,0,0,1-.17-3,176.49,176.49,0,0,1,28.71-.87,1.5,1.5,0,1,1-.16,3,173.77,173.77,0,0,0-28.21.86Z" style="fill: #e6e6e6"/>
        <path d="M489.75,780.49H472.63a1.5,1.5,0,1,1,0-3h17.12a1.5,1.5,0,0,1,0,3Z" style="fill: #e6e6e6"/>
        <path d="M469.88,785.27a1.5,1.5,0,0,1,0-3l9.79,0h0a1.5,1.5,0,1,1,0,3l-9.78,0Z" style="fill: #e6e6e6"/>
        <path d="M516.35,792.41h-8.26a1.5,1.5,0,0,1,0-3h8.26a1.5,1.5,0,0,1,0,3Z" style="fill: #e6e6e6"/>
        <path d="M501.74,770.1A2.25,2.25,0,0,1,499.8,769a1.5,1.5,0,0,1,.38-1.95,1.48,1.48,0,0,1,1.37-1.44,2.22,2.22,0,0,1,2,1,2.19,2.19,0,0,1-1.77,3.46Zm.64-2.6h0Z" style="fill: #e6e6e6"/>
        <path d="M464.93,772.91a2.6,2.6,0,0,1-2.5-3.07,1.49,1.49,0,0,1,1.77-1.16,1.57,1.57,0,0,1,.4.14,2.77,2.77,0,0,1,1.7-.15,1.5,1.5,0,0,1,1.11,1.13,2.49,2.49,0,0,1-.51,2.12,2.53,2.53,0,0,1-1.95,1Z" style="fill: #e6e6e6"/>
        <path d="M518,785.1l-.33,0a1.5,1.5,0,0,1-1.25-1.72,1.11,1.11,0,0,1,.07-.26,1.14,1.14,0,0,1-.15-.23,1.5,1.5,0,0,1,.63-2,2.25,2.25,0,0,1,2.64,3.58A2.28,2.28,0,0,1,518,785.1Zm.36-1.6Zm-.23-1.39Z" style="fill: #e6e6e6"/>
      </g>
      <g id="ab156b01-ed45-4225-a665-d8242d28d01e" data-name="3">
        <path d="M602.54,372.29h0a1.5,1.5,0,0,1-1.49-1.51l.54-87.44a1.54,1.54,0,0,1,1.51-1.49,1.49,1.49,0,0,1,1.49,1.51L604,370.8A1.5,1.5,0,0,1,602.54,372.29Z" style="fill: #e6e6e6"/>
        <path d="M684.16,287.62c-27,0-54.07-.87-80.87-2.59a1.5,1.5,0,0,1,.19-3c37.66,2.42,75.88,3.14,113.6,2.15a1.5,1.5,0,1,1,.08,3Q700.71,287.61,684.16,287.62Z" style="fill: #e6e6e6"/>
        <path d="M717.23,372.6h-.07a1.5,1.5,0,0,1-1.43-1.57c1.25-27.95,1.54-56.31.86-84.28a1.5,1.5,0,0,1,1.46-1.53h0a1.5,1.5,0,0,1,1.5,1.46c.68,28,.39,56.46-.86,84.49A1.5,1.5,0,0,1,717.23,372.6Z" style="fill: #e6e6e6"/>
        <path d="M717.74,373.26h0l-115.27-.47a1.5,1.5,0,0,1,0-3h0l115.27.47a1.5,1.5,0,0,1,0,3Z" style="fill: #e6e6e6"/>
        <path d="M695.94,302.27A826.45,826.45,0,0,1,603,297a1.5,1.5,0,0,1,.34-3,821.7,821.7,0,0,0,112.88,5,1.5,1.5,0,0,1,.08,3Q706.12,302.27,695.94,302.27Z" style="fill: #e6e6e6"/>
        <path d="M691.51,297.72a3.91,3.91,0,0,1-1.23-.2,4.16,4.16,0,0,1-1.9-1.34,1.5,1.5,0,0,1-.73-.72,4.31,4.31,0,0,1,.09-3.74,4.12,4.12,0,0,1,6.49-1.43,4.06,4.06,0,0,1-.26,6.64A4.33,4.33,0,0,1,691.51,297.72Zm-1.15-4.51a1.5,1.5,0,0,1,.09.43,1.26,1.26,0,0,0,.8,1,1.15,1.15,0,0,0,1-.22,1.22,1.22,0,0,0,.58-.91,1.27,1.27,0,0,0-.51-.94,1.35,1.35,0,0,0-1.07-.32,1.31,1.31,0,0,0-.82.74A1.42,1.42,0,0,0,690.36,293.21Z" style="fill: #e6e6e6"/>
        <path d="M706.36,298.26a4.77,4.77,0,0,1-3.34-1.43,4.63,4.63,0,0,1-1.37-4.24,1.52,1.52,0,0,1,.27-.59,1.56,1.56,0,0,1,.17-.62,4.76,4.76,0,1,1,4.27,6.88ZM704.62,293a2,2,0,0,1,0,.24,1.64,1.64,0,0,0,3.15.9,1.46,1.46,0,0,0-1.61-2.11,1.7,1.7,0,0,0-1.38.77A1.32,1.32,0,0,1,704.62,293Z" style="fill: #e6e6e6"/>
        <path d="M647.42,313.13c-12.09,0-24.18-.45-36.19-1.33a1.5,1.5,0,0,1-1.38-1.6,1.48,1.48,0,0,1,1.6-1.39,491.47,491.47,0,0,0,75.58-.28,1.5,1.5,0,1,1,.24,3C674.05,312.59,660.73,313.13,647.42,313.13Z" style="fill: #e6e6e6"/>
        <path d="M671.87,325.43h0l-54.11-2.1a1.5,1.5,0,0,1-1.44-1.55,1.53,1.53,0,0,1,1.56-1.45l54.1,2.1a1.5,1.5,0,0,1-.06,3Z" style="fill: #e6e6e6"/>
        <path d="M725.37,259.13a5,5,0,0,1-2.69-.67c-2.35-1.45-2.59-4.71-.61-8.51a1.5,1.5,0,1,1,2.66,1.39c-.92,1.77-1.46,4-.48,4.57a3.93,3.93,0,0,0,2.09.16l26.81-2.29a152.06,152.06,0,0,1,2.42-28.65l-24,2.71a9.5,9.5,0,0,0-3.74.92c-2.89,1.72-2.56,6.53-2.38,8,.08.68.18,1.36.28,2.05.45,3,.92,6.07-.23,9.07a1.5,1.5,0,0,1-2.8-1.08c.86-2.25.48-4.82.07-7.55-.11-.71-.22-1.42-.3-2.13-.62-5.12.78-9.09,3.83-10.9a11.89,11.89,0,0,1,4.93-1.32l26-2.94a1.47,1.47,0,0,1,1.27.48,1.51,1.51,0,0,1,.37,1.3,149.25,149.25,0,0,0-2.72,31.43,1.51,1.51,0,0,1-1.38,1.52l-28.2,2.41C726.24,259.09,725.82,259.13,725.37,259.13Z" style="fill: #e6e6e6"/>
        <path d="M736.2,250.52a7.7,7.7,0,0,1-6.61-3.58A8.64,8.64,0,0,1,729,240a17.64,17.64,0,0,1,3.18-5.56,1.54,1.54,0,0,1,1-.57,10.88,10.88,0,0,1,10.83.83,1.51,1.51,0,0,1,.56.76,13.36,13.36,0,0,1,0,8.7,9.66,9.66,0,0,1-6.55,6.11A7.5,7.5,0,0,1,736.2,250.52Zm-2-13.77a14,14,0,0,0-2.34,4.16,5.6,5.6,0,0,0,.3,4.5,4.8,4.8,0,0,0,5.18,2,6.67,6.67,0,0,0,4.46-4.24,10.15,10.15,0,0,0,.08-6.23,7.91,7.91,0,0,0-7.66-.17Z" style="fill: #e6e6e6"/>
        <path d="M724.23,323.62c-1.71,0-3.36-.12-4.82-.23a1.5,1.5,0,0,1,.23-3c5,.37,9.4.5,12.87-1.64,2.63-1.62,4.62-4.61,5.6-8.41a43.84,43.84,0,0,0,.9-11.05c0-6.95-.37-13.55-4.39-17.95-2.57-2.82-6.29-4.33-10.23-5.92-4.81-2-9.79-4-12.56-8.62-4-6.66-.86-15.4,4.47-20,5.93-5.14,14-6.44,19.57-7a1.5,1.5,0,0,1,.28,3c-8.18.78-13.87,2.77-17.89,6.25-4.39,3.8-7,10.9-3.86,16.2,2.26,3.78,6.56,5.53,11.12,7.38,4.07,1.65,8.29,3.36,11.31,6.67,4.75,5.2,5.16,12.72,5.18,20a46.4,46.4,0,0,1-1,11.81c-1.18,4.55-3.64,8.18-6.93,10.21A18.58,18.58,0,0,1,724.23,323.62Z" style="fill: #e6e6e6"/>
        <path d="M674.37,360.51h0a1.48,1.48,0,0,1-1.45-1.54l.78-25.23a1.51,1.51,0,0,1,1.5-1.45h.05a1.49,1.49,0,0,1,1.45,1.54l-.78,25.23A1.51,1.51,0,0,1,674.37,360.51Z" style="fill: #e6e6e6"/>
        <path d="M675.44,334.8a1.5,1.5,0,0,1-.15-3,164.68,164.68,0,0,1,26.37-.5,1.51,1.51,0,0,1,1.41,1.59,1.49,1.49,0,0,1-1.59,1.41,161,161,0,0,0-25.89.49Z" style="fill: #e6e6e6"/>
        <path d="M699.15,361.43H699a1.49,1.49,0,0,1-1.38-1.61l2.15-27.49a1.49,1.49,0,0,1,1.61-1.38,1.51,1.51,0,0,1,1.38,1.61L700.64,360A1.5,1.5,0,0,1,699.15,361.43Z" style="fill: #e6e6e6"/>
        <path d="M682.11,361.14q-3.4,0-6.79-.17a1.5,1.5,0,0,1,.15-3,132.41,132.41,0,0,0,23.13-.86,1.5,1.5,0,1,1,.38,3A133.83,133.83,0,0,1,682.11,361.14Z" style="fill: #e6e6e6"/>
      </g>
      <path d="M770.88,382.75,736,467.09l-9.91,24c-.73,1.78,2.17,2.56,2.9.8l34.84-84.35,9.91-24c.73-1.79-2.17-2.56-2.9-.8Z" style="fill: #e6e6e6"/>
      <path d="M766.16,424.35,744,477.58l-6.32,15.14a1.52,1.52,0,0,0,1.05,1.85,1.54,1.54,0,0,0,1.84-1.05l22.2-53.23,6.32-15.14a1.51,1.51,0,0,0-1-1.85,1.53,1.53,0,0,0-1.84,1.05Z" style="fill: #e6e6e6"/>
      <path d="M101.52,616.6Q118.07,653,137,688.28t40.21,69.15q11.91,19,24.51,37.49c1.08,1.58,3.68.08,2.59-1.52q-22.52-33.07-42.78-67.59t-38.16-70.3q-10-20-19.28-40.43c-.8-1.75-3.39-.23-2.59,1.52Z" style="fill: #e6e6e6"/>
      <path d="M98,659.68a4.08,4.08,0,0,0,4.46.49,6.46,6.46,0,0,0,3-3,9.2,9.2,0,0,0-.43-8.66,7.3,7.3,0,0,0-7.48-3.24,5.87,5.87,0,0,0-5,5.56c0,3,2.18,6,5.3,6.07a1.5,1.5,0,1,0,0-3c-.07,0-.46-.07-.09,0l-.29-.07c-.1,0-.19-.06-.29-.09.31.1.07,0,0,0s-.61-.41-.34-.18a5.1,5.1,0,0,1-.47-.46c-.06-.06-.22-.28,0,0a3.28,3.28,0,0,1-.2-.31c-.11-.17-.2-.35-.3-.54s0,0,0,0l-.12-.35-.06-.24c0-.08-.1-.6-.06-.21,0-.21,0-.41,0-.62s0-.16,0-.24c0-.39-.08.29,0-.09.05-.2.1-.39.16-.59.12-.37-.09.17,0,0l.21-.37c.21-.36-.1.11.05-.08l.22-.25.29-.27s.23-.16,0,0a6.42,6.42,0,0,1,.56-.34s.44-.2.13-.07l.38-.14.65-.16c.41-.09-.29,0,.14,0l.27,0a6.26,6.26,0,0,1,.75,0c.07,0,.37.05.07,0l.4.07a5.48,5.48,0,0,1,.72.22c.25.08-.3-.16.08,0l.31.15.29.18s.39.27.14.08a5.34,5.34,0,0,1,.65.61,5.41,5.41,0,0,1,.7,1l.13.27c-.12-.26.07.19.08.2a8.65,8.65,0,0,1,.25.87l.06.3c.1.46,0-.27,0,.2,0,.26,0,.51.05.77a5.54,5.54,0,0,1-.14,1.43,8.89,8.89,0,0,1-.26.88s-.17.43-.09.24-.15.28-.18.33-.11.17-.16.25-.11.16,0,.06l-.19.23a5.26,5.26,0,0,1-.64.61c.18-.14,0,0-.05,0l-.49.29s-.26.1,0,0a3.28,3.28,0,0,1-.51.15c.07,0,.29,0,0,0h-.25l.09,0a2.8,2.8,0,0,1-.31-.09c.4.14-.29-.23,0,0a1.54,1.54,0,0,0-2.12,0,1.5,1.5,0,0,0,0,2.12Z" style="fill: #e6e6e6"/>
      <path d="M108.78,681.56c1.15,2.71,4.45,4,7.22,3.43a5.86,5.86,0,0,0,4.44-6.4,6.22,6.22,0,0,0-1.82-4,5.48,5.48,0,0,0-4.06-1.46c-3,.19-5.83,2.47-5.9,5.61a6.11,6.11,0,0,0,7.48,5.81,1.5,1.5,0,1,0-.8-2.89l-.41.1c-.24.05.09,0,.09,0h-.57c-.07,0-.28,0-.06,0s0,0-.11,0l-.4-.1-.19-.07c-.15,0-.14,0,.06,0a2,2,0,0,1-.73-.4.68.68,0,0,0-.18-.13s.27.23.06,0l-.28-.25c-.1-.1-.2-.2-.29-.31s-.19-.21,0-.05-.06-.08-.07-.1c-.15-.22-.25-.46-.38-.69s.07.27,0,.07,0-.13-.07-.2a3.28,3.28,0,0,1-.11-.45c-.06-.23,0,.08,0,.09a1.55,1.55,0,0,1,0-.21,2.16,2.16,0,0,1,0-.36c0-.38-.07.23,0-.11,0-.14.06-.28.1-.42s.09-.39.06-.17,0,0,0,0l.09-.17c.06-.09.11-.19.18-.28s.11-.13.1-.15c-.13.17-.16.21-.08.12l.09-.1c.16-.18.34-.33.51-.49s-.11.09-.12.08l.16-.11.4-.25.3-.15c.32-.17-.27.08.08,0a6.05,6.05,0,0,1,.73-.2l.19,0c.2,0-.32,0-.12,0l.34,0h.56c.27,0-.25-.06-.07,0l.68.18c.26.08-.1,0-.1,0l.17.08a2.77,2.77,0,0,1,.37.22c.31.18-.19-.19.07,0l.24.22s.2.28.25.28-.21-.31-.07-.08c0,.06.09.12.13.19a2.54,2.54,0,0,1,.16.28l.09.17c.12.22,0-.07,0-.11a1.3,1.3,0,0,0,.13.36c0,.13.08.27.11.4l.06.33c.06.26,0-.1,0-.12a.68.68,0,0,0,0,.19,6.42,6.42,0,0,1,0,.76,1,1,0,0,0,0,.18c0-.11,0-.31,0-.11s0,.24-.08.37-.06.24-.1.36l-.06.17c-.07.21,0-.06,0-.09s-.13.26-.17.33a3.37,3.37,0,0,1-.19.32l-.11.15s.25-.28.07-.08-.17.19-.26.27l-.28.26s.31-.21.07-.07l-.16.11-.29.16-.17.08c-.16.09.31-.11.06,0l-.41.13a1.66,1.66,0,0,0-.41.08h-.74c-.07,0-.32-.07-.09,0s-.19,0-.27-.06-.81-.26-.82-.25.34.16.09,0l-.17-.08-.42-.23-.31-.22s.25.21.08.06l-.18-.15-.3-.3-.12-.15s.21.31,0,0a4.64,4.64,0,0,1-.43-.79,1.51,1.51,0,0,0-2.05-.54,1.55,1.55,0,0,0-.54,2.06Z" style="fill: #e6e6e6"/>
      <path d="M160.69,763.65a5.89,5.89,0,0,0,2.46,4.11,5.72,5.72,0,0,0,4.49.91,1.52,1.52,0,0,0,1.05-1,12.64,12.64,0,0,0,.34-6.68,7.15,7.15,0,0,0-3.71-4.65,5.73,5.73,0,0,0-5.63.11,4.84,4.84,0,0,0-2,4.37c.15,1.86,1.28,3.81,3.27,4.11a1.55,1.55,0,0,0,1.85-1,1.51,1.51,0,0,0-1.05-1.84c-.13,0-.25-.06-.38-.09s.09.06.1.06-.16-.09-.17-.09l-.15-.09c-.22-.11.15,0,.09.07a1.07,1.07,0,0,1-.26-.26s.17.27.07.08l-.1-.15a1.19,1.19,0,0,1-.18-.33c0,.17.09.25.05.09l-.06-.18c0-.15-.06-.29-.09-.43s0,.3,0,.1a.33.33,0,0,0,0-.14v-.4l0-.2s-.07.34,0,.1.06-.28.1-.43a1.27,1.27,0,0,0,.06-.18c.05-.19-.14.25,0,.08s.13-.23.19-.34c.16-.28-.15.14,0,0s.47-.39.13-.17l.33-.21.22-.11c.18-.1-.22,0,0,0a2,2,0,0,0,.48-.12c.14-.06-.07,0-.1,0l.36,0a3.93,3.93,0,0,1,.49,0c.09,0,.25.07,0,0l.18,0,.49.13.24.08c.16,0-.2-.1.05,0a8.93,8.93,0,0,1,.88.53c-.23-.16.07.07.14.13a3.18,3.18,0,0,1,.41.41l.17.19c-.18-.21,0,0,0,0l.27.43a4,4,0,0,1,.41,1,9.13,9.13,0,0,1-.3,5.23l1.05-1c-.13,0-.37,0-.11,0a2.41,2.41,0,0,1-.38,0s-.47,0-.11,0a2.41,2.41,0,0,1-.37-.07l-.37-.11c-.27-.07.09.06-.06,0a6.38,6.38,0,0,1-.67-.38c-.1-.07-.21-.18-.05,0l-.29-.26-.26-.28c.21.21,0,0-.07-.11a2.59,2.59,0,0,1-.19-.33c0-.07-.17-.41-.06-.1,0-.1-.07-.2-.1-.3s-.11-.53-.06-.17a1.54,1.54,0,0,0-1.5-1.5c-.72,0-1.61.66-1.5,1.5Z" style="fill: #e6e6e6"/>
      <path d="M135.34,644.05l-5.28-3.55c-1.32-.88-2.71.81-2.05,2.06q18.7,35.41,40.53,69.07,6.15,9.48,12.53,18.79c1.08,1.58,3.68.09,2.59-1.51q-22.64-33.06-42.27-68Q135.87,651,130.6,641l-2.06,2.06,5.28,3.54c1.61,1.08,3.11-1.52,1.52-2.59Z" style="fill: #e6e6e6"/>
    </g>
    <path d="M98.73,522.74l19.36,62.37L146.65,576a98.17,98.17,0,0,0,35,28.89l-3.35,30.62,65.09,6.44,3.21-29.35a100,100,0,0,0,25.31-9.32l19.95,19.08,45.5-47.58-20.49-19.6a100.14,100.14,0,0,0,8.6-38.79l24.91-8L331,446l-25.94,8.31A98.1,98.1,0,0,0,265,423.63l2.71-24.7-65.09-6.45-3,27.56a99.29,99.29,0,0,0-19.18,7.75l-20-19.08L115,456.29l20.49,19.6a100,100,0,0,0-8.59,37.85ZM189,489.92c18.3-24.63,54.3-25.62,73.42-2,13,16.07,13.42,39.63,1,56.41-18.29,24.63-54.3,25.62-73.41,2C176.91,530.25,176.51,506.69,189,489.92Z" style="fill: #dbdbdb"/>
    <path d="M638.11,725.27l8.08,26,11.92-3.82a41,41,0,0,0,14.59,12.06l-1.4,12.77L698.46,775l1.34-12.25a41.91,41.91,0,0,0,10.57-3.88l8.32,8,19-19.86-8.55-8.18a41.77,41.77,0,0,0,3.58-16.19l10.4-3.32-8.08-26-10.82,3.47a40.73,40.73,0,0,0-16.73-12.81l1.13-10.31-27.16-2.68-1.26,11.5a41.11,41.11,0,0,0-8,3.23l-8.33-8-19,19.85,8.55,8.18a41.76,41.76,0,0,0-3.59,15.8Zm37.66-13.7a19.23,19.23,0,1,1,.4,23.55A19.34,19.34,0,0,1,675.77,711.57Z" style="fill: #dbdbdb"/>
  </g>
  <g id="a891809d-4da0-41c4-9557-992abfca1626" data-name="hand">
    <g>
      <path d="M227.5,451.5c64.16,7.3,139.31-1,203.74-5.29l264.2-17.71C702,434,710,441,710,441c-13.56,95.22-36.61,192.72-35.92,288.9-54.11-13.32-110.45-14-166.17-13.3q-138.46,1.81-276.49,14.75a2449.4,2449.4,0,0,1-4.27-280.14Z"/>
      <path d="M231.42,732.35a1,1,0,0,1-.65-.24,1,1,0,0,1-.35-.69,2460.51,2460.51,0,0,1-4.27-280.25,1,1,0,0,1,1.65-.73l.11.1c52.72,6,114.18,1.31,168.41-2.79,12.09-.91,23.52-1.78,34.85-2.54l264.2-17.71a1.08,1.08,0,0,1,.71.23c6.5,5.45,14.5,12.45,14.58,12.52a1,1,0,0,1,.33.89c-3.79,26.6-8.4,53.87-12.86,80.24-11.57,68.47-23.54,139.27-23,208.51a1,1,0,0,1-.38.79,1,1,0,0,1-.86.19c-54.92-13.52-112.08-14-165.92-13.27-91.9,1.2-184.9,6.16-276.41,14.74ZM228.1,452.57a2457,2457,0,0,0,4.24,277.68c91.23-8.52,183.94-13.45,275.56-14.65,53.55-.69,110.4-.26,165.17,13-.34-69,11.57-139.44,23.09-207.58,4.43-26.18,9-53.24,12.77-79.64-1.68-1.47-8.25-7.19-13.83-11.88L431.3,447.21c-11.32.76-22.74,1.62-34.83,2.54C342.29,453.84,280.91,458.48,228.1,452.57Z" style="fill: #1d1d1b"/>
    </g>
    <path d="M302.5,458.5a1,1,0,0,1-.49-.13,1,1,0,0,1-.38-1.36l147-262a1,1,0,0,1,.91-.51l99,4a1,1,0,0,1,.86.56l122,248a1,1,0,1,1-1.8.88L547.87,200.48l-97.8-4L303.37,458A1,1,0,0,1,302.5,458.5Z"/>
    <g>
      <circle cx="614.5" cy="473.5" r="7" style="fill: #fff"/>
      <path d="M614.5,468.5a5,5,0,1,1-5,5,5,5,0,0,1,5-5m0-2a7,7,0,1,0,7,7,7,7,0,0,0-7-7Z"/>
    </g>
    <g>
      <circle cx="633.5" cy="473.5" r="7" style="fill: #fff"/>
      <path d="M633.5,468.5a5,5,0,1,1-5,5,5,5,0,0,1,5-5m0-2a7,7,0,1,0,7,7,7,7,0,0,0-7-7Z"/>
    </g>
    <g>
      <circle cx="651.5" cy="473.5" r="7" style="fill: #fff"/>
      <path d="M651.5,468.5a5,5,0,1,1-5,5,5,5,0,0,1,5-5m0-2a7,7,0,1,0,7,7,7,7,0,0,0-7-7Z"/>
    </g>
    <g>
      <path d="M242.5,464.5c64.16,7.3,139.31-1,203.74-5.29l264.2-17.71a1942.65,1942.65,0,0,0-21.36,301.4c-54.11-13.32-110.45-14-166.17-13.3q-138.46,1.81-276.49,14.75a2449.4,2449.4,0,0,1-4.27-280.14Z" style="fill: #fff"/>
      <path d="M246.42,745.35a1,1,0,0,1-.65-.24,1,1,0,0,1-.35-.69,2460.51,2460.51,0,0,1-4.27-280.25,1,1,0,0,1,1.65-.73l.11.1c52.72,6,114.18,1.31,168.41-2.79,12.09-.91,23.52-1.78,34.85-2.54l264.2-17.71a1.06,1.06,0,0,1,.8.32,1,1,0,0,1,.25.83,1946.76,1946.76,0,0,0-21.34,301.24,1,1,0,0,1-.38.79,1,1,0,0,1-.86.19c-54.92-13.52-112.08-14-165.92-13.27-91.9,1.2-184.9,6.16-276.41,14.74ZM243.1,465.57a2457,2457,0,0,0,4.24,277.68c91.23-8.52,183.94-13.45,275.56-14.65,53.55-.69,110.4-.26,165.17,13a1949.73,1949.73,0,0,1,21.19-299l-263,17.63c-11.32.76-22.74,1.62-34.83,2.54C357.29,466.84,295.91,471.48,243.1,465.57Z"/>
    </g>
    <g>
      <path d="M202.15,718.27q67.74-45.13,139.21-84.34l75.35,110.84a1308.41,1308.41,0,0,0-137.86,89.09L200.54,719.4"/>
      <path d="M278.85,834.86h-.16a1,1,0,0,1-.66-.42L199.71,720a1,1,0,0,1,1.54-1.27,1,1,0,0,1,.34-1.27c45-30,91.87-58.37,139.29-84.38a1,1,0,0,1,1.3.32L417.54,744.2a1,1,0,0,1,.14.8,1,1,0,0,1-.48.64,1309.62,1309.62,0,0,0-137.75,89A1.07,1.07,0,0,1,278.85,834.86ZM201.48,719l77.61,113.43a1314.42,1314.42,0,0,1,136.18-88L341,635.25C294,661.11,247.41,689.32,202.7,719.1A1,1,0,0,1,201.48,719Z" style="fill: #1d1d1b"/>
    </g>
    <path d="M244,466l4,24s286.54,26.46,406.77,4.73c0,0-190.27,37.42-412,14.35Z" style="fill: #dbdbdb"/>
    <path d="M311.06,762a1,1,0,0,1-.56-1.83,768.16,768.16,0,0,1,73.24-43.93,1,1,0,0,1,1.35.42,1,1,0,0,1-.42,1.35,763.39,763.39,0,0,0-73.05,43.82A1,1,0,0,1,311.06,762Z" style="fill: #fff"/>
    <path d="M320.58,780.05a1,1,0,0,1-.74-.33,1,1,0,0,1,.07-1.42A403.92,403.92,0,0,1,376.05,736a1,1,0,0,1,1.06,1.7,401.29,401.29,0,0,0-55.86,42.1A1,1,0,0,1,320.58,780.05Z" style="fill: #fff"/>
    <path d="M213,737.09a1,1,0,0,1-.42-1.9,742,742,0,0,0,138.2-84.68,1,1,0,0,1,1.22,1.58A743.7,743.7,0,0,1,213.43,737,1.07,1.07,0,0,1,213,737.09Z" style="fill: #fff"/>
    <path d="M312,670.57a7,7,0,0,1-2.39-.42,6.26,6.26,0,0,1-4.21-4.49,1.4,1.4,0,0,0-.13-1,6.31,6.31,0,1,1,10.44,4.65A5.81,5.81,0,0,1,312,670.57Zm-4.79-5.66a1,1,0,0,1,.15.33,4,4,0,1,0-.1-.7A.92.92,0,0,1,307.25,664.91Z" style="fill: #fff"/>
    <path d="M331.34,658.3a5.36,5.36,0,0,1-3.85-1.75,5,5,0,0,1-1.45-3.81,5.39,5.39,0,0,0,.48,3.57,1,1,0,0,1-1.77.94,7.32,7.32,0,0,1,1.86-9.07,6.44,6.44,0,0,1,5-1.1,6,6,0,0,1,4,2.62,5.71,5.71,0,0,1,.34,5.17,5.29,5.29,0,0,1-3.57,3.29A4.46,4.46,0,0,1,331.34,658.3Zm-4.17-7.18a.92.92,0,0,1,.29,0,1,1,0,0,1,.66,1.25,2.88,2.88,0,0,0,.82,2.77,3.16,3.16,0,0,0,3,1,3.32,3.32,0,0,0,2.21-2.09,3.81,3.81,0,0,0-.18-3.36,4,4,0,0,0-2.69-1.72,4.53,4.53,0,0,0-3.48.73,4.39,4.39,0,0,0-1.3,1.59A1,1,0,0,1,327.17,651.12Z" style="fill: #fff"/>
    <path d="M297.56,682.28a7.69,7.69,0,0,1-3.93-1.1,6.93,6.93,0,0,1-3.28-4.27,1,1,0,1,1,1.95-.47,5,5,0,0,0,2.35,3,5.43,5.43,0,0,0,4.16.66,5.14,5.14,0,0,0,3.82-4.91,4.11,4.11,0,0,0-1.58-2.9,3.52,3.52,0,0,0-2.74-.81,3.23,3.23,0,0,0-2.33,2,2.82,2.82,0,0,0,.1,2.66,1,1,0,0,1-.28,1.39,1,1,0,0,1-1.38-.28,4.81,4.81,0,0,1-.27-4.57,5.25,5.25,0,0,1,3.83-3.15,5.5,5.5,0,0,1,4.32,1.22,6.11,6.11,0,0,1,2.32,4.35,7.12,7.12,0,0,1-5.3,7A6.9,6.9,0,0,1,297.56,682.28Z" style="fill: #fff"/>
    <path d="M267,782.32h0a1,1,0,0,1-.72-.34l-34.19-39a1,1,0,0,1,1.51-1.32l.92,1a337.3,337.3,0,0,0,52-33.82,1,1,0,0,1,.79-.2,1,1,0,0,1,.67.45A168,168,0,0,1,302,736.48c1.09,2.7,2.09,5.58,1.37,8.49-.69,2.74-2.79,4.8-4.47,6.45L267.71,782A1,1,0,0,1,267,782.32Zm-31.16-38,31.22,35.57L297.54,750c1.91-1.87,3.42-3.47,3.93-5.51.58-2.32-.32-4.86-1.29-7.25a167.08,167.08,0,0,0-13.29-26A338.79,338.79,0,0,1,235.84,744.3Z" style="fill: #fff"/>
    <path d="M378.28,514.4q-66.9,0-133.71-4.65a1,1,0,0,1-.93-1.07,1,1,0,0,1,1.07-.93A1926.07,1926.07,0,0,0,702,485a1,1,0,0,1,.34,2A1928.88,1928.88,0,0,1,378.28,514.4Z"/>
    <path d="M667.47,674.77h-.06a1610.85,1610.85,0,0,0-161.34-1.27h0a1,1,0,0,1,0-2,1611.88,1611.88,0,0,1,161.54,1.27,1,1,0,0,1-.06,2Z"/>
    <path d="M673,697.73h0l-167.84-1.58a1,1,0,0,1,0-2h0L673,695.73a1,1,0,0,1,1,1A1,1,0,0,1,673,697.73Z"/>
    <path d="M606,652.16h0L510.7,650.8a1,1,0,0,1-.08.45,1,1,0,0,1-1.32.51l-2.49-1.1a1,1,0,0,1-.58-1.13,1,1,0,0,1,1-.78l98.8,1.41a1,1,0,0,1,1,1A1,1,0,0,1,606,652.16Z"/>
    <path d="M280.15,561.4A387.22,387.22,0,0,0,295,621.33c1.32,3.95,2.86,8.09,6.15,10.64,5.34,4.13,13,2.48,19.48.65L371,618.38c3.45-1,7.26-2.23,9-5.39s.63-7-.45-10.34q-8.4-26.16-18-51.91c-2.6-7-6.11-14.76-13.21-17-5.89-1.88-12.18.78-17.79,3.39l-51,23.75" style="fill: #dbdbdb"/>
    <path d="M295.58,631.54a14.33,14.33,0,0,1-9.06-2.78c-3.46-2.67-5-6.78-6.49-11.11a389.56,389.56,0,0,1-14.83-59.84,1,1,0,0,1-.59-.53,1,1,0,0,1,.49-1.33l51-23.74c6-2.81,12.43-5.39,18.52-3.45,7.24,2.31,10.93,9.84,13.84,17.63,6.37,17.1,12.43,34.58,18,52,1.15,3.57,2.22,7.67.38,11.11s-5.74,4.8-9.56,5.88l-50.41,14.24A42.88,42.88,0,0,1,295.58,631.54Zm-28.45-74.33v0A386.41,386.41,0,0,0,281.93,617c1.35,4,2.8,7.83,5.81,10.15,4.77,3.69,11.76,2.41,18.6.49l50.42-14.24c3.41-1,6.86-2.14,8.33-4.9s.55-6.23-.52-9.56c-5.57-17.35-11.62-34.8-18-51.87-2.73-7.32-6.14-14.37-12.57-16.42-5.4-1.73-11.16.6-17.06,3.35Z"/>
    <path d="M402.45,557.21,392.4,638A128,128,0,0,1,450,646.93c5.69,2.3,13.41,4.5,17-.5a13,13,0,0,0,1.81-5l15.48-72c.5-2.3,1-4.88-.32-6.86-1.52-2.37-4.76-2.79-7.58-3L404.12,555" style="fill: #dbdbdb"/>
    <path d="M452.19,639.44c-4.2,0-8.62-1.78-10.61-2.58a127.21,127.21,0,0,0-57.1-8.83,1,1,0,0,1-1.07-1.12l10-80.83a1,1,0,0,1,2,.25L385.54,626a129.17,129.17,0,0,1,56.78,9c8.19,3.31,13.36,3.26,15.79-.15a12.39,12.39,0,0,0,1.65-4.62l15.47-72c.48-2.2.85-4.49-.18-6.11-1.22-1.91-4-2.34-6.8-2.52L396.05,545a1,1,0,0,1-.93-1.06,1,1,0,0,1,1.06-.94l72.2,4.68c3.33.21,6.65.78,8.35,3.44,1.45,2.26,1,5,.46,7.6l-15.48,71.95a14,14,0,0,1-2,5.36C457.89,638.6,455.09,639.44,452.19,639.44Z"/>
    <g>
      <g>
        <path d="M477.84,422.67l7.07,12.61,2.72,12.16-9.46,2.12-3.6,9.31,7.52,8.26-18.9,17-7.22-6.9-6.16,4.22-.59,10.06-22.53.78-3.16-7.81,2.45-4.33s-9.67-2.57-12.53-9S438.08,467,438.08,467l30.34-3.94.88-21.49Z"/>
        <path d="M426.69,493.28a1,1,0,0,1-.93-.63l-3.16-7.81a1,1,0,0,1,.06-.86l1.83-3.25c-2.79-1-9.54-3.75-12-9.22a2.72,2.72,0,0,1,.22-2.85c3.05-4.28,21.36-3,25.31-2.64l29.4-3.82.84-20.64a.84.84,0,0,1,.09-.37l8.54-18.94a1,1,0,0,1,.86-.58,1,1,0,0,1,.92.51l7.08,12.61a1.08,1.08,0,0,1,.1.27l2.72,12.16a1,1,0,0,1-.76,1.2l-8.94,2-3.18,8.24,7.1,7.79a1,1,0,0,1-.07,1.42l-18.91,17a1,1,0,0,1-1.36,0l-6.63-6.35L450.78,482l-.56,9.58a1,1,0,0,1-1,.94l-22.54.78Zm-2.06-8.74,2.72,6.71,20.93-.72.53-9.15a1,1,0,0,1,.44-.77l6.15-4.21a1,1,0,0,1,1.26.1l6.55,6.26,17.47-15.7-6.85-7.51a1,1,0,0,1-.19-1l3.6-9.31a1,1,0,0,1,.71-.62l8.49-1.9-2.47-11-6-10.76-7.65,17-.87,21.29a1,1,0,0,1-.87.95L438.21,468H438c-8.13-.7-21.74-.83-23.62,1.8-.13.18-.22.41,0,.88,2.64,5.95,11.78,8.45,11.87,8.48a1,1,0,0,1,.62,1.45Zm43.79-21.45h0Z" style="fill: #1d1d1b"/>
      </g>
      <g>
        <path d="M404.6,452.68l4,18.2,8.77-3.55A22.23,22.23,0,0,0,427,475l-1.86,9.29,19.22.11,1.78-8.91A36.13,36.13,0,0,0,454,472l5.4,5.17,14.9-15.58-5.56-5.31a34.61,34.61,0,0,0,3.66-11.9l7.65-3.1-4-18.2-8,3.22a22.36,22.36,0,0,0-11.09-8.09l1.5-7.5-19.22-.11L437.54,419a35.86,35.86,0,0,0-5.93,2.86l-5.41-5.17-14.9,15.58,5.56,5.31a34.66,34.66,0,0,0-3.63,11.62Zm27.82-12.4c6.14-7.92,16.9-9.23,21.94-2.67,3.43,4.46,2.88,11.53-1.3,16.92-6.15,7.92-16.91,9.23-21.94,2.67C427.69,452.74,428.23,445.67,432.42,440.28Z" style="fill: #fff"/>
        <path d="M439.21,410.61l19.22.11-1.5,7.5A22.36,22.36,0,0,1,468,426.31l8-3.22,4,18.2-7.65,3.1a34.61,34.61,0,0,1-3.66,11.9l5.56,5.31-14.9,15.58L454,472a36.13,36.13,0,0,1-7.81,3.51l-1.78,8.91-19.22-.11L427,475a22.23,22.23,0,0,1-9.61-7.7l-8.77,3.55-4-18.2,8.63-3.5a34.66,34.66,0,0,1,3.63-11.62l-5.56-5.31,14.9-15.58,5.4,5.17a36.34,36.34,0,0,1,5.94-2.86l1.67-8.37m.8,50.79a17,17,0,0,0,13.05-6.87c4.18-5.39,4.73-12.46,1.3-16.92a10.94,10.94,0,0,0-8.89-4.2,16.94,16.94,0,0,0-13.05,6.87c-4.19,5.39-4.73,12.46-1.3,16.92a10.92,10.92,0,0,0,8.89,4.2m-.8-52.79a2,2,0,0,0-2,1.61l-1.46,7.29a38.23,38.23,0,0,0-3.88,1.86l-4.33-4.15a2,2,0,0,0-1.38-.55h-.05a2,2,0,0,0-1.4.62l-14.9,15.58a2,2,0,0,0,.07,2.82l4.5,4.31a36.45,36.45,0,0,0-3,9.76l-7.56,3.06a2,2,0,0,0-1.2,2.29l4,18.2a2,2,0,0,0,2,1.57,2,2,0,0,0,.75-.15l7.35-3a23.4,23.4,0,0,0,2.07,2.26,24.19,24.19,0,0,0,5.94,4.17l-1.55,7.75a2,2,0,0,0,1.95,2.39l19.22.11h0a2,2,0,0,0,2-1.61l1.55-7.77a38.76,38.76,0,0,0,5.77-2.56l4.33,4.14a2,2,0,0,0,1.38.55h0a2,2,0,0,0,1.4-.62L475.7,463a2,2,0,0,0-.06-2.83l-4.51-4.31a36.15,36.15,0,0,0,3.05-10.05l6.57-2.66a2,2,0,0,0,1.2-2.28l-4-18.2a2,2,0,0,0-1-1.34,2,2,0,0,0-.93-.23,1.93,1.93,0,0,0-.75.15l-6.56,2.65a24.63,24.63,0,0,0-1.91-2,24.19,24.19,0,0,0-7.54-4.91l1.17-5.83a2,2,0,0,0-1.95-2.39l-19.22-.11Zm.8,50.79a8.94,8.94,0,0,1-7.3-3.41c-2.87-3.74-2.33-9.83,1.29-14.49a14.93,14.93,0,0,1,11.47-6.09,8.94,8.94,0,0,1,7.3,3.41c2.87,3.74,2.33,9.83-1.29,14.49A14.93,14.93,0,0,1,440,459.4Z" style="fill: #1d1d1b"/>
      </g>
    </g>
    <g>
      <g>
        <path d="M460.58,683.42l-2.28,7-3.63,5.23-4.07-2.82-4.74,1.87-.5,5.68-12.92-1.22.09-5.1-3.71-.85-4,3.26-8.09-8.19,1.84-3.89,2.47-.58s-2.38-4.52-.94-7.83,10.06,7.84,10.06,7.84l12,10,8.37-7.11Z"/>
        <path d="M445.36,701.4h-.09l-12.93-1.22a1,1,0,0,1-.9-1l.07-4.28-2.44-.57-3.6,3a1,1,0,0,1-1.35-.07L416,689a1,1,0,0,1-.19-1.13l1.84-3.89a1,1,0,0,1,.67-.54l1.3-.31c-.67-1.68-1.61-4.88-.46-7.53a1.93,1.93,0,0,1,1.54-1.2c2.75-.38,8,5.93,10.16,8.74l11.25,9.42,7.73-6.56a1.09,1.09,0,0,1,.33-.19l10.07-3.34a1,1,0,0,1,1,.24,1,1,0,0,1,.25,1l-2.29,7a1.26,1.26,0,0,1-.13.26l-3.63,5.23a1,1,0,0,1-.64.41,1,1,0,0,1-.75-.16L450.47,694l-3.67,1.45-.44,5.07a1,1,0,0,1-.36.68A1,1,0,0,1,445.36,701.4Zm-11.91-3.13,11,1,.41-4.68a1,1,0,0,1,.63-.84l4.74-1.87a1,1,0,0,1,.94.1l3.25,2.26,3-4.29,1.63-5-8,2.66-8.23,7a1,1,0,0,1-1.29,0l-12-10a.54.54,0,0,1-.15-.15c-3.38-4.36-7.22-8.07-8.34-8.07H421c-1.18,2.83.94,6.94,1,7a1,1,0,0,1,0,.88,1,1,0,0,1-.68.55l-2,.47L418,688.09l6.95,7,3.28-2.68a1,1,0,0,1,.86-.21l3.71.86a1,1,0,0,1,.78,1Z" style="fill: #1d1d1b"/>
      </g>
      <g>
        <path d="M424,666.3l-5.45,7.81,4.37,2.06a11.92,11.92,0,0,0-.25,2.17,11.55,11.55,0,0,0,.69,4.1L419.19,685l6.61,7.26,4-2.42a18.31,18.31,0,0,0,4,1.72l-.07,3.82,11,.2.07-3.92a17.76,17.76,0,0,0,5.74-2.75l3.81,1.8,5.44-7.81-4-1.87a10.53,10.53,0,0,0,.23-2,11.65,11.65,0,0,0-1-4.93l3.33-2-6.61-7.25L448,667a17.9,17.9,0,0,0-3.13-1.24L445,662l-11-.21-.07,3.93a17.68,17.68,0,0,0-5.62,2.66Zm14.28,6.15c5.1-.43,9.32,3.16,8.6,7.32-.49,2.83-3.33,5.07-6.81,5.37-5.1.43-9.31-3.16-8.59-7.32C431.94,675,434.78,672.75,438.25,672.45Z" style="fill: #fff"/>
        <path d="M434,661.74l11,.21-.07,3.82A17.9,17.9,0,0,1,448,667l3.72-2.27,6.61,7.25L455,674a11.65,11.65,0,0,1,1,4.93,10.53,10.53,0,0,1-.23,2l4,1.87-5.44,7.81-3.81-1.8a17.76,17.76,0,0,1-5.74,2.75l-.07,3.92-11-.2.07-3.82a18.31,18.31,0,0,1-4-1.72l-4,2.42L419.19,685l4.14-2.52a11.55,11.55,0,0,1-.69-4.1,11.92,11.92,0,0,1,.25-2.17l-4.37-2.06L424,666.3l4.3,2a17.68,17.68,0,0,1,5.62-2.66l.07-3.93m5.25,23.43.83,0c3.48-.3,6.32-2.54,6.81-5.37.68-3.93-3.05-7.35-7.76-7.35q-.42,0-.84,0c-3.47.3-6.31,2.54-6.8,5.37-.68,3.93,3,7.35,7.76,7.35M434,659.74a2,2,0,0,0-1.39.56,2,2,0,0,0-.61,1.41l0,2.49A19.43,19.43,0,0,0,428.1,666l-3.28-1.55a2,2,0,0,0-2.49.67l-5.45,7.8a2,2,0,0,0-.29,1.66,2,2,0,0,0,1.08,1.29l3,1.43q0,.48-.06,1a13.48,13.48,0,0,0,.34,3.23l-2.83,1.73a2,2,0,0,0-.43,3l6.61,7.26a2,2,0,0,0,1.47.65,2,2,0,0,0,1-.29l3-1.82a20.82,20.82,0,0,0,1.93.84l0,2.35a2,2,0,0,0,2,2l11,.2h0a2,2,0,0,0,2-2l0-2.49a19.43,19.43,0,0,0,3.94-1.92l2.77,1.31a2,2,0,0,0,2.5-.66l5.44-7.81a2,2,0,0,0-.78-3L458,679.81c0-.27,0-.55,0-.82a13.72,13.72,0,0,0-.57-4.12l1.92-1.17a2,2,0,0,0,.44-3.05l-6.61-7.26a2,2,0,0,0-2.52-.36l-2.8,1.71-1-.4,0-2.36a2,2,0,0,0-2-2l-11-.21Zm5.25,23.43a6.44,6.44,0,0,1-4.93-2.07,3.53,3.53,0,0,1-.86-2.93c.33-1.94,2.44-3.51,5-3.72.22,0,.45,0,.67,0a6.42,6.42,0,0,1,4.92,2.07,3.59,3.59,0,0,1,.87,2.94c-.34,1.93-2.44,3.5-5,3.72l-.66,0Z" style="fill: #1d1d1b"/>
      </g>
    </g>
    <g>
      <g>
        <path d="M556.9,557.45l6.51-8.11,7.37-5.08,4,5.74,7.17-.11,3.48-7.23,16.41,8-2.66,6.66,4.46,3,6.87-2.31L617,572.83,612.69,577l-3.54-.47s.88,7.13-2.66,10.78S597.15,572,597.15,572l-10.78-19.17-14.55,5.19Z"/>
        <path d="M605.52,588.81a2.48,2.48,0,0,1-.54-.06c-3.72-.9-7.6-12.59-8.75-16.33l-10.31-18.33L572.16,559a.86.86,0,0,1-.38.06l-14.92-.6a1,1,0,0,1-.87-.59,1,1,0,0,1,.13-1l6.51-8.1a.8.8,0,0,1,.21-.2l7.38-5.08a1,1,0,0,1,1.39.25l3.64,5.3,6-.09,3.21-6.67a1,1,0,0,1,.57-.51,1,1,0,0,1,.77,0l16.41,8a1,1,0,0,1,.49,1.27L600.37,557l3.38,2.25,6.4-2.16a1,1,0,0,1,1.23.55l6.58,14.8a1,1,0,0,1-.22,1.13l-4.36,4.21a1,1,0,0,1-.82.27l-2.33-.31c.09,2.34-.1,7.32-3,10.32A2.33,2.33,0,0,1,605.52,588.81Zm-19.15-36.95a1,1,0,0,1,.88.51L598,571.54a1.08,1.08,0,0,1,.08.19c2.12,6.91,5.52,14.63,7.34,15.07.07,0,.15,0,.33-.15,3.16-3.26,2.38-9.89,2.38-10a1,1,0,0,1,.28-.83,1,1,0,0,1,.84-.28l3.06.4,3.51-3.38-5.92-13.34-6,2a1,1,0,0,1-.87-.11l-4.46-3a1,1,0,0,1-.38-1.21l2.32-5.8L585.86,544l-3.05,6.33a1,1,0,0,1-.88.56l-7.18.11a1,1,0,0,1-.84-.43l-3.38-4.92-6.44,4.43-5.17,6.45,12.75.51L586,551.92A1,1,0,0,1,586.37,551.86Z" style="fill: #1d1d1b"/>
      </g>
      <g>
        <path d="M596.59,598.2l11-7.57-4.73-4.89a15.65,15.65,0,0,0,1.41-2.73,16,16,0,0,0,1.14-5.75l6.7-1.26-5.09-12.84-6.42,1.21a26.07,26.07,0,0,0-4.44-4.26l2-5-14.38-5.75-2.05,5.14a24.74,24.74,0,0,0-8.91.76L568.74,551l-11.06,7.57L562,563a16.73,16.73,0,0,0-1.3,2.57,16.08,16.08,0,0,0-1.11,7l-5.4,1,5.09,12.84,6-1.13a26.09,26.09,0,0,0,3.51,3.18l-2,5,14.39,5.74,2.05-5.13a24.89,24.89,0,0,0,8.72-.71ZM580.85,583c-6.93-2-10.7-8.79-7.68-13.91,2.05-3.48,6.91-5,11.63-3.68,6.93,2,10.69,8.79,7.68,13.9C590.42,582.79,585.56,584.33,580.85,583Z" style="fill: #fff"/>
        <path d="M583.82,549.37l14.38,5.75-2,5a25.71,25.71,0,0,1,4.44,4.26l6.42-1.21L612.16,576l-6.7,1.26a16,16,0,0,1-1.14,5.75,15.65,15.65,0,0,1-1.41,2.73l4.73,4.89-11,7.57-4.65-4.82a24.28,24.28,0,0,1-6.32.82c-.79,0-1.59,0-2.4-.11l-2.05,5.13-14.39-5.74,2-5a26.09,26.09,0,0,1-3.51-3.18l-6,1.13-5.09-12.84,5.4-1a16.08,16.08,0,0,1,1.11-7A16.73,16.73,0,0,1,562,563l-4.29-4.44L568.74,551l4.12,4.27a24.38,24.38,0,0,1,6.52-.87c.79,0,1.59,0,2.39.11l2.05-5.14m.44,34.1a9.35,9.35,0,0,0,8.22-4.17c3-5.11-.75-11.93-7.68-13.9a12.26,12.26,0,0,0-3.41-.48,9.35,9.35,0,0,0-8.22,4.16c-3,5.12.75,11.94,7.68,13.91a12.64,12.64,0,0,0,3.41.48m-.44-36.1a2.14,2.14,0,0,0-.79.16,2,2,0,0,0-1.07,1.1l-1.51,3.79c-.36,0-.72,0-1.07,0a26.06,26.06,0,0,0-5.89.65l-3.32-3.44a2,2,0,0,0-1.44-.61,2.06,2.06,0,0,0-1.13.35l-11.05,7.57a2,2,0,0,0-.86,1.45,2,2,0,0,0,.56,1.59l3.25,3.37a14.62,14.62,0,0,0-.69,1.51,18,18,0,0,0-1.27,6.08l-3.75.71a2,2,0,0,0-1.49,2.7l5.09,12.84a2,2,0,0,0,1.86,1.26l.37,0,5-.94c.57.58,1.17,1.13,1.79,1.66l-1.44,3.62a2,2,0,0,0,0,1.53,2,2,0,0,0,1.09,1.07l14.39,5.74a2.11,2.11,0,0,0,.74.14,2,2,0,0,0,.79-.16A2,2,0,0,0,583,600l1.51-3.78,1.08,0a26.71,26.71,0,0,0,5.68-.6l3.85,4a2,2,0,0,0,1.44.61,2.06,2.06,0,0,0,1.13-.35l11-7.57a2,2,0,0,0,.86-1.45,2,2,0,0,0-.55-1.59l-3.68-3.81a17.76,17.76,0,0,0,2-6.49l5.16-1a2,2,0,0,0,1.49-2.71l-5.09-12.83a2,2,0,0,0-1.86-1.27,1.55,1.55,0,0,0-.37,0l-5.28,1a28.72,28.72,0,0,0-2.8-2.71l1.44-3.62a2,2,0,0,0-1.11-2.6l-14.39-5.74a1.92,1.92,0,0,0-.74-.15Zm.44,34.1a10.48,10.48,0,0,1-2.87-.41,10.15,10.15,0,0,1-6.78-5.69,5.92,5.92,0,0,1,.28-5.27,7.41,7.41,0,0,1,6.5-3.18,10.39,10.39,0,0,1,2.86.4A10.2,10.2,0,0,1,591,573a5.89,5.89,0,0,1-.29,5.27,7.38,7.38,0,0,1-6.49,3.18Z" style="fill: #1d1d1b"/>
      </g>
    </g>
    <g>
      <path d="M673.33,545.29s-5.11,49.15,52.55,36.57l-.84-7.68Z" style="fill: #1d1d1b"/>
      <g>
        <path d="M700,536.61l-1.26,1.46a86.37,86.37,0,0,0,24.56-.39c6.38,7,15.12,13.58,23.1,18.6,2.49-3.16,4.87-7.5,3.42-11.25s-7.93-7.61-10.8-10.44a102.09,102.09,0,0,0-15.5-12.54c-4-2.63-8.42-5-13.21-5.08a14.2,14.2,0,0,0-11.69,22.4" style="fill: #1d1d1b"/>
        <g>
          <g>
            <path d="M551.37,382.38s-29.07,72.79,48.89,61.07l80.28,93.69,8.37-22.68L610.16,420.6l-48.95-7Z"/>
            <path d="M680.54,538.14a1,1,0,0,1-.76-.35l-79.92-93.27c-23.16,3.39-39.23-.37-47.79-11.18-14.55-18.35-2.16-50-1.63-51.33a1,1,0,0,1,1-.63,1,1,0,0,1,.92.7l9.65,30.6,48.32,6.93a1,1,0,0,1,.63.35l78.75,93.86a1,1,0,0,1,.17,1l-8.37,22.68a1,1,0,0,1-.76.63Zm-80.28-95.69a1,1,0,0,1,.76.35l79.17,92.4,7.58-20.54-78.13-93.13-48.57-7a1,1,0,0,1-.81-.69l-8.94-28.34c-2.66,8.13-9.09,32.17,2.32,46.57,8.15,10.28,23.78,13.76,46.47,10.35Z" style="fill: #1d1d1b"/>
          </g>
          <g>
            <path d="M601.63,434.75s-67.9,18.38-49.61-55.12l16.2,20L595,402.85l7.18-19.44-23-25.43s64.14-10.19,44.82,54.1L700.52,500s63.63-14.8,49.09,50.51l-25.74-22-20.13.67-1,18.76,23,25.43s-67.56,21.45-49.27-52.06C625.49,460.86,601.63,434.75,601.63,434.75Z" style="fill: #fff"/>
            <path d="M588.25,359.39c8.5,0,23.94,1.61,31.94,12.36,6.53,8.78,7.16,22.16,1.88,39.75a2,2,0,0,0,.41,1.89L699,501.28a2,2,0,0,0,1.51.69,2.3,2.3,0,0,0,.45-.05,68,68,0,0,1,13.81-1.39c9.07,0,21.4,1.9,28.66,11,6.22,7.76,7.87,19.62,4.9,35.28L725.17,527a2,2,0,0,0-1.3-.48h-.07l-20.13.67a2,2,0,0,0-1.93,1.89l-1,18.76a2,2,0,0,0,.51,1.45l20.82,23a72.26,72.26,0,0,1-16.17,2c-11.32,0-19.62-3.28-24.68-9.75-6.76-8.65-7.7-23-2.79-42.73A2,2,0,0,0,678,520c-50.4-59.75-74.64-86.32-74.88-86.58a2,2,0,0,0-1.47-.65,1.93,1.93,0,0,0-.53.07,70.75,70.75,0,0,1-16.4,2c-8.7,0-20.54-1.87-27.53-10.82-6.63-8.48-8-21.89-4.13-39.91l13.62,16.79a2,2,0,0,0,1.31.73l26.78,3.26H595a2,2,0,0,0,1.88-1.31L604,384.1a2,2,0,0,0-.39-2l-20.36-22.51c1.37-.09,3.06-.17,5-.17m0-2a64.14,64.14,0,0,0-9.09.59l23,25.43L595,402.85l-26.77-3.26-16.2-20c-12.19,49,13.91,57.16,32.68,57.16a72.18,72.18,0,0,0,16.93-2s23.86,26.11,74.82,86.52c-11.55,46.42,11.13,55,29.42,55a73.58,73.58,0,0,0,19.85-2.91l-23-25.43,1-18.76,20.13-.67,25.74,22c10-45-17-52-34.83-52A69.76,69.76,0,0,0,700.52,500L624,412.08c14.67-48.81-18.77-54.69-35.73-54.69Z"/>
          </g>
        </g>
      </g>
      <path d="M603,414.35c.41,0,0,0-.13-.05a1.72,1.72,0,0,1-.4-.14c.26.18.15.07.07,0l-.24-.13-.18-.11c-.22-.15,0-.09,0,0,0-.08-.26-.22-.32-.28s-.2-.21-.29-.32,0,0,0,.06-.11-.16-.12-.18a4.39,4.39,0,0,1-.27-.47.85.85,0,0,1-.1-.19c0,.26.07.18,0,.06s-.09-.27-.12-.41,0-.14-.05-.21c-.07-.29,0,.08,0,.09s0-.42,0-.54,0-.14,0-.21c0-.29,0,.06,0,.08s.07-.34.1-.41a.76.76,0,0,1,.06-.2s-.12.25,0,.07.16-.31.25-.46.09-.16.12-.17-.23.26,0,.05l.29-.31a1.64,1.64,0,0,1,.32-.27c-.35.19.13-.07.22-.13l.37-.2c.17-.08,0-.07-.06,0a.53.53,0,0,1,.2-.07c.13-.05.27-.08.4-.12l.21,0c.34-.07-.33,0,0,0H604s-.39-.08-.09,0l.41.1a.93.93,0,0,1,.2.07c0-.05-.3-.16,0,0l.39.22a1.56,1.56,0,0,1,.17.12s-.28-.24-.06,0a3.83,3.83,0,0,1,.29.28s.09.1.14.15-.11-.18,0,0l.25.39a1.35,1.35,0,0,1,.24.46c0-.15-.09-.25,0-.08s.07.2.1.3.06.3.1.44,0-.3,0-.09a2.11,2.11,0,0,1,0,.25,4.34,4.34,0,0,1,0,.51c0,.3,0-.1,0-.09s-.06.28-.06.29a4,4,0,0,1-.16.49,1.51,1.51,0,0,0,1.05,1.85,1.55,1.55,0,0,0,1.84-1,5.69,5.69,0,0,0-5.07-7.53,5.89,5.89,0,0,0-4.53,2.15,5.26,5.26,0,0,0-.89,5.18A6,6,0,0,0,599.9,416a5.84,5.84,0,0,0,3.08,1.34,1.51,1.51,0,0,0,1.5-1.5,1.54,1.54,0,0,0-1.5-1.5Z"/>
      <path d="M692.83,516.21c-.14.21.07-.09.09-.09s-.09.09-.12.12-.23.22,0,0,.05,0,0,0l-.15.08c-.15.1.32-.1.14-.06s-.52.11-.24.08-.12,0-.17,0h-.17c-.19,0-.15-.1.1,0a3.2,3.2,0,0,0-.33-.07l-.16-.06c-.24-.07.22.14.08,0a3.37,3.37,0,0,0-.32-.19c-.21-.13.25.23,0,0l-.11-.13c-.13-.13.07,0,.08.11,0,0-.07-.11-.09-.14-.16-.28.05,0,0,.05s-.12-.39-.1-.39,0,.34,0,.1v-.2s0-.19,0-.2-.07.33,0,.11c0-.06,0-.13,0-.19a1.07,1.07,0,0,1,.07-.19l-.08.17s.17-.32.19-.36.1-.17.12-.17-.2.22,0,.06l.33-.33s.22-.13,0,0,0,0,.1-.06a1.55,1.55,0,0,0,.22-.12c.14-.13-.26.08-.08,0l.39-.12c.09,0,.25,0,.06,0s.09,0,.13,0h.22c.29,0-.2-.06,0,0l.43.1a1.84,1.84,0,0,1,.25.09s-.29-.15-.05,0,.26.14.38.22a.7.7,0,0,1,.18.12l-.12-.09.17.14c.11.1.21.21.31.32a1.07,1.07,0,0,1,.15.17s-.21-.3,0,0c.08.12.17.25.24.38a1.24,1.24,0,0,1,.1.2c-.07-.17-.09-.2,0-.1l.06.16a5.25,5.25,0,0,1,.16.6c0,.08.09.25,0,0a1.1,1.1,0,0,1,0,.31,4.28,4.28,0,0,1,0,.62s0,.31,0,.11,0,.13,0,.17a5.84,5.84,0,0,1-.15.6c0,.08,0,.16-.08.24s-.18.42,0,.11a6.88,6.88,0,0,1-.61,1.09,1.51,1.51,0,0,0,.54,2.05,1.53,1.53,0,0,0,2-.53,7.19,7.19,0,0,0,1.09-6,5.59,5.59,0,0,0-4.2-3.89,4.6,4.6,0,0,0-5,2.5,3.91,3.91,0,0,0,6.64,4.08,1.51,1.51,0,0,0-.54-2.05,1.53,1.53,0,0,0-2,.53Z"/>
    </g>
    <g>
      <g>
        <path d="M692.16,652.76c5.13,8.7,20.71,25.87,30.8,25.9,6.72,0,13.94-2.17,19.85,1,6.42,3.47,8.29,11.65,9.49,18.84a17.93,17.93,0,0,0-9.9,10.54c-4-4-1.26-11.64-5-15.87-3.51-3.94-9.82-2.22-15.1-2.18-6.29,0-12.32-2.85-17.19-6.85s-8.72-9-12.54-14" style="fill: #fff"/>
        <path d="M742.4,710.07a1,1,0,0,1-.7-.28c-2.33-2.28-2.64-5.52-2.94-8.65-.26-2.8-.51-5.45-2.14-7.27-2.38-2.68-6.35-2.37-10.55-2-1.25.09-2.55.19-3.79.2-7.59,0-13.86-3.82-17.83-7.08-5-4.09-8.91-9.24-12.71-14.22a1,1,0,0,1,.19-1.4,1,1,0,0,1,1.4.19c3.73,4.89,7.59,9.94,12.39,13.89,5.2,4.27,11,6.62,16.42,6.62h.12c1.17,0,2.38-.1,3.66-.2,4.5-.34,9.16-.7,12.2,2.72,2.06,2.31,2.35,5.41,2.64,8.41.21,2.27.42,4.44,1.37,6.13a19.06,19.06,0,0,1,9-9.15c-1.18-6.85-3-14.21-8.85-17.36-3.92-2.12-8.49-1.71-13.33-1.27-2,.18-4,.36-5.94.36H723c-10.58,0-26.23-17.2-31.66-26.39a1,1,0,0,1,.36-1.37,1,1,0,0,1,1.36.36c5.28,8.94,20.65,25.37,29.94,25.4,1.9,0,3.92-.18,5.86-.35,4.92-.45,10-.91,14.46,1.5,6.83,3.69,8.75,12,10,19.56a1,1,0,0,1-.61,1.09,16.85,16.85,0,0,0-9.33,9.94,1,1,0,0,1-.72.64A.85.85,0,0,1,742.4,710.07Z" style="fill: #1d1d1b"/>
      </g>
      <path d="M735.7,687.1a1,1,0,0,1-.9-1.44,7.62,7.62,0,0,1,9.08-3.76,1,1,0,0,1-.65,1.89,5.64,5.64,0,0,0-6.63,2.75A1,1,0,0,1,735.7,687.1Z" style="fill: #1d1d1b"/>
      <path d="M728.42,684.67h-.16a1,1,0,0,1-.83-1.15,7.62,7.62,0,0,1,8-6.2,1,1,0,1,1-.18,2,5.64,5.64,0,0,0-5.85,4.53A1,1,0,0,1,728.42,684.67Z" style="fill: #1d1d1b"/>
      <path d="M709.35,686a1,1,0,0,1-1-.71,8.39,8.39,0,0,1,.7-6.52,1,1,0,1,1,1.74,1,6.49,6.49,0,0,0-.53,5,1,1,0,0,1-.66,1.24A1,1,0,0,1,709.35,686Z" style="fill: #1d1d1b"/>
      <path d="M779.16,714.42a15.5,15.5,0,0,1-10-3.61,1,1,0,0,1,1.3-1.52,13.46,13.46,0,0,0,12.6,2.53,1,1,0,1,1,.61,1.9A14.76,14.76,0,0,1,779.16,714.42Z" style="fill: #1d1d1b"/>
      <path d="M777.22,723.86l-.22,0a34,34,0,0,1-11.12-4.71,1,1,0,1,1,1.1-1.67,32.24,32.24,0,0,0,10.46,4.43,1,1,0,0,1-.22,2Z" style="fill: #1d1d1b"/>
      <path d="M757.47,728a1,1,0,0,1-1-.82A38.61,38.61,0,0,0,752,714.8a1,1,0,0,1,.36-1.36,1,1,0,0,1,1.37.36,40.76,40.76,0,0,1,4.78,13,1,1,0,0,1-.81,1.16A.55.55,0,0,1,757.47,728Z" style="fill: #1d1d1b"/>
      <g>
        <path d="M750.52,699.48a1.84,1.84,0,0,1,2.91-.26,3,3,0,0,1,.27,3.24,8.85,8.85,0,0,1-2.23,2.61l-5.83,5.24c-.82.73-2,1.5-2.91.84s-.4-2.21.22-3.21" style="fill: #fff"/>
        <path d="M743.5,712.4a2.27,2.27,0,0,1-1.37-.45c-1.22-.91-1.23-2.6,0-4.54a1,1,0,0,1,1.37-.33,1,1,0,0,1,.33,1.38c-.52.85-.74,1.69-.47,1.89s.84-.07,1.64-.79l5.83-5.23a7.92,7.92,0,0,0,2-2.29,2,2,0,0,0-.1-2.15,1,1,0,0,0-.85-.24.53.53,0,0,0-.41.24,1,1,0,1,1-1.82-.81,2.47,2.47,0,0,1,1.91-1.41,3,3,0,0,1,2.65.87,4,4,0,0,1,.43,4.35,9.65,9.65,0,0,1-2.47,2.93l-5.83,5.23A4.3,4.3,0,0,1,743.5,712.4Z" style="fill: #1d1d1b"/>
      </g>
      <g>
        <path d="M691.7,642.49c21.57,8.24,47.11,3.74,65.89-9.7a7,7,0,0,1-10.5-6.1c-15,9.48-37.89,10.55-54.49,4.37" style="fill: #fff"/>
        <path d="M714.59,647.57a65.3,65.3,0,0,1-23.25-4.14,1,1,0,0,1,.71-1.87c19,7.26,42.45,4.5,61-6.92a7.85,7.85,0,0,1-2.93-1,8.1,8.1,0,0,1-3.81-5.28c-14.52,8.44-36.92,10-54,3.63a1,1,0,0,1,.7-1.87c17.1,6.37,39.65,4.57,53.61-4.27a1,1,0,0,1,1,0,1,1,0,0,1,.51.88,6,6,0,0,0,9,5.23,1,1,0,0,1,1.09,1.68A75.84,75.84,0,0,1,714.59,647.57Z" style="fill: #1d1d1b"/>
      </g>
      <g>
        <path d="M758.08,633a8.2,8.2,0,0,1-9.39-2.61c-1.47-2-1.81-5.06,0-6.72s4.47-1.17,6.56-.14a8.55,8.55,0,0,1,3.43,2.81,4.82,4.82,0,0,1,.62,4.27,3.37,3.37,0,0,1-3.53,2.16" style="fill: #fff"/>
        <path d="M755.2,634.53a9.17,9.17,0,0,1-7.31-3.57c-1.73-2.31-2.15-6,.13-8.05s5.36-1.44,7.67-.3a9.39,9.39,0,0,1,3.82,3.16,5.75,5.75,0,0,1,.72,5.18,4.42,4.42,0,0,1-1.2,1.71,1,1,0,0,1-.57,1.24A8.52,8.52,0,0,1,755.2,634.53Zm-3.55-10.92a3.24,3.24,0,0,0-2.28.78c-1.38,1.26-1,3.8.12,5.38a7.23,7.23,0,0,0,5.31,2.74,1,1,0,0,1,1.14-.75,2.35,2.35,0,0,0,2.42-1.53,3.77,3.77,0,0,0-.52-3.36,8.32,8.32,0,0,0-6.19-3.26Z" style="fill: #1d1d1b"/>
      </g>
      <path d="M738.13,642.55a8.23,8.23,0,0,1-7-3.95,1,1,0,1,1,1.72-1,6.18,6.18,0,0,0,6,2.91,1,1,0,1,1,.26,2A8.24,8.24,0,0,1,738.13,642.55Z" style="fill: #1d1d1b"/>
      <path d="M732.9,644.07h-.15a13,13,0,0,1-7.66-4.2,1,1,0,0,1,1.51-1.32,10.82,10.82,0,0,0,6.45,3.54,1,1,0,0,1-.15,2Z" style="fill: #1d1d1b"/>
      <path d="M710,645a1,1,0,0,1-.61-.21,8.55,8.55,0,0,1-2.92-4.23,1,1,0,0,1,1.91-.58,6.58,6.58,0,0,0,2.23,3.23A1,1,0,0,1,710,645Z" style="fill: #1d1d1b"/>
      <path d="M704.19,644.58a1,1,0,0,1-.52-.14,6.82,6.82,0,0,1-3.23-5.45,1,1,0,0,1,2-.09,4.86,4.86,0,0,0,2.27,3.83,1,1,0,0,1-.52,1.85Z" style="fill: #1d1d1b"/>
      <path d="M768.63,628.71a1,1,0,0,1-.18-2,56.54,56.54,0,0,0,11.73-3.57,1,1,0,0,1,1.31.52A1,1,0,0,1,781,625a58,58,0,0,1-12.15,3.69Z" style="fill: #1d1d1b"/>
      <path d="M765.34,619.85a1,1,0,0,1-.54-1.84,16.9,16.9,0,0,0,5.54-5.83,1,1,0,0,1,1.37-.38,1,1,0,0,1,.37,1.37,19,19,0,0,1-6.2,6.53A1.08,1.08,0,0,1,765.34,619.85Z" style="fill: #1d1d1b"/>
      <path d="M759.46,616.86a1,1,0,0,1-.34-.06,1,1,0,0,1-.59-1.29l1.17-3.16a1,1,0,0,1,1.29-.59,1,1,0,0,1,.59,1.28l-1.18,3.17A1,1,0,0,1,759.46,616.86Z" style="fill: #1d1d1b"/>
    </g>
    <path d="M325.75,369.11l23.36-47.29,6.61-13.39c.85-1.72-1.73-3.24-2.59-1.51l-23.36,47.29-6.61,13.39c-.86,1.72,1.73,3.25,2.59,1.51Z"/>
    <path d="M448.44,387.28A161.85,161.85,0,0,1,445.3,350c.06-1.93-2.94-1.93-3,0a165.48,165.48,0,0,0,3.25,38.07c.39,1.89,3.28,1.09,2.89-.8Z"/>
    <path d="M457.77,391.63l10-36.71a1.5,1.5,0,0,0-2.89-.8l-10,36.71a1.5,1.5,0,0,0,2.89.8Z"/>
    <path d="M537.23,746.83a432.69,432.69,0,0,1,79.83,0q11.28,1,22.49,2.69c1.89.28,2.71-2.61.8-2.89A434.71,434.71,0,0,0,560,742.33q-11.4.45-22.76,1.5c-1.91.17-1.92,3.17,0,3Z"/>
    <path d="M269.77,865.8a153.78,153.78,0,0,1,79-49.95A1.5,1.5,0,0,0,348,813a157.74,157.74,0,0,0-65.46,35.34,154.17,154.17,0,0,0-14.86,15.38c-1.23,1.47.88,3.6,2.12,2.12Z"/>
    <path d="M714.29,406c2.38-4.49,7.2-7.07,12.15-7.61,6-.65,11.89,1.61,17,4.56s10,6.42,13.44,11.11,5.27,10.69,3.19,16.17c-1.67,4.38-6.62,8.27-11.5,7-4.72-1.21-8-6.85-4.92-11.15,3.61-5,10.61-4.15,15.51-1.9a38.9,38.9,0,0,1,13,10c9.21,10.6,12.85,24.63,14.91,38.2.29,1.9,3.18,1.1,2.9-.8-2.14-14-6-28.23-15.44-39.22a40.6,40.6,0,0,0-15-11.29c-5.92-2.46-13.49-2.65-17.9,2.76-4,4.88-2.08,11.57,3,14.87s11.55,1.5,15.41-2.78c4.45-4.94,4.84-12,2.45-18-2.51-6.32-7.61-11-13.12-14.79-6.21-4.27-13.52-8-21.26-7.84-6.52.16-13.21,3.27-16.35,9.2-.91,1.7,1.68,3.22,2.59,1.51Z"/>
    <path d="M198.85,559.11a2.41,2.41,0,0,1,.09-.72,7.19,7.19,0,0,1,.27-.87,7.49,7.49,0,0,1,.4-.74c.09-.14.19-.29.29-.42s0,0,0,0l.19-.22a7.38,7.38,0,0,1,.74-.74,3.75,3.75,0,0,1,.66-.49,7.2,7.2,0,0,1,.85-.49c.07,0,.37-.17.3-.15s.1,0,.1,0l.36-.13a7.66,7.66,0,0,1,.94-.25l.44-.08c-.24,0,.26,0,.34,0a7.69,7.69,0,0,1,1,0c.18,0,0,0,0,0l.29.05a4.05,4.05,0,0,1,.5.12,4.58,4.58,0,0,1,2.57,1.87,9.05,9.05,0,0,1,.45.8c0,.07.06.13.08.19s-.07-.19,0,0,.13.36.18.54.16.6.22.9l0,.17c0,.19,0,.38.05.57s0,.63,0,.94c0,.07-.05.52,0,.24,0,.17-.05.34-.08.5s-.14.6-.24.9-.11.31-.17.47,0,0,0,0l-.12.26a6.1,6.1,0,0,1-.5.85c0,.06-.25.33-.1.14a5,5,0,0,1-.37.42c-.1.1-.2.2-.31.29a1.07,1.07,0,0,1-.16.14c-.18.16.17-.11,0,0a6,6,0,0,1-.88.52l-.21.1s.17-.07,0,0l-.51.16-.44.1h-.05l-.3,0a6.28,6.28,0,0,1-1,0l-.23,0h0l-.52-.1a6.88,6.88,0,0,1-3.58-2.12,5.24,5.24,0,0,1-1.41-3.61c0-1.93-3-1.93-3,0-.07,3.8,2.69,6.94,6.1,8.28a8,8,0,0,0,9.48-2.66,9.74,9.74,0,0,0,.71-9.66,7.9,7.9,0,0,0-8.76-4.17,9.14,9.14,0,0,0-7.53,8.18,1.5,1.5,0,0,0,3,0Z"/>
    <path d="M528,348.48a5.17,5.17,0,0,0,.51,3.21,5.62,5.62,0,0,0,2,2.12,4.79,4.79,0,0,0,5.32-.05,5.58,5.58,0,0,0,2.37-4.61,4.82,4.82,0,0,0-2.77-4.18,5.36,5.36,0,0,0-5.77.65,1.51,1.51,0,0,0,0,2.12,1.54,1.54,0,0,0,2.12,0c.24-.2-.3.19,0,0l.14-.09.37-.19c-.29.18-.25.1-.13.06l.2-.06c.14,0,.3-.05.44-.1-.35.11-.25,0-.1,0h.62l.17,0c-.4,0-.24,0-.11,0s.31.07.45.12l.16,0c.18.06.21.17,0,0a2.11,2.11,0,0,0,.33.18l.32.2c.25.17-.26-.24,0,0l.18.17c0,.05.32.37.16.16s.07.12.11.19l.12.22c.08.16-.06.05-.05-.11a2.34,2.34,0,0,0,.14.5c0,.13,0,.18,0-.15a.82.82,0,0,0,0,.22c0,.13,0,.26,0,.39s0,.33,0,.05,0,0,0,.06a3.45,3.45,0,0,1-.12.46c0,.07-.07.15-.08.21,0-.23.12-.26,0-.12s-.13.26-.21.39a1.88,1.88,0,0,1-.12.18c-.07.13-.19.15.06-.05-.11.09-.19.22-.29.32s-.25.19-.32.29c.15-.22.21-.14.06-.05l-.18.12-.15.08c-.17.08-.28,0,0,0a4,4,0,0,0-.41.14l-.21,0c-.19.06.4,0,.07,0a2.64,2.64,0,0,0-.48,0s.38.08.11,0l-.24-.05-.23-.06-.13-.05c-.11,0-.06,0,.13.06l-.51-.28a.57.57,0,0,0-.16-.11l.11.08-.11-.09a4.07,4.07,0,0,1-.41-.42c-.16-.16,0,.08.05.08s-.14-.2-.17-.24S531,350,531,350s.11.31.05.08l-.09-.27-.06-.28c-.06-.29,0,.33,0,0,0-.14,0-.74,0-.28a1.65,1.65,0,0,0-.15-1.15,1.55,1.55,0,0,0-.9-.69,1.53,1.53,0,0,0-1.85,1.05Z"/>
    <path d="M565.52,773.65c6-5.53,15.25-4,21.37.5a33.41,33.41,0,0,1,8.16,9.05c2,3,5.37,8.47,1.63,11.52-3.1,2.53-5.23-2.09-3.87-4.63,1.8-3.37,6.62-4.52,10.11-4.88a24.65,24.65,0,0,1,26.2,32.72c-.63,1.83,2.27,2.61,2.89.79a28.38,28.38,0,0,0-5.16-27.05c-6.16-7.31-16.26-10.7-25.62-9.24-4.39.69-9.72,2.59-11.45,7.1-1.4,3.66.67,8.84,5,8.9a6.49,6.49,0,0,0,5.44-3.36,8.92,8.92,0,0,0,.49-7.34,28.9,28.9,0,0,0-3.76-7,40.64,40.64,0,0,0-4.73-5.82A24.89,24.89,0,0,0,578,767.3a17.93,17.93,0,0,0-14.57,4.23c-1.43,1.31.7,3.43,2.12,2.12Z"/>
  </g>
  <g>
    <g>
      <path d="M96.5,142.5s268.14.63,330-4C500,133,501,147,524,173c23.75,26.85,39.36,82.26,24.5,74.5C469,206,456.54,288.29,439,258c-16.5-28.5-16-70-16-70L96.5,199.5Z" style="fill: #fff"/>
      <path d="M454.2,137.31c46.56,0,50.14,13.46,69.8,35.69,22.22,25.12,37.31,75.24,27,75.24a5.56,5.56,0,0,1-2.5-.74c-16.66-8.7-30.37-12-41.81-12-34.29,0-48.08,29.32-59.25,29.32-2.89,0-5.6-1.95-8.44-6.86-16.5-28.5-16-70-16-70L96.5,199.5v-57s12.25,0,32.1,0c73.06,0,249.26-.39,297.9-4,10.66-.8,19.8-1.19,27.7-1.19m0-2c-8,0-17.14.39-27.85,1.2-48.52,3.63-224.39,4-297.75,4-19.62,0-32,0-32.1,0h0a2,2,0,0,0-2,2v57a2,2,0,0,0,.61,1.44,2,2,0,0,0,1.39.56h.07L421,190.07c.13,8.91,1.6,43.61,16.26,68.93,3.1,5.36,6.33,7.86,10.17,7.86,4.81,0,9.48-4.1,15.4-9.3,9.61-8.45,22.78-20,43.85-20,12.22,0,26,4,40.88,11.73a7.45,7.45,0,0,0,3.43,1,4.69,4.69,0,0,0,4.39-3c2.75-6.09-1.19-21.23-5.79-33.37-6.28-16.57-15.06-31.94-24.1-42.16-2.73-3.08-5.13-6-7.44-8.76-14.27-17.21-22.88-27.6-63.86-27.6Z"/>
    </g>
    <path d="M425,182c-107.14,9.35-279.34-18.17-328.5-26.62V199.5L423,188s-.22,5.55,0,10l105-20-9-11Z" style="fill: #ababab"/>
    <g>
      <ellipse cx="97.5" cy="170.5" rx="14.5" ry="27.5"/>
      <path d="M97.5,199C88.81,199,82,186.48,82,170.5S88.81,142,97.5,142,113,154.52,113,170.5,106.19,199,97.5,199Zm0-55C90.06,144,84,155.89,84,170.5S90.06,197,97.5,197,111,185.11,111,170.5,104.94,144,97.5,144Z"/>
    </g>
    <path d="M143,197.08a1,1,0,0,1-.73-1.7,38.11,38.11,0,0,0,1.94-50.47,1,1,0,1,1,1.55-1.26,40.12,40.12,0,0,1-2,53.12A1,1,0,0,1,143,197.08Z"/>
    <path d="M183.64,174.24h-.1a1,1,0,0,1-.89-1.09,43.55,43.55,0,0,0-7-28.2,1,1,0,0,1,1.67-1.1,45.5,45.5,0,0,1,7.36,29.49A1,1,0,0,1,183.64,174.24Z"/>
    <path d="M216.13,191.88a1,1,0,0,1-.58-.19,1,1,0,0,1-.23-1.4c9.1-12.66,8.21-31.8-2-43.56a1,1,0,0,1,1.51-1.32c10.81,12.44,11.75,32.67,2.13,46.05A1,1,0,0,1,216.13,191.88Z"/>
    <path d="M266.29,186.35a1,1,0,0,1-.56-.17,1,1,0,0,1-.27-1.39c7.86-11.66,7.16-28.74-1.62-39.73a1,1,0,0,1,1.56-1.24,36.34,36.34,0,0,1,1.72,42.09A1,1,0,0,1,266.29,186.35Z"/>
    <path d="M277.74,188.72a1,1,0,0,1-.6-.2,1,1,0,0,1-.2-1.4c9.4-12.49,8.68-31.48-1.64-43.22a1,1,0,0,1,1.5-1.32c10.93,12.43,11.69,32.52,1.74,45.75A1,1,0,0,1,277.74,188.72Z"/>
    <path d="M323.64,189.22a1,1,0,0,1-.67-1.74,30.5,30.5,0,0,0,1.89-43.59,1,1,0,1,1,1.46-1.37,32.5,32.5,0,0,1-2,46.45A1,1,0,0,1,323.64,189.22Z"/>
    <path d="M345.71,189.32a.94.94,0,0,1-.53-.16,1,1,0,0,1-.32-1.38,36,36,0,0,0,.4-37,1,1,0,0,1,.35-1.38,1,1,0,0,1,1.37.35,38.09,38.09,0,0,1-.43,39.06A1,1,0,0,1,345.71,189.32Z"/>
    <path d="M383.23,184.71a1,1,0,0,1-.88-1.47,41.87,41.87,0,0,0-.91-39.49,1,1,0,0,1-.63.19,1,1,0,0,1-1-1l.07-1.92a1,1,0,0,1,1.82-.52,43.77,43.77,0,0,1,2.38,43.7A1,1,0,0,1,383.23,184.71Z"/>
    <path d="M408.93,183a1,1,0,0,1-.77-.36,1,1,0,0,1,.13-1.41,28.32,28.32,0,0,0,5.45-37.74,1,1,0,0,1,1.66-1.12,30.32,30.32,0,0,1-5.83,40.4A1,1,0,0,1,408.93,183Z"/>
    <g>
      <path d="M456.18,136.39C495.4,131,534.93,122.05,569,101.8a172.71,172.71,0,0,0,17.1,46.06l-43.86,2.43c-19.08,1.06-27.69,3.21-33.69,3.21" style="fill: #fff"/>
      <path d="M508.5,154.5a1,1,0,0,1,0-2,81.32,81.32,0,0,0,9.58-.91c5.51-.71,13.07-1.69,24-2.3L584.42,147a173.05,173.05,0,0,1-16.15-43.58c-36.9,21.6-79.16,29.52-112,34a1,1,0,1,1-.27-2c33-4.51,75.52-12.51,112.4-34.46a1,1,0,0,1,.91,0,1,1,0,0,1,.57.7,171.72,171.72,0,0,0,17,45.79,1,1,0,0,1-.82,1.48l-43.86,2.43c-10.91.6-18.42,1.57-23.91,2.28A82,82,0,0,1,508.5,154.5Z"/>
    </g>
    <g>
      <path d="M439.5,267a716.17,716.17,0,0,1-35-63.4c18.42-5.06,37.17-8.69,55.9-12.31L575.6,169l-20.45,75.08c-.66,2.43-1.38,5-3.09,6.76-2.25,2.37-5.68,2.91-8.86,3.34l-104,13.88Z" style="fill: #fff"/>
      <path d="M575.6,169l-20.45,75.08c-.66,2.43-1.38,5-3.09,6.76-2.25,2.37-5.68,2.91-8.86,3.34l-104,13.88.3-1.07a716.17,716.17,0,0,1-35-63.4c18.42-5.06,37.17-8.69,55.9-12.31L575.6,169m0-2a1.64,1.64,0,0,0-.38,0l-59.56,11.51L460,189.31c-18.46,3.57-37.54,7.26-56,12.35a2,2,0,0,0-1.26,2.81c10.46,21.45,22.11,42.58,34.62,62.83l-.06.22a2,2,0,0,0,1.93,2.54h.26l104-13.89c3-.4,7.2-1,10-3.94,2.1-2.21,2.92-5.21,3.57-7.61l20.45-75.08a2,2,0,0,0-.46-1.89,2,2,0,0,0-1.47-.64Zm0,4h0Z"/>
    </g>
    <path d="M486,243c-57.75,7.22-71.11-27.38-74.13-41.35q-3.69.93-7.37,1.94a716.17,716.17,0,0,0,35,63.4l-.3,1.07,104-13.88c3.18-.43,6.61-1,8.86-3.34,1.71-1.79,2.43-4.33,3.09-6.76s1.32-4.85,2-7.28C541.12,237.38,517.87,239,486,243Z" style="fill: #ababab"/>
    <path d="M472.57,261.77a1,1,0,0,1-1-.79l-14.23-68.14a1,1,0,0,1,.77-1.19,1,1,0,0,1,1.19.78l14.22,68.14a1,1,0,0,1-.77,1.18A.75.75,0,0,1,472.57,261.77Z"/>
    <path d="M505,257a1.27,1.27,0,0,1-.26,0,1,1,0,0,1-.73-1L509.35,187a1,1,0,1,1,2,.16l-5.16,66,.11,0a1,1,0,0,1,.46,1.34l-.89,1.82A1,1,0,0,1,505,257Z"/>
    <path d="M561.72,188.9a4.24,4.24,0,0,1-3.4-1.6,1,1,0,0,1-.19-.44,1,1,0,0,1-.31-.37,4.71,4.71,0,0,1,.37-4.45,4.35,4.35,0,0,1,3.58-2.17h0a4.33,4.33,0,0,1,3.58,2.1,4.68,4.68,0,0,1,.45,4.44,4.37,4.37,0,0,1-3.56,2.45A5.27,5.27,0,0,1,561.72,188.9Zm-2-3a1.26,1.26,0,0,1,.2.2,2.3,2.3,0,0,0,2.15.8,2.44,2.44,0,0,0,2-1.31,2.71,2.71,0,0,0-.31-2.51,2.37,2.37,0,0,0-1.91-1.19h0a2.34,2.34,0,0,0-1.9,1.23,2.66,2.66,0,0,0-.27,2.52A1.34,1.34,0,0,1,559.71,185.88Z"/>
    <path d="M447.31,207.85a2.87,2.87,0,0,1-2.47-1.28,1,1,0,1,1,1.66-1.11,1.08,1.08,0,0,0,1.2.34,1.62,1.62,0,0,0,1.3-1.25,2,2,0,0,0-.69-1.64,2.38,2.38,0,0,0-2-.67,3.77,3.77,0,0,0-2.72,3.41,1,1,0,0,1-2-.22,5.73,5.73,0,0,1,4.36-5.16,4.36,4.36,0,0,1,3.68,1.18,3.93,3.93,0,0,1,1.3,3.32,3.59,3.59,0,0,1-2.81,3A3.67,3.67,0,0,1,447.31,207.85Z"/>
    <path d="M560.41,123.33a3.88,3.88,0,0,1-2.66-1h0a4.35,4.35,0,1,1,4,.78A4.77,4.77,0,0,1,560.41,123.33Zm-1.31-2.46a2.15,2.15,0,0,0,2.09.34,2.12,2.12,0,1,0-2.59-2.39,2.14,2.14,0,0,0,.5,2.05Z"/>
  </g>
</svg>
