<svg xmlns="http://www.w3.org/2000/svg" width="1000" height="1000" viewBox="0 0 1000 1000">
  <g id="b4d2d34b-40c2-4c97-8bed-7d8e3d66189a" data-name="Verify Email">
    <g id="bad51730-f4a3-43d4-9904-c3db2198fabd" data-name="background">
      <path d="M901.77,738.84a1.55,1.55,0,0,1-.37,0C624.86,669.61,341.83,612.24,60.18,568.29a1.5,1.5,0,1,1,.46-3c281.74,44,564.86,101.35,841.49,170.56a1.5,1.5,0,0,1-.36,3Z" style="fill: #dbdbdb"/>
      <g id="b553c233-2563-4264-8f62-90d11c8cfbe3" data-name="8">
        <path d="M690.87,688.89h-.16a1.5,1.5,0,0,1-1.33-1.65,536.64,536.64,0,0,0,2.87-63.12,1.5,1.5,0,0,1,1.48-1.52h0a1.5,1.5,0,0,1,1.5,1.48,538.45,538.45,0,0,1-2.89,63.48A1.5,1.5,0,0,1,690.87,688.89Z" style="fill: #dbdbdb"/>
        <path d="M702.07,638.42h-.3a4.29,4.29,0,0,1-3.39-2,4.84,4.84,0,0,0-.62-1.9,3.77,3.77,0,0,1,1.56-3.26,3.92,3.92,0,0,1,3.73-.54,4.31,4.31,0,0,1,2.56,2.95,3.8,3.8,0,0,1-.63,3.43A3.69,3.69,0,0,1,702.07,638.42Zm-1.32-3.8a1.64,1.64,0,0,1,.19.25,1.32,1.32,0,0,0,1,.55.83.83,0,0,0,.68-.2.94.94,0,0,0,.06-.76,1.39,1.39,0,0,0-.73-.93.93.93,0,0,0-.87.16.78.78,0,0,0-.35.64A2.81,2.81,0,0,1,700.75,634.62Z" style="fill: #dbdbdb"/>
        <g>
          <path d="M708.42,692.31l5-42.33a2.33,2.33,0,0,1,2.72-2.26,58.79,58.79,0,0,0,8.18,1.41,2.79,2.79,0,0,1,2.12,3.47,404.3,404.3,0,0,0-6.28,42" style="fill: #dbdbdb"/>
          <path d="M720.16,696.07H720a1.5,1.5,0,0,1-1.35-1.64A407.23,407.23,0,0,1,725,652.3a1.72,1.72,0,0,0-.27-1.32.85.85,0,0,0-.54-.36,60.34,60.34,0,0,1-8.39-1.45.47.47,0,0,0-.41.09,1.28,1.28,0,0,0-.46.89l-5,42.33a1.49,1.49,0,0,1-1.66,1.32,1.52,1.52,0,0,1-1.32-1.67l5-42.33a4.23,4.23,0,0,1,1.74-3,3.44,3.44,0,0,1,2.83-.53,57.53,57.53,0,0,0,8,1.38,3.76,3.76,0,0,1,2.66,1.56,4.72,4.72,0,0,1,.79,3.7,404.34,404.34,0,0,0-6.27,41.81A1.51,1.51,0,0,1,720.16,696.07Z" style="fill: #dbdbdb"/>
        </g>
        <g>
          <path d="M733.43,696.79l5.22-43.95c.19-1.61,1.43-2.69,2.73-2.37a56.08,56.08,0,0,0,8.19,1.4c1.45.14,2.45,1.85,2.1,3.59a435.85,435.85,0,0,0-6.5,43.58" style="fill: #dbdbdb"/>
          <path d="M745.17,700.54H745a1.5,1.5,0,0,1-1.35-1.64,439.74,439.74,0,0,1,6.53-43.73,1.87,1.87,0,0,0-.28-1.46.78.78,0,0,0-.5-.33,57.86,57.86,0,0,1-8.4-1.44.44.44,0,0,0-.37.08,1.44,1.44,0,0,0-.51,1l-5.22,44a1.5,1.5,0,0,1-3-.36l5.22-44a4.37,4.37,0,0,1,1.78-3.12,3.45,3.45,0,0,1,2.8-.52,54.64,54.64,0,0,0,8,1.36,3.71,3.71,0,0,1,2.62,1.54,4.86,4.86,0,0,1,.81,3.83,437.07,437.07,0,0,0-6.48,43.43A1.51,1.51,0,0,1,745.17,700.54Z" style="fill: #dbdbdb"/>
        </g>
        <g>
          <path d="M756.32,701.81l5.63-47c.2-1.72,1.46-2.9,2.76-2.57a53.24,53.24,0,0,0,8.19,1.37c1.46.13,2.44,1.94,2.08,3.8-3,15.35-5.35,30.94-6.93,46.64" style="fill: #dbdbdb"/>
          <path d="M768.05,705.54h-.15a1.5,1.5,0,0,1-1.34-1.64c1.58-15.69,3.92-31.43,7-46.78a2.25,2.25,0,0,0-.32-1.72.66.66,0,0,0-.42-.29,54,54,0,0,1-8.42-1.42.37.37,0,0,0-.31.08,1.72,1.72,0,0,0-.6,1.22l-5.64,47a1.5,1.5,0,1,1-3-.36l5.63-47a4.66,4.66,0,0,1,1.88-3.33,3.37,3.37,0,0,1,2.74-.52,50.39,50.39,0,0,0,7.95,1.34,3.59,3.59,0,0,1,2.56,1.48,5.21,5.21,0,0,1,.86,4.1c-3,15.26-5.33,30.9-6.91,46.5A1.49,1.49,0,0,1,768.05,705.54Z" style="fill: #dbdbdb"/>
        </g>
        <g>
          <path d="M776.32,707l6-50c.22-1.83,1.49-3.09,2.79-2.76a48.74,48.74,0,0,0,8.19,1.34c1.46.12,2.43,2,2,4-3.17,16.34-5.62,32.92-7.33,49.62" style="fill: #dbdbdb"/>
          <path d="M788.06,710.74h-.15a1.5,1.5,0,0,1-1.34-1.65c1.71-16.67,4.18-33.41,7.35-49.75a2.58,2.58,0,0,0-.34-2c-.06-.08-.21-.25-.36-.26a50.72,50.72,0,0,1-8.44-1.39s-.1,0-.24.07a2,2,0,0,0-.69,1.42l-6,50a1.5,1.5,0,0,1-3-.36l6-50a4.93,4.93,0,0,1,2-3.53,3.26,3.26,0,0,1,2.68-.51,47.83,47.83,0,0,0,7.94,1.31,3.48,3.48,0,0,1,2.5,1.43,5.51,5.51,0,0,1,.9,4.35c-3.14,16.25-5.6,32.9-7.31,49.49A1.5,1.5,0,0,1,788.06,710.74Z" style="fill: #dbdbdb"/>
        </g>
        <path d="M815.7,644.39a1.33,1.33,0,0,1-.28,0c-19.6-3.79-40.2-6.17-60.12-8.47s-40.63-4.68-60.34-8.5a1.5,1.5,0,1,1,.57-2.94c19.59,3.79,40.19,6.17,60.11,8.46s40.64,4.69,60.35,8.5a1.5,1.5,0,0,1-.29,3Z" style="fill: #dbdbdb"/>
        <path d="M803.53,715.09h-.1a1.49,1.49,0,0,1-1.39-1.6c1.56-22.69,7.33-51.54,12.21-71a1.5,1.5,0,0,1,2.91.73c-4.85,19.3-10.58,47.94-12.13,70.44A1.51,1.51,0,0,1,803.53,715.09Z" style="fill: #dbdbdb"/>
        <path d="M803.5,654.8a6.79,6.79,0,0,1-5.15-2.43,1.51,1.51,0,0,1,.2-2.11,1.45,1.45,0,0,1,.89-.34,4,4,0,0,1,1.45-4.09,4.53,4.53,0,0,1,5.08-.52,5.2,5.2,0,0,1,2.51,4.15,4.93,4.93,0,0,1-1.72,4.27A5.21,5.21,0,0,1,803.5,654.8Zm-2.08-3.66a3.13,3.13,0,0,0,3.47.24,1.94,1.94,0,0,0,.59-1.69,2.19,2.19,0,0,0-1-1.78,1.55,1.55,0,0,0-1.69.24,1,1,0,0,0-.42,1.09A1.5,1.5,0,0,1,801.42,651.14Z" style="fill: #dbdbdb"/>
      </g>
      <g>
        <path d="M853.41,244.17a174,174,0,0,1-47.71-6.63,1.49,1.49,0,0,1-1.09-1.5l1.69-44.19a1.5,1.5,0,0,1,.42-3L892.1,194a1.51,1.51,0,0,1,1.38,1.81l-9.26,44.71a1.52,1.52,0,0,1-1.22,1.17A174.61,174.61,0,0,1,853.41,244.17ZM807.65,235a171.83,171.83,0,0,0,73.84,3.89l8.7-42-80.9-4.81Z" style="fill: #e6e6e6"/>
        <path d="M910.7,265.06h-.19a636,636,0,0,0-71-4.73,1.48,1.48,0,0,1-1.07-.46,1.52,1.52,0,0,1-.42-1.09l.48-12.92a1.5,1.5,0,0,1,3,.11l-.42,11.38a641.05,641.05,0,0,1,69.83,4.73,1.5,1.5,0,0,1-.18,3Z" style="fill: #e6e6e6"/>
        <path d="M912.91,230.17a1.49,1.49,0,0,1-1.31-.78c-.32-.59-1.16-.85-2.4-1.09l-21-4a1.5,1.5,0,0,1,.56-2.95l21,4c1.19.23,3.39.65,4.47,2.59a1.51,1.51,0,0,1-.59,2A1.47,1.47,0,0,1,912.91,230.17Z" style="fill: #e6e6e6"/>
        <path d="M881,207.22l-.28,0a2.69,2.69,0,0,1-2.29-1.71,1.5,1.5,0,0,1,.86-1.94,2.37,2.37,0,0,1,.36-.09,1.78,1.78,0,0,1-.08-.53,1.48,1.48,0,0,1,1.55-1.45,2.66,2.66,0,0,1,2.25,1.48,3,3,0,0,1,0,3A2.73,2.73,0,0,1,881,207.22Z" style="fill: #e6e6e6"/>
        <path d="M818.59,204.54l-.33,0A3.13,3.13,0,0,1,816,203a3.65,3.65,0,0,1-.43-3,1.51,1.51,0,0,1,1.89-1,1.55,1.55,0,0,1,.76.56l.09,0a3.39,3.39,0,0,1,2.7-.07,1.48,1.48,0,0,1,.92,1.27,3.64,3.64,0,0,1-1.11,2.84A3.25,3.25,0,0,1,818.59,204.54Z" style="fill: #e6e6e6"/>
        <path d="M904.65,238.44a2.27,2.27,0,0,1-.73-.11,1.5,1.5,0,0,1-.27-2.76,1.5,1.5,0,0,1,.07-2.74,2.66,2.66,0,0,1,2.47.26,2.86,2.86,0,0,1,1.32,2.34,3,3,0,0,1-1.2,2.43A2.75,2.75,0,0,1,904.65,238.44Z" style="fill: #e6e6e6"/>
        <path d="M910.2,264.38h-.15a1.5,1.5,0,0,1-1.35-1.64l3.3-34a1.5,1.5,0,1,1,3,.29l-3.29,34A1.5,1.5,0,0,1,910.2,264.38Z" style="fill: #e6e6e6"/>
      </g>
      <path d="M760.53,731.12a1.74,1.74,0,0,1-.39,0L594.29,687.34a1.51,1.51,0,0,1-1.07-1.84,1.49,1.49,0,0,1,1.83-1.06l165.86,43.73a1.5,1.5,0,0,1-.38,3Z" style="fill: #e6e6e6"/>
      <path d="M677.46,738.36a1.44,1.44,0,0,1-.4-.06l-84-23.42a1.5,1.5,0,0,1,.81-2.89l84,23.42a1.5,1.5,0,0,1-.41,3Z" style="fill: #e6e6e6"/>
      <path d="M265.29,853.45A55.51,55.51,0,0,1,258,853c-4.47-.58-7.25-2.12-8.5-4.69a6.49,6.49,0,0,1,0-5.39,9.26,9.26,0,0,1,5.42-5.06c3.91-1.33,8.08-.33,11.43.48a1.5,1.5,0,0,1-.7,2.91c-3-.71-6.67-1.6-9.76-.55a6.28,6.28,0,0,0-3.62,3.38,3.5,3.5,0,0,0,0,2.92c.78,1.59,2.8,2.58,6.19,3a53.55,53.55,0,0,0,14,0,11.87,11.87,0,0,0,5.58-1.82c1.21-.9,2.19-2.66,1.64-4.13a2.16,2.16,0,0,0-1.62-1.24,1.32,1.32,0,0,0-1.24.3,1.5,1.5,0,0,1-2.24-2,4.24,4.24,0,0,1,4-1.25,5.21,5.21,0,0,1,3.88,3.14,6.79,6.79,0,0,1-2.66,7.58,14.45,14.45,0,0,1-7,2.39A55.08,55.08,0,0,1,265.29,853.45Z" style="fill: #e6e6e6"/>
      <path d="M194.08,829.61a115.39,115.39,0,0,1-66.28-20.84c-1.64-1.16-3.44-2.59-3.93-4.84-.74-3.39,1.74-6.54,6.82-8.64a123.7,123.7,0,0,1,104.75,5.22c4.37,2.35,6.4,5.31,5.73,8.34s-3.9,4.53-5.63,5.3l-18.46,8.24a1.5,1.5,0,0,1-1.22-2.74l18.46-8.24c1.85-.82,3.6-1.78,3.92-3.21.5-2.24-2.79-4.27-4.22-5a120.65,120.65,0,0,0-102.18-5.1c-1,.39-5.64,2.49-5,5.23.26,1.2,1.55,2.19,2.73,3a112.42,112.42,0,0,0,94.73,16.11,1.5,1.5,0,0,1,.82,2.89A113.3,113.3,0,0,1,194.08,829.61Z" style="fill: #e6e6e6"/>
      <path d="M902,803.81a78.72,78.72,0,0,1-13.45-1.16c-2.25-.4-5.36-1.24-6.39-4a4.72,4.72,0,0,1,.41-4.08,8.93,8.93,0,0,1,6-3.89c.9-.16,1.82-.24,2.7-.32a21,21,0,0,0,3.23-.44,1.49,1.49,0,0,1,1.59-1.1l.64.06a1.51,1.51,0,0,1,2,.3,32.54,32.54,0,0,1,13,5.46c.71.51,2.87,2,2.82,4.4s-2.4,4.24-6.13,4.55Q905.21,803.81,902,803.81ZM897.41,792a14.87,14.87,0,0,1-5.9,1.35c-.86.08-1.67.15-2.45.28a6,6,0,0,0-3.92,2.44,1.77,1.77,0,0,0-.19,1.55c.37,1,1.71,1.71,4.09,2.12a74.54,74.54,0,0,0,19.16.86c1.67-.13,3.36-.74,3.38-1.63,0-.5-.51-1.14-1.56-1.88A29.49,29.49,0,0,0,897.41,792Z" style="fill: #e6e6e6"/>
      <path d="M874.07,833.48a8.86,8.86,0,0,1-5.29-1.63c-3-2.2-3.83-6.56-1.8-9.34a5.65,5.65,0,0,1,5.29-2.08,4.86,4.86,0,0,1,4,3c0,.09.06.19.08.28a1.48,1.48,0,0,1,.72-.86,3.65,3.65,0,0,1,3.82.34,4.68,4.68,0,0,1,2,4.32c-.31,2.25-2.13,4.21-4.86,5.24A11.22,11.22,0,0,1,874.07,833.48Zm-2.61-10.1a2.56,2.56,0,0,0-2.06.91c-1,1.43-.49,3.93,1.16,5.15a6.88,6.88,0,0,0,6.43.49c1.3-.5,2.76-1.5,2.94-2.85a1.68,1.68,0,0,0-.73-1.45.7.7,0,0,0-.7-.14,1.51,1.51,0,0,1-2-.63,1.76,1.76,0,0,1-.15-.44,1.5,1.5,0,0,1-2.82.07,2,2,0,0,0-1.62-1.09A3,3,0,0,0,871.46,823.38Z" style="fill: #e6e6e6"/>
      <g>
        <path d="M86.09,288.31h0a1.51,1.51,0,0,1-1.47-1.54c1.12-47.44.44-95.49-2-142.82a1.5,1.5,0,0,1,3-.15c2.48,47.4,3.16,95.53,2,143A1.5,1.5,0,0,1,86.09,288.31Z" style="fill: #e6e6e6"/>
        <path d="M200.37,309.79h0a1.5,1.5,0,0,1-1.46-1.53l3.33-156.41a1.47,1.47,0,0,1,1.53-1.47,1.5,1.5,0,0,1,1.47,1.53l-3.33,156.41A1.5,1.5,0,0,1,200.37,309.79Z" style="fill: #e6e6e6"/>
        <path d="M200.68,312.5a1.24,1.24,0,0,1-.33,0l-29.16-6.57c-28.42-6.41-57.82-13-86.93-17.3a1.5,1.5,0,1,1,.44-3c29.22,4.28,58.67,10.92,87.15,17.34L201,309.54a1.5,1.5,0,0,1-.33,3Z" style="fill: #e6e6e6"/>
        <path d="M202.24,153.9h0a876.25,876.25,0,0,1-125.68-12,1.52,1.52,0,0,1-1.23-1.73A1.5,1.5,0,0,1,77,139,873,873,0,0,0,202.27,150.9a1.5,1.5,0,0,1,0,3Z" style="fill: #e6e6e6"/>
        <path d="M202.37,152.71a1.52,1.52,0,0,1-1.25-.67,1.5,1.5,0,0,1,.41-2.08c13.65-9.16,27.69-17.85,41.73-25.84a1.5,1.5,0,0,1,1.48,2.61c-14,8-28,16.6-41.54,25.72A1.48,1.48,0,0,1,202.37,152.71Z" style="fill: #e6e6e6"/>
        <path d="M75.19,141.52a1.5,1.5,0,0,1-.55-2.89c12.6-5,24.71-13.43,35-24.49a1.5,1.5,0,1,1,2.19,2c-10.61,11.39-23.1,20.11-36.11,25.24A1.52,1.52,0,0,1,75.19,141.52Z" style="fill: #e6e6e6"/>
        <path d="M242.72,125.48h0c-44-.87-88.45-3.87-132.25-8.9a1.5,1.5,0,0,1,.35-3c43.7,5,88.1,8,132,8.88a1.5,1.5,0,0,1,0,3Z" style="fill: #e6e6e6"/>
        <path d="M236.75,306.29h0a1.5,1.5,0,0,1-1.48-1.52c.69-58.41,2.06-117.63,4.07-176a1.5,1.5,0,0,1,3,.11c-2,58.34-3.38,117.53-4.07,175.93A1.5,1.5,0,0,1,236.75,306.29Z" style="fill: #e6e6e6"/>
        <path d="M200.9,311.88a1.5,1.5,0,0,1-.65-2.85,59.87,59.87,0,0,1,36.44-5.35,1.5,1.5,0,0,1-.51,3,56.89,56.89,0,0,0-34.63,5.09A1.51,1.51,0,0,1,200.9,311.88Z" style="fill: #e6e6e6"/>
        <path d="M94.17,188.86h0a1.5,1.5,0,0,1-1.45-1.55,202.54,202.54,0,0,0-1.85-34.76,1.52,1.52,0,0,1,1.28-1.7,1.5,1.5,0,0,1,1.69,1.28,204.61,204.61,0,0,1,1.88,35.28A1.5,1.5,0,0,1,94.17,188.86Z" style="fill: #e6e6e6"/>
        <path d="M194.48,165.86h-.16L92.39,154.51a1.5,1.5,0,1,1,.33-3l101.93,11.34a1.5,1.5,0,0,1,1.32,1.66A1.49,1.49,0,0,1,194.48,165.86Z" style="fill: #e6e6e6"/>
        <path d="M193.28,195.86a1.5,1.5,0,0,1-1.5-1.38,153,153,0,0,1,.62-29.27,1.5,1.5,0,0,1,1.66-1.32,1.52,1.52,0,0,1,1.32,1.67,149.44,149.44,0,0,0-.6,28.69,1.5,1.5,0,0,1-1.39,1.61Z" style="fill: #e6e6e6"/>
        <path d="M102.26,268.4h-.14a1.5,1.5,0,0,1-1.35-1.64,375.12,375.12,0,0,0,.87-60.8,1.5,1.5,0,0,1,3-.2,376.62,376.62,0,0,1-.88,61.29A1.49,1.49,0,0,1,102.26,268.4Z" style="fill: #e6e6e6"/>
        <path d="M185.27,213.42h-.12l-81.24-6.28a1.5,1.5,0,1,1,.23-3l81.24,6.28a1.5,1.5,0,0,1-.11,3Z" style="fill: #e6e6e6"/>
        <path d="M183.58,279.81h0a1.51,1.51,0,0,1-1.49-1.52c.17-21.3,1.08-42.84,2.73-64a1.48,1.48,0,0,1,1.61-1.38,1.5,1.5,0,0,1,1.38,1.61c-1.64,21.12-2.55,42.6-2.72,63.83A1.5,1.5,0,0,1,183.58,279.81Z" style="fill: #e6e6e6"/>
        <path d="M182.63,283a1,1,0,0,1-.24,0c-26.24-4.22-52.78-9.09-78.89-14.48a1.5,1.5,0,0,1,.6-2.94c26.07,5.38,52.57,10.25,78.77,14.46a1.5,1.5,0,0,1-.24,3Z" style="fill: #e6e6e6"/>
        <path d="M144.46,247.29h-.15l-5.05-.5a3,3,0,0,1-2.28-1.12,4.72,4.72,0,0,1-.53-3.43,83.2,83.2,0,0,0,0-20.62,1.5,1.5,0,1,1,3-.37l0,.17,5.48-.55a1.51,1.51,0,0,1,1.65,1.54L146,245.83a1.51,1.51,0,0,1-1.5,1.46Zm-5.09-3.51.18,0,3.46.34.55-20.12-3.77.37a86,86,0,0,1-.36,18.22A4.36,4.36,0,0,0,139.37,243.78Z" style="fill: #e6e6e6"/>
        <path d="M209.21,213.82a1.56,1.56,0,0,1-.69-.17,1.51,1.51,0,0,1-.64-2,201.27,201.27,0,0,1,23.33-35.32,1.5,1.5,0,1,1,2.3,1.92,198.57,198.57,0,0,0-23,34.79A1.51,1.51,0,0,1,209.21,213.82Z" style="fill: #e6e6e6"/>
        <path d="M215,222.25a1.57,1.57,0,0,1-.72-.18,1.51,1.51,0,0,1-.59-2l16.68-30.37A1.49,1.49,0,0,1,233,191.1l-16.67,30.38A1.51,1.51,0,0,1,215,222.25Z" style="fill: #e6e6e6"/>
        <path d="M207.25,255.7a1.51,1.51,0,0,1-.62-.14,1.49,1.49,0,0,1-.74-2l15.86-34.46a1.5,1.5,0,0,1,2.73,1.26l-15.87,34.45A1.5,1.5,0,0,1,207.25,255.7Z" style="fill: #e6e6e6"/>
        <path d="M217.75,257.35a1.52,1.52,0,0,1-.59-.12,1.49,1.49,0,0,1-.79-2A301.3,301.3,0,0,1,232.9,222.5a1.5,1.5,0,0,1,2.59,1.52,296.14,296.14,0,0,0-16.36,32.43A1.5,1.5,0,0,1,217.75,257.35Z" style="fill: #e6e6e6"/>
        <path d="M227.58,259.77a1.44,1.44,0,0,1-.6-.13,1.5,1.5,0,0,1-.77-2l1.11-2.5a1.5,1.5,0,1,1,2.74,1.21l-1.1,2.5A1.51,1.51,0,0,1,227.58,259.77Z" style="fill: #e6e6e6"/>
        <path d="M149.94,301.29h-.09a1.51,1.51,0,0,1-1.41-1.59l1.12-18a1.5,1.5,0,1,1,3,.18l-1.12,18A1.5,1.5,0,0,1,149.94,301.29Z" style="fill: #e6e6e6"/>
        <path d="M157.65,302.78l-.23,0a1.5,1.5,0,0,1-1.26-1.71l.75-5a1.5,1.5,0,0,1,3,.44l-.75,5A1.5,1.5,0,0,1,157.65,302.78Z" style="fill: #e6e6e6"/>
        <path d="M94.06,288.29A1.5,1.5,0,0,1,92.57,287a89.71,89.71,0,0,1,.7-24.39A1.5,1.5,0,0,1,95,261.33a1.49,1.49,0,0,1,1.23,1.72,86.59,86.59,0,0,0-.68,23.58,1.48,1.48,0,0,1-1.33,1.65Z" style="fill: #e6e6e6"/>
        <path d="M167.4,200.42a222.1,222.1,0,0,1-73.32-12.58,1.5,1.5,0,0,1,1-2.83,217.22,217.22,0,0,0,100.37,10.58,1.5,1.5,0,0,1,.39,3A219.12,219.12,0,0,1,167.4,200.42Z" style="fill: #e6e6e6"/>
        <path d="M105.77,185.4a1.5,1.5,0,0,1-1.5-1.41c-.38-6.44-.48-13-.3-19.43a1.5,1.5,0,0,1,3,.06l0,2.26a1.33,1.33,0,0,1,0,.28c-.09,5.54,0,11.13.36,16.65a1.5,1.5,0,0,1-1.41,1.59Z" style="fill: #e6e6e6"/>
        <path d="M122.73,185.26a1.51,1.51,0,0,1-1.49-1.3l-1.95-14.34c-.77,1.32-1.61,2.52-2.41,3.65a6.56,6.56,0,0,1-2.57,2.49c-2.23,1-4.65-.48-6.44-3.91-.16-.29-.31-.6-.47-.91-.74-1.47-1.59-3.14-2.57-3.56a1.5,1.5,0,0,1,1.16-2.76c2,.84,3.11,3,4.09,5,.15.29.3.59.45.87.87,1.68,2,2.79,2.58,2.55a4.82,4.82,0,0,0,1.32-1.47,24.94,24.94,0,0,0,4.18-7.81,1.51,1.51,0,0,1,1.54-1.11,1.48,1.48,0,0,1,1.39,1.29l2.68,19.65a1.51,1.51,0,0,1-1.29,1.69Z" style="fill: #e6e6e6"/>
        <path d="M142.44,188.76a1.5,1.5,0,0,1-1.46-1.15l-4-16.49c-2.39,5.28-4.73,10.66-7,16a1.5,1.5,0,0,1-2.77-1.16c2.82-6.76,5.8-13.53,8.84-20.1a1.5,1.5,0,0,1,2.82.28l5,20.72a1.5,1.5,0,0,1-1.11,1.81A1.39,1.39,0,0,1,142.44,188.76Z" style="fill: #e6e6e6"/>
        <path d="M131.23,181.25a1.5,1.5,0,0,1-.18-3l10.28-1.3a1.51,1.51,0,0,1,1.68,1.3,1.5,1.5,0,0,1-1.3,1.67l-10.29,1.3Z" style="fill: #e6e6e6"/>
        <path d="M156.23,188.35a1.5,1.5,0,0,1-1.47-1.23,81.9,81.9,0,0,1-1.13-19.86,1.5,1.5,0,0,1,3,.2,78.83,78.83,0,0,0,1.08,19.12,1.49,1.49,0,0,1-1.21,1.74A1.24,1.24,0,0,1,156.23,188.35Z" style="fill: #e6e6e6"/>
        <path d="M187.12,189.51a1.5,1.5,0,0,1-.55-.11,21.92,21.92,0,0,0-13.84-.79,1.49,1.49,0,0,1-1.89-1.57,180.13,180.13,0,0,0,.59-18.16,1.5,1.5,0,1,1,3,0c.1,5.47-.05,11-.44,16.42a24.9,24.9,0,0,1,13.68,1.36,1.5,1.5,0,0,1-.55,2.9Z" style="fill: #e6e6e6"/>
      </g>
      <path d="M167.79,579.05a1.5,1.5,0,0,1-1.5-1.44L159.47,407a1.5,1.5,0,1,1,3-.12l6.82,170.6a1.51,1.51,0,0,1-1.44,1.56Z" style="fill: #e6e6e6"/>
      <path d="M147.14,523.58a5.52,5.52,0,0,1-4.65-2.9,4.53,4.53,0,0,1,.47-5.57,1.5,1.5,0,0,1,2.12,2.12c-.65.66-.15,1.66,0,2a2.36,2.36,0,0,0,2.38,1.35,2.7,2.7,0,0,0,1.8-1.83,3.86,3.86,0,0,0-.38-3.51c-1.51-2.07-4.64-2.35-6.81-1.56a1.5,1.5,0,0,1-1-2.82c3.29-1.19,7.87-.68,10.26,2.61a6.86,6.86,0,0,1,.79,6.29,5.7,5.7,0,0,1-3.88,3.73A4.45,4.45,0,0,1,147.14,523.58Z" style="fill: #e6e6e6"/>
      <path d="M144.39,475.46a5.78,5.78,0,0,1-4.17-1.89,4.49,4.49,0,0,1-.95-5.05,1.5,1.5,0,1,1,2.7,1.3,1.62,1.62,0,0,0,.45,1.71,2.56,2.56,0,0,0,2.59.82c1.89-.74,2.49-3.51,1.75-5.4s-2.58-3.62-5.41-5a1.5,1.5,0,1,1,1.31-2.7c3.53,1.7,5.85,3.92,6.9,6.59,1.27,3.25.16,7.87-3.46,9.28A4.52,4.52,0,0,1,144.39,475.46Z" style="fill: #e6e6e6"/>
      <path d="M203.45,594.25A1.51,1.51,0,0,1,202,593l-1.22-6.9a1.5,1.5,0,1,1,3-.52l1.21,6.91a1.49,1.49,0,0,1-1.22,1.73A1.09,1.09,0,0,1,203.45,594.25Z" style="fill: #e6e6e6"/>
      <path d="M202.65,590a1.5,1.5,0,0,1-1.5-1.45l-1.33-39.9a1.5,1.5,0,0,1,1.45-1.55,1.48,1.48,0,0,1,1.55,1.45l1.33,39.9A1.5,1.5,0,0,1,202.7,590Z" style="fill: #e6e6e6"/>
      <path d="M847.76,361.66a1.5,1.5,0,0,1-1.5-1.5v-1.38a1.5,1.5,0,0,1,3,0v1.38A1.5,1.5,0,0,1,847.76,361.66Z" style="fill: #e6e6e6"/>
      <path d="M794.87,441.36l-.24,0a1.5,1.5,0,0,1-1.25-1.71l11.47-74.22a1.5,1.5,0,1,1,3,.46l-11.46,74.22A1.51,1.51,0,0,1,794.87,441.36Z" style="fill: #e6e6e6"/>
      <path d="M807,434.62h-.15a1.51,1.51,0,0,1-1.35-1.65l6.65-66.06a1.52,1.52,0,0,1,1.65-1.34,1.5,1.5,0,0,1,1.34,1.64l-6.65,66.06A1.5,1.5,0,0,1,807,434.62Z" style="fill: #e6e6e6"/>
      <path d="M774.93,403.59a1.5,1.5,0,0,1-.2-3l61.9-8.39a1.5,1.5,0,0,1,.4,3l-61.89,8.39Z" style="fill: #e6e6e6"/>
      <path d="M772.07,422.11a1.5,1.5,0,0,1-.37-3l37.15-9.6a1.5,1.5,0,1,1,.75,2.9l-37.15,9.61A1.65,1.65,0,0,1,772.07,422.11Z" style="fill: #e6e6e6"/>
    </g>
    <g id="b7de643d-53e7-41d6-bb5d-543ef52e1363" data-name="mail">
      <path d="M679.12,810.67A30.78,30.78,0,0,0,665.76,814a695.3,695.3,0,0,1,95.14,51,938.75,938.75,0,0,0,104.45-53.43l-25.92-21.51c-2.24-1.86-4.64-3.8-8-4.58-3.11-.72-6.51-.32-9.74.11C774,791.83,726.73,800,680.37,810"/>
      <g>
        <path d="M663.05,804.16,807.14,775.3c4.87-1,10.16-1.95,14.92-.73,3.27.84,5.82,2.61,8.29,4.3a309.3,309.3,0,0,0,36.93,21.53c-38.79,11.49-74.8,27.36-106.11,46.77C730.81,830.24,699.73,813,663,803.62" style="fill: #fff"/>
        <path d="M663.45,805.61l84-16.84,41.91-8.39c6.93-1.39,13.86-2.9,20.82-4.15a31.49,31.49,0,0,1,9.68-.57,20.22,20.22,0,0,1,8.39,3.62,342.35,342.35,0,0,0,38.23,22.41l.36-2.74q-22.41,6.64-44.1,15.43a430.73,430.73,0,0,0-41,19.19q-10.86,5.82-21.35,12.3h1.51C737.67,832.35,713.22,819,687,809.48q-11.61-4.2-23.59-7.3c-1.87-.48-2.67,2.41-.8,2.89,27.4,7,53,19,77.85,32.4,6.68,3.61,13.31,7.3,19.94,11a1.49,1.49,0,0,0,1.51,0,403.3,403.3,0,0,1,38.54-21,445.64,445.64,0,0,1,42-17.4q12.49-4.47,25.21-8.23a1.51,1.51,0,0,0,.36-2.74,309,309,0,0,1-35-20.26,50.39,50.39,0,0,0-7.75-4.74,21.06,21.06,0,0,0-9.22-1.58,63.05,63.05,0,0,0-9.77,1.43l-10.78,2.16-84.79,17-48,9.63c-1.89.37-1.09,3.27.8,2.89Z" style="fill: #1d1d1b"/>
      </g>
      <path d="M666.09,805.71q25-.37,50.1.15t50,2q14.07.81,28.13,1.93c1.92.15,1.91-2.85,0-3q-24.92-2-49.9-3t-50.06-1.19q-14.14-.08-28.28.14c-1.93,0-1.93,3,0,3Z" style="fill: #1d1d1b"/>
      <path d="M818.28,773.31a167.27,167.27,0,0,0-28.56,34.6c-1,1.65,1.58,3.16,2.59,1.51a164.5,164.5,0,0,1,28.09-34c1.42-1.32-.71-3.44-2.12-2.12Z" style="fill: #1d1d1b"/>
      <path d="M752.18,806c-6.78,9.37-9.28,21.23-5.64,32.34.6,1.83,3.5,1,2.89-.8-3.41-10.42-1-21.25,5.34-30,1.14-1.57-1.46-3.07-2.59-1.52Z" style="fill: #1d1d1b"/>
      <path d="M805.48,790.79a176.55,176.55,0,0,1,50.59,5.93,1.51,1.51,0,0,0,.8-2.9,180,180,0,0,0-51.39-6c-1.92.05-1.93,3.05,0,3Z" style="fill: #1d1d1b"/>
    </g>
    <g id="a846cbc0-a3e8-436e-ac31-aa48dae8bbcb" data-name="box">
      <g>
        <path d="M475.5,750.5v14s13,7,16,19l7-37Z"/>
        <g>
          <polygon points="492.32 752.51 491.5 783.5 524.5 779.5 524.5 745.5 492.32 752.51" style="fill: #ababab"/>
          <path d="M491.5,784.5a1,1,0,0,1-.67-.26,1,1,0,0,1-.33-.77l.82-31a1,1,0,0,1,.78-1l32.19-7a1,1,0,0,1,1.21,1v34a1,1,0,0,1-.88,1l-33,4Zm1.79-31.18-.76,29,31-3.76V746.74Z"/>
        </g>
        <g>
          <path d="M349,845,321,492l-5-250,256-2s27,10,60,69,15,251,8,324-17,199-17,199c-18,0-49,3-49,3-5-9-21-29-21-29,7-17,7-58,7-58L395,759l-5,80C372,840,349,845,349,845Z" style="fill: #fff"/>
          <path d="M572,240s27,10,60,69,15,251,8,324-17,199-17,199c-18,0-49,3-49,3-5-9-21-29-21-29,7-17,7-58,7-58L395,759l-5,80c-18,1-41,6-41,6L321,492l-5-250,256-2m0-2h0l-256,2a2,2,0,0,0-1.41.61A2,2,0,0,0,314,242l5,250a.49.49,0,0,0,0,.12l28,353a2,2,0,0,0,.8,1.45A2,2,0,0,0,349,847a2,2,0,0,0,.42,0c.23-.05,23.06-5,40.69-6a2,2,0,0,0,1.89-1.88l4.89-78.24L558,750.14c-.12,8.6-1,40.85-6.83,55.1a2,2,0,0,0,.29,2c.16.2,15.95,20,20.81,28.72a2,2,0,0,0,1.75,1h.19c.31,0,31.11-3,48.81-3a2,2,0,0,0,2-1.84c.1-1.26,10.08-126.82,17-199,3.16-32.94,9.73-101.48,11-167.4,1.53-79.1-5-132.18-19.25-157.77-33-59-59.92-69.48-61.06-69.9A2,2,0,0,0,572,238Z"/>
        </g>
        <path d="M256.5,770.5s-53-463,47-526,46,601,46,601l-23-30-1-74-22-14s1,41,5,55l-30,3Z"/>
        <g>
          <path d="M303.5,727.5l-26-23c-1,17,1,81,1,81l30-3C304.5,768.5,303.5,727.5,303.5,727.5Z" style="fill: #ababab"/>
          <path d="M278.5,786.5a1,1,0,0,1-.66-.25,1,1,0,0,1-.34-.72c0-.64-2-64.24-1-81.09a1,1,0,0,1,1.66-.69l26,23a1,1,0,0,1,.34.73c0,.4,1,41,5,54.75a1,1,0,0,1-.86,1.27l-30,3Zm-.1-79.87c-.69,17.91.82,69.66,1.07,77.77l27.76-2.78c-3.56-14.19-4.6-49.11-4.72-53.66Z"/>
        </g>
        <path d="M585.5,745.5,559.66,748l.34,0s0,41-7,58c0,0,15.21,19,20.6,28.31C590.48,804.25,585.5,745.5,585.5,745.5Z"/>
      </g>
      <path d="M558.5,287s41,22.92,36,77h-194s7-38.5-18-77Z"/>
      <g>
        <g>
          <path d="M451.41,219.76,411,261.18c-1.73,1.77-3.54,3.59-6.09,4.44-2.9,1-6.41.58-9.78.2-47.72-5.29-94.85-4.69-139.57,1.79A67.34,67.34,0,0,0,282.45,228c1-4.45,2.08-9.57,6.71-11.25a18.67,18.67,0,0,1,6.15-.67l48.22,0c35.74,0,71.59,0,108,3.9" style="fill: #ababab"/>
          <path d="M255.55,268.61a1,1,0,0,1-.58-1.82,66.61,66.61,0,0,0,26.5-39l.11-.47c1.06-4.54,2.27-9.68,7.24-11.49a19.53,19.53,0,0,1,6.49-.73l48.22,0c35,0,71.13,0,107.41,3.83a1,1,0,0,1,1.17.16.91.91,0,0,1,.17.23,1,1,0,0,1-.63,1.67L411.7,261.88c-1.71,1.76-3.66,3.75-6.49,4.69-3.1,1-6.7.63-10.18.25-47.75-5.3-94.62-4.7-139.33,1.78Zm93.71-51.56h-5.73l-48.22,0a17.87,17.87,0,0,0-5.81.61c-3.95,1.44-5,5.82-6,10.06l-.11.48a68.42,68.42,0,0,1-24.16,37.85,554,554,0,0,1,136-1.24c3.29.36,6.67.74,9.35-.16,2.37-.78,4.06-2.52,5.69-4.19l38.83-39.79C415.44,217.23,381.86,217.05,349.26,217.05Z"/>
        </g>
        <g>
          <path d="M435.52,206.65,413,248.12c-1.94,3.56-4.09,7.31-8.2,8.92-3.45,1.36-7.77,1-11.9.62a1094.23,1094.23,0,0,0-138.54-3.6l35.55-43.86a1025,1025,0,0,1,147.08-3" style="fill: #fff"/>
          <path d="M398.57,259c-2,0-3.94-.17-5.81-.34a1095.88,1095.88,0,0,0-138.41-3.6,1,1,0,0,1-.81-1.63l35.54-43.86a1,1,0,0,1,.68-.37,1028.72,1028.72,0,0,1,144.93-3.1,1,1,0,0,1,1.31-.33,1.08,1.08,0,0,1,.41.41l.58,0a1,1,0,0,1-.1,2l-1.05-.05-22,40.44c-1.84,3.37-4.13,7.58-8.71,9.38A18.11,18.11,0,0,1,398.57,259ZM294.8,252.29c32.43,0,65.29,1.46,98.14,4.38,4,.35,8.18.73,11.45-.56,3.91-1.53,6-5.38,7.69-8.47l21.55-39.59a1026.23,1026.23,0,0,0-143.26,3.11L256.48,253Q275.5,252.29,294.8,252.29Z"/>
        </g>
        <g>
          <path d="M430.94,189.13A499.06,499.06,0,0,1,396,246.67l-154.4.56a182.47,182.47,0,0,0,42.87-32.06c3.65-3.7,7.19-7.6,12.12-10s11.19-3.17,17.22-3.87l117.65-13.46" style="fill: #fff"/>
          <path d="M241.6,248.23a1,1,0,0,1-.48-1.88,181.45,181.45,0,0,0,42.64-31.88l1.06-1.08c3.31-3.38,6.73-6.88,11.33-9.12,5.24-2.56,11.5-3.28,17.55-4l117.64-13.46a1,1,0,0,1,1.11.88,1,1,0,0,1-.58,1,1,1,0,0,1,0,.84,504,504,0,0,1-35,57.66,1,1,0,0,1-.82.42l-154.4.56ZM429.87,189,313.93,202.29c-5.89.67-12,1.37-16.9,3.77-4.29,2.1-7.59,5.47-10.78,8.73l-1.07,1.08a182.81,182.81,0,0,1-39.7,30.35l150-.54A501.66,501.66,0,0,0,429.87,189Z"/>
        </g>
        <path d="M324,230.53a1.07,1.07,0,0,1-.43-.09,210.45,210.45,0,0,1-33.3-19.85,1,1,0,1,1,1.18-1.62,208.38,208.38,0,0,0,33,19.66,1,1,0,0,1-.43,1.9Z"/>
        <path d="M327.54,229.12a1,1,0,0,1-.39-1.92l81.46-33.91a1,1,0,0,1,1.3.54,1,1,0,0,1-.53,1.31l-81.46,33.91A1,1,0,0,1,327.54,229.12Z"/>
        <path d="M268.12,232.35a1,1,0,0,1-.39-1.92,171.58,171.58,0,0,1,32.7-10.31,1,1,0,1,1,.41,1.95,170.31,170.31,0,0,0-32.33,10.2A.88.88,0,0,1,268.12,232.35Z"/>
        <path d="M400.7,237.62a.9.9,0,0,1-.38-.08,368.29,368.29,0,0,1-39.78-19.3,1,1,0,1,1,1-1.74,368.1,368.1,0,0,0,39.57,19.2,1,1,0,0,1-.38,1.92Z"/>
      </g>
      <g>
        <path d="M407,202s-37,17-25,85H559s-21-50,14-82Z" style="fill: #fff"/>
        <path d="M559,288H382a1,1,0,0,1-1-.83c-6.26-35.43,1-56.91,8.13-68.69,7.81-12.86,17-17.21,17.43-17.39A1.08,1.08,0,0,1,407,201l166,3a1,1,0,0,1,.65,1.74c-34.06,31.14-14,80.38-13.75,80.87a1,1,0,0,1-.09.94A1,1,0,0,1,559,288Zm-176.16-2H557.55c-3-8.21-16.54-50.94,13-80l-163.31-3c-1.36.7-9.57,5.25-16.45,16.65S377,251.77,382.84,286Z"/>
      </g>
      <g>
        <path d="M594,171c-18-13-10-43-10-43-13-8-20-2-20-2-1,29,22,43,22,43-33-34-80-14-80-14-9,13,0,20,0,20,28-20,63-8,63-8-50-4-45.61,37.1-45.61,37.1l19.66.36C534.11,183.92,575,159,577,194s-15,18-15,18c-12,0-5.23,17.2-5.23,17.2C610.55,244.4,598,201,598,201Z" style="fill: #fff"/>
        <path d="M576.67,233.43a75.65,75.65,0,0,1-20.17-3.27,1,1,0,0,1-.66-.59c-.16-.42-4-10.36-.48-15.54,1.37-2,3.6-3,6.64-3a1.05,1.05,0,0,1,.71.29c0,.05,5.25,5.18,9,3.51,2.44-1.1,5.18-5.59,4.31-20.74-.49-8.59-3.4-14.09-8.42-15.91-5.49-2-13.24.79-18.86,6.76S541.35,198,544,204.06a1,1,0,0,1-.08.95,1.07,1.07,0,0,1-.85.45l-19.67-.36a1,1,0,0,1-1-.89c-.07-.67-1.62-16.52,9.35-27.79,6.43-6.59,15.74-10.16,27.77-10.64-12.16-2.11-34.25-3.31-52.93,10a1,1,0,0,1-1.19,0c-.1-.08-9.64-7.74-.21-21.36a1,1,0,0,1,.43-.35c.41-.17,35.92-14.87,66.92,3.09A49.46,49.46,0,0,1,563,126a1,1,0,0,1,.35-.73c.31-.26,7.71-6.38,21.17,1.91a1,1,0,0,1,.45,1.11c-.08.29-7.61,29.49,9.62,41.93a1,1,0,0,1,.4.68l4,29.93c.39,1.39,4.61,17.38-4.51,26.55C590.45,231.4,584.49,233.43,576.67,233.43Zm-19.13-5.05c17.2,4.78,29.14,4,35.51-2.43,8.5-8.55,4-24.51,4-24.67l0-.15-3.94-29.58c-16.56-12.36-11.36-38.27-10.22-43.07-10.36-6.11-16.41-2.95-17.86-2a48.15,48.15,0,0,0,13,34.21,67.33,67.33,0,0,1,8.73,7.58,1,1,0,0,1,.06,1.32,1,1,0,0,1-1.3.23,46.82,46.82,0,0,1-8.78-7.6c-29.85-21.53-66.57-7.81-70.05-6.44-6.88,10.15-2.26,16.2-.57,17.91,28-19.42,62.89-7.79,63.24-7.67a1,1,0,0,1,.66,1.15,1,1,0,0,1-1.06.8c-16.11-1.29-28.14,2-35.75,9.82-8.9,9.14-9,21.87-8.85,25.3l17.27.31c-2.12-6.45-.06-13.78,5.67-19.89,6.25-6.64,14.69-9.57,21-7.27,4.07,1.47,9.06,5.74,9.74,17.67.76,13.27-1,20.69-5.5,22.68s-9.57-2.39-10.89-3.61a5.37,5.37,0,0,0-4.6,2.14C554.45,218.91,556.85,226.44,557.54,228.38Z"/>
      </g>
      <g>
        <g>
          <path d="M752,218c-43-73-156-47-156-47-11,17,4,29,4,29s123-33,140,75-73.5,138.61-73.5,138.61-5.7,3.61-13.52,8.91c.25,10.69.29,21.66.18,32.72,3.74-1.2,7.75-2.54,12.06-4C792.44,407.43,795,291,752,218Z" style="fill: #fff"/>
          <path d="M641.49,166.5c36.41,0,85.4,8.87,110.51,51.5,43,73,40.44,189.43-86.78,233.22-4.31,1.48-8.32,2.82-12.06,4,.11-11.06.07-22-.18-32.72,7.82-5.3,13.52-8.91,13.52-8.91S757,383,740,275c-10.55-67-61.94-79.75-99.41-79.75A173.53,173.53,0,0,0,600,200s-15-12-4-29a224.52,224.52,0,0,1,45.49-4.5m0-2a229.65,229.65,0,0,0-45.94,4.55,2,2,0,0,0-1.23.86c-11.84,18.31,4.27,31.52,4.43,31.65A2,2,0,0,0,600,202a1.86,1.86,0,0,0,.52-.07,173.72,173.72,0,0,1,40.07-4.68c38.85,0,87.28,13.54,97.43,78.06,8.64,54.89-11.39,89-29.71,108a120.5,120.5,0,0,1-42.45,28.43,2.11,2.11,0,0,0-.43.2c-.06,0-5.82,3.69-13.57,8.94a2,2,0,0,0-.87,1.7c.23,10.26.29,21.25.17,32.66a2,2,0,0,0,2,2,2.15,2.15,0,0,0,.61-.09c3.82-1.24,7.89-2.59,12.1-4,27.38-9.43,50.34-22.68,68.23-39.39A138.86,138.86,0,0,0,770.05,360c8.35-22.64,10.94-48.3,7.48-74.21A185.06,185.06,0,0,0,753.72,217c-25.55-43.37-75.13-52.48-112.23-52.48Z"/>
        </g>
        <path d="M653.17,435.33q.09,9.87,0,19.91c3.74-1.2,7.75-2.54,12.06-4,59.22-20.38,91.41-56.5,104.59-96.65C726.36,419.48,674,432.67,653.17,435.33Z" style="fill: #ababab"/>
        <path d="M594,186.27s.79,3.52,2.26,9.63A23.1,23.1,0,0,0,600,200s123-33,140,75a158.71,158.71,0,0,1,1.63,38C757,143,594,186.27,594,186.27Z" style="fill: #ababab"/>
        <path d="M689.66,435.67a1,1,0,0,1-1-1.24c2.18-8.81-3.13-19-11.6-22.28a1,1,0,0,1,.72-1.87,21.55,21.55,0,0,1,12.82,24.63A1,1,0,0,1,689.66,435.67Z"/>
        <path d="M721.79,415a1,1,0,0,1-1-.75c-2.47-9.4-13-15.86-22.47-13.83a1,1,0,1,1-.42-2c10.49-2.24,22.09,4.9,24.82,15.28a1,1,0,0,1-.71,1.22A.78.78,0,0,1,721.79,415Z"/>
        <path d="M740.55,390.4a1,1,0,0,1-.85-.47,23.84,23.84,0,0,0-23.6-10.6,1,1,0,0,1-1.15-.82,1,1,0,0,1,.82-1.16,25.9,25.9,0,0,1,25.62,11.52,1,1,0,0,1-.31,1.38A1,1,0,0,1,740.55,390.4Z"/>
        <path d="M746.05,378a1,1,0,0,1-.9-.57,17.85,17.85,0,0,0-20.6-8.95,1,1,0,0,1-.59-1.91,19.91,19.91,0,0,1,23,10,1,1,0,0,1-.47,1.34A1.12,1.12,0,0,1,746.05,378Z"/>
        <path d="M766.49,334.14a1,1,0,0,1-.82-.42,19,19,0,0,0-25.76-4.16,1,1,0,0,1-1.2-1.6,21,21,0,0,1,28.59,4.61,1,1,0,0,1-.24,1.39A1,1,0,0,1,766.49,334.14Z"/>
        <path d="M772.12,309.38a1,1,0,0,1-.67-.26c-7.87-7.06-20.88-7.31-29-.54a1,1,0,0,1-1.28-1.54c8.86-7.37,23.05-7.11,31.63.59a1,1,0,0,1,.07,1.42A1,1,0,0,1,772.12,309.38Z"/>
        <path d="M742.09,269.28a1,1,0,0,1-.4-1.92,42.23,42.23,0,0,0,18.77-16.18,1,1,0,1,1,1.69,1.06,44.22,44.22,0,0,1-19.66,17A1.14,1.14,0,0,1,742.09,269.28Z"/>
        <path d="M732.53,244.65a1,1,0,0,1-.45-1.89,36.4,36.4,0,0,0,17.25-18.94,1,1,0,0,1,1.3-.56,1,1,0,0,1,.56,1.29,38.37,38.37,0,0,1-18.21,20A.91.91,0,0,1,732.53,244.65Z"/>
        <path d="M711.87,218.82a1,1,0,0,1-.14-2,22.53,22.53,0,0,0,18.08-16.33,1,1,0,0,1,1.94.5A24.58,24.58,0,0,1,712,218.81Z"/>
        <path d="M690.07,205.1a1,1,0,0,1-.47-1.88,22.14,22.14,0,0,0,11.2-22.8,1,1,0,0,1,2-.34A24.19,24.19,0,0,1,690.54,205,1,1,0,0,1,690.07,205.1Z"/>
        <path d="M667.64,198.94a1,1,0,0,1-.69-.27,1,1,0,0,1,0-1.42,24.05,24.05,0,0,0,5.67-22.38,1,1,0,1,1,1.93-.52,26.09,26.09,0,0,1-6.15,24.28A1,1,0,0,1,667.64,198.94Z"/>
        <path d="M639,195a1,1,0,0,1-.45-.1,1,1,0,0,1-.44-1.35,24.25,24.25,0,0,0-1.49-23.76,1,1,0,0,1,1.66-1.11,25.91,25.91,0,0,1,1.61,25.77A1,1,0,0,1,639,195Z"/>
        <path d="M625.08,194.92a1,1,0,0,1-.38-.07,1,1,0,0,1-.55-1.3A21.68,21.68,0,0,0,623,175.11a1,1,0,1,1,1.75-1A23.66,23.66,0,0,1,626,194.29,1,1,0,0,1,625.08,194.92Z"/>
      </g>
      <path d="M572,240l-13.21.1-5.44,3.55S630,297,635,465c4,135.51-33.57,307.46-48.27,368.89C597.36,833,612.42,832,623,832c0,0,10-126,17-199s25-265-8-324S572,240,572,240Z" style="fill: #ababab"/>
      <path d="M510.34,410.6c-22.08,0-42.22-1-59.35-2.27-53.11-4-89.47-12.11-89.83-12.19a1,1,0,0,1-.75-1.19,1,1,0,0,1,1.19-.76c.36.08,36.6,8.12,89.58,12.15,48.87,3.71,122.4,4.68,195.1-11.82a1,1,0,1,1,.44,2C599.26,407.25,551.45,410.6,510.34,410.6Z" style="fill: #1d1d1b"/>
      <path d="M373.41,429a.82.82,0,0,1-.26,0,1,1,0,0,1-.7-1.22,93,93,0,0,0-2.53-56.23,1,1,0,0,1,1.87-.69,95,95,0,0,1,2.59,57.44A1,1,0,0,1,373.41,429Z" style="fill: #1d1d1b"/>
      <path d="M382.57,416.67h-.08a1,1,0,0,1-.92-1.07,89.13,89.13,0,0,0-1.46-24,1,1,0,0,1,2-.39,90.69,90.69,0,0,1,1.49,24.55A1,1,0,0,1,382.57,416.67Z" style="fill: #1d1d1b"/>
      <path d="M636.81,388.81a4.81,4.81,0,0,1-4.39-2.71,4.15,4.15,0,0,1,.11-3.36,3.63,3.63,0,0,1,2.28-2,1,1,0,0,1,.59,0,1,1,0,0,1,0-.75,3.2,3.2,0,0,1,2.47-1.92,4,4,0,0,1,3.59,1.08,5.45,5.45,0,0,1,.59,6.07,6.26,6.26,0,0,1-4.45,3.51A4.22,4.22,0,0,1,636.81,388.81Zm-.8-7.49,0,.11a1,1,0,0,1-.69,1.23,1.7,1.7,0,0,0-1,.94,2.11,2.11,0,0,0-.07,1.7,2.83,2.83,0,0,0,3,1.47,4.25,4.25,0,0,0,3-2.42,3.49,3.49,0,0,0-.24-3.81,2,2,0,0,0-1.77-.5,1.28,1.28,0,0,0-1,.71A1,1,0,0,1,636,381.32Z" style="fill: #1d1d1b"/>
      <path d="M639.3,413.65a5.3,5.3,0,0,1-4.87-3.09,4.76,4.76,0,0,1,0-3.65,4.38,4.38,0,0,1,2.35-2.43,1.08,1.08,0,0,1,.11-.28,3.91,3.91,0,0,1,2.64-1.91,4.54,4.54,0,0,1,3.67.77,5.69,5.69,0,0,1,1.75,6.12,6.33,6.33,0,0,1-4.75,4.39A5.82,5.82,0,0,1,639.3,413.65Zm-1.11-8.06a1,1,0,0,1-.61.74,2.38,2.38,0,0,0-1.28,1.34,2.76,2.76,0,0,0,0,2.11,3.35,3.35,0,0,0,3.6,1.82,4.26,4.26,0,0,0,3.18-3,3.71,3.71,0,0,0-1-4,2.5,2.5,0,0,0-2-.4,1.88,1.88,0,0,0-1.31.9A1,1,0,0,1,638.19,405.59Z" style="fill: #1d1d1b"/>
      <path d="M409.12,552.42H409a1,1,0,0,1-.9-1.09,307.76,307.76,0,0,0-1.43-74.1,1,1,0,0,1,2-.28,309.69,309.69,0,0,1,1.44,74.58A1,1,0,0,1,409.12,552.42Z" style="fill: #1d1d1b"/>
      <path d="M511.28,486.31A510.15,510.15,0,0,1,408.85,475.9a1,1,0,1,1,.4-1.95,507.44,507.44,0,0,0,183.59,3.77,1,1,0,1,1,.32,2A511.7,511.7,0,0,1,511.28,486.31Z" style="fill: #1d1d1b"/>
      <path d="M592.31,555h-.08a1,1,0,0,1-.92-1.08,528,528,0,0,0,.73-75.36,1,1,0,0,1,2-.13,529.1,529.1,0,0,1-.74,75.65A1,1,0,0,1,592.31,555Z" style="fill: #1d1d1b"/>
      <path d="M518.59,556.3c-37.09,0-74.24-.82-111.07-2.47a1,1,0,0,1,.09-2c61.15,2.73,123.18,3.2,184.36,1.39a1,1,0,0,1,1,1,1,1,0,0,1-1,1Q555.46,556.3,518.59,556.3Z" style="fill: #1d1d1b"/>
      <path d="M434.45,542.73a1,1,0,0,1-1-1l-1.91-41.25a1,1,0,0,1,1-1,1,1,0,0,1,1,.95l1.91,41.25a1,1,0,0,1-1,1.05Z" style="fill: #1d1d1b"/>
      <path d="M469.57,542.7a1,1,0,0,1-.92-.61,58.17,58.17,0,0,1-3.69-32l-13.33,19a1,1,0,0,1-.88.42,1,1,0,0,1-.82-.51l-13-23.59a1,1,0,0,1,.4-1.36,1,1,0,0,1,1.35.39l12.27,22.19L466.13,505a1,1,0,0,1,1.79.82,56.13,56.13,0,0,0,2.57,35.54,1,1,0,0,1-.54,1.3A.84.84,0,0,1,469.57,542.7Z" style="fill: #1d1d1b"/>
      <path d="M502.44,546.89a1,1,0,0,1-1-.95,149,149,0,0,0-6.13-35.36,119.88,119.88,0,0,0-9.72,34.07,1,1,0,1,1-2-.26,122,122,0,0,1,11-37,1,1,0,0,1,1-.56,1,1,0,0,1,.88.69,150.62,150.62,0,0,1,7,38.33,1,1,0,0,1-.95,1Z" style="fill: #1d1d1b"/>
      <path d="M501.15,533.42h-.08l-16.62-1.34a1,1,0,1,1,.16-2l16.62,1.33a1,1,0,0,1,.92,1.08A1,1,0,0,1,501.15,533.42Z" style="fill: #1d1d1b"/>
      <path d="M526.29,538.6a1,1,0,0,1-1-.92l-2.71-35.78a1,1,0,0,1,2-.15l2.71,35.78a1,1,0,0,1-.92,1.07Z" style="fill: #1d1d1b"/>
      <path d="M547.29,541.05a4.91,4.91,0,0,1-2.88-.8c-2.09-1.49-2-4.49-2-5.93l.49-31.05a1,1,0,0,1,2,0l-.49,31.05c0,1.76.09,3.49,1.18,4.26.89.64,2.29.46,3.64.22l27.09-4.73a1,1,0,0,1,.35,2l-27.09,4.74A13.88,13.88,0,0,1,547.29,541.05Z" style="fill: #1d1d1b"/>
      <g>
        <path d="M309,444c0,14.36-8.64,18-23,18s-12.78-1.28-17-15c-4-13,3.64-27,18-27S309,429.64,309,444Z" style="fill: #fff"/>
        <path d="M287,420c14.36,0,22,9.64,22,24s-8.64,18-23,18-12.78-1.28-17-15c-4-13,3.64-27,18-27m0-2a20.15,20.15,0,0,0-16.66,8.21,24.13,24.13,0,0,0-3.25,21.38c.5,1.62.92,3.08,1.29,4.37,3.08,10.68,4.26,12,17.62,12,12.36,0,25-2.38,25-20,0-16-9.2-26-24-26Z"/>
      </g>
      <path d="M580.2,498.87a1,1,0,0,1-.47-.12l-5-2.69a1,1,0,0,1,1-1.76l4.1,2.22a3,3,0,0,0-.7-3.13,3,3,0,0,0-3.87.05,1,1,0,0,1-1.38-1.45,4.84,4.84,0,0,1,7.13,6.5A1,1,0,0,1,580.2,498.87Z" style="fill: #1d1d1b"/>
      <path d="M418.05,492.7a1,1,0,0,1-.93-.64l-1.32-3.46a1,1,0,0,1,.58-1.29,1,1,0,0,1,1.29.58l.89,2.32a2.61,2.61,0,0,0,.27-1.79c-.12-.74-.6-1.95-1.74-1.85a1,1,0,0,1-.18-2c1.91-.19,3.51,1.26,3.89,3.5s-.64,4.13-2.5,4.59Z" style="fill: #1d1d1b"/>
      <path d="M365.61,763.84a1,1,0,0,1-.1-2l33-3.14a1,1,0,0,1,1.09.9,1,1,0,0,1-.9,1.09l-33,3.14Z" style="fill: #1d1d1b"/>
      <path d="M435,754.64a1,1,0,0,1-1-1V733a1,1,0,0,1,2,0v20.64A1,1,0,0,1,435,754.64Z" style="fill: #1d1d1b"/>
      <path d="M451.26,753.26h0a1,1,0,0,1-1-1l1-77a1,1,0,0,1,1-1h0a1,1,0,0,1,1,1l-1,77A1,1,0,0,1,451.26,753.26Z" style="fill: #1d1d1b"/>
      <path d="M607,774.14a1,1,0,0,1-.08-2l17.88-1.44a1,1,0,0,1,1.08.91,1,1,0,0,1-.92,1.08l-17.88,1.44Z" style="fill: #1d1d1b"/>
      <path d="M601.49,786.27a.79.79,0,0,1-.3,0l-1-.31a1,1,0,0,1,.21-1.95l14.71-1.41a1,1,0,0,1,.2,2l-13,1.24A1,1,0,0,1,601.49,786.27Z" style="fill: #1d1d1b"/>
      <path d="M397.76,244.21h-.07a1,1,0,0,1-.92-1.07,50.89,50.89,0,0,1,28-41.16,1,1,0,1,1,.88,1.8,48.87,48.87,0,0,0-26.86,39.51A1,1,0,0,1,397.76,244.21Z" style="fill: #1d1d1b"/>
      <path d="M409,241.48h-.11a1,1,0,0,1-.88-1.11A38.36,38.36,0,0,1,417.61,219a1,1,0,0,1,1.48,1.34,36.37,36.37,0,0,0-9,20.24A1,1,0,0,1,409,241.48Z" style="fill: #1d1d1b"/>
      <g>
        <path d="M274.8,440.47c-19.37,33.17-97.45,194.46,194.7,224,0,0,12-13,3-26,0,0-180-25-185-101-4.41-67,27.92-101.06-1.31-103.09A12.24,12.24,0,0,0,274.8,440.47Z" style="fill: #fff"/>
        <path d="M285.35,434.38q.42,0,.84,0c29.23,2-3.1,36.11,1.31,103.09,5,76,185,101,185,101,9,13-3,26-3,26-292.15-29.57-214.07-190.86-194.7-224a12.25,12.25,0,0,1,10.55-6.09m0-2a14.29,14.29,0,0,0-12.28,7.08A189.79,189.79,0,0,0,252.26,492c-6.54,29.4-3.87,56.07,7.94,79.28,26.36,51.79,96.71,83.82,209.1,95.2h.2a2,2,0,0,0,1.47-.64c.13-.15,13-14.34,3.17-28.5a2,2,0,0,0-1.36-.84c-.45-.06-45.38-6.41-90.3-21.93-26.29-9.08-47.41-19.46-62.79-30.87-18.94-14-29.09-29.63-30.19-46.35-2-29.9,3.43-53.09,7.38-70,3.38-14.49,5.61-24.07,1.34-29.84-2.26-3.07-6-4.69-11.89-5.09-.33,0-.66,0-1,0Z" style="fill: #1d1d1b"/>
      </g>
      <path d="M355,625c-81.41-30.77-98.31-94.42-99.95-136.14-15,60.87-.45,153.89,214.45,175.64a27.54,27.54,0,0,0,5.87-11.44C453.73,653.72,416.8,648.36,355,625Z" style="fill: #ababab"/>
      <g>
        <path d="M622.72,621.83S604.35,636.14,603.51,674c0,0-67.54,2.7-100-18.47,0,0-3.8-40.71,22.07-56.82Z"/>
        <path d="M596.53,675.1c-18.22,0-67.39-1.67-93.52-18.74a1,1,0,0,1-.45-.74c0-.41-3.56-41.51,22.53-57.76a1,1,0,0,1,.76-.12L623,620.86a1,1,0,0,1,.74.76,1,1,0,0,1-.36,1c-.18.14-18,14.53-18.83,51.4a1,1,0,0,1-1,1C603.42,675,600.84,675.1,596.53,675.1Zm-92-20.14c29.87,19.13,89.81,18.28,98,18.07,1-31.36,13.68-46.38,18.1-50.67L525.8,599.78C502.6,614.59,504.21,650.39,504.51,655Z" style="fill: #1d1d1b"/>
      </g>
      <g>
        <path d="M609.43,606.21s-14,18.58-5.08,55.37c0,0-64.54,20.06-101.33,8,0,0-14.2-38.35,6.62-60.59Z" style="fill: #fff"/>
        <path d="M609.43,606.21s-14,18.58-5.08,55.37c0,0-38.15,11.86-72.5,11.86-10.34,0-20.33-1.07-28.83-3.86,0,0-14.2-38.35,6.63-60.59l99.78-2.78m0-2h-.06L509.59,607a2,2,0,0,0-1.4.63c-8.91,9.52-12.95,23.4-11.66,40.16a90.71,90.71,0,0,0,4.61,22.49,2,2,0,0,0,1.26,1.21c8,2.62,17.92,4,29.45,4,34.26,0,72.71-11.83,73.1-12a2,2,0,0,0,1.34-2.39c-8.65-35.45,4.6-53.5,4.73-53.68a2,2,0,0,0-1.59-3.21Zm0,4Z" style="fill: #1d1d1b"/>
      </g>
      <g>
        <path d="M473.77,638S471,625.94,503.3,617.47c0,0-7.08,9.87-6.56,19.7,0,0,25.24,17.83,63.56,2.83,0,0,6.18,6,2.47,14,0,0-14.83,8-55.62,0,0,0,18.54,11,45.73,8,0,0,8.66,10,0,18,0,0-32.14-1-55.62-11a42.7,42.7,0,0,0,32.14,14s0,11-11.13,14c0,0-37.21-11-48.27-33.5C470,663.5,482.42,651,473.77,638Z" style="fill: #fff"/>
        <path d="M518.27,698a.9.9,0,0,1-.28,0c-1.54-.46-37.76-11.39-48.89-34a1,1,0,0,1,.19-1.14c.48-.49,11.74-12.09,3.65-24.25a.81.81,0,0,1-.14-.33c-.12-.53-2.59-13.1,30.25-21.71a1,1,0,0,1,1.08.4,1,1,0,0,1,0,1.15c-.07.09-6.64,9.36-6.4,18.56,3.36,2.13,27.46,16,62.22,2.45a1,1,0,0,1,1.06.21c.07.07,6.64,6.6,2.68,15.14a1,1,0,0,1-.43.46c-.58.31-13.65,7.06-48.37,1.51a82.76,82.76,0,0,0,37.9,4.62,1,1,0,0,1,.86.34c.09.1,9.18,10.83-.08,19.38a1,1,0,0,1-.71.27c-.3,0-28.63-1-51.44-9.29a42.8,42.8,0,0,0,28,10.29,1,1,0,0,1,1,1c0,.12-.14,11.8-11.87,15A1.09,1.09,0,0,1,518.27,698ZM471.2,663.66c10.6,20.46,43.75,31.26,47.09,32.3a13.64,13.64,0,0,0,10-12c-20.56-.45-31.4-13.79-31.86-14.37a1,1,0,0,1,1.18-1.54c21.62,9.2,51,10.74,54.85,10.9,6.57-6.43,1.37-14.09,0-15.93-26.93,2.81-45.63-8.08-45.81-8.19a1,1,0,0,1-.43-1.22,1,1,0,0,1,1.13-.62c36.82,7.22,52.41,1.24,54.67.23a11.43,11.43,0,0,0-2-12.07c-38,14.57-63.61-3-63.87-3.19a1,1,0,0,1-.42-.77c-.39-7.34,3.22-14.56,5.32-18.1-26.27,7.47-26.43,17.2-26.33,18.52C482.47,649.54,473.48,661.07,471.2,663.66Z" style="fill: #1d1d1b"/>
      </g>
      <path d="M553.2,637.42a1,1,0,0,1-.77-.35c-21.31-25.38-42.85-27.52-43.07-27.54a1,1,0,0,1-.91-1.09,1,1,0,0,1,1.09-.9c.9.07,22.07,2.19,43.65,27.33,3.71-4.27,20.59-21.62,55-28a1,1,0,0,1,1.17.8,1,1,0,0,1-.8,1.16C570.21,616,554.16,636.81,554,637a1,1,0,0,1-.77.4Z"/>
      <path d="M601.87,648.54a1,1,0,0,1-.53-.15l-35-22.29a1,1,0,0,1,1.07-1.69l35,22.29a1,1,0,0,1-.54,1.84Z"/>
      <path d="M510.58,641.4a1,1,0,0,1-.55-1.83l26.73-17.41a1,1,0,0,1,1.09,1.67l-26.72,17.41A1,1,0,0,1,510.58,641.4Z"/>
      <path d="M289.16,479.49a28.28,28.28,0,0,1-24.33-14.24,1,1,0,1,1,1.76-1,26.06,26.06,0,0,0,25.86,13,1,1,0,1,1,.29,2A24,24,0,0,1,289.16,479.49Z"/>
      <path d="M278.59,496.2a25.17,25.17,0,0,1-21.91-13.14,1,1,0,1,1,1.77-.92,23,23,0,0,0,23,11.85,1,1,0,0,1,1.13.85,1,1,0,0,1-.85,1.13A22.43,22.43,0,0,1,278.59,496.2Z"/>
      <path d="M269.76,525.35a27.07,27.07,0,0,1-18.4-6.93,1,1,0,0,1,0-1.42,1,1,0,0,1,1.41,0c7.94,7.43,21.28,8.56,30.36,2.57a1,1,0,0,1,1.39.29,1,1,0,0,1-.29,1.38A26.24,26.24,0,0,1,269.76,525.35Z"/>
      <path d="M269.06,554.05a27,27,0,0,1-15.43-4.73,1,1,0,0,1-.25-1.39,1,1,0,0,1,1.4-.25,25.81,25.81,0,0,0,28.35.14,1,1,0,1,1,1.12,1.65A27,27,0,0,1,269.06,554.05Z"/>
      <path d="M276.62,576.48a26.78,26.78,0,0,1-12-2.78,1,1,0,0,1-.44-1.35,1,1,0,0,1,1.34-.44,25.88,25.88,0,0,0,29.19-4.68,1,1,0,1,1,1.41,1.41A27.76,27.76,0,0,1,276.62,576.48Z"/>
      <path d="M288.53,598.86a20.07,20.07,0,0,1-5.9-.87,1,1,0,1,1,.59-1.91c9.62,3,21.15-2.7,24.68-12.13a1,1,0,1,1,1.87.7C306.6,593.14,297.52,598.86,288.53,598.86Z"/>
      <path d="M310.53,620.11a1,1,0,0,1,0-2c11.19-.58,21.27-9.72,22.93-20.8a1,1,0,0,1,1.14-.84,1,1,0,0,1,.84,1.13c-1.8,12-12.7,21.87-24.81,22.5Z"/>
      <path d="M338.79,626.77a1,1,0,0,1-.77-.36,1,1,0,0,1,.14-1.41,18.49,18.49,0,0,0,6.46-16.38,1,1,0,0,1,2-.26,20.49,20.49,0,0,1-7.18,18.19A1,1,0,0,1,338.79,626.77Z"/>
      <path d="M364.23,646a1,1,0,0,1-.64-1.77,32.82,32.82,0,0,0,11.3-28.76,1,1,0,0,1,2-.25,34.86,34.86,0,0,1-12,30.55A1,1,0,0,1,364.23,646Z"/>
      <path d="M378.84,646.21a1,1,0,0,1-.65-1.77,20,20,0,0,0,6.28-19.85,1,1,0,1,1,1.93-.52A21.76,21.76,0,0,1,379.48,646,1,1,0,0,1,378.84,646.21Z"/>
      <path d="M410.76,656.68a1,1,0,0,1-.58-1.81A19.33,19.33,0,0,0,417.13,634a1,1,0,0,1,1.9-.62,21.11,21.11,0,0,1-7.7,23.17A1,1,0,0,1,410.76,656.68Z"/>
      <path d="M423.71,660.05a1,1,0,0,1-.65-1.76,19.86,19.86,0,0,0,4.27-23.59,1,1,0,0,1,1.76-1,21.92,21.92,0,0,1-4.72,26A1,1,0,0,1,423.71,660.05Z"/>
      <path d="M447.26,659.52a1,1,0,0,1-.79-.39,1,1,0,0,1,.17-1.4,15.66,15.66,0,0,0,4.41-18.07,1,1,0,0,1,1.83-.82,17.5,17.5,0,0,1-5,20.46A1,1,0,0,1,447.26,659.52Z"/>
      <path d="M418.48,547.28a4,4,0,0,1-3.65-3,1,1,0,0,1,.69-1.23,1,1,0,0,1,1.13.45,2.34,2.34,0,0,1,1.34-1.46,2.47,2.47,0,0,1,3.09.68,2.67,2.67,0,0,1,.19,2.66,3.14,3.14,0,0,1-2.44,1.85A2.06,2.06,0,0,1,418.48,547.28Zm-.42-2.07a1.16,1.16,0,0,0,.55.06,1.13,1.13,0,0,0,.84-.68.73.73,0,0,0,0-.68c-.06-.1-.25-.11-.41-.08a.66.66,0,0,0-.47.26A1,1,0,0,1,418.06,545.21Z" style="fill: #1d1d1b"/>
      <path d="M582.23,550.73a4.05,4.05,0,0,1-1.5-.3,3.84,3.84,0,0,1-2.31-2.51,3.89,3.89,0,0,1,.61-3.21,4,4,0,0,1,2.87-1.78,1,1,0,0,1,1.07.73,3,3,0,0,1,1.33.53,3.53,3.53,0,0,1,1.41,3,3.64,3.64,0,0,1-1.68,3A3.53,3.53,0,0,1,582.23,550.73Zm-1.82-3.14a1.89,1.89,0,0,0,1.07,1,1.75,1.75,0,0,0,1.52,0,1.7,1.7,0,0,0,.71-1.38,1.54,1.54,0,0,0-.56-1.33,1.52,1.52,0,0,0-1.47,0,1.41,1.41,0,0,0-.85,1.06A1,1,0,0,1,580.41,547.59Z" style="fill: #1d1d1b"/>
      <path d="M280.49,770.43a1,1,0,0,1-.07-2l19.23-1.36a1,1,0,1,1,.14,2l-19.23,1.36Z" style="fill: #1d1d1b"/>
      <path d="M289.19,758.39h-.05l-8.72-.43a1,1,0,0,1-.95-1,1,1,0,0,1,1-.95l8.72.43a1,1,0,0,1-.05,2Z" style="fill: #1d1d1b"/>
      <path d="M359.05,789.09c-1.44,0-2.88,0-4.32-.08a1,1,0,0,1,.08-2,107,107,0,0,0,26.36-2.22,1,1,0,0,1,1.19.78,1,1,0,0,1-.78,1.18A109.28,109.28,0,0,1,359.05,789.09Z" style="fill: #fff"/>
      <path d="M353.4,801.94a1,1,0,0,1,0-2l15.14-.39a1,1,0,0,1,1,1,1,1,0,0,1-1,1l-15.14.39Z" style="fill: #1d1d1b"/>
      <g>
        <rect x="438" y="322.5" width="32" height="10.5" style="fill: #fff"/>
        <path d="M470,334.5H438a1.5,1.5,0,0,1-1.5-1.5V322.5A1.5,1.5,0,0,1,438,321h32a1.5,1.5,0,0,1,1.5,1.5V333A1.5,1.5,0,0,1,470,334.5Zm-30.5-3h29V324h-29Z" style="fill: #fff"/>
      </g>
      <g>
        <rect x="521.5" y="303" width="9.5" height="34" style="fill: #fff"/>
        <path d="M531,338.5h-9.5A1.5,1.5,0,0,1,520,337V303a1.5,1.5,0,0,1,1.5-1.5H531a1.5,1.5,0,0,1,1.5,1.5v34A1.5,1.5,0,0,1,531,338.5Zm-8-3h6.5v-31H523Z" style="fill: #fff"/>
      </g>
      <g>
        <g>
          <g>
            <path d="M215.58,399.65c-8.8,38.14-37.66,71-74.33,84.71a203.93,203.93,0,0,1,44.2,39.27,279.72,279.72,0,0,0,84.86-107.3A140.06,140.06,0,0,1,215.77,398Z" style="fill: #fff"/>
            <path d="M215.77,398a140.06,140.06,0,0,0,54.54,18.35,279.72,279.72,0,0,1-84.86,107.3,204.17,204.17,0,0,0-44.2-39.27c36.67-13.68,65.53-46.57,74.33-84.71l.19-1.67m0-2a2,2,0,0,0-.89.21,2,2,0,0,0-1.1,1.57l-.17,1.55c-8.63,37.2-37.29,69.83-73.06,83.18a2,2,0,0,0-1.29,1.65,2,2,0,0,0,.89,1.9,200.9,200.9,0,0,1,43.76,38.88,2,2,0,0,0,1.54.71,2,2,0,0,0,1.21-.41,281.23,281.23,0,0,0,85.48-108.07,2,2,0,0,0-1.59-2.81,138.63,138.63,0,0,1-53.77-18.08,1.93,1.93,0,0,0-1-.28Z"/>
          </g>
          <path d="M145.66,487.88a1,1,0,0,1-1-.95,1,1,0,0,1,.94-1.05A181.4,181.4,0,0,0,224,462.94a1,1,0,0,1,1.36.37,1,1,0,0,1-.38,1.37,183.45,183.45,0,0,1-79.31,23.2Z"/>
          <path d="M226.91,462l-.21,0a1,1,0,0,1-.76-1.2,102.11,102.11,0,0,0-4.72-59.1,1,1,0,0,1,1.86-.73,104.14,104.14,0,0,1,4.81,60.27A1,1,0,0,1,226.91,462Z"/>
          <path d="M174.82,512.39a1,1,0,0,1-.53-.15,1,1,0,0,1-.32-1.38,78,78,0,0,0,10.56-28.8,1,1,0,1,1,2,.3,79.6,79.6,0,0,1-10.83,29.55A1,1,0,0,1,174.82,512.39Z"/>
        </g>
        <path d="M231,433.61a1,1,0,0,1-.23-2,77.74,77.74,0,0,0,29-13.57,1,1,0,1,1,1.21,1.59,79.64,79.64,0,0,1-29.74,13.93Z"/>
      </g>
      <g>
        <path d="M335.7,388.77a.83.83,0,0,1-.22,0,142.09,142.09,0,0,1-69.77-39.54,1,1,0,0,1,1.44-1.38,140.24,140.24,0,0,0,68.77,39,1,1,0,0,1-.22,2Z" style="fill: #fff"/>
        <path d="M264,371.47a3.56,3.56,0,0,1-.91-.12,1,1,0,1,1,.48-1.94,2.79,2.79,0,0,0,2.71-4,2.79,2.79,0,0,0-4.64,1.34,1,1,0,0,1-1.07.93,1,1,0,0,1-.93-1.06,4.48,4.48,0,1,1,8.1,2.69A4.62,4.62,0,0,1,264,371.47Z" style="fill: #fff"/>
        <path d="M339.38,373.67l-.45,0a4.93,4.93,0,0,1-3.83-2.23,1,1,0,0,1,.32-1.38,1,1,0,0,1,1.38.33,3,3,0,0,0,2.29,1.29,2.79,2.79,0,1,0-2.71-3.15,1,1,0,1,1-2-.22,4.92,4.92,0,1,1,8.68,3.79A4.87,4.87,0,0,1,339.38,373.67Z" style="fill: #fff"/>
        <path d="M350.05,530.83H350a1,1,0,0,1-.94-1.05A639.76,639.76,0,0,0,345.53,417a1,1,0,0,1,2-.24A641.83,641.83,0,0,1,351,529.89,1,1,0,0,1,350.05,530.83Z" style="fill: #fff"/>
        <path d="M336.42,566.62h0a1,1,0,0,1-1-1l.69-76.14a1,1,0,0,1,1-1h0a1,1,0,0,1,1,1l-.69,76.14A1,1,0,0,1,336.42,566.62Z" style="fill: #fff"/>
        <path d="M314.31,438.13a.91.91,0,0,1-.23,0,1,1,0,0,1-.75-1.19,21.44,21.44,0,0,0-25.48-25.71,1,1,0,1,1-.43-1.95,23.43,23.43,0,0,1,27.86,28.1A1,1,0,0,1,314.31,438.13Z" style="fill: #fff"/>
        <path d="M320.58,415.52a1,1,0,0,1-1-1,8.62,8.62,0,0,0-8.24-7.84h-.15a1,1,0,0,1-1-1,1,1,0,0,1,1-1h.16a10.58,10.58,0,0,1,10.24,9.75,1,1,0,0,1-.95,1Z" style="fill: #fff"/>
        <path d="M256.86,687.91a1,1,0,0,1-1-.95l-5.15-103.17a1,1,0,0,1,.95-1,1,1,0,0,1,1.05,1l5.15,103.17a1,1,0,0,1-.95,1Z" style="fill: #fff"/>
        <path d="M263.74,648a1,1,0,0,1-1-1l-2.07-42a1,1,0,1,1,2-.1l2.07,42a1,1,0,0,1-.95,1Z" style="fill: #fff"/>
      </g>
    </g>
    <g id="bdaf8eec-ac1f-43d1-8b03-dc892e8197d7" data-name="pattern">
      <path d="M648,136.84a150.29,150.29,0,0,1,44.66-1.32,152.69,152.69,0,0,1,43.17,11.69,149.75,149.75,0,0,1,22.17,12c1.62,1.06,3.13-1.54,1.52-2.59a153.12,153.12,0,0,0-41.53-19,156.56,156.56,0,0,0-45.08-6.15,152.93,152.93,0,0,0-25.71,2.48c-1.9.35-1.09,3.24.8,2.9Z"/>
      <path d="M704,118.24a71,71,0,0,1,41.42,16.14c1.48,1.22,3.61-.89,2.13-2.12a74.4,74.4,0,0,0-43.55-17c-1.93-.1-1.92,2.9,0,3Z"/>
      <path d="M708.72,490.61c4.64-6.06,14.32-7.2,20.45-2.84,6.37,4.55,7.27,14.43,2.9,20.62a9.48,9.48,0,0,1-8.85,4.16,3.77,3.77,0,0,1-2.36-6.51c2.89-3.17,7.44-3.72,11.49-3.47a28.26,28.26,0,0,1,13.19,4.3,27.72,27.72,0,0,1,12.32,27.56c-.3,1.88,2.59,2.7,2.9.79a30.91,30.91,0,0,0-12.09-29.85,31.22,31.22,0,0,0-15.54-5.74c-5-.43-10.37.32-14.07,4-3.14,3.09-3.39,8.44.69,10.89,3.57,2.14,8.63,1.1,11.81-1.28,7.73-5.8,8-18.31,2-25.38-7-8.33-21.07-7.09-27.47,1.28-1.17,1.53,1.43,3,2.59,1.51Z"/>
      <path d="M201,350.53a137,137,0,0,1-22.77,73,132.52,132.52,0,0,1-13.52,17.16c-1.31,1.41.8,3.54,2.12,2.12a140,140,0,0,0,35-70.18A137.88,137.88,0,0,0,204,350.53c0-1.93-3-1.93-3,0Z"/>
      <path d="M305.19,175a125.37,125.37,0,0,1-25.6-33c-.91-1.71-3.5-.19-2.59,1.51a127.49,127.49,0,0,0,26.06,33.6c1.42,1.31,3.55-.81,2.13-2.12Z"/>
      <path d="M312.25,168.27l-7-16.44a1.5,1.5,0,0,0-2.05-.54,1.54,1.54,0,0,0-.54,2.05l7,16.45a1.51,1.51,0,0,0,2,.54,1.55,1.55,0,0,0,.54-2.06Z"/>
      <path d="M329,168.91l1.2-24.77c.1-1.93-2.91-1.92-3,0L326,168.91c-.09,1.93,2.91,1.93,3,0Z"/>
      <path d="M165.12,657.89a8.77,8.77,0,0,0,8.48-3.79,7.83,7.83,0,0,0,.35-8.63,9.25,9.25,0,0,0-7.27-4.3,7.88,7.88,0,0,0-7.13,4.1,8.71,8.71,0,0,0,0,8.94c1.05,1.62,3.65.11,2.59-1.51-2-3-.21-8,3.53-8.5a6,6,0,0,1,5.19,2.13,4.72,4.72,0,0,1,.71,5.29,6.24,6.24,0,0,1-2.37,2.59,5.14,5.14,0,0,1-3.31.79,1.54,1.54,0,0,0-1.84,1,1.5,1.5,0,0,0,1.05,1.84Z"/>
      <path d="M674.58,267.43c5.4,2.6,11.92-1.89,12.49-7.6a7.29,7.29,0,0,0-3.26-6.68,9.85,9.85,0,0,0-7.15-1.35,8.05,8.05,0,0,0-6.21,4.87,1.5,1.5,0,0,0,1,1.84,1.53,1.53,0,0,0,1.84-1c-.09.22.17-.31.22-.4l.18-.29c0-.06.22-.3,0-.08a5.47,5.47,0,0,1,.45-.51l.2-.18s.32-.27.11-.11a6.88,6.88,0,0,1,1.16-.7c.26-.13.08,0,0,0l.32-.12a6.14,6.14,0,0,1,.73-.22c.22-.06.45-.11.68-.15s.08,0,0,0l.42,0a8.18,8.18,0,0,1,1.4,0l.22,0,.22,0a5.58,5.58,0,0,1,.68.16,5.76,5.76,0,0,1,.59.18l.32.13c-.28-.12.12.06.14.07a4.42,4.42,0,0,1,.6.34l.23.14s.37.29.12.09a5.92,5.92,0,0,1,.45.41c.09.08.49.56.34.36a4,4,0,0,1,.89,2.3,4.84,4.84,0,0,1-.56,2.56,6.84,6.84,0,0,1-1.88,2.32,6.66,6.66,0,0,1-2.73,1.34l-.38.07c-.11,0-.11,0,0,0l-.31,0a6.77,6.77,0,0,1-.78,0,3.55,3.55,0,0,1-.68-.12,4.91,4.91,0,0,1-.69-.25,1.55,1.55,0,0,0-2.06.53,1.53,1.53,0,0,0,.54,2.06Z"/>
    </g>
  </g>
</svg>
