<svg xmlns="http://www.w3.org/2000/svg" width="1000" height="1000" viewBox="0 0 1000 1000">
  <g id="fdf1b3fe-345a-4b55-994c-1aa6ce9fbbd4" data-name="Welcome">
    <g id="fc386016-3350-48ad-bd3c-c9f9f734513f" data-name="background">
      <path d="M436.75,752.15q-110.69,0-220.79-3a1.5,1.5,0,0,1,0-3h0c194.22,5.37,391.13,3.62,585.25-5.21a1.47,1.47,0,0,1,1.57,1.43,1.5,1.5,0,0,1-1.43,1.56C680.52,749.39,558.5,752.15,436.75,752.15Z" style="fill: #dbdbdb"/>
      <g id="a2106ec6-4f5d-472c-9d63-83c9da1797c8" data-name="1">
        <path d="M826.77,579a113.27,113.27,0,0,1-15.42-1,1.51,1.51,0,0,1-1.29-1.34l-2.27-23.15a1.47,1.47,0,0,1-.84-1.25,1.49,1.49,0,0,1,1.4-1.59l50.46-3.1A1.52,1.52,0,0,1,860,548a1.51,1.51,0,0,1,.42,1.18l-2.09,24.41a1.51,1.51,0,0,1-1.09,1.32A114.42,114.42,0,0,1,826.77,579Zm-13.84-3.87a111,111,0,0,0,42.48-2.87l1.85-21.64-46.45,2.85Z" style="fill: #e6e6e6"/>
        <path d="M832.84,587.83a1.51,1.51,0,0,1-1-.34,1.46,1.46,0,0,1-.54-1l-.69-6.91a1.5,1.5,0,1,1,3-.29l.54,5.4c13-1.33,26.16-2.06,39.2-2.16l-.78-15.46a2.82,2.82,0,0,0-.12-.81c-.05,0-.27-.15-1.06-.19l-12.64-.71a1.51,1.51,0,0,1-1.42-1.58,1.53,1.53,0,0,1,1.59-1.42l12.63.71a3.56,3.56,0,0,1,4,3.85l.87,17a1.52,1.52,0,0,1-.41,1.11,1.56,1.56,0,0,1-1.08.47,411.62,411.62,0,0,0-42,2.3Z" style="fill: #e6e6e6"/>
        <path d="M821.52,562.9a1.51,1.51,0,0,1-1.49-1.34,1.49,1.49,0,0,1,1.33-1.65,176.37,176.37,0,0,1,28.7-.87,1.5,1.5,0,1,1-.15,3,173.86,173.86,0,0,0-28.22.86Z" style="fill: #e6e6e6"/>
        <path d="M841.12,567.16H824a1.5,1.5,0,0,1,0-3h17.12a1.5,1.5,0,0,1,0,3Z" style="fill: #e6e6e6"/>
        <path d="M821.25,571.94a1.5,1.5,0,0,1,0-3l9.78,0h0a1.5,1.5,0,0,1,0,3l-9.79,0Z" style="fill: #e6e6e6"/>
        <path d="M867.72,579.08h-8.26a1.5,1.5,0,0,1,0-3h8.26a1.5,1.5,0,0,1,0,3Z" style="fill: #e6e6e6"/>
        <path d="M853.11,556.77a2.24,2.24,0,0,1-1.93-1.07,3.51,3.51,0,0,1,1.74-3.39,2.24,2.24,0,1,1,.26,4.46Zm.64-2.6h0Z" style="fill: #e6e6e6"/>
        <path d="M816.3,559.58a2.6,2.6,0,0,1-2.5-3.07,1.5,1.5,0,0,1,1.78-1.16,1.64,1.64,0,0,1,.39.14,2.8,2.8,0,0,1,1.71-.15,1.49,1.49,0,0,1,1.1,1.13,2.59,2.59,0,0,1-2.46,3.11Z" style="fill: #e6e6e6"/>
        <path d="M869.34,571.77l-.33,0a1.52,1.52,0,0,1-1.25-1.72,2,2,0,0,1,.07-.26,1.14,1.14,0,0,1-.15-.23,1.51,1.51,0,0,1,.63-2,2.29,2.29,0,0,1,3.28,1.63,2.31,2.31,0,0,1-.64,2A2.28,2.28,0,0,1,869.34,571.77Z" style="fill: #e6e6e6"/>
      </g>
      <g id="f592f385-b31b-4caa-9709-e64f4615b354" data-name="2">
        <path d="M173.77,441A113.27,113.27,0,0,1,158.35,440a1.51,1.51,0,0,1-1.29-1.34l-2.27-23.15a1.47,1.47,0,0,1-.84-1.25,1.49,1.49,0,0,1,1.4-1.59l50.46-3.1A1.54,1.54,0,0,1,207,410a1.51,1.51,0,0,1,.42,1.18l-2.09,24.41a1.51,1.51,0,0,1-1.09,1.32A114,114,0,0,1,173.77,441Zm-13.84-3.87a111,111,0,0,0,42.48-2.87l1.85-21.64-46.45,2.85Z" style="fill: #e6e6e6"/>
        <path d="M179.84,449.83a1.52,1.52,0,0,1-1.5-1.35l-.68-6.91a1.5,1.5,0,1,1,3-.29l.54,5.4c13-1.33,26.15-2.06,39.2-2.16l-.78-15.46a2.89,2.89,0,0,0-.12-.82,2.37,2.37,0,0,0-1.07-.18l-12.63-.71a1.5,1.5,0,1,1,.17-3l12.63.71a4.26,4.26,0,0,1,3.24,1.3,4.22,4.22,0,0,1,.77,2.55l.87,17a1.52,1.52,0,0,1-.41,1.11,1.56,1.56,0,0,1-1.08.47,411.3,411.3,0,0,0-42,2.3Z" style="fill: #e6e6e6"/>
        <path d="M168.52,424.9a1.51,1.51,0,0,1-1.49-1.34,1.49,1.49,0,0,1,1.33-1.65,176.33,176.33,0,0,1,28.7-.87,1.5,1.5,0,0,1-.15,3,173.86,173.86,0,0,0-28.22.86Z" style="fill: #e6e6e6"/>
        <path d="M188.12,429.16H171a1.5,1.5,0,0,1,0-3h17.12a1.5,1.5,0,0,1,0,3Z" style="fill: #e6e6e6"/>
        <path d="M168.25,433.94a1.5,1.5,0,0,1,0-3l9.78,0h0a1.5,1.5,0,0,1,0,3l-9.79,0Z" style="fill: #e6e6e6"/>
        <path d="M214.72,441.08h-8.26a1.5,1.5,0,1,1,0-3h8.26a1.5,1.5,0,0,1,0,3Z" style="fill: #e6e6e6"/>
        <path d="M200.11,418.77a2.24,2.24,0,0,1-1.93-1.07,3.51,3.51,0,0,1,1.74-3.39,2.28,2.28,0,0,1,2.2,3.27,2.25,2.25,0,0,1-1.94,1.19Zm.65-2.6Z" style="fill: #e6e6e6"/>
        <path d="M163.3,421.58a2.6,2.6,0,0,1-2.5-3.07,1.5,1.5,0,0,1,1.78-1.16,1.64,1.64,0,0,1,.39.14,2.8,2.8,0,0,1,1.71-.15,1.49,1.49,0,0,1,1.1,1.13,2.59,2.59,0,0,1-2.46,3.11Z" style="fill: #e6e6e6"/>
        <path d="M216.34,433.77l-.32,0a1.51,1.51,0,0,1-1.26-1.71,1.76,1.76,0,0,1,.07-.27,1.14,1.14,0,0,1-.15-.23,1.51,1.51,0,0,1,.63-2,2.29,2.29,0,0,1,3.28,1.63,2.31,2.31,0,0,1-2.25,2.63Zm.36-1.6Zm-.23-1.39Z" style="fill: #e6e6e6"/>
      </g>
      <g id="e88a46c0-7e54-4f94-9218-1394dab7ecce" data-name="3">
        <path d="M312.92,385h0a1.5,1.5,0,0,1-1.49-1.51L312,296a1.5,1.5,0,0,1,1.5-1.49h0A1.49,1.49,0,0,1,315,296l-.53,87.44A1.51,1.51,0,0,1,312.92,385Z" style="fill: #e6e6e6"/>
        <path d="M394.54,300.29c-27,0-54.07-.87-80.88-2.59a1.5,1.5,0,0,1,.19-3c37.66,2.42,75.88,3.14,113.6,2.15a1.5,1.5,0,1,1,.08,3Q411.09,300.29,394.54,300.29Z" style="fill: #e6e6e6"/>
        <path d="M427.6,385.27h-.07a1.51,1.51,0,0,1-1.43-1.57c1.25-27.95,1.54-56.3.86-84.28a1.5,1.5,0,0,1,1.47-1.53,1.48,1.48,0,0,1,1.53,1.46c.68,28,.39,56.47-.86,84.49A1.5,1.5,0,0,1,427.6,385.27Z" style="fill: #e6e6e6"/>
        <path d="M428.12,385.93h0l-115.26-.47a1.5,1.5,0,1,1,0-3h0l115.26.47a1.5,1.5,0,1,1,0,3Z" style="fill: #e6e6e6"/>
        <path d="M406.31,314.94a826.28,826.28,0,0,1-93-5.25,1.5,1.5,0,1,1,.33-3,823.43,823.43,0,0,0,112.89,5,1.45,1.45,0,0,1,1.53,1.46,1.5,1.5,0,0,1-1.46,1.54Q416.49,314.95,406.31,314.94Z" style="fill: #e6e6e6"/>
        <path d="M401.88,310.39a4,4,0,0,1-1.23-.2,4.16,4.16,0,0,1-1.9-1.34,1.5,1.5,0,0,1-.73-.72,4.35,4.35,0,0,1,.09-3.74A4.12,4.12,0,0,1,404.6,303a4.19,4.19,0,0,1,1.61,3.35,4.24,4.24,0,0,1-1.86,3.29A4.36,4.36,0,0,1,401.88,310.39Zm-1.14-4.51a1.5,1.5,0,0,1,.09.43,1.23,1.23,0,0,0,.79,1,1.19,1.19,0,0,0,1-.22,1.22,1.22,0,0,0,.58-.9,1.24,1.24,0,0,0-.51-1,1.14,1.14,0,0,0-1.89.42A1.34,1.34,0,0,0,400.74,305.88Z" style="fill: #e6e6e6"/>
        <path d="M416.73,310.94a4.78,4.78,0,0,1-3.33-1.44,4.64,4.64,0,0,1-1.38-4.24,1.52,1.52,0,0,1,.27-.59,1.46,1.46,0,0,1,.18-.63,4.65,4.65,0,1,1,5.17,6.79A4,4,0,0,1,416.73,310.94ZM415,305.65l0,.24a1.88,1.88,0,0,0,2,2,1.63,1.63,0,1,0-.5-3.23,1.69,1.69,0,0,0-1.37.77A1.37,1.37,0,0,1,415,305.65Z" style="fill: #e6e6e6"/>
        <path d="M357.78,325.8c-12.08,0-24.17-.45-36.17-1.33a1.5,1.5,0,0,1-1.39-1.6,1.51,1.51,0,0,1,1.61-1.39,492.61,492.61,0,0,0,75.57-.28,1.5,1.5,0,1,1,.24,3C384.42,325.26,371.1,325.8,357.78,325.8Z" style="fill: #e6e6e6"/>
        <path d="M382.25,338.1h-.06L328.08,336a1.5,1.5,0,0,1,.12-3l54.1,2.1a1.5,1.5,0,0,1-.05,3Z" style="fill: #e6e6e6"/>
        <path d="M435.74,271.79a5,5,0,0,1-2.69-.66c-2.35-1.45-2.58-4.71-.6-8.51a1.5,1.5,0,1,1,2.66,1.39c-.93,1.77-1.47,4-.48,4.57a3.88,3.88,0,0,0,2.08.16l26.81-2.29a152.06,152.06,0,0,1,2.42-28.65L442,240.51a9.5,9.5,0,0,0-3.74.92c-2.89,1.71-2.55,6.53-2.38,8,.08.68.18,1.36.29,2.05.44,3,.91,6.07-.24,9.07a1.5,1.5,0,1,1-2.8-1.08c.86-2.25.48-4.82.07-7.55-.11-.71-.22-1.43-.3-2.13-.61-5.12.78-9.09,3.83-10.9a12.11,12.11,0,0,1,4.93-1.33l26-2.93a1.49,1.49,0,0,1,1.27.48,1.51,1.51,0,0,1,.37,1.3,149.22,149.22,0,0,0-2.72,31.42,1.5,1.5,0,0,1-1.37,1.53L437,271.73C436.61,271.76,436.19,271.79,435.74,271.79Z" style="fill: #e6e6e6"/>
        <path d="M446.57,263.19a7.68,7.68,0,0,1-6.6-3.58,8.6,8.6,0,0,1-.58-6.92,17.84,17.84,0,0,1,3.18-5.56,1.54,1.54,0,0,1,1-.57,10.88,10.88,0,0,1,10.83.83,1.53,1.53,0,0,1,.57.76,13.29,13.29,0,0,1,0,8.7,9.66,9.66,0,0,1-6.55,6.11A7.5,7.5,0,0,1,446.57,263.19Zm-2-13.77a14,14,0,0,0-2.33,4.16,5.6,5.6,0,0,0,.29,4.5,4.8,4.8,0,0,0,5.18,2,6.67,6.67,0,0,0,4.46-4.24,10.07,10.07,0,0,0,.08-6.23,7.91,7.91,0,0,0-7.66-.17Z" style="fill: #e6e6e6"/>
        <path d="M434.61,336.29c-1.72,0-3.36-.12-4.82-.23a1.5,1.5,0,1,1,.22-3c5,.37,9.4.5,12.88-1.64,2.63-1.62,4.62-4.61,5.6-8.41a44.3,44.3,0,0,0,.89-11c0-7-.36-13.55-4.39-18-2.57-2.82-6.29-4.33-10.23-5.92-4.81-2-9.79-4-12.56-8.62-4-6.66-.85-15.4,4.47-20,5.93-5.14,14-6.44,19.57-7a1.5,1.5,0,0,1,.28,3c-8.18.78-13.87,2.77-17.89,6.25-4.39,3.8-7,10.9-3.86,16.2,2.26,3.78,6.57,5.53,11.12,7.38,4.08,1.65,8.29,3.36,11.31,6.67,4.75,5.2,5.16,12.71,5.18,20a46.4,46.4,0,0,1-1,11.81c-1.17,4.55-3.63,8.18-6.93,10.21A18.55,18.55,0,0,1,434.61,336.29Z" style="fill: #e6e6e6"/>
        <path d="M384.74,373.18h-.05a1.5,1.5,0,0,1-1.45-1.54l.79-25.23a1.47,1.47,0,0,1,1.54-1.45A1.5,1.5,0,0,1,387,346.5l-.79,25.23A1.5,1.5,0,0,1,384.74,373.18Z" style="fill: #e6e6e6"/>
        <path d="M385.81,347.47a1.5,1.5,0,0,1-.15-3A164.8,164.8,0,0,1,412,344a1.5,1.5,0,0,1-.19,3,161,161,0,0,0-25.89.49Z" style="fill: #e6e6e6"/>
        <path d="M409.52,374.1h-.12a1.49,1.49,0,0,1-1.38-1.61L410.17,345a1.5,1.5,0,1,1,3,.23L411,372.71A1.5,1.5,0,0,1,409.52,374.1Z" style="fill: #e6e6e6"/>
        <path d="M392.48,373.81q-3.41,0-6.78-.17a1.5,1.5,0,1,1,.15-3,132.44,132.44,0,0,0,23.13-.86,1.5,1.5,0,1,1,.37,3A133.83,133.83,0,0,1,392.48,373.81Z" style="fill: #e6e6e6"/>
      </g>
      <g id="a780e530-b454-47a2-a19d-e43515580af2" data-name="4">
        <path d="M746.06,249.29a4.39,4.39,0,0,1-4.31-2.9,1.5,1.5,0,1,1,2.86-.9,1.66,1.66,0,0,0,2,.73,4.18,4.18,0,0,0,2.3-2.4,6.19,6.19,0,0,0-.7-6.61A4.15,4.15,0,0,0,745,236a3.14,3.14,0,0,0-2.35,1.06,2.74,2.74,0,0,0-.12,2.79,2.1,2.1,0,0,0,1.69,1.28h0a1.5,1.5,0,1,1,0,3,4.83,4.83,0,0,1-4.41-3,5.65,5.65,0,0,1,.48-6,6,6,0,0,1,4.58-2.18,7.2,7.2,0,0,1,5.46,2.18,9.11,9.11,0,0,1,1.24,9.9,7,7,0,0,1-4.13,4A4.83,4.83,0,0,1,746.06,249.29Z" style="fill: #e6e6e6"/>
        <path d="M714.69,302.79a1.51,1.51,0,0,1-1.33-.8,44.64,44.64,0,0,1-4.81-25.87,1.52,1.52,0,0,1,1.66-1.32l.1,0c-1-10.85-1.91-22,.06-33,2.4-13.35,9.13-24.41,18.45-30.34s20.68-6.78,30.68-6.92a231,231,0,0,1,37.89,2.62c8.93,1.36,18.25,3.36,26,8.72a35.46,35.46,0,0,1,3.76,55.24c-8.53,7.84-21.3,11.81-38,11.81h-1c-4.78,0-9.63-.36-14.31-.65-8.57-.55-17.43-1.11-26-.05-15.12,1.87-27,9.22-31.79,19.66a1.5,1.5,0,0,1-1.32.87Zm-3.36-24.19A41.78,41.78,0,0,0,714.74,298c5.91-9.94,17.89-16.84,32.73-18.68,8.86-1.09,17.86-.52,26.57,0,4.64.3,9.45.6,14.15.65,16.4.14,28.77-3.56,36.89-11a32.45,32.45,0,0,0-3.44-50.56c-7.21-5-16.13-6.92-24.7-8.22a227.29,227.29,0,0,0-37.4-2.59c-9.58.13-20.53,1-29.11,6.45s-14.85,15.81-17.11,28.34c-2.06,11.47-.89,23.32.23,34.78a1.5,1.5,0,0,1-1.34,1.64A1.54,1.54,0,0,1,711.33,278.6Z" style="fill: #e6e6e6"/>
        <path d="M775.29,248.8a6.94,6.94,0,0,1-1.91-.27,7.16,7.16,0,0,1-4.78-5.13,6.41,6.41,0,0,1,1.41-6.19,1.37,1.37,0,0,1,.23-.19,5.81,5.81,0,0,1,1.76-3,6.91,6.91,0,0,1,8.63-.14,8.32,8.32,0,0,1,2.85,8,8.83,8.83,0,0,1-4,5.67A7.89,7.89,0,0,1,775.29,248.8Zm-3.86-6.49c0,.1,0,.21.07.31a4.21,4.21,0,0,0,2.7,3,4.61,4.61,0,0,0,3.69-.63,5.76,5.76,0,0,0,2.64-3.69,5.24,5.24,0,0,0-1.74-5.06,3.89,3.89,0,0,0-4.79,0,3.08,3.08,0,0,0-.94,2.28,2.56,2.56,0,0,0,.78,1.94,1.51,1.51,0,0,1,.11,2.12,1.49,1.49,0,0,1-2.12.11A3.78,3.78,0,0,1,771.43,242.31Z" style="fill: #e6e6e6"/>
        <path d="M805,248a7.75,7.75,0,0,1-1.91-.24,9.37,9.37,0,0,1-6.19-5.53,1.5,1.5,0,0,1,1.75-2,7.6,7.6,0,0,1,1.22-3.1,6.9,6.9,0,0,1,11.25,8A7.68,7.68,0,0,1,805,248Zm-3-4a5.43,5.43,0,0,0,1.87.88,4.81,4.81,0,0,0,4.89-1.57,4,4,0,0,0,.21-4,4,4,0,0,0-3.1-2.48,4,4,0,0,0-3.46,1.93,4,4,0,0,0-.47,3.94A1.51,1.51,0,0,1,801.92,244Z" style="fill: #e6e6e6"/>
      </g>
      <path d="M611.27,765a2.21,2.21,0,0,1-2.37-1.53,1.7,1.7,0,0,1,.82-2,1.86,1.86,0,0,1,2.26.28c.06.06.11.13.16.19,48.14-1.44,97.09-1.42,144.43-1.41a1.5,1.5,0,0,1,0,3h0c-47.59,0-96.8,0-145.17,1.44Zm-1.65-2.84Zm1.55-.16Z" style="fill: #dbdbdb"/>
      <path d="M679.27,775a2.21,2.21,0,0,1-2.37-1.53,1.7,1.7,0,0,1,.82-2,1.86,1.86,0,0,1,2.26.28c.06.06.11.13.16.19,48.14-1.44,97.09-1.42,144.43-1.41a1.5,1.5,0,0,1,0,3h0c-47.59,0-96.8,0-145.17,1.44Zm-1.65-2.84Zm1.55-.16Z" style="fill: #dbdbdb"/>
      <path d="M398.8,778.64q-15.07,0-30.06-.39c-9-.24-17.85-.62-26.32-2.57a1.5,1.5,0,0,1,.67-2.93c8.21,1.9,16.51,2.25,25.73,2.5,27.9.73,56.17.44,84-.88a1.5,1.5,0,1,1,.14,3C435,778.21,416.89,778.64,398.8,778.64Z" style="fill: #dbdbdb"/>
      <path d="M381.29,767.36a1.5,1.5,0,0,1,0-3c13-.37,26.16-.68,39.15-.92a1.53,1.53,0,0,1,1.53,1.47,1.5,1.5,0,0,1-1.47,1.53c-13,.24-26.15.55-39.13.92Z" style="fill: #dbdbdb"/>
    </g>
    <g id="b08c8ba8-3763-41ff-922e-74850e2158e6" data-name="pattern">
      <path d="M798.25,379.77a18.67,18.67,0,0,1,.59-10.34c1-3,3.08-6.41,6.21-7.54,2.55-.93,6.55.23,6,3.61a2.07,2.07,0,0,1-2.18,1.79c-1.46,0-1.92-1.12-1.74-2.46a22.8,22.8,0,0,1,2-5.87,39.41,39.41,0,0,1,3.11-5.57c1.07-1.62-1.53-3.12-2.59-1.52a41.67,41.67,0,0,0-3.71,6.94c-1,2.27-2.17,5-1.81,7.5.58,4.09,6,5.29,8.64,2.3,3-3.37.51-8.5-3.35-9.73-4.69-1.5-9.05,1.7-11.45,5.48a21.4,21.4,0,0,0-2.64,16.21c.42,1.88,3.32,1.08,2.89-.8Z" style="fill: #1d1d1b"/>
      <path d="M539.84,257.14c-2.54,3.74-5.54,8.7-3.37,13.3,1.58,3.34,6,5.86,9.41,3.49l-1.81-2.36a23.75,23.75,0,0,0,.33,33.71c1.38,1.36,3.5-.76,2.12-2.12a21,21,0,0,1-.33-29.47c1.14-1.18-.38-3.36-1.82-2.35-2.18,1.52-4.91-.76-5.48-3-.9-3.44,1.72-7,3.54-9.72,1.08-1.61-1.52-3.11-2.59-1.52Z" style="fill: #1d1d1b"/>
      <path d="M277.3,385.26l14,21.14c1.06,1.61,3.66.11,2.59-1.51l-14-21.15c-1.07-1.6-3.66-.1-2.59,1.52Z" style="fill: #1d1d1b"/>
      <path d="M293.56,389.74a3.29,3.29,0,0,0-1.85-3.29,1.51,1.51,0,0,0-2,2.06l8,15.75c.87,1.72,3.46.2,2.59-1.52l-8-15.75L290.19,389c.39.18.42.27.37.7-.11.8.76,1.5,1.5,1.5a1.54,1.54,0,0,0,1.5-1.5Z" style="fill: #1d1d1b"/>
      <path d="M464.54,408.34a61,61,0,0,1,10.61-35.6c1.09-1.6-1.51-3.1-2.6-1.51a63.82,63.82,0,0,0-11,37.11c0,1.92,3,1.93,3,0Z" style="fill: #1d1d1b"/>
      <path d="M451.51,397.64l4.95-17.15a1.5,1.5,0,0,0-2.89-.8l-4.95,17.16a1.5,1.5,0,0,0,2.89.79Z" style="fill: #1d1d1b"/>
      <path d="M67.14,644.81a28.85,28.85,0,0,1,13.08-17.72,1.5,1.5,0,0,0-1.51-2.59A31.86,31.86,0,0,0,64.25,644c-.46,1.87,2.43,2.67,2.89.8Z" style="fill: #1d1d1b"/>
      <path d="M59.2,632.92a24.47,24.47,0,0,1,2.2-3.5c.13-.17-.16.2,0,0a1.84,1.84,0,0,0,.17-.22l.33-.39c.22-.26.45-.52.68-.77.47-.51,1-1,1.49-1.47a1.5,1.5,0,0,0,0-2.12,1.54,1.54,0,0,0-2.12,0,24.29,24.29,0,0,0-5.32,6.93,1.5,1.5,0,0,0,2.59,1.51Z" style="fill: #1d1d1b"/>
    </g>
    <g id="ac80ff14-2c4c-4983-aa32-53bf3eb8cb15" data-name="safe deposit">
      <g>
        <path d="M726,610l141-7s27,99,6,179l-161,5S693,700,726,610Z" style="fill: #fff"/>
        <path d="M712,788a1,1,0,0,1-1-.79c-.19-.87-18.68-88.31,14-177.55A1,1,0,0,1,726,609l141-7a1,1,0,0,1,1,.74c.28,1,26.83,100.17,6,179.51a1,1,0,0,1-.94.75l-161,5Zm14.71-177c-30.53,83.87-15.68,166-13.9,175l159.41-5c19.38-75-3.54-167.56-6-177Z" style="fill: #1d1d1b"/>
      </g>
      <g>
        <path d="M732.57,619.13,855.94,613s23.63,86.63,5.25,156.63L720.32,774S703.69,697.88,732.57,619.13Z" style="fill: #fff"/>
        <path d="M855.94,613s23.63,86.63,5.25,156.63L720.32,774s-16.63-76.12,12.25-154.87L855.94,613m0-2h-.1l-123.38,6.13a2,2,0,0,0-1.78,1.31c-15,41-17.58,81.18-17.07,107.69.54,28.74,4.7,48.1,4.75,48.3a2,2,0,0,0,2,1.57h.06l140.88-4.38a2,2,0,0,0,1.87-1.49c9.57-36.46,7.63-77.39,4.32-105.3a402.66,402.66,0,0,0-9.58-52.36A2,2,0,0,0,856,611Z" style="fill: #1d1d1b"/>
      </g>
      <path d="M720.32,774l140.87-4.37c18.38-70-5.25-156.63-5.25-156.63h-.06c3.39,24.36,14.19,115.8-10.88,140-21.65,20.9-92.33,13.38-126.78,8.23C719.31,769.37,720.32,774,720.32,774Z" style="fill: #ababab"/>
      <path d="M846,713.05h-.15c-6.35-.08-12.29-5.1-13.25-11.2-1-6.38,3.55-13,9.75-14.13a12,12,0,0,1,6.17.5,1,1,0,0,1,1.09-.55c6.31,1.14,10.9,7.82,9.81,14.29C858.41,708.11,852.41,713.05,846,713.05Zm-1.51-23.52a9.48,9.48,0,0,0-1.77.16c-5.1.94-9,6.58-8.15,11.85s5.89,9.44,11.3,9.51H846c5.46,0,10.58-4.2,11.45-9.42a10.88,10.88,0,0,0-7.18-11.75,1.07,1.07,0,0,1-.07.19,1,1,0,0,1-1.34.46A10.06,10.06,0,0,0,844.51,689.53Z" style="fill: #1d1d1b"/>
      <path d="M845.41,704.87a5.76,5.76,0,0,1-1.36-.17,5.16,5.16,0,0,1-3.19-2.37,5.44,5.44,0,0,1,1.85-7.06,1,1,0,0,1,1.25.16,5,5,0,0,1,5.37,1.63,4.85,4.85,0,0,1,.8,3.83,4.69,4.69,0,0,1-4.72,4Zm-2.79-6.63a3.36,3.36,0,0,0,0,3.1,3.14,3.14,0,0,0,1.95,1.42,3,3,0,0,0,2.32-.27,3,3,0,0,0,1.3-2,2.87,2.87,0,0,0-.44-2.25,2.83,2.83,0,0,0-2.08-1,2.65,2.65,0,0,0-2.13.75A1,1,0,0,1,842.62,698.24Z" style="fill: #1d1d1b"/>
      <path d="M841,695.47a1,1,0,0,1-.77-.36,8.32,8.32,0,0,1-1.83-4.14,1,1,0,0,1,.85-1.13,1,1,0,0,1,1.13.85,6.47,6.47,0,0,0,1.39,3.15,1,1,0,0,1-.13,1.4A1,1,0,0,1,841,695.47Z" style="fill: #1d1d1b"/>
      <path d="M834.23,700.45a1,1,0,0,1-.15-2l4.28-.63a1,1,0,0,1,.29,2l-4.28.63Z" style="fill: #1d1d1b"/>
      <path d="M837.28,709.26a1,1,0,0,1-.64-1.77l3.67-3.06a1,1,0,1,1,1.28,1.54L837.92,709A1,1,0,0,1,837.28,709.26Z" style="fill: #1d1d1b"/>
      <path d="M847.94,711.41a1,1,0,0,1-.9-.57,15.65,15.65,0,0,1-1.56-6.22,1,1,0,1,1,2-.08,13.65,13.65,0,0,0,1.36,5.43,1,1,0,0,1-.46,1.33A1,1,0,0,1,847.94,711.41Z" style="fill: #1d1d1b"/>
      <path d="M855.31,704.36a.93.93,0,0,1-.57-.19,9.22,9.22,0,0,0-4.69-1.65,1,1,0,0,1-.93-1.06,1,1,0,0,1,1.06-.94,11.1,11.1,0,0,1,5.71,2,1,1,0,0,1-.58,1.82Z" style="fill: #1d1d1b"/>
      <path d="M849.79,698.48a1,1,0,0,1-.23-2l5.2-1.23a1,1,0,0,1,.46,2l-5.2,1.23A.85.85,0,0,1,849.79,698.48Z" style="fill: #1d1d1b"/>
      <path d="M848,695.79a1,1,0,0,1-.3,0,1,1,0,0,1-.66-1.26l1.53-4.89a1,1,0,0,1,1.26-.65,1,1,0,0,1,.65,1.25l-1.53,4.89A1,1,0,0,1,848,695.79Z" style="fill: #1d1d1b"/>
      <g>
        <path d="M740.34,634.48l1.79,26L848,653.87l-.41-15.53c0-1.73-.19-3.7-1.53-4.81-1.09-.91-2.65-.95-4.07-.94l-102.25.52Z" style="fill: #fff"/>
        <path d="M842.26,632.59a5.87,5.87,0,0,1,3.84.94c1.34,1.11,1.49,3.08,1.53,4.81q.21,7.77.41,15.53l-105.91,6.58q-.89-13-1.79-26l-.56-1.37L842,632.59h.23m0-2H842l-51,.26-51.25.26a2,2,0,0,0-1.84,2.77l.44,1.06.37,5.29,1.4,20.36a2,2,0,0,0,2,1.86h.13l105.9-6.58a2,2,0,0,0,1.88-2l-.41-15.53c0-1.58-.11-4.52-2.25-6.3a7.82,7.82,0,0,0-5.12-1.4Z" style="fill: #1d1d1b"/>
      </g>
      <path d="M754.64,653.3a2.68,2.68,0,0,1-1.56-.47,3.89,3.89,0,0,1-1.26-3.2l-.28-9.64a1.07,1.07,0,0,1,.17-.59,1,1,0,0,1-.41-.79,1,1,0,0,1,1-1l9.58-.16a1,1,0,0,1,.72.29,1,1,0,0,1,.3.71l.05,11a3.79,3.79,0,0,1-.71,2.61c-1,1.12-2.37,1-3.49.81a4.22,4.22,0,0,0-2.37.15A6.46,6.46,0,0,1,754.64,653.3Zm-1.17-13.73a1,1,0,0,1,.07.36l.28,9.64c0,.67.09,1.39.42,1.63s.8.09,1.59-.13a7.93,7.93,0,0,1,1.48-.31,9.21,9.21,0,0,1,1.67.09c.91.11,1.48.16,1.74-.13a2.17,2.17,0,0,0,.22-1.29l-.05-10Z" style="fill: #1d1d1b"/>
      <path d="M773.63,653.21a1,1,0,0,1-1-.7,26.78,26.78,0,0,1-1.2-9.32l-2.35,3a1,1,0,0,1-1.4.18,1,1,0,0,1-.17-1.41l4.53-5.8a1,1,0,0,1,1.77.8,24.86,24.86,0,0,0,.72,12,1,1,0,0,1-.65,1.25A1,1,0,0,1,773.63,653.21Z" style="fill: #1d1d1b"/>
      <path d="M779,647.57a1,1,0,0,1-.8-.4,1,1,0,0,1-.11-1,28.59,28.59,0,0,1,5.6-8.12,1,1,0,0,1,1.43,1.4,26.41,26.41,0,0,0-4.35,5.85l7.5-1.17a1,1,0,0,1,1.14.83,1,1,0,0,1-.83,1.14l-9.43,1.48Z" style="fill: #1d1d1b"/>
      <path d="M786.22,652a1,1,0,0,1-1-.93l-.54-7.95a1,1,0,0,1,.93-1.07,1,1,0,0,1,1.07.93l.53,8a1,1,0,0,1-.93,1.06Z" style="fill: #1d1d1b"/>
      <path d="M797.05,651.38a1,1,0,0,1-.85-1.53l5.92-9.38-5,.23a1.7,1.7,0,0,1-2,.76,1.72,1.72,0,0,1-1.3-1.73,1,1,0,0,1,1-.93l9.19-.42a1,1,0,0,1,.89,1.53L799,649.23l8-.65a1,1,0,0,1,.16,2l-10,.8Z" style="fill: #1d1d1b"/>
      <path d="M812.83,650.11a1,1,0,0,1-1-1l-.33-9.76a1,1,0,0,1,1-1h.14a1,1,0,0,1,1-.51,28,28,0,0,0,9.12-.66,1,1,0,0,1,.86.19,1,1,0,0,1,.38.79l-.09,7.81a2.82,2.82,0,0,1-3,3.25l-7.92.88Zm.68-10.27.29,8.15,6.84-.76c.3,0,.86-.1,1-.29a2,2,0,0,0,.17-1l.07-6.56A29.49,29.49,0,0,1,813.51,639.84Z" style="fill: #1d1d1b"/>
      <path d="M834.58,650.72a1,1,0,0,1-.92-.61,18.59,18.59,0,0,1-1.35-5.59,6.52,6.52,0,0,1-1.7,1.1,1,1,0,1,1-.81-1.82,5.09,5.09,0,0,0,2.51-2.6,17.71,17.71,0,0,1,.41-2.61,1,1,0,0,1,1-.77,1,1,0,0,1,.92.92,6.75,6.75,0,0,1-.41,2.88,17,17,0,0,0,1.23,7.72,1,1,0,0,1-.55,1.31A1,1,0,0,1,834.58,650.72Z" style="fill: #1d1d1b"/>
      <path d="M758.82,686.92a1,1,0,0,1-.68-.26,1,1,0,0,1-.32-.71l-.29-10.39a1,1,0,0,1,1-1,1.06,1.06,0,0,1,.38.07,1,1,0,0,1,.44-.14l9.48-.77a1,1,0,0,1,.78.27,1,1,0,0,1,.3.77L769.5,684a2.59,2.59,0,0,1-.76,1.95,2.53,2.53,0,0,1-1.55.5l-8.31.5Zm.74-10.48.23,8.42,7.28-.43a1.68,1.68,0,0,0,.4-.06,3.65,3.65,0,0,0,0-.48l.35-8.12Z" style="fill: #1d1d1b"/>
      <path d="M780.86,686.92a1,1,0,0,1-.67-.26,1,1,0,0,1-.33-.71l-.28-10.39a1,1,0,0,1,1-1,1,1,0,0,1,.39.07.88.88,0,0,1,.43-.14l9.49-.77a1,1,0,0,1,1.08,1l-.4,9.24a2.59,2.59,0,0,1-.76,1.95,2.53,2.53,0,0,1-1.55.5l-8.31.5Zm.74-10.48.23,8.42,7.28-.43a1.68,1.68,0,0,0,.41-.06h0s0-.13,0-.48l.35-8.12Z" style="fill: #1d1d1b"/>
      <path d="M802.91,686.92a1,1,0,0,1-.68-.26,1,1,0,0,1-.32-.71l-.29-10.39a1,1,0,0,1,1-1,1.07,1.07,0,0,1,.39.07,1,1,0,0,1,.44-.14l9.48-.77a1,1,0,0,1,.77.27,1,1,0,0,1,.31.77l-.4,9.24a2.54,2.54,0,0,1-.76,1.95,2.49,2.49,0,0,1-1.55.5l-8.3.5Zm.74-10.48.23,8.42,7.27-.43a1.68,1.68,0,0,0,.41-.06s0-.19,0-.49l.35-8.11Z" style="fill: #1d1d1b"/>
      <path d="M758.82,707.2a1,1,0,0,1-.68-.26,1,1,0,0,1-.32-.71l-.29-10.39a1,1,0,0,1,1-1,1.06,1.06,0,0,1,.38.07,1,1,0,0,1,.44-.14l9.48-.77a1,1,0,0,1,.78.27,1,1,0,0,1,.3.77l-.39,9.24a2.59,2.59,0,0,1-.76,2,2.53,2.53,0,0,1-1.55.5l-8.31.5Zm.74-10.48.23,8.42,7.28-.43a1.68,1.68,0,0,0,.4-.06,3.93,3.93,0,0,0,0-.48l.35-8.12Z" style="fill: #1d1d1b"/>
      <path d="M780.86,707.2a1,1,0,0,1-.67-.26,1,1,0,0,1-.33-.71l-.28-10.39a1,1,0,0,1,1-1,1,1,0,0,1,.39.07.88.88,0,0,1,.43-.14l9.49-.77a1,1,0,0,1,.77.27,1,1,0,0,1,.31.77l-.4,9.24a2.59,2.59,0,0,1-.76,2,2.53,2.53,0,0,1-1.55.5l-8.31.5Zm.74-10.48.23,8.42,7.28-.43a1.68,1.68,0,0,0,.41-.06h0s0-.13,0-.48l.35-8.12Z" style="fill: #1d1d1b"/>
      <path d="M802.91,707.2a1,1,0,0,1-.68-.26,1,1,0,0,1-.32-.71l-.29-10.39a1,1,0,0,1,1-1,1.07,1.07,0,0,1,.39.07,1,1,0,0,1,.44-.14l9.48-.77a1,1,0,0,1,.77.27,1,1,0,0,1,.31.77l-.4,9.24a2.54,2.54,0,0,1-.76,2,2.49,2.49,0,0,1-1.55.5l-8.3.5Zm.74-10.48.23,8.42,7.27-.43a1.68,1.68,0,0,0,.41-.06s0-.19,0-.48l.35-8.12Z" style="fill: #1d1d1b"/>
      <path d="M758.82,727.48a1,1,0,0,1-.68-.26,1,1,0,0,1-.32-.71l-.29-10.39a1,1,0,0,1,1-1,1.06,1.06,0,0,1,.38.07,1,1,0,0,1,.44-.14l9.48-.77a1,1,0,0,1,.78.27,1,1,0,0,1,.3.77l-.39,9.24a2.59,2.59,0,0,1-.76,2,2.53,2.53,0,0,1-1.55.5l-8.31.5Zm.74-10.48.23,8.42,7.28-.43a1.68,1.68,0,0,0,.4-.06,3.65,3.65,0,0,0,0-.48l.35-8.12Z" style="fill: #1d1d1b"/>
      <path d="M780.86,727.48a1,1,0,0,1-.67-.26,1,1,0,0,1-.33-.71l-.28-10.39a1,1,0,0,1,1-1,1,1,0,0,1,.39.07.88.88,0,0,1,.43-.14l9.49-.77a1,1,0,0,1,.77.27,1,1,0,0,1,.31.77l-.4,9.24a2.59,2.59,0,0,1-.76,2,2.53,2.53,0,0,1-1.55.5l-8.31.5ZM781.6,717l.23,8.42,7.28-.43a1.68,1.68,0,0,0,.41-.06h0s0-.13,0-.48l.35-8.12Z" style="fill: #1d1d1b"/>
      <path d="M780.86,746a1,1,0,0,1-.67-.26,1,1,0,0,1-.33-.71l-.28-10.39a1,1,0,0,1,1-1,1,1,0,0,1,.39.07,1,1,0,0,1,.43-.15l9.49-.77a1,1,0,0,1,1.08,1l-.4,9.25a2.59,2.59,0,0,1-.76,2,2.51,2.51,0,0,1-1.55.5l-8.31.5Zm.74-10.48.23,8.42,7.28-.44a1.7,1.7,0,0,0,.41,0h0s0-.13,0-.49l.35-8.11Z" style="fill: #1d1d1b"/>
      <path d="M802.91,727.48a1,1,0,0,1-.68-.26,1,1,0,0,1-.32-.71l-.29-10.39a1,1,0,0,1,1-1,1.07,1.07,0,0,1,.39.07,1,1,0,0,1,.44-.14l9.48-.77a1,1,0,0,1,.77.27,1,1,0,0,1,.31.77l-.4,9.24a2.54,2.54,0,0,1-.76,2,2.49,2.49,0,0,1-1.55.5l-8.3.5Zm.74-10.48.23,8.42,7.27-.43a1.68,1.68,0,0,0,.41-.06s0-.19,0-.48l.35-8.12Z" style="fill: #1d1d1b"/>
      <path d="M734.11,770.05a1,1,0,0,1-.59-.19,56.49,56.49,0,0,1-9.27-8.48,1,1,0,1,1,1.51-1.32,53.79,53.79,0,0,0,8.94,8.18,1,1,0,0,1,.22,1.4A1,1,0,0,1,734.11,770.05Z" style="fill: #1d1d1b"/>
      <path d="M739.72,768.33A1,1,0,0,1,739,768l-7.25-7.67a1,1,0,0,1,0-1.41,1,1,0,0,1,1.42,0l7.25,7.66a1,1,0,0,1,0,1.42A1,1,0,0,1,739.72,768.33Z" style="fill: #1d1d1b"/>
      <path d="M847.63,638.34c0-1.73-.19-3.7-1.53-4.81a4.81,4.81,0,0,0-2.89-.92c1.71,5.44.79,18.39.79,18.39l-102.18,4.91c.11,1.52.21,3,.31,4.54L848,653.87Q847.83,646.1,847.63,638.34Z" style="fill: #ababab"/>
    </g>
    <g id="b72a1e9b-f5ed-4fa4-acb0-6a70ac8ff94a" data-name="mouse">
      <g>
        <path d="M641,843.5s1-28.5,33.29-29c26.84-.42,32.21,29,32.21,29Z"/>
        <path d="M706.5,844.5H641a1,1,0,0,1-.72-.31,1,1,0,0,1-.28-.73c0-.29,1.41-29.45,34.27-30h.58c26.87,0,32.58,29.52,32.63,29.82a1,1,0,0,1-.21.82A1,1,0,0,1,706.5,844.5Zm-64.42-2h63.18c-1.31-5.46-8-27.36-31-27C646.45,815.93,642.6,837.41,642.08,842.5Z" style="fill: #1d1d1b"/>
      </g>
      <path d="M734.35,842.27a7.67,7.67,0,0,1-4.31-1.18,11.84,11.84,0,0,1-2.58-2.51,14,14,0,0,0-1.5-1.64c-2.6-2.32-6.47-2.23-9.21-1.36-3.3,1-6.16,3.2-8.93,5.29a1,1,0,0,1-1.4-.19,1,1,0,0,1,.2-1.4c2.76-2.1,5.9-4.47,9.53-5.61,4.17-1.31,8.44-.63,11.14,1.78A15.56,15.56,0,0,1,729,837.3a10.42,10.42,0,0,0,2.13,2.12c1.6,1,3.9,1.13,6.82.25,4.61-1.37,9-4.14,13.25-6.82,6.86-4.32,14-8.8,22.06-7.34,3.68.66,7,2.51,10.13,4.31,3.32,1.88,6.45,3.65,10,4.15,8.36,1.17,15.89-5.12,22.29-11.12a1,1,0,0,1,1.41,0,1,1,0,0,1,0,1.42c-6.74,6.31-14.69,12.93-23.94,11.64-3.9-.55-7.35-2.5-10.69-4.39-3.16-1.79-6.15-3.48-9.49-4.08-7.33-1.32-13.8,2.75-20.65,7.06-4.36,2.75-8.86,5.59-13.74,7.05A14.76,14.76,0,0,1,734.35,842.27Z" style="fill: #1d1d1b"/>
      <path d="M665.66,841.67a.78.78,0,0,1-.22,0,1,1,0,0,1-.76-1.19,38.7,38.7,0,0,0-1.75-22.2,1,1,0,0,1,1.86-.73,40.7,40.7,0,0,1,1.84,23.36A1,1,0,0,1,665.66,841.67Z" style="fill: #fff"/>
    </g>
    <g id="a79b0795-60de-47e6-a559-42871fc8f6ba" data-name="robot">
      <g>
        <g>
          <path d="M531.57,429.12s-15.32-14.73-47.32-6.64c0,0-3.66-10.42,1.9-17a102.64,102.64,0,0,1,39.08,11.79,59.76,59.76,0,0,0-39.36-25.13s-3.9-7.26,5.79-13.83c0,0,19.67,8.43,37.19,32.88,0,0-9-27.62-26.54-39.7a14.07,14.07,0,0,1,11.86-10.22s19,22,26.32,47c0,0,.51-11.26,13.51-20.26a19.06,19.06,0,0,1,7,15s-22,5-14,19S531.57,429.12,531.57,429.12Z" style="fill: #fff"/>
          <path d="M514.17,361.28s19,22,26.32,47c0,0,.51-11.26,13.51-20.26a19.06,19.06,0,0,1,7,15s-22,5-14,19c4,7.06.08,8.81-4.84,8.81a44.94,44.94,0,0,1-10.59-1.69s-9.44-9.07-29-9.07a74.58,74.58,0,0,0-18.37,2.43s-3.66-10.42,1.9-17a102.64,102.64,0,0,1,39.08,11.79,59.76,59.76,0,0,0-39.36-25.13s-3.9-7.26,5.79-13.83c0,0,19.67,8.43,37.19,32.88,0,0-9-27.62-26.54-39.7a14.07,14.07,0,0,1,11.86-10.22m0-2-.29,0a16,16,0,0,0-13.52,11.77,2,2,0,0,0,.82,2.07c9.09,6.28,15.88,17.07,20.21,25.67-14.68-16.08-28.26-22-28.94-22.33a2,2,0,0,0-.79-.16,1.94,1.94,0,0,0-1.12.34c-11.05,7.5-6.48,16.35-6.43,16.44a2,2,0,0,0,1.43,1,58.31,58.31,0,0,1,32.54,17.42,103.69,103.69,0,0,0-31.81-8.05h-.12a2,2,0,0,0-1.53.71c-6.23,7.35-2.42,18.47-2.25,18.94a2,2,0,0,0,2.37,1.28,73.27,73.27,0,0,1,17.88-2.37c18.37,0,27.48,8.43,27.57,8.51a1.9,1.9,0,0,0,.81.47,46,46,0,0,0,11.16,1.78c4,0,6.58-1.07,7.8-3.17s.86-5-1.22-8.63c-1.61-2.81-1.91-5.24-.94-7.46,2.19-5,10.59-7.9,13.64-8.6A2,2,0,0,0,563,403a21,21,0,0,0-7.84-16.63A2,2,0,0,0,554,386a2,2,0,0,0-1.14.36,34.31,34.31,0,0,0-12.59,14.94C532,379,516.4,360.81,515.69,360a2,2,0,0,0-1.52-.69Z" style="fill: #1d1d1b"/>
        </g>
        <g>
          <path d="M532,430s15,19,3,73,15.79,89.59,52.9,109.29S592,588,592,588s-46-15-39-80-6-86-6-86C543.85,428.71,540,430.35,532,430Z" style="fill: #fff"/>
          <path d="M547,422s13,21,6,86,39,80,39,80,22,29.37,9.85,29.37c-2.72,0-7.17-1.47-14-5.08C550.79,592.59,523,557,535,503s-3-73-3-73c.66,0,1.29,0,1.9,0,6.69,0,10.21-1.88,13.1-8m0-2h-.12a2,2,0,0,0-1.69,1.15c-2.48,5.28-5.12,6.89-11.29,6.89-.56,0-1.17,0-1.81,0H532a2,2,0,0,0-1.57,3.24c.14.18,14.21,19.18,2.62,71.33-5.71,25.67-2.93,48.85,8.24,68.91,9.48,17,25.27,31.75,45.67,42.58,6.73,3.57,11.6,5.31,14.89,5.31,3.07,0,4.45-1.48,5.07-2.72,1-2.07,1.6-6.19-5.48-18.1-3.68-6.19-7.67-11.53-7.84-11.75a2,2,0,0,0-1-.7c-.11,0-11.26-3.8-21.4-15.22-13.41-15.09-19-36.76-16.23-62.67,7-64.93-5.74-86.38-6.29-87.26A2,2,0,0,0,547,420Z" style="fill: #1d1d1b"/>
        </g>
        <path d="M604.44,609C529.26,578.84,540,527.51,544,484c2.59-28.53-2.38-45.7-6.2-54.25a27.73,27.73,0,0,1-5.8.25s15,19,3,73,15.79,89.59,52.9,109.29C605.38,621.58,607.3,616.72,604.44,609Z" style="fill: #ababab"/>
        <g>
          <path d="M538.58,444.88a1,1,0,0,1-.11-2A15.61,15.61,0,0,0,550,435.3a1,1,0,0,1,1.74,1,17.69,17.69,0,0,1-13.06,8.57Z" style="fill: #1d1d1b"/>
          <path d="M539.49,450.73a1,1,0,0,1-.12-2,17.17,17.17,0,0,0,9-4.06,1,1,0,0,1,1.32,1.51,19.22,19.22,0,0,1-10.13,4.54Z" style="fill: #1d1d1b"/>
          <path d="M542.23,464a14.72,14.72,0,0,1-1.49-.07,1,1,0,1,1,.21-2,13.34,13.34,0,0,0,9.78-3,1,1,0,1,1,1.29,1.52A15.33,15.33,0,0,1,542.23,464Z" style="fill: #1d1d1b"/>
          <path d="M545.35,472.07a13.59,13.59,0,0,1-5.89-1.33,1,1,0,0,1,.87-1.81,11.91,11.91,0,0,0,11.79-1,1,1,0,1,1,1.16,1.63A13.71,13.71,0,0,1,545.35,472.07Z" style="fill: #1d1d1b"/>
          <path d="M542.27,494.08a10,10,0,0,1-4.78-1.19,1,1,0,0,1-.4-1.36,1,1,0,0,1,1.36-.4,8.39,8.39,0,0,0,9.59-1.34,1,1,0,0,1,1.42,0,1,1,0,0,1,0,1.41A10.22,10.22,0,0,1,542.27,494.08Z" style="fill: #1d1d1b"/>
          <path d="M543.36,501.22a14.56,14.56,0,0,1-7.28-1.91,1,1,0,0,1-.37-1.37,1,1,0,0,1,1.37-.36,12.85,12.85,0,0,0,13.41-.5,1,1,0,1,1,1.12,1.65A14.6,14.6,0,0,1,543.36,501.22Z" style="fill: #1d1d1b"/>
          <path d="M541.46,516.26a17.69,17.69,0,0,1-7.43-1.61,1,1,0,0,1,.84-1.82,15.9,15.9,0,0,0,14.67-.76,1,1,0,1,1,1,1.71A17.74,17.74,0,0,1,541.46,516.26Z" style="fill: #1d1d1b"/>
          <path d="M542.93,533.41a22.75,22.75,0,0,1-10.81-2.71,1,1,0,0,1,1-1.76,20.73,20.73,0,0,0,16.6,1.33,1,1,0,0,1,.67,1.89A22.28,22.28,0,0,1,542.93,533.41Z" style="fill: #1d1d1b"/>
          <path d="M544.9,553.81a37.64,37.64,0,0,1-8-1.13,1,1,0,0,1-.76-1.19,1,1,0,0,1,1.18-.76,31.11,31.11,0,0,0,8.87,1,9.6,9.6,0,0,0,7.23-3.66,1,1,0,0,1,1.64,1.14,11.52,11.52,0,0,1-8.71,4.51C545.89,553.79,545.4,553.81,544.9,553.81Z" style="fill: #1d1d1b"/>
          <path d="M546.36,568.78a6,6,0,0,1-4.31-1.59,1,1,0,0,1,0-1.41,1,1,0,0,1,1.42,0c1.82,1.75,5,.92,7.67,0l7-2.46a1,1,0,1,1,.67,1.88l-7,2.46A16.66,16.66,0,0,1,546.36,568.78Z" style="fill: #1d1d1b"/>
          <path d="M555.55,583a21.05,21.05,0,0,1-3.88-.35,1,1,0,0,1,.37-2,20.65,20.65,0,0,0,18.21-5.79,1,1,0,1,1,1.44,1.39A22.8,22.8,0,0,1,555.55,583Z" style="fill: #1d1d1b"/>
          <path d="M562.46,594.93a1,1,0,0,1-.18-2,25.21,25.21,0,0,0,16.65-11.38,1,1,0,1,1,1.71,1,27.24,27.24,0,0,1-18,12.29A.65.65,0,0,1,562.46,594.93Z" style="fill: #1d1d1b"/>
          <path d="M575.71,605.22a1,1,0,0,1-1-.89,1,1,0,0,1,.88-1.1A19.81,19.81,0,0,0,587.77,597a1,1,0,0,1,1.48,1.35,21.82,21.82,0,0,1-13.42,6.85Z" style="fill: #1d1d1b"/>
        </g>
      </g>
      <g>
        <g>
          <g>
            <path d="M554,767s58,37,59-72l22.93,2s4.5,151.78-97.21,81.91L546,763l9.82,3.5Z" style="fill: #fff"/>
            <path d="M613,695l22.93,2s3,100.29-50.55,100.29c-12.32,0-27.63-5.31-46.66-18.38L546,763l9.82,3.5L554,767s9.48,6,20.85,6c16.74,0,37.55-13.13,38.15-78m0-2a2,2,0,0,0-1.35.52A2,2,0,0,0,611,695c-.46,49.77-13,76.07-36.15,76.07a40.39,40.39,0,0,1-17.05-4.26,1.49,1.49,0,0,0,0-.21,2,2,0,0,0-1.33-2l-9.82-3.5A2,2,0,0,0,546,761a2,2,0,0,0-1.82,1.17L536.9,778a2,2,0,0,0,.68,2.49c18.1,12.43,34.18,18.73,47.8,18.73a38.15,38.15,0,0,0,28.28-12.07c10.9-11.22,18.29-29.86,22-55.39a227,227,0,0,0,2.28-34.89A2,2,0,0,0,636.1,695l-22.93-2Z" style="fill: #1d1d1b"/>
          </g>
          <path d="M635.93,697l-7.2-.62c1.69,18.29,1.09,48.07-14.73,74.66-20.12,33.81-59,13.19-73.45,3.86l-1.83,4C640.43,848.74,635.93,697,635.93,697Z" style="fill: #ababab"/>
          <path d="M600.07,761.1a25.44,25.44,0,0,0,24.87-1.77c1.6-1.07.1-3.67-1.51-2.59a22.41,22.41,0,0,1-21.85,1.77c-1.74-.82-3.26,1.77-1.51,2.59Z" style="fill: #1d1d1b"/>
          <path d="M608.3,739.52a20,20,0,0,0,22.65-.74,1.57,1.57,0,0,0,.54-2.06,1.5,1.5,0,0,0-2-.53,17.06,17.06,0,0,1-19.63.74c-1.61-1.07-3.12,1.53-1.51,2.59Z" style="fill: #1d1d1b"/>
        </g>
        <path d="M568.26,771.41a12.64,12.64,0,0,0-7.72,7.28,12.39,12.39,0,0,0,1.3,11.28c1.08,1.59,3.68.09,2.59-1.51a9.53,9.53,0,0,1-1.08-8.75,9.41,9.41,0,0,1,5.71-5.4c1.82-.62,1-3.51-.8-2.9Z" style="fill: #1d1d1b"/>
        <path d="M574.77,774.73c-1.28,8.36,3.3,17.22,11.16,20.61a1.55,1.55,0,0,0,2.05-.54,1.51,1.51,0,0,0-.54-2c-6.52-2.82-10.87-10.11-9.78-17.23a1.53,1.53,0,0,0-1-1.84,1.5,1.5,0,0,0-1.85,1.05Z" style="fill: #1d1d1b"/>
        <path d="M611.74,727.27a18.23,18.23,0,0,0,20.83-6.17,1.5,1.5,0,0,0-2.59-1.51,15.26,15.26,0,0,1-17.44,4.79,1.51,1.51,0,0,0-1.85,1,1.54,1.54,0,0,0,1,1.85Z" style="fill: #1d1d1b"/>
        <path d="M612.61,711.28a14.11,14.11,0,0,0,18.26-2c1.28-1.44-.83-3.56-2.12-2.12a11.15,11.15,0,0,1-14.63,1.52,1.51,1.51,0,0,0-2,.54,1.53,1.53,0,0,0,.54,2Z" style="fill: #1d1d1b"/>
        <path d="M590.11,768.77a17.51,17.51,0,0,0,19.9,11.9c1.89-.39,1.09-3.29-.79-2.9A14.47,14.47,0,0,1,593,768c-.54-1.85-3.44-1.06-2.89.8Z" style="fill: #1d1d1b"/>
      </g>
      <g>
        <g>
          <polygon points="433 604 365 624 365 647 393 667 434 620 433 604" style="fill: #fff"/>
          <path d="M393,668a1,1,0,0,1-.58-.19l-28-20A1,1,0,0,1,364,647V624a1,1,0,0,1,.72-1l68-20a1,1,0,0,1,1.28.9l1,16a1,1,0,0,1-.25.72l-41,47A1,1,0,0,1,393,668Zm-27-21.51,26.84,19.17,40.14-46-.9-14.34L366,624.75Z" style="fill: #1d1d1b"/>
        </g>
        <g>
          <path d="M371,664s88,75,113,114l46,13-7-55L438,627l-56,20H365Z"/>
          <path d="M530,792a.84.84,0,0,1-.27,0l-46-13a.93.93,0,0,1-.57-.42c-24.64-38.43-111.93-113-112.81-113.78a1,1,0,0,1-.29-.43l-6-17A1,1,0,0,1,365,646h16.83l55.83-19.94a1,1,0,0,1,1.13.32l85,109a1,1,0,0,1,.2.49l7,55a1,1,0,0,1-.34.89A1,1,0,0,1,530,792Zm-45.36-14.86,44.18,12.49L522,736.4,437.66,628.18l-55.32,19.76a1,1,0,0,1-.34.06H366.41l5.44,15.41C376.62,667.49,460.16,739.29,484.64,777.14Z" style="fill: #1d1d1b"/>
        </g>
        <g>
          <path d="M434,606s89,59,137,152c0,0-33,16-43,33,0,0-66-110-146-144C382,647,387,629,434,606Z" style="fill: #fff"/>
          <path d="M528,792a1,1,0,0,1-.86-.49c-.66-1.09-66.75-110.11-145.53-143.59a1,1,0,0,1-.57-1.19c.21-.75,5.66-18.69,52.52-41.63a1,1,0,0,1,1,.07c.89.59,89.77,60.21,137.34,152.37a1.05,1.05,0,0,1,.06.78,1,1,0,0,1-.51.58c-.33.16-32.85,16.06-42.58,32.61a1,1,0,0,1-.86.49ZM383.28,646.46c41.16,17.81,78.41,55.8,102.49,84.65a543.64,543.64,0,0,1,42.24,58c10-15.13,36.27-28.85,41.63-31.54C524,669.85,441,612,433.92,607.15,394.05,626.76,384.94,642.75,383.28,646.46Z" style="fill: #1d1d1b"/>
        </g>
        <path d="M432.41,620a4.15,4.15,0,0,1-3.33-1.81,4.1,4.1,0,0,1-.6-4,2.22,2.22,0,0,0,.42-.78,4.14,4.14,0,1,1,3.76,6.54Zm-2-5.25a1,1,0,0,1-.06.23,2.2,2.2,0,0,0,.37,2,2.17,2.17,0,0,0,1.82,1,2.19,2.19,0,0,0,1.67-1.22,2.14,2.14,0,0,0-3.64-2.21A.93.93,0,0,1,430.39,614.75Z" style="fill: #1d1d1b"/>
        <path d="M558.41,760a4.15,4.15,0,0,1-3.33-1.81,4.1,4.1,0,0,1-.6-4,2.22,2.22,0,0,0,.42-.78,4.14,4.14,0,1,1,3.76,6.54Zm-2-5.25a1,1,0,0,1-.06.23,2.14,2.14,0,0,0,.37,2,2.17,2.17,0,0,0,1.82,1,2.19,2.19,0,0,0,1.67-1.22,1.95,1.95,0,0,0-1.74-3,2.12,2.12,0,0,0-1.9.83A.93.93,0,0,1,556.39,754.75Z" style="fill: #1d1d1b"/>
        <path d="M537.63,767a1,1,0,0,1-.52-.14l-12.38-7.57a1,1,0,0,1,1-1.71l12.39,7.57a1,1,0,0,1,.33,1.37A1,1,0,0,1,537.63,767Z" style="fill: #1d1d1b"/>
        <path d="M537.07,773.71a1,1,0,0,1-.54-.16l-11.74-7.48a1,1,0,0,1,1.07-1.69l11.75,7.49a1,1,0,0,1,.3,1.38A1,1,0,0,1,537.07,773.71Z" style="fill: #1d1d1b"/>
      </g>
      <g>
        <g>
          <path d="M686,549s29,3,47,11c0,0-24,74-60,137H608l39-97Z"/>
          <path d="M673,698H608a1,1,0,0,1-.93-1.37l39-97a1,1,0,0,1,.14-.24l39-51a1,1,0,0,1,.89-.39c.29,0,29.37,3.11,47.31,11.09a1,1,0,0,1,.54,1.22c-.24.74-24.44,74.82-60.08,137.19A1,1,0,0,1,673,698Zm-63.52-2h62.94c33.3-58.44,56.54-127,59.34-135.45-16.31-7-41.28-10-45.31-10.49L647.88,600.5Z" style="fill: #1d1d1b"/>
        </g>
        <g>
          <path d="M596,571s39-21,90-22c0,0-37,89-78,148,0,0-34,3-49-6C559,691,588,628,596,571Z" style="fill: #fff"/>
          <path d="M594.93,698.5c-11.32,0-27.23-1.11-36.44-6.64a1,1,0,0,1-.4-1.28c.29-.63,29-63.52,36.92-119.72a1,1,0,0,1,.52-.74c.39-.21,39.79-21.13,90.45-22.12a1,1,0,0,1,.85.44,1,1,0,0,1,.09.94c-.37.89-37.51,89.78-78.1,148.19a1,1,0,0,1-.73.43C607.54,698,602.17,698.5,594.93,698.5Zm-34.64-7.92c13.94,7.66,43.13,5.76,47.16,5.46,37.55-54.18,72.09-134.37,77-146-46.54,1.29-83.15,19.34-87.56,21.61C589.39,624.48,563.71,682.94,560.29,690.58Z" style="fill: #1d1d1b"/>
        </g>
        <g>
          <path d="M596,571c-1,7-2.28,14-3.79,21.08l.21-.39S600,598,639,588c0,0-27.93,66.92-53,109l-.92.21A169.49,169.49,0,0,0,608,697c41-59,78-148,78-148C635,550,596,571,596,571Z" style="fill: #fff"/>
          <path d="M595,698.48c-3.07,0-6.47-.08-10-.31a1,1,0,0,1-.17-2l.51-.12c22.35-37.63,47.23-95.58,51.91-106.62-31.18,7.77-41.79,4.85-44.64,3.51a1,1,0,0,1-1.43-1.1c1.58-7.31,2.85-14.38,3.78-21a1,1,0,0,1,.52-.74c.39-.21,39.79-21.13,90.45-22.12a1,1,0,0,1,.85.44,1,1,0,0,1,.09.94c-.37.89-37.51,89.78-78.1,148.19a1,1,0,0,1-.73.43C608,698,602.51,698.48,595,698.48Zm-7.44-2.17a175.2,175.2,0,0,0,19.87-.27c37.55-54.18,72.1-134.37,77-146-46.54,1.29-83.15,19.34-87.56,21.61-.88,6.18-2,12.72-3.49,19.48,1.93.94,12.07,4.43,45.32-4.1a1,1,0,0,1,1,.32,1,1,0,0,1,.16,1C639.65,589.05,612.19,654.62,587.58,696.31Z" style="fill: #1d1d1b"/>
        </g>
        <path d="M630.76,692.26a1,1,0,0,1-1-.68l-4.61-13.44a1,1,0,0,1,1.9-.65l4.6,13.44a1,1,0,0,1-.62,1.28A1.19,1.19,0,0,1,630.76,692.26Z" style="fill: #fff"/>
        <path d="M635.29,688.61a1,1,0,0,1-.94-.65l-4.58-12.23a1,1,0,1,1,1.88-.7l4.57,12.23a1,1,0,0,1-.58,1.29A1.12,1.12,0,0,1,635.29,688.61Z" style="fill: #fff"/>
        <path d="M670.55,562.06a3.63,3.63,0,0,1-3.41-2.44,3.42,3.42,0,0,1,2-4.12,1,1,0,0,1,1.11.28,2.35,2.35,0,0,1,.84-.36,2.51,2.51,0,0,1,2,.42,3.15,3.15,0,0,1,1.1,3.1A3.87,3.87,0,0,1,671,562,3,3,0,0,1,670.55,562.06Zm-1-4.56a1.44,1.44,0,0,0-.54,1.52,1.6,1.6,0,0,0,1.67,1,1.85,1.85,0,0,0,1.5-1.47,1.23,1.23,0,0,0-.32-1.14.58.58,0,0,0-.42-.07.27.27,0,0,0-.16.09,1,1,0,0,1-1.35.4A1.1,1.1,0,0,1,669.59,557.5Z" style="fill: #1d1d1b"/>
        <path d="M601.55,579.06a3.63,3.63,0,0,1-3.41-2.44,3.42,3.42,0,0,1,2-4.12,1,1,0,0,1,1.11.28,2.35,2.35,0,0,1,.84-.36,2.51,2.51,0,0,1,2,.42,3.15,3.15,0,0,1,1.1,3.1A3.87,3.87,0,0,1,602,579,3,3,0,0,1,601.55,579.06Zm-1-4.56a1.44,1.44,0,0,0-.54,1.52,1.6,1.6,0,0,0,1.67,1,1.85,1.85,0,0,0,1.5-1.47,1.23,1.23,0,0,0-.32-1.14.58.58,0,0,0-.42-.07.27.27,0,0,0-.16.09,1,1,0,0,1-1.35.4A1.1,1.1,0,0,1,600.59,574.5Z" style="fill: #1d1d1b"/>
        <path d="M603.55,695.06a3.63,3.63,0,0,1-3.41-2.44,3.42,3.42,0,0,1,2-4.12,1,1,0,0,1,1.11.28,2.35,2.35,0,0,1,.84-.36,2.51,2.51,0,0,1,2,.42,3.15,3.15,0,0,1,1.1,3.1A3.87,3.87,0,0,1,604,695,3,3,0,0,1,603.55,695.06Zm-1-4.56a1.44,1.44,0,0,0-.54,1.52,1.6,1.6,0,0,0,1.67,1,1.85,1.85,0,0,0,1.5-1.47,1.23,1.23,0,0,0-.32-1.14.58.58,0,0,0-.42-.07.27.27,0,0,0-.16.09,1,1,0,0,1-1.35.4A1.1,1.1,0,0,1,602.59,690.5Z" style="fill: #1d1d1b"/>
        <path d="M604.63,643.2a1,1,0,0,1-.55-.17,1,1,0,0,1-.34-1.29l5.58-10.87a1,1,0,0,1,1.34-.44,1,1,0,0,1,.44,1.35l-4.93,9.61a1,1,0,0,1-.22.78l-.55.67A1,1,0,0,1,604.63,643.2Z" style="fill: #1d1d1b"/>
        <path d="M604.48,600.84c-3.74,0-7.9-.43-10.5-2.05a1,1,0,1,1,1-1.7c3.49,2.17,11.3,2,16.93,1.23a96.92,96.92,0,0,0,17.76-3.85,1,1,0,0,1,.65,1.9,99.14,99.14,0,0,1-18.13,3.93A59.21,59.21,0,0,1,604.48,600.84Z" style="fill: #1d1d1b"/>
        <path d="M633.79,641a.94.94,0,0,1-.48-.13,1,1,0,0,1-.4-1.35l30-55.61a58.38,58.38,0,0,0,4.59-10,1,1,0,0,1,1.25-.65,1,1,0,0,1,.66,1.25,60.43,60.43,0,0,1-4.74,10.32l-30,55.61A1,1,0,0,1,633.79,641Z" style="fill: #1d1d1b"/>
      </g>
      <g>
        <g>
          <path d="M708,581s-9-12-18,0-1,23,8,23,10-8,10-8Z" style="fill: #fff"/>
          <path d="M698,605a13.08,13.08,0,0,1-11.52-7.29c-2.61-5.22-1.62-11.53,2.72-17.31,2.85-3.8,6-5.73,9.47-5.73,5.76,0,10,5.5,10.13,5.73a1,1,0,0,1,.2.6v15a.49.49,0,0,1,0,.12A10.56,10.56,0,0,1,698,605Zm.67-28.33h0c-2.76,0-5.41,1.66-7.86,4.93-3.86,5.15-4.79,10.7-2.53,15.22A11.06,11.06,0,0,0,698,603c7.69,0,8.89-6.35,9-7.07V581.35C706.16,580.35,702.8,576.67,698.67,576.67Z" style="fill: #1d1d1b"/>
        </g>
        <g>
          <path d="M696,583s12-15,59-22,90,14,84,34-38,9-44,8-6-2-6-2-24-33-90-4C698.71,598.47,686,594,696,583Z" style="fill: #fff"/>
          <path d="M773.62,559.62c39,0,70.57,18.07,65.38,35.38-2.8,9.33-11.26,11.91-20.09,11.91-10.11,0-20.71-3.38-23.91-3.91-6-1-6-2-6-2s-11.59-15.93-40.79-15.93c-12.83,0-29.06,3.08-49.21,11.93,0,.18-.26.27-.61.27-2.47,0-11.16-4.62-2.39-14.27,0,0,12-15,59-22a126.6,126.6,0,0,1,18.62-1.38m0-2a128.28,128.28,0,0,0-18.91,1.4c-46.27,6.89-59.23,21.48-60.23,22.67-5,5.56-4.76,9.74-3.64,12.26a9.36,9.36,0,0,0,7.55,5.32,2.72,2.72,0,0,0,1.85-.63c17.59-7.68,33.73-11.57,48-11.57,25.87,0,37.48,13,39,14.89.66,1.37,2.92,2.26,7.46,3,.7.12,1.87.41,3.35.77,4.85,1.19,13,3.17,20.89,3.17,12,0,19.35-4.48,22-13.34,1.51-5,.34-10.33-3.37-15.32-9.91-13.32-36.2-22.63-63.93-22.63Z" style="fill: #1d1d1b"/>
        </g>
        <path d="M752,577c-30.81,1.74-49.4,12.78-56.3,19.37,1.62.94,3.2,1.14,3.3.63,60-26.35,85.27-1.51,89.38,3.25L815,582S805,574,752,577Z" style="fill: #ababab"/>
        <g>
          <path d="M813,581s-111-8-127,81c0,0,10,7,20,1,.51-5.15,6.83-61.18,114-55" style="fill: #fff"/>
          <path d="M697.24,666.45a22.34,22.34,0,0,1-11.81-3.63,1,1,0,0,1-.41-1c8.35-46.47,42.78-66.24,70.19-74.65A178.64,178.64,0,0,1,813.07,580a1,1,0,1,1-.14,2,176.6,176.6,0,0,0-57.19,7.1c-38.83,11.92-61.91,36.28-68.63,72.41,2.09,1.25,10,5.31,17.95.88.56-4.82,3.37-19.06,17.26-31.87,19.73-18.21,52.61-26.12,97.74-23.52a1,1,0,0,1-.12,2c-44.55-2.57-77,5.16-96.26,23-13.9,12.82-16.29,27-16.68,31.11a1,1,0,0,1-.49.76A17.75,17.75,0,0,1,697.24,666.45Z" style="fill: #1d1d1b"/>
        </g>
        <path d="M839,595a13.43,13.43,0,0,0,.49-2.48c-14.41,15.12-53,.7-97.49,19.48-37.31,15.75-40.94,43.88-41.09,53,1.67-.36,2.38,0,4.09-1,3-34,43-62,114.71-57.1C828.25,606.74,836.29,604.05,839,595Z" style="fill: #ababab"/>
        <g>
          <path d="M686,660.77S665,675,665,708a16.77,16.77,0,0,0,15,0s-1-30,11-35c0,0-6,15,1,47,0,0,6,3,16-4,0,0-13-24-8-43,0,0,2,26,26,27,0,0,7-3,7-9,0,0-23-4-25-20,0,0,10,11,23,6a14,14,0,0,0,2-12s-20.18,7.54-26.59-4.23C706.41,660.77,694,667.54,686,660.77Z" style="fill: #fff"/>
          <path d="M695.64,721.64a9.56,9.56,0,0,1-4.09-.75,1,1,0,0,1-.53-.68c-5.44-24.89-3.13-39.51-1.72-45-9,7.18-8.31,32.52-8.3,32.8a1,1,0,0,1-.55.92,17.65,17.65,0,0,1-16,0,1,1,0,0,1-.5-.87c0-33.15,21.22-47.91,21.44-48.06a1,1,0,0,1,1.21.07c7.37,6.24,19.16,0,19.28-.12a1,1,0,0,1,1.36.4c5.92,10.89,25.17,3.85,25.36,3.77a1,1,0,0,1,.8.05,1,1,0,0,1,.51.62,14.91,14.91,0,0,1-2.18,12.9,1,1,0,0,1-.42.3c-9.7,3.73-17.85-1.08-21.71-4.12C713.79,686.48,733,690,733.17,690a1,1,0,0,1,.83,1c0,6.58-7.3,9.79-7.61,9.92a.87.87,0,0,1-.43.08c-17.6-.73-23.8-14.56-25.92-22.48-1.66,17.34,8.72,36.79,8.84,37a1,1,0,0,1-.31,1.3C703,720.72,698.58,721.64,695.64,721.64Zm-2.78-2.38c1.42.43,6.37,1.37,13.84-3.59-2.25-4.41-12.25-25.49-7.67-42.92a1,1,0,0,1,1.06-.75,1,1,0,0,1,.91.92c.08,1,2.21,25,24.8,26.07,1-.49,5.61-3,6.15-7.18-4.38-.93-23.08-5.77-24.94-20.69a1,1,0,0,1,1.73-.79c.39.42,9.57,10.28,21.63,5.84a12.91,12.91,0,0,0,1.92-9.87c-4.27,1.39-19.95,5.64-26.27-4.22-3,1.41-12.82,5.37-20-.05-3.33,2.59-19.74,16.81-20,45.36a15.77,15.77,0,0,0,13,0c-.08-4.6,0-30.46,11.63-35.3a1,1,0,0,1,1.08.21,1,1,0,0,1,.23,1.08C691.87,673.52,686.21,688.37,692.86,719.26Z" style="fill: #1d1d1b"/>
        </g>
        <g>
          <path d="M719.12,584.54a1,1,0,0,1-1-.66,16.93,16.93,0,0,1,1.12-13.71,1,1,0,0,1,1.75,1,14.83,14.83,0,0,0-1,12.06,1,1,0,0,1-.61,1.28A1,1,0,0,1,719.12,584.54Z" style="fill: #1d1d1b"/>
          <path d="M750.15,582.8a1,1,0,0,1-.91-.58,17.15,17.15,0,0,1,3.35-19,1,1,0,1,1,1.4,1.42,15.12,15.12,0,0,0-2.94,16.77,1,1,0,0,1-.47,1.33A1.12,1.12,0,0,1,750.15,582.8Z" style="fill: #1d1d1b"/>
          <path d="M783.39,582.66a1,1,0,0,1-1-1,19.55,19.55,0,0,1,6.36-15,1,1,0,1,1,1.34,1.48,17.51,17.51,0,0,0-5.7,13.43,1,1,0,0,1-1,1Z" style="fill: #1d1d1b"/>
          <path d="M709.37,590a1,1,0,0,1-.87-.5,15.55,15.55,0,0,1-.44-14.22,1,1,0,0,1,1.8.87,13.52,13.52,0,0,0,.38,12.36,1,1,0,0,1-.38,1.37A1,1,0,0,1,709.37,590Z" style="fill: #1d1d1b"/>
          <path d="M767.5,577.42a1,1,0,0,1-1-.78,17.61,17.61,0,0,1,4.53-15.85,1,1,0,0,1,1.43,1.41,15.55,15.55,0,0,0-4,14,1,1,0,0,1-.75,1.19Z" style="fill: #1d1d1b"/>
          <path d="M715.7,640.59a1,1,0,0,1-.59-.19,21.6,21.6,0,0,0-15.48-3.85,1,1,0,1,1-.28-2,23.57,23.57,0,0,1,16.93,4.21,1,1,0,0,1-.58,1.81Z" style="fill: #1d1d1b"/>
          <path d="M707.27,652.69a1,1,0,0,1-.49-.13,15.78,15.78,0,0,0-12.07-1.34,1,1,0,0,1-.58-1.92,17.85,17.85,0,0,1,13.63,1.52,1,1,0,0,1,.38,1.36A1,1,0,0,1,707.27,652.69Z" style="fill: #1d1d1b"/>
          <path d="M737,620.33a1,1,0,0,1-.88-.53,19.05,19.05,0,0,0-15.32-9.73,1,1,0,0,1-.94-1.06,1,1,0,0,1,1.06-.94,21.1,21.1,0,0,1,17,10.78,1,1,0,0,1-.88,1.48Z" style="fill: #1d1d1b"/>
          <path d="M758.38,610.57a1,1,0,0,1-.91-.59,24.1,24.1,0,0,0-11.83-11.77,1,1,0,0,1,.82-1.83,26.17,26.17,0,0,1,12.83,12.77,1,1,0,0,1-.5,1.32A.86.86,0,0,1,758.38,610.57Z" style="fill: #1d1d1b"/>
          <path d="M784.47,606.71l-.22,0a1,1,0,0,1-.75-1.2,16.35,16.35,0,0,0-10.64-19.15,1,1,0,0,1,.65-1.89,18.38,18.38,0,0,1,11.94,21.49A1,1,0,0,1,784.47,606.71Z" style="fill: #1d1d1b"/>
          <path d="M807.68,606.49l-.25,0a1,1,0,0,1-.72-1.21,18.88,18.88,0,0,0-10.64-21.9,1,1,0,1,1,.81-1.83,20.88,20.88,0,0,1,11.77,24.22A1,1,0,0,1,807.68,606.49Z" style="fill: #1d1d1b"/>
          <path d="M827.27,604.3a1,1,0,0,1-1-.9c-.39-3.79-1.12-8.67-3.32-12.84s-5.69-7.14-9.53-8a1,1,0,0,1,.45-1.95c4.41,1,8.37,4.33,10.85,9.06,2.36,4.47,3.13,9.6,3.54,13.57a1,1,0,0,1-.89,1.09Z" style="fill: #1d1d1b"/>
        </g>
      </g>
      <g>
        <path d="M253.94,520.42l26.54-2.32c79.73,3.45,110,104.4,110,104.4,10.08,1.68,17.45-6.67,19.55-9.38.4-.51.61-.83.61-.83S412,578.6,392.5,546.8c-15.94-26-45.82-50.69-101.72-54.71l-29.46-.17C133.06,500.11,126.5,627.5,126.5,627.5l22,10s-9-85,97-115Q249.79,521.29,253.94,520.42Z" style="fill: #fff"/>
        <path d="M261.32,491.92l29.46.17c55.9,4,85.78,28.72,101.72,54.71,19.5,31.8,18.16,65.49,18.16,65.49s-.21.32-.61.83c-1.91,2.47-8.18,9.6-16.89,9.6a16.36,16.36,0,0,1-2.66-.22s-30.29-101-110-104.4l-26.54,2.32q-4.16.87-8.44,2.08c-106,30-97,115-97,115l-22-10s6.56-127.39,134.82-135.58m0-2h-.13c-29.63,1.89-55.26,10.31-76.2,25-16.75,11.77-30.53,27.55-40.94,46.91A174.41,174.41,0,0,0,124.5,627.4a2,2,0,0,0,1.17,1.92l22,10a2,2,0,0,0,2.82-2c0-.21-2.05-21.17,8.67-45.42,9.89-22.35,33-52.19,86.88-67.45,2.69-.76,5.44-1.44,8.19-2l26.3-2.3c40.25,1.81,67.43,29.56,83.15,52.54a205.28,205.28,0,0,1,24.9,50.44,2,2,0,0,0,1.59,1.39,17.75,17.75,0,0,0,3,.25c9.42,0,16.06-7.25,18.47-10.37.43-.56.67-.9.69-.94a2,2,0,0,0,.34-1c0-1.4,1.14-34.67-18.46-66.62a107.67,107.67,0,0,0-36.54-36.25c-18.22-11-40.68-17.53-66.73-19.4h-.13l-29.47-.17Z" style="fill: #1d1d1b"/>
      </g>
      <path d="M233.87,517.28c-75.88,20.59-91.16,88.59-94.22,116.2l8.85,4s-9-85,97-115q4.29-1.21,8.44-2.08l26.54-2.32c79.73,3.45,110,104.4,110,104.4a16.22,16.22,0,0,0,7.57-.54C376,551,316,495,233.87,517.28Z" style="fill: #ababab"/>
      <g>
        <g>
          <path d="M397.4,787c14.28-106.53-2.6-187.94-2.6-187.94L195,589c-28,109,0,198,0,198Z" style="fill: #fff"/>
          <path d="M195,589l199.8,10.06s16.88,81.41,2.6,187.94H195s-28-89,0-198m0-2a2,2,0,0,0-1.94,1.5c-14.53,56.59-13.76,107.68-10.55,140.57C186,764.74,193,787.38,193.09,787.6A2,2,0,0,0,195,789H397.4a2,2,0,0,0,2-1.73,666.94,666.94,0,0,0,4.06-134.33c-2.42-33.42-6.65-54.08-6.7-54.28a2,2,0,0,0-1.85-1.6L195.1,587Z" style="fill: #1d1d1b"/>
        </g>
        <path d="M195,787H397.4c14.28-106.53-2.6-187.94-2.6-187.94l-10.44-.52c1.8,28.2,9.19,155.25-2.36,169.46-10.12,12.46-136,5.52-191.27,1.83C193.07,780.86,195,787,195,787Z" style="fill: #ababab"/>
        <g>
          <path d="M382.42,771.53h-.1a1,1,0,0,1-.9-1.09l1.44-15.12a1,1,0,0,1,1.09-.9,1,1,0,0,1,.9,1.09l-1.44,15.12A1,1,0,0,1,382.42,771.53Z" style="fill: #1d1d1b"/>
          <path d="M386.44,776.33h-.12a1,1,0,0,1-.87-1.12l1.62-13a1,1,0,0,1,1.11-.87,1,1,0,0,1,.87,1.12l-1.62,13A1,1,0,0,1,386.44,776.33Z" style="fill: #1d1d1b"/>
          <path d="M197.17,620.86h-.12a1,1,0,0,1-.88-1.11,49.47,49.47,0,0,1,7.17-20.34,1,1,0,0,1,1.7,1.06A47.27,47.27,0,0,0,198.16,620,1,1,0,0,1,197.17,620.86Z" style="fill: #1d1d1b"/>
          <path d="M203.74,623.71a1,1,0,0,1-.34-.06,1,1,0,0,1-.61-1.28l6-16.58a1,1,0,0,1,1.28-.6,1,1,0,0,1,.6,1.28l-6,16.58A1,1,0,0,1,203.74,623.71Z" style="fill: #1d1d1b"/>
        </g>
        <path d="M324,667.65l-.17,0a1,1,0,0,1-.82-1.16c1.37-7.86,1.31-16,1.25-23.84l-.33-47.27a1,1,0,0,1,1-1h0a1,1,0,0,1,1,1l.33,47.26c.06,7.95.12,16.16-1.27,24.21A1,1,0,0,1,324,667.65Z" style="fill: #1d1d1b"/>
        <path d="M349.42,669c-1.63,0-3.23-.12-4.74-.22l-14-1a12.4,12.4,0,0,0-5.47.41,1,1,0,0,1-.77-1.85,14.11,14.11,0,0,1,6.38-.55l14,1c3.2.23,6.51.47,9.57-.32a1,1,0,0,1,.5,1.94A22,22,0,0,1,349.42,669Z" style="fill: #1d1d1b"/>
        <path d="M356.22,668.75a1,1,0,0,1-1-.91,368.37,368.37,0,0,1,0-70.75,1,1,0,0,1,2,.2,366.74,366.74,0,0,0,0,70.36,1,1,0,0,1-.9,1.09Z" style="fill: #1d1d1b"/>
        <path d="M329.92,664.24a1,1,0,0,1-.92-.63,2.17,2.17,0,0,1-.91-.69,2.05,2.05,0,0,1-.32-2.06,3.19,3.19,0,0,1,3-1.67,3,3,0,0,1,2.49,1.1,2.28,2.28,0,0,1-.66,3.08,4.65,4.65,0,0,1-2.56.86Zm-.07-2.52a1.08,1.08,0,0,1,.81.38,1.84,1.84,0,0,0,.69-.31.54.54,0,0,0,.23-.38,1.1,1.1,0,0,0-.82-.22,1.33,1.33,0,0,0-1.14.45s0,.05.09.09Z" style="fill: #1d1d1b"/>
        <path d="M349.85,664.73a2.36,2.36,0,0,1-1.11-.26,2.51,2.51,0,0,1-1.56-.58,2.22,2.22,0,0,1-.84-2,3,3,0,0,1,3.2-2.23,3.37,3.37,0,0,1,2.34,1.14,2.41,2.41,0,0,1,.6,1.83,2.38,2.38,0,0,1-1.46,1.87A2.72,2.72,0,0,1,349.85,664.73Zm-.68-2.33a1,1,0,0,1,.74.33.84.84,0,0,0,.26-.07.63.63,0,0,0,.33-.28.47.47,0,0,0-.14-.31,1.37,1.37,0,0,0-.93-.44c-.56,0-1.08.3-1.11.54a.46.46,0,0,0,.2.22.41.41,0,0,0,.32.07A1,1,0,0,1,349.17,662.4Z" style="fill: #1d1d1b"/>
        <path d="M350.43,635.17a1,1,0,0,1-1-.91,129,129,0,0,1,1.6-35,1,1,0,1,1,2,.36,127.42,127.42,0,0,0-1.57,34.43,1,1,0,0,1-.9,1.09Z" style="fill: #1d1d1b"/>
      </g>
      <g>
        <path d="M379.5,434c-50.61-31.92-98.18.42-118.18,56.42a168,168,0,0,0-7.38,28.5A182.65,182.65,0,0,0,251.5,543c-3,85,2,131,2,131h18s-8.91-95,9-157.4a128.33,128.33,0,0,1,10.3-26A62.09,62.09,0,0,1,304.5,473c39.42-33.67,70.87-15.65,88,72.3,19.5,31.8,18.16,65.49,18.16,65.49s-.21.32-.61.83l4.45-.62,4-5S444.5,475,379.5,434Z" style="fill: #fff"/>
        <path d="M339.41,421.4c12.81,0,26.34,3.93,40.09,12.6,65,41,39,172,39,172l-4,5-4.45.62c.4-.51.61-.83.61-.83S412,577.1,392.5,545.3c-11.84-60.79-30.52-88.17-53.94-88.17-10.47,0-21.89,5.47-34.06,15.87a62.09,62.09,0,0,0-13.72,17.59,128.33,128.33,0,0,0-10.3,26c-17.89,62.35-9,157.4-9,157.4h-18s-5-46-2-131a182.65,182.65,0,0,1,2.44-24.08,168,168,0,0,1,7.38-28.5c14.57-40.79,43.75-69,78.09-69m0-2c-33.83,0-64.48,27-80,70.34A171.12,171.12,0,0,0,252,518.59a186,186,0,0,0-2.47,24.34c-3,84.17,2,130.82,2,131.29a2,2,0,0,0,2,1.78h18a2,2,0,0,0,2-2.19c-.09-.94-8.67-95.39,8.92-156.66a126,126,0,0,1,10.13-25.6,60.4,60.4,0,0,1,13.26-17c11.95-10.21,23-15.39,32.76-15.39,11.16,0,21.13,6.85,29.62,20.35,9.1,14.48,16.62,36.75,22.36,66.2a2,2,0,0,0,.25.66c17.56,28.62,17.93,59.21,17.88,63.79l-.2.27a2,2,0,0,0,1.58,3.22,1.32,1.32,0,0,0,.28,0l4.45-.62a2,2,0,0,0,1.28-.73l4-5a2,2,0,0,0,.4-.86,337.87,337.87,0,0,0,4.91-71.1c-.95-22.2-4.48-41.65-10.48-57.81-7.57-20.38-19.12-35.58-34.32-45.17-13.58-8.57-27.43-12.91-41.16-12.91Z" style="fill: #1d1d1b"/>
      </g>
      <path d="M407.75,584.07C388.64,392.41,309.6,440.41,279,493c-27.3,46.93-16,151.36-12.12,181h4.62s-8.91-95,9-157.4a128.33,128.33,0,0,1,10.3-26A62.09,62.09,0,0,1,304.5,473c39.42-33.67,70.87-15.65,88,72.3A124.38,124.38,0,0,1,407.75,584.07Z" style="fill: #ababab"/>
      <g>
        <g>
          <path d="M134,707s64-17,97,9c0,0,10,56,0,88l-97-2S123,749,134,707Z" style="fill: #fff"/>
          <path d="M178.37,701.54c18.21,0,38.33,3.19,52.63,14.46,0,0,10,56,0,88l-97-2s-11-53,0-95a193.71,193.71,0,0,1,44.37-5.46m0-2v0h0a197.24,197.24,0,0,0-44.88,5.53,2,2,0,0,0-1.42,1.42c-11,42-.14,95.38,0,95.92A2,2,0,0,0,134,804l97,2h0a2,2,0,0,0,1.91-1.4c10-32.1.47-86.65.06-89a2,2,0,0,0-.73-1.22c-12.54-9.88-30.66-14.89-53.87-14.89Z" style="fill: #1d1d1b"/>
        </g>
        <path d="M134,802l97,2c10-32,0-88,0-88a51.12,51.12,0,0,0-4.87-3.4c.92,11.36,6,79.73-3.13,83.4-7.69,3.08-64.47.24-90.28-1.24C133.45,799.35,134,802,134,802Z" style="fill: #ababab"/>
        <path d="M153.77,803.39a1,1,0,0,1-.68-.27,175.7,175.7,0,0,1-22.38-25.2,1,1,0,1,1,1.62-1.18,172.79,172.79,0,0,0,22.12,24.91,1,1,0,0,1,.06,1.42A1,1,0,0,1,153.77,803.39Z" style="fill: #1d1d1b"/>
        <path d="M170.19,803.49a1,1,0,0,1-.69-.28,367.49,367.49,0,0,1-40.84-45.62,1,1,0,0,1,.2-1.4,1,1,0,0,1,1.4.19,365.83,365.83,0,0,0,40.62,45.38,1,1,0,0,1-.69,1.73Z" style="fill: #1d1d1b"/>
        <path d="M189,805a1,1,0,0,1-.7-.28c-23.49-22.83-41.88-45-57.88-69.64a1,1,0,1,1,1.67-1.09c15.92,24.55,34.23,46.57,57.61,69.29A1,1,0,0,1,189,805Z" style="fill: #1d1d1b"/>
        <path d="M210.34,803.23a1,1,0,0,1-.71-.3,1039.8,1039.8,0,0,1-78-87.34,1,1,0,0,1,1.57-1.25,1037.48,1037.48,0,0,0,77.81,87.18,1,1,0,0,1-.71,1.71Z" style="fill: #1d1d1b"/>
        <path d="M229.82,805.75a1,1,0,0,1-.73-.32c-29.38-31.73-57.88-65-84.71-98.91a1,1,0,0,1,1.57-1.24c26.8,33.86,55.26,67.1,84.61,98.79a1,1,0,0,1-.74,1.68Z" style="fill: #1d1d1b"/>
        <path d="M232.85,775.65a1,1,0,0,1-.73-.32l-65.68-70.52a1,1,0,1,1,1.46-1.37L233.58,774a1,1,0,0,1-.73,1.68Z" style="fill: #1d1d1b"/>
        <path d="M233.38,753.58a1,1,0,0,1-.73-.31,390.55,390.55,0,0,1-41-51.32,1,1,0,1,1,1.66-1.12,388.07,388.07,0,0,0,40.83,51.06,1,1,0,0,1,0,1.41A1,1,0,0,1,233.38,753.58Z" style="fill: #1d1d1b"/>
      </g>
      <g>
        <path d="M271.47,673.36l6.9,15.38-65.84,35.14s-26.1-39.23,39.8-54.33Z"/>
        <path d="M252.33,669.55l19.14,3.81,6.9,15.38-65.84,35.14s-26.1-39.23,39.8-54.33m0-2a2.3,2.3,0,0,0-.45.05c-24.26,5.56-39.21,15-44.44,28.14-5.94,14.9,3,28.67,3.42,29.25a2,2,0,0,0,1.67.89,2,2,0,0,0,.94-.24l65.84-35.13a2,2,0,0,0,.89-2.59l-6.91-15.38a2,2,0,0,0-1.43-1.14l-19.14-3.81a1.72,1.72,0,0,0-.39,0Z" style="fill: #1d1d1b"/>
      </g>
      <g>
        <path d="M130,630.17S79.66,616.62,75.73,665.8l72.8-10.54.13-19.51Z"/>
        <path d="M115.27,628.46A62.59,62.59,0,0,1,130,630.17l18.68,5.58-.13,19.51L75.73,665.8c2.54-31.71,24.36-37.34,39.54-37.34m0-2c-14.34,0-38.81,5.09-41.54,39.18a2,2,0,0,0,.63,1.62,2,2,0,0,0,1.37.54,1.46,1.46,0,0,0,.29,0l72.8-10.55a2,2,0,0,0,1.71-2l.13-19.5a2,2,0,0,0-1.43-1.93l-18.68-5.59h-.05a63.72,63.72,0,0,0-15.23-1.78Z" style="fill: #1d1d1b"/>
      </g>
      <g>
        <path d="M392.5,546.8c-17.13-87.95-48.58-106-88-72.3a62.09,62.09,0,0,0-13.72,17.59C346.68,496.11,376.56,520.81,392.5,546.8Z" style="fill: none"/>
        <path d="M148.24,615.74a1,1,0,0,1-.67-.25,16.33,16.33,0,0,0-17.06-2.62,1,1,0,0,1-.82-1.83,18.43,18.43,0,0,1,19.21,3,1,1,0,0,1-.66,1.75Z" style="fill: #1d1d1b"/>
        <path d="M132.9,596.56a1,1,0,0,1-.43-1.91,21.66,21.66,0,0,1,17.63-.23,1,1,0,1,1-.8,1.83,19.64,19.64,0,0,0-16,.21A.92.92,0,0,1,132.9,596.56Z" style="fill: #1d1d1b"/>
        <path d="M162.23,578.4a1,1,0,0,1-.8-.4,14.39,14.39,0,0,0-19.51-2.57,1,1,0,1,1-1.24-1.57A16.39,16.39,0,0,1,163,576.79a1,1,0,0,1-.19,1.41A1,1,0,0,1,162.23,578.4Z" style="fill: #1d1d1b"/>
        <path d="M179.3,555.11a1,1,0,0,1-.85-.47,17.85,17.85,0,0,0-20.82-7,1,1,0,0,1-1.29-.58,1,1,0,0,1,.58-1.29,19.89,19.89,0,0,1,23.22,7.81,1,1,0,0,1-.31,1.38A1,1,0,0,1,179.3,555.11Z" style="fill: #1d1d1b"/>
        <path d="M198.82,538a1,1,0,0,1-1-.78,16.66,16.66,0,0,0-19.32-12.08,1,1,0,0,1-.46-1.94,18.65,18.65,0,0,1,21.73,13.58A1,1,0,0,1,199,538Z" style="fill: #1d1d1b"/>
        <path d="M221.15,524.2a1,1,0,0,1-1-.91c-.82-8.3-9.13-15.36-17.46-14.82a1,1,0,1,1-.13-2c9.49-.63,18.65,7.14,19.58,16.62a1,1,0,0,1-.9,1.09Z" style="fill: #1d1d1b"/>
        <path d="M245.85,522.8h-.09a1,1,0,0,1-.91-1.09A22.5,22.5,0,0,0,232.5,500a1,1,0,1,1,.86-1.81,24.59,24.59,0,0,1,13.49,23.75A1,1,0,0,1,245.85,522.8Z" style="fill: #1d1d1b"/>
        <path d="M292.78,515.93a1,1,0,0,1-1-.86,12.65,12.65,0,0,0-5.05-8.39,1,1,0,0,1,1.17-1.63,14.73,14.73,0,0,1,5.86,9.74,1,1,0,0,1-.86,1.13Z" style="fill: #1d1d1b"/>
        <path d="M316.18,524.22a1,1,0,0,1-.54-.16,1,1,0,0,1-.31-1.38,20.84,20.84,0,0,0-.76-22.93,1,1,0,0,1,1.61-1.17,22.85,22.85,0,0,1,.84,25.17A1,1,0,0,1,316.18,524.22Z" style="fill: #1d1d1b"/>
        <path d="M331.39,538.11a1,1,0,0,1-.82-.41,1,1,0,0,1,.23-1.4,32.11,32.11,0,0,0,12.82-28.85,1,1,0,1,1,2-.22A33.72,33.72,0,0,1,332,537.92,1,1,0,0,1,331.39,538.11Z" style="fill: #1d1d1b"/>
        <path d="M347.79,548.23a1,1,0,0,1-1-1,1,1,0,0,1,1-1,24.48,24.48,0,0,0,21.5-14.6,1,1,0,0,1,1.85.77,26.56,26.56,0,0,1-23.31,15.83Z" style="fill: #1d1d1b"/>
        <path d="M363.11,564.38a24.66,24.66,0,0,1-3.09-.2,1,1,0,0,1,.26-2c10.21,1.36,21.16-5.09,25-14.66a1,1,0,0,1,1.29-.56,1,1,0,0,1,.57,1.3A26.26,26.26,0,0,1,363.11,564.38Z" style="fill: #1d1d1b"/>
        <path d="M372.52,581.29c-.47,0-.94,0-1.4,0a1,1,0,0,1,.1-2,28.54,28.54,0,0,0,24.19-11.72,1,1,0,0,1,1.63,1.16A30.68,30.68,0,0,1,372.52,581.29Z" style="fill: #1d1d1b"/>
        <path d="M384.86,598.67a20.74,20.74,0,0,1-2.09-.1,1,1,0,0,1-.91-1.09,1,1,0,0,1,1.09-.9A22.88,22.88,0,0,0,402.71,588a1,1,0,1,1,1.58,1.22A25,25,0,0,1,384.86,598.67Z" style="fill: #1d1d1b"/>
        <path d="M268.58,659.79a1,1,0,0,1-.7-.29,9.19,9.19,0,0,0-12.31-.11,1,1,0,0,1-1.39-1.44,11.13,11.13,0,0,1,15.11.14,1,1,0,0,1,0,1.41A1,1,0,0,1,268.58,659.79Z" style="fill: #1d1d1b"/>
        <path d="M267.87,645.37a1,1,0,0,1-.7-.28,11.05,11.05,0,0,0-14.56-.33,1,1,0,0,1-1.42-.08,1,1,0,0,1,.08-1.41,13.15,13.15,0,0,1,17.3.39,1,1,0,0,1,0,1.41A1,1,0,0,1,267.87,645.37Z" style="fill: #1d1d1b"/>
        <path d="M251.54,620.61a1,1,0,0,1-.49-1.87,23.1,23.1,0,0,1,15.78-2.37,1,1,0,0,1-.42,2A21,21,0,0,0,252,620.49,1,1,0,0,1,251.54,620.61Z" style="fill: #1d1d1b"/>
        <path d="M252.38,591.72a1,1,0,0,1-.48-.12,1,1,0,0,1-.4-1.35,11.36,11.36,0,0,1,18.8-1.79,1,1,0,1,1-1.55,1.26,9.36,9.36,0,0,0-15.49,1.48A1,1,0,0,1,252.38,591.72Z" style="fill: #1d1d1b"/>
        <path d="M269.58,563.92a1,1,0,0,1-.8-.4,10.46,10.46,0,0,0-15.65-.32,1,1,0,1,1-1.55-1.27,12.46,12.46,0,0,1,18.8.39,1,1,0,0,1-.2,1.4A1,1,0,0,1,269.58,563.92Z" style="fill: #1d1d1b"/>
        <path d="M272.31,541.14a.94.94,0,0,1-.63-.23,14.12,14.12,0,0,0-16.11-.88,1,1,0,0,1-1.09-1.68,16,16,0,0,1,18.47,1,1,1,0,0,1-.64,1.77Z" style="fill: #1d1d1b"/>
        <path d="M273.65,515.8a1,1,0,0,1-.78-.36,10.58,10.58,0,0,0-14.58-1.17,1,1,0,0,1-1.33-1.5,12.57,12.57,0,0,1,17.46,1.4,1,1,0,0,1-.77,1.63Z" style="fill: #1d1d1b"/>
        <path d="M285.2,489.1a1,1,0,0,1-.81-.41c-4.21-5.75-13.23-7.53-19.3-3.81a1,1,0,1,1-1-1.71A17,17,0,0,1,286,487.51a1,1,0,0,1-.21,1.39A1,1,0,0,1,285.2,489.1Z" style="fill: #1d1d1b"/>
        <path d="M305.49,469a1,1,0,0,1-.87-.5,21.16,21.16,0,0,0-23.21-9.36,1,1,0,1,1-.55-1.92,22.92,22.92,0,0,1,25.49,10.28,1,1,0,0,1-.86,1.5Z" style="fill: #1d1d1b"/>
        <path d="M322.81,457.43h-.16a1,1,0,0,1-.83-1.15,17.29,17.29,0,0,0-18.71-20,1,1,0,1,1-.19-2,19.28,19.28,0,0,1,20.87,22.27A1,1,0,0,1,322.81,457.43Z" style="fill: #1d1d1b"/>
        <path d="M339.94,455.15a1,1,0,0,1-.72-1.69,18.34,18.34,0,0,0-2.28-27.26,1,1,0,0,1,1.2-1.6,20.35,20.35,0,0,1,2.53,30.24A1,1,0,0,1,339.94,455.15Z" style="fill: #1d1d1b"/>
        <path d="M356,463a1,1,0,0,1-.66-1.75,31.61,31.61,0,0,0,9.76-29.94,1,1,0,0,1,.76-1.19,1,1,0,0,1,1.19.75,33.65,33.65,0,0,1-10.39,31.88A1,1,0,0,1,356,463Z" style="fill: #1d1d1b"/>
        <path d="M371.87,475.48a1,1,0,0,1-.13-2,28,28,0,0,0,22.63-18.69,1,1,0,0,1,1.26-.64,1,1,0,0,1,.64,1.27,30,30,0,0,1-24.27,20Z" style="fill: #1d1d1b"/>
        <path d="M387.62,500.75a32.35,32.35,0,0,1-3.55-.2,1,1,0,0,1,.23-2,31.9,31.9,0,0,0,25.9-9.23,1,1,0,0,1,1.43,1.39A34,34,0,0,1,387.62,500.75Z" style="fill: #1d1d1b"/>
        <path d="M397,522a32.45,32.45,0,0,1-9.57-1.43,1,1,0,1,1,.59-1.91,31.17,31.17,0,0,0,26-3.7,1,1,0,1,1,1.1,1.67A33.21,33.21,0,0,1,397,522Z" style="fill: #1d1d1b"/>
        <path d="M402.91,547.65a21.48,21.48,0,0,1-5.87-.8,1,1,0,0,1-.7-1.23,1,1,0,0,1,1.24-.69,20.64,20.64,0,0,0,17.67-3.32,1,1,0,1,1,1.2,1.6A22.68,22.68,0,0,1,402.91,547.65Z" style="fill: #1d1d1b"/>
        <path d="M407.81,564.67a18.13,18.13,0,0,1-4.58-.57,1,1,0,0,1,.51-1.94,16.83,16.83,0,0,0,13-2,1,1,0,1,1,1.06,1.69A18.84,18.84,0,0,1,407.81,564.67Z" style="fill: #1d1d1b"/>
        <path d="M413.82,582a13.86,13.86,0,0,1-4.46-.74,1,1,0,0,1,.65-1.89,11.81,11.81,0,0,0,7.61,0,1,1,0,1,1,.65,1.89A13.85,13.85,0,0,1,413.82,582Z" style="fill: #1d1d1b"/>
      </g>
      <path d="M79,661.06a1,1,0,0,1-1-.79,1,1,0,0,1,.77-1.19c.33-.06,32.8-6.77,66.41-8.33a1,1,0,0,1,.09,2C111.8,654.3,79.47,661,79.15,661A.71.71,0,0,1,79,661.06Z" style="fill: #fff"/>
      <path d="M212.46,721.27a1,1,0,0,1-.45-1.9l63.15-31.68a1,1,0,1,1,.89,1.79l-63.14,31.68A1.06,1.06,0,0,1,212.46,721.27Z" style="fill: #fff"/>
      <path d="M241.69,705.15a1,1,0,0,1-.95-.68,35.35,35.35,0,0,0-17.94-20.71,1,1,0,0,1,.76-1.84,36.66,36.66,0,0,1,19.08,21.92,1,1,0,0,1-.64,1.26A.84.84,0,0,1,241.69,705.15Z" style="fill: #fff"/>
      <path d="M107.49,655.26a.78.78,0,0,1-.26,0,1,1,0,0,1-.71-1.22c3.2-11.89-5.73-22-5.82-22.11a1,1,0,0,1,1.49-1.34c.4.44,9.75,11,6.27,24A1,1,0,0,1,107.49,655.26Z" style="fill: #fff"/>
      <g>
        <g>
          <path d="M663.35,417s-12.54-19.35,4.47-27.08S696,400.07,696,400.07Z"/>
          <path d="M663.35,418a1,1,0,0,1-.84-.45c-.27-.42-6.57-10.29-4-19.07,1.21-4.15,4.2-7.34,8.89-9.47,17.61-8,29.3,10.33,29.41,10.51a1,1,0,0,1,.12.79,1,1,0,0,1-.5.63l-32.62,17A1,1,0,0,1,663.35,418Zm13-29a19.56,19.56,0,0,0-8.14,1.86c-4.13,1.88-6.76,4.64-7.8,8.21-1.93,6.57,1.92,14.21,3.3,16.64l30.78-16C692.53,397,686,389,676.37,389Z" style="fill: #1d1d1b"/>
        </g>
        <g>
          <path d="M728,364a196.07,196.07,0,0,1,36,40s11,36,16,56c0,0-37,39-100,67a219.47,219.47,0,0,1-30-8l63-70Z"/>
          <path d="M680,528h-.16a223.88,223.88,0,0,1-30.16-8,1,1,0,0,1-.65-.7,1,1,0,0,1,.23-.92l62.81-69.79L727,363.83a1,1,0,0,1,1.6-.61,198.92,198.92,0,0,1,36.21,40.22,1.13,1.13,0,0,1,.13.27c.11.36,11.06,36.25,16,56.05a1,1,0,0,1-.24.93c-.38.39-37.86,39.46-100.32,67.22A1,1,0,0,1,680,528Zm-28.23-9.47a223,223,0,0,0,28.1,7.43c58.56-26.09,95-62.11,99-66.26-4.83-19.2-15-52.77-15.8-55.26a201.45,201.45,0,0,0-34.4-38.58L714,449.17a.94.94,0,0,1-.24.5ZM713,449h0Z" style="fill: #1d1d1b"/>
        </g>
        <g>
          <path d="M624,449s44-50,104-85c0,0,4,49,21,90,0,0-42,37-99,65C650,519,629,481,624,449Z" style="fill: #fff"/>
          <path d="M650,520a1,1,0,0,1-.87-.52C648.91,519.1,628,481,623,449.15a1,1,0,0,1,.24-.81c.44-.5,44.79-50.52,104.25-85.2a1,1,0,0,1,1,0,1,1,0,0,1,.54.81c0,.49,4.18,49.32,20.92,89.7a1,1,0,0,1-.26,1.13c-.42.37-42.75,37.41-99.22,65.15A1,1,0,0,1,650,520Zm-24.94-70.69c4.63,28.75,22.29,62.64,25.36,68.37,52.37-25.88,92.33-59.62,97.38-64-14.95-36.43-19.79-79.37-20.65-88.06C671.27,398.6,629.08,444.83,625.06,449.31Z" style="fill: #1d1d1b"/>
        </g>
        <g>
          <path d="M630,448.16s39.07-44.4,92.35-75.48c0,0,3.55,43.51,18.65,79.92a444.85,444.85,0,0,1-87.91,57.72S634.44,476.58,630,448.16Z" style="fill: #fff"/>
          <path d="M653.09,511.32a1,1,0,0,1-.88-.52c-.18-.34-18.78-34.22-23.2-62.49a1,1,0,0,1,.24-.81c.39-.45,39.79-44.88,92.6-75.68a1,1,0,0,1,1,0,1,1,0,0,1,.54.81c0,.43,3.71,43.78,18.57,79.62a1,1,0,0,1-.26,1.13c-.37.33-38,33.23-88.13,57.87A1,1,0,0,1,653.09,511.32Zm-22-62.85c4.1,25.36,19.59,55.18,22.45,60.53,46.23-22.87,81.56-52.62,86.29-56.68-13.16-32.11-17.49-69.88-18.3-78C672.13,403.48,634.83,444.28,631.06,448.47Z" style="fill: #1d1d1b"/>
        </g>
        <g>
          <path d="M647,457a49.4,49.4,0,0,0,27-17" style="fill: #fff"/>
          <path d="M647,458a1,1,0,0,1-.18-2c.15,0,15.77-3.12,26.39-16.64a1,1,0,1,1,1.58,1.24A49.91,49.91,0,0,1,647.18,458Z" style="fill: #1d1d1b"/>
        </g>
        <path d="M703.35,437.81a7.13,7.13,0,0,1-.79-.05,8.79,8.79,0,0,1-3.89-1.61,21.37,21.37,0,0,1-8.21-11.77,38.13,38.13,0,0,1-1.11-14.2,24,24,0,0,1,2.17-9,11.21,11.21,0,0,1,7.3-6.06c3.55-.75,7.31,1.05,8.56,4.12a.58.58,0,0,1,0,.14l.16-.13a1,1,0,0,1,1.39.26,33,33,0,0,1,3,30.79C710.46,434,707.39,437.81,703.35,437.81ZM700.44,397a6.11,6.11,0,0,0-1.2.12,9.19,9.19,0,0,0-5.93,5,22.15,22.15,0,0,0-2,8.25,36.56,36.56,0,0,0,1,13.46,19.48,19.48,0,0,0,7.41,10.68,6.93,6.93,0,0,0,3,1.29c3.34.4,6.07-3.12,7.39-6.25a31,31,0,0,0-2.86-28.88,1.09,1.09,0,0,1-.15-.33.89.89,0,0,1-.34.23,1,1,0,0,1-1.31-.54A5.49,5.49,0,0,0,700.44,397Z" style="fill: #1d1d1b"/>
        <path d="M705,461.27a1,1,0,0,1-.1-2,10.12,10.12,0,0,0,5.38-2.72,28.53,28.53,0,0,0,9.88-22.28,1,1,0,0,1,1-1,1,1,0,0,1,1,1,30.58,30.58,0,0,1-10.59,23.87,12.35,12.35,0,0,1-6.47,3.18Z" style="fill: #1d1d1b"/>
        <path d="M659.21,389.74a3.68,3.68,0,0,1-.66-.06,3.3,3.3,0,0,1-2.4-1.71,1.48,1.48,0,0,1,.63-2l.11-.05a2.28,2.28,0,0,1,.38-1.83,2.8,2.8,0,0,1,3.8-.46,3.46,3.46,0,0,1,.32,5.32A3.23,3.23,0,0,1,659.21,389.74Z" style="fill: #1d1d1b"/>
        <path d="M634.52,381.77l-.32,0-13.79-3.06a1.49,1.49,0,1,1,.64-2.92l13.8,3.05a1.5,1.5,0,0,1-.33,3Z" style="fill: #1d1d1b"/>
        <path d="M644.59,371.83a1.51,1.51,0,0,1-1.15-.53l-7.56-8.9c-1.29-1.51-1-2.94-.16-3.68a1.5,1.5,0,0,1,2.38,1.67l.06.07,7.57,8.89a1.51,1.51,0,0,1-1.14,2.48Z" style="fill: #1d1d1b"/>
        <path d="M656.37,372.75a1.45,1.45,0,0,1-.35,0,1.51,1.51,0,0,1-1.11-1.81l3.77-15.57a1.5,1.5,0,1,1,2.92.71l-3.77,15.56A1.5,1.5,0,0,1,656.37,372.75Z" style="fill: #1d1d1b"/>
        <path d="M771.29,461.62c-14.22,0-21.15-5.28-22.68-6.62H741a1,1,0,0,1,0-2h8a1,1,0,0,1,.71.29c.08.09,9,8.61,30.16,5.72a1,1,0,1,1,.26,2A65.18,65.18,0,0,1,771.29,461.62Z" style="fill: #1d1d1b"/>
        <path d="M722,374a1.07,1.07,0,0,1-.52-.14,1,1,0,0,1-.34-1.38l4.18-6.91a1,1,0,0,1,1.37-.34,1,1,0,0,1,.34,1.38l-4.17,6.91A1,1,0,0,1,722,374Z" style="fill: #1d1d1b"/>
        <path d="M624,450a1,1,0,0,1-.16-2l6-1a1,1,0,1,1,.32,2l-6,1Z" style="fill: #1d1d1b"/>
        <g>
          <path d="M653,510s-3,5-3,9" style="fill: #fff"/>
          <path d="M650,520a1,1,0,0,1-1-1c0-4.23,3-9.3,3.14-9.51a1,1,0,0,1,1.72,1c0,.05-2.86,4.82-2.86,8.49A1,1,0,0,1,650,520Z" style="fill: #1d1d1b"/>
        </g>
      </g>
      <path d="M587,629a1.25,1.25,0,0,1-.32,0l-3-1a1,1,0,1,1,.64-1.9l2.1.7c3-7.58,5.39-15.06,6.26-17.87l-4.24-.42a1,1,0,0,1,.2-2l5.46.53a1,1,0,0,1,.86,1.29c0,.1-3.06,10.16-7,20.08A1,1,0,0,1,587,629Z" style="fill: #1d1d1b"/>
      <path d="M572,674l-.21,0-4.94-1a1,1,0,1,1,.41-2l4.31.9c4.57-6.4,6.67-15.22,7.26-18.1l-4-.81a1,1,0,1,1,.4-2l5,1a1,1,0,0,1,.79,1.14c-.09.5-2.11,12.34-8.19,20.44A1,1,0,0,1,572,674Z" style="fill: #1d1d1b"/>
    </g>
  </g>
</svg>
